<svg width="222" height="172" viewBox="0 0 222 172" fill="none" xmlns="http://www.w3.org/2000/svg">
<g opacity="0.7">
<rect x="0.908203" y="0.90918" width="220.593" height="176.166" rx="9.26373" fill="white"/>
<path d="M200.659 18.2783L193.711 25.2261" stroke="black" stroke-width="1.15797" stroke-linecap="round" stroke-linejoin="round"/>
<path d="M193.711 18.2783L200.659 25.2261" stroke="black" stroke-width="1.15797" stroke-linecap="round" stroke-linejoin="round"/>
<path d="M17.3789 41.8584L15.0432 33.4368H16.3796L18.0203 39.9586H18.0985L19.805 33.4368H21.1291L22.8356 39.9627H22.9137L24.5504 33.4368H25.8909L23.5511 41.8584H22.2723L20.4999 35.5504H20.4341L18.6618 41.8584H17.3789ZM28.1803 38.1082V41.8584H26.9508V33.4368H28.1639V36.5702H28.242C28.39 36.2303 28.6162 35.9603 28.9205 35.7602C29.2248 35.56 29.6223 35.46 30.113 35.46C30.5461 35.46 30.9244 35.5491 31.2479 35.7273C31.5742 35.9055 31.8264 36.1714 32.0046 36.525C32.1855 36.8759 32.276 37.3145 32.276 37.8409V41.8584H31.0464V37.9889C31.0464 37.5256 30.9272 37.1665 30.6887 36.9115C30.4502 36.6539 30.1185 36.525 29.6936 36.525C29.403 36.525 29.1425 36.5867 28.9123 36.7101C28.6847 36.8334 28.5052 37.0144 28.3736 37.2529C28.2447 37.4886 28.1803 37.7737 28.1803 38.1082ZM36.6389 41.9859C36.0166 41.9859 35.4806 41.8529 35.0311 41.587C34.5842 41.3183 34.2388 40.9414 33.9948 40.4562C33.7536 39.9682 33.6329 39.3966 33.6329 38.7414C33.6329 38.0945 33.7536 37.5243 33.9948 37.0308C34.2388 36.5373 34.5787 36.1522 35.0146 35.8753C35.4532 35.5984 35.9659 35.46 36.5525 35.46C36.9089 35.46 37.2543 35.5189 37.5888 35.6368C37.9232 35.7547 38.2234 35.9397 38.4893 36.1919C38.7552 36.4441 38.965 36.7717 39.1185 37.1747C39.272 37.575 39.3488 38.0616 39.3488 38.6345V39.0704H34.3279V38.1493H38.1439C38.1439 37.8258 38.0781 37.5393 37.9465 37.2899C37.8149 37.0377 37.6299 36.8389 37.3914 36.6936C37.1556 36.5483 36.8788 36.4757 36.5608 36.4757C36.2153 36.4757 35.9138 36.5606 35.6561 36.7306C35.4011 36.8978 35.2038 37.1172 35.064 37.3886C34.9269 37.6572 34.8583 37.9492 34.8583 38.2644V38.984C34.8583 39.4062 34.9324 39.7653 35.0804 40.0614C35.2312 40.3575 35.4409 40.5836 35.7095 40.7399C35.9782 40.8934 36.2921 40.9702 36.6512 40.9702C36.8842 40.9702 37.0967 40.9373 37.2886 40.8715C37.4805 40.803 37.6463 40.7015 37.7862 40.5672C37.926 40.4329 38.0329 40.267 38.1069 40.0696L39.2706 40.2794C39.1774 40.622 39.0102 40.9222 38.7689 41.1799C38.5304 41.4349 38.2303 41.6336 37.8684 41.7762C37.5093 41.916 37.0994 41.9859 36.6389 41.9859ZM41.9425 38.1082V41.8584H40.7129V35.5422H41.8931V36.5702H41.9712C42.1165 36.2358 42.3441 35.9671 42.6539 35.7643C42.9664 35.5614 43.3598 35.46 43.834 35.46C44.2644 35.46 44.6414 35.5504 44.9648 35.7314C45.2883 35.9096 45.5392 36.1755 45.7174 36.5291C45.8956 36.8828 45.9846 37.32 45.9846 37.8409V41.8584H44.7551V37.9889C44.7551 37.5311 44.6359 37.1734 44.3974 36.9157C44.1589 36.6552 43.8313 36.525 43.4146 36.525C43.1295 36.525 42.8759 36.5867 42.6539 36.7101C42.4345 36.8334 42.2605 37.0144 42.1316 37.2529C42.0055 37.4886 41.9425 37.7737 41.9425 38.1082ZM48.6904 33.4368V34.2263C48.6904 34.4594 48.6465 34.7047 48.5588 34.9624C48.4738 35.2174 48.3532 35.4627 48.197 35.6985C48.0407 35.9342 47.857 36.1371 47.6459 36.3071L47.0373 35.8712C47.1991 35.6354 47.3389 35.3846 47.4568 35.1187C47.5774 34.8528 47.6377 34.5594 47.6377 34.2387V33.4368H48.6904ZM53.8141 37.0843L52.6997 37.2816C52.6531 37.1391 52.5791 37.0034 52.4776 36.8745C52.379 36.7457 52.2446 36.6401 52.0747 36.5579C51.9047 36.4757 51.6922 36.4345 51.4373 36.4345C51.0891 36.4345 50.7985 36.5127 50.5655 36.6689C50.3325 36.8225 50.216 37.0212 50.216 37.2652C50.216 37.4763 50.2941 37.6462 50.4504 37.7751C50.6066 37.9039 50.8589 38.0095 51.207 38.0917L52.2104 38.322C52.7915 38.4563 53.2247 38.6633 53.5098 38.9429C53.7949 39.2225 53.9374 39.5858 53.9374 40.0326C53.9374 40.4109 53.8278 40.7481 53.6085 41.0442C53.3919 41.3375 53.089 41.5678 52.6997 41.735C52.3132 41.9023 51.8649 41.9859 51.355 41.9859C50.6478 41.9859 50.0707 41.8351 49.6239 41.5335C49.177 41.2292 48.9029 40.7975 48.8014 40.2382L49.9898 40.0573C50.0638 40.3671 50.216 40.6015 50.4463 40.7605C50.6765 40.9167 50.9767 40.9949 51.3468 40.9949C51.7498 40.9949 52.0719 40.9112 52.3132 40.744C52.5544 40.5741 52.675 40.3671 52.675 40.1231C52.675 39.9257 52.601 39.7599 52.453 39.6255C52.3077 39.4912 52.0843 39.3898 51.7827 39.3212L50.7136 39.0868C50.1242 38.9525 49.6883 38.7387 49.4059 38.4454C49.1263 38.152 48.9865 37.7806 48.9865 37.331C48.9865 36.9582 49.0907 36.6319 49.299 36.3523C49.5073 36.0727 49.7952 35.8547 50.1625 35.6985C50.5299 35.5395 50.9507 35.46 51.4249 35.46C52.1076 35.46 52.6449 35.608 53.0369 35.9041C53.4289 36.1974 53.688 36.5908 53.8141 37.0843ZM59.131 44.227C58.9473 44.227 58.7801 44.2119 58.6293 44.1817C58.4786 44.1543 58.3662 44.1242 58.2921 44.0913L58.5882 43.0838C58.813 43.1441 59.0131 43.1702 59.1886 43.1619C59.364 43.1537 59.5189 43.0879 59.6533 42.9646C59.7903 42.8412 59.9109 42.6397 60.0151 42.3601L60.1673 41.9406L57.8563 35.5422H59.1721L60.7717 40.4438H60.8375L62.4371 35.5422H63.7571L61.1542 42.7014C61.0335 43.0303 60.88 43.3086 60.6936 43.5361C60.5072 43.7664 60.2851 43.9391 60.0275 44.0543C59.7698 44.1694 59.4709 44.227 59.131 44.227ZM67.3583 41.9859C66.7661 41.9859 66.2494 41.8502 65.808 41.5788C65.3667 41.3074 65.024 40.9277 64.78 40.4397C64.536 39.9518 64.414 39.3815 64.414 38.7291C64.414 38.0739 64.536 37.5009 64.78 37.0102C65.024 36.5195 65.3667 36.1385 65.808 35.8671C66.2494 35.5957 66.7661 35.46 67.3583 35.46C67.9504 35.46 68.4672 35.5957 68.9085 35.8671C69.3499 36.1385 69.6926 36.5195 69.9366 37.0102C70.1806 37.5009 70.3025 38.0739 70.3025 38.7291C70.3025 39.3815 70.1806 39.9518 69.9366 40.4397C69.6926 40.9277 69.3499 41.3074 68.9085 41.5788C68.4672 41.8502 67.9504 41.9859 67.3583 41.9859ZM67.3624 40.9537C67.7462 40.9537 68.0642 40.8523 68.3164 40.6494C68.5686 40.4466 68.755 40.1766 68.8757 39.8394C68.999 39.5022 69.0607 39.1307 69.0607 38.725C69.0607 38.322 68.999 37.9519 68.8757 37.6147C68.755 37.2748 68.5686 37.002 68.3164 36.7964C68.0642 36.5908 67.7462 36.488 67.3624 36.488C66.9759 36.488 66.6551 36.5908 66.4002 36.7964C66.148 37.002 65.9602 37.2748 65.8368 37.6147C65.7162 37.9519 65.6559 38.322 65.6559 38.725C65.6559 39.1307 65.7162 39.5022 65.8368 39.8394C65.9602 40.1766 66.148 40.4466 66.4002 40.6494C66.6551 40.8523 66.9759 40.9537 67.3624 40.9537ZM75.676 39.239V35.5422H76.9097V41.8584H75.7007V40.7646H75.6349C75.4896 41.1018 75.2566 41.3828 74.9359 41.6076C74.6179 41.8296 74.2217 41.9406 73.7475 41.9406C73.3417 41.9406 72.9826 41.8515 72.6701 41.6734C72.3603 41.4924 72.1163 41.2251 71.9381 40.8715C71.7627 40.5179 71.675 40.0806 71.675 39.5597V35.5422H72.9045V39.4117C72.9045 39.8421 73.0237 40.1848 73.2622 40.4397C73.5007 40.6947 73.8105 40.8222 74.1916 40.8222C74.4218 40.8222 74.6507 40.7646 74.8783 40.6494C75.1086 40.5343 75.2991 40.3602 75.4499 40.1272C75.6034 39.8942 75.6788 39.5981 75.676 39.239ZM81.7249 41.8584V33.4368H82.9544V36.5661H83.0285C83.0997 36.4345 83.2025 36.2824 83.3369 36.1097C83.4712 35.937 83.6576 35.7862 83.8961 35.6574C84.1346 35.5258 84.4499 35.46 84.8419 35.46C85.3518 35.46 85.8069 35.5888 86.2071 35.8465C86.6073 36.1042 86.9212 36.4757 87.1488 36.9609C87.3791 37.4461 87.4942 38.03 87.4942 38.7126C87.4942 39.3953 87.3804 39.9805 87.1529 40.4685C86.9253 40.9537 86.6128 41.3279 86.2153 41.5911C85.8178 41.8515 85.3641 41.9818 84.8542 41.9818C84.4704 41.9818 84.1565 41.9173 83.9126 41.7885C83.6713 41.6596 83.4822 41.5089 83.3451 41.3362C83.208 41.1635 83.1025 41.0099 83.0285 40.8756H82.9257V41.8584H81.7249ZM82.9298 38.7003C82.9298 39.1444 82.9942 39.5337 83.123 39.8681C83.2519 40.2026 83.4383 40.4644 83.6823 40.6536C83.9263 40.84 84.2251 40.9332 84.5787 40.9332C84.9461 40.9332 85.2531 40.8359 85.4998 40.6412C85.7465 40.4438 85.933 40.1766 86.0591 39.8394C86.1879 39.5022 86.2523 39.1225 86.2523 38.7003C86.2523 38.2836 86.1893 37.9094 86.0632 37.5777C85.9398 37.246 85.7534 36.9842 85.5039 36.7923C85.2572 36.6004 84.9488 36.5045 84.5787 36.5045C84.2223 36.5045 83.9208 36.5963 83.6741 36.78C83.4301 36.9636 83.245 37.22 83.1189 37.5489C82.9928 37.8779 82.9298 38.2617 82.9298 38.7003ZM88.8748 41.8584V35.5422H90.1043V41.8584H88.8748ZM89.4958 34.5677C89.2819 34.5677 89.0982 34.4964 88.9447 34.3538C88.794 34.2085 88.7186 34.0358 88.7186 33.8357C88.7186 33.6328 88.794 33.4601 88.9447 33.3176C89.0982 33.1723 89.2819 33.0996 89.4958 33.0996C89.7096 33.0996 89.8919 33.1723 90.0427 33.3176C90.1962 33.4601 90.2729 33.6328 90.2729 33.8357C90.2729 34.0358 90.1962 34.2085 90.0427 34.3538C89.8919 34.4964 89.7096 34.5677 89.4958 34.5677ZM91.7584 41.8584V35.5422H92.9468V36.5456H93.0126C93.1278 36.2056 93.3306 35.9384 93.6212 35.7437C93.9145 35.5463 94.2462 35.4476 94.6163 35.4476C94.6931 35.4476 94.7836 35.4504 94.8877 35.4559C94.9946 35.4613 95.0783 35.4682 95.1386 35.4764V36.6525C95.0892 36.6388 95.0015 36.6237 94.8754 36.6073C94.7493 36.5881 94.6232 36.5785 94.4971 36.5785C94.2065 36.5785 93.9474 36.6401 93.7199 36.7635C93.4951 36.8841 93.3169 37.0527 93.1853 37.2693C93.0537 37.4831 92.9879 37.7271 92.9879 38.0013V41.8584H91.7584ZM99.5241 35.5422V36.5291H96.0741V35.5422H99.5241ZM96.9993 34.029H98.2288V40.0038C98.2288 40.2423 98.2645 40.4219 98.3357 40.5425C98.407 40.6604 98.4988 40.7413 98.6112 40.7851C98.7264 40.8263 98.8511 40.8468 98.9854 40.8468C99.0841 40.8468 99.1705 40.84 99.2445 40.8263C99.3185 40.8126 99.3761 40.8016 99.4172 40.7934L99.6393 41.8091C99.568 41.8365 99.4666 41.8639 99.335 41.8913C99.2034 41.9215 99.0389 41.9379 98.8415 41.9406C98.518 41.9461 98.2165 41.8886 97.9369 41.7679C97.6572 41.6473 97.4311 41.4609 97.2584 41.2087C97.0857 40.9565 96.9993 40.6398 96.9993 40.2588V34.029ZM102.249 38.1082V41.8584H101.02V33.4368H102.233V36.5702H102.311C102.459 36.2303 102.685 35.9603 102.99 35.7602C103.294 35.56 103.691 35.46 104.182 35.46C104.615 35.46 104.994 35.5491 105.317 35.7273C105.643 35.9055 105.895 36.1714 106.074 36.525C106.255 36.8759 106.345 37.3145 106.345 37.8409V41.8584H105.116V37.9889C105.116 37.5256 104.996 37.1665 104.758 36.9115C104.519 36.6539 104.188 36.525 103.763 36.525C103.472 36.525 103.212 36.5867 102.981 36.7101C102.754 36.8334 102.574 37.0144 102.443 37.2529C102.314 37.4886 102.249 37.7737 102.249 38.1082ZM110.35 41.9818C109.84 41.9818 109.385 41.8515 108.985 41.5911C108.588 41.3279 108.275 40.9537 108.047 40.4685C107.823 39.9805 107.71 39.3953 107.71 38.7126C107.71 38.03 107.824 37.4461 108.052 36.9609C108.282 36.4757 108.597 36.1042 108.997 35.8465C109.398 35.5888 109.851 35.46 110.358 35.46C110.75 35.46 111.066 35.5258 111.304 35.6574C111.545 35.7862 111.732 35.937 111.863 36.1097C111.998 36.2824 112.102 36.4345 112.176 36.5661H112.25V33.4368H113.48V41.8584H112.279V40.8756H112.176C112.102 41.0099 111.995 41.1635 111.855 41.3362C111.718 41.5089 111.529 41.6596 111.288 41.7885C111.047 41.9173 110.734 41.9818 110.35 41.9818ZM110.622 40.9332C110.975 40.9332 111.274 40.84 111.518 40.6536C111.765 40.4644 111.951 40.2026 112.077 39.8681C112.206 39.5337 112.271 39.1444 112.271 38.7003C112.271 38.2617 112.208 37.8779 112.081 37.5489C111.955 37.22 111.77 36.9636 111.526 36.78C111.282 36.5963 110.981 36.5045 110.622 36.5045C110.252 36.5045 109.943 36.6004 109.696 36.7923C109.45 36.9842 109.263 37.246 109.137 37.5777C109.014 37.9094 108.952 38.2836 108.952 38.7003C108.952 39.1225 109.015 39.5022 109.141 39.8394C109.267 40.1766 109.454 40.4438 109.701 40.6412C109.95 40.8359 110.257 40.9332 110.622 40.9332ZM117.072 41.9982C116.672 41.9982 116.31 41.9242 115.987 41.7762C115.663 41.6254 115.407 41.4074 115.218 41.1223C115.032 40.8372 114.938 40.4877 114.938 40.0737C114.938 39.7174 115.007 39.424 115.144 39.1938C115.281 38.9635 115.466 38.7812 115.699 38.6469C115.932 38.5125 116.193 38.4111 116.48 38.3426C116.768 38.274 117.062 38.2219 117.36 38.1863C117.739 38.1424 118.046 38.1068 118.281 38.0794C118.517 38.0492 118.689 38.0013 118.795 37.9355C118.902 37.8697 118.956 37.7628 118.956 37.6147V37.5859C118.956 37.2268 118.854 36.9486 118.652 36.7512C118.451 36.5538 118.153 36.4551 117.755 36.4551C117.341 36.4551 117.015 36.5469 116.776 36.7306C116.541 36.9115 116.378 37.113 116.287 37.3351L115.132 37.0719C115.269 36.6881 115.469 36.3783 115.732 36.1426C115.998 35.9041 116.304 35.7314 116.649 35.6245C116.994 35.5148 117.358 35.46 117.739 35.46C117.991 35.46 118.258 35.4901 118.541 35.5504C118.826 35.608 119.092 35.7149 119.338 35.8712C119.588 36.0274 119.792 36.2509 119.951 36.5415C120.11 36.8293 120.189 37.2035 120.189 37.6641V41.8584H118.989V40.9949H118.939C118.86 41.1539 118.741 41.3101 118.582 41.4636C118.423 41.6172 118.218 41.7446 117.969 41.8461C117.719 41.9475 117.421 41.9982 117.072 41.9982ZM117.34 41.0113C117.68 41.0113 117.97 40.9441 118.212 40.8098C118.456 40.6755 118.641 40.5 118.767 40.2835C118.896 40.0642 118.96 39.8298 118.96 39.5803V38.7661C118.916 38.81 118.831 38.8511 118.705 38.8895C118.582 38.9251 118.44 38.9566 118.281 38.984C118.122 39.0087 117.968 39.032 117.817 39.0539C117.666 39.0731 117.54 39.0896 117.438 39.1033C117.2 39.1335 116.982 39.1842 116.785 39.2554C116.59 39.3267 116.434 39.4295 116.316 39.5638C116.201 39.6954 116.143 39.8709 116.143 40.0902C116.143 40.3945 116.256 40.6248 116.48 40.781C116.705 40.9345 116.992 41.0113 117.34 41.0113ZM122.378 44.227C122.194 44.227 122.027 44.2119 121.876 44.1817C121.726 44.1543 121.613 44.1242 121.539 44.0913L121.835 43.0838C122.06 43.1441 122.26 43.1702 122.436 43.1619C122.611 43.1537 122.766 43.0879 122.9 42.9646C123.037 42.8412 123.158 42.6397 123.262 42.3601L123.414 41.9406L121.103 35.5422H122.419L124.019 40.4438H124.085L125.684 35.5422H127.004L124.401 42.7014C124.281 43.0303 124.127 43.3086 123.941 43.5361C123.754 43.7664 123.532 43.9391 123.275 44.0543C123.017 44.1694 122.718 44.227 122.378 44.227Z" fill="#050505"/>
<path d="M15.5185 65.1221V59.227H17.5795C17.9902 59.227 18.3289 59.298 18.5956 59.44C18.8624 59.5801 19.061 59.7691 19.1915 60.007C19.322 60.2431 19.3872 60.505 19.3872 60.7929C19.3872 61.0462 19.3421 61.2553 19.2519 61.4204C19.1636 61.5854 19.0466 61.7159 18.9007 61.8118C18.7568 61.9078 18.6004 61.9788 18.4316 62.0248V62.0824C18.6119 62.0939 18.7933 62.1572 18.9756 62.2724C19.1579 62.3875 19.3104 62.5526 19.4333 62.7675C19.5561 62.9824 19.6175 63.2453 19.6175 63.5562C19.6175 63.8517 19.5503 64.1175 19.416 64.3535C19.2817 64.5896 19.0696 64.7767 18.7799 64.9148C18.4901 65.053 18.113 65.1221 17.6486 65.1221H15.5185ZM16.2324 64.4888H17.6486C18.1149 64.4888 18.4459 64.3986 18.6417 64.2182C18.8393 64.0359 18.9382 63.8152 18.9382 63.5562C18.9382 63.3566 18.8873 63.1724 18.7856 63.0035C18.6839 62.8327 18.539 62.6965 18.351 62.5948C18.1629 62.4912 17.9403 62.4393 17.6832 62.4393H16.2324V64.4888ZM16.2324 61.8176H17.5565C17.7714 61.8176 17.9652 61.7754 18.138 61.6909C18.3126 61.6065 18.4507 61.4875 18.5525 61.334C18.6561 61.1805 18.7079 61.0001 18.7079 60.7929C18.7079 60.5338 18.6177 60.3141 18.4373 60.1337C18.2569 59.9514 17.971 59.8602 17.5795 59.8602H16.2324V61.8176ZM20.6983 65.1221V60.7007H21.3777V65.1221H20.6983ZM21.0438 59.9639C20.9114 59.9639 20.7972 59.9188 20.7012 59.8286C20.6072 59.7384 20.5602 59.63 20.5602 59.5033C20.5602 59.3767 20.6072 59.2682 20.7012 59.178C20.7972 59.0878 20.9114 59.0427 21.0438 59.0427C21.1762 59.0427 21.2894 59.0878 21.3834 59.178C21.4794 59.2682 21.5273 59.3767 21.5273 59.5033C21.5273 59.63 21.4794 59.7384 21.3834 59.8286C21.2894 59.9188 21.1762 59.9639 21.0438 59.9639ZM22.6219 65.1221V60.7007H23.2782V61.3685H23.3242C23.4048 61.1498 23.5507 60.9723 23.7618 60.836C23.9728 60.6998 24.2108 60.6317 24.4756 60.6317C24.5255 60.6317 24.5879 60.6326 24.6627 60.6345C24.7376 60.6365 24.7942 60.6393 24.8325 60.6432V61.334C24.8095 61.3283 24.7567 61.3196 24.6742 61.3081C24.5936 61.2947 24.5082 61.288 24.418 61.288C24.2031 61.288 24.0112 61.333 23.8424 61.4232C23.6754 61.5115 23.543 61.6343 23.4451 61.7917C23.3492 61.9471 23.3012 62.1246 23.3012 62.3242V65.1221H22.6219ZM27.8377 60.7007V61.2764H25.5464V60.7007H27.8377ZM26.2142 59.6415H26.8935V63.8555C26.8935 64.0474 26.9214 64.1914 26.977 64.2873C27.0346 64.3813 27.1075 64.4447 27.1958 64.4773C27.286 64.508 27.3809 64.5233 27.4807 64.5233C27.5556 64.5233 27.617 64.5195 27.665 64.5118C27.7129 64.5022 27.7513 64.4946 27.7801 64.4888L27.9183 65.099C27.8722 65.1163 27.8079 65.1336 27.7254 65.1509C27.6429 65.17 27.5383 65.1796 27.4117 65.1796C27.2198 65.1796 27.0317 65.1384 26.8475 65.0559C26.6652 64.9733 26.5136 64.8477 26.3927 64.6788C26.2737 64.5099 26.2142 64.2969 26.2142 64.0398V59.6415ZM29.6338 62.4624V65.1221H28.9545V59.227H29.6338V61.3916H29.6914C29.795 61.1632 29.9505 60.9819 30.1577 60.8475C30.3669 60.7113 30.6451 60.6432 30.9925 60.6432C31.2937 60.6432 31.5576 60.7036 31.784 60.8245C32.0105 60.9435 32.1861 61.1268 32.3108 61.3743C32.4375 61.6199 32.5008 61.9327 32.5008 62.3127V65.1221H31.8215V62.3587C31.8215 62.0076 31.7303 61.736 31.548 61.5441C31.3676 61.3503 31.1172 61.2534 30.7967 61.2534C30.5741 61.2534 30.3746 61.3004 30.198 61.3945C30.0234 61.4885 29.8852 61.6257 29.7835 61.8061C29.6837 61.9865 29.6338 62.2052 29.6338 62.4624ZM35.4131 65.2142C35.0446 65.2142 34.7194 65.1211 34.4373 64.935C34.1552 64.7469 33.9345 64.4821 33.7752 64.1405C33.6159 63.797 33.5363 63.3912 33.5363 62.9229C33.5363 62.4585 33.6159 62.0555 33.7752 61.714C33.9345 61.3724 34.1561 61.1085 34.4401 60.9224C34.7242 60.7362 35.0523 60.6432 35.4246 60.6432C35.7124 60.6432 35.9398 60.6912 36.1068 60.7871C36.2757 60.8811 36.4042 60.9886 36.4925 61.1095C36.5827 61.2285 36.6527 61.3263 36.7026 61.4031H36.7602V59.227H37.4395V65.1221H36.7832V64.4428H36.7026C36.6527 64.5233 36.5817 64.6251 36.4896 64.7479C36.3975 64.8688 36.2661 64.9772 36.0953 65.0731C35.9245 65.1672 35.6971 65.2142 35.4131 65.2142ZM35.5052 64.6039C35.7777 64.6039 36.008 64.5329 36.196 64.3909C36.3841 64.247 36.527 64.0484 36.6249 63.7951C36.7228 63.5399 36.7717 63.2453 36.7717 62.9114C36.7717 62.5813 36.7237 62.2925 36.6278 62.045C36.5318 61.7955 36.3898 61.6017 36.2018 61.4635C36.0137 61.3235 35.7815 61.2534 35.5052 61.2534C35.2173 61.2534 34.9775 61.3273 34.7856 61.4751C34.5956 61.6209 34.4526 61.8195 34.3567 62.0709C34.2626 62.3204 34.2156 62.6005 34.2156 62.9114C34.2156 63.2261 34.2636 63.512 34.3596 63.7692C34.4574 64.0244 34.6013 64.2278 34.7913 64.3794C34.9832 64.5291 35.2212 64.6039 35.5052 64.6039ZM40.0791 65.2257C39.7989 65.2257 39.5446 65.1729 39.3163 65.0674C39.0879 64.9599 38.9066 64.8054 38.7722 64.6039C38.6379 64.4005 38.5707 64.1549 38.5707 63.8671C38.5707 63.6138 38.6206 63.4084 38.7204 63.2511C38.8202 63.0918 38.9536 62.9671 39.1205 62.8769C39.2875 62.7867 39.4717 62.7195 39.6732 62.6754C39.8766 62.6293 40.081 62.5929 40.2863 62.566C40.555 62.5315 40.7728 62.5055 40.9397 62.4883C41.1086 62.4691 41.2314 62.4374 41.3082 62.3933C41.3868 62.3491 41.4262 62.2724 41.4262 62.163V62.14C41.4262 61.856 41.3485 61.6353 41.193 61.4779C41.0395 61.3206 40.8064 61.2419 40.4936 61.2419C40.1693 61.2419 39.915 61.3129 39.7308 61.4549C39.5465 61.5969 39.417 61.7485 39.3422 61.9097L38.6974 61.6794C38.8125 61.4108 38.9661 61.2016 39.158 61.0519C39.3518 60.9003 39.5629 60.7948 39.7912 60.7353C40.0215 60.6739 40.2479 60.6432 40.4705 60.6432C40.6125 60.6432 40.7757 60.6604 40.9599 60.695C41.146 60.7276 41.3254 60.7957 41.4981 60.8994C41.6728 61.003 41.8177 61.1594 41.9328 61.3685C42.0479 61.5777 42.1055 61.8579 42.1055 62.2091V65.1221H41.4262V64.5233H41.3916C41.3456 64.6193 41.2688 64.722 41.1614 64.8313C41.0539 64.9407 40.9109 65.0338 40.7325 65.1106C40.554 65.1873 40.3362 65.2257 40.0791 65.2257ZM40.1827 64.6155C40.4513 64.6155 40.6778 64.5627 40.862 64.4571C41.0481 64.3516 41.1882 64.2154 41.2823 64.0484C41.3782 63.8815 41.4262 63.7059 41.4262 63.5216V62.8999C41.3974 62.9344 41.3341 62.9661 41.2362 62.9949C41.1403 63.0217 41.029 63.0457 40.9023 63.0668C40.7776 63.086 40.6557 63.1033 40.5367 63.1187C40.4197 63.1321 40.3247 63.1436 40.2518 63.1532C40.0752 63.1762 39.9102 63.2136 39.7567 63.2655C39.6051 63.3154 39.4823 63.3912 39.3882 63.4929C39.2961 63.5926 39.2501 63.7289 39.2501 63.9016C39.2501 64.1376 39.3374 64.3161 39.512 64.437C39.6886 64.556 39.9121 64.6155 40.1827 64.6155ZM43.6246 66.7801C43.5095 66.7801 43.4068 66.7705 43.3166 66.7513C43.2264 66.734 43.1641 66.7167 43.1295 66.6995L43.3022 66.1007C43.4673 66.143 43.6131 66.1583 43.7398 66.1468C43.8664 66.1353 43.9787 66.0787 44.0765 65.977C44.1763 65.8772 44.2675 65.715 44.35 65.4905L44.4766 65.1451L42.8417 60.7007H43.5786L44.799 64.224H44.8451L46.0656 60.7007H46.8024L44.9257 65.7668C44.8412 65.9952 44.7367 66.1842 44.6119 66.3339C44.4872 66.4855 44.3423 66.5978 44.1773 66.6707C44.0142 66.7436 43.8299 66.7801 43.6246 66.7801ZM51.8901 65.1221H50.0709V59.227H51.9707C52.5426 59.227 53.0319 59.345 53.4387 59.581C53.8456 59.8151 54.1574 60.1519 54.3742 60.5914C54.5911 61.0289 54.6995 61.5528 54.6995 62.163C54.6995 62.7771 54.5901 63.3058 54.3714 63.749C54.1526 64.1904 53.8341 64.5301 53.4157 64.768C52.9974 65.0041 52.4889 65.1221 51.8901 65.1221ZM50.7848 64.4888H51.8441C52.3315 64.4888 52.7354 64.3948 53.0559 64.2067C53.3764 64.0187 53.6153 63.751 53.7727 63.4036C53.93 63.0563 54.0087 62.6428 54.0087 62.163C54.0087 61.6871 53.931 61.2774 53.7755 60.9339C53.6201 60.5885 53.3879 60.3237 53.0789 60.1394C52.77 59.9533 52.3852 59.8602 51.9247 59.8602H50.7848V64.4888ZM57.1059 65.2257C56.8257 65.2257 56.5715 65.1729 56.3431 65.0674C56.1148 64.9599 55.9334 64.8054 55.7991 64.6039C55.6648 64.4005 55.5976 64.1549 55.5976 63.8671C55.5976 63.6138 55.6475 63.4084 55.7473 63.2511C55.8471 63.0918 55.9804 62.9671 56.1474 62.8769C56.3143 62.7867 56.4986 62.7195 56.7001 62.6754C56.9035 62.6293 57.1078 62.5929 57.3132 62.566C57.5818 62.5315 57.7996 62.5055 57.9666 62.4883C58.1354 62.4691 58.2583 62.4374 58.335 62.3933C58.4137 62.3491 58.453 62.2724 58.453 62.163V62.14C58.453 61.856 58.3753 61.6353 58.2199 61.4779C58.0664 61.3206 57.8332 61.2419 57.5204 61.2419C57.1961 61.2419 56.9418 61.3129 56.7576 61.4549C56.5734 61.5969 56.4439 61.7485 56.369 61.9097L55.7243 61.6794C55.8394 61.4108 55.9929 61.2016 56.1848 61.0519C56.3786 60.9003 56.5897 60.7948 56.8181 60.7353C57.0483 60.6739 57.2748 60.6432 57.4974 60.6432C57.6394 60.6432 57.8025 60.6604 57.9867 60.695C58.1729 60.7276 58.3523 60.7957 58.525 60.8994C58.6996 61.003 58.8445 61.1594 58.9597 61.3685C59.0748 61.5777 59.1324 61.8579 59.1324 62.2091V65.1221H58.453V64.5233H58.4185C58.3724 64.6193 58.2957 64.722 58.1882 64.8313C58.0808 64.9407 57.9378 65.0338 57.7593 65.1106C57.5809 65.1873 57.3631 65.2257 57.1059 65.2257ZM57.2095 64.6155C57.4782 64.6155 57.7046 64.5627 57.8889 64.4571C58.075 64.3516 58.2151 64.2154 58.3091 64.0484C58.4051 63.8815 58.453 63.7059 58.453 63.5216V62.8999C58.4243 62.9344 58.3609 62.9661 58.2631 62.9949C58.1671 63.0217 58.0558 63.0457 57.9292 63.0668C57.8044 63.086 57.6826 63.1033 57.5636 63.1187C57.4465 63.1321 57.3515 63.1436 57.2786 63.1532C57.1021 63.1762 56.937 63.2136 56.7835 63.2655C56.6319 63.3154 56.5091 63.3912 56.4151 63.4929C56.323 63.5926 56.2769 63.7289 56.2769 63.9016C56.2769 64.1376 56.3642 64.3161 56.5389 64.437C56.7154 64.556 56.939 64.6155 57.2095 64.6155ZM62.2951 60.7007V61.2764H60.0038V60.7007H62.2951ZM60.6716 59.6415H61.3509V63.8555C61.3509 64.0474 61.3788 64.1914 61.4344 64.2873C61.492 64.3813 61.5649 64.4447 61.6532 64.4773C61.7434 64.508 61.8384 64.5233 61.9381 64.5233C62.013 64.5233 62.0744 64.5195 62.1224 64.5118C62.1703 64.5022 62.2087 64.4946 62.2375 64.4888L62.3757 65.099C62.3296 65.1163 62.2653 65.1336 62.1828 65.1509C62.1003 65.17 61.9957 65.1796 61.8691 65.1796C61.6772 65.1796 61.4891 65.1384 61.3049 65.0559C61.1226 64.9733 60.971 64.8477 60.8501 64.6788C60.7311 64.5099 60.6716 64.2969 60.6716 64.0398V59.6415ZM65.1232 65.2142C64.6972 65.2142 64.3297 65.1202 64.0207 64.9321C63.7137 64.7421 63.4767 64.4773 63.3097 64.1376C63.1447 63.7961 63.0622 63.3988 63.0622 62.9459C63.0622 62.4931 63.1447 62.0939 63.3097 61.7485C63.4767 61.4012 63.7089 61.1306 64.0063 60.9368C64.3057 60.741 64.6549 60.6432 65.0541 60.6432C65.2844 60.6432 65.5118 60.6816 65.7363 60.7583C65.9608 60.8351 66.1652 60.9598 66.3494 61.1325C66.5336 61.3033 66.6804 61.5297 66.7898 61.8118C66.8992 62.0939 66.9539 62.4413 66.9539 62.8538V63.1417H63.5458V62.5545H66.263C66.263 62.305 66.2131 62.0824 66.1134 61.8867C66.0155 61.6909 65.8754 61.5365 65.6931 61.4232C65.5127 61.31 65.2997 61.2534 65.0541 61.2534C64.7835 61.2534 64.5494 61.3206 64.3517 61.4549C64.156 61.5873 64.0054 61.76 63.8998 61.973C63.7943 62.186 63.7415 62.4144 63.7415 62.6581V63.0496C63.7415 63.3835 63.7991 63.6665 63.9142 63.8987C64.0313 64.129 64.1934 64.3046 64.4007 64.4255C64.6079 64.5445 64.8488 64.6039 65.1232 64.6039C65.3016 64.6039 65.4628 64.579 65.6068 64.5291C65.7526 64.4773 65.8783 64.4005 65.9838 64.2988C66.0894 64.1952 66.1709 64.0666 66.2285 63.9131L66.8848 64.0973C66.8157 64.3199 66.6996 64.5157 66.5365 64.6845C66.3734 64.8515 66.1719 64.982 65.932 65.076C65.6921 65.1681 65.4225 65.2142 65.1232 65.2142Z" fill="#575656"/>
<rect x="14.8047" y="72.7539" width="192.801" height="25.4753" rx="6.9478" fill="#F0F0F0"/>
<path d="M71.0723 88.4912H69.2531V82.5961H71.1529C71.7247 82.5961 72.2141 82.7141 72.6209 82.9502C73.0277 83.1843 73.3396 83.5211 73.5564 83.9605C73.7732 84.398 73.8817 84.9219 73.8817 85.5321C73.8817 86.1462 73.7723 86.6749 73.5535 87.1182C73.3348 87.5595 73.0162 87.8992 72.5979 88.1372C72.1795 88.3732 71.671 88.4912 71.0723 88.4912ZM69.967 87.8579H71.0262C71.5136 87.8579 71.9176 87.7639 72.2381 87.5759C72.5585 87.3878 72.7974 87.1201 72.9548 86.7728C73.1122 86.4254 73.1908 86.0119 73.1908 85.5321C73.1908 85.0562 73.1131 84.6465 72.9577 84.303C72.8022 83.9576 72.57 83.6928 72.2611 83.5086C71.9521 83.3224 71.5674 83.2294 71.1068 83.2294H69.967V87.8579ZM76.8983 88.4912H75.0791V82.5961H76.9789C77.5508 82.5961 78.0401 82.7141 78.4469 82.9502C78.8537 83.1843 79.1656 83.5211 79.3824 83.9605C79.5993 84.398 79.7077 84.9219 79.7077 85.5321C79.7077 86.1462 79.5983 86.6749 79.3795 87.1182C79.1608 87.5595 78.8422 87.8992 78.4239 88.1372C78.0056 88.3732 77.497 88.4912 76.8983 88.4912ZM75.793 87.8579H76.8522C77.3397 87.8579 77.7436 87.7639 78.0641 87.5759C78.3845 87.3878 78.6235 87.1201 78.7808 86.7728C78.9382 86.4254 79.0169 86.0119 79.0169 85.5321C79.0169 85.0562 78.9391 84.6465 78.7837 84.303C78.6283 83.9576 78.3961 83.6928 78.0871 83.5086C77.7782 83.3224 77.3934 83.2294 76.9328 83.2294H75.793V87.8579ZM89.7363 82.3198L87.8365 89.3778H87.2147L89.1145 82.3198H89.7363ZM99.7526 82.5961H100.605L102.608 87.4895H102.677L104.681 82.5961H105.533V88.4912H104.865V84.0123H104.807L102.965 88.4912H102.32L100.478 84.0123H100.42V88.4912H99.7526V82.5961ZM106.964 82.5961H107.816L109.819 87.4895H109.888L111.892 82.5961H112.744V88.4912H112.076V84.0123H112.018L110.176 88.4912H109.531L107.689 84.0123H107.632V88.4912H106.964V82.5961ZM123.006 82.3198L121.107 89.3778H120.485L122.385 82.3198H123.006ZM132.516 82.5961H133.334L134.968 85.3479H135.038L136.673 82.5961H137.49L135.36 86.0618V88.4912H134.646V86.0618L132.516 82.5961ZM137.907 82.5961H138.724L140.359 85.3479H140.428L142.063 82.5961H142.881L140.751 86.0618V88.4912H140.037V86.0618L137.907 82.5961ZM143.297 82.5961H144.115L145.75 85.3479H145.819L147.454 82.5961H148.271L146.141 86.0618V88.4912H145.427V86.0618L143.297 82.5961ZM148.688 82.5961H149.505L151.14 85.3479H151.21L152.844 82.5961H153.662L151.532 86.0618V88.4912H150.818V86.0618L148.688 82.5961Z" fill="#575656"/>
<rect x="14.8047" y="107.493" width="192.801" height="27.8956" rx="6.9478" fill="#050505"/>
<path d="M100.205 119.388C100.166 119.055 100.006 118.796 99.7251 118.612C99.4443 118.428 99.1 118.336 98.6921 118.336C98.3938 118.336 98.1329 118.384 97.9092 118.481C97.6877 118.577 97.5144 118.71 97.3894 118.879C97.2666 119.047 97.2052 119.239 97.2052 119.454C97.2052 119.634 97.2479 119.789 97.3335 119.918C97.4212 120.045 97.533 120.152 97.669 120.237C97.805 120.321 97.9475 120.39 98.0967 120.444C98.2458 120.497 98.3829 120.54 98.5079 120.573L99.1921 120.757C99.3676 120.803 99.5628 120.867 99.7777 120.948C99.9948 121.029 100.202 121.14 100.399 121.28C100.599 121.418 100.764 121.596 100.893 121.813C101.022 122.03 101.087 122.297 101.087 122.612C101.087 122.976 100.992 123.305 100.801 123.599C100.612 123.893 100.336 124.127 99.9718 124.3C99.6099 124.473 99.1702 124.56 98.6526 124.56C98.1701 124.56 97.7524 124.482 97.3993 124.326C97.0484 124.171 96.772 123.953 96.5703 123.675C96.3707 123.396 96.2577 123.073 96.2314 122.704H97.0736C97.0955 122.959 97.181 123.169 97.3302 123.336C97.4815 123.501 97.6723 123.623 97.9026 123.705C98.1351 123.783 98.3851 123.823 98.6526 123.823C98.9641 123.823 99.2437 123.773 99.4915 123.672C99.7393 123.569 99.9356 123.426 100.08 123.244C100.225 123.06 100.297 122.845 100.297 122.599C100.297 122.375 100.235 122.193 100.11 122.053C99.9849 121.913 99.8205 121.799 99.6165 121.711C99.4125 121.623 99.1921 121.546 98.9553 121.481L98.1263 121.244C97.5999 121.093 97.1832 120.876 96.8762 120.596C96.5692 120.315 96.4156 119.948 96.4156 119.494C96.4156 119.117 96.5176 118.788 96.7216 118.507C96.9277 118.224 97.2041 118.005 97.5506 117.849C97.8993 117.691 98.2886 117.612 98.7184 117.612C99.1527 117.612 99.5386 117.69 99.8764 117.846C100.214 117.999 100.482 118.21 100.679 118.477C100.879 118.745 100.984 119.049 100.995 119.388H100.205ZM105.507 122.375V119.388H106.284V124.441H105.507V123.586H105.455C105.336 123.843 105.152 124.061 104.902 124.241C104.652 124.418 104.336 124.507 103.955 124.507C103.639 124.507 103.358 124.438 103.113 124.3C102.867 124.16 102.674 123.949 102.534 123.668C102.393 123.385 102.323 123.029 102.323 122.599V119.388H103.099V122.547C103.099 122.915 103.203 123.209 103.409 123.428C103.617 123.647 103.882 123.757 104.205 123.757C104.398 123.757 104.594 123.708 104.794 123.609C104.995 123.51 105.164 123.359 105.3 123.155C105.438 122.951 105.507 122.691 105.507 122.375ZM107.811 124.441V117.704H108.587V120.191H108.653C108.71 120.103 108.789 119.992 108.89 119.856C108.993 119.717 109.14 119.595 109.331 119.487C109.524 119.377 109.785 119.323 110.114 119.323C110.539 119.323 110.914 119.429 111.239 119.642C111.564 119.855 111.817 120.156 111.999 120.546C112.181 120.937 112.272 121.397 112.272 121.928C112.272 122.463 112.181 122.927 111.999 123.32C111.817 123.71 111.565 124.013 111.242 124.228C110.92 124.44 110.548 124.547 110.127 124.547C109.802 124.547 109.543 124.493 109.347 124.385C109.152 124.276 109.002 124.152 108.897 124.014C108.791 123.873 108.71 123.757 108.653 123.665H108.561V124.441H107.811ZM108.574 121.915C108.574 122.297 108.63 122.633 108.742 122.925C108.854 123.214 109.017 123.441 109.232 123.606C109.447 123.768 109.71 123.849 110.022 123.849C110.346 123.849 110.617 123.764 110.834 123.593C111.054 123.419 111.218 123.187 111.328 122.895C111.44 122.601 111.496 122.275 111.496 121.915C111.496 121.56 111.441 121.239 111.331 120.954C111.224 120.667 111.06 120.44 110.841 120.273C110.624 120.105 110.351 120.02 110.022 120.02C109.706 120.02 109.441 120.1 109.226 120.26C109.011 120.418 108.848 120.64 108.739 120.925C108.629 121.208 108.574 121.538 108.574 121.915ZM113.459 124.441V119.388H114.21V120.178H114.275C114.381 119.908 114.551 119.699 114.785 119.55C115.02 119.398 115.302 119.323 115.631 119.323C115.964 119.323 116.241 119.398 116.463 119.55C116.687 119.699 116.861 119.908 116.986 120.178H117.039C117.168 119.917 117.362 119.71 117.621 119.556C117.88 119.401 118.19 119.323 118.552 119.323C119.004 119.323 119.373 119.464 119.66 119.747C119.948 120.028 120.091 120.465 120.091 121.06V124.441H119.315V121.06C119.315 120.687 119.213 120.42 119.009 120.26C118.805 120.1 118.565 120.02 118.289 120.02C117.933 120.02 117.658 120.128 117.463 120.342C117.268 120.555 117.17 120.825 117.17 121.152V124.441H116.381V120.981C116.381 120.693 116.287 120.462 116.101 120.287C115.915 120.109 115.675 120.02 115.381 120.02C115.179 120.02 114.99 120.074 114.815 120.181C114.642 120.289 114.501 120.438 114.394 120.629C114.288 120.817 114.236 121.035 114.236 121.283V124.441H113.459ZM121.511 124.441V119.388H122.287V124.441H121.511ZM121.906 118.546C121.754 118.546 121.624 118.495 121.514 118.392C121.407 118.289 121.353 118.165 121.353 118.02C121.353 117.875 121.407 117.751 121.514 117.648C121.624 117.545 121.754 117.494 121.906 117.494C122.057 117.494 122.186 117.545 122.294 117.648C122.404 117.751 122.458 117.875 122.458 118.02C122.458 118.165 122.404 118.289 122.294 118.392C122.186 118.495 122.057 118.546 121.906 118.546ZM125.907 119.388V120.046H123.288V119.388H125.907ZM124.051 118.178H124.828V122.994C124.828 123.213 124.86 123.378 124.923 123.487C124.989 123.595 125.072 123.667 125.173 123.705C125.276 123.74 125.385 123.757 125.499 123.757C125.584 123.757 125.655 123.753 125.709 123.744C125.764 123.733 125.808 123.724 125.841 123.718L125.999 124.415C125.946 124.435 125.873 124.455 125.778 124.474C125.684 124.496 125.565 124.507 125.42 124.507C125.201 124.507 124.986 124.46 124.775 124.366C124.567 124.271 124.394 124.128 124.255 123.935C124.119 123.742 124.051 123.498 124.051 123.204V118.178Z" fill="white"/>
<path d="M66.2948 158.284V152.389H68.2867C68.7491 152.389 69.1272 152.473 69.4208 152.64C69.7163 152.805 69.9351 153.028 70.0771 153.31C70.2191 153.592 70.2901 153.907 70.2901 154.254C70.2901 154.602 70.2191 154.917 70.0771 155.201C69.937 155.485 69.7201 155.712 69.4265 155.881C69.1329 156.048 68.7568 156.131 68.2982 156.131H66.8705V155.498H68.2751C68.5918 155.498 68.846 155.443 69.0379 155.334C69.2298 155.224 69.369 155.077 69.4553 154.89C69.5436 154.702 69.5877 154.49 69.5877 154.254C69.5877 154.018 69.5436 153.807 69.4553 153.621C69.369 153.435 69.2289 153.289 69.0351 153.184C68.8412 153.076 68.5841 153.022 68.2636 153.022H67.0086V158.284H66.2948ZM73.0966 158.376C72.6974 158.376 72.3472 158.281 72.0459 158.091C71.7466 157.901 71.5125 157.636 71.3436 157.294C71.1766 156.952 71.0932 156.553 71.0932 156.097C71.0932 155.636 71.1766 155.234 71.3436 154.89C71.5125 154.547 71.7466 154.28 72.0459 154.09C72.3472 153.9 72.6974 153.805 73.0966 153.805C73.4957 153.805 73.845 153.9 74.1443 154.09C74.4456 154.28 74.6797 154.547 74.8467 154.89C75.0156 155.234 75.1 155.636 75.1 156.097C75.1 156.553 75.0156 156.952 74.8467 157.294C74.6797 157.636 74.4456 157.901 74.1443 158.091C73.845 158.281 73.4957 158.376 73.0966 158.376ZM73.0966 157.766C73.3998 157.766 73.6492 157.688 73.845 157.533C74.0407 157.377 74.1856 157.173 74.2796 156.92C74.3737 156.666 74.4207 156.392 74.4207 156.097C74.4207 155.801 74.3737 155.526 74.2796 155.27C74.1856 155.015 74.0407 154.809 73.845 154.652C73.6492 154.494 73.3998 154.416 73.0966 154.416C72.7934 154.416 72.5439 154.494 72.3482 154.652C72.1524 154.809 72.0076 155.015 71.9135 155.27C71.8195 155.526 71.7725 155.801 71.7725 156.097C71.7725 156.392 71.8195 156.666 71.9135 156.92C72.0076 157.173 72.1524 157.377 72.3482 157.533C72.5439 157.688 72.7934 157.766 73.0966 157.766ZM76.9883 158.284L75.6411 153.863H76.355L77.3107 157.248H77.3567L78.3008 153.863H79.0262L79.9588 157.236H80.0049L80.9605 153.863H81.6744L80.3273 158.284H79.6595L78.6923 154.888H78.6232L77.6561 158.284H76.9883ZM84.2758 158.376C83.8498 158.376 83.4823 158.282 83.1734 158.094C82.8663 157.904 82.6293 157.639 82.4624 157.3C82.2974 156.958 82.2148 156.561 82.2148 156.108C82.2148 155.655 82.2974 155.256 82.4624 154.911C82.6293 154.563 82.8615 154.293 83.159 154.099C83.4583 153.903 83.8076 153.805 84.2067 153.805C84.437 153.805 84.6644 153.844 84.8889 153.92C85.1135 153.997 85.3178 154.122 85.502 154.295C85.6863 154.465 85.8331 154.692 85.9425 154.974C86.0518 155.256 86.1065 155.603 86.1065 156.016V156.304H82.6984V155.717H85.4157C85.4157 155.467 85.3658 155.245 85.266 155.049C85.1681 154.853 85.0281 154.699 84.8458 154.585C84.6654 154.472 84.4524 154.416 84.2067 154.416C83.9362 154.416 83.702 154.483 83.5044 154.617C83.3087 154.749 83.158 154.922 83.0525 155.135C82.9469 155.348 82.8942 155.577 82.8942 155.82V156.212C82.8942 156.546 82.9517 156.829 83.0669 157.061C83.1839 157.291 83.3461 157.467 83.5533 157.588C83.7606 157.707 84.0014 157.766 84.2758 157.766C84.4543 157.766 84.6155 157.741 84.7594 157.691C84.9052 157.639 85.0309 157.563 85.1365 157.461C85.242 157.357 85.3236 157.229 85.3812 157.075L86.0374 157.259C85.9684 157.482 85.8523 157.678 85.6891 157.847C85.526 158.014 85.3245 158.144 85.0847 158.238C84.8448 158.33 84.5752 158.376 84.2758 158.376ZM87.1399 158.284V153.863H87.7962V154.531H87.8422C87.9228 154.312 88.0687 154.134 88.2798 153.998C88.4909 153.862 88.7288 153.794 88.9936 153.794C89.0435 153.794 89.1059 153.795 89.1807 153.797C89.2556 153.799 89.3122 153.801 89.3506 153.805V154.496C89.3275 154.49 89.2748 154.482 89.1922 154.47C89.1116 154.457 89.0263 154.45 88.9361 154.45C88.7211 154.45 88.5292 154.495 88.3604 154.585C88.1934 154.674 88.061 154.796 87.9631 154.954C87.8672 155.109 87.8192 155.287 87.8192 155.486V158.284H87.1399ZM91.875 158.376C91.449 158.376 91.0815 158.282 90.7725 158.094C90.4655 157.904 90.2285 157.639 90.0615 157.3C89.8965 156.958 89.814 156.561 89.814 156.108C89.814 155.655 89.8965 155.256 90.0615 154.911C90.2285 154.563 90.4607 154.293 90.7581 154.099C91.0575 153.903 91.4067 153.805 91.8059 153.805C92.0362 153.805 92.2636 153.844 92.4881 153.92C92.7126 153.997 92.917 154.122 93.1012 154.295C93.2854 154.465 93.4322 154.692 93.5416 154.974C93.651 155.256 93.7057 155.603 93.7057 156.016V156.304H90.2976V155.717H93.0148C93.0148 155.467 92.965 155.245 92.8652 155.049C92.7673 154.853 92.6272 154.699 92.4449 154.585C92.2645 154.472 92.0515 154.416 91.8059 154.416C91.5353 154.416 91.3012 154.483 91.1035 154.617C90.9078 154.749 90.7572 154.922 90.6516 155.135C90.5461 155.348 90.4933 155.577 90.4933 155.82V156.212C90.4933 156.546 90.5509 156.829 90.666 157.061C90.7831 157.291 90.9452 157.467 91.1525 157.588C91.3597 157.707 91.6006 157.766 91.875 157.766C92.0534 157.766 92.2146 157.741 92.3586 157.691C92.5044 157.639 92.6301 157.563 92.7356 157.461C92.8412 157.357 92.9227 157.229 92.9803 157.075L93.6366 157.259C93.5675 157.482 93.4514 157.678 93.2883 157.847C93.1252 158.014 92.9237 158.144 92.6838 158.238C92.4439 158.33 92.1743 158.376 91.875 158.376ZM96.4086 158.376C96.0401 158.376 95.7148 158.283 95.4328 158.097C95.1507 157.909 94.93 157.644 94.7707 157.303C94.6114 156.959 94.5318 156.553 94.5318 156.085C94.5318 155.621 94.6114 155.218 94.7707 154.876C94.93 154.534 95.1516 154.271 95.4356 154.084C95.7196 153.898 96.0478 153.805 96.4201 153.805C96.7079 153.805 96.9353 153.853 97.1023 153.949C97.2711 154.043 97.3997 154.151 97.488 154.272C97.5782 154.391 97.6482 154.488 97.6981 154.565H97.7557V152.389H98.435V158.284H97.7787V157.605H97.6981C97.6482 157.685 97.5772 157.787 97.4851 157.91C97.393 158.031 97.2615 158.139 97.0908 158.235C96.92 158.329 96.6926 158.376 96.4086 158.376ZM96.5007 157.766C96.7732 157.766 97.0034 157.695 97.1915 157.553C97.3796 157.409 97.5225 157.211 97.6204 156.957C97.7183 156.702 97.7672 156.407 97.7672 156.074C97.7672 155.743 97.7192 155.455 97.6233 155.207C97.5273 154.958 97.3853 154.764 97.1973 154.626C97.0092 154.486 96.777 154.416 96.5007 154.416C96.2128 154.416 95.9729 154.489 95.7811 154.637C95.5911 154.783 95.4481 154.982 95.3522 155.233C95.2581 155.482 95.2111 155.763 95.2111 156.074C95.2111 156.388 95.2591 156.674 95.355 156.931C95.4529 157.187 95.5968 157.39 95.7868 157.542C95.9787 157.691 96.2167 157.766 96.5007 157.766ZM102.145 158.284V152.389H102.825V154.565H102.882C102.932 154.488 103.001 154.391 103.089 154.272C103.18 154.151 103.308 154.043 103.475 153.949C103.644 153.853 103.872 153.805 104.16 153.805C104.533 153.805 104.861 153.898 105.145 154.084C105.429 154.271 105.65 154.534 105.81 154.876C105.969 155.218 106.049 155.621 106.049 156.085C106.049 156.553 105.969 156.959 105.81 157.303C105.65 157.644 105.43 157.909 105.148 158.097C104.865 158.283 104.54 158.376 104.172 158.376C103.888 158.376 103.66 158.329 103.49 158.235C103.319 158.139 103.187 158.031 103.095 157.91C103.003 157.787 102.932 157.685 102.882 157.605H102.802V158.284H102.145ZM102.813 156.074C102.813 156.407 102.862 156.702 102.96 156.957C103.058 157.211 103.201 157.409 103.389 157.553C103.577 157.695 103.807 157.766 104.08 157.766C104.364 157.766 104.601 157.691 104.791 157.542C104.983 157.39 105.126 157.187 105.222 156.931C105.32 156.674 105.369 156.388 105.369 156.074C105.369 155.763 105.321 155.482 105.225 155.233C105.131 154.982 104.988 154.783 104.796 154.637C104.606 154.489 104.368 154.416 104.08 154.416C103.803 154.416 103.571 154.486 103.383 154.626C103.195 154.764 103.053 154.958 102.957 155.207C102.861 155.455 102.813 155.743 102.813 156.074ZM107.367 159.942C107.252 159.942 107.149 159.933 107.059 159.913C106.969 159.896 106.906 159.879 106.872 159.862L107.044 159.263C107.21 159.305 107.355 159.32 107.482 159.309C107.609 159.297 107.721 159.241 107.819 159.139C107.919 159.039 108.01 158.877 108.092 158.653L108.219 158.307L106.584 153.863H107.321L108.541 157.386H108.587L109.808 153.863H110.545L108.668 158.929C108.584 159.157 108.479 159.346 108.354 159.496C108.229 159.648 108.085 159.76 107.92 159.833C107.756 159.906 107.572 159.942 107.367 159.942Z" fill="#575656"/>
<path d="M113.678 158.284V153.863H114.539V158.284H113.678ZM114.113 153.181C113.963 153.181 113.834 153.131 113.727 153.031C113.621 152.929 113.569 152.808 113.569 152.668C113.569 152.526 113.621 152.405 113.727 152.306C113.834 152.204 113.963 152.153 114.113 152.153C114.262 152.153 114.39 152.204 114.495 152.306C114.603 152.405 114.657 152.526 114.657 152.668C114.657 152.808 114.603 152.929 114.495 153.031C114.39 153.131 114.262 153.181 114.113 153.181ZM116.557 155.659V158.284H115.696V153.863H116.523V154.582H116.577C116.679 154.348 116.838 154.16 117.055 154.018C117.274 153.876 117.549 153.805 117.881 153.805C118.182 153.805 118.446 153.869 118.673 153.995C118.899 154.12 119.075 154.306 119.2 154.554C119.324 154.801 119.387 155.107 119.387 155.472V158.284H118.526V155.576C118.526 155.255 118.443 155.005 118.276 154.824C118.109 154.642 117.879 154.551 117.588 154.551C117.388 154.551 117.211 154.594 117.055 154.68C116.902 154.767 116.78 154.893 116.69 155.06C116.601 155.225 116.557 155.425 116.557 155.659ZM122.605 153.863V154.554H120.19V153.863H122.605ZM120.837 152.804H121.698V156.986C121.698 157.153 121.723 157.279 121.773 157.363C121.823 157.446 121.887 157.502 121.966 157.533C122.046 157.562 122.134 157.576 122.228 157.576C122.297 157.576 122.357 157.571 122.409 157.562C122.461 157.552 122.501 157.544 122.53 157.539L122.685 158.25C122.635 158.269 122.564 158.288 122.472 158.307C122.38 158.328 122.265 158.34 122.127 158.342C121.901 158.346 121.689 158.305 121.494 158.221C121.298 158.136 121.14 158.006 121.019 157.829C120.898 157.653 120.837 157.431 120.837 157.164V152.804ZM125.415 158.373C124.979 158.373 124.604 158.28 124.289 158.094C123.977 157.906 123.735 157.642 123.564 157.303C123.395 156.961 123.311 156.561 123.311 156.102C123.311 155.649 123.395 155.25 123.564 154.905C123.735 154.559 123.973 154.29 124.278 154.096C124.585 153.902 124.944 153.805 125.354 153.805C125.604 153.805 125.846 153.847 126.08 153.929C126.314 154.012 126.524 154.141 126.71 154.318C126.896 154.494 127.043 154.724 127.151 155.006C127.258 155.286 127.312 155.626 127.312 156.027V156.333H123.797V155.688H126.468C126.468 155.461 126.422 155.261 126.33 155.086C126.238 154.91 126.109 154.771 125.942 154.669C125.777 154.567 125.583 154.516 125.36 154.516C125.118 154.516 124.907 154.576 124.727 154.695C124.548 154.812 124.41 154.965 124.312 155.155C124.216 155.343 124.168 155.548 124.168 155.768V156.272C124.168 156.568 124.22 156.819 124.324 157.026C124.429 157.234 124.576 157.392 124.764 157.501C124.952 157.609 125.172 157.662 125.424 157.662C125.587 157.662 125.735 157.639 125.87 157.593C126.004 157.545 126.12 157.474 126.218 157.38C126.316 157.286 126.391 157.17 126.442 157.032L127.257 157.179C127.192 157.419 127.075 157.629 126.906 157.809C126.739 157.988 126.529 158.127 126.276 158.227C126.024 158.324 125.737 158.373 125.415 158.373ZM130.12 160.034C129.769 160.034 129.467 159.988 129.214 159.896C128.962 159.804 128.757 159.682 128.598 159.531C128.438 159.379 128.319 159.213 128.241 159.033L128.981 158.727C129.032 158.812 129.101 158.901 129.188 158.995C129.276 159.091 129.395 159.173 129.545 159.24C129.696 159.307 129.891 159.341 130.129 159.341C130.455 159.341 130.725 159.261 130.938 159.102C131.151 158.944 131.257 158.693 131.257 158.348V157.478H131.203C131.151 157.572 131.076 157.677 130.978 157.792C130.882 157.907 130.75 158.007 130.581 158.091C130.412 158.176 130.192 158.218 129.922 158.218C129.573 158.218 129.258 158.136 128.978 157.973C128.699 157.808 128.479 157.566 128.316 157.245C128.154 156.923 128.074 156.526 128.074 156.056C128.074 155.586 128.153 155.183 128.313 154.847C128.474 154.511 128.695 154.254 128.975 154.076C129.255 153.895 129.573 153.805 129.928 153.805C130.202 153.805 130.424 153.851 130.593 153.943C130.761 154.034 130.893 154.139 130.987 154.26C131.083 154.381 131.157 154.487 131.209 154.58H131.272V153.863H132.115V158.382C132.115 158.762 132.027 159.074 131.85 159.318C131.674 159.561 131.435 159.742 131.134 159.859C130.834 159.976 130.497 160.034 130.12 160.034ZM130.112 157.504C130.359 157.504 130.569 157.447 130.739 157.331C130.912 157.214 131.043 157.047 131.131 156.831C131.221 156.612 131.266 156.35 131.266 156.045C131.266 155.747 131.222 155.485 131.134 155.259C131.045 155.032 130.916 154.856 130.745 154.729C130.574 154.601 130.363 154.536 130.112 154.536C129.853 154.536 129.637 154.604 129.464 154.738C129.291 154.87 129.161 155.051 129.073 155.279C128.986 155.507 128.943 155.763 128.943 156.045C128.943 156.334 128.987 156.589 129.076 156.808C129.164 157.026 129.294 157.197 129.467 157.32C129.642 157.443 129.857 157.504 130.112 157.504ZM133.269 158.284V153.863H134.101V154.565H134.147C134.228 154.327 134.37 154.14 134.573 154.004C134.779 153.866 135.011 153.797 135.27 153.797C135.324 153.797 135.387 153.799 135.46 153.802C135.535 153.806 135.593 153.811 135.636 153.817V154.64C135.601 154.63 135.54 154.62 135.451 154.608C135.363 154.595 135.275 154.588 135.187 154.588C134.983 154.588 134.802 154.631 134.643 154.718C134.485 154.802 134.36 154.92 134.268 155.072C134.176 155.221 134.13 155.392 134.13 155.584V158.284H133.269ZM137.627 158.382C137.347 158.382 137.094 158.33 136.868 158.227C136.641 158.121 136.462 157.969 136.329 157.769C136.199 157.569 136.134 157.325 136.134 157.035C136.134 156.785 136.182 156.58 136.277 156.419C136.373 156.258 136.503 156.13 136.666 156.036C136.829 155.942 137.011 155.871 137.213 155.823C137.414 155.775 137.62 155.739 137.829 155.714C138.094 155.683 138.309 155.658 138.474 155.639C138.639 155.618 138.759 155.584 138.834 155.538C138.908 155.492 138.946 155.417 138.946 155.314V155.293C138.946 155.042 138.875 154.847 138.733 154.709C138.593 154.571 138.384 154.502 138.105 154.502C137.816 154.502 137.587 154.566 137.42 154.695C137.255 154.821 137.141 154.962 137.078 155.118L136.269 154.934C136.365 154.665 136.505 154.448 136.689 154.283C136.875 154.116 137.089 153.995 137.331 153.92C137.573 153.844 137.827 153.805 138.094 153.805C138.27 153.805 138.457 153.826 138.655 153.869C138.855 153.909 139.041 153.984 139.214 154.093C139.388 154.203 139.531 154.359 139.642 154.562C139.754 154.764 139.809 155.026 139.809 155.348V158.284H138.969V157.68H138.934C138.879 157.791 138.795 157.9 138.684 158.008C138.573 158.115 138.43 158.205 138.255 158.276C138.08 158.347 137.871 158.382 137.627 158.382ZM137.815 157.691C138.053 157.691 138.256 157.644 138.425 157.55C138.596 157.456 138.725 157.333 138.813 157.182C138.904 157.028 138.949 156.864 138.949 156.69V156.12C138.918 156.15 138.859 156.179 138.77 156.206C138.684 156.231 138.585 156.253 138.474 156.272C138.362 156.289 138.254 156.306 138.148 156.321C138.043 156.334 137.955 156.346 137.884 156.356C137.717 156.377 137.564 156.412 137.426 156.462C137.29 156.512 137.18 156.584 137.098 156.678C137.017 156.77 136.977 156.893 136.977 157.046C136.977 157.259 137.056 157.421 137.213 157.53C137.37 157.637 137.571 157.691 137.815 157.691ZM143.06 153.863V154.554H140.561V153.863H143.06ZM141.246 158.284V153.35C141.246 153.074 141.307 152.845 141.428 152.663C141.549 152.478 141.709 152.341 141.908 152.251C142.108 152.159 142.325 152.113 142.559 152.113C142.732 152.113 142.879 152.127 143.002 152.156C143.125 152.183 143.216 152.208 143.276 152.231L143.074 152.927C143.034 152.916 142.982 152.902 142.919 152.887C142.855 152.87 142.779 152.861 142.689 152.861C142.479 152.861 142.33 152.913 142.24 153.017C142.151 153.12 142.107 153.27 142.107 153.466V158.284H141.246ZM144.809 152.389V158.284H143.948V152.389H144.809ZM147.829 158.373C147.414 158.373 147.053 158.278 146.744 158.088C146.435 157.898 146.195 157.633 146.024 157.291C145.853 156.95 145.768 156.55 145.768 156.094C145.768 155.635 145.853 155.234 146.024 154.89C146.195 154.547 146.435 154.28 146.744 154.09C147.053 153.9 147.414 153.805 147.829 153.805C148.243 153.805 148.605 153.9 148.914 154.09C149.223 154.28 149.463 154.547 149.634 154.89C149.804 155.234 149.89 155.635 149.89 156.094C149.89 156.55 149.804 156.95 149.634 157.291C149.463 157.633 149.223 157.898 148.914 158.088C148.605 158.278 148.243 158.373 147.829 158.373ZM147.832 157.651C148.1 157.651 148.323 157.58 148.499 157.438C148.676 157.296 148.806 157.107 148.891 156.871C148.977 156.635 149.02 156.375 149.02 156.091C149.02 155.809 148.977 155.55 148.891 155.314C148.806 155.076 148.676 154.885 148.499 154.741C148.323 154.597 148.1 154.525 147.832 154.525C147.561 154.525 147.337 154.597 147.158 154.741C146.982 154.885 146.85 155.076 146.764 155.314C146.679 155.55 146.637 155.809 146.637 156.091C146.637 156.375 146.679 156.635 146.764 156.871C146.85 157.107 146.982 157.296 147.158 157.438C147.337 157.58 147.561 157.651 147.832 157.651ZM151.674 158.284L150.373 153.863H151.263L152.129 157.11H152.172L153.042 153.863H153.931L154.795 157.095H154.838L155.698 153.863H156.588L155.29 158.284H154.412L153.514 155.092H153.448L152.549 158.284H151.674Z" fill="#050505"/>
</g>
</svg>
