<svg width="262" height="167" viewBox="0 0 262 167" fill="none" xmlns="http://www.w3.org/2000/svg">
<g opacity="0.7">
<rect x="0.908203" y="0.212891" width="261" height="174.752" rx="11.136" fill="white"/>
<path d="M241.028 21.0928L232.676 29.4448" stroke="black" stroke-width="1.392" strokeLinecap="round" strokeLinejoin="round"/>
<path d="M232.676 21.0928L241.028 29.4448" stroke="black" stroke-width="1.392" strokeLinecap="round" strokeLinejoin="round"/>
<path d="M20.7058 51.0127L17.898 40.8891H19.5046L21.4769 48.7289H21.5708L23.6222 40.8891H25.2139L27.2654 48.7339H27.3593L29.3267 40.8891H30.9381L28.1255 51.0127H26.5881L24.4576 43.4299H24.3785L22.248 51.0127H20.7058ZM34.6628 51.1659C33.951 51.1659 33.3298 51.0028 32.7993 50.6766C32.2687 50.3503 31.8568 49.8939 31.5635 49.3073C31.2702 48.7207 31.1235 48.0353 31.1235 47.2509C31.1235 46.4633 31.2702 45.7746 31.5635 45.1847C31.8568 44.5948 32.2687 44.1367 32.7993 43.8105C33.3298 43.4842 33.951 43.3211 34.6628 43.3211C35.3747 43.3211 35.9958 43.4842 36.5264 43.8105C37.057 44.1367 37.4689 44.5948 37.7622 45.1847C38.0555 45.7746 38.2022 46.4633 38.2022 47.2509C38.2022 48.0353 38.0555 48.7207 37.7622 49.3073C37.4689 49.8939 37.057 50.3503 36.5264 50.6766C35.9958 51.0028 35.3747 51.1659 34.6628 51.1659ZM34.6678 49.9252C35.1291 49.9252 35.5114 49.8033 35.8146 49.5594C36.1178 49.3155 36.3419 48.9909 36.4869 48.5856C36.6352 48.1803 36.7093 47.7337 36.7093 47.246C36.7093 46.7616 36.6352 46.3167 36.4869 45.9113C36.3419 45.5027 36.1178 45.1748 35.8146 44.9276C35.5114 44.6805 35.1291 44.5569 34.6678 44.5569C34.2031 44.5569 33.8176 44.6805 33.5111 44.9276C33.2079 45.1748 32.9822 45.5027 32.8339 45.9113C32.6889 46.3167 32.6164 46.7616 32.6164 47.246C32.6164 47.7337 32.6889 48.1803 32.8339 48.5856C32.9822 48.9909 33.2079 49.3155 33.5111 49.5594C33.8176 49.8033 34.2031 49.9252 34.6678 49.9252ZM44.6617 47.8639V43.42H46.1446V51.0127H44.6913V49.6978H44.6122C44.4376 50.1031 44.1575 50.4409 43.7719 50.7112C43.3896 50.9781 42.9134 51.1116 42.3433 51.1116C41.8556 51.1116 41.4239 51.0045 41.0482 50.7903C40.6758 50.5728 40.3825 50.2514 40.1683 49.8263C39.9574 49.4012 39.8519 48.8756 39.8519 48.2495V43.42H41.33V48.0715C41.33 48.5889 41.4733 49.0008 41.76 49.3073C42.0467 49.6138 42.4191 49.767 42.8772 49.767C43.154 49.767 43.4292 49.6978 43.7027 49.5594C43.9795 49.421 44.2085 49.2117 44.3898 48.9316C44.5743 48.6515 44.665 48.2956 44.6617 47.8639ZM49.6085 40.8891V51.0127H48.1305V40.8891H49.6085ZM54.4393 51.161C53.8263 51.161 53.2793 51.0045 52.7981 50.6914C52.3203 50.375 51.9446 49.9252 51.6711 49.3419C51.4009 48.7553 51.2657 48.0517 51.2657 47.2312C51.2657 46.4106 51.4025 45.7087 51.676 45.1254C51.9528 44.5421 52.3318 44.0955 52.813 43.7858C53.2941 43.476 53.8395 43.3211 54.4492 43.3211C54.9204 43.3211 55.2994 43.4002 55.5861 43.5584C55.8761 43.7133 56.1002 43.8945 56.2584 44.1021C56.4198 44.3097 56.5451 44.4926 56.634 44.6508H56.723V40.8891H58.201V51.0127H56.7576V49.8313H56.634C56.5451 49.9928 56.4165 50.1773 56.2485 50.3849C56.0837 50.5925 55.8563 50.7738 55.5663 50.9287C55.2763 51.0835 54.9006 51.161 54.4393 51.161ZM54.7655 49.9005C55.1906 49.9005 55.5498 49.7884 55.8431 49.5643C56.1397 49.337 56.3638 49.0222 56.5154 48.6202C56.6703 48.2181 56.7477 47.7502 56.7477 47.2163C56.7477 46.6891 56.6719 46.2277 56.5203 45.8322C56.3688 45.4368 56.1463 45.1287 55.853 44.9079C55.5597 44.6871 55.1972 44.5767 54.7655 44.5767C54.3206 44.5767 53.9499 44.692 53.6533 44.9227C53.3567 45.1534 53.1326 45.4681 52.981 45.8668C52.8327 46.2656 52.7586 46.7154 52.7586 47.2163C52.7586 47.7238 52.8344 48.1803 52.986 48.5856C53.1376 48.9909 53.3617 49.3122 53.6582 49.5495C53.9581 49.7835 54.3272 49.9005 54.7655 49.9005ZM64.9287 53.86C64.7079 53.86 64.5069 53.8418 64.3256 53.8056C64.1444 53.7726 64.0093 53.7364 63.9203 53.6968L64.2762 52.4858C64.5464 52.5583 64.787 52.5896 64.9979 52.5797C65.2088 52.5698 65.395 52.4907 65.5565 52.3424C65.7213 52.1941 65.8663 51.9519 65.9915 51.6158L66.1744 51.1116L63.3963 43.42H64.9781L66.901 49.3122H66.9801L68.903 43.42H70.4898L67.3607 52.026C67.2157 52.4215 67.0312 52.756 66.8071 53.0295C66.583 53.3063 66.3161 53.5139 66.0063 53.6524C65.6965 53.7908 65.3373 53.86 64.9287 53.86ZM74.8188 51.1659C74.107 51.1659 73.4858 51.0028 72.9552 50.6766C72.4246 50.3503 72.0127 49.8939 71.7194 49.3073C71.4261 48.7207 71.2795 48.0353 71.2795 47.2509C71.2795 46.4633 71.4261 45.7746 71.7194 45.1847C72.0127 44.5948 72.4246 44.1367 72.9552 43.8105C73.4858 43.4842 74.107 43.3211 74.8188 43.3211C75.5306 43.3211 76.1518 43.4842 76.6824 43.8105C77.2129 44.1367 77.6249 44.5948 77.9181 45.1847C78.2114 45.7746 78.3581 46.4633 78.3581 47.2509C78.3581 48.0353 78.2114 48.7207 77.9181 49.3073C77.6249 49.8939 77.2129 50.3503 76.6824 50.6766C76.1518 51.0028 75.5306 51.1659 74.8188 51.1659ZM74.8237 49.9252C75.2851 49.9252 75.6674 49.8033 75.9705 49.5594C76.2737 49.3155 76.4978 48.9909 76.6428 48.5856C76.7911 48.1803 76.8652 47.7337 76.8652 47.246C76.8652 46.7616 76.7911 46.3167 76.6428 45.9113C76.4978 45.5027 76.2737 45.1748 75.9705 44.9276C75.6674 44.6805 75.2851 44.5569 74.8237 44.5569C74.3591 44.5569 73.9735 44.6805 73.667 44.9276C73.3638 45.1748 73.1381 45.5027 72.9898 45.9113C72.8448 46.3167 72.7723 46.7616 72.7723 47.246C72.7723 47.7337 72.8448 48.1803 72.9898 48.5856C73.1381 48.9909 73.3638 49.3155 73.667 49.5594C73.9735 49.8033 74.3591 49.9252 74.8237 49.9252ZM84.8176 47.8639V43.42H86.3005V51.0127H84.8473V49.6978H84.7682C84.5935 50.1031 84.3134 50.4409 83.9278 50.7112C83.5455 50.9781 83.0694 51.1116 82.4992 51.1116C82.0115 51.1116 81.5798 51.0045 81.2041 50.7903C80.8317 50.5728 80.5384 50.2514 80.3242 49.8263C80.1133 49.4012 80.0079 48.8756 80.0079 48.2495V43.42H81.4859V48.0715C81.4859 48.5889 81.6292 49.0008 81.9159 49.3073C82.2026 49.6138 82.575 49.767 83.0331 49.767C83.3099 49.767 83.5851 49.6978 83.8586 49.5594C84.1354 49.421 84.3645 49.2117 84.5457 48.9316C84.7303 48.6515 84.8209 48.2956 84.8176 47.8639ZM93.4484 40.8891V51.0127H91.9704V40.8891H93.4484ZM95.4368 51.0127V43.42H96.9148V51.0127H95.4368ZM96.1832 42.2484C95.9262 42.2484 95.7054 42.1628 95.5208 41.9914C95.3396 41.8167 95.2489 41.6091 95.2489 41.3685C95.2489 41.1247 95.3396 40.9171 95.5208 40.7457C95.7054 40.571 95.9262 40.4837 96.1832 40.4837C96.4403 40.4837 96.6594 40.571 96.8407 40.7457C97.0252 40.9171 97.1175 41.1247 97.1175 41.3685C97.1175 41.6091 97.0252 41.8167 96.8407 41.9914C96.6594 42.1628 96.4403 42.2484 96.1832 42.2484ZM100.263 48.4373L100.253 46.633H100.51L103.535 43.42H105.305L101.854 47.0779H101.622L100.263 48.4373ZM98.9032 51.0127V40.8891H100.381V51.0127H98.9032ZM103.698 51.0127L100.979 47.4042L101.998 46.371L105.512 51.0127H103.698ZM109.611 51.1659C108.863 51.1659 108.219 51.0061 107.679 50.6864C107.141 50.3635 106.726 49.9104 106.433 49.3271C106.143 48.7405 105.998 48.0534 105.998 47.2658C105.998 46.488 106.143 45.8026 106.433 45.2094C106.726 44.6162 107.135 44.1532 107.659 43.8204C108.186 43.4875 108.802 43.3211 109.508 43.3211C109.936 43.3211 110.351 43.392 110.753 43.5337C111.155 43.6754 111.516 43.8978 111.836 44.201C112.155 44.5042 112.408 44.898 112.592 45.3824C112.777 45.8635 112.869 46.4485 112.869 47.1372V47.6612H106.833V46.5539H111.421C111.421 46.1651 111.341 45.8207 111.183 45.5208C111.025 45.2176 110.803 44.9787 110.516 44.8041C110.233 44.6294 109.9 44.5421 109.517 44.5421C109.102 44.5421 108.74 44.6442 108.43 44.8485C108.123 45.0496 107.886 45.3132 107.718 45.6395C107.553 45.9624 107.471 46.3134 107.471 46.6924V47.5574C107.471 48.0649 107.56 48.4966 107.738 48.8525C107.919 49.2084 108.171 49.4803 108.494 49.6681C108.817 49.8527 109.194 49.945 109.626 49.945C109.906 49.945 110.162 49.9054 110.392 49.8263C110.623 49.7439 110.822 49.622 110.991 49.4605C111.159 49.2991 111.287 49.0997 111.376 48.8624L112.775 49.1145C112.663 49.5264 112.462 49.8873 112.172 50.1971C111.885 50.5035 111.524 50.7425 111.089 50.9138C110.658 51.0819 110.165 51.1659 109.611 51.1659ZM121.737 43.42V44.6063H117.59V43.42H121.737ZM118.702 41.6009H120.18V48.7833C120.18 49.07 120.223 49.2859 120.308 49.4309C120.394 49.5726 120.504 49.6698 120.64 49.7225C120.778 49.772 120.928 49.7967 121.089 49.7967C121.208 49.7967 121.312 49.7884 121.401 49.772C121.49 49.7555 121.559 49.7423 121.608 49.7324L121.875 50.9534C121.79 50.9863 121.668 51.0193 121.51 51.0522C121.351 51.0885 121.154 51.1083 120.916 51.1116C120.528 51.1181 120.165 51.0489 119.829 50.9039C119.493 50.7589 119.221 50.5349 119.013 50.2317C118.806 49.9285 118.702 49.5479 118.702 49.0898V41.6009ZM126.489 51.1659C125.777 51.1659 125.156 51.0028 124.625 50.6766C124.094 50.3503 123.683 49.8939 123.389 49.3073C123.096 48.7207 122.949 48.0353 122.949 47.2509C122.949 46.4633 123.096 45.7746 123.389 45.1847C123.683 44.5948 124.094 44.1367 124.625 43.8105C125.156 43.4842 125.777 43.3211 126.489 43.3211C127.2 43.3211 127.822 43.4842 128.352 43.8105C128.883 44.1367 129.295 44.5948 129.588 45.1847C129.881 45.7746 130.028 46.4633 130.028 47.2509C130.028 48.0353 129.881 48.7207 129.588 49.3073C129.295 49.8939 128.883 50.3503 128.352 50.6766C127.822 51.0028 127.2 51.1659 126.489 51.1659ZM126.494 49.9252C126.955 49.9252 127.337 49.8033 127.64 49.5594C127.944 49.3155 128.168 48.9909 128.313 48.5856C128.461 48.1803 128.535 47.7337 128.535 47.246C128.535 46.7616 128.461 46.3167 128.313 45.9113C128.168 45.5027 127.944 45.1748 127.64 44.9276C127.337 44.6805 126.955 44.5569 126.494 44.5569C126.029 44.5569 125.643 44.6805 125.337 44.9276C125.034 45.1748 124.808 45.5027 124.66 45.9113C124.515 46.3167 124.442 46.7616 124.442 47.246C124.442 47.7337 124.515 48.1803 124.66 48.5856C124.808 48.9909 125.034 49.3155 125.337 49.5594C125.643 49.8033 126.029 49.9252 126.494 49.9252ZM141.051 45.2737L139.712 45.5109C139.656 45.3396 139.567 45.1764 139.445 45.0216C139.326 44.8667 139.165 44.7398 138.96 44.6409C138.756 44.5421 138.501 44.4926 138.194 44.4926C137.776 44.4926 137.426 44.5866 137.146 44.7744C136.866 44.9589 136.726 45.1979 136.726 45.4912C136.726 45.7449 136.82 45.9492 137.008 46.1041C137.196 46.259 137.499 46.3859 137.917 46.4847L139.123 46.7616C139.822 46.923 140.343 47.1718 140.685 47.508C141.028 47.8441 141.2 48.2808 141.2 48.8179C141.2 49.2727 141.068 49.678 140.804 50.0339C140.544 50.3866 140.18 50.6634 139.712 50.8644C139.247 51.0654 138.708 51.1659 138.095 51.1659C137.245 51.1659 136.551 50.9847 136.014 50.6222C135.477 50.2564 135.147 49.7374 135.025 49.0651L136.454 48.8476C136.543 49.22 136.726 49.5017 137.003 49.6929C137.28 49.8807 137.64 49.9746 138.085 49.9746C138.57 49.9746 138.957 49.8741 139.247 49.6731C139.537 49.4688 139.682 49.22 139.682 48.9267C139.682 48.6894 139.593 48.49 139.415 48.3285C139.24 48.1671 138.972 48.0451 138.609 47.9628L137.324 47.681C136.616 47.5195 136.092 47.2625 135.752 46.9099C135.416 46.5572 135.248 46.1107 135.248 45.5703C135.248 45.1221 135.373 44.7299 135.624 44.3938C135.874 44.0576 136.22 43.7956 136.662 43.6078C137.103 43.4167 137.609 43.3211 138.179 43.3211C139 43.3211 139.646 43.4991 140.117 43.855C140.588 44.2076 140.9 44.6805 141.051 45.2737ZM146.097 51.1659C145.349 51.1659 144.705 51.0061 144.164 50.6864C143.627 50.3635 143.212 49.9104 142.919 49.3271C142.629 48.7405 142.484 48.0534 142.484 47.2658C142.484 46.488 142.629 45.8026 142.919 45.2094C143.212 44.6162 143.62 44.1532 144.144 43.8204C144.672 43.4875 145.288 43.3211 145.993 43.3211C146.422 43.3211 146.837 43.392 147.239 43.5337C147.641 43.6754 148.002 43.8978 148.321 44.201C148.641 44.5042 148.893 44.898 149.078 45.3824C149.262 45.8635 149.355 46.4485 149.355 47.1372V47.6612H143.319V46.5539H147.906C147.906 46.1651 147.827 45.8207 147.669 45.5208C147.511 45.2176 147.288 44.9787 147.002 44.8041C146.718 44.6294 146.385 44.5421 146.003 44.5421C145.588 44.5421 145.225 44.6442 144.916 44.8485C144.609 45.0496 144.372 45.3132 144.204 45.6395C144.039 45.9624 143.957 46.3134 143.957 46.6924V47.5574C143.957 48.0649 144.046 48.4966 144.224 48.8525C144.405 49.2084 144.657 49.4803 144.98 49.6681C145.303 49.8527 145.68 49.945 146.112 49.945C146.392 49.945 146.647 49.9054 146.878 49.8263C147.109 49.7439 147.308 49.622 147.476 49.4605C147.644 49.2991 147.773 49.0997 147.862 48.8624L149.261 49.1145C149.149 49.5264 148.948 49.8873 148.658 50.1971C148.371 50.5035 148.01 50.7425 147.575 50.9138C147.143 51.0819 146.651 51.1659 146.097 51.1659ZM154.267 51.1659C153.519 51.1659 152.874 51.0061 152.334 50.6864C151.797 50.3635 151.382 49.9104 151.088 49.3271C150.798 48.7405 150.653 48.0534 150.653 47.2658C150.653 46.488 150.798 45.8026 151.088 45.2094C151.382 44.6162 151.79 44.1532 152.314 43.8204C152.842 43.4875 153.458 43.3211 154.163 43.3211C154.591 43.3211 155.007 43.392 155.409 43.5337C155.811 43.6754 156.172 43.8978 156.491 44.201C156.811 44.5042 157.063 44.898 157.248 45.3824C157.432 45.8635 157.524 46.4485 157.524 47.1372V47.6612H151.489V46.5539H156.076C156.076 46.1651 155.997 45.8207 155.839 45.5208C155.681 45.2176 155.458 44.9787 155.171 44.8041C154.888 44.6294 154.555 44.5421 154.173 44.5421C153.758 44.5421 153.395 44.6442 153.085 44.8485C152.779 45.0496 152.542 45.3132 152.374 45.6395C152.209 45.9624 152.126 46.3134 152.126 46.6924V47.5574C152.126 48.0649 152.215 48.4966 152.393 48.8525C152.575 49.2084 152.827 49.4803 153.15 49.6681C153.473 49.8527 153.85 49.945 154.282 49.945C154.562 49.945 154.817 49.9054 155.048 49.8263C155.279 49.7439 155.478 49.622 155.646 49.4605C155.814 49.2991 155.943 49.0997 156.032 48.8624L157.43 49.1145C157.318 49.5264 157.117 49.8873 156.827 50.1971C156.541 50.5035 156.18 50.7425 155.745 50.9138C155.313 51.0819 154.82 51.1659 154.267 51.1659ZM18.6049 73.0127V65.42H20.0236V66.6558H20.1175C20.2757 66.2372 20.5344 65.911 20.8936 65.677C21.2528 65.4397 21.6829 65.3211 22.1838 65.3211C22.6913 65.3211 23.1164 65.4397 23.4591 65.677C23.8051 65.9143 24.0605 66.2405 24.2253 66.6558H24.3044C24.4856 66.2504 24.774 65.9275 25.1695 65.6869C25.5649 65.443 26.0362 65.3211 26.5832 65.3211C27.272 65.3211 27.8338 65.537 28.2688 65.9687C28.7071 66.4004 28.9263 67.0512 28.9263 67.9212V73.0127H27.4483V68.0596C27.4483 67.5455 27.3082 67.1731 27.0281 66.9425C26.748 66.7118 26.4135 66.5964 26.0246 66.5964C25.5435 66.5964 25.1695 66.7447 24.9025 67.0413C24.6356 67.3346 24.5021 67.712 24.5021 68.1733V73.0127H23.0291V67.9657C23.0291 67.5538 22.9005 67.2226 22.6435 66.9721C22.3864 66.7217 22.052 66.5964 21.64 66.5964C21.3599 66.5964 21.1012 66.6706 20.8639 66.8189C20.63 66.9639 20.4405 67.1666 20.2955 67.4269C20.1538 67.6872 20.0829 67.9888 20.0829 68.3315V73.0127H18.6049ZM34.1055 73.1659C33.3937 73.1659 32.7725 73.0028 32.2419 72.6766C31.7113 72.3503 31.2994 71.8939 31.0061 71.3073C30.7128 70.7207 30.5662 70.0353 30.5662 69.2509C30.5662 68.4633 30.7128 67.7746 31.0061 67.1847C31.2994 66.5948 31.7113 66.1367 32.2419 65.8105C32.7725 65.4842 33.3937 65.3211 34.1055 65.3211C34.8173 65.3211 35.4385 65.4842 35.9691 65.8105C36.4996 66.1367 36.9116 66.5948 37.2049 67.1847C37.4982 67.7746 37.6448 68.4633 37.6448 69.2509C37.6448 70.0353 37.4982 70.7207 37.2049 71.3073C36.9116 71.8939 36.4996 72.3503 35.9691 72.6766C35.4385 73.0028 34.8173 73.1659 34.1055 73.1659ZM34.1104 71.9252C34.5718 71.9252 34.9541 71.8033 35.2573 71.5594C35.5604 71.3155 35.7845 70.9909 35.9295 70.5856C36.0778 70.1803 36.152 69.7337 36.152 69.246C36.152 68.7616 36.0778 68.3167 35.9295 67.9113C35.7845 67.5027 35.5604 67.1748 35.2573 66.9276C34.9541 66.6805 34.5718 66.5569 34.1104 66.5569C33.6458 66.5569 33.2602 66.6805 32.9537 66.9276C32.6505 67.1748 32.4248 67.5027 32.2765 67.9113C32.1315 68.3167 32.059 68.7616 32.059 69.246C32.059 69.7337 32.1315 70.1803 32.2765 70.5856C32.4248 70.9909 32.6505 71.3155 32.9537 71.5594C33.2602 71.8033 33.6458 71.9252 34.1104 71.9252ZM39.2946 73.0127V65.42H40.7232V66.6261H40.8023C40.9407 66.2175 41.1845 65.8962 41.5339 65.6622C41.8865 65.4249 42.2852 65.3063 42.7301 65.3063C42.8224 65.3063 42.9311 65.3096 43.0564 65.3162C43.1849 65.3228 43.2854 65.331 43.3579 65.3409V66.7546C43.2986 66.7381 43.1931 66.72 43.0415 66.7003C42.8899 66.6772 42.7383 66.6656 42.5868 66.6656C42.2374 66.6656 41.926 66.7398 41.6525 66.8881C41.3823 67.0331 41.1681 67.2358 41.0099 67.4961C40.8517 67.7531 40.7726 68.0464 40.7726 68.376V73.0127H39.2946ZM47.6374 73.1659C46.8894 73.1659 46.2451 73.0061 45.7047 72.6864C45.1675 72.3635 44.7523 71.9104 44.459 71.3271C44.169 70.7405 44.024 70.0534 44.024 69.2658C44.024 68.488 44.169 67.8026 44.459 67.2094C44.7523 66.6162 45.1609 66.1532 45.6849 65.8204C46.2122 65.4875 46.8284 65.3211 47.5336 65.3211C47.9621 65.3211 48.3773 65.392 48.7793 65.5337C49.1814 65.6754 49.5422 65.8978 49.8619 66.201C50.1815 66.5042 50.4336 66.898 50.6182 67.3824C50.8027 67.8635 50.895 68.4485 50.895 69.1372V69.6612H44.8594V68.5539H49.4467C49.4467 68.1651 49.3676 67.8207 49.2094 67.5208C49.0512 67.2176 48.8288 66.9787 48.5421 66.8041C48.2586 66.6294 47.9258 66.5421 47.5435 66.5421C47.1283 66.5421 46.7658 66.6442 46.456 66.8485C46.1496 67.0496 45.9123 67.3132 45.7442 67.6395C45.5794 67.9624 45.4971 68.3134 45.4971 68.6924V69.5574C45.4971 70.0649 45.586 70.4966 45.764 70.8525C45.9452 71.2084 46.1973 71.4803 46.5203 71.6681C46.8432 71.8527 47.2206 71.945 47.6523 71.945C47.9324 71.945 48.1878 71.9054 48.4185 71.8263C48.6492 71.7439 48.8485 71.622 49.0166 71.4605C49.1847 71.2991 49.3132 71.0997 49.4022 70.8624L50.8011 71.1145C50.689 71.5264 50.488 71.8873 50.198 72.1971C49.9113 72.5035 49.5505 72.7425 49.1155 72.9138C48.6838 73.0819 48.1911 73.1659 47.6374 73.1659ZM59.4171 73.1659C58.7052 73.1659 58.084 73.0028 57.5535 72.6766C57.0229 72.3503 56.611 71.8939 56.3177 71.3073C56.0244 70.7207 55.8777 70.0353 55.8777 69.2509C55.8777 68.4633 56.0244 67.7746 56.3177 67.1847C56.611 66.5948 57.0229 66.1367 57.5535 65.8105C58.084 65.4842 58.7052 65.3211 59.4171 65.3211C60.1289 65.3211 60.7501 65.4842 61.2806 65.8105C61.8112 66.1367 62.2231 66.5948 62.5164 67.1847C62.8097 67.7746 62.9564 68.4633 62.9564 69.2509C62.9564 70.0353 62.8097 70.7207 62.5164 71.3073C62.2231 71.8939 61.8112 72.3503 61.2806 72.6766C60.7501 73.0028 60.1289 73.1659 59.4171 73.1659ZM59.422 71.9252C59.8834 71.9252 60.2656 71.8033 60.5688 71.5594C60.872 71.3155 61.0961 70.9909 61.2411 70.5856C61.3894 70.1803 61.4635 69.7337 61.4635 69.246C61.4635 68.7616 61.3894 68.3167 61.2411 67.9113C61.0961 67.5027 60.872 67.1748 60.5688 66.9276C60.2656 66.6805 59.8834 66.5569 59.422 66.5569C58.9573 66.5569 58.5718 66.6805 58.2653 66.9276C57.9621 67.1748 57.7364 67.5027 57.5881 67.9113C57.4431 68.3167 57.3706 68.7616 57.3706 69.246C57.3706 69.7337 57.4431 70.1803 57.5881 70.5856C57.7364 70.9909 57.9621 71.3155 58.2653 71.5594C58.5718 71.8033 58.9573 71.9252 59.422 71.9252ZM68.2196 65.42V66.6063H63.9289V65.42H68.2196ZM65.1054 73.0127V64.5401C65.1054 64.0655 65.2092 63.6717 65.4168 63.3587C65.6245 63.0423 65.8996 62.8067 66.2423 62.6518C66.5851 62.4936 66.9575 62.4145 67.3595 62.4145C67.6561 62.4145 67.9098 62.4392 68.1208 62.4887C68.3317 62.5348 68.4882 62.5776 68.5904 62.6172L68.2443 63.8134C68.1751 63.7937 68.0862 63.7706 67.9774 63.7442C67.8687 63.7146 67.7368 63.6997 67.582 63.6997C67.2227 63.6997 66.9657 63.7887 66.8108 63.9667C66.6592 64.1446 66.5834 64.4017 66.5834 64.7378V73.0127H65.1054ZM76.9728 65.42V66.6063H72.8254V65.42H76.9728ZM73.9376 63.6009H75.4157V70.7833C75.4157 71.07 75.4585 71.2859 75.5442 71.4309C75.6299 71.5726 75.7403 71.6698 75.8754 71.7225C76.0138 71.772 76.1637 71.7967 76.3252 71.7967C76.4438 71.7967 76.5476 71.7884 76.6366 71.772C76.7256 71.7555 76.7948 71.7423 76.8442 71.7324L77.1112 72.9534C77.0255 72.9863 76.9036 73.0193 76.7454 73.0522C76.5872 73.0885 76.3895 73.1083 76.1522 73.1116C75.7633 73.1181 75.4008 73.0489 75.0647 72.9039C74.7286 72.7589 74.4567 72.5349 74.2491 72.2317C74.0415 71.9285 73.9376 71.5479 73.9376 71.0898V63.6009ZM80.2489 68.5045V73.0127H78.7708V62.8891H80.2291V66.6558H80.323C80.501 66.2471 80.7728 65.9225 81.1386 65.682C81.5044 65.4414 81.9823 65.3211 82.5722 65.3211C83.0928 65.3211 83.5476 65.4282 83.9365 65.6424C84.3286 65.8566 84.6318 66.1763 84.846 66.6014C85.0635 67.0232 85.1723 67.5505 85.1723 68.1832V73.0127H83.6943V68.3612C83.6943 67.8042 83.5509 67.3725 83.2642 67.066C82.9775 66.7563 82.5787 66.6014 82.0679 66.6014C81.7186 66.6014 81.4056 66.6755 81.1287 66.8238C80.8552 66.9721 80.6394 67.1896 80.4812 67.4763C80.3263 67.7597 80.2489 68.1025 80.2489 68.5045ZM87.1446 73.0127V65.42H88.6226V73.0127H87.1446ZM87.891 64.2484C87.634 64.2484 87.4132 64.1628 87.2286 63.9914C87.0474 63.8167 86.9568 63.6091 86.9568 63.3685C86.9568 63.1247 87.0474 62.9171 87.2286 62.7457C87.4132 62.571 87.634 62.4837 87.891 62.4837C88.1481 62.4837 88.3672 62.571 88.5485 62.7457C88.733 62.9171 88.8253 63.1247 88.8253 63.3685C88.8253 63.6091 88.733 63.8167 88.5485 63.9914C88.3672 64.1628 88.1481 64.2484 87.891 64.2484ZM96.3006 67.2737L94.961 67.5109C94.905 67.3396 94.816 67.1764 94.6941 67.0216C94.5754 66.8667 94.414 66.7398 94.2096 66.6409C94.0053 66.5421 93.7499 66.4926 93.4434 66.4926C93.0249 66.4926 92.6756 66.5866 92.3955 66.7744C92.1154 66.9589 91.9753 67.1979 91.9753 67.4912C91.9753 67.7449 92.0692 67.9492 92.2571 68.1041C92.4449 68.259 92.7481 68.3859 93.1666 68.4847L94.3728 68.7616C95.0714 68.923 95.5921 69.1718 95.9348 69.508C96.2775 69.8441 96.4489 70.2808 96.4489 70.8179C96.4489 71.2727 96.3171 71.678 96.0534 72.0339C95.7931 72.3866 95.429 72.6634 94.961 72.8644C94.4963 73.0654 93.9575 73.1659 93.3446 73.1659C92.4944 73.1659 91.8007 72.9847 91.2635 72.6222C90.7263 72.2564 90.3968 71.7374 90.2749 71.0651L91.7034 70.8476C91.7924 71.22 91.9753 71.5017 92.2521 71.6929C92.529 71.8807 92.8898 71.9746 93.3347 71.9746C93.8191 71.9746 94.2063 71.8741 94.4963 71.6731C94.7863 71.4688 94.9313 71.22 94.9313 70.9267C94.9313 70.6894 94.8424 70.49 94.6644 70.3285C94.4898 70.1671 94.2212 70.0451 93.8587 69.9628L92.5734 69.681C91.8649 69.5195 91.3409 69.2625 91.0015 68.9099C90.6654 68.5572 90.4973 68.1107 90.4973 67.5703C90.4973 67.1221 90.6225 66.7299 90.873 66.3938C91.1234 66.0576 91.4695 65.7956 91.9111 65.6078C92.3527 65.4167 92.8585 65.3211 93.4286 65.3211C94.2492 65.3211 94.8951 65.4991 95.3663 65.855C95.8376 66.2076 96.149 66.6805 96.3006 67.2737ZM99.6904 70.1012V70.0072C99.697 69.3943 99.7579 68.9066 99.8733 68.5441C99.9919 68.1816 100.16 67.8883 100.377 67.6642C100.595 67.4401 100.857 67.2358 101.163 67.0512C101.361 66.926 101.539 66.7859 101.697 66.631C101.856 66.4762 101.981 66.2982 102.073 66.0972C102.165 65.8962 102.211 65.6737 102.211 65.4299C102.211 65.1366 102.142 64.8828 102.004 64.6686C101.865 64.4544 101.681 64.2896 101.45 64.1743C101.223 64.0556 100.969 63.9963 100.689 63.9963C100.435 63.9963 100.193 64.0491 99.9623 64.1545C99.7316 64.26 99.5404 64.4247 99.3889 64.6488C99.2373 64.8696 99.1499 65.1547 99.1269 65.504H97.6241C97.6472 64.9108 97.7972 64.4099 98.074 64.0013C98.3508 63.5893 98.7166 63.2779 99.1714 63.067C99.6294 62.8561 100.135 62.7506 100.689 62.7506C101.295 62.7506 101.826 62.8643 102.281 63.0917C102.735 63.3158 103.088 63.6305 103.338 64.0359C103.592 64.4379 103.719 64.9075 103.719 65.4447C103.719 65.8138 103.661 66.1466 103.546 66.4432C103.431 66.7365 103.266 66.9985 103.052 67.2292C102.841 67.4599 102.587 67.6642 102.291 67.8421C102.01 68.0168 101.783 68.198 101.608 68.3859C101.437 68.5737 101.312 68.7962 101.233 69.0532C101.154 69.3103 101.111 69.6283 101.104 70.0072V70.1012H99.6904ZM100.437 73.1066C100.167 73.1066 99.9343 73.011 99.7398 72.8199C99.5454 72.6255 99.4482 72.3915 99.4482 72.118C99.4482 71.8478 99.5454 71.6171 99.7398 71.4259C99.9343 71.2315 100.167 71.1343 100.437 71.1343C100.704 71.1343 100.934 71.2315 101.129 71.4259C101.327 71.6171 101.425 71.8478 101.425 72.118C101.425 72.2992 101.379 72.4656 101.287 72.6172C101.198 72.7655 101.079 72.8842 100.931 72.9731C100.783 73.0621 100.618 73.1066 100.437 73.1066Z" fill="#050505"/>
<rect x="17.6113" y="91.1494" width="108.576" height="33.704" rx="8.352" fill="#050505"/>
<path d="M62.6832 103.402H63.8063L66.0524 107.183H66.1473L68.3935 103.402H69.5166L66.5903 108.163V111.501H65.6095V108.163L62.6832 103.402ZM72.3461 111.628C71.7608 111.628 71.256 111.498 70.8315 111.24C70.4097 110.979 70.0841 110.615 69.8547 110.149C69.628 109.679 69.5146 109.134 69.5146 108.511C69.5146 107.889 69.628 107.341 69.8547 106.866C70.0841 106.389 70.4031 106.017 70.8117 105.751C71.223 105.482 71.7028 105.348 72.2512 105.348C72.5676 105.348 72.88 105.4 73.1884 105.506C73.4969 105.611 73.7776 105.783 74.0307 106.02C74.2838 106.255 74.4855 106.566 74.6358 106.953C74.7861 107.341 74.8612 107.818 74.8612 108.385V108.78H70.179V107.974H73.9121C73.9121 107.631 73.8436 107.325 73.7065 107.056C73.572 106.787 73.3796 106.575 73.1291 106.419C72.8813 106.264 72.5886 106.186 72.2512 106.186C71.8795 106.186 71.5578 106.278 71.2863 106.463C71.0174 106.645 70.8104 106.882 70.6654 107.175C70.5204 107.467 70.4479 107.781 70.4479 108.116V108.654C70.4479 109.112 70.527 109.501 70.6852 109.82C70.846 110.137 71.0688 110.378 71.3535 110.544C71.6382 110.707 71.9691 110.789 72.3461 110.789C72.5913 110.789 72.8127 110.755 73.0105 110.686C73.2108 110.615 73.3835 110.51 73.5285 110.37C73.6735 110.228 73.7856 110.051 73.8646 109.84L74.7663 110.093C74.6714 110.399 74.5119 110.668 74.2878 110.9C74.0637 111.129 73.7869 111.309 73.4573 111.438C73.1278 111.564 72.7574 111.628 72.3461 111.628ZM80.5834 106.787L79.7451 107.024C79.6923 106.885 79.6146 106.749 79.5117 106.617C79.4116 106.483 79.2745 106.372 79.1005 106.285C78.9265 106.198 78.7037 106.154 78.4321 106.154C78.0604 106.154 77.7506 106.24 77.5028 106.411C77.2576 106.58 77.1351 106.795 77.1351 107.056C77.1351 107.288 77.2194 107.471 77.3881 107.606C77.5569 107.74 77.8205 107.852 78.1791 107.942L79.0807 108.163C79.6238 108.295 80.0285 108.497 80.2947 108.768C80.561 109.037 80.6941 109.384 80.6941 109.808C80.6941 110.156 80.594 110.468 80.3936 110.742C80.1959 111.016 79.9191 111.232 79.5631 111.39C79.2072 111.548 78.7933 111.628 78.3214 111.628C77.7019 111.628 77.1891 111.493 76.7831 111.224C76.3771 110.955 76.1201 110.562 76.012 110.046L76.8978 109.824C76.9821 110.151 77.1416 110.396 77.3763 110.56C77.6136 110.723 77.9233 110.805 78.3056 110.805C78.7406 110.805 79.086 110.713 79.3417 110.528C79.6001 110.341 79.7292 110.117 79.7292 109.856C79.7292 109.645 79.6554 109.468 79.5078 109.326C79.3601 109.181 79.1334 109.073 78.8276 109.002L77.8152 108.764C77.259 108.633 76.8503 108.428 76.5893 108.151C76.331 107.872 76.2018 107.523 76.2018 107.104C76.2018 106.761 76.298 106.458 76.4905 106.194C76.6856 105.93 76.9505 105.723 77.2853 105.573C77.6228 105.423 78.0051 105.348 78.4321 105.348C79.0332 105.348 79.5051 105.48 79.8479 105.743C80.1932 106.007 80.4384 106.355 80.5834 106.787Z" fill="white"/>
<rect x="131.756" y="91.1494" width="108.576" height="33.704" rx="8.352" fill="#F0F0F0"/>
<path d="M185.446 103.402V111.501H184.497L180.084 105.142H180.004V111.501H179.024V103.402H179.973L184.402 109.777H184.481V103.402H185.446ZM189.749 111.628C189.201 111.628 188.72 111.497 188.306 111.236C187.895 110.975 187.573 110.61 187.341 110.141C187.112 109.671 186.997 109.123 186.997 108.496C186.997 107.863 187.112 107.31 187.341 106.839C187.573 106.367 187.895 106 188.306 105.739C188.72 105.478 189.201 105.348 189.749 105.348C190.298 105.348 190.778 105.478 191.189 105.739C191.603 106 191.924 106.367 192.154 106.839C192.386 107.31 192.502 107.863 192.502 108.496C192.502 109.123 192.386 109.671 192.154 110.141C191.924 110.61 191.603 110.975 191.189 111.236C190.778 111.497 190.298 111.628 189.749 111.628ZM189.749 110.789C190.166 110.789 190.509 110.682 190.778 110.469C191.047 110.255 191.246 109.975 191.375 109.627C191.504 109.279 191.569 108.902 191.569 108.496C191.569 108.09 191.504 107.711 191.375 107.361C191.246 107.01 191.047 106.727 190.778 106.51C190.509 106.294 190.166 106.186 189.749 106.186C189.333 106.186 188.99 106.294 188.721 106.51C188.452 106.727 188.253 107.01 188.124 107.361C187.995 107.711 187.93 108.09 187.93 108.496C187.93 108.902 187.995 109.279 188.124 109.627C188.253 109.975 188.452 110.255 188.721 110.469C188.99 110.682 189.333 110.789 189.749 110.789Z" fill="#050505"/>
<path d="M77.421 152.557V145.47H79.8155C80.3714 145.47 80.8259 145.57 81.1788 145.771C81.534 145.97 81.797 146.238 81.9677 146.577C82.1384 146.916 82.2238 147.295 82.2238 147.712C82.2238 148.13 82.1384 148.509 81.9677 148.851C81.7993 149.192 81.5387 149.464 81.1857 149.667C80.8328 149.868 80.3806 149.968 79.8293 149.968H78.113V149.207H79.8016C80.1823 149.207 80.4879 149.141 80.7186 149.01C80.9493 148.878 81.1165 148.701 81.2203 148.477C81.3264 148.251 81.3795 147.996 81.3795 147.712C81.3795 147.429 81.3264 147.175 81.2203 146.951C81.1165 146.727 80.9481 146.552 80.7151 146.425C80.4821 146.296 80.173 146.231 79.7878 146.231H78.2791V152.557H77.421ZM85.5975 152.667C85.1177 152.667 84.6967 152.553 84.3345 152.325C83.9747 152.096 83.6932 151.777 83.4902 151.366C83.2895 150.956 83.1892 150.476 83.1892 149.927C83.1892 149.373 83.2895 148.89 83.4902 148.477C83.6932 148.064 83.9747 147.743 84.3345 147.515C84.6967 147.287 85.1177 147.173 85.5975 147.173C86.0773 147.173 86.4972 147.287 86.857 147.515C87.2192 147.743 87.5006 148.064 87.7013 148.477C87.9043 148.89 88.0058 149.373 88.0058 149.927C88.0058 150.476 87.9043 150.956 87.7013 151.366C87.5006 151.777 87.2192 152.096 86.857 152.325C86.4972 152.553 86.0773 152.667 85.5975 152.667ZM85.5975 151.934C85.962 151.934 86.2619 151.84 86.4972 151.654C86.7325 151.467 86.9066 151.221 87.0197 150.916C87.1327 150.612 87.1892 150.282 87.1892 149.927C87.1892 149.572 87.1327 149.241 87.0197 148.934C86.9066 148.627 86.7325 148.379 86.4972 148.19C86.2619 148.001 85.962 147.906 85.5975 147.906C85.233 147.906 84.9331 148.001 84.6978 148.19C84.4626 148.379 84.2884 148.627 84.1754 148.934C84.0623 149.241 84.0058 149.572 84.0058 149.927C84.0058 150.282 84.0623 150.612 84.1754 150.916C84.2884 151.221 84.4626 151.467 84.6978 151.654C84.9331 151.84 85.233 151.934 85.5975 151.934ZM90.2757 152.557L88.6563 147.242H89.5145L90.6633 151.311H90.7186L91.8536 147.242H92.7256L93.8467 151.297H93.9021L95.0508 147.242H95.909L94.2896 152.557H93.4868L92.3242 148.474H92.2411L91.0785 152.557H90.2757ZM99.0362 152.667C98.5241 152.667 98.0823 152.554 97.7109 152.328C97.3418 152.1 97.0569 151.782 96.8562 151.373C96.6578 150.963 96.5586 150.485 96.5586 149.941C96.5586 149.396 96.6578 148.916 96.8562 148.501C97.0569 148.084 97.336 147.758 97.6936 147.525C98.0535 147.29 98.4733 147.173 98.9531 147.173C99.2299 147.173 99.5033 147.219 99.7732 147.311C100.043 147.403 100.289 147.553 100.51 147.761C100.732 147.966 100.908 148.238 101.04 148.577C101.171 148.916 101.237 149.334 101.237 149.83V150.176H97.14V149.47H100.406C100.406 149.17 100.346 148.903 100.226 148.667C100.109 148.432 99.9404 148.246 99.7213 148.11C99.5045 147.974 99.2484 147.906 98.9531 147.906C98.6279 147.906 98.3464 147.987 98.1088 148.148C97.8735 148.307 97.6924 148.515 97.5656 148.771C97.4387 149.027 97.3753 149.302 97.3753 149.595V150.065C97.3753 150.467 97.4445 150.807 97.5829 151.086C97.7236 151.363 97.9185 151.574 98.1677 151.719C98.4168 151.862 98.7063 151.934 99.0362 151.934C99.2507 151.934 99.4445 151.904 99.6175 151.844C99.7928 151.782 99.9439 151.689 100.071 151.567C100.198 151.442 100.296 151.288 100.365 151.103L101.154 151.325C101.071 151.592 100.931 151.828 100.735 152.031C100.539 152.231 100.297 152.388 100.008 152.501C99.7201 152.612 99.396 152.667 99.0362 152.667ZM102.479 152.557V147.242H103.268V148.045H103.323C103.42 147.782 103.596 147.568 103.849 147.404C104.103 147.241 104.389 147.159 104.707 147.159C104.767 147.159 104.842 147.16 104.932 147.162C105.022 147.164 105.09 147.168 105.137 147.173V148.003C105.109 147.996 105.045 147.986 104.946 147.972C104.849 147.956 104.747 147.948 104.638 147.948C104.38 147.948 104.149 148.002 103.946 148.11C103.746 148.216 103.586 148.364 103.469 148.553C103.353 148.74 103.296 148.953 103.296 149.193V152.557H102.479ZM108.171 152.667C107.659 152.667 107.217 152.554 106.846 152.328C106.477 152.1 106.192 151.782 105.991 151.373C105.793 150.963 105.694 150.485 105.694 149.941C105.694 149.396 105.793 148.916 105.991 148.501C106.192 148.084 106.471 147.758 106.829 147.525C107.188 147.29 107.608 147.173 108.088 147.173C108.365 147.173 108.638 147.219 108.908 147.311C109.178 147.403 109.424 147.553 109.645 147.761C109.867 147.966 110.043 148.238 110.175 148.577C110.306 148.916 110.372 149.334 110.372 149.83V150.176H106.275V149.47H109.541C109.541 149.17 109.481 148.903 109.361 148.667C109.244 148.432 109.075 148.246 108.856 148.11C108.639 147.974 108.383 147.906 108.088 147.906C107.763 147.906 107.481 147.987 107.244 148.148C107.009 148.307 106.827 148.515 106.701 148.771C106.574 149.027 106.51 149.302 106.51 149.595V150.065C106.51 150.467 106.579 150.807 106.718 151.086C106.859 151.363 107.054 151.574 107.303 151.719C107.552 151.862 107.841 151.934 108.171 151.934C108.386 151.934 108.579 151.904 108.752 151.844C108.928 151.782 109.079 151.689 109.206 151.567C109.333 151.442 109.431 151.288 109.5 151.103L110.289 151.325C110.206 151.592 110.066 151.828 109.87 152.031C109.674 152.231 109.432 152.388 109.143 152.501C108.855 152.612 108.531 152.667 108.171 152.667ZM113.621 152.667C113.178 152.667 112.787 152.555 112.448 152.332C112.109 152.106 111.844 151.787 111.652 151.377C111.461 150.964 111.365 150.476 111.365 149.913C111.365 149.355 111.461 148.87 111.652 148.46C111.844 148.049 112.11 147.732 112.451 147.508C112.793 147.284 113.187 147.173 113.635 147.173C113.981 147.173 114.254 147.23 114.455 147.346C114.658 147.459 114.812 147.588 114.919 147.733C115.027 147.876 115.111 147.994 115.171 148.086H115.24V145.47H116.057V152.557H115.268V151.74H115.171C115.111 151.837 115.026 151.959 114.915 152.107C114.804 152.252 114.646 152.382 114.441 152.498C114.236 152.611 113.962 152.667 113.621 152.667ZM113.732 151.934C114.059 151.934 114.336 151.848 114.562 151.678C114.788 151.505 114.96 151.266 115.078 150.961C115.195 150.655 115.254 150.301 115.254 149.899C115.254 149.502 115.197 149.155 115.081 148.858C114.966 148.558 114.795 148.325 114.569 148.159C114.343 147.99 114.064 147.906 113.732 147.906C113.386 147.906 113.097 147.995 112.867 148.173C112.638 148.348 112.466 148.587 112.351 148.889C112.238 149.189 112.182 149.525 112.182 149.899C112.182 150.278 112.239 150.621 112.355 150.93C112.472 151.237 112.645 151.482 112.874 151.664C113.104 151.844 113.39 151.934 113.732 151.934ZM120.517 152.557V145.47H121.334V148.086H121.403C121.463 147.994 121.546 147.876 121.652 147.733C121.761 147.588 121.915 147.459 122.116 147.346C122.319 147.23 122.593 147.173 122.939 147.173C123.387 147.173 123.781 147.284 124.123 147.508C124.464 147.732 124.731 148.049 124.922 148.46C125.114 148.87 125.209 149.355 125.209 149.913C125.209 150.476 125.114 150.964 124.922 151.377C124.731 151.787 124.465 152.106 124.126 152.332C123.787 152.555 123.396 152.667 122.953 152.667C122.612 152.667 122.338 152.611 122.133 152.498C121.928 152.382 121.77 152.252 121.659 152.107C121.548 151.959 121.463 151.837 121.403 151.74H121.306V152.557H120.517ZM121.32 149.899C121.32 150.301 121.379 150.655 121.497 150.961C121.614 151.266 121.786 151.505 122.012 151.678C122.238 151.848 122.515 151.934 122.843 151.934C123.184 151.934 123.469 151.844 123.697 151.664C123.928 151.482 124.101 151.237 124.216 150.93C124.334 150.621 124.393 150.278 124.393 149.899C124.393 149.525 124.335 149.189 124.22 148.889C124.107 148.587 123.935 148.348 123.704 148.173C123.476 147.995 123.189 147.906 122.843 147.906C122.51 147.906 122.231 147.99 122.005 148.159C121.779 148.325 121.608 148.558 121.493 148.858C121.378 149.155 121.32 149.502 121.32 149.899ZM126.794 154.55C126.656 154.55 126.532 154.538 126.424 154.515C126.315 154.494 126.24 154.474 126.199 154.453L126.407 153.733C126.605 153.784 126.78 153.802 126.933 153.788C127.085 153.775 127.22 153.707 127.337 153.584C127.457 153.464 127.567 153.269 127.666 153L127.818 152.584L125.853 147.242H126.739L128.206 151.477H128.261L129.728 147.242H130.614L128.358 153.332C128.257 153.606 128.131 153.833 127.981 154.013C127.831 154.196 127.657 154.331 127.458 154.418C127.262 154.506 127.041 154.55 126.794 154.55Z" fill="#575656"/>
<path d="M134.381 152.557V147.242H135.415V152.557H134.381ZM134.903 146.422C134.723 146.422 134.569 146.362 134.439 146.242C134.313 146.119 134.249 145.974 134.249 145.806C134.249 145.635 134.313 145.49 134.439 145.37C134.569 145.247 134.723 145.186 134.903 145.186C135.083 145.186 135.236 145.247 135.363 145.37C135.493 145.49 135.557 145.635 135.557 145.806C135.557 145.974 135.493 146.119 135.363 146.242C135.236 146.362 135.083 146.422 134.903 146.422ZM137.842 149.401V152.557H136.807V147.242H137.8V148.107H137.866C137.988 147.825 138.18 147.599 138.44 147.429C138.703 147.258 139.034 147.173 139.433 147.173C139.796 147.173 140.113 147.249 140.385 147.401C140.657 147.551 140.868 147.775 141.018 148.072C141.168 148.37 141.243 148.738 141.243 149.176V152.557H140.209V149.301C140.209 148.915 140.108 148.614 139.908 148.397C139.707 148.178 139.431 148.069 139.081 148.069C138.841 148.069 138.627 148.121 138.44 148.224C138.256 148.328 138.109 148.48 138.001 148.681C137.895 148.88 137.842 149.119 137.842 149.401ZM145.112 147.242V148.072H142.209V147.242H145.112ZM142.987 145.968H144.022V150.996C144.022 151.197 144.052 151.348 144.112 151.449C144.172 151.549 144.249 151.617 144.344 151.654C144.44 151.688 144.545 151.705 144.658 151.705C144.741 151.705 144.814 151.7 144.876 151.688C144.939 151.677 144.987 151.667 145.022 151.66L145.209 152.515C145.149 152.538 145.063 152.561 144.953 152.584C144.842 152.61 144.703 152.624 144.537 152.626C144.265 152.63 144.011 152.582 143.776 152.481C143.541 152.379 143.35 152.222 143.205 152.01C143.06 151.798 142.987 151.531 142.987 151.211V145.968ZM148.49 152.664C147.966 152.664 147.515 152.552 147.137 152.328C146.761 152.102 146.47 151.785 146.265 151.377C146.062 150.966 145.96 150.485 145.96 149.934C145.96 149.389 146.062 148.91 146.265 148.494C146.47 148.079 146.756 147.755 147.123 147.522C147.492 147.289 147.923 147.173 148.417 147.173C148.717 147.173 149.008 147.222 149.289 147.321C149.57 147.421 149.823 147.576 150.047 147.788C150.271 148.001 150.447 148.276 150.576 148.615C150.705 148.952 150.77 149.362 150.77 149.844V150.211H146.545V149.436H149.756C149.756 149.163 149.701 148.922 149.59 148.712C149.479 148.5 149.324 148.333 149.123 148.211C148.925 148.088 148.692 148.027 148.424 148.027C148.133 148.027 147.88 148.099 147.663 148.242C147.448 148.382 147.282 148.567 147.164 148.795C147.049 149.021 146.991 149.267 146.991 149.532V150.138C146.991 150.493 147.054 150.795 147.178 151.045C147.305 151.294 147.482 151.484 147.708 151.615C147.934 151.745 148.198 151.809 148.5 151.809C148.696 151.809 148.875 151.782 149.036 151.726C149.198 151.669 149.337 151.583 149.455 151.47C149.573 151.357 149.663 151.218 149.725 151.051L150.704 151.228C150.626 151.516 150.485 151.769 150.282 151.986C150.081 152.2 149.829 152.367 149.524 152.487C149.222 152.605 148.877 152.664 148.49 152.664ZM154.146 154.66C153.724 154.66 153.361 154.605 153.056 154.494C152.754 154.384 152.507 154.237 152.316 154.055C152.124 153.873 151.981 153.673 151.887 153.456L152.776 153.09C152.838 153.191 152.921 153.298 153.025 153.411C153.131 153.527 153.274 153.625 153.454 153.705C153.637 153.786 153.871 153.827 154.157 153.827C154.549 153.827 154.873 153.731 155.129 153.539C155.385 153.35 155.513 153.048 155.513 152.633V151.588H155.447C155.385 151.701 155.295 151.827 155.177 151.965C155.062 152.103 154.903 152.223 154.7 152.325C154.497 152.426 154.233 152.477 153.908 152.477C153.488 152.477 153.109 152.379 152.773 152.183C152.438 151.985 152.173 151.693 151.977 151.307C151.783 150.92 151.686 150.444 151.686 149.878C151.686 149.313 151.782 148.829 151.973 148.425C152.167 148.021 152.432 147.712 152.769 147.498C153.106 147.281 153.488 147.173 153.915 147.173C154.244 147.173 154.511 147.228 154.714 147.339C154.917 147.447 155.075 147.574 155.188 147.719C155.303 147.865 155.392 147.993 155.454 148.103H155.53V147.242H156.544V152.674C156.544 153.131 156.438 153.506 156.226 153.799C156.014 154.092 155.727 154.309 155.364 154.449C155.004 154.59 154.598 154.66 154.146 154.66ZM154.136 151.619C154.434 151.619 154.685 151.55 154.89 151.411C155.098 151.271 155.255 151.07 155.361 150.809C155.469 150.546 155.524 150.231 155.524 149.865C155.524 149.507 155.47 149.192 155.364 148.92C155.258 148.648 155.103 148.436 154.897 148.283C154.692 148.129 154.438 148.051 154.136 148.051C153.825 148.051 153.565 148.132 153.357 148.294C153.15 148.453 152.993 148.67 152.887 148.944C152.783 149.219 152.731 149.525 152.731 149.865C152.731 150.213 152.784 150.519 152.89 150.782C152.996 151.045 153.153 151.25 153.361 151.397C153.571 151.545 153.829 151.619 154.136 151.619ZM157.932 152.557V147.242H158.932V148.086H158.987C159.084 147.8 159.255 147.575 159.499 147.411C159.746 147.245 160.025 147.162 160.337 147.162C160.401 147.162 160.477 147.164 160.565 147.169C160.655 147.174 160.725 147.179 160.776 147.186V148.176C160.735 148.164 160.661 148.152 160.555 148.138C160.449 148.122 160.342 148.114 160.236 148.114C159.992 148.114 159.774 148.166 159.582 148.269C159.393 148.371 159.243 148.513 159.133 148.695C159.022 148.875 158.966 149.08 158.966 149.311V152.557H157.932ZM163.171 152.674C162.834 152.674 162.529 152.612 162.257 152.487C161.985 152.361 161.769 152.177 161.61 151.937C161.453 151.697 161.375 151.403 161.375 151.055C161.375 150.755 161.432 150.508 161.548 150.314C161.663 150.121 161.819 149.967 162.015 149.854C162.211 149.741 162.43 149.656 162.672 149.598C162.915 149.54 163.161 149.497 163.413 149.467C163.731 149.43 163.99 149.4 164.188 149.377C164.386 149.351 164.53 149.311 164.62 149.256C164.71 149.2 164.755 149.11 164.755 148.986V148.961C164.755 148.659 164.67 148.425 164.499 148.259C164.331 148.093 164.08 148.01 163.745 148.01C163.397 148.01 163.122 148.087 162.921 148.242C162.723 148.394 162.586 148.564 162.51 148.75L161.537 148.529C161.653 148.206 161.821 147.945 162.043 147.747C162.266 147.546 162.524 147.401 162.814 147.311C163.105 147.219 163.411 147.173 163.731 147.173C163.943 147.173 164.168 147.198 164.406 147.249C164.646 147.297 164.87 147.387 165.077 147.519C165.287 147.65 165.459 147.838 165.593 148.083C165.727 148.325 165.793 148.64 165.793 149.027V152.557H164.783V151.83H164.742C164.675 151.964 164.574 152.095 164.441 152.224C164.307 152.354 164.135 152.461 163.925 152.546C163.715 152.632 163.464 152.674 163.171 152.674ZM163.396 151.844C163.682 151.844 163.926 151.787 164.129 151.674C164.334 151.561 164.49 151.414 164.596 151.231C164.705 151.047 164.759 150.85 164.759 150.64V149.955C164.722 149.991 164.65 150.026 164.544 150.058C164.441 150.088 164.322 150.115 164.188 150.138C164.054 150.159 163.924 150.178 163.797 150.197C163.67 150.213 163.564 150.227 163.479 150.238C163.278 150.264 163.094 150.306 162.928 150.366C162.765 150.426 162.633 150.513 162.534 150.626C162.437 150.737 162.389 150.884 162.389 151.069C162.389 151.325 162.483 151.519 162.672 151.65C162.862 151.779 163.103 151.844 163.396 151.844ZM169.701 147.242V148.072H166.697V147.242H169.701ZM167.521 152.557V146.626C167.521 146.294 167.594 146.018 167.739 145.799C167.884 145.577 168.077 145.412 168.317 145.304C168.557 145.193 168.817 145.138 169.099 145.138C169.306 145.138 169.484 145.155 169.632 145.19C169.779 145.222 169.889 145.252 169.96 145.28L169.718 146.117C169.67 146.103 169.608 146.087 169.531 146.069C169.455 146.048 169.363 146.038 169.255 146.038C169.003 146.038 168.823 146.1 168.715 146.224C168.609 146.349 168.556 146.529 168.556 146.764V152.557H167.521ZM171.803 145.47V152.557H170.768V145.47H171.803ZM175.434 152.664C174.935 152.664 174.501 152.55 174.129 152.321C173.758 152.093 173.469 151.773 173.264 151.363C173.059 150.952 172.956 150.472 172.956 149.923C172.956 149.372 173.059 148.89 173.264 148.477C173.469 148.064 173.758 147.743 174.129 147.515C174.501 147.287 174.935 147.173 175.434 147.173C175.932 147.173 176.367 147.287 176.738 147.515C177.11 147.743 177.398 148.064 177.603 148.477C177.809 148.89 177.911 149.372 177.911 149.923C177.911 150.472 177.809 150.952 177.603 151.363C177.398 151.773 177.11 152.093 176.738 152.321C176.367 152.55 175.932 152.664 175.434 152.664ZM175.437 151.795C175.76 151.795 176.028 151.71 176.24 151.539C176.452 151.369 176.609 151.141 176.71 150.858C176.814 150.574 176.866 150.261 176.866 149.92C176.866 149.581 176.814 149.269 176.71 148.986C176.609 148.7 176.452 148.47 176.24 148.297C176.028 148.124 175.76 148.038 175.437 148.038C175.112 148.038 174.842 148.124 174.627 148.297C174.415 148.47 174.257 148.7 174.153 148.986C174.052 149.269 174.001 149.581 174.001 149.92C174.001 150.261 174.052 150.574 174.153 150.858C174.257 151.141 174.415 151.369 174.627 151.539C174.842 151.71 175.112 151.795 175.437 151.795ZM180.057 152.557L178.493 147.242H179.562L180.603 151.145H180.655L181.7 147.242H182.769L183.807 151.128H183.859L184.894 147.242H185.963L184.403 152.557H183.347L182.268 148.719H182.188L181.108 152.557H180.057Z" fill="#050505"/>
</g>
</svg>
