<svg width="196" height="178" viewBox="0 0 196 178" fill="none" xmlns="http://www.w3.org/2000/svg">
<g opacity="0.7">
<rect x="0.908203" y="0.90918" width="195" height="202.52" rx="8.18898" fill="white"/>
<path d="M177.482 16.2637L171.34 22.4054" stroke="black" stroke-width="1.02362" strokeLinecap="round" strokeLinejoin="round"/>
<path d="M171.34 16.2637L177.482 22.4054" stroke="black" stroke-width="1.02362" strokeLinecap="round" strokeLinejoin="round"/>
<path d="M14.0093 37.499V30.0545H18.6767V31.0214H15.1325V33.2897H18.4331V34.2529H15.1325V36.5321H18.7203V37.499H14.0093ZM21.1766 34.1839V37.499H20.0898V31.9156H21.133V32.8244H21.2021C21.3305 32.5287 21.5317 32.2912 21.8055 32.1119C22.0818 31.9326 22.4295 31.8429 22.8487 31.8429C23.2292 31.8429 23.5624 31.9229 23.8484 32.0828C24.1343 32.2404 24.3561 32.4754 24.5136 32.788C24.6711 33.1006 24.7499 33.4872 24.7499 33.9476V37.499H23.663V34.0785C23.663 33.6738 23.5576 33.3575 23.3467 33.1297C23.1359 32.8995 22.8463 32.7844 22.478 32.7844C22.2259 32.7844 22.0018 32.8389 21.8055 32.948C21.6116 33.057 21.4577 33.217 21.3439 33.4278C21.2324 33.6362 21.1766 33.8882 21.1766 34.1839ZM28.8138 31.9156V32.788H25.764V31.9156H28.8138ZM26.5819 30.5779H27.6688V35.8596C27.6688 36.0705 27.7003 36.2292 27.7633 36.3358C27.8263 36.44 27.9075 36.5115 28.0068 36.5503C28.1086 36.5866 28.2189 36.6048 28.3376 36.6048C28.4249 36.6048 28.5012 36.5987 28.5666 36.5866C28.6321 36.5745 28.683 36.5648 28.7193 36.5576L28.9156 37.4554C28.8526 37.4796 28.7629 37.5039 28.6466 37.5281C28.5303 37.5548 28.3849 37.5693 28.2104 37.5717C27.9245 37.5766 27.6579 37.5257 27.4107 37.4191C27.1635 37.3124 26.9636 37.1476 26.8109 36.9247C26.6583 36.7017 26.5819 36.4218 26.5819 36.085V30.5779ZM32.3625 37.6117C31.8124 37.6117 31.3386 37.4942 30.9412 37.2591C30.5462 37.0216 30.2409 36.6884 30.0252 36.2595C29.8119 35.8281 29.7053 35.3229 29.7053 34.7437C29.7053 34.1718 29.8119 33.6677 30.0252 33.2315C30.2409 32.7953 30.5414 32.4548 30.9267 32.2101C31.3144 31.9653 31.7676 31.8429 32.2862 31.8429C32.6012 31.8429 32.9066 31.895 33.2022 31.9992C33.4978 32.1034 33.7632 32.267 33.9983 32.49C34.2333 32.7129 34.4187 33.0025 34.5544 33.3587C34.6901 33.7125 34.758 34.1427 34.758 34.6492V35.0345H30.3196V34.2202H33.6929C33.6929 33.9343 33.6348 33.681 33.5184 33.4605C33.4021 33.2376 33.2386 33.0619 33.0277 32.9334C32.8193 32.805 32.5746 32.7408 32.2934 32.7408C31.9881 32.7408 31.7215 32.8159 31.4937 32.9662C31.2684 33.114 31.0939 33.3078 30.9703 33.5478C30.8491 33.7852 30.7885 34.0433 30.7885 34.322V34.9581C30.7885 35.3313 30.854 35.6488 30.9848 35.9105C31.1181 36.1722 31.3035 36.3722 31.541 36.5103C31.7785 36.646 32.056 36.7139 32.3734 36.7139C32.5794 36.7139 32.7672 36.6848 32.9368 36.6266C33.1065 36.566 33.2531 36.4764 33.3767 36.3576C33.5003 36.2389 33.5948 36.0923 33.6602 35.9178L34.6889 36.1032C34.6065 36.4061 34.4587 36.6715 34.2455 36.8992C34.0346 37.1246 33.7693 37.3003 33.4494 37.4263C33.1319 37.5499 32.7696 37.6117 32.3625 37.6117ZM35.9639 37.499V31.9156H37.0144V32.8026H37.0726C37.1744 32.5021 37.3537 32.2658 37.6106 32.0937C37.8699 31.9193 38.1631 31.832 38.4902 31.832C38.5581 31.832 38.6381 31.8344 38.7302 31.8393C38.8247 31.8441 38.8986 31.8502 38.9519 31.8575V32.8971C38.9083 32.885 38.8307 32.8716 38.7193 32.8571C38.6078 32.8401 38.4963 32.8317 38.3848 32.8317C38.128 32.8317 37.8989 32.8862 37.6978 32.9952C37.4991 33.1019 37.3416 33.2509 37.2253 33.4423C37.1089 33.6314 37.0508 33.847 37.0508 34.0894V37.499H35.9639ZM43.2885 39.5928C43.1261 39.5928 42.9783 39.5795 42.845 39.5528C42.7117 39.5286 42.6124 39.5019 42.5469 39.4728L42.8087 38.5823C43.0074 38.6356 43.1843 38.6586 43.3394 38.6513C43.4945 38.6441 43.6314 38.5859 43.7501 38.4768C43.8713 38.3678 43.9779 38.1897 44.07 37.9425L44.2045 37.5717L42.1616 31.9156H43.3248L44.7388 36.2486H44.797L46.211 31.9156H47.3779L45.0769 38.2442C44.9703 38.535 44.8346 38.781 44.6698 38.9821C44.505 39.1857 44.3087 39.3383 44.0809 39.4401C43.8531 39.5419 43.589 39.5928 43.2885 39.5928ZM50.5612 37.6117C50.0378 37.6117 49.581 37.4918 49.1908 37.2518C48.8007 37.0119 48.4978 36.6763 48.2821 36.2449C48.0664 35.8136 47.9586 35.3095 47.9586 34.7328C47.9586 34.1536 48.0664 33.6471 48.2821 33.2133C48.4978 32.7796 48.8007 32.4427 49.1908 32.2028C49.581 31.9629 50.0378 31.8429 50.5612 31.8429C51.0847 31.8429 51.5415 31.9629 51.9316 32.2028C52.3218 32.4427 52.6247 32.7796 52.8404 33.2133C53.0561 33.6471 53.1639 34.1536 53.1639 34.7328C53.1639 35.3095 53.0561 35.8136 52.8404 36.2449C52.6247 36.6763 52.3218 37.0119 51.9316 37.2518C51.5415 37.4918 51.0847 37.6117 50.5612 37.6117ZM50.5649 36.6993C50.9041 36.6993 51.1853 36.6097 51.4082 36.4303C51.6312 36.251 51.7959 36.0123 51.9026 35.7142C52.0116 35.4162 52.0661 35.0878 52.0661 34.7291C52.0661 34.3729 52.0116 34.0458 51.9026 33.7477C51.7959 33.4472 51.6312 33.2061 51.4082 33.0243C51.1853 32.8426 50.9041 32.7517 50.5649 32.7517C50.2232 32.7517 49.9397 32.8426 49.7143 33.0243C49.4913 33.2061 49.3253 33.4472 49.2163 33.7477C49.1097 34.0458 49.0563 34.3729 49.0563 34.7291C49.0563 35.0878 49.1097 35.4162 49.2163 35.7142C49.3253 36.0123 49.4913 36.251 49.7143 36.4303C49.9397 36.6097 50.2232 36.6993 50.5649 36.6993ZM57.914 35.1835V31.9156H59.0045V37.499H57.9358V36.5321H57.8776C57.7492 36.8302 57.5432 37.0786 57.2597 37.2773C56.9786 37.4736 56.6284 37.5717 56.2092 37.5717C55.8505 37.5717 55.533 37.493 55.2568 37.3354C54.9829 37.1755 54.7673 36.9392 54.6097 36.6266C54.4547 36.314 54.3771 35.9275 54.3771 35.467V31.9156H55.464V35.3362C55.464 35.7167 55.5694 36.0196 55.7802 36.2449C55.9911 36.4703 56.2649 36.583 56.6017 36.583C56.8053 36.583 57.0077 36.5321 57.2088 36.4303C57.4124 36.3285 57.5808 36.1747 57.7141 35.9687C57.8498 35.7627 57.9164 35.501 57.914 35.1835ZM60.4649 37.499V31.9156H61.5154V32.8026H61.5735C61.6753 32.5021 61.8547 32.2658 62.1115 32.0937C62.3708 31.9193 62.664 31.832 62.9912 31.832C63.0591 31.832 63.139 31.8344 63.2311 31.8393C63.3256 31.8441 63.3995 31.8502 63.4528 31.8575V32.8971C63.4092 32.885 63.3317 32.8716 63.2202 32.8571C63.1087 32.8401 62.9973 32.8317 62.8858 32.8317C62.6289 32.8317 62.3999 32.8862 62.1988 32.9952C62.0001 33.1019 61.8425 33.2509 61.7262 33.4423C61.6099 33.6314 61.5517 33.847 61.5517 34.0894V37.499H60.4649ZM73.1983 30.0545V37.499H72.166L68.3819 32.0392H68.3129V37.499H67.1896V30.0545H68.2293L72.017 35.5216H72.086V30.0545H73.1983ZM76.3744 37.6226C76.0206 37.6226 75.7008 37.5572 75.4148 37.4263C75.1288 37.293 74.9023 37.1004 74.735 36.8484C74.5703 36.5963 74.4879 36.2873 74.4879 35.9214C74.4879 35.6064 74.5484 35.3471 74.6696 35.1435C74.7908 34.94 74.9544 34.7788 75.1603 34.6601C75.3663 34.5413 75.5965 34.4517 75.851 34.3911C76.1055 34.3305 76.3647 34.2845 76.6289 34.2529C76.9633 34.2142 77.2347 34.1827 77.4431 34.1584C77.6515 34.1318 77.803 34.0894 77.8975 34.0312C77.992 33.9731 78.0393 33.8785 78.0393 33.7477V33.7222C78.0393 33.4048 77.9496 33.1588 77.7703 32.9843C77.5934 32.8098 77.3292 32.7226 76.9779 32.7226C76.6119 32.7226 76.3236 32.8038 76.1127 32.9662C75.9043 33.1261 75.7601 33.3042 75.6802 33.5005L74.6587 33.2679C74.7799 32.9286 74.9568 32.6548 75.1894 32.4463C75.4245 32.2355 75.6947 32.0828 76 31.9883C76.3054 31.8914 76.6265 31.8429 76.9633 31.8429C77.1863 31.8429 77.4225 31.8696 77.6721 31.9229C77.9242 31.9738 78.1592 32.0683 78.3773 32.2064C78.5979 32.3446 78.7784 32.5421 78.919 32.7989C79.0595 33.0534 79.1298 33.3842 79.1298 33.7913V37.499H78.0684V36.7357H78.0247C77.9545 36.8762 77.849 37.0144 77.7085 37.1501C77.5679 37.2858 77.3874 37.3985 77.1669 37.4881C76.9464 37.5778 76.6822 37.6226 76.3744 37.6226ZM76.6107 36.7502C76.9112 36.7502 77.1681 36.6908 77.3813 36.5721C77.597 36.4533 77.7606 36.2983 77.8721 36.1068C77.986 35.9129 78.0429 35.7057 78.0429 35.4852V34.7655C78.0041 34.8043 77.929 34.8406 77.8175 34.8745C77.7085 34.906 77.5837 34.9339 77.4431 34.9581C77.3026 34.98 77.1657 35.0006 77.0324 35.0199C76.8991 35.0369 76.7876 35.0514 76.698 35.0636C76.4871 35.0902 76.2945 35.135 76.12 35.1981C75.9479 35.2611 75.8098 35.3519 75.7056 35.4707C75.6038 35.587 75.5529 35.7421 75.5529 35.936C75.5529 36.205 75.6523 36.4085 75.851 36.5466C76.0497 36.6824 76.303 36.7502 76.6107 36.7502ZM80.5774 37.499V31.9156H81.6207V32.8244H81.6898C81.8061 32.5166 81.9963 32.2767 82.2604 32.1047C82.5246 31.9302 82.8408 31.8429 83.2092 31.8429C83.5824 31.8429 83.895 31.9302 84.147 32.1047C84.4015 32.2791 84.5893 32.519 84.7105 32.8244H84.7686C84.9019 32.5263 85.1139 32.2888 85.4047 32.1119C85.6955 31.9326 86.0421 31.8429 86.4444 31.8429C86.9508 31.8429 87.364 32.0017 87.6839 32.3191C88.0062 32.6366 88.1674 33.1152 88.1674 33.755V37.499H87.0805V33.8567C87.0805 33.4787 86.9775 33.2049 86.7715 33.0352C86.5655 32.8656 86.3196 32.7808 86.0336 32.7808C85.6798 32.7808 85.4047 32.8898 85.2085 33.1079C85.0122 33.3236 84.914 33.6011 84.914 33.9403V37.499H83.8308V33.7877C83.8308 33.4847 83.7363 33.2412 83.5472 33.057C83.3582 32.8729 83.1123 32.7808 82.8093 32.7808C82.6034 32.7808 82.4131 32.8353 82.2386 32.9443C82.0666 33.051 81.9272 33.2 81.8206 33.3914C81.7164 33.5829 81.6643 33.8046 81.6643 34.0567V37.499H80.5774ZM92.0305 37.6117C91.4804 37.6117 91.0066 37.4942 90.6092 37.2591C90.2142 37.0216 89.9088 36.6884 89.6932 36.2595C89.4799 35.8281 89.3733 35.3229 89.3733 34.7437C89.3733 34.1718 89.4799 33.6677 89.6932 33.2315C89.9088 32.7953 90.2093 32.4548 90.5946 32.2101C90.9824 31.9653 91.4355 31.8429 91.9541 31.8429C92.2692 31.8429 92.5745 31.895 92.8702 31.9992C93.1658 32.1034 93.4312 32.267 93.6662 32.49C93.9013 32.7129 94.0867 33.0025 94.2224 33.3587C94.3581 33.7125 94.426 34.1427 94.426 34.6492V35.0345H89.9876V34.2202H93.3609C93.3609 33.9343 93.3027 33.681 93.1864 33.4605C93.0701 33.2376 92.9065 33.0619 92.6957 32.9334C92.4873 32.805 92.2425 32.7408 91.9614 32.7408C91.6561 32.7408 91.3895 32.8159 91.1617 32.9662C90.9363 33.114 90.7619 33.3078 90.6383 33.5478C90.5171 33.7852 90.4565 34.0433 90.4565 34.322V34.9581C90.4565 35.3313 90.5219 35.6488 90.6528 35.9105C90.7861 36.1722 90.9715 36.3722 91.209 36.5103C91.4465 36.646 91.7239 36.7139 92.0414 36.7139C92.2474 36.7139 92.4352 36.6848 92.6048 36.6266C92.7744 36.566 92.9211 36.4764 93.0447 36.3576C93.1682 36.2389 93.2628 36.0923 93.3282 35.9178L94.3569 36.1032C94.2745 36.4061 94.1267 36.6715 93.9134 36.8992C93.7026 37.1246 93.4372 37.3003 93.1174 37.4263C92.7999 37.5499 92.4376 37.6117 92.0305 37.6117Z" fill="#050505"/>
<path d="M13.8224 57.6885V52.4773H16.9471V53.0371H14.4535V54.7979H16.713V55.3577H14.4535V57.6885H13.8224ZM17.9465 57.6885V53.7801H18.547V57.6885H17.9465ZM18.2518 53.1287C18.1348 53.1287 18.0338 53.0888 17.949 53.0091C17.8659 52.9294 17.8243 52.8335 17.8243 52.7216C17.8243 52.6096 17.8659 52.5138 17.949 52.4341C18.0338 52.3543 18.1348 52.3145 18.2518 52.3145C18.3689 52.3145 18.4689 52.3543 18.5521 52.4341C18.6369 52.5138 18.6793 52.6096 18.6793 52.7216C18.6793 52.8335 18.6369 52.9294 18.5521 53.0091C18.4689 53.0888 18.3689 53.1287 18.2518 53.1287ZM19.6468 57.6885V53.7801H20.227V54.3704H20.2677C20.3389 54.177 20.4679 54.0201 20.6545 53.8997C20.8411 53.7793 21.0514 53.719 21.2855 53.719C21.3296 53.719 21.3847 53.7199 21.4509 53.7216C21.5171 53.7233 21.5671 53.7258 21.601 53.7292V54.3399C21.5807 54.3348 21.534 54.3272 21.4611 54.317C21.3898 54.3051 21.3143 54.2992 21.2346 54.2992C21.0446 54.2992 20.875 54.339 20.7257 54.4188C20.5781 54.4968 20.4611 54.6054 20.3746 54.7445C20.2898 54.8819 20.2473 55.0388 20.2473 55.2152V57.6885H19.6468ZM25.0813 54.6554L24.5419 54.8081C24.5079 54.7182 24.4579 54.6308 24.3917 54.546C24.3273 54.4595 24.2391 54.3882 24.1271 54.3323C24.0151 54.2763 23.8718 54.2483 23.6971 54.2483C23.4579 54.2483 23.2586 54.3034 23.0991 54.4137C22.9414 54.5223 22.8625 54.6605 22.8625 54.8284C22.8625 54.9777 22.9168 55.0956 23.0253 55.1821C23.1339 55.2686 23.3035 55.3407 23.5342 55.3984L24.1144 55.5409C24.4638 55.6257 24.7242 55.7555 24.8955 55.9302C25.0669 56.1032 25.1525 56.3263 25.1525 56.5994C25.1525 56.8233 25.0881 57.0235 24.9592 57.1999C24.8319 57.3763 24.6538 57.5154 24.4248 57.6172C24.1958 57.719 23.9295 57.7699 23.6258 57.7699C23.2272 57.7699 22.8972 57.6834 22.636 57.5104C22.3748 57.3373 22.2094 57.0846 22.1398 56.7521L22.7098 56.6096C22.7641 56.8199 22.8667 56.9777 23.0177 57.0829C23.1704 57.1881 23.3697 57.2406 23.6156 57.2406C23.8955 57.2406 24.1178 57.1813 24.2823 57.0625C24.4486 56.9421 24.5317 56.7979 24.5317 56.63C24.5317 56.4943 24.4842 56.3806 24.3892 56.289C24.2942 56.1957 24.1483 56.1261 23.9515 56.0803L23.3001 55.9277C22.9422 55.8429 22.6793 55.7114 22.5113 55.5333C22.3451 55.3535 22.262 55.1287 22.262 54.859C22.262 54.6385 22.3239 54.4434 22.4477 54.2737C22.5732 54.1041 22.7437 53.9709 22.9592 53.8742C23.1763 53.7776 23.4223 53.7292 23.6971 53.7292C24.0838 53.7292 24.3875 53.814 24.608 53.9837C24.8302 54.1533 24.988 54.3772 25.0813 54.6554ZM27.7562 53.7801V54.289H25.7308V53.7801H27.7562ZM26.3211 52.8437H26.9216V56.5689C26.9216 56.7385 26.9462 56.8658 26.9954 56.9506C27.0463 57.0337 27.1108 57.0897 27.1888 57.1185C27.2685 57.1456 27.3525 57.1592 27.4407 57.1592C27.5068 57.1592 27.5611 57.1558 27.6035 57.149C27.6459 57.1406 27.6799 57.1338 27.7053 57.1287L27.8275 57.6681C27.7867 57.6834 27.7299 57.6987 27.657 57.7139C27.584 57.7309 27.4916 57.7394 27.3796 57.7394C27.21 57.7394 27.0437 57.7029 26.8809 57.63C26.7197 57.557 26.5857 57.4459 26.4789 57.2966C26.3737 57.1473 26.3211 56.959 26.3211 56.7317V52.8437ZM34.8885 52.4773V57.6885H34.2778L31.4381 53.5969H31.3872V57.6885H30.7562V52.4773H31.3669L34.2167 56.5791H34.2676V52.4773H34.8885ZM37.2199 57.7801C36.9722 57.7801 36.7475 57.7334 36.5456 57.6401C36.3437 57.5451 36.1834 57.4086 36.0647 57.2305C35.9459 57.0507 35.8866 56.8335 35.8866 56.5791C35.8866 56.3552 35.9307 56.1736 36.0189 56.0345C36.1071 55.8937 36.225 55.7835 36.3726 55.7038C36.5202 55.624 36.683 55.5647 36.8611 55.5256C37.0409 55.4849 37.2216 55.4527 37.4031 55.4289C37.6406 55.3984 37.8331 55.3755 37.9807 55.3602C38.13 55.3433 38.2386 55.3153 38.3064 55.2763C38.376 55.2373 38.4107 55.1694 38.4107 55.0727V55.0524C38.4107 54.8013 38.342 54.6062 38.2046 54.4671C38.0689 54.328 37.8628 54.2585 37.5863 54.2585C37.2996 54.2585 37.0749 54.3212 36.912 54.4468C36.7492 54.5723 36.6347 54.7063 36.5685 54.8488L35.9985 54.6452C36.1003 54.4077 36.236 54.2228 36.4057 54.0905C36.577 53.9565 36.7636 53.8632 36.9654 53.8106C37.169 53.7564 37.3692 53.7292 37.566 53.7292C37.6915 53.7292 37.8357 53.7445 37.9985 53.775C38.1631 53.8039 38.3217 53.8641 38.4743 53.9557C38.6287 54.0473 38.7568 54.1855 38.8586 54.3704C38.9603 54.5553 39.0112 54.803 39.0112 55.1134V57.6885H38.4107V57.1592H38.3802C38.3395 57.244 38.2716 57.3348 38.1766 57.4315C38.0816 57.5282 37.9553 57.6104 37.7975 57.6783C37.6397 57.7462 37.4472 57.7801 37.2199 57.7801ZM37.3115 57.2406C37.549 57.2406 37.7492 57.194 37.912 57.1007C38.0766 57.0074 38.2004 56.887 38.2835 56.7394C38.3683 56.5918 38.4107 56.4366 38.4107 56.2737V55.7241C38.3853 55.7546 38.3293 55.7826 38.2428 55.8081C38.158 55.8318 38.0596 55.853 37.9476 55.8717C37.8374 55.8887 37.7296 55.9039 37.6245 55.9175C37.521 55.9294 37.437 55.9395 37.3726 55.948C37.2165 55.9684 37.0706 56.0015 36.9349 56.0473C36.8009 56.0914 36.6923 56.1584 36.6092 56.2483C36.5278 56.3365 36.4871 56.4569 36.4871 56.6096C36.4871 56.8183 36.5643 56.976 36.7186 57.0829C36.8747 57.1881 37.0723 57.2406 37.3115 57.2406ZM40.1073 57.6885V53.7801H40.6874V54.3908H40.7383C40.8198 54.1821 40.9512 54.0201 41.1327 53.9048C41.3142 53.7877 41.5322 53.7292 41.7867 53.7292C42.0445 53.7292 42.2591 53.7877 42.4304 53.9048C42.6035 54.0201 42.7383 54.1821 42.835 54.3908H42.8757C42.9758 54.1889 43.1259 54.0286 43.3261 53.9099C43.5263 53.7894 43.7663 53.7292 44.0462 53.7292C44.3956 53.7292 44.6815 53.8386 44.9037 54.0575C45.1259 54.2746 45.237 54.613 45.237 55.0727V57.6885H44.6365V55.0727C44.6365 54.7843 44.5576 54.5782 44.3999 54.4544C44.2421 54.3306 44.0564 54.2686 43.8426 54.2686C43.5678 54.2686 43.3549 54.3518 43.204 54.518C43.053 54.6826 42.9775 54.8912 42.9775 55.144V57.6885H42.3668V55.0116C42.3668 54.7894 42.2947 54.6105 42.1505 54.4748C42.0063 54.3374 41.8206 54.2686 41.5933 54.2686C41.4372 54.2686 41.2913 54.3102 41.1556 54.3933C41.0216 54.4765 40.913 54.5918 40.8299 54.7394C40.7485 54.8853 40.7078 55.0541 40.7078 55.2457V57.6885H40.1073ZM47.9737 57.7699C47.5971 57.7699 47.2722 57.6868 46.9991 57.5205C46.7277 57.3526 46.5182 57.1185 46.3706 56.8183C46.2247 56.5163 46.1518 56.1652 46.1518 55.7648C46.1518 55.3645 46.2247 55.0116 46.3706 54.7063C46.5182 54.3993 46.7234 54.1601 46.9864 53.9888C47.251 53.8157 47.5597 53.7292 47.9126 53.7292C48.1161 53.7292 48.3172 53.7631 48.5156 53.831C48.7141 53.8988 48.8948 54.0091 49.0576 54.1618C49.2205 54.3128 49.3502 54.5129 49.4469 54.7623C49.5436 55.0116 49.592 55.3187 49.592 55.6834V55.9379H46.5793V55.4188H48.9813C48.9813 55.1982 48.9372 55.0015 48.849 54.8284C48.7625 54.6554 48.6386 54.5189 48.4775 54.4188C48.318 54.3187 48.1297 54.2686 47.9126 54.2686C47.6734 54.2686 47.4664 54.328 47.2917 54.4468C47.1187 54.5638 46.9855 54.7165 46.8922 54.9048C46.7989 55.0931 46.7523 55.2949 46.7523 55.5104V55.8564C46.7523 56.1516 46.8032 56.4018 46.905 56.6071C47.0084 56.8106 47.1518 56.9658 47.335 57.0727C47.5182 57.1779 47.7311 57.2305 47.9737 57.2305C48.1314 57.2305 48.2739 57.2084 48.4011 57.1643C48.5301 57.1185 48.6412 57.0507 48.7345 56.9607C48.8278 56.8691 48.8999 56.7555 48.9507 56.6198L49.5309 56.7826C49.4698 56.9794 49.3672 57.1524 49.223 57.3017C49.0788 57.4493 48.9007 57.5646 48.6887 57.6478C48.4766 57.7292 48.2383 57.7699 47.9737 57.7699Z" fill="#575656"/>
<rect x="13.1914" y="64.7832" width="170.433" height="22.5197" rx="6.14173" fill="#F0F0F0"/>
<path d="M22.6429 73.3318V78.543H22.0119V73.3318H22.6429ZM24.4273 76.1918V78.543H23.8268V74.6346H24.4069V75.2453H24.4578C24.5494 75.0468 24.6885 74.8873 24.8751 74.7669C25.0617 74.6448 25.3026 74.5837 25.5978 74.5837C25.8624 74.5837 26.0939 74.638 26.2924 74.7466C26.4909 74.8534 26.6452 75.0163 26.7555 75.2351C26.8658 75.4522 26.9209 75.727 26.9209 76.0595V78.543H26.3204V76.1002C26.3204 75.7932 26.2407 75.554 26.0812 75.3827C25.9218 75.2097 25.7029 75.1231 25.4247 75.1231C25.233 75.1231 25.0617 75.1647 24.9107 75.2478C24.7615 75.3309 24.6436 75.4522 24.5571 75.6117C24.4705 75.7711 24.4273 75.9645 24.4273 76.1918ZM28.0182 80.0086V74.6346H28.5984V75.2555H28.6696C28.7137 75.1876 28.7748 75.1011 28.8528 74.9959C28.9326 74.889 29.0462 74.7941 29.1938 74.7109C29.3431 74.6261 29.5449 74.5837 29.7994 74.5837C30.1285 74.5837 30.4186 74.666 30.6696 74.8305C30.9207 74.9951 31.1166 75.2283 31.2574 75.5303C31.3982 75.8322 31.4686 76.1884 31.4686 76.599C31.4686 77.0129 31.3982 77.3716 31.2574 77.6753C31.1166 77.9772 30.9215 78.2113 30.6722 78.3776C30.4228 78.5421 30.1353 78.6244 29.8096 78.6244C29.5585 78.6244 29.3575 78.5828 29.2065 78.4997C29.0555 78.4149 28.9393 78.3191 28.8579 78.2122C28.7765 78.1036 28.7137 78.0137 28.6696 77.9425H28.6187V80.0086H28.0182ZM28.6086 76.5888C28.6086 76.8839 28.6518 77.1443 28.7383 77.3699C28.8248 77.5939 28.9512 77.7694 29.1175 77.8967C29.2837 78.0222 29.4873 78.085 29.7281 78.085C29.9792 78.085 30.1887 78.0188 30.3566 77.8865C30.5263 77.7525 30.6535 77.5727 30.7383 77.347C30.8248 77.1197 30.8681 76.867 30.8681 76.5888C30.8681 76.314 30.8257 76.0663 30.7409 75.8458C30.6577 75.6236 30.5314 75.448 30.3617 75.3191C30.1938 75.1884 29.9826 75.1231 29.7281 75.1231C29.4839 75.1231 29.2786 75.1851 29.1124 75.3089C28.9461 75.431 28.8206 75.6024 28.7358 75.8229C28.651 76.0417 28.6086 76.297 28.6086 76.5888ZM34.8477 76.945V74.6346H35.4482V78.543H34.8477V77.8814H34.807C34.7154 78.0799 34.5729 78.2487 34.3795 78.3878C34.1861 78.5252 33.9419 78.5939 33.6467 78.5939C33.4024 78.5939 33.1853 78.5404 32.9953 78.4336C32.8053 78.325 32.656 78.1621 32.5475 77.945C32.4389 77.7262 32.3846 77.4505 32.3846 77.118V74.6346H32.9851V77.0773C32.9851 77.3623 33.0648 77.5896 33.2243 77.7593C33.3855 77.9289 33.5907 78.0137 33.8401 78.0137C33.9894 78.0137 34.1412 77.9755 34.2955 77.8992C34.4516 77.8229 34.5822 77.7058 34.6874 77.5481C34.7943 77.3903 34.8477 77.1893 34.8477 76.945ZM38.2478 74.6346V75.1435H36.2224V74.6346H38.2478ZM36.8127 73.6982H37.4132V77.4234C37.4132 77.593 37.4378 77.7202 37.487 77.8051C37.5379 77.8882 37.6024 77.9442 37.6804 77.973C37.7601 78.0001 37.8441 78.0137 37.9323 78.0137C37.9985 78.0137 38.0527 78.0103 38.0951 78.0035C38.1376 77.995 38.1715 77.9883 38.1969 77.9832L38.3191 78.5226C38.2783 78.5379 38.2215 78.5531 38.1486 78.5684C38.0756 78.5854 37.9832 78.5939 37.8712 78.5939C37.7016 78.5939 37.5353 78.5574 37.3725 78.4844C37.2113 78.4115 37.0773 78.3004 36.9705 78.1511C36.8653 78.0018 36.8127 77.8135 36.8127 77.5862V73.6982ZM42.9068 74.6346V75.1435H40.8V74.6346H42.9068ZM41.431 78.543V74.0952C41.431 73.8712 41.4836 73.6846 41.5888 73.5354C41.6939 73.3861 41.8305 73.2741 41.9984 73.1995C42.1664 73.1248 42.3436 73.0875 42.5302 73.0875C42.6778 73.0875 42.7983 73.0994 42.8916 73.1232C42.9849 73.1469 43.0544 73.169 43.1002 73.1893L42.9272 73.7084C42.8966 73.6982 42.8542 73.6855 42.8 73.6702C42.7474 73.655 42.6778 73.6473 42.5913 73.6473C42.3928 73.6473 42.2495 73.6974 42.1613 73.7974C42.0748 73.8975 42.0315 74.0443 42.0315 74.2376V78.543H41.431ZM43.7484 78.543V74.6346H44.3489V78.543H43.7484ZM44.0538 73.9832C43.9367 73.9832 43.8358 73.9433 43.751 73.8636C43.6678 73.7839 43.6263 73.688 43.6263 73.5761C43.6263 73.4641 43.6678 73.3683 43.751 73.2885C43.8358 73.2088 43.9367 73.169 44.0538 73.169C44.1708 73.169 44.2709 73.2088 44.354 73.2885C44.4388 73.3683 44.4812 73.4641 44.4812 73.5761C44.4812 73.688 44.4388 73.7839 44.354 73.8636C44.2709 73.9433 44.1708 73.9832 44.0538 73.9832ZM47.0875 78.6244C46.7109 78.6244 46.386 78.5413 46.1129 78.375C45.8415 78.2071 45.632 77.973 45.4844 77.6727C45.3385 77.3708 45.2656 77.0197 45.2656 76.6193C45.2656 76.219 45.3385 75.8661 45.4844 75.5608C45.632 75.2538 45.8373 75.0146 46.1002 74.8432C46.3648 74.6702 46.6736 74.5837 47.0264 74.5837C47.23 74.5837 47.431 74.6176 47.6294 74.6855C47.8279 74.7533 48.0086 74.8636 48.1714 75.0163C48.3343 75.1672 48.464 75.3674 48.5607 75.6168C48.6574 75.8661 48.7058 76.1732 48.7058 76.5379V76.7923H45.6931V76.2733H48.0951C48.0951 76.0527 48.051 75.856 47.9628 75.6829C47.8763 75.5099 47.7524 75.3734 47.5913 75.2733C47.4318 75.1732 47.2435 75.1231 47.0264 75.1231C46.7872 75.1231 46.5803 75.1825 46.4055 75.3013C46.2325 75.4183 46.0993 75.571 46.006 75.7593C45.9127 75.9476 45.8661 76.1494 45.8661 76.3649V76.7109C45.8661 77.0061 45.917 77.2563 46.0188 77.4615C46.1222 77.6651 46.2656 77.8203 46.4488 77.9272C46.632 78.0324 46.8449 78.085 47.0875 78.085C47.2452 78.085 47.3877 78.0629 47.5149 78.0188C47.6439 77.973 47.755 77.9051 47.8483 77.8152C47.9416 77.7236 48.0137 77.61 48.0646 77.4743L48.6447 77.6371C48.5836 77.8339 48.481 78.0069 48.3368 78.1562C48.1926 78.3038 48.0145 78.4191 47.8025 78.5023C47.5904 78.5837 47.3521 78.6244 47.0875 78.6244ZM50.2198 73.3318V78.543H49.6193V73.3318H50.2198ZM52.7954 78.6244C52.4697 78.6244 52.1822 78.5421 51.9329 78.3776C51.6835 78.2113 51.4884 77.9772 51.3476 77.6753C51.2068 77.3716 51.1364 77.0129 51.1364 76.599C51.1364 76.1884 51.2068 75.8322 51.3476 75.5303C51.4884 75.2283 51.6843 74.9951 51.9354 74.8305C52.1865 74.666 52.4765 74.5837 52.8056 74.5837C53.0601 74.5837 53.2611 74.6261 53.4087 74.7109C53.5579 74.7941 53.6716 74.889 53.7496 74.9959C53.8294 75.1011 53.8913 75.1876 53.9354 75.2555H53.9863V73.3318H54.5868V78.543H54.0066V77.9425H53.9354C53.8913 78.0137 53.8285 78.1036 53.7471 78.2122C53.6657 78.3191 53.5495 78.4149 53.3985 78.4997C53.2475 78.5828 53.0465 78.6244 52.7954 78.6244ZM52.8769 78.085C53.1177 78.085 53.3213 78.0222 53.4876 77.8967C53.6538 77.7694 53.7802 77.5939 53.8667 77.3699C53.9532 77.1443 53.9965 76.8839 53.9965 76.5888C53.9965 76.297 53.954 76.0417 53.8692 75.8229C53.7844 75.6024 53.6589 75.431 53.4926 75.3089C53.3264 75.1851 53.1211 75.1231 52.8769 75.1231C52.6224 75.1231 52.4104 75.1884 52.2407 75.3191C52.0728 75.448 51.9464 75.6236 51.8616 75.8458C51.7785 76.0663 51.7369 76.314 51.7369 76.5888C51.7369 76.867 51.7793 77.1197 51.8641 77.347C51.9507 77.5727 52.0779 77.7525 52.2458 77.8865C52.4155 78.0188 52.6258 78.085 52.8769 78.085Z" fill="#575656"/>
<path d="M13.8224 103.491V98.28H14.4535V102.931H16.8759V103.491H13.8224ZM18.9217 103.583C18.674 103.583 18.4492 103.536 18.2474 103.443C18.0455 103.348 17.8852 103.211 17.7664 103.033C17.6477 102.853 17.5883 102.636 17.5883 102.382C17.5883 102.158 17.6324 101.976 17.7206 101.837C17.8089 101.696 17.9267 101.586 18.0743 101.506C18.2219 101.427 18.3848 101.367 18.5629 101.328C18.7427 101.288 18.9234 101.255 19.1049 101.232C19.3423 101.201 19.5349 101.178 19.6825 101.163C19.8317 101.146 19.9403 101.118 20.0082 101.079C20.0777 101.04 20.1125 100.972 20.1125 100.875V100.855C20.1125 100.604 20.0438 100.409 19.9064 100.27C19.7707 100.131 19.5646 100.061 19.2881 100.061C19.0014 100.061 18.7766 100.124 18.6138 100.249C18.4509 100.375 18.3364 100.509 18.2703 100.652L17.7003 100.448C17.8021 100.21 17.9378 100.026 18.1074 99.8933C18.2787 99.7593 18.4653 99.666 18.6672 99.6134C18.8708 99.5591 19.0709 99.5319 19.2677 99.5319C19.3932 99.5319 19.5374 99.5472 19.7003 99.5777C19.8648 99.6066 20.0234 99.6668 20.1761 99.7584C20.3305 99.85 20.4585 99.9883 20.5603 100.173C20.6621 100.358 20.713 100.606 20.713 100.916V103.491H20.1125V102.962H20.082C20.0412 103.047 19.9734 103.138 19.8784 103.234C19.7834 103.331 19.657 103.413 19.4993 103.481C19.3415 103.549 19.149 103.583 18.9217 103.583ZM19.0133 103.043C19.2507 103.043 19.4509 102.997 19.6138 102.903C19.7783 102.81 19.9021 102.69 19.9853 102.542C20.0701 102.395 20.1125 102.239 20.1125 102.076V101.527C20.087 101.557 20.0311 101.585 19.9445 101.611C19.8597 101.635 19.7613 101.656 19.6494 101.674C19.5391 101.691 19.4314 101.707 19.3262 101.72C19.2228 101.732 19.1388 101.742 19.0743 101.751C18.9183 101.771 18.7724 101.804 18.6367 101.85C18.5027 101.894 18.3941 101.961 18.311 102.051C18.2295 102.139 18.1888 102.26 18.1888 102.412C18.1888 102.621 18.266 102.779 18.4204 102.886C18.5764 102.991 18.7741 103.043 19.0133 103.043ZM24.5775 100.458L24.038 100.611C24.0041 100.521 23.9541 100.434 23.8879 100.349C23.8235 100.262 23.7352 100.191 23.6233 100.135C23.5113 100.079 23.368 100.051 23.1933 100.051C22.9541 100.051 22.7548 100.106 22.5953 100.216C22.4375 100.325 22.3587 100.463 22.3587 100.631C22.3587 100.78 22.4129 100.898 22.5215 100.985C22.6301 101.071 22.7997 101.143 23.0304 101.201L23.6106 101.344C23.96 101.428 24.2204 101.558 24.3917 101.733C24.5631 101.906 24.6487 102.129 24.6487 102.402C24.6487 102.626 24.5843 102.826 24.4553 103.003C24.3281 103.179 24.15 103.318 23.921 103.42C23.692 103.522 23.4257 103.573 23.122 103.573C22.7234 103.573 22.3934 103.486 22.1322 103.313C21.871 103.14 21.7056 102.887 21.636 102.555L22.206 102.412C22.2603 102.623 22.3629 102.78 22.5139 102.886C22.6665 102.991 22.8659 103.043 23.1118 103.043C23.3917 103.043 23.614 102.984 23.7785 102.865C23.9447 102.745 24.0279 102.601 24.0279 102.433C24.0279 102.297 23.9804 102.183 23.8854 102.092C23.7904 101.998 23.6445 101.929 23.4477 101.883L22.7963 101.73C22.4384 101.646 22.1755 101.514 22.0075 101.336C21.8413 101.156 21.7582 100.931 21.7582 100.662C21.7582 100.441 21.8201 100.246 21.9439 100.076C22.0694 99.9068 22.2399 99.7737 22.4553 99.677C22.6725 99.5803 22.9185 99.5319 23.1933 99.5319C23.58 99.5319 23.8837 99.6168 24.1042 99.7864C24.3264 99.956 24.4842 100.18 24.5775 100.458ZM27.2524 99.5828V100.092H25.227V99.5828H27.2524ZM25.8173 98.6465H26.4178V102.372C26.4178 102.541 26.4424 102.668 26.4916 102.753C26.5425 102.836 26.6069 102.892 26.685 102.921C26.7647 102.948 26.8487 102.962 26.9369 102.962C27.003 102.962 27.0573 102.959 27.0997 102.952C27.1421 102.943 27.1761 102.937 27.2015 102.931L27.3236 103.471C27.2829 103.486 27.2261 103.501 27.1532 103.517C27.0802 103.534 26.9878 103.542 26.8758 103.542C26.7062 103.542 26.5399 103.506 26.3771 103.433C26.2159 103.36 26.0819 103.249 25.975 103.099C25.8699 102.95 25.8173 102.762 25.8173 102.534V98.6465ZM34.3847 98.28V103.491H33.774L30.9343 99.3996H30.8834V103.491H30.2524V98.28H30.8631L33.7129 102.382H33.7638V98.28H34.3847ZM36.7161 103.583C36.4684 103.583 36.2437 103.536 36.0418 103.443C35.8399 103.348 35.6796 103.211 35.5609 103.033C35.4421 102.853 35.3828 102.636 35.3828 102.382C35.3828 102.158 35.4269 101.976 35.5151 101.837C35.6033 101.696 35.7212 101.586 35.8688 101.506C36.0163 101.427 36.1792 101.367 36.3573 101.328C36.5371 101.288 36.7178 101.255 36.8993 101.232C37.1368 101.201 37.3293 101.178 37.4769 101.163C37.6262 101.146 37.7347 101.118 37.8026 101.079C37.8721 101.04 37.9069 100.972 37.9069 100.875V100.855C37.9069 100.604 37.8382 100.409 37.7008 100.27C37.5651 100.131 37.359 100.061 37.0825 100.061C36.7958 100.061 36.571 100.124 36.4082 100.249C36.2453 100.375 36.1308 100.509 36.0647 100.652L35.4947 100.448C35.5965 100.21 35.7322 100.026 35.9018 99.8933C36.0732 99.7593 36.2598 99.666 36.4616 99.6134C36.6652 99.5591 36.8654 99.5319 37.0621 99.5319C37.1877 99.5319 37.3319 99.5472 37.4947 99.5777C37.6593 99.6066 37.8179 99.6668 37.9705 99.7584C38.1249 99.85 38.253 99.9883 38.3548 100.173C38.4565 100.358 38.5074 100.606 38.5074 100.916V103.491H37.9069V102.962H37.8764C37.8357 103.047 37.7678 103.138 37.6728 103.234C37.5778 103.331 37.4514 103.413 37.2937 103.481C37.1359 103.549 36.9434 103.583 36.7161 103.583ZM36.8077 103.043C37.0452 103.043 37.2453 102.997 37.4082 102.903C37.5727 102.81 37.6966 102.69 37.7797 102.542C37.8645 102.395 37.9069 102.239 37.9069 102.076V101.527C37.8815 101.557 37.8255 101.585 37.739 101.611C37.6542 101.635 37.5558 101.656 37.4438 101.674C37.3336 101.691 37.2258 101.707 37.1207 101.72C37.0172 101.732 36.9332 101.742 36.8688 101.751C36.7127 101.771 36.5668 101.804 36.4311 101.85C36.2971 101.894 36.1885 101.961 36.1054 102.051C36.024 102.139 35.9833 102.26 35.9833 102.412C35.9833 102.621 36.0604 102.779 36.2148 102.886C36.3709 102.991 36.5685 103.043 36.8077 103.043ZM39.6035 103.491V99.5828H40.1836V100.194H40.2345C40.3159 99.9849 40.4474 99.8229 40.6289 99.7075C40.8104 99.5905 41.0284 99.5319 41.2829 99.5319C41.5407 99.5319 41.7553 99.5905 41.9266 99.7075C42.0996 99.8229 42.2345 99.9849 42.3312 100.194H42.3719C42.472 99.9917 42.6221 99.8314 42.8223 99.7126C43.0225 99.5922 43.2625 99.5319 43.5424 99.5319C43.8918 99.5319 44.1777 99.6414 44.3999 99.8602C44.6221 100.077 44.7332 100.416 44.7332 100.875V103.491H44.1327V100.875C44.1327 100.587 44.0538 100.381 43.8961 100.257C43.7383 100.133 43.5526 100.071 43.3388 100.071C43.064 100.071 42.8511 100.155 42.7001 100.321C42.5492 100.485 42.4737 100.694 42.4737 100.947V103.491H41.863V100.814C41.863 100.592 41.7909 100.413 41.6467 100.277C41.5025 100.14 41.3168 100.071 41.0895 100.071C40.9334 100.071 40.7875 100.113 40.6518 100.196C40.5178 100.279 40.4092 100.395 40.3261 100.542C40.2447 100.688 40.204 100.857 40.204 101.048V103.491H39.6035ZM47.4698 103.573C47.0933 103.573 46.7684 103.49 46.4953 103.323C46.2239 103.155 46.0144 102.921 45.8668 102.621C45.7209 102.319 45.648 101.968 45.648 101.568C45.648 101.167 45.7209 100.814 45.8668 100.509C46.0144 100.202 46.2196 99.9628 46.4826 99.7915C46.7472 99.6185 47.0559 99.5319 47.4088 99.5319C47.6123 99.5319 47.8134 99.5659 48.0118 99.6337C48.2103 99.7016 48.391 99.8118 48.5538 99.9645C48.7167 100.115 48.8464 100.316 48.9431 100.565C49.0398 100.814 49.0882 101.121 49.0882 101.486V101.741H46.0754V101.222H48.4775C48.4775 101.001 48.4334 100.804 48.3452 100.631C48.2586 100.458 48.1348 100.322 47.9737 100.222C47.8142 100.121 47.6259 100.071 47.4088 100.071C47.1696 100.071 46.9626 100.131 46.7879 100.249C46.6149 100.367 46.4817 100.519 46.3884 100.708C46.2951 100.896 46.2485 101.098 46.2485 101.313V101.659C46.2485 101.954 46.2994 102.205 46.4011 102.41C46.5046 102.613 46.648 102.769 46.8312 102.875C47.0144 102.981 47.2273 103.033 47.4698 103.033C47.6276 103.033 47.7701 103.011 47.8973 102.967C48.0262 102.921 48.1374 102.853 48.2307 102.763C48.324 102.672 48.396 102.558 48.4469 102.423L49.0271 102.585C48.966 102.782 48.8634 102.955 48.7192 103.104C48.575 103.252 48.3969 103.367 48.1849 103.45C47.9728 103.532 47.7345 103.573 47.4698 103.573Z" fill="#575656"/>
<rect x="13.1914" y="110.586" width="170.433" height="22.5197" rx="6.14173" fill="#F0F0F0"/>
<path d="M22.6429 119.135V124.346H22.0119V119.135H22.6429ZM24.4273 121.995V124.346H23.8268V120.437H24.4069V121.048H24.4578C24.5494 120.85 24.6885 120.69 24.8751 120.57C25.0617 120.448 25.3026 120.386 25.5978 120.386C25.8624 120.386 26.0939 120.441 26.2924 120.549C26.4909 120.656 26.6452 120.819 26.7555 121.038C26.8658 121.255 26.9209 121.53 26.9209 121.862V124.346H26.3204V121.903C26.3204 121.596 26.2407 121.357 26.0812 121.185C25.9218 121.012 25.7029 120.926 25.4247 120.926C25.233 120.926 25.0617 120.967 24.9107 121.051C24.7615 121.134 24.6436 121.255 24.5571 121.414C24.4705 121.574 24.4273 121.767 24.4273 121.995ZM28.0182 125.811V120.437H28.5984V121.058H28.6696C28.7137 120.99 28.7748 120.904 28.8528 120.799C28.9326 120.692 29.0462 120.597 29.1938 120.514C29.3431 120.429 29.5449 120.386 29.7994 120.386C30.1285 120.386 30.4186 120.469 30.6696 120.633C30.9207 120.798 31.1166 121.031 31.2574 121.333C31.3982 121.635 31.4686 121.991 31.4686 122.402C31.4686 122.816 31.3982 123.174 31.2574 123.478C31.1166 123.78 30.9215 124.014 30.6722 124.18C30.4228 124.345 30.1353 124.427 29.8096 124.427C29.5585 124.427 29.3575 124.386 29.2065 124.302C29.0555 124.218 28.9393 124.122 28.8579 124.015C28.7765 123.906 28.7137 123.816 28.6696 123.745H28.6187V125.811H28.0182ZM28.6086 122.392C28.6086 122.687 28.6518 122.947 28.7383 123.173C28.8248 123.397 28.9512 123.572 29.1175 123.699C29.2837 123.825 29.4873 123.888 29.7281 123.888C29.9792 123.888 30.1887 123.822 30.3566 123.689C30.5263 123.555 30.6535 123.375 30.7383 123.15C30.8248 122.922 30.8681 122.67 30.8681 122.392C30.8681 122.117 30.8257 121.869 30.7409 121.649C30.6577 121.426 30.5314 121.251 30.3617 121.122C30.1938 120.991 29.9826 120.926 29.7281 120.926C29.4839 120.926 29.2786 120.988 29.1124 121.112C28.9461 121.234 28.8206 121.405 28.7358 121.626C28.651 121.844 28.6086 122.1 28.6086 122.392ZM34.8477 122.748V120.437H35.4482V124.346H34.8477V123.684H34.807C34.7154 123.883 34.5729 124.051 34.3795 124.19C34.1861 124.328 33.9419 124.397 33.6467 124.397C33.4024 124.397 33.1853 124.343 32.9953 124.236C32.8053 124.128 32.656 123.965 32.5475 123.748C32.4389 123.529 32.3846 123.253 32.3846 122.921V120.437H32.9851V122.88C32.9851 123.165 33.0648 123.392 33.2243 123.562C33.3855 123.732 33.5907 123.816 33.8401 123.816C33.9894 123.816 34.1412 123.778 34.2955 123.702C34.4516 123.626 34.5822 123.509 34.6874 123.351C34.7943 123.193 34.8477 122.992 34.8477 122.748ZM38.2478 120.437V120.946H36.2224V120.437H38.2478ZM36.8127 119.501H37.4132V123.226C37.4132 123.396 37.4378 123.523 37.487 123.608C37.5379 123.691 37.6024 123.747 37.6804 123.776C37.7601 123.803 37.8441 123.816 37.9323 123.816C37.9985 123.816 38.0527 123.813 38.0951 123.806C38.1376 123.798 38.1715 123.791 38.1969 123.786L38.3191 124.325C38.2783 124.341 38.2215 124.356 38.1486 124.371C38.0756 124.388 37.9832 124.397 37.8712 124.397C37.7016 124.397 37.5353 124.36 37.3725 124.287C37.2113 124.214 37.0773 124.103 36.9705 123.954C36.8653 123.805 36.8127 123.616 36.8127 123.389V119.501ZM42.9068 120.437V120.946H40.8V120.437H42.9068ZM41.431 124.346V119.898C41.431 119.674 41.4836 119.487 41.5888 119.338C41.6939 119.189 41.8305 119.077 41.9984 119.002C42.1664 118.928 42.3436 118.89 42.5302 118.89C42.6778 118.89 42.7983 118.902 42.8916 118.926C42.9849 118.95 43.0544 118.972 43.1002 118.992L42.9272 119.511C42.8966 119.501 42.8542 119.488 42.8 119.473C42.7474 119.458 42.6778 119.45 42.5913 119.45C42.3928 119.45 42.2495 119.5 42.1613 119.6C42.0748 119.7 42.0315 119.847 42.0315 120.04V124.346H41.431ZM43.7484 124.346V120.437H44.3489V124.346H43.7484ZM44.0538 119.786C43.9367 119.786 43.8358 119.746 43.751 119.666C43.6678 119.587 43.6263 119.491 43.6263 119.379C43.6263 119.267 43.6678 119.171 43.751 119.091C43.8358 119.012 43.9367 118.972 44.0538 118.972C44.1708 118.972 44.2709 119.012 44.354 119.091C44.4388 119.171 44.4812 119.267 44.4812 119.379C44.4812 119.491 44.4388 119.587 44.354 119.666C44.2709 119.746 44.1708 119.786 44.0538 119.786ZM47.0875 124.427C46.7109 124.427 46.386 124.344 46.1129 124.178C45.8415 124.01 45.632 123.776 45.4844 123.475C45.3385 123.174 45.2656 122.822 45.2656 122.422C45.2656 122.022 45.3385 121.669 45.4844 121.364C45.632 121.056 45.8373 120.817 46.1002 120.646C46.3648 120.473 46.6736 120.386 47.0264 120.386C47.23 120.386 47.431 120.42 47.6294 120.488C47.8279 120.556 48.0086 120.666 48.1714 120.819C48.3343 120.97 48.464 121.17 48.5607 121.42C48.6574 121.669 48.7058 121.976 48.7058 122.341V122.595H45.6931V122.076H48.0951C48.0951 121.855 48.051 121.659 47.9628 121.486C47.8763 121.313 47.7524 121.176 47.5913 121.076C47.4318 120.976 47.2435 120.926 47.0264 120.926C46.7872 120.926 46.5803 120.985 46.4055 121.104C46.2325 121.221 46.0993 121.374 46.006 121.562C45.9127 121.75 45.8661 121.952 45.8661 122.168V122.514C45.8661 122.809 45.917 123.059 46.0188 123.264C46.1222 123.468 46.2656 123.623 46.4488 123.73C46.632 123.835 46.8449 123.888 47.0875 123.888C47.2452 123.888 47.3877 123.866 47.5149 123.822C47.6439 123.776 47.755 123.708 47.8483 123.618C47.9416 123.526 48.0137 123.413 48.0646 123.277L48.6447 123.44C48.5836 123.637 48.481 123.81 48.3368 123.959C48.1926 124.107 48.0145 124.222 47.8025 124.305C47.5904 124.386 47.3521 124.427 47.0875 124.427ZM50.2198 119.135V124.346H49.6193V119.135H50.2198ZM52.7954 124.427C52.4697 124.427 52.1822 124.345 51.9329 124.18C51.6835 124.014 51.4884 123.78 51.3476 123.478C51.2068 123.174 51.1364 122.816 51.1364 122.402C51.1364 121.991 51.2068 121.635 51.3476 121.333C51.4884 121.031 51.6843 120.798 51.9354 120.633C52.1865 120.469 52.4765 120.386 52.8056 120.386C53.0601 120.386 53.2611 120.429 53.4087 120.514C53.5579 120.597 53.6716 120.692 53.7496 120.799C53.8294 120.904 53.8913 120.99 53.9354 121.058H53.9863V119.135H54.5868V124.346H54.0066V123.745H53.9354C53.8913 123.816 53.8285 123.906 53.7471 124.015C53.6657 124.122 53.5495 124.218 53.3985 124.302C53.2475 124.386 53.0465 124.427 52.7954 124.427ZM52.8769 123.888C53.1177 123.888 53.3213 123.825 53.4876 123.699C53.6538 123.572 53.7802 123.397 53.8667 123.173C53.9532 122.947 53.9965 122.687 53.9965 122.392C53.9965 122.1 53.954 121.844 53.8692 121.626C53.7844 121.405 53.6589 121.234 53.4926 121.112C53.3264 120.988 53.1211 120.926 52.8769 120.926C52.6224 120.926 52.4104 120.991 52.2407 121.122C52.0728 121.251 51.9464 121.426 51.8616 121.649C51.7785 121.869 51.7369 122.117 51.7369 122.392C51.7369 122.67 51.7793 122.922 51.8641 123.15C51.9507 123.375 52.0779 123.555 52.2458 123.689C52.4155 123.822 52.6258 123.888 52.8769 123.888Z" fill="#575656"/>
<rect x="13.1914" y="141.295" width="170.433" height="25.2835" rx="6.14173" fill="#050505"/>
<path d="M88.3864 151.97C88.3515 151.675 88.21 151.446 87.9618 151.284C87.7136 151.121 87.4093 151.039 87.0487 151.039C86.785 151.039 86.5543 151.082 86.3566 151.167C86.1608 151.252 86.0076 151.37 85.8971 151.519C85.7885 151.668 85.7343 151.838 85.7343 152.028C85.7343 152.187 85.7721 152.324 85.8477 152.438C85.9252 152.55 86.0241 152.644 86.1443 152.72C86.2645 152.794 86.3905 152.855 86.5223 152.903C86.6542 152.95 86.7753 152.988 86.8858 153.017L87.4907 153.18C87.6458 153.22 87.8183 153.276 88.0083 153.348C88.2003 153.42 88.3835 153.518 88.5579 153.642C88.7344 153.764 88.8798 153.921 88.9941 154.113C89.1085 154.305 89.1657 154.54 89.1657 154.82C89.1657 155.141 89.0814 155.432 88.9127 155.692C88.746 155.952 88.5017 156.158 88.1799 156.311C87.86 156.465 87.4713 156.541 87.0138 156.541C86.5873 156.541 86.218 156.472 85.9058 156.335C85.5956 156.197 85.3514 156.005 85.173 155.759C84.9966 155.513 84.8968 155.227 84.8735 154.901H85.6179C85.6373 155.126 85.7129 155.312 85.8448 155.459C85.9785 155.605 86.1472 155.713 86.3508 155.785C86.5563 155.855 86.7773 155.89 87.0138 155.89C87.2891 155.89 87.5363 155.845 87.7553 155.756C87.9744 155.665 88.1479 155.539 88.2759 155.378C88.4038 155.215 88.4678 155.025 88.4678 154.808C88.4678 154.61 88.4125 154.449 88.302 154.325C88.1915 154.201 88.0461 154.1 87.8658 154.023C87.6855 153.945 87.4907 153.877 87.2813 153.819L86.5485 153.61C86.0832 153.476 85.7149 153.285 85.4435 153.037C85.172 152.789 85.0363 152.464 85.0363 152.063C85.0363 151.729 85.1265 151.439 85.3068 151.19C85.489 150.94 85.7333 150.747 86.0396 150.609C86.3479 150.469 86.692 150.399 87.0719 150.399C87.4558 150.399 87.797 150.468 88.0956 150.606C88.3941 150.742 88.6306 150.928 88.8051 151.164C88.9815 151.401 89.0746 151.669 89.0843 151.97H88.3864ZM93.0734 154.61V151.97H93.7597V156.437H93.0734V155.68H93.0268C92.9222 155.907 92.7593 156.1 92.5383 156.259C92.3173 156.416 92.0381 156.495 91.7008 156.495C91.4216 156.495 91.1735 156.434 90.9563 156.311C90.7392 156.187 90.5686 156.001 90.4445 155.753C90.3204 155.503 90.2584 155.188 90.2584 154.808V151.97H90.9447V154.762C90.9447 155.087 91.0358 155.347 91.2181 155.541C91.4022 155.735 91.6368 155.832 91.9218 155.832C92.0924 155.832 92.2659 155.788 92.4423 155.701C92.6207 155.614 92.77 155.48 92.8902 155.299C93.0123 155.119 93.0734 154.889 93.0734 154.61ZM95.1097 156.437V150.481H95.796V152.679H95.8542C95.9046 152.602 95.9744 152.503 96.0635 152.383C96.1547 152.261 96.2845 152.152 96.4532 152.057C96.6238 151.96 96.8545 151.912 97.1453 151.912C97.5214 151.912 97.8529 152.006 98.1399 152.194C98.4268 152.382 98.6507 152.648 98.8116 152.993C98.9725 153.339 99.053 153.746 99.053 154.215C99.053 154.688 98.9725 155.098 98.8116 155.445C98.6507 155.79 98.4278 156.058 98.1428 156.248C97.8578 156.436 97.5292 156.53 97.1569 156.53C96.87 156.53 96.6403 156.482 96.4677 156.387C96.2952 156.29 96.1624 156.181 96.0694 156.058C95.9763 155.934 95.9046 155.832 95.8542 155.75H95.7727V156.437H95.1097ZM95.7844 154.203C95.7844 154.54 95.8338 154.838 95.9327 155.096C96.0315 155.352 96.176 155.552 96.366 155.698C96.556 155.841 96.7886 155.913 97.0639 155.913C97.3508 155.913 97.5902 155.837 97.7822 155.686C97.976 155.533 98.1214 155.328 98.2184 155.07C98.3172 154.81 98.3667 154.521 98.3667 154.203C98.3667 153.889 98.3182 153.606 98.2213 153.354C98.1263 153.1 97.9819 152.899 97.788 152.752C97.5961 152.603 97.3547 152.528 97.0639 152.528C96.7847 152.528 96.5501 152.599 96.3602 152.74C96.1702 152.88 96.0267 153.076 95.9298 153.328C95.8328 153.578 95.7844 153.87 95.7844 154.203ZM100.103 156.437V151.97H100.766V152.668H100.824C100.917 152.429 101.067 152.244 101.275 152.112C101.482 151.979 101.731 151.912 102.022 151.912C102.317 151.912 102.562 151.979 102.758 152.112C102.956 152.244 103.11 152.429 103.22 152.668H103.267C103.381 152.437 103.553 152.254 103.781 152.118C104.01 151.98 104.285 151.912 104.604 151.912C105.004 151.912 105.33 152.037 105.584 152.287C105.838 152.535 105.965 152.922 105.965 153.447V156.437H105.279V153.447C105.279 153.118 105.189 152.882 105.009 152.74C104.828 152.599 104.616 152.528 104.372 152.528C104.058 152.528 103.814 152.623 103.642 152.813C103.469 153.001 103.383 153.24 103.383 153.529V156.437H102.685V153.377C102.685 153.123 102.603 152.919 102.438 152.764C102.273 152.607 102.061 152.528 101.801 152.528C101.623 152.528 101.456 152.576 101.301 152.671C101.148 152.766 101.024 152.897 100.929 153.066C100.836 153.233 100.789 153.426 100.789 153.645V156.437H100.103ZM107.22 156.437V151.97H107.906V156.437H107.22ZM107.569 151.225C107.435 151.225 107.32 151.18 107.223 151.089C107.128 150.998 107.081 150.888 107.081 150.76C107.081 150.632 107.128 150.523 107.223 150.431C107.32 150.34 107.435 150.295 107.569 150.295C107.703 150.295 107.817 150.34 107.912 150.431C108.009 150.523 108.058 150.632 108.058 150.76C108.058 150.888 108.009 150.998 107.912 151.089C107.817 151.18 107.703 151.225 107.569 151.225ZM111.106 151.97V152.551H108.791V151.97H111.106ZM109.466 150.9H110.152V155.157C110.152 155.351 110.18 155.496 110.236 155.593C110.295 155.688 110.368 155.752 110.457 155.785C110.549 155.816 110.645 155.832 110.745 155.832C110.821 155.832 110.883 155.828 110.931 155.82C110.98 155.81 111.019 155.803 111.048 155.797L111.187 156.413C111.141 156.431 111.076 156.448 110.993 156.466C110.909 156.485 110.804 156.495 110.676 156.495C110.482 156.495 110.292 156.453 110.106 156.37C109.921 156.286 109.768 156.159 109.646 155.989C109.526 155.818 109.466 155.603 109.466 155.343V150.9Z" fill="white"/>
</g>
</svg>
