<svg width="227" height="174" viewBox="0 0 227 174" fill="none" xmlns="http://www.w3.org/2000/svg">
<g opacity="0.7">
<rect x="0.908203" y="0.90918" width="225.487" height="180.121" rx="9.46925" fill="white"/>
<path d="M205.088 18.6641L197.986 25.766" stroke="black" stroke-width="1.18366" strokeLinecap="round" strokeLinejoin="round"/>
<path d="M197.986 18.6641L205.088 25.766" stroke="black" stroke-width="1.18366" strokeLinecap="round" strokeLinejoin="round"/>
<path d="M17.7426 43.501L15.3551 34.8926H16.7212L18.3983 41.559H18.4782L20.2226 34.8926H21.576L23.3204 41.5632H23.4003L25.0732 34.8926H26.4435L24.0518 43.501H22.7446L20.9329 37.0531H20.8657L19.054 43.501H17.7426ZM28.7837 39.6675V43.501H27.5269V34.8926H28.7669V38.0955H28.8467C28.9981 37.748 29.2293 37.472 29.5403 37.2674C29.8513 37.0629 30.2577 36.9606 30.7593 36.9606C31.202 36.9606 31.5887 37.0517 31.9194 37.2338C32.2528 37.416 32.5106 37.6878 32.6928 38.0493C32.8777 38.4079 32.9702 38.8563 32.9702 39.3943V43.501H31.7134V39.5456C31.7134 39.0721 31.5915 38.705 31.3477 38.4444C31.1039 38.181 30.7649 38.0493 30.3305 38.0493C30.0335 38.0493 29.7673 38.1123 29.5319 38.2384C29.2993 38.3645 29.1158 38.5495 28.9813 38.7933C28.8495 39.0342 28.7837 39.3257 28.7837 39.6675ZM36.5262 43.6439C36.1171 43.6439 35.7472 43.5682 35.4165 43.4169C35.0859 43.2628 34.8239 43.04 34.6305 42.7486C34.44 42.4572 34.3447 42.0999 34.3447 41.6767C34.3447 41.3124 34.4148 41.0126 34.5549 40.7772C34.695 40.5418 34.8841 40.3555 35.1223 40.2182C35.3605 40.0809 35.6267 39.9772 35.9209 39.9071C36.2152 39.8371 36.515 39.7838 36.8205 39.7474C37.2072 39.7026 37.521 39.6661 37.762 39.6381C38.003 39.6073 38.1781 39.5583 38.2874 39.491C38.3967 39.4237 38.4513 39.3145 38.4513 39.1631V39.1337C38.4513 38.7666 38.3477 38.4822 38.1403 38.2804C37.9357 38.0787 37.6303 37.9778 37.224 37.9778C36.8008 37.9778 36.4674 38.0717 36.2236 38.2594C35.9826 38.4444 35.8159 38.6503 35.7234 38.8773L34.5423 38.6083C34.6824 38.216 34.8869 37.8993 35.1559 37.6584C35.4278 37.4146 35.7402 37.238 36.0933 37.1287C36.4464 37.0166 36.8177 36.9606 37.2072 36.9606C37.465 36.9606 37.7382 36.9914 38.0268 37.0531C38.3182 37.1119 38.5901 37.2212 38.8423 37.3809C39.0973 37.5407 39.306 37.769 39.4686 38.0661C39.6311 38.3603 39.7123 38.7428 39.7123 39.2136V43.501H38.485V42.6183H38.4345C38.3533 42.7808 38.2314 42.9405 38.0688 43.0975C37.9063 43.2544 37.6976 43.3847 37.4425 43.4884C37.1875 43.592 36.8821 43.6439 36.5262 43.6439ZM36.7994 42.6351C37.1469 42.6351 37.444 42.5664 37.6905 42.4291C37.9399 42.2918 38.1291 42.1125 38.258 41.8911C38.3897 41.6669 38.4556 41.4273 38.4556 41.1723V40.3401C38.4107 40.3849 38.3238 40.4269 38.1949 40.4662C38.0688 40.5026 37.9245 40.5348 37.762 40.5629C37.5995 40.5881 37.4411 40.6119 37.287 40.6343C37.1329 40.6539 37.004 40.6707 36.9003 40.6847C36.6565 40.7156 36.4338 40.7674 36.232 40.8403C36.033 40.9131 35.8733 41.0182 35.7528 41.1555C35.6351 41.29 35.5763 41.4694 35.5763 41.6935C35.5763 42.0046 35.6912 42.24 35.9209 42.3997C36.1507 42.5566 36.4436 42.6351 36.7994 42.6351ZM44.4001 37.0447V38.0535H40.8735V37.0447H44.4001ZM41.8193 35.4978H43.0761V41.6053C43.0761 41.8491 43.1125 42.0326 43.1853 42.1559C43.2582 42.2764 43.3521 42.3591 43.467 42.4039C43.5847 42.4459 43.7122 42.467 43.8495 42.467C43.9504 42.467 44.0386 42.46 44.1143 42.4459C44.1899 42.4319 44.2488 42.4207 44.2908 42.4123L44.5178 43.4505C44.4449 43.4786 44.3413 43.5066 44.2068 43.5346C44.0722 43.5654 43.9041 43.5822 43.7024 43.585C43.3717 43.5906 43.0634 43.5318 42.7776 43.4085C42.4918 43.2852 42.2606 43.0947 42.0841 42.8369C41.9075 42.579 41.8193 42.2554 41.8193 41.8659V35.4978ZM51.6424 43.6313C51.0175 43.6313 50.4795 43.4898 50.0284 43.2067C49.58 42.9209 49.2353 42.5272 48.9943 42.0256C48.7534 41.524 48.6329 40.9496 48.6329 40.3022C48.6329 39.6465 48.7562 39.0679 49.0027 38.5663C49.2493 38.0619 49.5968 37.6682 50.0452 37.3851C50.4935 37.1021 51.0217 36.9606 51.6298 36.9606C52.1202 36.9606 52.5574 37.0517 52.9413 37.2338C53.3252 37.4132 53.6348 37.6654 53.8702 37.9904C54.1084 38.3155 54.2499 38.6952 54.2947 39.1295H53.0716C53.0043 38.8269 52.8502 38.5663 52.6092 38.3477C52.371 38.1291 52.0516 38.0198 51.6508 38.0198C51.3006 38.0198 50.9937 38.1123 50.7303 38.2973C50.4697 38.4794 50.2666 38.74 50.1208 39.0791C49.9751 39.4153 49.9023 39.8133 49.9023 40.2728C49.9023 40.7436 49.9737 41.1499 50.1166 41.4918C50.2595 41.8337 50.4613 42.0985 50.7219 42.2862C50.9853 42.474 51.295 42.5678 51.6508 42.5678C51.889 42.5678 52.1048 42.5244 52.2982 42.4375C52.4943 42.3479 52.6582 42.2204 52.7899 42.055C52.9245 41.8897 53.0183 41.6907 53.0716 41.4582H54.2947C54.2499 41.8757 54.114 42.2484 53.887 42.5762C53.66 42.9041 53.356 43.1619 52.9749 43.3497C52.5966 43.5374 52.1524 43.6313 51.6424 43.6313ZM58.3583 43.6313C57.753 43.6313 57.2248 43.4926 56.7736 43.2152C56.3225 42.9377 55.9722 42.5496 55.7228 42.0508C55.4734 41.552 55.3487 40.9692 55.3487 40.3022C55.3487 39.6325 55.4734 39.0469 55.7228 38.5453C55.9722 38.0437 56.3225 37.6541 56.7736 37.3767C57.2248 37.0993 57.753 36.9606 58.3583 36.9606C58.9636 36.9606 59.4918 37.0993 59.943 37.3767C60.3941 37.6541 60.7444 38.0437 60.9938 38.5453C61.2432 39.0469 61.3679 39.6325 61.3679 40.3022C61.3679 40.9692 61.2432 41.552 60.9938 42.0508C60.7444 42.5496 60.3941 42.9377 59.943 43.2152C59.4918 43.4926 58.9636 43.6313 58.3583 43.6313ZM58.3625 42.5762C58.7548 42.5762 59.0799 42.4726 59.3377 42.2652C59.5955 42.0578 59.786 41.7818 59.9093 41.4371C60.0354 41.0925 60.0985 40.7128 60.0985 40.298C60.0985 39.8861 60.0354 39.5078 59.9093 39.1631C59.786 38.8157 59.5955 38.5368 59.3377 38.3267C59.0799 38.1165 58.7548 38.0114 58.3625 38.0114C57.9674 38.0114 57.6395 38.1165 57.3789 38.3267C57.1211 38.5368 56.9292 38.8157 56.8031 39.1631C56.6798 39.5078 56.6181 39.8861 56.6181 40.298C56.6181 40.7128 56.6798 41.0925 56.8031 41.4371C56.9292 41.7818 57.1211 42.0578 57.3789 42.2652C57.6395 42.4726 57.9674 42.5762 58.3625 42.5762ZM66.8606 40.8235V37.0447H68.1216V43.501H66.8858V42.3829H66.8185C66.67 42.7276 66.4318 43.0148 66.104 43.2446C65.7789 43.4716 65.374 43.585 64.8892 43.585C64.4745 43.585 64.1074 43.494 63.788 43.3118C63.4713 43.1269 63.2219 42.8537 63.0398 42.4922C62.8604 42.1307 62.7707 41.6837 62.7707 41.1513V37.0447H64.0275V41C64.0275 41.4399 64.1494 41.7902 64.3932 42.0508C64.637 42.3114 64.9537 42.4417 65.3432 42.4417C65.5786 42.4417 65.8126 42.3829 66.0451 42.2652C66.2805 42.1475 66.4753 41.9696 66.6294 41.7314C66.7863 41.4932 66.8634 41.1905 66.8606 40.8235ZM71.0671 39.6675V43.501H69.8103V37.0447H71.0166V38.0955H71.0965C71.245 37.7536 71.4776 37.479 71.7942 37.2716C72.1137 37.0643 72.5158 36.9606 73.0006 36.9606C73.4405 36.9606 73.8258 37.0531 74.1565 37.238C74.4872 37.4202 74.7436 37.692 74.9257 38.0535C75.1079 38.415 75.1989 38.8619 75.1989 39.3943V43.501H73.9421V39.5456C73.9421 39.0777 73.8202 38.712 73.5764 38.4486C73.3327 38.1824 72.9978 38.0493 72.5719 38.0493C72.2804 38.0493 72.0212 38.1123 71.7942 38.2384C71.5701 38.3645 71.3921 38.5495 71.2604 38.7933C71.1315 39.0342 71.0671 39.3257 71.0671 39.6675ZM79.8982 37.0447V38.0535H76.3717V37.0447H79.8982ZM77.3174 35.4978H78.5742V41.6053C78.5742 41.8491 78.6106 42.0326 78.6835 42.1559C78.7563 42.2764 78.8502 42.3591 78.9651 42.4039C79.0828 42.4459 79.2103 42.467 79.3476 42.467C79.4485 42.467 79.5368 42.46 79.6124 42.4459C79.6881 42.4319 79.7469 42.4207 79.789 42.4123L80.0159 43.4505C79.9431 43.4786 79.8394 43.5066 79.7049 43.5346C79.5704 43.5654 79.4023 43.5822 79.2005 43.585C78.8698 43.5906 78.5616 43.5318 78.2758 43.4085C77.9899 43.2852 77.7588 43.0947 77.5822 42.8369C77.4057 42.579 77.3174 42.2554 77.3174 41.8659V35.4978ZM81.2885 43.501V37.0447H82.5033V38.0703H82.5705C82.6882 37.7228 82.8956 37.4496 83.1926 37.2506C83.4924 37.0489 83.8315 36.948 84.2098 36.948C84.2883 36.948 84.3807 36.9508 84.4872 36.9564C84.5965 36.962 84.682 36.969 84.7436 36.9774V38.1796C84.6932 38.1656 84.6035 38.1501 84.4746 38.1333C84.3457 38.1137 84.2168 38.1039 84.0879 38.1039C83.7909 38.1039 83.5261 38.167 83.2935 38.2931C83.0637 38.4164 82.8816 38.5887 82.747 38.8101C82.6125 39.0286 82.5453 39.278 82.5453 39.5583V43.501H81.2885ZM86.8222 45.9221C86.6344 45.9221 86.4635 45.9067 86.3094 45.8759C86.1552 45.8478 86.0404 45.817 85.9647 45.7834L86.2673 44.7536C86.4971 44.8152 86.7017 44.8418 86.881 44.8334C87.0604 44.825 87.2187 44.7578 87.356 44.6317C87.4961 44.5056 87.6194 44.2996 87.7259 44.0138L87.8814 43.585L85.5191 37.0447H86.8642L88.4993 42.055H88.5666L90.2016 37.0447H91.5509L88.8902 44.3627C88.7669 44.6989 88.61 44.9833 88.4194 45.2159C88.2289 45.4513 88.0019 45.6279 87.7385 45.7456C87.4751 45.8632 87.1696 45.9221 86.8222 45.9221ZM98.2815 43.6271C97.7603 43.6271 97.2951 43.494 96.886 43.2278C96.4797 42.9587 96.1602 42.5762 95.9276 42.0803C95.6979 41.5815 95.583 40.9832 95.583 40.2854C95.583 39.5877 95.6993 38.9908 95.9318 38.4948C96.1672 37.9988 96.4895 37.6191 96.8986 37.3557C97.3077 37.0923 97.7715 36.9606 98.2899 36.9606C98.6906 36.9606 99.0129 37.0279 99.2567 37.1624C99.5033 37.2941 99.6938 37.4482 99.8283 37.6247C99.9656 37.8013 100.072 37.9568 100.148 38.0913H100.223V34.8926H101.48V43.501H100.253V42.4964H100.148C100.072 42.6337 99.9628 42.7906 99.8199 42.9672C99.6798 43.1437 99.4864 43.2978 99.2399 43.4295C98.9933 43.5612 98.6738 43.6271 98.2815 43.6271ZM98.5589 42.5552C98.9204 42.5552 99.2258 42.46 99.4752 42.2694C99.7274 42.076 99.918 41.8084 100.047 41.4666C100.179 41.1247 100.244 40.7268 100.244 40.2728C100.244 39.8245 100.18 39.4322 100.051 39.0959C99.9222 38.7596 99.733 38.4976 99.4836 38.3099C99.2342 38.1221 98.926 38.0282 98.5589 38.0282C98.1806 38.0282 97.8654 38.1263 97.6132 38.3225C97.361 38.5186 97.1704 38.7862 97.0415 39.1253C96.9154 39.4644 96.8524 39.8469 96.8524 40.2728C96.8524 40.7044 96.9168 41.0925 97.0457 41.4371C97.1746 41.7818 97.3652 42.055 97.6174 42.2568C97.8724 42.4557 98.1862 42.5552 98.5589 42.5552ZM105.994 43.6313C105.388 43.6313 104.86 43.4926 104.409 43.2152C103.958 42.9377 103.607 42.5496 103.358 42.0508C103.109 41.552 102.984 40.9692 102.984 40.3022C102.984 39.6325 103.109 39.0469 103.358 38.5453C103.607 38.0437 103.958 37.6541 104.409 37.3767C104.86 37.0993 105.388 36.9606 105.994 36.9606C106.599 36.9606 107.127 37.0993 107.578 37.3767C108.029 37.6541 108.38 38.0437 108.629 38.5453C108.878 39.0469 109.003 39.6325 109.003 40.3022C109.003 40.9692 108.878 41.552 108.629 42.0508C108.38 42.5496 108.029 42.9377 107.578 43.2152C107.127 43.4926 106.599 43.6313 105.994 43.6313ZM105.998 42.5762C106.39 42.5762 106.715 42.4726 106.973 42.2652C107.231 42.0578 107.421 41.7818 107.545 41.4371C107.671 41.0925 107.734 40.7128 107.734 40.298C107.734 39.8861 107.671 39.5078 107.545 39.1631C107.421 38.8157 107.231 38.5368 106.973 38.3267C106.715 38.1165 106.39 38.0114 105.998 38.0114C105.603 38.0114 105.275 38.1165 105.014 38.3267C104.756 38.5368 104.564 38.8157 104.438 39.1631C104.315 39.5078 104.253 39.8861 104.253 40.298C104.253 40.7128 104.315 41.0925 104.438 41.4371C104.564 41.7818 104.756 42.0578 105.014 42.2652C105.275 42.4726 105.603 42.5762 105.998 42.5762ZM114.333 45.9221C114.145 45.9221 113.974 45.9067 113.82 45.8759C113.666 45.8478 113.551 45.817 113.475 45.7834L113.778 44.7536C114.008 44.8152 114.212 44.8418 114.392 44.8334C114.571 44.825 114.729 44.7578 114.867 44.6317C115.007 44.5056 115.13 44.2996 115.237 44.0138L115.392 43.585L113.03 37.0447H114.375L116.01 42.055H116.077L117.712 37.0447H119.062L116.401 44.3627C116.278 44.6989 116.121 44.9833 115.93 45.2159C115.74 45.4513 115.513 45.6279 115.249 45.7456C114.986 45.8632 114.68 45.9221 114.333 45.9221ZM122.743 43.6313C122.137 43.6313 121.609 43.4926 121.158 43.2152C120.707 42.9377 120.357 42.5496 120.107 42.0508C119.858 41.552 119.733 40.9692 119.733 40.3022C119.733 39.6325 119.858 39.0469 120.107 38.5453C120.357 38.0437 120.707 37.6541 121.158 37.3767C121.609 37.0993 122.137 36.9606 122.743 36.9606C123.348 36.9606 123.876 37.0993 124.327 37.3767C124.779 37.6541 125.129 38.0437 125.378 38.5453C125.628 39.0469 125.752 39.6325 125.752 40.3022C125.752 40.9692 125.628 41.552 125.378 42.0508C125.129 42.5496 124.779 42.9377 124.327 43.2152C123.876 43.4926 123.348 43.6313 122.743 43.6313ZM122.747 42.5762C123.139 42.5762 123.464 42.4726 123.722 42.2652C123.98 42.0578 124.17 41.7818 124.294 41.4371C124.42 41.0925 124.483 40.7128 124.483 40.298C124.483 39.8861 124.42 39.5078 124.294 39.1631C124.17 38.8157 123.98 38.5368 123.722 38.3267C123.464 38.1165 123.139 38.0114 122.747 38.0114C122.352 38.0114 122.024 38.1165 121.763 38.3267C121.506 38.5368 121.314 38.8157 121.188 39.1631C121.064 39.5078 121.003 39.8861 121.003 40.298C121.003 40.7128 121.064 41.0925 121.188 41.4371C121.314 41.7818 121.506 42.0578 121.763 42.2652C122.024 42.4726 122.352 42.5762 122.747 42.5762ZM131.245 40.8235V37.0447H132.506V43.501H131.27V42.3829H131.203C131.054 42.7276 130.816 43.0148 130.488 43.2446C130.163 43.4716 129.758 43.585 129.274 43.585C128.859 43.585 128.492 43.494 128.172 43.3118C127.856 43.1269 127.606 42.8537 127.424 42.4922C127.245 42.1307 127.155 41.6837 127.155 41.1513V37.0447H128.412V41C128.412 41.4399 128.534 41.7902 128.778 42.0508C129.021 42.3114 129.338 42.4417 129.728 42.4417C129.963 42.4417 130.197 42.3829 130.43 42.2652C130.665 42.1475 130.86 41.9696 131.014 41.7314C131.171 41.4932 131.248 41.1905 131.245 40.8235ZM138.584 34.8926V43.501H137.327V34.8926H138.584ZM140.275 43.501V37.0447H141.532V43.501H140.275ZM140.91 36.0485C140.691 36.0485 140.503 35.9756 140.346 35.8299C140.192 35.6814 140.115 35.5048 140.115 35.3003C140.115 35.0929 140.192 34.9164 140.346 34.7707C140.503 34.6221 140.691 34.5479 140.91 34.5479C141.128 34.5479 141.314 34.6221 141.469 34.7707C141.625 34.9164 141.704 35.0929 141.704 35.3003C141.704 35.5048 141.625 35.6814 141.469 35.8299C141.314 35.9756 141.128 36.0485 140.91 36.0485ZM148.746 37.0447L146.404 43.501H145.059L142.714 37.0447H144.063L145.698 42.013H145.765L147.396 37.0447H148.746ZM152.49 43.6313C151.854 43.6313 151.306 43.4954 150.846 43.2236C150.389 42.9489 150.036 42.5636 149.787 42.0676C149.54 41.5688 149.417 40.9846 149.417 40.3149C149.417 39.6535 149.54 39.0707 149.787 38.5663C150.036 38.0619 150.384 37.6682 150.829 37.3851C151.278 37.1021 151.802 36.9606 152.401 36.9606C152.766 36.9606 153.119 37.0208 153.461 37.1413C153.803 37.2618 154.109 37.451 154.381 37.7088C154.653 37.9666 154.867 38.3015 155.024 38.7134C155.181 39.1225 155.26 39.6199 155.26 40.2056V40.6511H150.127V39.7096H154.028C154.028 39.3789 153.961 39.0861 153.826 38.8311C153.692 38.5733 153.503 38.3701 153.259 38.2216C153.018 38.0731 152.735 37.9988 152.41 37.9988C152.057 37.9988 151.749 38.0857 151.485 38.2594C151.224 38.4304 151.023 38.6545 150.88 38.932C150.74 39.2066 150.67 39.505 150.67 39.8273V40.5629C150.67 40.9944 150.745 41.3615 150.897 41.6641C151.051 41.9668 151.265 42.1979 151.54 42.3577C151.814 42.5146 152.135 42.5931 152.502 42.5931C152.74 42.5931 152.958 42.5594 153.154 42.4922C153.35 42.4221 153.52 42.3184 153.662 42.1811C153.805 42.0438 153.915 41.8743 153.99 41.6725L155.18 41.8869C155.085 42.2372 154.914 42.544 154.667 42.8074C154.423 43.068 154.116 43.2712 153.746 43.4169C153.379 43.5598 152.96 43.6313 152.49 43.6313ZM159.787 43.501V37.0447H161.043V43.501H159.787ZM160.421 36.0485C160.203 36.0485 160.015 35.9756 159.858 35.8299C159.704 35.6814 159.627 35.5048 159.627 35.3003C159.627 35.0929 159.704 34.9164 159.858 34.7707C160.015 34.6221 160.203 34.5479 160.421 34.5479C160.64 34.5479 160.826 34.6221 160.98 34.7707C161.137 34.9164 161.216 35.0929 161.216 35.3003C161.216 35.5048 161.137 35.6814 160.98 35.8299C160.826 35.9756 160.64 36.0485 160.421 36.0485ZM163.991 39.6675V43.501H162.734V37.0447H163.941V38.0955H164.02C164.169 37.7536 164.402 37.479 164.718 37.2716C165.038 37.0643 165.44 36.9606 165.925 36.9606C166.365 36.9606 166.75 37.0531 167.08 37.238C167.411 37.4202 167.668 37.692 167.85 38.0535C168.032 38.415 168.123 38.8619 168.123 39.3943V43.501H166.866V39.5456C166.866 39.0777 166.744 38.712 166.5 38.4486C166.257 38.1824 165.922 38.0493 165.496 38.0493C165.204 38.0493 164.945 38.1123 164.718 38.2384C164.494 38.3645 164.316 38.5495 164.184 38.7933C164.055 39.0342 163.991 39.3257 163.991 39.6675Z" fill="#050505"/>
<path d="M20.69 61.8269H19.9603C19.9171 61.617 19.8416 61.4327 19.7337 61.2738C19.6278 61.1149 19.4983 60.9815 19.3453 60.8736C19.1943 60.7638 19.0266 60.6814 18.8422 60.6265C18.6578 60.5715 18.4656 60.5441 18.2655 60.5441C17.9007 60.5441 17.5701 60.6363 17.2739 60.8207C16.9797 61.005 16.7453 61.2767 16.5707 61.6357C16.3981 61.9946 16.3118 62.435 16.3118 62.9568C16.3118 63.4786 16.3981 63.9189 16.5707 64.2779C16.7453 64.6369 16.9797 64.9085 17.2739 65.0929C17.5701 65.2773 17.9007 65.3695 18.2655 65.3695C18.4656 65.3695 18.6578 65.342 18.8422 65.2871C19.0266 65.2322 19.1943 65.1508 19.3453 65.0429C19.4983 64.933 19.6278 64.7987 19.7337 64.6398C19.8416 64.4789 19.9171 64.2946 19.9603 64.0866H20.69C20.6351 64.3946 20.535 64.6702 20.3899 64.9134C20.2447 65.1567 20.0642 65.3636 19.8485 65.5343C19.6327 65.703 19.3905 65.8314 19.1217 65.9197C18.855 66.008 18.5695 66.0521 18.2655 66.0521C17.7516 66.0521 17.2945 65.9266 16.8944 65.6755C16.4942 65.4244 16.1794 65.0674 15.9499 64.6045C15.7204 64.1416 15.6056 63.5923 15.6056 62.9568C15.6056 62.3212 15.7204 61.772 15.9499 61.3091C16.1794 60.8462 16.4942 60.4891 16.8944 60.2381C17.2945 59.987 17.7516 59.8615 18.2655 59.8615C18.5695 59.8615 18.855 59.9056 19.1217 59.9939C19.3905 60.0821 19.6327 60.2116 19.8485 60.3822C20.0642 60.5509 20.2447 60.7569 20.3899 61.0001C20.535 61.2414 20.6351 61.517 20.69 61.8269ZM23.611 66.0639C23.203 66.0639 22.845 65.9668 22.537 65.7726C22.231 65.5784 21.9917 65.3067 21.8191 64.9576C21.6484 64.6084 21.5631 64.2004 21.5631 63.7336C21.5631 63.2628 21.6484 62.8518 21.8191 62.5007C21.9917 62.1496 22.231 61.8769 22.537 61.6828C22.845 61.4886 23.203 61.3915 23.611 61.3915C24.019 61.3915 24.376 61.4886 24.682 61.6828C24.99 61.8769 25.2293 62.1496 25.3999 62.5007C25.5725 62.8518 25.6588 63.2628 25.6588 63.7336C25.6588 64.2004 25.5725 64.6084 25.3999 64.9576C25.2293 65.3067 24.99 65.5784 24.682 65.7726C24.376 65.9668 24.019 66.0639 23.611 66.0639ZM23.611 65.4401C23.9209 65.4401 24.1759 65.3607 24.376 65.2018C24.5761 65.0429 24.7242 64.834 24.8203 64.5751C24.9164 64.3161 24.9645 64.0356 24.9645 63.7336C24.9645 63.4315 24.9164 63.15 24.8203 62.8891C24.7242 62.6282 24.5761 62.4174 24.376 62.2565C24.1759 62.0957 23.9209 62.0152 23.611 62.0152C23.3011 62.0152 23.0461 62.0957 22.846 62.2565C22.6459 62.4174 22.4978 62.6282 22.4017 62.8891C22.3056 63.15 22.2575 63.4315 22.2575 63.7336C22.2575 64.0356 22.3056 64.3161 22.4017 64.5751C22.4978 64.834 22.6459 65.0429 22.846 65.2018C23.0461 65.3607 23.3011 65.4401 23.611 65.4401ZM29.567 64.1219V61.4503H30.2614V65.9697H29.567V65.2047H29.5199C29.414 65.4342 29.2492 65.6294 29.0256 65.7902C28.802 65.9491 28.5195 66.0286 28.1782 66.0286C27.8957 66.0286 27.6447 65.9668 27.425 65.8432C27.2053 65.7177 27.0327 65.5294 26.9071 65.2783C26.7816 65.0252 26.7188 64.7065 26.7188 64.322V61.4503H27.4132V64.2749C27.4132 64.6045 27.5054 64.8673 27.6898 65.0635C27.8761 65.2596 28.1135 65.3577 28.4018 65.3577C28.5744 65.3577 28.75 65.3136 28.9285 65.2253C29.109 65.137 29.26 65.0017 29.3816 64.8193C29.5052 64.6369 29.567 64.4044 29.567 64.1219ZM32.2276 63.251V65.9697H31.5332V61.4503H32.204V62.1565H32.2629C32.3688 61.927 32.5297 61.7426 32.7454 61.6033C32.9612 61.4621 33.2397 61.3915 33.5811 61.3915C33.8871 61.3915 34.1548 61.4542 34.3843 61.5798C34.6138 61.7034 34.7923 61.8917 34.9198 62.1447C35.0473 62.3958 35.1111 62.7135 35.1111 63.098V65.9697H34.4167V63.1451C34.4167 62.7901 34.3245 62.5135 34.1401 62.3154C33.9557 62.1153 33.7027 62.0152 33.381 62.0152C33.1593 62.0152 32.9612 62.0633 32.7866 62.1594C32.614 62.2555 32.4777 62.3958 32.3776 62.5802C32.2776 62.7645 32.2276 62.9882 32.2276 63.251ZM38.3454 61.4503V62.0388H36.0033V61.4503H38.3454ZM36.686 60.3675H37.3803V64.6751C37.3803 64.8713 37.4088 65.0184 37.4657 65.1165C37.5245 65.2126 37.5991 65.2773 37.6893 65.3106C37.7815 65.342 37.8786 65.3577 37.9806 65.3577C38.0571 65.3577 38.1198 65.3538 38.1689 65.346C38.2179 65.3361 38.2572 65.3283 38.2866 65.3224L38.4278 65.9462C38.3807 65.9638 38.315 65.9815 38.2307 65.9991C38.1463 66.0188 38.0394 66.0286 37.91 66.0286C37.7138 66.0286 37.5216 65.9864 37.3333 65.9021C37.1469 65.8177 36.992 65.6892 36.8684 65.5166C36.7468 65.344 36.686 65.1263 36.686 64.8634V60.3675ZM39.39 65.9697V61.4503H40.0608V62.1329H40.1079C40.1903 61.9093 40.3393 61.7279 40.5551 61.5886C40.7709 61.4493 41.0141 61.3797 41.2848 61.3797C41.3358 61.3797 41.3996 61.3807 41.4761 61.3826C41.5526 61.3846 41.6104 61.3875 41.6497 61.3915V62.0976C41.6261 62.0917 41.5722 62.0829 41.4878 62.0711C41.4054 62.0574 41.3182 62.0505 41.226 62.0505C41.0063 62.0505 40.8101 62.0966 40.6375 62.1888C40.4668 62.2791 40.3315 62.4046 40.2315 62.5655C40.1334 62.7243 40.0843 62.9058 40.0843 63.1098V65.9697H39.39ZM43.0576 67.6645C42.9399 67.6645 42.8349 67.6547 42.7427 67.6351C42.6505 67.6174 42.5868 67.5998 42.5515 67.5821L42.728 66.9701C42.8967 67.0133 43.0458 67.029 43.1753 67.0172C43.3047 67.0054 43.4195 66.9476 43.5195 66.8436C43.6215 66.7416 43.7147 66.5758 43.799 66.3463L43.9285 65.9933L42.2573 61.4503H43.0105L44.258 65.0517H44.3051L45.5527 61.4503H46.3059L44.3875 66.6288C44.3012 66.8622 44.1943 67.0554 44.0668 67.2084C43.9393 67.3634 43.7912 67.4782 43.6225 67.5527C43.4558 67.6272 43.2674 67.6645 43.0576 67.6645Z" fill="#575656"/>
<rect x="15.1113" y="73.7041" width="197.079" height="26.0404" rx="7.10194" fill="#F0F0F0"/>
<path d="M24.9802 84.346V83.6987H29.4997V84.346H27.6048V89.7246H26.8751V84.346H24.9802ZM30.4611 91.4194C30.3434 91.4194 30.2384 91.4096 30.1462 91.39C30.054 91.3723 29.9903 91.3547 29.955 91.337L30.1315 90.725C30.3002 90.7682 30.4493 90.7838 30.5788 90.7721C30.7082 90.7603 30.823 90.7024 30.923 90.5985C31.025 90.4965 31.1182 90.3307 31.2025 90.1012L31.332 89.7481L29.6607 85.2052H30.414L31.6615 88.8066H31.7086L32.9562 85.2052H33.7094L31.791 90.3837C31.7047 90.6171 31.5978 90.8103 31.4703 90.9633C31.3428 91.1183 31.1947 91.233 31.026 91.3076C30.8593 91.3821 30.6709 91.4194 30.4611 91.4194ZM34.6259 91.4194V85.2052H35.2968V85.9231H35.3792C35.4302 85.8447 35.5008 85.7446 35.591 85.623C35.6832 85.4994 35.8146 85.3896 35.9853 85.2935C36.1579 85.1954 36.3913 85.1463 36.6856 85.1463C37.0661 85.1463 37.4015 85.2415 37.6918 85.4318C37.9821 85.622 38.2087 85.8917 38.3715 86.2409C38.5343 86.59 38.6157 87.002 38.6157 87.4767C38.6157 87.9553 38.5343 88.3702 38.3715 88.7213C38.2087 89.0704 37.9831 89.3411 37.6948 89.5334C37.4064 89.7236 37.0739 89.8188 36.6973 89.8188C36.407 89.8188 36.1746 89.7707 36 89.6746C35.8254 89.5765 35.691 89.4657 35.5969 89.3421C35.5027 89.2166 35.4302 89.1126 35.3792 89.0302H35.3203V91.4194H34.6259ZM35.3085 87.4649C35.3085 87.8062 35.3586 88.1073 35.4586 88.3682C35.5586 88.6271 35.7048 88.8301 35.897 88.9773C36.0892 89.1224 36.3246 89.195 36.6032 89.195C36.8935 89.195 37.1357 89.1185 37.3299 88.9655C37.5261 88.8105 37.6732 88.6026 37.7713 88.3417C37.8713 88.0789 37.9213 87.7866 37.9213 87.4649C37.9213 87.1471 37.8723 86.8607 37.7742 86.6057C37.6781 86.3488 37.532 86.1458 37.3358 85.9967C37.1416 85.8456 36.8974 85.7701 36.6032 85.7701C36.3207 85.7701 36.0834 85.8417 35.8911 85.9849C35.6989 86.1261 35.5537 86.3243 35.4557 86.5793C35.3576 86.8323 35.3085 87.1275 35.3085 87.4649ZM41.5698 89.8188C41.1344 89.8188 40.7587 89.7226 40.4429 89.5304C40.1291 89.3362 39.8868 89.0655 39.7162 88.7183C39.5475 88.3692 39.4631 87.9631 39.4631 87.5002C39.4631 87.0373 39.5475 86.6293 39.7162 86.2762C39.8868 85.9212 40.1242 85.6446 40.4282 85.4465C40.7342 85.2464 41.0912 85.1463 41.4992 85.1463C41.7346 85.1463 41.967 85.1856 42.1965 85.264C42.426 85.3425 42.6349 85.47 42.8232 85.6465C43.0116 85.8211 43.1616 86.0526 43.2734 86.3409C43.3852 86.6293 43.4411 86.9843 43.4411 87.4061V87.7003H39.9574V87.1001H42.735C42.735 86.8451 42.684 86.6175 42.582 86.4174C42.4819 86.2174 42.3387 86.0594 42.1524 85.9437C41.968 85.828 41.7503 85.7701 41.4992 85.7701C41.2226 85.7701 40.9833 85.8388 40.7813 85.9761C40.5812 86.1114 40.4272 86.288 40.3193 86.5057C40.2114 86.7234 40.1575 86.9569 40.1575 87.206V87.6061C40.1575 87.9474 40.2163 88.2368 40.334 88.4741C40.4537 88.7095 40.6194 88.889 40.8313 89.0126C41.0431 89.1342 41.2893 89.195 41.5698 89.195C41.7522 89.195 41.917 89.1695 42.0641 89.1185C42.2132 89.0655 42.3417 88.9871 42.4496 88.8831C42.5575 88.7772 42.6408 88.6458 42.6997 88.4888L43.3705 88.6771C43.2999 88.9047 43.1812 89.1048 43.0145 89.2774C42.8478 89.448 42.6418 89.5814 42.3966 89.6775C42.1514 89.7717 41.8758 89.8188 41.5698 89.8188ZM48.6638 89.8188C48.2558 89.8188 47.8978 89.7217 47.5898 89.5275C47.2838 89.3333 47.0445 89.0616 46.8719 88.7124C46.7012 88.3633 46.6159 87.9553 46.6159 87.4884C46.6159 87.0177 46.7012 86.6067 46.8719 86.2556C47.0445 85.9045 47.2838 85.6318 47.5898 85.4376C47.8978 85.2434 48.2558 85.1463 48.6638 85.1463C49.0718 85.1463 49.4288 85.2434 49.7348 85.4376C50.0427 85.6318 50.2821 85.9045 50.4527 86.2556C50.6253 86.6067 50.7116 87.0177 50.7116 87.4884C50.7116 87.9553 50.6253 88.3633 50.4527 88.7124C50.2821 89.0616 50.0427 89.3333 49.7348 89.5275C49.4288 89.7217 49.0718 89.8188 48.6638 89.8188ZM48.6638 89.195C48.9737 89.195 49.2287 89.1155 49.4288 88.9567C49.6289 88.7978 49.777 88.5889 49.8731 88.3299C49.9692 88.071 50.0172 87.7905 50.0172 87.4884C50.0172 87.1864 49.9692 86.9049 49.8731 86.644C49.777 86.3831 49.6289 86.1722 49.4288 86.0114C49.2287 85.8505 48.9737 85.7701 48.6638 85.7701C48.3538 85.7701 48.0988 85.8505 47.8988 86.0114C47.6987 86.1722 47.5506 86.3831 47.4545 86.644C47.3584 86.9049 47.3103 87.1864 47.3103 87.4884C47.3103 87.7905 47.3584 88.071 47.4545 88.3299C47.5506 88.5889 47.6987 88.7978 47.8988 88.9567C48.0988 89.1155 48.3538 89.195 48.6638 89.195ZM51.7716 89.7246V85.2052H52.4425V85.8878H52.4895C52.5719 85.6642 52.721 85.4828 52.9368 85.3435C53.1525 85.2042 53.3958 85.1346 53.6665 85.1346C53.7175 85.1346 53.7812 85.1356 53.8577 85.1375C53.9342 85.1395 53.9921 85.1424 54.0313 85.1463V85.8525C54.0078 85.8466 53.9538 85.8378 53.8695 85.826C53.7871 85.8123 53.6998 85.8054 53.6076 85.8054C53.3879 85.8054 53.1918 85.8515 53.0192 85.9437C52.8485 86.0339 52.7132 86.1595 52.6131 86.3203C52.515 86.4792 52.466 86.6607 52.466 86.8647V89.7246H51.7716ZM60.386 86.2174L59.7622 86.3939C59.723 86.2899 59.6651 86.1889 59.5886 86.0908C59.5141 85.9908 59.4121 85.9084 59.2826 85.8437C59.1532 85.7789 58.9874 85.7466 58.7854 85.7466C58.5088 85.7466 58.2783 85.8103 58.0939 85.9378C57.9115 86.0634 57.8203 86.2232 57.8203 86.4174C57.8203 86.59 57.8831 86.7264 58.0086 86.8264C58.1341 86.9265 58.3303 87.0098 58.5971 87.0765L59.2679 87.2413C59.672 87.3394 59.9731 87.4894 60.1712 87.6915C60.3693 87.8915 60.4684 88.1495 60.4684 88.4653C60.4684 88.7242 60.3939 88.9557 60.2448 89.1597C60.0977 89.3637 59.8917 89.5245 59.6269 89.6422C59.3621 89.7599 59.0541 89.8188 58.703 89.8188C58.242 89.8188 57.8605 89.7187 57.5584 89.5186C57.2564 89.3186 57.0651 89.0263 56.9847 88.6418L57.6438 88.4771C57.7065 88.7203 57.8252 88.9027 57.9998 89.0243C58.1763 89.146 58.4068 89.2068 58.6912 89.2068C59.0149 89.2068 59.2718 89.1381 59.4621 89.0008C59.6543 88.8615 59.7505 88.6948 59.7505 88.5006C59.7505 88.3437 59.6955 88.2123 59.5857 88.1063C59.4758 87.9984 59.3072 87.918 59.0796 87.8651L58.3264 87.6885C57.9125 87.5904 57.6084 87.4384 57.4143 87.2325C57.222 87.0245 57.1259 86.7646 57.1259 86.4527C57.1259 86.1977 57.1975 85.9722 57.3407 85.776C57.4859 85.5798 57.683 85.4259 57.9321 85.3141C58.1832 85.2023 58.4676 85.1463 58.7854 85.1463C59.2326 85.1463 59.5837 85.2444 59.8387 85.4406C60.0957 85.6367 60.2781 85.8957 60.386 86.2174ZM63.4085 89.8188C62.9731 89.8188 62.5974 89.7226 62.2816 89.5304C61.9678 89.3362 61.7255 89.0655 61.5548 88.7183C61.3862 88.3692 61.3018 87.9631 61.3018 87.5002C61.3018 87.0373 61.3862 86.6293 61.5548 86.2762C61.7255 85.9212 61.9629 85.6446 62.2669 85.4465C62.5729 85.2464 62.9299 85.1463 63.3379 85.1463C63.5733 85.1463 63.8057 85.1856 64.0352 85.264C64.2647 85.3425 64.4736 85.47 64.6619 85.6465C64.8503 85.8211 65.0003 86.0526 65.1121 86.3409C65.2239 86.6293 65.2798 86.9843 65.2798 87.4061V87.7003H61.7961V87.1001H64.5737C64.5737 86.8451 64.5227 86.6175 64.4207 86.4174C64.3206 86.2174 64.1774 86.0594 63.9911 85.9437C63.8067 85.828 63.589 85.7701 63.3379 85.7701C63.0613 85.7701 62.822 85.8388 62.62 85.9761C62.4199 86.1114 62.2659 86.288 62.158 86.5057C62.0501 86.7234 61.9962 86.9569 61.9962 87.206V87.6061C61.9962 87.9474 62.055 88.2368 62.1727 88.4741C62.2924 88.7095 62.4581 88.889 62.67 89.0126C62.8818 89.1342 63.128 89.195 63.4085 89.195C63.5909 89.195 63.7557 89.1695 63.9028 89.1185C64.0519 89.0655 64.1804 88.9871 64.2883 88.8831C64.3962 88.7772 64.4795 88.6458 64.5384 88.4888L65.2092 88.6771C65.1386 88.9047 65.0199 89.1048 64.8532 89.2774C64.6865 89.448 64.4805 89.5814 64.2353 89.6775C63.9901 89.7717 63.7145 89.8188 63.4085 89.8188ZM67.0305 83.6987V89.7246H66.3361V83.6987H67.0305ZM70.1972 89.8188C69.7617 89.8188 69.3861 89.7226 69.0703 89.5304C68.7564 89.3362 68.5142 89.0655 68.3435 88.7183C68.1748 88.3692 68.0905 87.9631 68.0905 87.5002C68.0905 87.0373 68.1748 86.6293 68.3435 86.2762C68.5142 85.9212 68.7515 85.6446 69.0556 85.4465C69.3616 85.2464 69.7186 85.1463 70.1266 85.1463C70.362 85.1463 70.5944 85.1856 70.8239 85.264C71.0534 85.3425 71.2623 85.47 71.4506 85.6465C71.6389 85.8211 71.789 86.0526 71.9008 86.3409C72.0126 86.6293 72.0685 86.9843 72.0685 87.4061V87.7003H68.5848V87.1001H71.3624C71.3624 86.8451 71.3114 86.6175 71.2094 86.4174C71.1093 86.2174 70.9661 86.0594 70.7798 85.9437C70.5954 85.828 70.3777 85.7701 70.1266 85.7701C69.85 85.7701 69.6107 85.8388 69.4087 85.9761C69.2086 86.1114 69.0546 86.288 68.9467 86.5057C68.8388 86.7234 68.7849 86.9569 68.7849 87.206V87.6061C68.7849 87.9474 68.8437 88.2368 68.9614 88.4741C69.0811 88.7095 69.2468 88.889 69.4587 89.0126C69.6705 89.1342 69.9167 89.195 70.1972 89.195C70.3796 89.195 70.5444 89.1695 70.6915 89.1185C70.8406 89.0655 70.9691 88.9871 71.077 88.8831C71.1848 88.7772 71.2682 88.6458 71.3271 88.4888L71.9979 88.6771C71.9273 88.9047 71.8086 89.1048 71.6419 89.2774C71.4752 89.448 71.2692 89.5814 71.024 89.6775C70.7788 89.7717 70.5032 89.8188 70.1972 89.8188ZM74.9608 89.8188C74.5371 89.8188 74.1723 89.7187 73.8663 89.5186C73.5603 89.3186 73.3249 89.043 73.1601 88.6919C72.9954 88.3407 72.913 87.9396 72.913 87.4884C72.913 87.0294 72.9973 86.6244 73.166 86.2733C73.3367 85.9202 73.574 85.6446 73.8781 85.4465C74.1841 85.2464 74.5411 85.1463 74.9491 85.1463C75.2668 85.1463 75.5532 85.2052 75.8082 85.3229C76.0632 85.4406 76.2721 85.6053 76.4349 85.8172C76.5977 86.029 76.6988 86.2762 76.738 86.5587H76.0436C75.9906 86.3527 75.873 86.1703 75.6905 86.0114C75.5101 85.8505 75.2668 85.7701 74.9608 85.7701C74.6901 85.7701 74.4528 85.8407 74.2488 85.982C74.0467 86.1212 73.8888 86.3184 73.7751 86.5734C73.6633 86.8264 73.6074 87.1236 73.6074 87.4649C73.6074 87.8141 73.6623 88.1181 73.7721 88.377C73.8839 88.6359 74.0409 88.837 74.2429 88.9802C74.4469 89.1234 74.6862 89.195 74.9608 89.195C75.1413 89.195 75.3051 89.1636 75.4522 89.1008C75.5993 89.0381 75.7239 88.9478 75.8259 88.8301C75.9279 88.7124 76.0005 88.5712 76.0436 88.4064H76.738C76.6988 88.6732 76.6017 88.9135 76.4467 89.1273C76.2937 89.3392 76.0907 89.5079 75.8376 89.6334C75.5866 89.757 75.2943 89.8188 74.9608 89.8188ZM79.7186 85.2052V85.7937H77.3765V85.2052H79.7186ZM78.0591 84.1224H78.7535V88.43C78.7535 88.6261 78.7819 88.7733 78.8388 88.8713C78.8977 88.9675 78.9722 89.0322 79.0624 89.0655C79.1546 89.0969 79.2517 89.1126 79.3537 89.1126C79.4302 89.1126 79.493 89.1087 79.542 89.1008C79.5911 89.091 79.6303 89.0832 79.6597 89.0773L79.801 89.7011C79.7539 89.7187 79.6882 89.7364 79.6038 89.754C79.5195 89.7736 79.4126 89.7835 79.2831 89.7835C79.087 89.7835 78.8947 89.7413 78.7064 89.6569C78.5201 89.5726 78.3651 89.4441 78.2415 89.2715C78.1199 89.0989 78.0591 88.8811 78.0591 88.6183V84.1224ZM84.4234 89.8305C84.137 89.8305 83.8771 89.7766 83.6436 89.6687C83.4102 89.5589 83.2249 89.401 83.0875 89.195C82.9502 88.9871 82.8816 88.736 82.8816 88.4418C82.8816 88.1828 82.9326 87.9729 83.0346 87.8121C83.1366 87.6493 83.2729 87.5218 83.4436 87.4296C83.6142 87.3374 83.8025 87.2687 84.0085 87.2236C84.2164 87.1766 84.4253 87.1393 84.6352 87.1118C84.9098 87.0765 85.1325 87.05 85.3031 87.0324C85.4757 87.0128 85.6013 86.9804 85.6797 86.9353C85.7602 86.8902 85.8004 86.8117 85.8004 86.6999V86.6764C85.8004 86.386 85.7209 86.1605 85.562 85.9996C85.4051 85.8388 85.1668 85.7584 84.8471 85.7584C84.5156 85.7584 84.2556 85.8309 84.0673 85.9761C83.879 86.1212 83.7466 86.2762 83.6701 86.441L83.011 86.2056C83.1287 85.931 83.2857 85.7172 83.4818 85.5642C83.6799 85.4092 83.8957 85.3013 84.1291 85.2405C84.3645 85.1777 84.596 85.1463 84.8235 85.1463C84.9687 85.1463 85.1354 85.164 85.3237 85.1993C85.514 85.2327 85.6974 85.3023 85.8739 85.4082C86.0524 85.5141 86.2005 85.674 86.3182 85.8878C86.4359 86.1016 86.4948 86.388 86.4948 86.747V89.7246H85.8004V89.1126H85.7651C85.718 89.2107 85.6395 89.3156 85.5297 89.4274C85.4198 89.5392 85.2737 89.6344 85.0913 89.7128C84.9088 89.7913 84.6862 89.8305 84.4234 89.8305ZM84.5293 89.2068C84.8039 89.2068 85.0354 89.1528 85.2237 89.0449C85.4139 88.937 85.5571 88.7978 85.6533 88.6271C85.7513 88.4565 85.8004 88.277 85.8004 88.0887V87.4531C85.7709 87.4884 85.7062 87.5208 85.6062 87.5502C85.5081 87.5777 85.3943 87.6022 85.2649 87.6238C85.1374 87.6434 85.0128 87.6611 84.8912 87.6767C84.7715 87.6905 84.6744 87.7022 84.5999 87.7121C84.4194 87.7356 84.2507 87.7738 84.0938 87.8268C83.9389 87.8778 83.8133 87.9553 83.7172 88.0593C83.623 88.1613 83.576 88.3005 83.576 88.4771C83.576 88.7183 83.6652 88.9008 83.8437 89.0243C84.0242 89.146 84.2527 89.2068 84.5293 89.2068ZM88.4566 87.0059V89.7246H87.7622V85.2052H88.433V85.9114H88.4919C88.5978 85.6819 88.7586 85.4975 88.9744 85.3582C89.1902 85.217 89.4687 85.1463 89.81 85.1463C90.116 85.1463 90.3838 85.2091 90.6133 85.3347C90.8428 85.4582 91.0213 85.6465 91.1488 85.8996C91.2763 86.1507 91.34 86.4684 91.34 86.8529V89.7246H90.6457V86.9C90.6457 86.5449 90.5535 86.2684 90.3691 86.0702C90.1847 85.8702 89.9316 85.7701 89.61 85.7701C89.3883 85.7701 89.1902 85.8182 89.0156 85.9143C88.843 86.0104 88.7067 86.1507 88.6066 86.335C88.5066 86.5194 88.4566 86.743 88.4566 87.0059ZM96.7753 89.8188C96.3673 89.8188 96.0093 89.7217 95.7013 89.5275C95.3953 89.3333 95.156 89.0616 94.9834 88.7124C94.8127 88.3633 94.7274 87.9553 94.7274 87.4884C94.7274 87.0177 94.8127 86.6067 94.9834 86.2556C95.156 85.9045 95.3953 85.6318 95.7013 85.4376C96.0093 85.2434 96.3673 85.1463 96.7753 85.1463C97.1833 85.1463 97.5403 85.2434 97.8463 85.4376C98.1542 85.6318 98.3935 85.9045 98.5642 86.2556C98.7368 86.6067 98.8231 87.0177 98.8231 87.4884C98.8231 87.9553 98.7368 88.3633 98.5642 88.7124C98.3935 89.0616 98.1542 89.3333 97.8463 89.5275C97.5403 89.7217 97.1833 89.8188 96.7753 89.8188ZM96.7753 89.195C97.0852 89.195 97.3402 89.1155 97.5403 88.9567C97.7403 88.7978 97.8884 88.5889 97.9846 88.3299C98.0807 88.071 98.1287 87.7905 98.1287 87.4884C98.1287 87.1864 98.0807 86.9049 97.9846 86.644C97.8884 86.3831 97.7403 86.1722 97.5403 86.0114C97.3402 85.8505 97.0852 85.7701 96.7753 85.7701C96.4653 85.7701 96.2103 85.8505 96.0103 86.0114C95.8102 86.1722 95.6621 86.3831 95.566 86.644C95.4698 86.9049 95.4218 87.1864 95.4218 87.4884C95.4218 87.7905 95.4698 88.071 95.566 88.3299C95.6621 88.5889 95.8102 88.7978 96.0103 88.9567C96.2103 89.1155 96.4653 89.195 96.7753 89.195ZM99.8831 91.4194V85.2052H100.554V85.9231H100.636C100.687 85.8447 100.758 85.7446 100.848 85.623C100.94 85.4994 101.072 85.3896 101.242 85.2935C101.415 85.1954 101.648 85.1463 101.943 85.1463C102.323 85.1463 102.659 85.2415 102.949 85.4318C103.239 85.622 103.466 85.8917 103.629 86.2409C103.791 86.59 103.873 87.002 103.873 87.4767C103.873 87.9553 103.791 88.3702 103.629 88.7213C103.466 89.0704 103.24 89.3411 102.952 89.5334C102.664 89.7236 102.331 89.8188 101.954 89.8188C101.664 89.8188 101.432 89.7707 101.257 89.6746C101.083 89.5765 100.948 89.4657 100.854 89.3421C100.76 89.2166 100.687 89.1126 100.636 89.0302H100.577V91.4194H99.8831ZM100.566 87.4649C100.566 87.8062 100.616 88.1073 100.716 88.3682C100.816 88.6271 100.962 88.8301 101.154 88.9773C101.346 89.1224 101.582 89.195 101.86 89.195C102.151 89.195 102.393 89.1185 102.587 88.9655C102.783 88.8105 102.93 88.6026 103.028 88.3417C103.128 88.0789 103.178 87.7866 103.178 87.4649C103.178 87.1471 103.129 86.8607 103.031 86.6057C102.935 86.3488 102.789 86.1458 102.593 85.9967C102.399 85.8456 102.155 85.7701 101.86 85.7701C101.578 85.7701 101.341 85.8417 101.148 85.9849C100.956 86.1261 100.811 86.3243 100.713 86.5793C100.615 86.8323 100.566 87.1275 100.566 87.4649ZM106.898 85.2052V85.7937H104.556V85.2052H106.898ZM105.238 84.1224H105.933V88.43C105.933 88.6261 105.961 88.7733 106.018 88.8713C106.077 88.9675 106.151 89.0322 106.241 89.0655C106.334 89.0969 106.431 89.1126 106.533 89.1126C106.609 89.1126 106.672 89.1087 106.721 89.1008C106.77 89.091 106.809 89.0832 106.839 89.0773L106.98 89.7011C106.933 89.7187 106.867 89.7364 106.783 89.754C106.699 89.7736 106.592 89.7835 106.462 89.7835C106.266 89.7835 106.074 89.7413 105.885 89.6569C105.699 89.5726 105.544 89.4441 105.421 89.2715C105.299 89.0989 105.238 88.8811 105.238 88.6183V84.1224ZM107.942 89.7246V85.2052H108.637V89.7246H107.942ZM108.295 84.452C108.16 84.452 108.043 84.4059 107.945 84.3137C107.849 84.2215 107.801 84.1106 107.801 83.9812C107.801 83.8517 107.849 83.7409 107.945 83.6487C108.043 83.5565 108.16 83.5104 108.295 83.5104C108.431 83.5104 108.546 83.5565 108.642 83.6487C108.74 83.7409 108.79 83.8517 108.79 83.9812C108.79 84.1106 108.74 84.2215 108.642 84.3137C108.546 84.4059 108.431 84.452 108.295 84.452ZM111.744 89.8188C111.336 89.8188 110.978 89.7217 110.67 89.5275C110.364 89.3333 110.125 89.0616 109.952 88.7124C109.782 88.3633 109.696 87.9553 109.696 87.4884C109.696 87.0177 109.782 86.6067 109.952 86.2556C110.125 85.9045 110.364 85.6318 110.67 85.4376C110.978 85.2434 111.336 85.1463 111.744 85.1463C112.152 85.1463 112.509 85.2434 112.815 85.4376C113.123 85.6318 113.363 85.9045 113.533 86.2556C113.706 86.6067 113.792 87.0177 113.792 87.4884C113.792 87.9553 113.706 88.3633 113.533 88.7124C113.363 89.0616 113.123 89.3333 112.815 89.5275C112.509 89.7217 112.152 89.8188 111.744 89.8188ZM111.744 89.195C112.054 89.195 112.309 89.1155 112.509 88.9567C112.709 88.7978 112.858 88.5889 112.954 88.3299C113.05 88.071 113.098 87.7905 113.098 87.4884C113.098 87.1864 113.05 86.9049 112.954 86.644C112.858 86.3831 112.709 86.1722 112.509 86.0114C112.309 85.8505 112.054 85.7701 111.744 85.7701C111.434 85.7701 111.179 85.8505 110.979 86.0114C110.779 86.1722 110.631 86.3831 110.535 86.644C110.439 86.9049 110.391 87.1864 110.391 87.4884C110.391 87.7905 110.439 88.071 110.535 88.3299C110.631 88.5889 110.779 88.7978 110.979 88.9567C111.179 89.1155 111.434 89.195 111.744 89.195ZM115.547 87.0059V89.7246H114.852V85.2052H115.523V85.9114H115.582C115.688 85.6819 115.849 85.4975 116.064 85.3582C116.28 85.217 116.559 85.1463 116.9 85.1463C117.206 85.1463 117.474 85.2091 117.703 85.3347C117.933 85.4582 118.111 85.6465 118.239 85.8996C118.366 86.1507 118.43 86.4684 118.43 86.8529V89.7246H117.736V86.9C117.736 86.5449 117.643 86.2684 117.459 86.0702C117.275 85.8702 117.022 85.7701 116.7 85.7701C116.478 85.7701 116.28 85.8182 116.106 85.9143C115.933 86.0104 115.797 86.1507 115.697 86.335C115.597 86.5194 115.547 86.743 115.547 87.0059Z" fill="#575656"/>
<path d="M200.709 85.2197L197.493 88.4353C197.113 88.8151 196.492 88.8151 196.112 88.4353L192.896 85.2197" stroke="#292D32" stroke-width="0.887743" stroke-miterlimit="10" strokeLinecap="round" strokeLinejoin="round"/>
<rect x="15.1113" y="109.215" width="197.079" height="29.2039" rx="7.10194" fill="#050505"/>
<path d="M102.251 122.151C102.21 121.811 102.047 121.546 101.76 121.358C101.473 121.169 101.121 121.075 100.704 121.075C100.399 121.075 100.132 121.125 99.9034 121.223C99.677 121.322 99.4999 121.458 99.3721 121.63C99.2465 121.803 99.1838 121.999 99.1838 122.219C99.1838 122.402 99.2275 122.56 99.3149 122.693C99.4046 122.823 99.5189 122.931 99.6579 123.019C99.7969 123.104 99.9426 123.175 100.095 123.231C100.247 123.285 100.388 123.328 100.515 123.362L101.215 123.55C101.394 123.597 101.594 123.662 101.813 123.745C102.035 123.828 102.247 123.941 102.449 124.085C102.653 124.226 102.821 124.408 102.953 124.63C103.086 124.852 103.152 125.124 103.152 125.447C103.152 125.819 103.054 126.155 102.859 126.456C102.666 126.756 102.384 126.995 102.012 127.172C101.642 127.349 101.192 127.437 100.663 127.437C100.17 127.437 99.7431 127.358 99.3822 127.199C99.0235 127.04 98.741 126.818 98.5348 126.533C98.3308 126.248 98.2153 125.918 98.1884 125.541H99.0493C99.0717 125.801 99.1591 126.016 99.3115 126.187C99.4662 126.355 99.6613 126.48 99.8966 126.563C100.134 126.644 100.39 126.684 100.663 126.684C100.982 126.684 101.267 126.633 101.521 126.53C101.774 126.424 101.975 126.278 102.123 126.092C102.271 125.904 102.345 125.684 102.345 125.433C102.345 125.205 102.281 125.019 102.153 124.875C102.025 124.732 101.857 124.615 101.649 124.525C101.44 124.436 101.215 124.357 100.973 124.29L100.125 124.048C99.5873 123.893 99.1613 123.672 98.8475 123.385C98.5336 123.099 98.3767 122.723 98.3767 122.259C98.3767 121.873 98.481 121.537 98.6895 121.25C98.9002 120.961 99.1826 120.737 99.5368 120.578C99.8933 120.416 100.291 120.336 100.731 120.336C101.174 120.336 101.569 120.415 101.914 120.574C102.259 120.731 102.533 120.946 102.735 121.22C102.939 121.493 103.046 121.804 103.058 122.151H102.251ZM107.67 125.205V122.151H108.464V127.316H107.67V126.442H107.616C107.495 126.704 107.307 126.927 107.052 127.111C106.796 127.293 106.473 127.384 106.083 127.384C105.76 127.384 105.473 127.313 105.222 127.172C104.971 127.028 104.774 126.813 104.63 126.526C104.487 126.237 104.415 125.873 104.415 125.433V122.151H105.209V125.38C105.209 125.756 105.314 126.057 105.525 126.281C105.738 126.505 106.009 126.617 106.339 126.617C106.536 126.617 106.737 126.567 106.941 126.466C107.147 126.365 107.319 126.21 107.458 126.002C107.6 125.793 107.67 125.527 107.67 125.205ZM110.025 127.316V120.43H110.819V122.972H110.886C110.944 122.882 111.025 122.768 111.128 122.629C111.233 122.488 111.383 122.362 111.579 122.252C111.776 122.14 112.043 122.084 112.379 122.084C112.814 122.084 113.197 122.193 113.529 122.41C113.861 122.628 114.12 122.936 114.306 123.335C114.492 123.734 114.585 124.205 114.585 124.747C114.585 125.294 114.492 125.768 114.306 126.17C114.12 126.569 113.862 126.878 113.532 127.098C113.203 127.315 112.823 127.424 112.392 127.424C112.061 127.424 111.795 127.369 111.595 127.259C111.396 127.147 111.242 127.02 111.135 126.879C111.027 126.736 110.944 126.617 110.886 126.523H110.792V127.316H110.025ZM110.805 124.734C110.805 125.124 110.862 125.468 110.977 125.766C111.091 126.062 111.258 126.294 111.478 126.462C111.697 126.628 111.966 126.711 112.285 126.711C112.616 126.711 112.893 126.624 113.115 126.449C113.339 126.272 113.508 126.034 113.62 125.736C113.734 125.436 113.791 125.102 113.791 124.734C113.791 124.371 113.735 124.043 113.623 123.752C113.513 123.458 113.346 123.226 113.122 123.056C112.9 122.883 112.621 122.797 112.285 122.797C111.962 122.797 111.691 122.879 111.471 123.042C111.251 123.204 111.085 123.43 110.973 123.722C110.861 124.011 110.805 124.348 110.805 124.734ZM115.799 127.316V122.151H116.565V122.958H116.633C116.74 122.683 116.914 122.469 117.154 122.316C117.394 122.161 117.682 122.084 118.018 122.084C118.359 122.084 118.642 122.161 118.869 122.316C119.097 122.469 119.276 122.683 119.403 122.958H119.457C119.59 122.692 119.788 122.48 120.052 122.323C120.317 122.164 120.634 122.084 121.004 122.084C121.466 122.084 121.844 122.229 122.137 122.518C122.431 122.805 122.578 123.252 122.578 123.86V127.316H121.784V123.86C121.784 123.478 121.68 123.206 121.471 123.042C121.263 122.879 121.018 122.797 120.735 122.797C120.372 122.797 120.091 122.907 119.891 123.127C119.692 123.344 119.592 123.62 119.592 123.954V127.316H118.785V123.779C118.785 123.485 118.689 123.249 118.499 123.069C118.308 122.888 118.063 122.797 117.762 122.797C117.556 122.797 117.363 122.852 117.184 122.962C117.007 123.072 116.864 123.224 116.754 123.419C116.646 123.612 116.592 123.835 116.592 124.088V127.316H115.799ZM124.029 127.316V122.151H124.822V127.316H124.029ZM124.432 121.291C124.278 121.291 124.144 121.238 124.032 121.132C123.922 121.027 123.867 120.9 123.867 120.752C123.867 120.605 123.922 120.478 124.032 120.373C124.144 120.267 124.278 120.214 124.432 120.214C124.587 120.214 124.719 120.267 124.829 120.373C124.941 120.478 124.997 120.605 124.997 120.752C124.997 120.9 124.941 121.027 124.829 121.132C124.719 121.238 124.587 121.291 124.432 121.291ZM128.522 122.151V122.824H125.845V122.151H128.522ZM126.626 120.914H127.419V125.837C127.419 126.061 127.452 126.229 127.517 126.341C127.584 126.451 127.669 126.525 127.772 126.563C127.878 126.599 127.989 126.617 128.105 126.617C128.193 126.617 128.264 126.612 128.32 126.604C128.376 126.592 128.421 126.583 128.455 126.577L128.616 127.29C128.562 127.31 128.487 127.33 128.391 127.35C128.295 127.372 128.172 127.384 128.024 127.384C127.8 127.384 127.581 127.335 127.365 127.239C127.152 127.143 126.975 126.996 126.834 126.799C126.695 126.601 126.626 126.352 126.626 126.052V120.914Z" fill="white"/>
<path d="M67.7459 161.622V155.596H69.782C70.2548 155.596 70.6412 155.682 70.9413 155.852C71.2434 156.021 71.467 156.249 71.6122 156.538C71.7573 156.826 71.8299 157.148 71.8299 157.503C71.8299 157.858 71.7573 158.181 71.6122 158.471C71.469 158.761 71.2473 158.993 70.9472 159.165C70.6471 159.336 70.2626 159.421 69.7938 159.421H68.3344V158.774H69.7703C70.0939 158.774 70.3538 158.718 70.55 158.606C70.7461 158.494 70.8883 158.343 70.9766 158.153C71.0668 157.961 71.112 157.744 71.112 157.503C71.112 157.262 71.0668 157.046 70.9766 156.855C70.8883 156.665 70.7452 156.516 70.547 156.408C70.3489 156.298 70.0861 156.243 69.7585 156.243H68.4756V161.622H67.7459ZM74.6987 161.716C74.2907 161.716 73.9327 161.619 73.6247 161.425C73.3187 161.231 73.0794 160.959 72.9068 160.61C72.7361 160.261 72.6508 159.853 72.6508 159.386C72.6508 158.915 72.7361 158.504 72.9068 158.153C73.0794 157.802 73.3187 157.529 73.6247 157.335C73.9327 157.141 74.2907 157.044 74.6987 157.044C75.1067 157.044 75.4637 157.141 75.7697 157.335C76.0776 157.529 76.3169 157.802 76.4876 158.153C76.6602 158.504 76.7465 158.915 76.7465 159.386C76.7465 159.853 76.6602 160.261 76.4876 160.61C76.3169 160.959 76.0776 161.231 75.7697 161.425C75.4637 161.619 75.1067 161.716 74.6987 161.716ZM74.6987 161.092C75.0086 161.092 75.2636 161.013 75.4637 160.854C75.6637 160.695 75.8118 160.486 75.908 160.227C76.0041 159.968 76.0521 159.688 76.0521 159.386C76.0521 159.084 76.0041 158.802 75.908 158.541C75.8118 158.281 75.6637 158.07 75.4637 157.909C75.2636 157.748 75.0086 157.668 74.6987 157.668C74.3887 157.668 74.1337 157.748 73.9337 157.909C73.7336 158.07 73.5855 158.281 73.4894 158.541C73.3932 158.802 73.3452 159.084 73.3452 159.386C73.3452 159.688 73.3932 159.968 73.4894 160.227C73.5855 160.486 73.7336 160.695 73.9337 160.854C74.1337 161.013 74.3887 161.092 74.6987 161.092ZM78.6767 161.622L77.2997 157.103H78.0294L79.0062 160.563H79.0533L80.0184 157.103H80.7599L81.7132 160.551H81.7602L82.7371 157.103H83.4668L82.0898 161.622H81.4072L80.4185 158.15H80.3479L79.3593 161.622H78.6767ZM86.1259 161.716C85.6905 161.716 85.3148 161.62 84.999 161.428C84.6852 161.234 84.4429 160.963 84.2723 160.616C84.1036 160.267 84.0192 159.861 84.0192 159.398C84.0192 158.935 84.1036 158.527 84.2723 158.174C84.4429 157.819 84.6803 157.542 84.9843 157.344C85.2903 157.144 85.6473 157.044 86.0553 157.044C86.2907 157.044 86.5231 157.083 86.7526 157.162C86.9821 157.24 87.191 157.367 87.3794 157.544C87.5677 157.719 87.7177 157.95 87.8295 158.238C87.9413 158.527 87.9972 158.882 87.9972 159.304V159.598H84.5135V158.998H87.2911C87.2911 158.743 87.2401 158.515 87.1381 158.315C87.038 158.115 86.8949 157.957 86.7085 157.841C86.5241 157.725 86.3064 157.668 86.0553 157.668C85.7787 157.668 85.5394 157.736 85.3374 157.874C85.1373 158.009 84.9833 158.185 84.8754 158.403C84.7676 158.621 84.7136 158.854 84.7136 159.103V159.504C84.7136 159.845 84.7725 160.134 84.8901 160.372C85.0098 160.607 85.1756 160.786 85.3874 160.91C85.5992 161.032 85.8454 161.092 86.1259 161.092C86.3084 161.092 86.4731 161.067 86.6202 161.016C86.7693 160.963 86.8978 160.885 87.0057 160.781C87.1136 160.675 87.1969 160.543 87.2558 160.386L87.9266 160.575C87.856 160.802 87.7373 161.002 87.5706 161.175C87.4039 161.345 87.1979 161.479 86.9527 161.575C86.7075 161.669 86.4319 161.716 86.1259 161.716ZM89.0535 161.622V157.103H89.7244V157.785H89.7715C89.8539 157.562 90.0029 157.38 90.2187 157.241C90.4345 157.102 90.6777 157.032 90.9484 157.032C90.9994 157.032 91.0632 157.033 91.1397 157.035C91.2162 157.037 91.274 157.04 91.3133 157.044V157.75C91.2897 157.744 91.2358 157.735 91.1514 157.723C91.069 157.71 90.9818 157.703 90.8896 157.703C90.6699 157.703 90.4737 157.749 90.3011 157.841C90.1304 157.931 89.9951 158.057 89.8951 158.218C89.797 158.377 89.7479 158.558 89.7479 158.762V161.622H89.0535ZM93.8937 161.716C93.4582 161.716 93.0826 161.62 92.7668 161.428C92.4529 161.234 92.2107 160.963 92.04 160.616C91.8713 160.267 91.787 159.861 91.787 159.398C91.787 158.935 91.8713 158.527 92.04 158.174C92.2107 157.819 92.448 157.542 92.7521 157.344C93.0581 157.144 93.4151 157.044 93.8231 157.044C94.0584 157.044 94.2909 157.083 94.5204 157.162C94.7499 157.24 94.9588 157.367 95.1471 157.544C95.3354 157.719 95.4855 157.95 95.5973 158.238C95.7091 158.527 95.765 158.882 95.765 159.304V159.598H92.2813V158.998H95.0588C95.0588 158.743 95.0078 158.515 94.9058 158.315C94.8058 158.115 94.6626 157.957 94.4763 157.841C94.2919 157.725 94.0741 157.668 93.8231 157.668C93.5465 157.668 93.3072 157.736 93.1051 157.874C92.9051 158.009 92.7511 158.185 92.6432 158.403C92.5353 158.621 92.4814 158.854 92.4814 159.103V159.504C92.4814 159.845 92.5402 160.134 92.6579 160.372C92.7776 160.607 92.9433 160.786 93.1551 160.91C93.367 161.032 93.6132 161.092 93.8937 161.092C94.0761 161.092 94.2409 161.067 94.388 161.016C94.5371 160.963 94.6655 160.885 94.7734 160.781C94.8813 160.675 94.9647 160.543 95.0235 160.386L95.6944 160.575C95.6238 160.802 95.5051 161.002 95.3384 161.175C95.1716 161.345 94.9657 161.479 94.7205 161.575C94.4753 161.669 94.1997 161.716 93.8937 161.716ZM98.5278 161.716C98.1512 161.716 97.8187 161.621 97.5304 161.431C97.242 161.239 97.0165 160.968 96.8537 160.619C96.6908 160.268 96.6094 159.853 96.6094 159.374C96.6094 158.899 96.6908 158.488 96.8537 158.138C97.0165 157.789 97.243 157.519 97.5333 157.329C97.8236 157.139 98.1591 157.044 98.5396 157.044C98.8338 157.044 99.0663 157.093 99.2369 157.191C99.4096 157.287 99.541 157.397 99.6312 157.52C99.7234 157.642 99.795 157.742 99.846 157.821H99.9048V155.596H100.599V161.622H99.9284V160.928H99.846C99.795 161.01 99.7224 161.114 99.6283 161.24C99.5341 161.363 99.3997 161.474 99.2252 161.572C99.0506 161.668 98.8181 161.716 98.5278 161.716ZM98.622 161.092C98.9005 161.092 99.1359 161.02 99.3282 160.875C99.5204 160.728 99.6665 160.525 99.7666 160.266C99.8666 160.005 99.9166 159.704 99.9166 159.362C99.9166 159.025 99.8676 158.73 99.7695 158.477C99.6714 158.222 99.5263 158.024 99.334 157.882C99.1418 157.739 98.9045 157.668 98.622 157.668C98.3278 157.668 98.0826 157.743 97.8864 157.894C97.6922 158.043 97.5461 158.246 97.448 158.503C97.3519 158.758 97.3038 159.045 97.3038 159.362C97.3038 159.684 97.3529 159.976 97.4509 160.239C97.551 160.5 97.6981 160.708 97.8923 160.863C98.0885 161.016 98.3317 161.092 98.622 161.092ZM104.392 161.622V155.596H105.086V157.821H105.145C105.196 157.742 105.267 157.642 105.357 157.52C105.449 157.397 105.581 157.287 105.751 157.191C105.924 157.093 106.157 157.044 106.452 157.044C106.832 157.044 107.167 157.139 107.458 157.329C107.748 157.519 107.975 157.789 108.137 158.138C108.3 158.488 108.382 158.899 108.382 159.374C108.382 159.853 108.3 160.268 108.137 160.619C107.975 160.968 107.749 161.239 107.461 161.431C107.172 161.621 106.84 161.716 106.463 161.716C106.173 161.716 105.941 161.668 105.766 161.572C105.591 161.474 105.457 161.363 105.363 161.24C105.269 161.114 105.196 161.01 105.145 160.928H105.063V161.622H104.392ZM105.075 159.362C105.075 159.704 105.125 160.005 105.225 160.266C105.325 160.525 105.471 160.728 105.663 160.875C105.855 161.02 106.091 161.092 106.369 161.092C106.659 161.092 106.902 161.016 107.096 160.863C107.292 160.708 107.439 160.5 107.537 160.239C107.637 159.976 107.687 159.684 107.687 159.362C107.687 159.045 107.638 158.758 107.54 158.503C107.444 158.246 107.298 158.043 107.102 157.894C106.908 157.743 106.663 157.668 106.369 157.668C106.087 157.668 105.849 157.739 105.657 157.882C105.465 158.024 105.32 158.222 105.222 158.477C105.124 158.73 105.075 159.025 105.075 159.362ZM109.729 163.317C109.612 163.317 109.507 163.307 109.414 163.287C109.322 163.27 109.259 163.252 109.223 163.234L109.4 162.622C109.568 162.666 109.718 162.681 109.847 162.67C109.976 162.658 110.091 162.6 110.191 162.496C110.293 162.394 110.386 162.228 110.471 161.999L110.6 161.646L108.929 157.103H109.682L110.93 160.704H110.977L112.224 157.103H112.978L111.059 162.281C110.973 162.515 110.866 162.708 110.739 162.861C110.611 163.016 110.463 163.131 110.294 163.205C110.127 163.28 109.939 163.317 109.729 163.317Z" fill="#575656"/>
<path d="M116.18 161.622V157.103H117.06V161.622H116.18ZM116.625 156.405C116.472 156.405 116.34 156.354 116.23 156.252C116.122 156.148 116.069 156.025 116.069 155.882C116.069 155.736 116.122 155.613 116.23 155.511C116.34 155.407 116.472 155.355 116.625 155.355C116.778 155.355 116.908 155.407 117.016 155.511C117.126 155.613 117.181 155.736 117.181 155.882C117.181 156.025 117.126 156.148 117.016 156.252C116.908 156.354 116.778 156.405 116.625 156.405ZM119.123 158.939V161.622H118.244V157.103H119.088V157.838H119.144C119.248 157.599 119.411 157.407 119.632 157.262C119.856 157.116 120.138 157.044 120.477 157.044C120.785 157.044 121.055 157.109 121.286 157.238C121.517 157.366 121.697 157.556 121.824 157.809C121.952 158.062 122.016 158.375 122.016 158.747V161.622H121.136V158.853C121.136 158.526 121.051 158.27 120.88 158.085C120.709 157.899 120.475 157.806 120.177 157.806C119.973 157.806 119.791 157.85 119.632 157.938C119.476 158.027 119.351 158.156 119.259 158.327C119.169 158.495 119.123 158.699 119.123 158.939ZM125.305 157.103V157.809H122.837V157.103H125.305ZM123.499 156.02H124.378V160.295C124.378 160.466 124.404 160.594 124.455 160.681C124.506 160.765 124.572 160.823 124.652 160.854C124.734 160.884 124.824 160.898 124.92 160.898C124.99 160.898 125.052 160.893 125.105 160.884C125.158 160.874 125.199 160.866 125.229 160.86L125.388 161.587C125.337 161.606 125.264 161.626 125.17 161.646C125.076 161.667 124.958 161.679 124.817 161.681C124.585 161.685 124.37 161.644 124.169 161.557C123.969 161.471 123.808 161.338 123.684 161.157C123.56 160.977 123.499 160.75 123.499 160.478V156.02ZM128.178 161.713C127.732 161.713 127.349 161.618 127.027 161.428C126.708 161.236 126.46 160.966 126.286 160.619C126.113 160.27 126.027 159.861 126.027 159.392C126.027 158.929 126.113 158.521 126.286 158.168C126.46 157.815 126.704 157.539 127.015 157.341C127.329 157.143 127.696 157.044 128.116 157.044C128.371 157.044 128.618 157.086 128.857 157.17C129.097 157.255 129.311 157.387 129.502 157.568C129.692 157.748 129.842 157.982 129.952 158.271C130.062 158.557 130.117 158.905 130.117 159.315V159.627H126.524V158.968H129.255C129.255 158.737 129.207 158.532 129.113 158.353C129.019 158.173 128.887 158.03 128.716 157.927C128.547 157.823 128.349 157.771 128.122 157.771C127.875 157.771 127.659 157.831 127.474 157.953C127.292 158.073 127.151 158.23 127.051 158.424C126.953 158.616 126.904 158.825 126.904 159.05V159.565C126.904 159.867 126.957 160.124 127.063 160.336C127.17 160.548 127.32 160.71 127.513 160.822C127.705 160.932 127.93 160.987 128.187 160.987C128.353 160.987 128.505 160.963 128.643 160.916C128.78 160.867 128.899 160.794 128.999 160.698C129.099 160.602 129.175 160.483 129.228 160.342L130.061 160.492C129.994 160.737 129.874 160.952 129.702 161.137C129.531 161.319 129.316 161.461 129.057 161.563C128.8 161.663 128.507 161.713 128.178 161.713ZM132.988 163.411C132.629 163.411 132.32 163.364 132.061 163.27C131.804 163.176 131.594 163.051 131.431 162.896C131.268 162.741 131.147 162.571 131.066 162.387L131.822 162.075C131.875 162.161 131.946 162.253 132.034 162.349C132.125 162.447 132.246 162.53 132.399 162.599C132.554 162.668 132.753 162.702 132.996 162.702C133.33 162.702 133.606 162.621 133.823 162.458C134.041 162.297 134.15 162.04 134.15 161.687V160.798H134.094C134.041 160.894 133.965 161.001 133.864 161.119C133.766 161.237 133.631 161.339 133.458 161.425C133.286 161.511 133.061 161.554 132.785 161.554C132.428 161.554 132.106 161.471 131.82 161.304C131.535 161.136 131.31 160.887 131.143 160.56C130.978 160.23 130.896 159.825 130.896 159.345C130.896 158.864 130.977 158.452 131.14 158.109C131.305 157.766 131.53 157.503 131.817 157.32C132.103 157.136 132.428 157.044 132.791 157.044C133.071 157.044 133.298 157.091 133.47 157.185C133.643 157.277 133.777 157.385 133.873 157.509C133.971 157.632 134.047 157.741 134.1 157.835H134.165V157.103H135.027V161.722C135.027 162.11 134.936 162.429 134.756 162.678C134.576 162.927 134.331 163.112 134.023 163.232C133.717 163.351 133.372 163.411 132.988 163.411ZM132.979 160.825C133.232 160.825 133.446 160.766 133.62 160.648C133.797 160.529 133.93 160.358 134.02 160.136C134.113 159.913 134.159 159.645 134.159 159.333C134.159 159.029 134.114 158.761 134.023 158.53C133.933 158.298 133.801 158.118 133.626 157.988C133.452 157.857 133.236 157.791 132.979 157.791C132.714 157.791 132.493 157.86 132.317 157.997C132.14 158.132 132.007 158.317 131.917 158.55C131.828 158.784 131.784 159.045 131.784 159.333C131.784 159.629 131.829 159.889 131.92 160.113C132.01 160.336 132.143 160.511 132.32 160.636C132.498 160.762 132.718 160.825 132.979 160.825ZM136.207 161.622V157.103H137.057V157.821H137.104C137.186 157.577 137.332 157.386 137.539 157.247C137.749 157.106 137.987 157.035 138.251 157.035C138.306 157.035 138.371 157.037 138.446 157.041C138.522 157.045 138.582 157.05 138.625 157.056V157.897C138.59 157.887 138.527 157.876 138.437 157.865C138.347 157.851 138.256 157.844 138.166 157.844C137.958 157.844 137.773 157.888 137.61 157.977C137.449 158.063 137.322 158.183 137.228 158.338C137.133 158.491 137.086 158.666 137.086 158.862V161.622H136.207ZM140.661 161.722C140.375 161.722 140.116 161.669 139.884 161.563C139.653 161.455 139.47 161.299 139.334 161.095C139.201 160.891 139.134 160.641 139.134 160.345C139.134 160.09 139.183 159.88 139.281 159.715C139.379 159.551 139.512 159.42 139.679 159.324C139.845 159.228 140.032 159.155 140.238 159.106C140.444 159.057 140.653 159.02 140.867 158.995C141.138 158.963 141.358 158.938 141.526 158.918C141.695 158.896 141.818 158.862 141.894 158.815C141.971 158.768 142.009 158.692 142.009 158.586V158.565C142.009 158.308 141.936 158.109 141.791 157.968C141.648 157.826 141.434 157.756 141.15 157.756C140.853 157.756 140.62 157.822 140.449 157.953C140.281 158.082 140.164 158.227 140.099 158.386L139.272 158.197C139.371 157.923 139.514 157.701 139.702 157.532C139.892 157.362 140.111 157.238 140.358 157.162C140.605 157.083 140.865 157.044 141.138 157.044C141.318 157.044 141.51 157.065 141.712 157.109C141.916 157.15 142.106 157.226 142.282 157.338C142.461 157.45 142.607 157.61 142.721 157.818C142.835 158.024 142.892 158.291 142.892 158.621V161.622H142.032V161.004H141.997C141.94 161.118 141.855 161.23 141.741 161.34C141.627 161.449 141.481 161.541 141.303 161.613C141.124 161.686 140.91 161.722 140.661 161.722ZM140.853 161.016C141.096 161.016 141.304 160.968 141.476 160.872C141.651 160.776 141.783 160.65 141.873 160.495C141.966 160.338 142.012 160.171 142.012 159.992V159.409C141.98 159.441 141.92 159.47 141.829 159.498C141.741 159.523 141.64 159.546 141.526 159.565C141.413 159.583 141.302 159.6 141.194 159.615C141.086 159.629 140.996 159.641 140.923 159.651C140.752 159.672 140.597 159.709 140.455 159.76C140.316 159.811 140.204 159.884 140.12 159.98C140.037 160.074 139.996 160.2 139.996 160.357C139.996 160.575 140.077 160.739 140.238 160.851C140.398 160.961 140.603 161.016 140.853 161.016ZM146.214 157.103V157.809H143.66V157.103H146.214ZM144.36 161.622V156.579C144.36 156.296 144.422 156.062 144.546 155.876C144.669 155.687 144.833 155.547 145.037 155.455C145.241 155.361 145.463 155.314 145.702 155.314C145.879 155.314 146.03 155.328 146.155 155.358C146.281 155.385 146.374 155.411 146.435 155.434L146.229 156.146C146.188 156.135 146.135 156.121 146.07 156.105C146.005 156.088 145.927 156.079 145.835 156.079C145.621 156.079 145.468 156.132 145.376 156.238C145.285 156.344 145.24 156.497 145.24 156.697V161.622H144.36ZM148.002 155.596V161.622H147.122V155.596H148.002ZM151.089 161.713C150.665 161.713 150.295 161.616 149.98 161.422C149.664 161.228 149.419 160.956 149.244 160.607C149.069 160.258 148.982 159.85 148.982 159.383C148.982 158.914 149.069 158.504 149.244 158.153C149.419 157.802 149.664 157.529 149.98 157.335C150.295 157.141 150.665 157.044 151.089 157.044C151.513 157.044 151.882 157.141 152.198 157.335C152.514 157.529 152.759 157.802 152.934 158.153C153.108 158.504 153.196 158.914 153.196 159.383C153.196 159.85 153.108 160.258 152.934 160.607C152.759 160.956 152.514 161.228 152.198 161.422C151.882 161.616 151.513 161.713 151.089 161.713ZM151.092 160.975C151.366 160.975 151.594 160.902 151.774 160.757C151.955 160.612 152.088 160.419 152.175 160.177C152.263 159.936 152.307 159.67 152.307 159.38C152.307 159.092 152.263 158.827 152.175 158.586C152.088 158.342 151.955 158.147 151.774 158C151.594 157.853 151.366 157.779 151.092 157.779C150.815 157.779 150.586 157.853 150.403 158C150.223 158.147 150.088 158.342 150 158.586C149.914 158.827 149.871 159.092 149.871 159.38C149.871 159.67 149.914 159.936 150 160.177C150.088 160.419 150.223 160.612 150.403 160.757C150.586 160.902 150.815 160.975 151.092 160.975ZM155.02 161.622L153.69 157.103H154.599L155.485 160.422H155.529L156.417 157.103H157.327L158.209 160.407H158.253L159.133 157.103H160.042L158.715 161.622H157.818L156.9 158.359H156.832L155.914 161.622H155.02Z" fill="#050505"/>
</g>
</svg>
