<svg width="182" height="176" viewBox="0 0 182 176" fill="none" xmlns="http://www.w3.org/2000/svg">
<g opacity="0.7">
<rect x="0.908203" y="0.90918" width="181" height="220.57" rx="7.60105" fill="white"/>
<path d="M164.806 15.1611L159.105 20.8619" stroke="black" stroke-width="0.950131" strokeLInecap="round" strokeLinejoin="round"/>
<path d="M159.105 15.1611L164.806 20.8619" stroke="black" stroke-width="0.950131" strokeLInecap="round" strokeLinejoin="round"/>
<path d="M14.4227 34.6621L12.5062 27.7521H13.6028L14.9491 33.1033H15.0132L16.4134 27.7521H17.4998L18.9001 33.1067H18.9642L20.307 27.7521H21.407L19.4871 34.6621H18.4378L16.9836 29.4863H16.9296L15.4754 34.6621H14.4227ZM23.2855 31.585V34.6621H22.2766V27.7521H23.272V30.3231H23.3361C23.4575 30.0442 23.6431 29.8226 23.8928 29.6584C24.1425 29.4942 24.4686 29.4121 24.8713 29.4121C25.2267 29.4121 25.5371 29.4852 25.8025 29.6314C26.0702 29.7776 26.2771 29.9958 26.4233 30.286C26.5718 30.5739 26.646 30.9338 26.646 31.3657V34.6621H25.6372V31.4871C25.6372 31.107 25.5393 30.8123 25.3436 30.6031C25.1479 30.3917 24.8758 30.286 24.5271 30.286C24.2887 30.286 24.075 30.3366 23.8861 30.4378C23.6994 30.539 23.552 30.6875 23.4441 30.8832C23.3383 31.0766 23.2855 31.3106 23.2855 31.585ZM29.5005 34.7768C29.1721 34.7768 28.8751 34.7161 28.6097 34.5946C28.3443 34.4709 28.134 34.2921 27.9788 34.0582C27.8258 33.8242 27.7493 33.5374 27.7493 33.1978C27.7493 32.9054 27.8056 32.6647 27.918 32.4757C28.0305 32.2868 28.1823 32.1372 28.3735 32.027C28.5647 31.9168 28.7784 31.8335 29.0146 31.7773C29.2508 31.7211 29.4915 31.6783 29.7366 31.6491C30.0471 31.6131 30.299 31.5839 30.4924 31.5614C30.6859 31.5366 30.8265 31.4973 30.9142 31.4433C31.0019 31.3893 31.0458 31.3016 31.0458 31.1801V31.1565C31.0458 30.8618 30.9626 30.6335 30.7961 30.4715C30.6319 30.3096 30.3867 30.2286 30.0606 30.2286C29.7209 30.2286 29.4532 30.304 29.2575 30.4547C29.0641 30.6031 28.9303 30.7685 28.856 30.9507L27.9079 30.7347C28.0204 30.4198 28.1846 30.1656 28.4005 29.9722C28.6187 29.7765 28.8695 29.6348 29.1529 29.5471C29.4364 29.4571 29.7344 29.4121 30.0471 29.4121C30.254 29.4121 30.4733 29.4368 30.705 29.4863C30.9389 29.5336 31.1571 29.6213 31.3596 29.7495C31.5643 29.8777 31.7318 30.061 31.8623 30.2995C31.9928 30.5357 32.058 30.8427 32.058 31.2206V34.6621H31.0728V33.9536H31.0323C30.9671 34.084 30.8692 34.2122 30.7387 34.3382C30.6083 34.4642 30.4407 34.5688 30.236 34.652C30.0313 34.7352 29.7861 34.7768 29.5005 34.7768ZM29.7198 33.9671C29.9987 33.9671 30.2371 33.9119 30.4351 33.8017C30.6353 33.6915 30.7871 33.5475 30.8906 33.3698C30.9963 33.1899 31.0492 32.9976 31.0492 32.7929V32.1248C31.0132 32.1608 30.9434 32.1946 30.84 32.226C30.7387 32.2553 30.6229 32.2812 30.4924 32.3037C30.362 32.3239 30.2349 32.343 30.1112 32.361C29.9875 32.3768 29.884 32.3903 29.8008 32.4015C29.6051 32.4262 29.4262 32.4679 29.2643 32.5263C29.1046 32.5848 28.9764 32.6692 28.8796 32.7794C28.7852 32.8874 28.7379 33.0313 28.7379 33.2113C28.7379 33.4609 28.8302 33.6499 29.0146 33.7781C29.1991 33.9041 29.4341 33.9671 29.7198 33.9671ZM35.8209 29.4796V30.2893H32.9901V29.4796H35.8209ZM33.7492 28.2379H34.7581V33.1404C34.7581 33.3361 34.7873 33.4834 34.8458 33.5824C34.9043 33.6791 34.9796 33.7455 35.0719 33.7815C35.1663 33.8152 35.2687 33.8321 35.3789 33.8321C35.4599 33.8321 35.5307 33.8265 35.5915 33.8152C35.6522 33.804 35.6994 33.795 35.7332 33.7882L35.9154 34.6216C35.8569 34.6441 35.7737 34.6666 35.6657 34.6891C35.5577 34.7138 35.4228 34.7273 35.2608 34.7296C34.9954 34.7341 34.7479 34.6869 34.5185 34.5879C34.2891 34.4889 34.1035 34.336 33.9618 34.129C33.8201 33.9221 33.7492 33.6623 33.7492 33.3496V28.2379ZM41.3914 34.7633C40.9731 34.7633 40.5997 34.6565 40.2713 34.4428C39.9451 34.2269 39.6887 33.9198 39.502 33.5217C39.3175 33.1213 39.2253 32.6411 39.2253 32.081C39.2253 31.5209 39.3187 31.0418 39.5054 30.6436C39.6943 30.2455 39.953 29.9407 40.2814 29.7293C40.6098 29.5178 40.9821 29.4121 41.3982 29.4121C41.7199 29.4121 41.9785 29.4661 42.1742 29.574C42.3722 29.6798 42.5251 29.8035 42.6331 29.9452C42.7433 30.0869 42.8288 30.2117 42.8895 30.3197H42.9503V27.7521H43.9591V34.6621H42.9739V33.8557H42.8895C42.8288 33.9659 42.7411 34.0919 42.6263 34.2336C42.5139 34.3753 42.3587 34.499 42.1607 34.6048C41.9628 34.7105 41.7064 34.7633 41.3914 34.7633ZM41.6141 33.9029C41.9043 33.9029 42.1495 33.8265 42.3497 33.6735C42.5521 33.5183 42.7051 33.3035 42.8085 33.0291C42.9143 32.7546 42.9671 32.4352 42.9671 32.0708C42.9671 31.7109 42.9154 31.396 42.8119 31.1261C42.7084 30.8562 42.5566 30.6459 42.3564 30.4952C42.1562 30.3445 41.9088 30.2691 41.6141 30.2691C41.3105 30.2691 41.0574 30.3478 40.855 30.5053C40.6525 30.6627 40.4996 30.8776 40.3961 31.1497C40.2949 31.4219 40.2443 31.7289 40.2443 32.0708C40.2443 32.4172 40.296 32.7288 40.3995 33.0055C40.5029 33.2821 40.6559 33.5014 40.8583 33.6634C41.063 33.8231 41.315 33.9029 41.6141 33.9029ZM47.582 34.7667C47.0961 34.7667 46.6721 34.6554 46.31 34.4327C45.9478 34.21 45.6666 33.8985 45.4665 33.4981C45.2663 33.0977 45.1662 32.6298 45.1662 32.0945C45.1662 31.5569 45.2663 31.0867 45.4665 30.6841C45.6666 30.2815 45.9478 29.9688 46.31 29.7461C46.6721 29.5234 47.0961 29.4121 47.582 29.4121C48.0678 29.4121 48.4918 29.5234 48.854 29.7461C49.2161 29.9688 49.4973 30.2815 49.6975 30.6841C49.8977 31.0867 49.9978 31.5569 49.9978 32.0945C49.9978 32.6298 49.8977 33.0977 49.6975 33.4981C49.4973 33.8985 49.2161 34.21 48.854 34.4327C48.4918 34.6554 48.0678 34.7667 47.582 34.7667ZM47.5854 33.9198C47.9003 33.9198 48.1612 33.8366 48.3681 33.6701C48.5751 33.5037 48.728 33.2821 48.827 33.0055C48.9282 32.7288 48.9788 32.424 48.9788 32.0911C48.9788 31.7604 48.9282 31.4568 48.827 31.1801C48.728 30.9012 48.5751 30.6774 48.3681 30.5087C48.1612 30.34 47.9003 30.2556 47.5854 30.2556C47.2682 30.2556 47.005 30.34 46.7958 30.5087C46.5889 30.6774 46.4348 30.9012 46.3336 31.1801C46.2346 31.4568 46.1851 31.7604 46.1851 32.0911C46.1851 32.424 46.2346 32.7288 46.3336 33.0055C46.4348 33.2821 46.5889 33.5037 46.7958 33.6701C47.005 33.8366 47.2682 33.9198 47.5854 33.9198ZM54.2761 36.6056C54.1254 36.6056 53.9882 36.5932 53.8644 36.5684C53.7407 36.546 53.6485 36.5212 53.5878 36.4942L53.8307 35.6676C54.0152 35.7171 54.1794 35.7384 54.3233 35.7317C54.4673 35.7249 54.5944 35.6709 54.7046 35.5697C54.8171 35.4685 54.916 35.3032 55.0015 35.0737L55.1263 34.7296L53.2301 29.4796H54.3098L55.6223 33.5014H55.6763L56.9888 29.4796H58.0719L55.9361 35.3538C55.8371 35.6237 55.7112 35.852 55.5582 36.0387C55.4053 36.2277 55.2231 36.3694 55.0116 36.4638C54.8002 36.5583 54.555 36.6056 54.2761 36.6056ZM61.0267 34.7667C60.5408 34.7667 60.1168 34.6554 59.7547 34.4327C59.3925 34.21 59.1114 33.8985 58.9112 33.4981C58.711 33.0977 58.6109 32.6298 58.6109 32.0945C58.6109 31.5569 58.711 31.0867 58.9112 30.6841C59.1114 30.2815 59.3925 29.9688 59.7547 29.7461C60.1168 29.5234 60.5408 29.4121 61.0267 29.4121C61.5126 29.4121 61.9366 29.5234 62.2987 29.7461C62.6609 29.9688 62.942 30.2815 63.1422 30.6841C63.3424 31.0867 63.4425 31.5569 63.4425 32.0945C63.4425 32.6298 63.3424 33.0977 63.1422 33.4981C62.942 33.8985 62.6609 34.21 62.2987 34.4327C61.9366 34.6554 61.5126 34.7667 61.0267 34.7667ZM61.0301 33.9198C61.345 33.9198 61.6059 33.8366 61.8129 33.6701C62.0198 33.5037 62.1728 33.2821 62.2717 33.0055C62.3729 32.7288 62.4236 32.424 62.4236 32.0911C62.4236 31.7604 62.3729 31.4568 62.2717 31.1801C62.1728 30.9012 62.0198 30.6774 61.8129 30.5087C61.6059 30.34 61.345 30.2556 61.0301 30.2556C60.7129 30.2556 60.4497 30.34 60.2406 30.5087C60.0336 30.6774 59.8795 30.9012 59.7783 31.1801C59.6793 31.4568 59.6298 31.7604 59.6298 32.0911C59.6298 32.424 59.6793 32.7288 59.7783 33.0055C59.8795 33.2821 60.0336 33.5037 60.2406 33.6701C60.4497 33.8366 60.7129 33.9198 61.0301 33.9198ZM67.8516 32.5128V29.4796H68.8638V34.6621H67.8718V33.7646H67.8178C67.6986 34.0413 67.5074 34.2718 67.2442 34.4563C66.9833 34.6385 66.6583 34.7296 66.2691 34.7296C65.9362 34.7296 65.6416 34.6565 65.3851 34.5103C65.131 34.3618 64.9308 34.1425 64.7845 33.8523C64.6406 33.5622 64.5686 33.2034 64.5686 32.776V29.4796H65.5774V32.6546C65.5774 33.0077 65.6753 33.2889 65.871 33.4981C66.0667 33.7073 66.3209 33.8118 66.6335 33.8118C66.8225 33.8118 67.0103 33.7646 67.197 33.6701C67.3859 33.5757 67.5423 33.4328 67.666 33.2416C67.7919 33.0504 67.8538 32.8075 67.8516 32.5128ZM73.7426 27.7521V34.6621H72.7338V27.7521H73.7426ZM75.0998 34.6621V29.4796H76.1087V34.6621H75.0998ZM75.6093 28.6799C75.4339 28.6799 75.2832 28.6214 75.1572 28.5045C75.0335 28.3853 74.9716 28.2435 74.9716 28.0793C74.9716 27.9129 75.0335 27.7712 75.1572 27.6542C75.2832 27.535 75.4339 27.4754 75.6093 27.4754C75.7848 27.4754 75.9344 27.535 76.0581 27.6542C76.184 27.7712 76.247 27.9129 76.247 28.0793C76.247 28.2435 76.184 28.3853 76.0581 28.5045C75.9344 28.6214 75.7848 28.6799 75.6093 28.6799ZM78.3938 32.9042L78.387 31.6727H78.5625L80.6274 29.4796H81.8353L79.4802 31.9764H79.3216L78.3938 32.9042ZM77.4659 34.6621V27.7521H78.4747V34.6621H77.4659ZM80.7387 34.6621L78.883 32.1991L79.578 31.4939L81.977 34.6621H80.7387ZM84.7749 34.7667C84.2643 34.7667 83.8246 34.6576 83.4557 34.4394C83.089 34.219 82.8056 33.9097 82.6054 33.5116C82.4075 33.1112 82.3085 32.6422 82.3085 32.1046C82.3085 31.5737 82.4075 31.1059 82.6054 30.701C82.8056 30.2961 83.0845 29.9801 83.4422 29.7529C83.8021 29.5257 84.2227 29.4121 84.7041 29.4121C84.9965 29.4121 85.2799 29.4605 85.5543 29.5572C85.8287 29.6539 86.0751 29.8057 86.2932 30.0127C86.5114 30.2196 86.6835 30.4884 86.8095 30.8191C86.9354 31.1475 86.9984 31.5467 86.9984 32.0169V32.3745H82.8787V31.6187H86.0098C86.0098 31.3533 85.9558 31.1182 85.8479 30.9135C85.7399 30.7066 85.5881 30.5435 85.3924 30.4243C85.1989 30.3051 84.9717 30.2455 84.7108 30.2455C84.4274 30.2455 84.18 30.3152 83.9685 30.4547C83.7593 30.5919 83.5974 30.7718 83.4827 30.9945C83.3702 31.215 83.314 31.4545 83.314 31.7132V32.3037C83.314 32.6501 83.3747 32.9447 83.4962 33.1877C83.6199 33.4306 83.792 33.6162 84.0124 33.7444C84.2328 33.8703 84.4904 33.9333 84.785 33.9333C84.9762 33.9333 85.1506 33.9063 85.308 33.8523C85.4655 33.7961 85.6016 33.7129 85.7163 33.6027C85.831 33.4924 85.9187 33.3564 85.9795 33.1944L86.9343 33.3665C86.8578 33.6476 86.7206 33.894 86.5227 34.1054C86.327 34.3146 86.0807 34.4777 85.7838 34.5946C85.4891 34.7093 85.1528 34.7667 84.7749 34.7667ZM90.6323 34.6621V29.4796H91.6006V30.3231H91.6647C91.7727 30.0374 91.9493 29.8147 92.1945 29.655C92.4396 29.4931 92.7332 29.4121 93.0751 29.4121C93.4215 29.4121 93.7116 29.4931 93.9456 29.655C94.1818 29.817 94.3561 30.0397 94.4686 30.3231H94.5225C94.6463 30.0464 94.8431 29.826 95.113 29.6618C95.3829 29.4953 95.7046 29.4121 96.078 29.4121C96.5481 29.4121 96.9316 29.5594 97.2285 29.8541C97.5277 30.1488 97.6773 30.593 97.6773 31.1868V34.6621H96.6684V31.2813C96.6684 30.9304 96.5728 30.6762 96.3816 30.5188C96.1904 30.3613 95.9621 30.2826 95.6967 30.2826C95.3683 30.2826 95.113 30.3838 94.9308 30.5863C94.7486 30.7865 94.6575 31.044 94.6575 31.3589V34.6621H93.652V31.2172C93.652 30.936 93.5643 30.71 93.3889 30.539C93.2134 30.3681 92.9851 30.2826 92.7039 30.2826C92.5127 30.2826 92.3362 30.3332 92.1742 30.4344C92.0145 30.5334 91.8852 30.6717 91.7862 30.8494C91.6895 31.0271 91.6411 31.233 91.6411 31.4669V34.6621H90.6323ZM101.212 34.7667C100.727 34.7667 100.303 34.6554 99.9404 34.4327C99.5783 34.21 99.2971 33.8985 99.0969 33.4981C98.8967 33.0977 98.7966 32.6298 98.7966 32.0945C98.7966 31.5569 98.8967 31.0867 99.0969 30.6841C99.2971 30.2815 99.5783 29.9688 99.9404 29.7461C100.303 29.5234 100.727 29.4121 101.212 29.4121C101.698 29.4121 102.122 29.5234 102.484 29.7461C102.847 29.9688 103.128 30.2815 103.328 30.6841C103.528 31.0867 103.628 31.5569 103.628 32.0945C103.628 32.6298 103.528 33.0977 103.328 33.4981C103.128 33.8985 102.847 34.21 102.484 34.4327C102.122 34.6554 101.698 34.7667 101.212 34.7667ZM101.216 33.9198C101.531 33.9198 101.792 33.8366 101.999 33.6701C102.206 33.5037 102.358 33.2821 102.457 33.0055C102.559 32.7288 102.609 32.424 102.609 32.0911C102.609 31.7604 102.559 31.4568 102.457 31.1801C102.358 30.9012 102.206 30.6774 101.999 30.5087C101.792 30.34 101.531 30.2556 101.216 30.2556C100.899 30.2556 100.635 30.34 100.426 30.5087C100.219 30.6774 100.065 30.9012 99.964 31.1801C99.8651 31.4568 99.8156 31.7604 99.8156 32.0911C99.8156 32.424 99.8651 32.7288 99.964 33.0055C100.065 33.2821 100.219 33.5037 100.426 33.6701C100.635 33.8366 100.899 33.9198 101.216 33.9198ZM108.638 30.7448L107.723 30.9068C107.685 30.7898 107.625 30.6785 107.541 30.5728C107.46 30.467 107.35 30.3804 107.211 30.313C107.071 30.2455 106.897 30.2117 106.688 30.2117C106.402 30.2117 106.164 30.2758 105.972 30.4041C105.781 30.53 105.686 30.6931 105.686 30.8933C105.686 31.0665 105.75 31.206 105.878 31.3117C106.006 31.4174 106.213 31.504 106.499 31.5715L107.322 31.7604C107.799 31.8706 108.154 32.0405 108.388 32.2699C108.622 32.4993 108.739 32.7974 108.739 33.164C108.739 33.4744 108.649 33.7511 108.469 33.994C108.291 34.2347 108.043 34.4237 107.723 34.5609C107.406 34.6981 107.039 34.7667 106.62 34.7667C106.04 34.7667 105.566 34.643 105.2 34.3956C104.833 34.1459 104.608 33.7916 104.525 33.3327L105.5 33.1843C105.561 33.4385 105.686 33.6308 105.875 33.7612C106.063 33.8895 106.31 33.9536 106.613 33.9536C106.944 33.9536 107.208 33.885 107.406 33.7477C107.604 33.6083 107.703 33.4385 107.703 33.2383C107.703 33.0763 107.643 32.9402 107.521 32.83C107.402 32.7198 107.219 32.6366 106.971 32.5803L106.094 32.388C105.61 32.2778 105.253 32.1023 105.021 31.8617C104.791 31.621 104.677 31.3162 104.677 30.9473C104.677 30.6414 104.762 30.3737 104.933 30.1443C105.104 29.9148 105.34 29.736 105.642 29.6078C105.943 29.4773 106.288 29.4121 106.678 29.4121C107.238 29.4121 107.679 29.5336 108 29.7765C108.322 30.0172 108.534 30.34 108.638 30.7448ZM112.267 29.4796V30.2893H109.437V29.4796H112.267ZM110.196 28.2379H111.205V33.1404C111.205 33.3361 111.234 33.4834 111.292 33.5824C111.351 33.6791 111.426 33.7455 111.518 33.7815C111.613 33.8152 111.715 33.8321 111.825 33.8321C111.906 33.8321 111.977 33.8265 112.038 33.8152C112.099 33.804 112.146 33.795 112.18 33.7882L112.362 34.6216C112.303 34.6441 112.22 34.6666 112.112 34.6891C112.004 34.7138 111.869 34.7273 111.707 34.7296C111.442 34.7341 111.195 34.6869 110.965 34.5879C110.736 34.4889 110.55 34.336 110.408 34.129C110.267 33.9221 110.196 33.6623 110.196 33.3496V28.2379ZM14.4969 47.7768C14.1685 47.7768 13.8716 47.7161 13.6062 47.5946C13.3408 47.4709 13.1304 47.2921 12.9752 47.0582C12.8223 46.8242 12.7458 46.5374 12.7458 46.1978C12.7458 45.9054 12.802 45.6647 12.9145 45.4757C13.027 45.2868 13.1788 45.1372 13.37 45.027C13.5612 44.9168 13.7749 44.8335 14.0111 44.7773C14.2472 44.7211 14.4879 44.6783 14.7331 44.6491C15.0435 44.6131 15.2955 44.5839 15.4889 44.5614C15.6823 44.5366 15.8229 44.4973 15.9107 44.4433C15.9984 44.3893 16.0422 44.3016 16.0422 44.1801V44.1565C16.0422 43.8618 15.959 43.6335 15.7926 43.4715C15.6284 43.3096 15.3832 43.2286 15.057 43.2286C14.7174 43.2286 14.4497 43.304 14.254 43.4547C14.0606 43.6031 13.9267 43.7685 13.8525 43.9507L12.9044 43.7347C13.0168 43.4198 13.1811 43.1656 13.397 42.9722C13.6152 42.7765 13.866 42.6348 14.1494 42.5471C14.4328 42.4571 14.7309 42.4121 15.0435 42.4121C15.2505 42.4121 15.4698 42.4368 15.7015 42.4863C15.9354 42.5336 16.1536 42.6213 16.356 42.7495C16.5607 42.8777 16.7283 43.061 16.8588 43.2995C16.9892 43.5357 17.0545 43.8427 17.0545 44.2206V47.6621H16.0692V46.9536H16.0287C15.9635 47.084 15.8657 47.2122 15.7352 47.3382C15.6047 47.4642 15.4372 47.5688 15.2325 47.652C15.0278 47.7352 14.7826 47.7768 14.4969 47.7768ZM14.7162 46.9671C14.9952 46.9671 15.2336 46.9119 15.4315 46.8017C15.6317 46.6915 15.7836 46.5475 15.887 46.3698C15.9928 46.1899 16.0456 45.9976 16.0456 45.7929V45.1248C16.0096 45.1608 15.9399 45.1946 15.8364 45.226C15.7352 45.2553 15.6194 45.2812 15.4889 45.3037C15.3584 45.3239 15.2313 45.343 15.1076 45.361C14.9839 45.3768 14.8804 45.3903 14.7972 45.4015C14.6015 45.4262 14.4227 45.4679 14.2607 45.5263C14.101 45.5848 13.9728 45.6692 13.8761 45.7794C13.7816 45.8874 13.7344 46.0313 13.7344 46.2113C13.7344 46.4609 13.8266 46.6499 14.0111 46.7781C14.1955 46.9041 14.4306 46.9671 14.7162 46.9671ZM18.4791 47.6621V40.7521H19.488V43.3197H19.5487C19.6072 43.2117 19.6916 43.0869 19.8018 42.9452C19.912 42.8035 20.0649 42.6798 20.2606 42.574C20.4563 42.4661 20.715 42.4121 21.0367 42.4121C21.4551 42.4121 21.8284 42.5178 22.1569 42.7293C22.4853 42.9407 22.7428 43.2455 22.9295 43.6436C23.1185 44.0418 23.2129 44.5209 23.2129 45.081C23.2129 45.6411 23.1196 46.1213 22.9329 46.5217C22.7462 46.9198 22.4898 47.2269 22.1636 47.4428C21.8374 47.6565 21.4652 47.7633 21.0468 47.7633C20.7319 47.7633 20.4743 47.7105 20.2741 47.6048C20.0762 47.499 19.921 47.3753 19.8085 47.2336C19.6961 47.0919 19.6095 46.9659 19.5487 46.8557H19.4644V47.6621H18.4791ZM19.4677 45.0708C19.4677 45.4352 19.5206 45.7546 19.6263 46.0291C19.732 46.3035 19.885 46.5183 20.0852 46.6735C20.2854 46.8265 20.5306 46.9029 20.8207 46.9029C21.1221 46.9029 21.3741 46.8231 21.5765 46.6634C21.779 46.5014 21.9319 46.2821 22.0354 46.0055C22.1411 45.7288 22.194 45.4172 22.194 45.0708C22.194 44.7289 22.1422 44.4219 22.0388 44.1497C21.9375 43.8776 21.7846 43.6627 21.5799 43.5053C21.3775 43.3478 21.1244 43.2691 20.8207 43.2691C20.5283 43.2691 20.2809 43.3445 20.0784 43.4952C19.8783 43.6459 19.7264 43.8562 19.6229 44.1261C19.5195 44.396 19.4677 44.7109 19.4677 45.0708ZM26.5288 47.7667C26.0429 47.7667 25.6189 47.6554 25.2568 47.4327C24.8946 47.21 24.6134 46.8985 24.4132 46.4981C24.2131 46.0977 24.113 45.6298 24.113 45.0945C24.113 44.5569 24.2131 44.0867 24.4132 43.6841C24.6134 43.2815 24.8946 42.9688 25.2568 42.7461C25.6189 42.5234 26.0429 42.4121 26.5288 42.4121C27.0146 42.4121 27.4386 42.5234 27.8008 42.7461C28.1629 42.9688 28.4441 43.2815 28.6443 43.6841C28.8445 44.0867 28.9446 44.5569 28.9446 45.0945C28.9446 45.6298 28.8445 46.0977 28.6443 46.4981C28.4441 46.8985 28.1629 47.21 27.8008 47.4327C27.4386 47.6554 27.0146 47.7667 26.5288 47.7667ZM26.5321 46.9198C26.8471 46.9198 27.108 46.8366 27.3149 46.6701C27.5219 46.5037 27.6748 46.2821 27.7738 46.0055C27.875 45.7288 27.9256 45.424 27.9256 45.0911C27.9256 44.7604 27.875 44.4568 27.7738 44.1801C27.6748 43.9012 27.5219 43.6774 27.3149 43.5087C27.108 43.34 26.8471 43.2556 26.5321 43.2556C26.215 43.2556 25.9518 43.34 25.7426 43.5087C25.5357 43.6774 25.3816 43.9012 25.2804 44.1801C25.1814 44.4568 25.1319 44.7604 25.1319 45.0911C25.1319 45.424 25.1814 45.7288 25.2804 46.0055C25.3816 46.2821 25.5357 46.5037 25.7426 46.6701C25.9518 46.8366 26.215 46.9198 26.5321 46.9198ZM33.3536 45.5128V42.4796H34.3658V47.6621H33.3739V46.7646H33.3199C33.2007 47.0413 33.0095 47.2718 32.7463 47.4563C32.4854 47.6385 32.1603 47.7296 31.7712 47.7296C31.4383 47.7296 31.1436 47.6565 30.8872 47.5103C30.633 47.3618 30.4328 47.1425 30.2866 46.8523C30.1427 46.5622 30.0707 46.2034 30.0707 45.776V42.4796H31.0795V45.6546C31.0795 46.0077 31.1774 46.2889 31.3731 46.4981C31.5688 46.7073 31.8229 46.8118 32.1356 46.8118C32.3245 46.8118 32.5124 46.7646 32.6991 46.6701C32.888 46.5757 33.0443 46.4328 33.1681 46.2416C33.294 46.0504 33.3559 45.8075 33.3536 45.5128ZM38.1406 42.4796V43.2893H35.3097V42.4796H38.1406ZM36.0689 41.2379H37.0777V46.1404C37.0777 46.3361 37.107 46.4834 37.1655 46.5824C37.2239 46.6791 37.2993 46.7455 37.3915 46.7815C37.486 46.8152 37.5883 46.8321 37.6986 46.8321C37.7795 46.8321 37.8504 46.8265 37.9111 46.8152C37.9719 46.804 38.0191 46.795 38.0528 46.7882L38.235 47.6216C38.1765 47.6441 38.0933 47.6666 37.9853 47.6891C37.8774 47.7138 37.7424 47.7273 37.5805 47.7296C37.315 47.7341 37.0676 47.6869 36.8382 47.5879C36.6087 47.4889 36.4232 47.336 36.2815 47.129C36.1397 46.9221 36.0689 46.6623 36.0689 46.3496V41.2379ZM41.4235 44.2273V43.7212C41.8036 43.7212 42.0691 43.6436 42.2198 43.4884C42.3705 43.331 42.4458 43.0712 42.4458 42.709V41.7407C42.4458 41.3965 42.4841 41.1075 42.5606 40.8735C42.6393 40.6373 42.7585 40.4484 42.9182 40.3067C43.0779 40.165 43.2803 40.0626 43.5255 39.9997C43.7707 39.9367 44.0598 39.9052 44.3927 39.9052V40.7048C44.1317 40.7048 43.9282 40.7431 43.782 40.8195C43.6357 40.896 43.5334 41.0152 43.4749 41.1772C43.4187 41.3369 43.3906 41.5416 43.3906 41.7913V43.0194C43.3906 43.1926 43.3647 43.3535 43.313 43.5019C43.2612 43.6481 43.1656 43.7752 43.0262 43.8832C42.8867 43.9911 42.6876 44.0755 42.429 44.1362C42.1703 44.197 41.8351 44.2273 41.4235 44.2273ZM44.3927 48.5124C44.0598 48.5124 43.7707 48.4809 43.5255 48.4179C43.2803 48.3549 43.0779 48.2526 42.9182 48.1109C42.7585 47.9691 42.6393 47.7813 42.5606 47.5474C42.4841 47.3112 42.4458 47.021 42.4458 46.6769V45.7052C42.4458 45.3453 42.3705 45.0866 42.2198 44.9291C42.0691 44.7717 41.8036 44.6929 41.4235 44.6929V44.1902C41.8351 44.1902 42.1703 44.2206 42.429 44.2813C42.6876 44.3398 42.8867 44.4242 43.0262 44.5344C43.1656 44.6423 43.2612 44.7706 43.313 44.919C43.3647 45.0652 43.3906 45.2249 43.3906 45.3981V46.6263C43.3906 46.8737 43.4187 47.0784 43.4749 47.2404C43.5334 47.4001 43.6357 47.5193 43.782 47.598C43.9282 47.6745 44.1317 47.7127 44.3927 47.7127V48.5124ZM41.4235 44.6929V43.7212H42.3581V44.6929H41.4235ZM51.1821 42.9992H50.1294C50.0889 42.7742 50.0135 42.5763 49.9033 42.4053C49.7931 42.2344 49.6581 42.0893 49.4984 41.9701C49.3387 41.8509 49.1599 41.7609 48.962 41.7002C48.7663 41.6394 48.5582 41.6091 48.3378 41.6091C47.9396 41.6091 47.5831 41.7092 47.2682 41.9094C46.9555 42.1096 46.7081 42.4031 46.5259 42.79C46.3459 43.1769 46.256 43.6492 46.256 44.2071C46.256 44.7694 46.3459 45.244 46.5259 45.6309C46.7081 46.0178 46.9567 46.3102 47.2716 46.5082C47.5865 46.7061 47.9407 46.8051 48.3344 46.8051C48.5526 46.8051 48.7595 46.7759 48.9552 46.7174C49.1532 46.6566 49.332 46.5678 49.4917 46.4508C49.6514 46.3339 49.7864 46.191 49.8966 46.0223C50.009 45.8514 50.0866 45.6557 50.1294 45.4352L51.1821 45.4386C51.1258 45.7783 51.0168 46.0909 50.8548 46.3766C50.6951 46.66 50.4893 46.9052 50.2373 47.1121C49.9877 47.3168 49.702 47.4754 49.3803 47.5879C49.0587 47.7003 48.7078 47.7566 48.3276 47.7566C47.7293 47.7566 47.1962 47.6149 46.7283 47.3315C46.2605 47.0458 45.8916 46.6375 45.6217 46.1067C45.354 45.5758 45.2201 44.9426 45.2201 44.2071C45.2201 43.4693 45.3551 42.8361 45.625 42.3075C45.895 41.7766 46.2638 41.3695 46.7317 41.0861C47.1996 40.8004 47.7316 40.6576 48.3276 40.6576C48.6943 40.6576 49.0362 40.7105 49.3533 40.8162C49.6728 40.9196 49.9596 41.0726 50.2137 41.275C50.4679 41.4752 50.6782 41.7204 50.8447 42.0106C51.0111 42.2985 51.1236 42.628 51.1821 42.9992ZM54.5317 47.7667C54.0458 47.7667 53.6218 47.6554 53.2597 47.4327C52.8975 47.21 52.6163 46.8985 52.4161 46.4981C52.2159 46.0977 52.1158 45.6298 52.1158 45.0945C52.1158 44.5569 52.2159 44.0867 52.4161 43.6841C52.6163 43.2815 52.8975 42.9688 53.2597 42.7461C53.6218 42.5234 54.0458 42.4121 54.5317 42.4121C55.0175 42.4121 55.4415 42.5234 55.8037 42.7461C56.1658 42.9688 56.447 43.2815 56.6472 43.6841C56.8474 44.0867 56.9475 44.5569 56.9475 45.0945C56.9475 45.6298 56.8474 46.0977 56.6472 46.4981C56.447 46.8985 56.1658 47.21 55.8037 47.4327C55.4415 47.6554 55.0175 47.7667 54.5317 47.7667ZM54.535 46.9198C54.85 46.9198 55.1109 46.8366 55.3178 46.6701C55.5248 46.5037 55.6777 46.2821 55.7767 46.0055C55.8779 45.7288 55.9285 45.424 55.9285 45.0911C55.9285 44.7604 55.8779 44.4568 55.7767 44.1801C55.6777 43.9012 55.5248 43.6774 55.3178 43.5087C55.1109 43.34 54.85 43.2556 54.535 43.2556C54.2179 43.2556 53.9547 43.34 53.7455 43.5087C53.5386 43.6774 53.3845 43.9012 53.2833 44.1801C53.1843 44.4568 53.1348 44.7604 53.1348 45.0911C53.1348 45.424 53.1843 45.7288 53.2833 46.0055C53.3845 46.2821 53.5386 46.5037 53.7455 46.6701C53.9547 46.8366 54.2179 46.9198 54.535 46.9198ZM58.0736 47.6621V42.4796H59.0419V43.3231H59.106C59.214 43.0374 59.3906 42.8147 59.6358 42.655C59.8809 42.4931 60.1745 42.4121 60.5164 42.4121C60.8628 42.4121 61.1529 42.4931 61.3869 42.655C61.6231 42.817 61.7974 43.0397 61.9099 43.3231H61.9638C62.0876 43.0464 62.2844 42.826 62.5543 42.6618C62.8242 42.4953 63.1459 42.4121 63.5193 42.4121C63.9894 42.4121 64.3729 42.5594 64.6698 42.8541C64.969 43.1488 65.1186 43.593 65.1186 44.1868V47.6621H64.1097V44.2813C64.1097 43.9304 64.0141 43.6762 63.8229 43.5188C63.6317 43.3613 63.4034 43.2826 63.138 43.2826C62.8096 43.2826 62.5543 43.3838 62.3721 43.5863C62.1899 43.7865 62.0988 44.044 62.0988 44.3589V47.6621H61.0933V44.2172C61.0933 43.936 61.0056 43.71 60.8302 43.539C60.6547 43.3681 60.4264 43.2826 60.1452 43.2826C59.954 43.2826 59.7775 43.3332 59.6155 43.4344C59.4558 43.5334 59.3265 43.6717 59.2275 43.8494C59.1308 44.0271 59.0824 44.233 59.0824 44.4669V47.6621H58.0736ZM66.4707 49.6056V42.4796H67.4559V43.3197H67.5403C67.5988 43.2117 67.6831 43.0869 67.7934 42.9452C67.9036 42.8035 68.0565 42.6798 68.2522 42.574C68.4479 42.4661 68.7066 42.4121 69.0283 42.4121C69.4466 42.4121 69.82 42.5178 70.1484 42.7293C70.4768 42.9407 70.7344 43.2455 70.9211 43.6436C71.11 44.0418 71.2045 44.5209 71.2045 45.081C71.2045 45.6411 71.1112 46.1213 70.9245 46.5217C70.7378 46.9198 70.4813 47.2269 70.1552 47.4428C69.829 47.6565 69.4568 47.7633 69.0384 47.7633C68.7235 47.7633 68.4659 47.7105 68.2657 47.6048C68.0678 47.499 67.9126 47.3753 67.8001 47.2336C67.6876 47.0919 67.601 46.9659 67.5403 46.8557H67.4796V49.6056H66.4707ZM67.4593 45.0708C67.4593 45.4352 67.5122 45.7546 67.6179 46.0291C67.7236 46.3035 67.8766 46.5183 68.0768 46.6735C68.277 46.8265 68.5221 46.9029 68.8123 46.9029C69.1137 46.9029 69.3657 46.8231 69.5681 46.6634C69.7705 46.5014 69.9235 46.2821 70.027 46.0055C70.1327 45.7288 70.1855 45.4172 70.1855 45.0708C70.1855 44.7289 70.1338 44.4219 70.0303 44.1497C69.9291 43.8776 69.7762 43.6627 69.5715 43.5053C69.369 43.3478 69.116 43.2691 68.8123 43.2691C68.5199 43.2691 68.2725 43.3445 68.07 43.4952C67.8698 43.6459 67.718 43.8562 67.6145 44.1261C67.5111 44.396 67.4593 44.7109 67.4593 45.0708ZM73.843 47.7768C73.5146 47.7768 73.2177 47.7161 72.9523 47.5946C72.6868 47.4709 72.4765 47.2921 72.3213 47.0582C72.1684 46.8242 72.0919 46.5374 72.0919 46.1978C72.0919 45.9054 72.1481 45.6647 72.2606 45.4757C72.3731 45.2868 72.5249 45.1372 72.7161 45.027C72.9073 44.9168 73.121 44.8335 73.3572 44.7773C73.5933 44.7211 73.834 44.6783 74.0792 44.6491C74.3896 44.6131 74.6415 44.5839 74.835 44.5614C75.0284 44.5366 75.169 44.4973 75.2567 44.4433C75.3445 44.3893 75.3883 44.3016 75.3883 44.1801V44.1565C75.3883 43.8618 75.3051 43.6335 75.1387 43.4715C74.9744 43.3096 74.7293 43.2286 74.4031 43.2286C74.0635 43.2286 73.7958 43.304 73.6001 43.4547C73.4066 43.6031 73.2728 43.7685 73.1986 43.9507L72.2505 43.7347C72.3629 43.4198 72.5271 43.1656 72.7431 42.9722C72.9613 42.7765 73.2121 42.6348 73.4955 42.5471C73.7789 42.4571 74.077 42.4121 74.3896 42.4121C74.5966 42.4121 74.8159 42.4368 75.0476 42.4863C75.2815 42.5336 75.4997 42.6213 75.7021 42.7495C75.9068 42.8777 76.0744 43.061 76.2048 43.2995C76.3353 43.5357 76.4005 43.8427 76.4005 44.2206V47.6621H75.4153V46.9536H75.3748C75.3096 47.084 75.2118 47.2122 75.0813 47.3382C74.9508 47.4642 74.7833 47.5688 74.5786 47.652C74.3739 47.7352 74.1287 47.7768 73.843 47.7768ZM74.0623 46.9671C74.3413 46.9671 74.5797 46.9119 74.7776 46.8017C74.9778 46.6915 75.1297 46.5475 75.2331 46.3698C75.3388 46.1899 75.3917 45.9976 75.3917 45.7929V45.1248C75.3557 45.1608 75.286 45.1946 75.1825 45.226C75.0813 45.2553 74.9654 45.2812 74.835 45.3037C74.7045 45.3239 74.5774 45.343 74.4537 45.361C74.33 45.3768 74.2265 45.3903 74.1433 45.4015C73.9476 45.4262 73.7688 45.4679 73.6068 45.5263C73.4471 45.5848 73.3189 45.6692 73.2222 45.7794C73.1277 45.8874 73.0805 46.0313 73.0805 46.2113C73.0805 46.4609 73.1727 46.6499 73.3572 46.7781C73.5416 46.9041 73.7767 46.9671 74.0623 46.9671ZM78.7531 44.585V47.6621H77.7443V42.4796H78.7126V43.3231H78.7767C78.8959 43.0487 79.0826 42.8282 79.3368 42.6618C79.5932 42.4953 79.916 42.4121 80.3052 42.4121C80.6583 42.4121 80.9676 42.4863 81.233 42.6348C81.4984 42.781 81.7043 42.9992 81.8505 43.2893C81.9967 43.5795 82.0698 43.9383 82.0698 44.3657V47.6621H81.0609V44.4871C81.0609 44.1115 80.9631 43.8179 80.7674 43.6065C80.5717 43.3928 80.3029 43.286 79.961 43.286C79.7271 43.286 79.519 43.3366 79.3368 43.4378C79.1569 43.539 79.014 43.6875 78.9083 43.8832C78.8048 44.0766 78.7531 44.3106 78.7531 44.585ZM83.8749 49.6056C83.7242 49.6056 83.587 49.5932 83.4633 49.5684C83.3396 49.546 83.2473 49.5212 83.1866 49.4942L83.4295 48.6676C83.614 48.7171 83.7782 48.7384 83.9221 48.7317C84.0661 48.7249 84.1932 48.6709 84.3034 48.5697C84.4159 48.4685 84.5148 48.3032 84.6003 48.0737L84.7252 47.7296L82.8289 42.4796H83.9086L85.2211 46.5014H85.2751L86.5876 42.4796H87.6707L85.5349 48.3538C85.436 48.6237 85.31 48.852 85.157 49.0387C85.0041 49.2277 84.8219 49.3694 84.6104 49.4638C84.399 49.5583 84.1538 49.6056 83.8749 49.6056ZM92.1422 44.585V47.6621H91.1333V42.4796H92.1017V43.3231H92.1658C92.285 43.0487 92.4717 42.8282 92.7259 42.6618C92.9823 42.4953 93.3051 42.4121 93.6942 42.4121C94.0474 42.4121 94.3567 42.4863 94.6221 42.6348C94.8875 42.781 95.0933 42.9992 95.2395 43.2893C95.3857 43.5795 95.4588 43.9383 95.4588 44.3657V47.6621H94.45V44.4871C94.45 44.1115 94.3522 43.8179 94.1565 43.6065C93.9608 43.3928 93.692 43.286 93.3501 43.286C93.1161 43.286 92.9081 43.3366 92.7259 43.4378C92.5459 43.539 92.4031 43.6875 92.2974 43.8832C92.1939 44.0766 92.1422 44.3106 92.1422 44.585ZM98.32 47.7768C97.9916 47.7768 97.6947 47.7161 97.4293 47.5946C97.1639 47.4709 96.9535 47.2921 96.7983 47.0582C96.6454 46.8242 96.5689 46.5374 96.5689 46.1978C96.5689 45.9054 96.6251 45.6647 96.7376 45.4757C96.8501 45.2868 97.0019 45.1372 97.1931 45.027C97.3843 44.9168 97.598 44.8335 97.8342 44.7773C98.0704 44.7211 98.311 44.6783 98.5562 44.6491C98.8666 44.6131 99.1186 44.5839 99.312 44.5614C99.5054 44.5366 99.646 44.4973 99.7338 44.4433C99.8215 44.3893 99.8653 44.3016 99.8653 44.1801V44.1565C99.8653 43.8618 99.7821 43.6335 99.6157 43.4715C99.4515 43.3096 99.2063 43.2286 98.8801 43.2286C98.5405 43.2286 98.2728 43.304 98.0771 43.4547C97.8837 43.6031 97.7498 43.7685 97.6756 43.9507L96.7275 43.7347C96.84 43.4198 97.0042 43.1656 97.2201 42.9722C97.4383 42.7765 97.6891 42.6348 97.9725 42.5471C98.2559 42.4571 98.554 42.4121 98.8666 42.4121C99.0736 42.4121 99.2929 42.4368 99.5246 42.4863C99.7585 42.5336 99.9767 42.6213 100.179 42.7495C100.384 42.8777 100.551 43.061 100.682 43.2995C100.812 43.5357 100.878 43.8427 100.878 44.2206V47.6621H99.8923V46.9536H99.8519C99.7866 47.084 99.6888 47.2122 99.5583 47.3382C99.4278 47.4642 99.2603 47.5688 99.0556 47.652C98.8509 47.7352 98.6057 47.7768 98.32 47.7768ZM98.5393 46.9671C98.8183 46.9671 99.0567 46.9119 99.2546 46.8017C99.4548 46.6915 99.6067 46.5475 99.7101 46.3698C99.8159 46.1899 99.8687 45.9976 99.8687 45.7929V45.1248C99.8327 45.1608 99.763 45.1946 99.6595 45.226C99.5583 45.2553 99.4425 45.2812 99.312 45.3037C99.1815 45.3239 99.0545 45.343 98.9307 45.361C98.807 45.3768 98.7035 45.3903 98.6203 45.4015C98.4246 45.4262 98.2458 45.4679 98.0839 45.5263C97.9241 45.5848 97.7959 45.6692 97.6992 45.7794C97.6047 45.8874 97.5575 46.0313 97.5575 46.2113C97.5575 46.4609 97.6497 46.6499 97.8342 46.7781C98.0186 46.9041 98.2537 46.9671 98.5393 46.9671ZM102.221 47.6621V42.4796H103.19V43.3231H103.254C103.362 43.0374 103.538 42.8147 103.783 42.655C104.029 42.4931 104.322 42.4121 104.664 42.4121C105.01 42.4121 105.301 42.4931 105.535 42.655C105.771 42.817 105.945 43.0397 106.058 43.3231H106.112C106.235 43.0464 106.432 42.826 106.702 42.6618C106.972 42.4953 107.294 42.4121 107.667 42.4121C108.137 42.4121 108.521 42.5594 108.818 42.8541C109.117 43.1488 109.266 43.593 109.266 44.1868V47.6621H108.257V44.2813C108.257 43.9304 108.162 43.6762 107.971 43.5188C107.779 43.3613 107.551 43.2826 107.286 43.2826C106.957 43.2826 106.702 43.3838 106.52 43.5863C106.338 43.7865 106.247 44.044 106.247 44.3589V47.6621H105.241V44.2172C105.241 43.936 105.153 43.71 104.978 43.539C104.802 43.3681 104.574 43.2826 104.293 43.2826C104.102 43.2826 103.925 43.3332 103.763 43.4344C103.604 43.5334 103.474 43.6717 103.375 43.8494C103.278 44.0271 103.23 44.233 103.23 44.4669V47.6621H102.221ZM112.852 47.7667C112.341 47.7667 111.902 47.6576 111.533 47.4394C111.166 47.219 110.883 46.9097 110.683 46.5116C110.485 46.1112 110.386 45.6422 110.386 45.1046C110.386 44.5737 110.485 44.1059 110.683 43.701C110.883 43.2961 111.162 42.9801 111.519 42.7529C111.879 42.5257 112.3 42.4121 112.781 42.4121C113.074 42.4121 113.357 42.4605 113.631 42.5572C113.906 42.6539 114.152 42.8057 114.37 43.0127C114.589 43.2196 114.761 43.4884 114.887 43.8191C115.013 44.1475 115.076 44.5467 115.076 45.0169V45.3745H110.956V44.6187H114.087C114.087 44.3533 114.033 44.1182 113.925 43.9135C113.817 43.7066 113.665 43.5435 113.469 43.4243C113.276 43.3051 113.049 43.2455 112.788 43.2455C112.505 43.2455 112.257 43.3152 112.046 43.4547C111.836 43.5919 111.674 43.7718 111.56 43.9945C111.447 44.215 111.391 44.4545 111.391 44.7132V45.3037C111.391 45.6501 111.452 45.9447 111.573 46.1877C111.697 46.4306 111.869 46.6162 112.09 46.7444C112.31 46.8703 112.567 46.9333 112.862 46.9333C113.053 46.9333 113.228 46.9063 113.385 46.8523C113.543 46.7961 113.679 46.7129 113.793 46.6027C113.908 46.4924 113.996 46.3564 114.057 46.1944L115.011 46.3665C114.935 46.6476 114.798 46.894 114.6 47.1054C114.404 47.3146 114.158 47.4777 113.861 47.5946C113.566 47.7093 113.23 47.7667 112.852 47.7667ZM118.776 44.7773V45.28C118.396 45.28 118.13 45.3588 117.98 45.5162C117.829 45.6737 117.754 45.9323 117.754 46.2922V47.264C117.754 47.6081 117.714 47.8972 117.636 48.1311C117.559 48.3673 117.441 48.5562 117.281 48.6979C117.122 48.8397 116.919 48.942 116.674 49.005C116.429 49.068 116.14 49.0995 115.807 49.0995V48.2998C116.068 48.2998 116.271 48.2604 116.418 48.1817C116.564 48.1052 116.665 47.986 116.721 47.8241C116.78 47.6644 116.809 47.4608 116.809 47.2134V45.9852C116.809 45.812 116.835 45.6523 116.887 45.5061C116.938 45.3576 117.034 45.2294 117.173 45.1215C117.313 45.0112 117.512 44.9269 117.771 44.8684C118.029 44.8077 118.364 44.7773 118.776 44.7773ZM115.807 40.4923C116.14 40.4923 116.429 40.5238 116.674 40.5867C116.919 40.6497 117.122 40.7521 117.281 40.8938C117.441 41.0355 117.559 41.2244 117.636 41.4606C117.714 41.6945 117.754 41.9836 117.754 42.3277V43.2961C117.754 43.6582 117.829 43.918 117.98 44.0755C118.13 44.2307 118.396 44.3083 118.776 44.3083V44.8144C118.364 44.8144 118.029 44.784 117.771 44.7233C117.512 44.6626 117.313 44.5782 117.173 44.4703C117.034 44.3623 116.938 44.2352 116.887 44.089C116.835 43.9405 116.809 43.7797 116.809 43.6065V42.3784C116.809 42.1287 116.78 41.924 116.721 41.7643C116.665 41.6023 116.564 41.4831 116.418 41.4066C116.271 41.3302 116.068 41.2919 115.807 41.2919V40.4923ZM118.776 44.3083V45.28H117.841V44.3083H118.776Z" fill="#050505"/>
<rect x="12.3105" y="59.2637" width="158.197" height="21.4016" rx="5.70079" fill="#F0F0F0"/>
<g clip-path="url(#clip0_4255_21696)">
<rect x="19.9121" y="65.2139" width="9.50131" height="9.50131" rx="2.85039" fill="black"/>
<path fill-rule="evenodd" clip-rule="evenodd" d="M29.2871 67.9425C29.5923 68.2477 29.5923 68.7415 29.2871 69.0467L24.9681 73.3657C24.816 73.5188 24.616 73.5948 24.416 73.5948C24.2171 73.5948 24.016 73.5188 23.8639 73.3657L21.391 70.8938C21.0858 70.5886 21.0858 70.0948 21.391 69.7896C21.6962 69.4844 22.19 69.4844 22.4952 69.7896L24.416 71.7084L28.1829 67.9425C28.4882 67.6373 28.9819 67.6373 29.2871 67.9425Z" fill="white"/>
</g>
<path d="M37.6342 67.1278V71.9648H37.0674L34.4316 68.167H34.3844V71.9648H33.7986V67.1278H34.3655L37.0107 70.9351H37.058V67.1278H37.6342ZM40.2517 72.0404C39.9022 72.0404 39.6007 71.9633 39.3472 71.809C39.0952 71.6531 38.9008 71.4358 38.7638 71.1571C38.6284 70.8768 38.5607 70.5509 38.5607 70.1793C38.5607 69.8077 38.6284 69.4802 38.7638 69.1968C38.9008 68.9118 39.0913 68.6898 39.3353 68.5307C39.581 68.3701 39.8675 68.2898 40.1951 68.2898C40.384 68.2898 40.5706 68.3213 40.7548 68.3843C40.939 68.4473 41.1067 68.5496 41.2579 68.6913C41.409 68.8315 41.5295 69.0173 41.6192 69.2487C41.709 69.4802 41.7539 69.7652 41.7539 70.1037V70.3399H38.9575V69.8581H41.187C41.187 69.6534 41.1461 69.4707 41.0642 69.3101C40.9839 69.1495 40.869 69.0228 40.7194 68.9299C40.5714 68.837 40.3966 68.7905 40.1951 68.7905C39.973 68.7905 39.7809 68.8457 39.6188 68.9559C39.4582 69.0645 39.3346 69.2062 39.248 69.381C39.1614 69.5558 39.1181 69.7431 39.1181 69.9431V70.2643C39.1181 70.5383 39.1653 70.7705 39.2598 70.9611C39.3558 71.15 39.4889 71.2941 39.6589 71.3933C39.829 71.4909 40.0266 71.5397 40.2517 71.5397C40.3982 71.5397 40.5304 71.5192 40.6485 71.4783C40.7682 71.4358 40.8713 71.3728 40.9579 71.2894C41.0445 71.2043 41.1114 71.0988 41.1587 70.9729L41.6972 71.124C41.6405 71.3067 41.5452 71.4673 41.4114 71.6058C41.2776 71.7428 41.1122 71.8499 40.9154 71.9271C40.7186 72.0026 40.4974 72.0404 40.2517 72.0404ZM43.4237 71.9648L42.3183 68.3371H42.9041L43.6882 71.1146H43.726L44.5007 68.3371H45.0959L45.8611 71.1051H45.8989L46.683 68.3371H47.2687L46.1634 71.9648H45.6155L44.8219 69.1779H44.7652L43.9716 71.9648H43.4237ZM51.4917 68.3371V68.8094H49.5361V68.3371H51.4917ZM50.1218 71.9648V67.8364C50.1218 67.6285 50.1706 67.4553 50.2683 67.3168C50.3659 67.1782 50.4926 67.0743 50.6485 67.005C50.8044 66.9357 50.9689 66.9011 51.1421 66.9011C51.2791 66.9011 51.3909 66.9121 51.4775 66.9341C51.5641 66.9562 51.6287 66.9767 51.6712 66.9955L51.5106 67.4774C51.4823 67.4679 51.4429 67.4561 51.3925 67.4419C51.3437 67.4278 51.2791 67.4207 51.1988 67.4207C51.0146 67.4207 50.8816 67.4671 50.7997 67.56C50.7194 67.6529 50.6792 67.7891 50.6792 67.9686V71.9648H50.1218ZM53.6445 72.0404C53.295 72.0404 52.9934 71.9633 52.7399 71.809C52.488 71.6531 52.2935 71.4358 52.1566 71.1571C52.0211 70.8768 51.9534 70.5509 51.9534 70.1793C51.9534 69.8077 52.0211 69.4802 52.1566 69.1968C52.2935 68.9118 52.4841 68.6898 52.7281 68.5307C52.9737 68.3701 53.2603 68.2898 53.5878 68.2898C53.7768 68.2898 53.9634 68.3213 54.1476 68.3843C54.3318 68.4473 54.4995 68.5496 54.6506 68.6913C54.8018 68.8315 54.9223 69.0173 55.012 69.2487C55.1018 69.4802 55.1466 69.7652 55.1466 70.1037V70.3399H52.3502V69.8581H54.5798C54.5798 69.6534 54.5389 69.4707 54.457 69.3101C54.3767 69.1495 54.2617 69.0228 54.1121 68.9299C53.9641 68.837 53.7894 68.7905 53.5878 68.7905C53.3658 68.7905 53.1737 68.8457 53.0115 68.9559C52.8509 69.0645 52.7273 69.2062 52.6407 69.381C52.5541 69.5558 52.5108 69.7431 52.5108 69.9431V70.2643C52.5108 70.5383 52.5581 70.7705 52.6525 70.9611C52.7486 71.15 52.8816 71.2941 53.0517 71.3933C53.2217 71.4909 53.4193 71.5397 53.6445 71.5397C53.7909 71.5397 53.9232 71.5192 54.0413 71.4783C54.161 71.4358 54.2641 71.3728 54.3507 71.2894C54.4373 71.2043 54.5042 71.0988 54.5514 70.9729L55.0899 71.124C55.0333 71.3067 54.938 71.4673 54.8042 71.6058C54.6703 71.7428 54.505 71.8499 54.3082 71.9271C54.1114 72.0026 53.8901 72.0404 53.6445 72.0404ZM57.0621 72.0499C56.8322 72.0499 56.6236 72.0066 56.4362 71.92C56.2488 71.8318 56.1 71.705 55.9898 71.5397C55.8796 71.3728 55.8245 71.1713 55.8245 70.9351C55.8245 70.7272 55.8654 70.5588 55.9473 70.4297C56.0292 70.299 56.1386 70.1966 56.2756 70.1226C56.4126 70.0486 56.5637 69.9935 56.7291 69.9573C56.896 69.9195 57.0637 69.8896 57.2321 69.8675C57.4526 69.8392 57.6313 69.8179 57.7683 69.8038C57.9068 69.788 58.0076 69.762 58.0706 69.7258C58.1351 69.6896 58.1674 69.6266 58.1674 69.5369V69.518C58.1674 69.285 58.1036 69.1039 57.9761 68.9748C57.8501 68.8457 57.6588 68.7811 57.4022 68.7811C57.1361 68.7811 56.9275 68.8394 56.7763 68.9559C56.6251 69.0724 56.5189 69.1968 56.4574 69.329L55.9284 69.1401C56.0229 68.9197 56.1488 68.748 56.3063 68.6252C56.4653 68.5008 56.6385 68.4142 56.8259 68.3654C57.0148 68.315 57.2006 68.2898 57.3833 68.2898C57.4998 68.2898 57.6336 68.304 57.7848 68.3323C57.9375 68.3591 58.0848 68.415 58.2265 68.5C58.3697 68.5851 58.4886 68.7134 58.5831 68.885C58.6776 69.0566 58.7248 69.2865 58.7248 69.5747V71.9648H58.1674V71.4736H58.1391C58.1013 71.5523 58.0383 71.6365 57.9501 71.7263C57.862 71.816 57.7446 71.8924 57.5982 71.9554C57.4518 72.0184 57.2731 72.0499 57.0621 72.0499ZM57.1471 71.5492C57.3675 71.5492 57.5533 71.5059 57.7045 71.4193C57.8572 71.3327 57.9722 71.2209 58.0493 71.0839C58.1281 70.9469 58.1674 70.8028 58.1674 70.6517V70.1415C58.1438 70.1699 58.0918 70.1958 58.0115 70.2194C57.9328 70.2415 57.8415 70.2612 57.7376 70.2785C57.6352 70.2942 57.5352 70.3084 57.4376 70.321C57.3416 70.332 57.2636 70.3415 57.2038 70.3494C57.0589 70.3682 56.9235 70.3989 56.7976 70.4415C56.6732 70.4824 56.5724 70.5446 56.4952 70.628C56.4197 70.7099 56.3819 70.8217 56.3819 70.9634C56.3819 71.1571 56.4535 71.3035 56.5968 71.4027C56.7417 71.5004 56.9251 71.5492 57.1471 71.5492ZM61.3199 68.3371V68.8094H59.4399V68.3371H61.3199ZM59.9878 67.4679H60.5452V70.9256C60.5452 71.0831 60.568 71.2012 60.6137 71.2799C60.6609 71.3571 60.7208 71.409 60.7932 71.4358C60.8672 71.461 60.9451 71.4736 61.027 71.4736C61.0884 71.4736 61.1388 71.4704 61.1782 71.4641C61.2175 71.4563 61.249 71.45 61.2726 71.4452L61.386 71.9459C61.3482 71.9601 61.2955 71.9743 61.2278 71.9885C61.1601 72.0042 61.0742 72.0121 60.9703 72.0121C60.8129 72.0121 60.6586 71.9782 60.5074 71.9105C60.3578 71.8428 60.2334 71.7397 60.1342 71.6011C60.0366 71.4626 59.9878 71.2878 59.9878 71.0768V67.4679ZM64.4446 70.4816V68.3371H65.002V71.9648H64.4446V71.3508H64.4068C64.3218 71.535 64.1895 71.6917 64.01 71.8208C63.8305 71.9483 63.6038 72.0121 63.3298 72.0121C63.1031 72.0121 62.9015 71.9625 62.7252 71.8633C62.5488 71.7625 62.4102 71.6114 62.3095 71.4098C62.2087 71.2067 62.1583 70.9508 62.1583 70.6422V68.3371H62.7157V70.6044C62.7157 70.869 62.7897 71.0799 62.9377 71.2374C63.0873 71.3949 63.2778 71.4736 63.5093 71.4736C63.6478 71.4736 63.7888 71.4382 63.9321 71.3673C64.0769 71.2964 64.1982 71.1878 64.2958 71.0414C64.395 70.8949 64.4446 70.7083 64.4446 70.4816ZM66.0229 71.9648V68.3371H66.5614V68.885H66.5992C66.6653 68.7055 66.785 68.5599 66.9582 68.4481C67.1314 68.3363 67.3266 68.2804 67.5439 68.2804C67.5848 68.2804 67.636 68.2812 67.6974 68.2827C67.7588 68.2843 67.8053 68.2867 67.8368 68.2898V68.8567C67.8179 68.8519 67.7746 68.8449 67.7069 68.8354C67.6407 68.8244 67.5707 68.8189 67.4966 68.8189C67.3203 68.8189 67.1628 68.8559 67.0243 68.9299C66.8873 69.0023 66.7787 69.1031 66.6984 69.2322C66.6196 69.3597 66.5803 69.5054 66.5803 69.6691V71.9648H66.0229ZM69.9081 72.0404C69.5585 72.0404 69.257 71.9633 69.0035 71.809C68.7516 71.6531 68.5571 71.4358 68.4201 71.1571C68.2847 70.8768 68.217 70.5509 68.217 70.1793C68.217 69.8077 68.2847 69.4802 68.4201 69.1968C68.5571 68.9118 68.7476 68.6898 68.9917 68.5307C69.2373 68.3701 69.5239 68.2898 69.8514 68.2898C70.0403 68.2898 70.2269 68.3213 70.4112 68.3843C70.5954 68.4473 70.7631 68.5496 70.9142 68.6913C71.0654 68.8315 71.1858 69.0173 71.2756 69.2487C71.3653 69.4802 71.4102 69.7652 71.4102 70.1037V70.3399H68.6138V69.8581H70.8434C70.8434 69.6534 70.8024 69.4707 70.7206 69.3101C70.6403 69.1495 70.5253 69.0228 70.3757 68.9299C70.2277 68.837 70.0529 68.7905 69.8514 68.7905C69.6294 68.7905 69.4373 68.8457 69.2751 68.9559C69.1145 69.0645 68.9909 69.2062 68.9043 69.381C68.8177 69.5558 68.7744 69.7431 68.7744 69.9431V70.2643C68.7744 70.5383 68.8216 70.7705 68.9161 70.9611C69.0122 71.15 69.1452 71.2941 69.3153 71.3933C69.4853 71.4909 69.6829 71.5397 69.9081 71.5397C70.0545 71.5397 70.1868 71.5192 70.3049 71.4783C70.4245 71.4358 70.5277 71.3728 70.6143 71.2894C70.7009 71.2043 70.7678 71.0988 70.815 70.9729L71.3535 71.124C71.2968 71.3067 71.2016 71.4673 71.0677 71.6058C70.9339 71.7428 70.7686 71.8499 70.5718 71.9271C70.3749 72.0026 70.1537 72.0404 69.9081 72.0404Z" fill="#050505"/>
<rect x="12.3105" y="84.4658" width="158.197" height="21.4016" rx="5.70079" fill="#F0F0F0"/>
<g clip-path="url(#clip1_4255_21696)">
<rect x="19.9121" y="90.416" width="9.50131" height="9.50131" rx="1.90026" fill="black"/>
<path fill-rule="evenodd" clip-rule="evenodd" d="M29.2871 93.1447C29.5923 93.4499 29.5923 93.9436 29.2871 94.2488L24.9681 98.5678C24.816 98.7209 24.616 98.797 24.416 98.797C24.2171 98.797 24.016 98.7209 23.8639 98.5678L21.391 96.0959C21.0858 95.7907 21.0858 95.297 21.391 94.9918C21.6962 94.6866 22.19 94.6866 22.4952 94.9918L24.416 96.9105L28.1829 93.1447C28.4882 92.8395 28.9819 92.8395 29.2871 93.1447Z" fill="white"/>
</g>
<path d="M36.4439 93.5392C36.4155 93.2999 36.3006 93.1141 36.099 92.9818C35.8975 92.8496 35.6503 92.7834 35.3574 92.7834C35.1433 92.7834 34.9559 92.8181 34.7953 92.8874C34.6363 92.9566 34.5119 93.0519 34.4221 93.1731C34.334 93.2944 34.2899 93.4321 34.2899 93.5865C34.2899 93.7156 34.3206 93.8266 34.382 93.9195C34.445 94.0108 34.5253 94.0872 34.6229 94.1486C34.7205 94.2084 34.8229 94.258 34.9299 94.2974C35.037 94.3352 35.1354 94.3659 35.2252 94.3895L35.7164 94.5217C35.8424 94.5548 35.9825 94.6005 36.1368 94.6587C36.2927 94.717 36.4415 94.7965 36.5832 94.8973C36.7265 94.9965 36.8446 95.124 36.9375 95.2799C37.0304 95.4358 37.0768 95.6271 37.0768 95.8538C37.0768 96.1152 37.0084 96.3514 36.8714 96.5624C36.736 96.7734 36.5376 96.941 36.2762 97.0654C36.0164 97.1898 35.7007 97.252 35.3291 97.252C34.9827 97.252 34.6827 97.1961 34.4292 97.0843C34.1773 96.9725 33.9789 96.8167 33.8341 96.6167C33.6908 96.4167 33.6097 96.1845 33.5908 95.9199H34.1954C34.2112 96.1026 34.2726 96.2538 34.3796 96.3734C34.4883 96.4915 34.6253 96.5797 34.7906 96.6379C34.9575 96.6946 35.137 96.723 35.3291 96.723C35.5527 96.723 35.7534 96.6868 35.9314 96.6143C36.1093 96.5403 36.2502 96.438 36.3541 96.3073C36.458 96.175 36.51 96.0207 36.51 95.8444C36.51 95.6838 36.4651 95.5531 36.3754 95.4523C36.2856 95.3515 36.1675 95.2697 36.0211 95.2067C35.8747 95.1437 35.7164 95.0886 35.5464 95.0413L34.9512 94.8713C34.5733 94.7626 34.2741 94.6076 34.0537 94.406C33.8333 94.2045 33.723 93.9407 33.723 93.6148C33.723 93.344 33.7963 93.1078 33.9427 92.9062C34.0907 92.7031 34.2891 92.5457 34.5379 92.4339C34.7882 92.3205 35.0677 92.2638 35.3763 92.2638C35.6881 92.2638 35.9652 92.3197 36.2077 92.4315C36.4502 92.5417 36.6423 92.6929 36.784 92.885C36.9273 93.0771 37.0028 93.2952 37.0107 93.5392H36.4439ZM40.2506 95.6838V93.5392H40.808V97.167H40.2506V96.5529H40.2128C40.1277 96.7371 39.9955 96.8938 39.816 97.0229C39.6365 97.1505 39.4097 97.2142 39.1358 97.2142C38.909 97.2142 38.7075 97.1646 38.5311 97.0654C38.3548 96.9647 38.2162 96.8135 38.1155 96.612C38.0147 96.4088 37.9643 96.153 37.9643 95.8444V93.5392H38.5217V95.8066C38.5217 96.0711 38.5957 96.2821 38.7437 96.4395C38.8933 96.597 39.0838 96.6757 39.3153 96.6757C39.4538 96.6757 39.5948 96.6403 39.738 96.5694C39.8829 96.4986 40.0041 96.3899 40.1018 96.2435C40.201 96.0971 40.2506 95.9105 40.2506 95.6838ZM41.8289 98.5274V93.5392H42.3674V94.1155H42.4335C42.4744 94.0525 42.5311 93.9722 42.6035 93.8746C42.6775 93.7754 42.783 93.6872 42.92 93.6101C43.0586 93.5313 43.246 93.492 43.4821 93.492C43.7876 93.492 44.0568 93.5683 44.2899 93.7211C44.5229 93.8738 44.7048 94.0903 44.8355 94.3706C44.9662 94.6509 45.0315 94.9815 45.0315 95.3626C45.0315 95.7467 44.9662 96.0798 44.8355 96.3616C44.7048 96.6419 44.5237 96.8592 44.2922 97.0135C44.0608 97.1662 43.7939 97.2426 43.4916 97.2426C43.2585 97.2426 43.072 97.204 42.9318 97.1268C42.7917 97.0481 42.6838 96.9592 42.6083 96.86C42.5327 96.7592 42.4744 96.6757 42.4335 96.6096H42.3862V98.5274H41.8289ZM42.3768 95.3531C42.3768 95.6271 42.4169 95.8688 42.4973 96.0782C42.5776 96.286 42.6949 96.449 42.8492 96.5671C43.0035 96.6836 43.1924 96.7419 43.416 96.7419C43.649 96.7419 43.8435 96.6805 43.9994 96.5576C44.1568 96.4332 44.2749 96.2663 44.3537 96.0569C44.434 95.8459 44.4741 95.6113 44.4741 95.3531C44.4741 95.098 44.4347 94.8681 44.356 94.6635C44.2789 94.4572 44.1616 94.2942 44.0041 94.1746C43.8482 94.0533 43.6522 93.9927 43.416 93.9927C43.1893 93.9927 42.9987 94.0502 42.8444 94.1651C42.6901 94.2785 42.5736 94.4375 42.4949 94.6422C42.4162 94.8453 42.3768 95.0823 42.3768 95.3531ZM45.8818 98.5274V93.5392H46.4203V94.1155H46.4864C46.5273 94.0525 46.584 93.9722 46.6564 93.8746C46.7304 93.7754 46.8359 93.6872 46.9729 93.6101C47.1115 93.5313 47.2989 93.492 47.535 93.492C47.8405 93.492 48.1098 93.5683 48.3428 93.7211C48.5758 93.8738 48.7577 94.0903 48.8884 94.3706C49.0191 94.6509 49.0844 94.9815 49.0844 95.3626C49.0844 95.7467 49.0191 96.0798 48.8884 96.3616C48.7577 96.6419 48.5766 96.8592 48.3451 97.0135C48.1137 97.1662 47.8468 97.2426 47.5445 97.2426C47.3115 97.2426 47.1249 97.204 46.9847 97.1268C46.8446 97.0481 46.7367 96.9592 46.6612 96.86C46.5856 96.7592 46.5273 96.6757 46.4864 96.6096H46.4391V98.5274H45.8818ZM46.4297 95.3531C46.4297 95.6271 46.4699 95.8688 46.5502 96.0782C46.6305 96.286 46.7478 96.449 46.9021 96.5671C47.0564 96.6836 47.2453 96.7419 47.4689 96.7419C47.7019 96.7419 47.8964 96.6805 48.0523 96.5576C48.2097 96.4332 48.3278 96.2663 48.4066 96.0569C48.4869 95.8459 48.527 95.6113 48.527 95.3531C48.527 95.098 48.4876 94.8681 48.4089 94.6635C48.3318 94.4572 48.2145 94.2942 48.057 94.1746C47.9011 94.0533 47.7051 93.9927 47.4689 93.9927C47.2422 93.9927 47.0517 94.0502 46.8973 94.1651C46.743 94.2785 46.6265 94.4375 46.5478 94.6422C46.4691 94.8453 46.4297 95.0823 46.4297 95.3531ZM51.4084 97.2426C51.0809 97.2426 50.7936 97.1646 50.5464 97.0087C50.3007 96.8529 50.1086 96.6348 49.9701 96.3545C49.8331 96.0743 49.7646 95.7467 49.7646 95.372C49.7646 94.9941 49.8331 94.6642 49.9701 94.3824C50.1086 94.1005 50.3007 93.8817 50.5464 93.7258C50.7936 93.5699 51.0809 93.492 51.4084 93.492C51.736 93.492 52.0225 93.5699 52.2682 93.7258C52.5154 93.8817 52.7075 94.1005 52.8444 94.3824C52.983 94.6642 53.0523 94.9941 53.0523 95.372C53.0523 95.7467 52.983 96.0743 52.8444 96.3545C52.7075 96.6348 52.5154 96.8529 52.2682 97.0087C52.0225 97.1646 51.736 97.2426 51.4084 97.2426ZM51.4084 96.7419C51.6572 96.7419 51.8619 96.6781 52.0225 96.5506C52.1831 96.423 52.302 96.2553 52.3792 96.0475C52.4563 95.8396 52.4949 95.6145 52.4949 95.372C52.4949 95.1295 52.4563 94.9036 52.3792 94.6942C52.302 94.4847 52.1831 94.3155 52.0225 94.1864C51.8619 94.0572 51.6572 93.9927 51.4084 93.9927C51.1597 93.9927 50.955 94.0572 50.7944 94.1864C50.6338 94.3155 50.5149 94.4847 50.4377 94.6942C50.3606 94.9036 50.322 95.1295 50.322 95.372C50.322 95.6145 50.3606 95.8396 50.4377 96.0475C50.5149 96.2553 50.6338 96.423 50.7944 96.5506C50.955 96.6781 51.1597 96.7419 51.4084 96.7419ZM53.9031 97.167V93.5392H54.4416V94.0872H54.4794C54.5455 93.9077 54.6652 93.762 54.8384 93.6502C55.0116 93.5384 55.2069 93.4825 55.4241 93.4825C55.4651 93.4825 55.5163 93.4833 55.5777 93.4849C55.6391 93.4865 55.6855 93.4888 55.717 93.492V94.0588C55.6981 94.0541 55.6548 94.047 55.5871 94.0376C55.521 94.0265 55.4509 94.021 55.3769 94.021C55.2006 94.021 55.0431 94.058 54.9045 94.132C54.7676 94.2045 54.6589 94.3052 54.5786 94.4344C54.4999 94.5619 54.4605 94.7075 54.4605 94.8713V97.167H53.9031ZM58.1828 93.5392V94.0116H56.3027V93.5392H58.1828ZM56.8507 92.6701H57.4081V96.1278C57.4081 96.2852 57.4309 96.4033 57.4766 96.4821C57.5238 96.5592 57.5836 96.6112 57.6561 96.6379C57.7301 96.6631 57.808 96.6757 57.8899 96.6757C57.9513 96.6757 58.0017 96.6726 58.0411 96.6663C58.0804 96.6584 58.1119 96.6521 58.1355 96.6474L58.2489 97.1481C58.2111 97.1623 58.1584 97.1764 58.0907 97.1906C58.0229 97.2064 57.9371 97.2142 57.8332 97.2142C57.6758 97.2142 57.5215 97.1804 57.3703 97.1127C57.2207 97.045 57.0963 96.9418 56.9971 96.8033C56.8995 96.6647 56.8507 96.4899 56.8507 96.2789V92.6701Z" fill="#050505"/>
<rect x="12.3105" y="109.668" width="158.197" height="21.4016" rx="5.70079" fill="#F0F0F0"/>
<g clip-path="url(#clip2_4255_21696)">
<rect x="19.9121" y="115.618" width="9.50131" height="9.50131" rx="1.90026" fill="black"/>
<path fill-rule="evenodd" clip-rule="evenodd" d="M29.2871 118.347C29.5923 118.652 29.5923 119.146 29.2871 119.451L24.9681 123.77C24.816 123.923 24.616 123.999 24.416 123.999C24.2171 123.999 24.016 123.923 23.8639 123.77L21.391 121.298C21.0858 120.993 21.0858 120.499 21.391 120.194C21.6962 119.889 22.19 119.889 22.4952 120.194L24.416 122.113L28.1829 118.347C28.4882 118.042 28.9819 118.042 29.2871 118.347Z" fill="white"/>
</g>
<path d="M33.7986 122.369V117.532H35.433C35.8125 117.532 36.1227 117.601 36.3636 117.738C36.6061 117.873 36.7856 118.056 36.9021 118.288C37.0186 118.519 37.0768 118.778 37.0768 119.063C37.0768 119.348 37.0186 119.607 36.9021 119.84C36.7871 120.073 36.6092 120.258 36.3683 120.397C36.1274 120.534 35.8188 120.602 35.4425 120.602H34.271V120.083H35.4236C35.6834 120.083 35.892 120.038 36.0495 119.948C36.2069 119.859 36.3211 119.737 36.3919 119.585C36.4643 119.43 36.5006 119.256 36.5006 119.063C36.5006 118.869 36.4643 118.696 36.3919 118.543C36.3211 118.39 36.2061 118.271 36.0471 118.184C35.8881 118.096 35.6771 118.052 35.4141 118.052H34.3844V122.369H33.7986ZM37.9448 122.369V118.741H38.4833V119.289H38.5211C38.5872 119.11 38.7069 118.964 38.8801 118.852C39.0533 118.741 39.2486 118.685 39.4658 118.685C39.5068 118.685 39.558 118.685 39.6194 118.687C39.6808 118.689 39.7272 118.691 39.7587 118.694V119.261C39.7398 119.256 39.6965 119.249 39.6288 119.24C39.5627 119.229 39.4926 119.223 39.4186 119.223C39.2423 119.223 39.0848 119.26 38.9462 119.334C38.8093 119.407 38.7006 119.507 38.6203 119.637C38.5416 119.764 38.5022 119.91 38.5022 120.073V122.369H37.9448ZM40.4194 122.369V118.741H40.9768V122.369H40.4194ZM40.7029 118.137C40.5942 118.137 40.5005 118.1 40.4218 118.026C40.3446 117.952 40.3061 117.863 40.3061 117.759C40.3061 117.655 40.3446 117.566 40.4218 117.492C40.5005 117.418 40.5942 117.381 40.7029 117.381C40.8115 117.381 40.9044 117.418 40.9815 117.492C41.0603 117.566 41.0996 117.655 41.0996 117.759C41.0996 117.863 41.0603 117.952 40.9815 118.026C40.9044 118.1 40.8115 118.137 40.7029 118.137ZM43.4715 122.445C43.1314 122.445 42.8385 122.364 42.5929 122.204C42.3473 122.043 42.1583 121.822 42.0261 121.54C41.8938 121.258 41.8277 120.936 41.8277 120.574C41.8277 120.206 41.8954 119.881 42.0308 119.599C42.1678 119.315 42.3583 119.094 42.6024 118.935C42.848 118.774 43.1346 118.694 43.4621 118.694C43.7171 118.694 43.947 118.741 44.1517 118.836C44.3564 118.93 44.5241 119.063 44.6548 119.233C44.7855 119.403 44.8666 119.601 44.8981 119.828H44.3407C44.2981 119.662 44.2037 119.516 44.0572 119.389C43.9124 119.259 43.7171 119.195 43.4715 119.195C43.2542 119.195 43.0637 119.252 42.8999 119.365C42.7378 119.477 42.611 119.635 42.5197 119.84C42.4299 120.043 42.3851 120.281 42.3851 120.555C42.3851 120.836 42.4292 121.08 42.5173 121.287C42.6071 121.495 42.733 121.657 42.8952 121.772C43.059 121.887 43.2511 121.944 43.4715 121.944C43.6164 121.944 43.7478 121.919 43.8659 121.868C43.984 121.818 44.084 121.746 44.1659 121.651C44.2478 121.557 44.306 121.443 44.3407 121.311H44.8981C44.8666 121.525 44.7886 121.718 44.6642 121.89C44.5414 122.06 44.3785 122.195 44.1753 122.296C43.9738 122.395 43.7392 122.445 43.4715 122.445ZM45.7129 122.369V118.741H46.2703V122.369H45.7129ZM45.9963 118.137C45.8877 118.137 45.794 118.1 45.7152 118.026C45.6381 117.952 45.5995 117.863 45.5995 117.759C45.5995 117.655 45.6381 117.566 45.7152 117.492C45.794 117.418 45.8877 117.381 45.9963 117.381C46.1049 117.381 46.1978 117.418 46.275 117.492C46.3537 117.566 46.3931 117.655 46.3931 117.759C46.3931 117.863 46.3537 117.952 46.275 118.026C46.1978 118.1 46.1049 118.137 45.9963 118.137ZM47.8486 120.187V122.369H47.2912V118.741H47.8297V119.308H47.8769C47.9619 119.124 48.0911 118.976 48.2643 118.864C48.4375 118.751 48.661 118.694 48.935 118.694C49.1806 118.694 49.3956 118.745 49.5798 118.845C49.764 118.944 49.9073 119.096 50.0096 119.299C50.112 119.5 50.1632 119.755 50.1632 120.064V122.369H49.6058V120.102C49.6058 119.817 49.5318 119.595 49.3838 119.436C49.2358 119.275 49.0326 119.195 48.7744 119.195C48.5965 119.195 48.4375 119.233 48.2973 119.311C48.1588 119.388 48.0493 119.5 47.969 119.648C47.8887 119.796 47.8486 119.976 47.8486 120.187ZM52.646 123.805C52.3768 123.805 52.1453 123.77 51.9517 123.701C51.758 123.634 51.5966 123.544 51.4675 123.432C51.34 123.322 51.2384 123.204 51.1628 123.078L51.6068 122.766C51.6572 122.832 51.721 122.908 51.7981 122.993C51.8753 123.079 51.9808 123.154 52.1146 123.217C52.25 123.282 52.4272 123.314 52.646 123.314C52.9389 123.314 53.1806 123.243 53.3711 123.101C53.5616 122.96 53.6569 122.738 53.6569 122.435V121.698H53.6097C53.5687 121.765 53.5105 121.846 53.4349 121.944C53.3609 122.04 53.2538 122.126 53.1137 122.201C52.9751 122.275 52.7878 122.312 52.5516 122.312C52.2587 122.312 51.9958 122.243 51.7627 122.105C51.5313 121.966 51.3478 121.765 51.2124 121.5C51.0786 121.235 51.0117 120.914 51.0117 120.536C51.0117 120.165 51.077 119.841 51.2077 119.566C51.3384 119.289 51.5202 119.074 51.7533 118.923C51.9863 118.77 52.2556 118.694 52.561 118.694C52.7972 118.694 52.9846 118.733 53.1231 118.812C53.2633 118.889 53.3703 118.978 53.4443 119.077C53.5199 119.174 53.5782 119.255 53.6191 119.318H53.6758V118.741H54.2143V122.473C54.2143 122.785 54.1434 123.038 54.0017 123.234C53.8616 123.43 53.6727 123.574 53.4349 123.666C53.1987 123.759 52.9358 123.805 52.646 123.805ZM52.6271 121.812C52.8507 121.812 53.0397 121.761 53.194 121.658C53.3483 121.556 53.4656 121.409 53.5459 121.217C53.6262 121.024 53.6664 120.795 53.6664 120.527C53.6664 120.266 53.627 120.035 53.5483 119.835C53.4695 119.635 53.353 119.478 53.1987 119.365C53.0444 119.252 52.8539 119.195 52.6271 119.195C52.391 119.195 52.1941 119.255 52.0367 119.374C51.8808 119.494 51.7635 119.655 51.6848 119.856C51.6076 120.058 51.569 120.281 51.569 120.527C51.569 120.779 51.6084 121.002 51.6871 121.195C51.7674 121.387 51.8855 121.539 52.0414 121.649C52.1989 121.757 52.3941 121.812 52.6271 121.812Z" fill="#050505"/>
<rect x="12.3105" y="134.87" width="158.197" height="21.4016" rx="5.70079" fill="#F0F0F0"/>
<path fill-rule="evenodd" clip-rule="evenodd" d="M26.3778 141.612C27.7194 141.612 28.6209 142.554 28.6209 143.954V147.188C28.6209 148.589 27.7194 149.53 26.3774 149.53H22.9458C21.6042 149.53 20.7031 148.589 20.7031 147.188V143.954C20.7031 142.554 21.6042 141.612 22.9458 141.612H26.3778ZM26.3778 142.206H22.9458C21.9442 142.206 21.297 142.892 21.297 143.954V147.188C21.297 148.25 21.9442 148.936 22.9458 148.936H26.3774C27.3794 148.936 28.0271 148.25 28.0271 147.188V143.954C28.0271 142.892 27.3794 142.206 26.3778 142.206Z" fill="black"/>
<path d="M37.8799 145.153C37.8799 145.663 37.7878 146.104 37.6035 146.475C37.4193 146.847 37.1666 147.134 36.8454 147.335C36.5242 147.537 36.1573 147.637 35.7448 147.637C35.3322 147.637 34.9654 147.537 34.6442 147.335C34.323 147.134 34.0702 146.847 33.886 146.475C33.7018 146.104 33.6097 145.663 33.6097 145.153C33.6097 144.643 33.7018 144.202 33.886 143.83C34.0702 143.459 34.323 143.172 34.6442 142.97C34.9654 142.769 35.3322 142.668 35.7448 142.668C36.1573 142.668 36.5242 142.769 36.8454 142.97C37.1666 143.172 37.4193 143.459 37.6035 143.83C37.7878 144.202 37.8799 144.643 37.8799 145.153ZM37.313 145.153C37.313 144.734 37.243 144.38 37.1028 144.092C36.9643 143.804 36.7761 143.586 36.5383 143.438C36.3022 143.29 36.0376 143.216 35.7448 143.216C35.4519 143.216 35.1866 143.29 34.9488 143.438C34.7127 143.586 34.5245 143.804 34.3844 144.092C34.2458 144.38 34.1765 144.734 34.1765 145.153C34.1765 145.572 34.2458 145.925 34.3844 146.213C34.5245 146.501 34.7127 146.719 34.9488 146.867C35.1866 147.015 35.4519 147.089 35.7448 147.089C36.0376 147.089 36.3022 147.015 36.5383 146.867C36.7761 146.719 36.9643 146.501 37.1028 146.213C37.243 145.925 37.313 145.572 37.313 145.153ZM40.3669 143.944V144.416H38.4869V143.944H40.3669ZM39.0348 143.074H39.5922V146.532C39.5922 146.69 39.615 146.808 39.6607 146.886C39.7079 146.964 39.7678 147.015 39.8402 147.042C39.9142 147.067 39.9921 147.08 40.074 147.08C40.1354 147.08 40.1858 147.077 40.2252 147.071C40.2645 147.063 40.296 147.056 40.3196 147.052L40.433 147.552C40.3952 147.567 40.3425 147.581 40.2748 147.595C40.2071 147.611 40.1212 147.619 40.0173 147.619C39.8599 147.619 39.7056 147.585 39.5544 147.517C39.4048 147.449 39.2804 147.346 39.1812 147.208C39.0836 147.069 39.0348 146.894 39.0348 146.683V143.074ZM41.8407 145.389V147.571H41.2833V142.734H41.8407V144.51H41.8879C41.9729 144.323 42.1005 144.174 42.2705 144.064C42.4421 143.952 42.6705 143.896 42.9554 143.896C43.2027 143.896 43.4192 143.946 43.605 144.045C43.7907 144.143 43.9348 144.293 44.0372 144.496C44.1411 144.698 44.193 144.954 44.193 145.266V147.571H43.6357V145.304C43.6357 145.016 43.5609 144.793 43.4113 144.636C43.2633 144.477 43.0578 144.397 42.7948 144.397C42.6122 144.397 42.4484 144.436 42.3036 144.513C42.1603 144.59 42.0469 144.702 41.9635 144.85C41.8816 144.998 41.8407 145.178 41.8407 145.389ZM46.7338 147.647C46.3842 147.647 46.0827 147.57 45.8292 147.415C45.5773 147.26 45.3828 147.042 45.2458 146.764C45.1104 146.483 45.0427 146.157 45.0427 145.786C45.0427 145.414 45.1104 145.087 45.2458 144.803C45.3828 144.518 45.5733 144.296 45.8174 144.137C46.063 143.977 46.3496 143.896 46.6771 143.896C46.866 143.896 47.0526 143.928 47.2369 143.991C47.4211 144.054 47.5888 144.156 47.7399 144.298C47.8911 144.438 48.0115 144.624 48.1013 144.855C48.191 145.087 48.2359 145.372 48.2359 145.71V145.946H45.4395V145.465H47.6691C47.6691 145.26 47.6281 145.077 47.5463 144.917C47.466 144.756 47.351 144.629 47.2014 144.536C47.0534 144.443 46.8786 144.397 46.6771 144.397C46.4551 144.397 46.263 144.452 46.1008 144.562C45.9402 144.671 45.8166 144.813 45.73 144.987C45.6434 145.162 45.6001 145.35 45.6001 145.55V145.871C45.6001 146.145 45.6473 146.377 45.7418 146.568C45.8379 146.756 45.9709 146.901 46.141 147C46.311 147.097 46.5086 147.146 46.7338 147.146C46.8802 147.146 47.0125 147.126 47.1306 147.085C47.2502 147.042 47.3534 146.979 47.44 146.896C47.5266 146.811 47.5935 146.705 47.6407 146.579L48.1792 146.73C48.1225 146.913 48.0273 147.074 47.8934 147.212C47.7596 147.349 47.5943 147.456 47.3975 147.533C47.2006 147.609 46.9794 147.647 46.7338 147.647ZM49.0838 147.571V143.944H49.6223V144.491H49.6601C49.7262 144.312 49.8459 144.166 50.0191 144.055C50.1923 143.943 50.3875 143.887 50.6048 143.887C50.6458 143.887 50.6969 143.888 50.7583 143.889C50.8198 143.891 50.8662 143.893 50.8977 143.896V144.463C50.8788 144.458 50.8355 144.451 50.7678 144.442C50.7017 144.431 50.6316 144.425 50.5576 144.425C50.3812 144.425 50.2238 144.462 50.0852 144.536C49.9482 144.609 49.8396 144.71 49.7593 144.839C49.6806 144.966 49.6412 145.112 49.6412 145.276V147.571H49.0838ZM54.1281 144.756L53.6274 144.898C53.5959 144.814 53.5494 144.733 53.488 144.654C53.4282 144.574 53.3463 144.508 53.2424 144.456C53.1385 144.404 53.0054 144.378 52.8433 144.378C52.6212 144.378 52.4362 144.429 52.2882 144.532C52.1418 144.632 52.0686 144.761 52.0686 144.917C52.0686 145.055 52.119 145.165 52.2197 145.245C52.3205 145.325 52.478 145.392 52.6921 145.446L53.2306 145.578C53.555 145.657 53.7966 145.777 53.9557 145.939C54.1147 146.1 54.1942 146.307 54.1942 146.56C54.1942 146.768 54.1344 146.954 54.0147 147.118C53.8966 147.282 53.7313 147.411 53.5187 147.505C53.3062 147.6 53.059 147.647 52.7771 147.647C52.4071 147.647 52.1009 147.567 51.8584 147.406C51.6159 147.245 51.4624 147.011 51.3978 146.702L51.9269 146.57C51.9773 146.765 52.0725 146.912 52.2126 147.009C52.3544 147.107 52.5394 147.156 52.7677 147.156C53.0275 147.156 53.2337 147.1 53.3865 146.99C53.5408 146.878 53.6179 146.745 53.6179 146.589C53.6179 146.463 53.5738 146.357 53.4857 146.272C53.3975 146.186 53.2621 146.121 53.0794 146.079L52.4748 145.937C52.1426 145.858 51.8985 145.736 51.7426 145.571C51.5883 145.404 51.5112 145.195 51.5112 144.945C51.5112 144.74 51.5687 144.559 51.6836 144.402C51.8001 144.244 51.9584 144.121 52.1583 144.031C52.3599 143.941 52.5882 143.896 52.8433 143.896C53.2023 143.896 53.4841 143.975 53.6888 144.132C53.8951 144.29 54.0415 144.498 54.1281 144.756Z" fill="#050505"/>
<rect x="12.3105" y="163.872" width="158.197" height="23.4016" rx="5.70079" fill="#050505"/>
<path d="M82.1008 173.427C82.0684 173.154 81.937 172.941 81.7067 172.79C81.4763 172.639 81.1938 172.563 80.8591 172.563C80.6144 172.563 80.4002 172.603 80.2167 172.682C80.0349 172.761 79.8928 172.87 79.7902 173.009C79.6894 173.147 79.6391 173.305 79.6391 173.481C79.6391 173.629 79.6741 173.756 79.7443 173.862C79.8163 173.966 79.9081 174.053 80.0196 174.124C80.1312 174.192 80.2482 174.249 80.3705 174.294C80.4929 174.337 80.6054 174.372 80.708 174.399L81.2694 174.55C81.4134 174.588 81.5735 174.64 81.7499 174.707C81.928 174.773 82.0981 174.864 82.26 174.979C82.4238 175.093 82.5587 175.238 82.6649 175.417C82.7711 175.595 82.8242 175.813 82.8242 176.072C82.8242 176.371 82.7459 176.641 82.5893 176.882C82.4346 177.123 82.2078 177.315 81.9091 177.457C81.6122 177.599 81.2514 177.67 80.8267 177.67C80.4308 177.67 80.088 177.607 79.7983 177.479C79.5104 177.351 79.2837 177.173 79.1181 176.944C78.9543 176.716 78.8617 176.45 78.8401 176.148H79.5311C79.5491 176.357 79.6193 176.53 79.7416 176.666C79.8658 176.801 80.0223 176.902 80.2113 176.969C80.402 177.033 80.6072 177.066 80.8267 177.066C81.0822 177.066 81.3117 177.024 81.515 176.942C81.7184 176.857 81.8794 176.74 81.9982 176.591C82.117 176.44 82.1763 176.263 82.1763 176.062C82.1763 175.878 82.1251 175.729 82.0225 175.614C81.9199 175.498 81.7849 175.405 81.6176 175.333C81.4502 175.261 81.2694 175.198 81.075 175.144L80.3948 174.95C79.963 174.825 79.6211 174.648 79.3691 174.418C79.1172 174.187 78.9912 173.886 78.9912 173.514C78.9912 173.204 79.0749 172.934 79.2423 172.704C79.4114 172.472 79.6382 172.292 79.9225 172.164C80.2086 172.034 80.528 171.97 80.8807 171.97C81.237 171.97 81.5537 172.034 81.8308 172.161C82.108 172.287 82.3275 172.46 82.4894 172.68C82.6532 172.899 82.7396 173.148 82.7486 173.427H82.1008ZM86.4513 175.878V173.427H87.0883V177.573H86.4513V176.871H86.4081C86.3109 177.082 86.1597 177.261 85.9546 177.409C85.7495 177.554 85.4903 177.627 85.1772 177.627C84.9181 177.627 84.6878 177.571 84.4862 177.457C84.2847 177.342 84.1263 177.169 84.0111 176.939C83.896 176.707 83.8384 176.414 83.8384 176.062V173.427H84.4754V176.018C84.4754 176.321 84.56 176.562 84.7291 176.742C84.9001 176.922 85.1178 177.012 85.3824 177.012C85.5407 177.012 85.7018 176.971 85.8655 176.89C86.0311 176.809 86.1696 176.685 86.2812 176.518C86.3946 176.35 86.4513 176.137 86.4513 175.878ZM88.3414 177.573V172.045H88.9784V174.086H89.0324C89.0792 174.014 89.144 173.922 89.2267 173.811C89.3113 173.697 89.4319 173.596 89.5884 173.508C89.7468 173.418 89.9609 173.373 90.2309 173.373C90.58 173.373 90.8877 173.461 91.154 173.635C91.4203 173.81 91.6282 174.057 91.7775 174.377C91.9269 174.698 92.0016 175.076 92.0016 175.511C92.0016 175.95 91.9269 176.331 91.7775 176.653C91.6282 176.973 91.4212 177.221 91.1567 177.398C90.8922 177.572 90.5872 177.66 90.2417 177.66C89.9753 177.66 89.7621 177.616 89.6019 177.527C89.4418 177.437 89.3185 177.336 89.2321 177.222C89.1458 177.107 89.0792 177.012 89.0324 176.936H88.9568V177.573H88.3414ZM88.9676 175.5C88.9676 175.813 89.0135 176.09 89.1053 176.329C89.1971 176.566 89.3311 176.753 89.5075 176.888C89.6838 177.021 89.8998 177.087 90.1553 177.087C90.4216 177.087 90.6438 177.017 90.822 176.877C91.0019 176.735 91.1369 176.544 91.2269 176.305C91.3187 176.063 91.3645 175.795 91.3645 175.5C91.3645 175.209 91.3196 174.946 91.2296 174.712C91.1414 174.476 91.0073 174.29 90.8274 174.153C90.6492 174.015 90.4252 173.945 90.1553 173.945C89.8962 173.945 89.6784 174.011 89.5021 174.143C89.3257 174.272 89.1926 174.454 89.1026 174.688C89.0126 174.92 88.9676 175.191 88.9676 175.5ZM92.976 177.573V173.427H93.5914V174.075H93.6454C93.7318 173.854 93.8712 173.682 94.0638 173.559C94.2563 173.435 94.4876 173.373 94.7575 173.373C95.031 173.373 95.2586 173.435 95.4404 173.559C95.6239 173.682 95.767 173.854 95.8696 174.075H95.9128C96.0189 173.861 96.1782 173.691 96.3905 173.565C96.6029 173.437 96.8575 173.373 97.1544 173.373C97.5251 173.373 97.8283 173.489 98.064 173.721C98.2998 173.952 98.4176 174.311 98.4176 174.798V177.573H97.7806V174.798C97.7806 174.493 97.6969 174.274 97.5296 174.143C97.3622 174.011 97.1652 173.945 96.9385 173.945C96.6469 173.945 96.4211 174.034 96.261 174.21C96.1008 174.385 96.0207 174.606 96.0207 174.874V177.573H95.3729V174.734C95.3729 174.498 95.2964 174.308 95.1435 174.164C94.9905 174.018 94.7935 173.945 94.5523 173.945C94.3868 173.945 94.232 173.99 94.0881 174.078C93.9459 174.166 93.8307 174.288 93.7426 174.445C93.6562 174.6 93.613 174.779 93.613 174.982V177.573H92.976ZM99.5824 177.573V173.427H100.219V177.573H99.5824ZM99.9063 172.736C99.7821 172.736 99.675 172.694 99.5851 172.609C99.4969 172.525 99.4528 172.423 99.4528 172.304C99.4528 172.186 99.4969 172.084 99.5851 171.999C99.675 171.915 99.7821 171.872 99.9063 171.872C100.03 171.872 100.137 171.915 100.225 171.999C100.315 172.084 100.36 172.186 100.36 172.304C100.36 172.423 100.315 172.525 100.225 172.609C100.137 172.694 100.03 172.736 99.9063 172.736ZM103.189 173.427V173.967H101.041V173.427H103.189ZM101.667 172.434H102.304V176.386C102.304 176.566 102.33 176.7 102.382 176.79C102.436 176.879 102.505 176.938 102.587 176.969C102.672 176.997 102.761 177.012 102.855 177.012C102.925 177.012 102.982 177.008 103.027 177.001C103.072 176.992 103.108 176.985 103.135 176.979L103.265 177.552C103.222 177.568 103.161 177.584 103.084 177.6C103.007 177.618 102.908 177.627 102.79 177.627C102.61 177.627 102.433 177.589 102.261 177.511C102.09 177.434 101.948 177.316 101.834 177.158C101.723 176.999 101.667 176.799 101.667 176.558V172.434Z" fill="white"/>
</g>
<defs>
<clipPath id="clip0_4255_21696">
<rect x="19.9121" y="65.2139" width="9.50131" height="9.50131" rx="2.85039" fill="white"/>
</clipPath>
<clipPath id="clip1_4255_21696">
<rect x="19.9121" y="90.416" width="9.50131" height="9.50131" rx="1.90026" fill="white"/>
</clipPath>
<clipPath id="clip2_4255_21696">
<rect x="19.9121" y="115.618" width="9.50131" height="9.50131" rx="1.90026" fill="white"/>
</clipPath>
</defs>
</svg>
