<svg width="301" height="124" viewBox="0 0 301 124" fill="none" xmlns="http://www.w3.org/2000/svg">
<g opacity="0.7">
<rect x="0.908203" y="0.90918" width="340" height="123.078" rx="7.06494" fill="white"/>
<path d="M12.3526 36.9873V29.2801H13.5155V32.6294H17.3578V29.2801H18.5244V36.9873H17.3578V33.6267H13.5155V36.9873H12.3526ZM22.5624 37.104C22.0205 37.104 21.5476 36.9798 21.1436 36.7314C20.7397 36.483 20.4261 36.1355 20.2028 35.689C19.9795 35.2424 19.8679 34.7206 19.8679 34.1234C19.8679 33.5238 19.9795 32.9995 20.2028 32.5504C20.4261 32.1013 20.7397 31.7526 21.1436 31.5042C21.5476 31.2558 22.0205 31.1316 22.5624 31.1316C23.1043 31.1316 23.5772 31.2558 23.9811 31.5042C24.3851 31.7526 24.6987 32.1013 24.922 32.5504C25.1452 32.9995 25.2569 33.5238 25.2569 34.1234C25.2569 34.7206 25.1452 35.2424 24.922 35.689C24.6987 36.1355 24.3851 36.483 23.9811 36.7314C23.5772 36.9798 23.1043 37.104 22.5624 37.104ZM22.5661 36.1594C22.9174 36.1594 23.2084 36.0666 23.4392 35.8809C23.67 35.6952 23.8406 35.4481 23.951 35.1395C24.0639 34.8309 24.1204 34.491 24.1204 34.1197C24.1204 33.7509 24.0639 33.4122 23.951 33.1036C23.8406 32.7925 23.67 32.5429 23.4392 32.3547C23.2084 32.1665 22.9174 32.0725 22.5661 32.0725C22.2124 32.0725 21.9189 32.1665 21.6855 32.3547C21.4547 32.5429 21.2829 32.7925 21.17 33.1036C21.0596 33.4122 21.0044 33.7509 21.0044 34.1197C21.0044 34.491 21.0596 34.8309 21.17 35.1395C21.2829 35.4481 21.4547 35.6952 21.6855 35.8809C21.9189 36.0666 22.2124 36.1594 22.5661 36.1594ZM27.5901 36.9873L25.8891 31.2069H27.052L28.1847 35.4519H28.2412L29.3777 31.2069H30.5405L31.6695 35.4331H31.726L32.8512 31.2069H34.014L32.3168 36.9873H31.169L29.9949 32.8138H29.9083L28.7342 36.9873H27.5901ZM39.0117 29.2801V36.9873H37.8865V29.2801H39.0117ZM40.5255 36.9873V31.2069H41.6507V36.9873H40.5255ZM41.0937 30.315C40.898 30.315 40.7299 30.2498 40.5894 30.1193C40.4515 29.9863 40.3825 29.8283 40.3825 29.6451C40.3825 29.4595 40.4515 29.3014 40.5894 29.171C40.7299 29.038 40.898 28.9715 41.0937 28.9715C41.2894 28.9715 41.4563 29.038 41.5942 29.171C41.7347 29.3014 41.805 29.4595 41.805 29.6451C41.805 29.8283 41.7347 29.9863 41.5942 30.1193C41.4563 30.2498 41.2894 30.315 41.0937 30.315ZM44.1994 35.0266L44.1918 33.653H44.3875L46.6907 31.2069H48.0379L45.4111 33.9917H45.2343L44.1994 35.0266ZM43.1645 36.9873V29.2801H44.2897V36.9873H43.1645ZM46.8149 36.9873L44.745 34.2401L45.5203 33.4536L48.196 36.9873H46.8149ZM51.3167 37.104C50.7472 37.104 50.2567 36.9823 49.8452 36.7389C49.4363 36.4931 49.1202 36.1481 48.8969 35.704C48.6761 35.2574 48.5657 34.7344 48.5657 34.1347C48.5657 33.5426 48.6761 33.0208 48.8969 32.5692C49.1202 32.1176 49.4313 31.7651 49.8302 31.5117C50.2316 31.2583 50.7008 31.1316 51.2376 31.1316C51.5638 31.1316 51.8799 31.1856 52.186 31.2935C52.4921 31.4013 52.7668 31.5707 53.0102 31.8015C53.2535 32.0323 53.4454 32.3321 53.5859 32.7009C53.7264 33.0672 53.7967 33.5125 53.7967 34.0369V34.4358H49.2017V33.5928H52.694C52.694 33.2968 52.6338 33.0346 52.5134 32.8063C52.393 32.5755 52.2236 32.3936 52.0054 32.2606C51.7896 32.1277 51.5362 32.0612 51.2452 32.0612C50.9291 32.0612 50.6531 32.1389 50.4173 32.2945C50.1839 32.4475 50.0033 32.6482 49.8753 32.8966C49.7499 33.1425 49.6872 33.4097 49.6872 33.6982V34.3568C49.6872 34.7431 49.7549 35.0718 49.8904 35.3428C50.0284 35.6137 50.2203 35.8207 50.4662 35.9637C50.712 36.1042 50.9993 36.1744 51.328 36.1744C51.5412 36.1744 51.7357 36.1443 51.9113 36.0841C52.0869 36.0214 52.2387 35.9286 52.3666 35.8056C52.4946 35.6827 52.5924 35.5309 52.6602 35.3503L53.7252 35.5422C53.6399 35.8558 53.4868 36.1305 53.2661 36.3664C53.0478 36.5997 52.7731 36.7816 52.4419 36.912C52.1132 37.04 51.7382 37.104 51.3167 37.104ZM56.1704 29.2801V36.9873H55.0452V29.2801H56.1704ZM58.3954 39.155C58.2273 39.155 58.0743 39.1412 57.9363 39.1136C57.7983 39.0885 57.6954 39.0609 57.6277 39.0308L57.8987 38.1088C58.1044 38.164 58.2875 38.1878 58.4481 38.1803C58.6087 38.1727 58.7504 38.1125 58.8734 37.9996C58.9988 37.8867 59.1092 37.7023 59.2045 37.4464L59.3438 37.0626L57.2288 31.2069H58.433L59.897 35.6927H59.9572L61.4211 31.2069H62.6291L60.2469 37.7588C60.1366 38.0598 59.9961 38.3145 59.8255 38.5227C59.6549 38.7335 59.4516 38.8915 59.2158 38.9969C58.98 39.1023 58.7065 39.155 58.3954 39.155ZM68.1734 37.1153C67.8071 37.1153 67.4759 37.0475 67.1799 36.912C66.8838 36.7741 66.6492 36.5746 66.4761 36.3137C66.3055 36.0528 66.2202 35.7329 66.2202 35.354C66.2202 35.0279 66.2829 34.7594 66.4084 34.5487C66.5338 34.338 66.7032 34.1711 66.9164 34.0482C67.1297 33.9252 67.368 33.8324 67.6315 33.7697C67.8949 33.707 68.1633 33.6593 68.4368 33.6267C68.783 33.5866 69.064 33.5539 69.2798 33.5288C69.4955 33.5013 69.6523 33.4573 69.7502 33.3971C69.848 33.3369 69.8969 33.2391 69.8969 33.1036V33.0773C69.8969 32.7486 69.8041 32.4939 69.6185 32.3133C69.4353 32.1327 69.1619 32.0424 68.7981 32.0424C68.4192 32.0424 68.1207 32.1264 67.9024 32.2945C67.6866 32.4601 67.5374 32.6445 67.4546 32.8477L66.3971 32.6068C66.5225 32.2556 66.7057 31.9721 66.9465 31.7563C67.1899 31.5381 67.4696 31.38 67.7857 31.2822C68.1019 31.1818 68.4343 31.1316 68.783 31.1316C69.0138 31.1316 69.2584 31.1592 69.5169 31.2144C69.7778 31.2671 70.0211 31.365 70.2469 31.508C70.4752 31.651 70.6621 31.8554 70.8077 32.1214C70.9532 32.3848 71.0259 32.7273 71.0259 33.1488V36.9873H69.9271V36.197H69.8819C69.8091 36.3425 69.7 36.4855 69.5545 36.626C69.409 36.7665 69.2221 36.8832 68.9938 36.976C68.7655 37.0688 68.492 37.1153 68.1734 37.1153ZM68.418 36.2121C68.7291 36.2121 68.995 36.1506 69.2158 36.0277C69.4391 35.9047 69.6084 35.7442 69.7238 35.546C69.8418 35.3453 69.9007 35.1308 69.9007 34.9024V34.1573C69.8606 34.1975 69.7828 34.2351 69.6674 34.2702C69.5545 34.3028 69.4253 34.3317 69.2798 34.3568C69.1343 34.3794 68.9925 34.4007 68.8545 34.4207C68.7165 34.4383 68.6011 34.4534 68.5083 34.4659C68.29 34.4935 68.0906 34.5399 67.9099 34.6051C67.7318 34.6704 67.5888 34.7645 67.4809 34.8874C67.3755 35.0078 67.3229 35.1684 67.3229 35.3691C67.3229 35.6476 67.4257 35.8583 67.6315 36.0013C67.8372 36.1418 68.0994 36.2121 68.418 36.2121ZM72.5247 36.9873V31.2069H73.6122V32.1251H73.6725C73.7778 31.814 73.9635 31.5694 74.2294 31.3913C74.4979 31.2107 74.8014 31.1203 75.1401 31.1203C75.2104 31.1203 75.2932 31.1229 75.3885 31.1279C75.4864 31.1329 75.5629 31.1392 75.6181 31.1467V32.223C75.5729 32.2104 75.4926 32.1966 75.3772 32.1816C75.2618 32.164 75.1464 32.1553 75.031 32.1553C74.7651 32.1553 74.528 32.2117 74.3197 32.3246C74.114 32.435 73.9509 32.5893 73.8305 32.7875C73.7101 32.9832 73.6499 33.2065 73.6499 33.4573V36.9873H72.5247ZM78.8761 37.104C78.3066 37.104 77.8161 36.9823 77.4047 36.7389C76.9958 36.4931 76.6796 36.1481 76.4563 35.704C76.2356 35.2574 76.1252 34.7344 76.1252 34.1347C76.1252 33.5426 76.2356 33.0208 76.4563 32.5692C76.6796 32.1176 76.9907 31.7651 77.3896 31.5117C77.7911 31.2583 78.2602 31.1316 78.7971 31.1316C79.1233 31.1316 79.4394 31.1856 79.7455 31.2935C80.0515 31.4013 80.3263 31.5707 80.5696 31.8015C80.813 32.0323 81.0049 32.3321 81.1454 32.7009C81.2859 33.0672 81.3561 33.5125 81.3561 34.0369V34.4358H76.7612V33.5928H80.2535C80.2535 33.2968 80.1933 33.0346 80.0729 32.8063C79.9524 32.5755 79.7831 32.3936 79.5648 32.2606C79.3491 32.1277 79.0957 32.0612 78.8046 32.0612C78.4885 32.0612 78.2125 32.1389 77.9767 32.2945C77.7434 32.4475 77.5628 32.6482 77.4348 32.8966C77.3094 33.1425 77.2466 33.4097 77.2466 33.6982V34.3568C77.2466 34.7431 77.3144 35.0718 77.4499 35.3428C77.5878 35.6137 77.7798 35.8207 78.0256 35.9637C78.2715 36.1042 78.5588 36.1744 78.8874 36.1744C79.1007 36.1744 79.2951 36.1443 79.4707 36.0841C79.6464 36.0214 79.7981 35.9286 79.9261 35.8056C80.054 35.6827 80.1519 35.5309 80.2196 35.3503L81.2846 35.5422C81.1993 35.8558 81.0463 36.1305 80.8255 36.3664C80.6072 36.5997 80.3325 36.7816 80.0014 36.912C79.6727 37.04 79.2976 37.104 78.8761 37.104ZM86.1205 39.155C85.9524 39.155 85.7993 39.1412 85.6613 39.1136C85.5233 39.0885 85.4205 39.0609 85.3527 39.0308L85.6237 38.1088C85.8294 38.164 86.0126 38.1878 86.1731 38.1803C86.3337 38.1727 86.4755 38.1125 86.5984 37.9996C86.7238 37.8867 86.8342 37.7023 86.9296 37.4464L87.0688 37.0626L84.9538 31.2069H86.1581L87.622 35.6927H87.6822L89.1461 31.2069H90.3541L87.972 37.7588C87.8616 38.0598 87.7211 38.3145 87.5505 38.5227C87.3799 38.7335 87.1767 38.8915 86.9408 38.9969C86.705 39.1023 86.4315 39.155 86.1205 39.155ZM93.6498 37.104C93.1079 37.104 92.635 36.9798 92.2311 36.7314C91.8272 36.483 91.5136 36.1355 91.2903 35.689C91.067 35.2424 90.9553 34.7206 90.9553 34.1234C90.9553 33.5238 91.067 32.9995 91.2903 32.5504C91.5136 32.1013 91.8272 31.7526 92.2311 31.5042C92.635 31.2558 93.1079 31.1316 93.6498 31.1316C94.1918 31.1316 94.6647 31.2558 95.0686 31.5042C95.4725 31.7526 95.7861 32.1013 96.0094 32.5504C96.2327 32.9995 96.3444 33.5238 96.3444 34.1234C96.3444 34.7206 96.2327 35.2424 96.0094 35.689C95.7861 36.1355 95.4725 36.483 95.0686 36.7314C94.6647 36.9798 94.1918 37.104 93.6498 37.104ZM93.6536 36.1594C94.0048 36.1594 94.2959 36.0666 94.5267 35.8809C94.7575 35.6952 94.9281 35.4481 95.0385 35.1395C95.1514 34.8309 95.2078 34.491 95.2078 34.1197C95.2078 33.7509 95.1514 33.4122 95.0385 33.1036C94.9281 32.7925 94.7575 32.5429 94.5267 32.3547C94.2959 32.1665 94.0048 32.0725 93.6536 32.0725C93.2999 32.0725 93.0063 32.1665 92.773 32.3547C92.5422 32.5429 92.3703 32.7925 92.2574 33.1036C92.147 33.4122 92.0918 33.7509 92.0918 34.1197C92.0918 34.491 92.147 34.8309 92.2574 35.1395C92.3703 35.4481 92.5422 35.6952 92.773 35.8809C93.0063 36.0666 93.2999 36.1594 93.6536 36.1594ZM101.262 34.5901V31.2069H102.391V36.9873H101.285V35.9863H101.224C101.091 36.2949 100.878 36.552 100.585 36.7577C100.294 36.961 99.9311 37.0626 99.497 37.0626C99.1257 37.0626 98.7971 36.981 98.5111 36.818C98.2276 36.6524 98.0043 36.4078 97.8412 36.0841C97.6806 35.7605 97.6003 35.3603 97.6003 34.8836V31.2069H98.7256V34.7482C98.7256 35.142 98.8347 35.4556 99.053 35.689C99.2712 35.9223 99.5547 36.039 99.9035 36.039C100.114 36.039 100.324 35.9863 100.532 35.8809C100.743 35.7755 100.917 35.6162 101.055 35.403C101.196 35.1897 101.265 34.9188 101.262 34.5901ZM109.406 31.2069V32.1101H106.248V31.2069H109.406ZM107.095 29.822H108.22V35.2901C108.22 35.5083 108.253 35.6727 108.318 35.7831C108.383 35.8909 108.467 35.9649 108.57 36.0051C108.676 36.0427 108.79 36.0615 108.913 36.0615C109.003 36.0615 109.082 36.0553 109.15 36.0427C109.218 36.0302 109.27 36.0201 109.308 36.0126L109.511 36.9421C109.446 36.9672 109.353 36.9923 109.233 37.0174C109.112 37.045 108.962 37.0601 108.781 37.0626C108.485 37.0676 108.209 37.0149 107.953 36.9045C107.697 36.7941 107.49 36.6235 107.332 36.3927C107.174 36.1619 107.095 35.8721 107.095 35.5234V29.822ZM113.023 37.104C112.481 37.104 112.008 36.9798 111.604 36.7314C111.201 36.483 110.887 36.1355 110.664 35.689C110.44 35.2424 110.329 34.7206 110.329 34.1234C110.329 33.5238 110.44 32.9995 110.664 32.5504C110.887 32.1013 111.201 31.7526 111.604 31.5042C112.008 31.2558 112.481 31.1316 113.023 31.1316C113.565 31.1316 114.038 31.2558 114.442 31.5042C114.846 31.7526 115.16 32.1013 115.383 32.5504C115.606 32.9995 115.718 33.5238 115.718 34.1234C115.718 34.7206 115.606 35.2424 115.383 35.689C115.16 36.1355 114.846 36.483 114.442 36.7314C114.038 36.9798 113.565 37.104 113.023 37.104ZM113.027 36.1594C113.378 36.1594 113.669 36.0666 113.9 35.8809C114.131 35.6952 114.301 35.4481 114.412 35.1395C114.525 34.8309 114.581 34.491 114.581 34.1197C114.581 33.7509 114.525 33.4122 114.412 33.1036C114.301 32.7925 114.131 32.5429 113.9 32.3547C113.669 32.1665 113.378 32.0725 113.027 32.0725C112.673 32.0725 112.38 32.1665 112.146 32.3547C111.916 32.5429 111.744 32.7925 111.631 33.1036C111.52 33.4122 111.465 33.7509 111.465 34.1197C111.465 34.491 111.52 34.8309 111.631 35.1395C111.744 35.4481 111.916 35.6952 112.146 35.8809C112.38 36.0666 112.673 36.1594 113.027 36.1594ZM119.778 36.9873V31.2069H120.866V32.1251H120.926C121.031 31.814 121.217 31.5694 121.483 31.3913C121.752 31.2107 122.055 31.1203 122.394 31.1203C122.464 31.1203 122.547 31.1229 122.642 31.1279C122.74 31.1329 122.817 31.1392 122.872 31.1467V32.223C122.827 32.2104 122.746 32.1966 122.631 32.1816C122.515 32.164 122.4 32.1553 122.285 32.1553C122.019 32.1553 121.782 32.2117 121.573 32.3246C121.368 32.435 121.205 32.5893 121.084 32.7875C120.964 32.9832 120.904 33.2065 120.904 33.4573V36.9873H119.778ZM126.13 37.104C125.56 37.104 125.07 36.9823 124.658 36.7389C124.249 36.4931 123.933 36.1481 123.71 35.704C123.489 35.2574 123.379 34.7344 123.379 34.1347C123.379 33.5426 123.489 33.0208 123.71 32.5692C123.933 32.1176 124.244 31.7651 124.643 31.5117C125.045 31.2583 125.514 31.1316 126.051 31.1316C126.377 31.1316 126.693 31.1856 126.999 31.2935C127.305 31.4013 127.58 31.5707 127.823 31.8015C128.067 32.0323 128.259 32.3321 128.399 32.7009C128.54 33.0672 128.61 33.5125 128.61 34.0369V34.4358H124.015V33.5928H127.507C127.507 33.2968 127.447 33.0346 127.327 32.8063C127.206 32.5755 127.037 32.3936 126.818 32.2606C126.603 32.1277 126.349 32.0612 126.058 32.0612C125.742 32.0612 125.466 32.1389 125.23 32.2945C124.997 32.4475 124.816 32.6482 124.688 32.8966C124.563 33.1425 124.5 33.4097 124.5 33.6982V34.3568C124.5 34.7431 124.568 35.0718 124.704 35.3428C124.841 35.6137 125.033 35.8207 125.279 35.9637C125.525 36.1042 125.812 36.1744 126.141 36.1744C126.354 36.1744 126.549 36.1443 126.724 36.0841C126.9 36.0214 127.052 35.9286 127.18 35.8056C127.308 35.6827 127.406 35.5309 127.473 35.3503L128.538 35.5422C128.453 35.8558 128.3 36.1305 128.079 36.3664C127.861 36.5997 127.586 36.7816 127.255 36.912C126.926 37.04 126.551 37.104 126.13 37.104ZM132.293 37.104C131.734 37.104 131.252 36.9773 130.848 36.7239C130.447 36.468 130.138 36.1155 129.922 35.6664C129.706 35.2173 129.599 34.703 129.599 34.1234C129.599 33.5364 129.709 33.0183 129.93 32.5692C130.151 32.1176 130.462 31.7651 130.863 31.5117C131.264 31.2583 131.737 31.1316 132.282 31.1316C132.721 31.1316 133.112 31.2132 133.456 31.3763C133.8 31.5368 134.077 31.7626 134.288 32.0536C134.501 32.3447 134.628 32.6846 134.668 33.0735H133.573C133.512 32.8025 133.374 32.5692 133.159 32.3735C132.945 32.1778 132.659 32.08 132.301 32.08C131.987 32.08 131.712 32.1628 131.476 32.3284C131.243 32.4914 131.061 32.7248 130.931 33.0283C130.8 33.3294 130.735 33.6857 130.735 34.0971C130.735 34.5186 130.799 34.8824 130.927 35.1885C131.055 35.4945 131.236 35.7316 131.469 35.8997C131.705 36.0678 131.982 36.1519 132.301 36.1519C132.514 36.1519 132.707 36.113 132.88 36.0352C133.056 35.9549 133.203 35.8408 133.32 35.6927C133.441 35.5447 133.525 35.3666 133.573 35.1583H134.668C134.628 35.5322 134.506 35.8658 134.303 36.1594C134.099 36.4529 133.827 36.6837 133.486 36.8518C133.147 37.0199 132.75 37.104 132.293 37.104ZM138.306 37.104C137.764 37.104 137.291 36.9798 136.887 36.7314C136.483 36.483 136.17 36.1355 135.946 35.689C135.723 35.2424 135.611 34.7206 135.611 34.1234C135.611 33.5238 135.723 32.9995 135.946 32.5504C136.17 32.1013 136.483 31.7526 136.887 31.5042C137.291 31.2558 137.764 31.1316 138.306 31.1316C138.848 31.1316 139.321 31.2558 139.725 31.5042C140.129 31.7526 140.442 32.1013 140.665 32.5504C140.889 32.9995 141 33.5238 141 34.1234C141 34.7206 140.889 35.2424 140.665 35.689C140.442 36.1355 140.129 36.483 139.725 36.7314C139.321 36.9798 138.848 37.104 138.306 37.104ZM138.31 36.1594C138.661 36.1594 138.952 36.0666 139.183 35.8809C139.414 35.6952 139.584 35.4481 139.695 35.1395C139.807 34.8309 139.864 34.491 139.864 34.1197C139.864 33.7509 139.807 33.4122 139.695 33.1036C139.584 32.7925 139.414 32.5429 139.183 32.3547C138.952 32.1665 138.661 32.0725 138.31 32.0725C137.956 32.0725 137.662 32.1665 137.429 32.3547C137.198 32.5429 137.026 32.7925 136.913 33.1036C136.803 33.4122 136.748 33.7509 136.748 34.1197C136.748 34.491 136.803 34.8309 136.913 35.1395C137.026 35.4481 137.198 35.6952 137.429 35.8809C137.662 36.0666 137.956 36.1594 138.31 36.1594ZM142.256 36.9873V31.2069H143.336V32.1477H143.408C143.528 31.8291 143.725 31.5807 143.999 31.4026C144.272 31.222 144.6 31.1316 144.981 31.1316C145.367 31.1316 145.691 31.222 145.952 31.4026C146.215 31.5832 146.41 31.8316 146.535 32.1477H146.595C146.733 31.8391 146.953 31.5933 147.254 31.4101C147.555 31.2245 147.914 31.1316 148.33 31.1316C148.855 31.1316 149.282 31.296 149.614 31.6246C149.947 31.9533 150.114 32.4488 150.114 33.1111V36.9873H148.989V33.2165C148.989 32.8251 148.882 32.5416 148.669 32.366C148.456 32.1904 148.201 32.1026 147.905 32.1026C147.539 32.1026 147.254 32.2155 147.051 32.4413C146.848 32.6645 146.746 32.9518 146.746 33.3031V36.9873H145.625V33.145C145.625 32.8314 145.527 32.5792 145.331 32.3886C145.135 32.1979 144.881 32.1026 144.567 32.1026C144.354 32.1026 144.157 32.159 143.976 32.2719C143.798 32.3823 143.654 32.5366 143.543 32.7348C143.436 32.933 143.382 33.1626 143.382 33.4235V36.9873H142.256ZM151.622 36.9873V31.2069H152.702V32.1477H152.774C152.894 31.8291 153.091 31.5807 153.365 31.4026C153.638 31.222 153.966 31.1316 154.347 31.1316C154.733 31.1316 155.057 31.222 155.318 31.4026C155.581 31.5832 155.776 31.8316 155.901 32.1477H155.961C156.099 31.8391 156.319 31.5933 156.62 31.4101C156.921 31.2245 157.28 31.1316 157.696 31.1316C158.221 31.1316 158.648 31.296 158.979 31.6246C159.313 31.9533 159.48 32.4488 159.48 33.1111V36.9873H158.355V33.2165C158.355 32.8251 158.248 32.5416 158.035 32.366C157.822 32.1904 157.567 32.1026 157.271 32.1026C156.905 32.1026 156.62 32.2155 156.417 32.4413C156.213 32.6645 156.112 32.9518 156.112 33.3031V36.9873H154.99V33.145C154.99 32.8314 154.893 32.5792 154.697 32.3886C154.501 32.1979 154.247 32.1026 153.933 32.1026C153.72 32.1026 153.523 32.159 153.342 32.2719C153.164 32.3823 153.02 32.5366 152.909 32.7348C152.801 32.933 152.747 33.1626 152.747 33.4235V36.9873H151.622ZM163.479 37.104C162.91 37.104 162.419 36.9823 162.008 36.7389C161.599 36.4931 161.283 36.1481 161.06 35.704C160.839 35.2574 160.728 34.7344 160.728 34.1347C160.728 33.5426 160.839 33.0208 161.06 32.5692C161.283 32.1176 161.594 31.7651 161.993 31.5117C162.394 31.2583 162.863 31.1316 163.4 31.1316C163.727 31.1316 164.043 31.1856 164.349 31.2935C164.655 31.4013 164.93 31.5707 165.173 31.8015C165.416 32.0323 165.608 32.3321 165.749 32.7009C165.889 33.0672 165.959 33.5125 165.959 34.0369V34.4358H161.364V33.5928H164.857C164.857 33.2968 164.797 33.0346 164.676 32.8063C164.556 32.5755 164.386 32.3936 164.168 32.2606C163.952 32.1277 163.699 32.0612 163.408 32.0612C163.092 32.0612 162.816 32.1389 162.58 32.2945C162.347 32.4475 162.166 32.6482 162.038 32.8966C161.913 33.1425 161.85 33.4097 161.85 33.6982V34.3568C161.85 34.7431 161.918 35.0718 162.053 35.3428C162.191 35.6137 162.383 35.8207 162.629 35.9637C162.875 36.1042 163.162 36.1744 163.491 36.1744C163.704 36.1744 163.898 36.1443 164.074 36.0841C164.25 36.0214 164.401 35.9286 164.529 35.8056C164.657 35.6827 164.755 35.5309 164.823 35.3503L165.888 35.5422C165.803 35.8558 165.65 36.1305 165.429 36.3664C165.211 36.5997 164.936 36.7816 164.605 36.912C164.276 37.04 163.901 37.104 163.479 37.104ZM168.333 33.5552V36.9873H167.208V31.2069H168.288V32.1477H168.359C168.492 31.8416 168.701 31.5958 168.984 31.4101C169.27 31.2245 169.63 31.1316 170.064 31.1316C170.458 31.1316 170.803 31.2144 171.099 31.38C171.395 31.5431 171.625 31.7864 171.788 32.1101C171.951 32.4337 172.032 32.8339 172.032 33.3106V36.9873H170.907V33.4461C170.907 33.0271 170.798 32.6997 170.58 32.4638C170.362 32.2255 170.062 32.1063 169.68 32.1063C169.419 32.1063 169.187 32.1628 168.984 32.2757C168.783 32.3886 168.624 32.5542 168.506 32.7724C168.391 32.9882 168.333 33.2491 168.333 33.5552ZM175.705 37.1002C175.239 37.1002 174.822 36.981 174.456 36.7427C174.092 36.5018 173.806 36.1594 173.598 35.7153C173.392 35.2687 173.289 34.7331 173.289 34.1084C173.289 33.4837 173.393 32.9493 173.602 32.5052C173.812 32.0612 174.101 31.7212 174.467 31.4854C174.834 31.2496 175.249 31.1316 175.713 31.1316C176.072 31.1316 176.36 31.1919 176.578 31.3123C176.799 31.4302 176.97 31.5682 177.09 31.7262C177.213 31.8843 177.309 32.0235 177.376 32.144H177.444V29.2801H178.569V36.9873H177.47V36.0879H177.376C177.309 36.2108 177.211 36.3513 177.083 36.5094C176.957 36.6674 176.784 36.8054 176.563 36.9233C176.343 37.0412 176.057 37.1002 175.705 37.1002ZM175.954 36.1406C176.277 36.1406 176.551 36.0553 176.774 35.8847C177 35.7116 177.171 35.472 177.286 35.1659C177.404 34.8598 177.463 34.5035 177.463 34.0971C177.463 33.6957 177.405 33.3444 177.29 33.0434C177.174 32.7423 177.005 32.5077 176.782 32.3397C176.558 32.1716 176.282 32.0875 175.954 32.0875C175.615 32.0875 175.333 32.1753 175.107 32.3509C174.881 32.5266 174.711 32.7662 174.595 33.0697C174.482 33.3733 174.426 33.7158 174.426 34.0971C174.426 34.4835 174.484 34.8309 174.599 35.1395C174.714 35.4481 174.885 35.6927 175.111 35.8734C175.339 36.0515 175.62 36.1406 175.954 36.1406ZM182.592 33.1563V32.5918C183.016 32.5918 183.312 32.5052 183.48 32.3321C183.648 32.1565 183.732 31.8667 183.732 31.4628V30.3827C183.732 29.9989 183.775 29.6765 183.86 29.4156C183.948 29.1522 184.081 28.9414 184.259 28.7833C184.437 28.6253 184.663 28.5111 184.937 28.4409C185.21 28.3706 185.533 28.3355 185.904 28.3355V29.2274C185.613 29.2274 185.386 29.2701 185.223 29.3554C185.06 29.4407 184.945 29.5736 184.88 29.7543C184.818 29.9324 184.786 30.1607 184.786 30.4392V31.809C184.786 32.0022 184.757 32.1816 184.7 32.3472C184.642 32.5103 184.535 32.652 184.38 32.7724C184.224 32.8929 184.002 32.9869 183.714 33.0547C183.425 33.1224 183.051 33.1563 182.592 33.1563ZM185.904 37.9357C185.533 37.9357 185.21 37.9005 184.937 37.8303C184.663 37.76 184.437 37.6459 184.259 37.4878C184.081 37.3298 183.948 37.1203 183.86 36.8594C183.775 36.5959 183.732 36.2723 183.732 35.8884V34.8046C183.732 34.4032 183.648 34.1147 183.48 33.939C183.312 33.7634 183.016 33.6756 182.592 33.6756V33.1149C183.051 33.1149 183.425 33.1488 183.714 33.2165C184.002 33.2817 184.224 33.3758 184.38 33.4987C184.535 33.6192 184.642 33.7622 184.7 33.9278C184.757 34.0908 184.786 34.269 184.786 34.4621V35.832C184.786 36.108 184.818 36.3363 184.88 36.5169C184.945 36.695 185.06 36.828 185.223 36.9158C185.386 37.0011 185.613 37.0438 185.904 37.0438V37.9357ZM182.592 33.6756V32.5918H183.635V33.6756H182.592ZM193.477 31.7864H192.302C192.257 31.5356 192.173 31.3148 192.05 31.1241C191.927 30.9334 191.777 30.7716 191.599 30.6386C191.421 30.5057 191.221 30.4053 191 30.3376C190.782 30.2698 190.55 30.236 190.304 30.236C189.86 30.236 189.462 30.3476 189.111 30.5709C188.762 30.7942 188.486 31.1216 188.283 31.5531C188.083 31.9846 187.982 32.5115 187.982 33.1337C187.982 33.7609 188.083 34.2903 188.283 34.7218C188.486 35.1533 188.764 35.4795 189.115 35.7003C189.466 35.921 189.861 36.0314 190.3 36.0314C190.544 36.0314 190.775 35.9988 190.993 35.9336C191.214 35.8658 191.413 35.7667 191.591 35.6363C191.769 35.5058 191.92 35.3465 192.043 35.1583C192.168 34.9677 192.255 34.7494 192.302 34.5035L193.477 34.5073C193.414 34.8861 193.292 35.2349 193.112 35.5535C192.933 35.8696 192.704 36.1431 192.423 36.3739C192.144 36.6022 191.826 36.7791 191.467 36.9045C191.108 37.03 190.717 37.0927 190.293 37.0927C189.625 37.0927 189.031 36.9346 188.509 36.6185C187.987 36.2999 187.576 35.8445 187.275 35.2524C186.976 34.6603 186.827 33.9541 186.827 33.1337C186.827 32.3108 186.977 31.6046 187.278 31.015C187.579 30.4229 187.991 29.9688 188.513 29.6527C189.035 29.334 189.628 29.1747 190.293 29.1747C190.702 29.1747 191.083 29.2337 191.437 29.3516C191.793 29.467 192.113 29.6376 192.396 29.8634C192.68 30.0867 192.915 30.3602 193.1 30.6838C193.286 31.0049 193.411 31.3725 193.477 31.7864ZM197.213 37.104C196.671 37.104 196.198 36.9798 195.794 36.7314C195.39 36.483 195.076 36.1355 194.853 35.689C194.63 35.2424 194.518 34.7206 194.518 34.1234C194.518 33.5238 194.63 32.9995 194.853 32.5504C195.076 32.1013 195.39 31.7526 195.794 31.5042C196.198 31.2558 196.671 31.1316 197.213 31.1316C197.754 31.1316 198.227 31.2558 198.631 31.5042C199.035 31.7526 199.349 32.1013 199.572 32.5504C199.795 32.9995 199.907 33.5238 199.907 34.1234C199.907 34.7206 199.795 35.2424 199.572 35.689C199.349 36.1355 199.035 36.483 198.631 36.7314C198.227 36.9798 197.754 37.104 197.213 37.104ZM197.216 36.1594C197.568 36.1594 197.859 36.0666 198.089 35.8809C198.32 35.6952 198.491 35.4481 198.601 35.1395C198.714 34.8309 198.771 34.491 198.771 34.1197C198.771 33.7509 198.714 33.4122 198.601 33.1036C198.491 32.7925 198.32 32.5429 198.089 32.3547C197.859 32.1665 197.568 32.0725 197.216 32.0725C196.863 32.0725 196.569 32.1665 196.336 32.3547C196.105 32.5429 195.933 32.7925 195.82 33.1036C195.71 33.4122 195.655 33.7509 195.655 34.1197C195.655 34.491 195.71 34.8309 195.82 35.1395C195.933 35.4481 196.105 35.6952 196.336 35.8809C196.569 36.0666 196.863 36.1594 197.216 36.1594ZM201.163 36.9873V31.2069H202.243V32.1477H202.315C202.435 31.8291 202.632 31.5807 202.905 31.4026C203.179 31.222 203.506 31.1316 203.888 31.1316C204.274 31.1316 204.598 31.222 204.859 31.4026C205.122 31.5832 205.316 31.8316 205.442 32.1477H205.502C205.64 31.8391 205.86 31.5933 206.161 31.4101C206.462 31.2245 206.821 31.1316 207.237 31.1316C207.761 31.1316 208.189 31.296 208.52 31.6246C208.854 31.9533 209.021 32.4488 209.021 33.1111V36.9873H207.896V33.2165C207.896 32.8251 207.789 32.5416 207.576 32.366C207.362 32.1904 207.108 32.1026 206.812 32.1026C206.445 32.1026 206.161 32.2155 205.957 32.4413C205.754 32.6645 205.653 32.9518 205.653 33.3031V36.9873H204.531V33.145C204.531 32.8314 204.433 32.5792 204.238 32.3886C204.042 32.1979 203.787 32.1026 203.474 32.1026C203.26 32.1026 203.064 32.159 202.883 32.2719C202.705 32.3823 202.56 32.5366 202.45 32.7348C202.342 32.933 202.288 33.1626 202.288 33.4235V36.9873H201.163ZM210.529 39.155V31.2069H211.628V32.144H211.722C211.787 32.0235 211.881 31.8843 212.004 31.7262C212.127 31.5682 212.298 31.4302 212.516 31.3123C212.734 31.1919 213.023 31.1316 213.381 31.1316C213.848 31.1316 214.265 31.2496 214.631 31.4854C214.997 31.7212 215.284 32.0612 215.493 32.5052C215.703 32.9493 215.809 33.4837 215.809 34.1084C215.809 34.7331 215.705 35.2687 215.496 35.7153C215.288 36.1594 215.002 36.5018 214.638 36.7427C214.275 36.981 213.859 37.1002 213.393 37.1002C213.042 37.1002 212.754 37.0412 212.531 36.9233C212.31 36.8054 212.137 36.6674 212.012 36.5094C211.886 36.3513 211.79 36.2108 211.722 36.0879H211.654V39.155H210.529ZM211.632 34.0971C211.632 34.5035 211.691 34.8598 211.808 35.1659C211.926 35.472 212.097 35.7116 212.32 35.8847C212.544 36.0553 212.817 36.1406 213.141 36.1406C213.477 36.1406 213.758 36.0515 213.984 35.8734C214.209 35.6927 214.38 35.4481 214.495 35.1395C214.613 34.8309 214.672 34.4835 214.672 34.0971C214.672 33.7158 214.615 33.3733 214.499 33.0697C214.386 32.7662 214.216 32.5266 213.987 32.3509C213.762 32.1753 213.479 32.0875 213.141 32.0875C212.814 32.0875 212.539 32.1716 212.313 32.3397C212.089 32.5077 211.92 32.7423 211.805 33.0434C211.689 33.3444 211.632 33.6957 211.632 34.0971ZM218.752 37.1153C218.385 37.1153 218.054 37.0475 217.758 36.912C217.462 36.7741 217.228 36.5746 217.054 36.3137C216.884 36.0528 216.799 35.7329 216.799 35.354C216.799 35.0279 216.861 34.7594 216.987 34.5487C217.112 34.338 217.281 34.1711 217.495 34.0482C217.708 33.9252 217.946 33.8324 218.21 33.7697C218.473 33.707 218.742 33.6593 219.015 33.6267C219.361 33.5866 219.642 33.5539 219.858 33.5288C220.074 33.5013 220.231 33.4573 220.329 33.3971C220.426 33.3369 220.475 33.2391 220.475 33.1036V33.0773C220.475 32.7486 220.382 32.4939 220.197 32.3133C220.014 32.1327 219.74 32.0424 219.376 32.0424C218.998 32.0424 218.699 32.1264 218.481 32.2945C218.265 32.4601 218.116 32.6445 218.033 32.8477L216.975 32.6068C217.101 32.2556 217.284 31.9721 217.525 31.7563C217.768 31.5381 218.048 31.38 218.364 31.2822C218.68 31.1818 219.013 31.1316 219.361 31.1316C219.592 31.1316 219.837 31.1592 220.095 31.2144C220.356 31.2671 220.599 31.365 220.825 31.508C221.054 31.651 221.24 31.8554 221.386 32.1214C221.531 32.3848 221.604 32.7273 221.604 33.1488V36.9873H220.505V36.197H220.46C220.387 36.3425 220.278 36.4855 220.133 36.626C219.987 36.7665 219.8 36.8832 219.572 36.976C219.344 37.0688 219.07 37.1153 218.752 37.1153ZM218.996 36.2121C219.307 36.2121 219.573 36.1506 219.794 36.0277C220.017 35.9047 220.187 35.7442 220.302 35.546C220.42 35.3453 220.479 35.1308 220.479 34.9024V34.1573C220.439 34.1975 220.361 34.2351 220.246 34.2702C220.133 34.3028 220.004 34.3317 219.858 34.3568C219.713 34.3794 219.571 34.4007 219.433 34.4207C219.295 34.4383 219.179 34.4534 219.087 34.4659C218.868 34.4935 218.669 34.5399 218.488 34.6051C218.31 34.6704 218.167 34.7645 218.059 34.8874C217.954 35.0078 217.901 35.1684 217.901 35.3691C217.901 35.6476 218.004 35.8583 218.21 36.0013C218.416 36.1418 218.678 36.2121 218.996 36.2121ZM224.228 33.5552V36.9873H223.103V31.2069H224.183V32.1477H224.255C224.388 31.8416 224.596 31.5958 224.879 31.4101C225.165 31.2245 225.525 31.1316 225.959 31.1316C226.353 31.1316 226.698 31.2144 226.994 31.38C227.29 31.5431 227.52 31.7864 227.683 32.1101C227.846 32.4337 227.928 32.8339 227.928 33.3106V36.9873H226.802V33.4461C226.802 33.0271 226.693 32.6997 226.475 32.4638C226.257 32.2255 225.957 32.1063 225.575 32.1063C225.315 32.1063 225.082 32.1628 224.879 32.2757C224.679 32.3886 224.519 32.5542 224.401 32.7724C224.286 32.9882 224.228 33.2491 224.228 33.5552ZM229.941 39.155C229.773 39.155 229.62 39.1412 229.482 39.1136C229.344 39.0885 229.241 39.0609 229.173 39.0308L229.444 38.1088C229.65 38.164 229.833 38.1878 229.994 38.1803C230.154 38.1727 230.296 38.1125 230.419 37.9996C230.544 37.8867 230.655 37.7023 230.75 37.4464L230.889 37.0626L228.774 31.2069H229.979L231.442 35.6927H231.503L232.967 31.2069H234.175L231.792 37.7588C231.682 38.0598 231.542 38.3145 231.371 38.5227C231.2 38.7335 230.997 38.8915 230.761 38.9969C230.525 39.1023 230.252 39.155 229.941 39.155ZM244.348 29.2801V36.9873H243.279L239.361 31.3349H239.29V36.9873H238.127V29.2801H239.203L243.125 34.9401H243.196V29.2801H244.348ZM247.636 37.1153C247.27 37.1153 246.938 37.0475 246.642 36.912C246.346 36.7741 246.112 36.5746 245.939 36.3137C245.768 36.0528 245.683 35.7329 245.683 35.354C245.683 35.0279 245.745 34.7594 245.871 34.5487C245.996 34.338 246.166 34.1711 246.379 34.0482C246.592 33.9252 246.83 33.8324 247.094 33.7697C247.357 33.707 247.626 33.6593 247.899 33.6267C248.245 33.5866 248.526 33.5539 248.742 33.5288C248.958 33.5013 249.115 33.4573 249.213 33.3971C249.31 33.3369 249.359 33.2391 249.359 33.1036V33.0773C249.359 32.7486 249.267 32.4939 249.081 32.3133C248.898 32.1327 248.624 32.0424 248.261 32.0424C247.882 32.0424 247.583 32.1264 247.365 32.2945C247.149 32.4601 247 32.6445 246.917 32.8477L245.86 32.6068C245.985 32.2556 246.168 31.9721 246.409 31.7563C246.652 31.5381 246.932 31.38 247.248 31.2822C247.564 31.1818 247.897 31.1316 248.245 31.1316C248.476 31.1316 248.721 31.1592 248.979 31.2144C249.24 31.2671 249.484 31.365 249.709 31.508C249.938 31.651 250.125 31.8554 250.27 32.1214C250.416 32.3848 250.488 32.7273 250.488 33.1488V36.9873H249.39V36.197H249.344C249.272 36.3425 249.162 36.4855 249.017 36.626C248.871 36.7665 248.685 36.8832 248.456 36.976C248.228 37.0688 247.954 37.1153 247.636 37.1153ZM247.88 36.2121C248.192 36.2121 248.457 36.1506 248.678 36.0277C248.902 35.9047 249.071 35.7442 249.186 35.546C249.304 35.3453 249.363 35.1308 249.363 34.9024V34.1573C249.323 34.1975 249.245 34.2351 249.13 34.2702C249.017 34.3028 248.888 34.3317 248.742 34.3568C248.597 34.3794 248.455 34.4007 248.317 34.4207C248.179 34.4383 248.064 34.4534 247.971 34.4659C247.752 34.4935 247.553 34.5399 247.372 34.6051C247.194 34.6704 247.051 34.7645 246.943 34.8874C246.838 35.0078 246.785 35.1684 246.785 35.3691C246.785 35.6476 246.888 35.8583 247.094 36.0013C247.3 36.1418 247.562 36.2121 247.88 36.2121ZM251.987 36.9873V31.2069H253.067V32.1477H253.139C253.259 31.8291 253.456 31.5807 253.73 31.4026C254.003 31.222 254.33 31.1316 254.712 31.1316C255.098 31.1316 255.422 31.222 255.683 31.4026C255.946 31.5832 256.141 31.8316 256.266 32.1477H256.326C256.464 31.8391 256.684 31.5933 256.985 31.4101C257.286 31.2245 257.645 31.1316 258.061 31.1316C258.585 31.1316 259.013 31.296 259.344 31.6246C259.678 31.9533 259.845 32.4488 259.845 33.1111V36.9873H258.72V33.2165C258.72 32.8251 258.613 32.5416 258.4 32.366C258.186 32.1904 257.932 32.1026 257.636 32.1026C257.27 32.1026 256.985 32.2155 256.782 32.4413C256.578 32.6645 256.477 32.9518 256.477 33.3031V36.9873H255.355V33.145C255.355 32.8314 255.257 32.5792 255.062 32.3886C254.866 32.1979 254.611 32.1026 254.298 32.1026C254.085 32.1026 253.888 32.159 253.707 32.2719C253.529 32.3823 253.385 32.5366 253.274 32.7348C253.166 32.933 253.112 33.1626 253.112 33.4235V36.9873H251.987ZM263.844 37.104C263.275 37.104 262.784 36.9823 262.373 36.7389C261.964 36.4931 261.648 36.1481 261.424 35.704C261.204 35.2574 261.093 34.7344 261.093 34.1347C261.093 33.5426 261.204 33.0208 261.424 32.5692C261.648 32.1176 261.959 31.7651 262.358 31.5117C262.759 31.2583 263.228 31.1316 263.765 31.1316C264.091 31.1316 264.408 31.1856 264.714 31.2935C265.02 31.4013 265.294 31.5707 265.538 31.8015C265.781 32.0323 265.973 32.3321 266.114 32.7009C266.254 33.0672 266.324 33.5125 266.324 34.0369V34.4358H261.729V33.5928H265.222C265.222 33.2968 265.161 33.0346 265.041 32.8063C264.921 32.5755 264.751 32.3936 264.533 32.2606C264.317 32.1277 264.064 32.0612 263.773 32.0612C263.457 32.0612 263.181 32.1389 262.945 32.2945C262.712 32.4475 262.531 32.6482 262.403 32.8966C262.277 33.1425 262.215 33.4097 262.215 33.6982V34.3568C262.215 34.7431 262.283 35.0718 262.418 35.3428C262.556 35.6137 262.748 35.8207 262.994 35.9637C263.24 36.1042 263.527 36.1744 263.856 36.1744C264.069 36.1744 264.263 36.1443 264.439 36.0841C264.614 36.0214 264.766 35.9286 264.894 35.8056C265.022 35.6827 265.12 35.5309 265.188 35.3503L266.253 35.5422C266.167 35.8558 266.014 36.1305 265.794 36.3664C265.575 36.5997 265.301 36.7816 264.969 36.912C264.641 37.04 264.266 37.104 263.844 37.104ZM270.452 33.7697V34.3304C270.028 34.3304 269.732 34.4182 269.564 34.5939C269.395 34.7695 269.311 35.058 269.311 35.4594V36.5432C269.311 36.9271 269.267 37.2495 269.18 37.5104C269.094 37.7738 268.963 37.9846 268.785 38.1426C268.606 38.3007 268.381 38.4148 268.107 38.4851C267.834 38.5553 267.511 38.5905 267.14 38.5905V37.6986C267.431 37.6986 267.658 37.6547 267.821 37.5669C267.984 37.4815 268.097 37.3486 268.16 37.1679C268.225 36.9898 268.258 36.7628 268.258 36.4868V35.117C268.258 34.9238 268.287 34.7456 268.344 34.5826C268.402 34.417 268.509 34.274 268.664 34.1536C268.82 34.0306 269.042 33.9365 269.33 33.8713C269.619 33.8036 269.993 33.7697 270.452 33.7697ZM267.14 28.9903C267.511 28.9903 267.834 29.0255 268.107 29.0957C268.381 29.1659 268.606 29.2801 268.785 29.4382C268.963 29.5962 269.094 29.807 269.18 30.0704C269.267 30.3313 269.311 30.6537 269.311 31.0376V32.1176C269.311 32.5215 269.395 32.8113 269.564 32.9869C269.732 33.16 270.028 33.2466 270.452 33.2466V33.8111C269.993 33.8111 269.619 33.7772 269.33 33.7095C269.042 33.6417 268.82 33.5477 268.664 33.4272C268.509 33.3068 268.402 33.1651 268.344 33.002C268.287 32.8364 268.258 32.657 268.258 32.4638V31.094C268.258 30.8155 268.225 30.5872 268.16 30.4091C268.097 30.2284 267.984 30.0955 267.821 30.0102C267.658 29.9249 267.431 29.8822 267.14 29.8822V28.9903ZM270.452 33.2466V34.3304H269.409V33.2466H270.452ZM272.808 34.7707V34.6992C272.813 34.2326 272.86 33.8613 272.948 33.5853C273.038 33.3093 273.166 33.086 273.332 32.9154C273.497 32.7448 273.697 32.5893 273.93 32.4488C274.08 32.3534 274.216 32.2468 274.336 32.1289C274.457 32.011 274.552 31.8755 274.622 31.7225C274.693 31.5694 274.728 31.4001 274.728 31.2144C274.728 30.9911 274.675 30.798 274.57 30.6349C274.464 30.4718 274.324 30.3464 274.148 30.2586C273.975 30.1682 273.782 30.1231 273.569 30.1231C273.375 30.1231 273.191 30.1632 273.015 30.2435C272.84 30.3238 272.694 30.4492 272.579 30.6198C272.463 30.7879 272.397 31.0049 272.379 31.2709H271.235C271.253 30.8193 271.367 30.4379 271.578 30.1268C271.789 29.8132 272.067 29.5761 272.413 29.4156C272.762 29.255 273.147 29.1747 273.569 29.1747C274.03 29.1747 274.434 29.2613 274.78 29.4344C275.127 29.605 275.395 29.8446 275.586 30.1532C275.779 30.4593 275.875 30.8168 275.875 31.2257C275.875 31.5067 275.832 31.7601 275.744 31.9859C275.656 32.2092 275.531 32.4086 275.367 32.5843C275.207 32.7599 275.014 32.9154 274.788 33.0509C274.575 33.1839 274.402 33.3219 274.269 33.4649C274.138 33.6079 274.043 33.7772 273.983 33.9729C273.922 34.1686 273.89 34.4107 273.885 34.6992V34.7707H272.808ZM273.377 37.0588C273.171 37.0588 272.994 36.9861 272.846 36.8405C272.698 36.6925 272.624 36.5144 272.624 36.3062C272.624 36.1004 272.698 35.9248 272.846 35.7793C272.994 35.6313 273.171 35.5573 273.377 35.5573C273.58 35.5573 273.756 35.6313 273.904 35.7793C274.054 35.9248 274.129 36.1004 274.129 36.3062C274.129 36.4441 274.094 36.5708 274.024 36.6862C273.956 36.7991 273.866 36.8895 273.753 36.9572C273.64 37.0249 273.515 37.0588 273.377 37.0588Z" fill="#050505"/>
<rect x="11.795" y="51.4581" width="24.149" height="22.3828" rx="5.00959" stroke="#D2D2D2" stroke-width="0.578231"/>
<path d="M24.8376 59.2883V65.7109H23.8654V60.2605H23.8278L22.2911 61.264V60.3357L23.8936 59.2883H24.8376Z" fill="#050505"/>
<rect x="44.4708" y="51.4581" width="24.149" height="22.3828" rx="5.00959" stroke="#D2D2D2" stroke-width="0.578231"/>
<path d="M54.4557 65.7109V65.0085L56.629 62.7568C56.8611 62.5121 57.0524 62.2978 57.2029 62.1139C57.3555 61.9278 57.4695 61.7511 57.5447 61.5839C57.62 61.4166 57.6576 61.2389 57.6576 61.0507C57.6576 60.8375 57.6074 60.6535 57.5071 60.4988C57.4067 60.342 57.2698 60.2218 57.0963 60.1381C56.9227 60.0524 56.7272 60.0096 56.5098 60.0096C56.2798 60.0096 56.0791 60.0566 55.9077 60.1507C55.7363 60.2448 55.6045 60.3775 55.5125 60.549C55.4206 60.7204 55.3746 60.9211 55.3746 61.1511H54.4494C54.4494 60.7601 54.5393 60.4183 54.7191 60.1256C54.8989 59.8329 55.1456 59.6061 55.4592 59.4451C55.7728 59.282 56.1293 59.2005 56.5286 59.2005C56.9321 59.2005 57.2876 59.281 57.5949 59.4419C57.9043 59.6008 58.1458 59.8183 58.3193 60.0942C58.4929 60.3681 58.5796 60.6775 58.5796 61.0225C58.5796 61.2609 58.5347 61.494 58.4448 61.7219C58.357 61.9497 58.2033 62.2038 57.9838 62.4839C57.7642 62.762 57.459 63.0996 57.068 63.4969L55.7917 64.8328V64.8799H58.6831V65.7109H54.4557Z" fill="#050505"/>
<rect x="77.1465" y="51.4581" width="24.149" height="22.3828" rx="5.00959" stroke="#D2D2D2" stroke-width="0.578231"/>
<path d="M89.2295 65.7987C88.7988 65.7987 88.4141 65.7245 88.0754 65.5761C87.7388 65.4276 87.4723 65.2217 87.2757 64.9583C87.0813 64.6928 86.9768 64.3854 86.9621 64.0363H87.9468C87.9594 64.2265 88.0232 64.3917 88.1381 64.5318C88.2552 64.6698 88.4078 64.7764 88.596 64.8517C88.7842 64.9269 88.9932 64.9646 89.2232 64.9646C89.4762 64.9646 89.6999 64.9206 89.8943 64.8328C90.0909 64.745 90.2445 64.6227 90.3553 64.4659C90.4662 64.307 90.5216 64.1241 90.5216 63.9171C90.5216 63.7018 90.4662 63.5126 90.3553 63.3495C90.2466 63.1843 90.0867 63.0547 89.8755 62.9606C89.6665 62.8665 89.4135 62.8195 89.1166 62.8195H88.5741V62.0292H89.1166C89.3549 62.0292 89.564 61.9863 89.7438 61.9006C89.9257 61.8149 90.0679 61.6957 90.1703 61.5431C90.2728 61.3884 90.324 61.2075 90.324 61.0006C90.324 60.8019 90.279 60.6295 90.1891 60.4831C90.1013 60.3347 89.9759 60.2186 89.8128 60.135C89.6518 60.0514 89.4616 60.0096 89.242 60.0096C89.033 60.0096 88.8375 60.0482 88.6556 60.1256C88.4758 60.2009 88.3294 60.3096 88.2165 60.4518C88.1037 60.5918 88.043 60.7601 88.0347 60.9567H87.097C87.1074 60.6096 87.2099 60.3044 87.4043 60.0409C87.6008 59.7775 87.8601 59.5716 88.1821 59.4231C88.504 59.2747 88.8615 59.2005 89.2546 59.2005C89.6665 59.2005 90.0219 59.281 90.3209 59.4419C90.6219 59.6008 90.854 59.813 91.0171 60.0786C91.1822 60.3441 91.2638 60.6347 91.2617 60.9504C91.2638 61.31 91.1634 61.6152 90.9606 61.8661C90.7599 62.117 90.4923 62.2853 90.1578 62.371V62.4212C90.5843 62.486 90.9146 62.6554 91.1488 62.9292C91.385 63.2031 91.5021 63.5429 91.5 63.9485C91.5021 64.3018 91.4038 64.6185 91.2052 64.8987C91.0087 65.1789 90.74 65.3994 90.3993 65.5604C90.0585 65.7193 89.6685 65.7987 89.2295 65.7987Z" fill="#050505"/>
<rect x="109.82" y="51.4581" width="24.149" height="22.3828" rx="5.00959" stroke="#D2D2D2" stroke-width="0.578231"/>
<path d="M119.489 64.4565V63.6725L122.265 59.2883H122.883V60.4423H122.491L120.505 63.5847V63.6349H124.309V64.4565H119.489ZM122.534 65.7109V64.2182L122.541 63.8607V59.2883H123.46V65.7109H122.534Z" fill="#050505"/>
<rect x="142.496" y="51.4581" width="24.149" height="22.3828" rx="5.00959" stroke="#D2D2D2" stroke-width="0.578231"/>
<path d="M154.571 65.7987C154.178 65.7987 153.824 65.7235 153.511 65.573C153.199 65.4203 152.951 65.2113 152.765 64.9457C152.578 64.6802 152.479 64.3771 152.467 64.0363H153.407C153.43 64.3123 153.553 64.5391 153.774 64.7168C153.996 64.8945 154.261 64.9834 154.571 64.9834C154.818 64.9834 155.036 64.9269 155.226 64.814C155.419 64.699 155.569 64.5412 155.678 64.3405C155.789 64.1398 155.844 63.9108 155.844 63.6537C155.844 63.3923 155.788 63.1592 155.675 62.9543C155.562 62.7494 155.406 62.5885 155.207 62.4714C155.011 62.3543 154.785 62.2947 154.53 62.2926C154.336 62.2926 154.14 62.3261 153.944 62.393C153.747 62.4599 153.588 62.5477 153.467 62.6564L152.579 62.5247L152.94 59.2883H156.471V60.1193H153.746L153.542 61.9163H153.58C153.705 61.795 153.872 61.6936 154.079 61.6121C154.288 61.5306 154.511 61.4898 154.75 61.4898C155.141 61.4898 155.489 61.5828 155.794 61.7689C156.101 61.955 156.343 62.209 156.518 62.531C156.696 62.8508 156.784 63.2188 156.782 63.6349C156.784 64.0509 156.69 64.422 156.5 64.7482C156.311 65.0743 156.05 65.3315 155.716 65.5196C155.383 65.7057 155.002 65.7987 154.571 65.7987Z" fill="#050505"/>
<rect x="174.883" y="51.1689" width="24.7273" height="22.961" rx="5.2987" fill="#050505"/>
<path d="M187.3 65.7987C187.014 65.7946 186.731 65.7423 186.453 65.6419C186.177 65.5416 185.926 65.3743 185.701 65.1402C185.475 64.906 185.294 64.5914 185.158 64.1962C185.024 63.8011 184.957 63.3077 184.957 62.716C184.957 62.1557 185.013 61.6581 185.124 61.2232C185.236 60.7884 185.398 60.4214 185.61 60.1225C185.821 59.8214 186.076 59.5925 186.375 59.4357C186.674 59.2789 187.009 59.2005 187.382 59.2005C187.764 59.2005 188.104 59.2757 188.401 59.4263C188.698 59.5768 188.938 59.7848 189.122 60.0503C189.308 60.3159 189.426 60.618 189.476 60.9567H188.52C188.455 60.689 188.327 60.4706 188.134 60.3012C187.942 60.1319 187.691 60.0472 187.382 60.0472C186.911 60.0472 186.544 60.2521 186.281 60.6619C186.019 61.0716 185.888 61.6414 185.886 62.371H185.933C186.043 62.1891 186.179 62.0344 186.34 61.9069C186.503 61.7773 186.685 61.678 186.886 61.609C187.089 61.5379 187.302 61.5023 187.526 61.5023C187.898 61.5023 188.235 61.5933 188.536 61.7752C188.839 61.955 189.08 62.2038 189.26 62.5216C189.44 62.8393 189.53 63.2031 189.53 63.6129C189.53 64.0227 189.437 64.3938 189.251 64.7262C189.067 65.0586 188.807 65.3221 188.473 65.5165C188.138 65.7088 187.747 65.8029 187.3 65.7987ZM187.297 64.9834C187.544 64.9834 187.764 64.9227 187.959 64.8015C188.153 64.6802 188.307 64.5171 188.42 64.3123C188.532 64.1074 188.589 63.8784 188.589 63.6255C188.589 63.3787 188.533 63.154 188.423 62.9512C188.314 62.7484 188.163 62.5874 187.971 62.4682C187.781 62.3491 187.563 62.2895 187.319 62.2895C187.133 62.2895 186.96 62.325 186.801 62.3961C186.645 62.4672 186.507 62.5655 186.387 62.6909C186.268 62.8163 186.174 62.9606 186.105 63.1237C186.038 63.2847 186.005 63.4551 186.005 63.6349C186.005 63.8753 186.06 64.098 186.171 64.3028C186.284 64.5077 186.438 64.6729 186.632 64.7983C186.829 64.9217 187.05 64.9834 187.297 64.9834Z" fill="white"/>
<rect x="207.848" y="51.4581" width="24.149" height="22.3828" rx="5.00959" stroke="#D2D2D2" stroke-width="0.578231"/>
<path d="M218.2 65.7109L221.004 60.1664V60.1193H217.761V59.2883H222.007V60.1476L219.213 65.7109H218.2Z" fill="#050505"/>
<rect x="240.522" y="51.4581" width="24.149" height="22.3828" rx="5.00959" stroke="#D2D2D2" stroke-width="0.578231"/>
<path d="M252.595 65.7987C252.145 65.7987 251.748 65.7214 251.403 65.5667C251.06 65.412 250.791 65.1987 250.597 64.9269C250.403 64.6551 250.306 64.3457 250.309 63.9986C250.306 63.7269 250.362 63.477 250.475 63.2491C250.59 63.0191 250.745 62.8278 250.942 62.6752C251.139 62.5205 251.358 62.4222 251.601 62.3804V62.3428C251.281 62.2654 251.025 62.094 250.832 61.8285C250.64 61.563 250.545 61.2577 250.547 60.9128C250.545 60.5845 250.632 60.2918 250.807 60.0347C250.985 59.7754 251.228 59.5716 251.538 59.4231C251.847 59.2747 252.2 59.2005 252.595 59.2005C252.986 59.2005 253.335 59.2757 253.642 59.4263C253.952 59.5747 254.195 59.7785 254.373 60.0378C254.551 60.2949 254.64 60.5866 254.643 60.9128C254.64 61.2577 254.542 61.563 254.348 61.8285C254.153 62.094 253.9 62.2654 253.589 62.3428V62.3804C253.829 62.4222 254.046 62.5205 254.238 62.6752C254.432 62.8278 254.587 63.0191 254.702 63.2491C254.819 63.477 254.879 63.7269 254.881 63.9986C254.879 64.3457 254.781 64.6551 254.586 64.9269C254.392 65.1987 254.122 65.412 253.777 65.5667C253.434 65.7214 253.04 65.7987 252.595 65.7987ZM252.595 65.0053C252.86 65.0053 253.09 64.9614 253.285 64.8736C253.479 64.7837 253.63 64.6593 253.736 64.5004C253.843 64.3394 253.897 64.1513 253.899 63.9359C253.897 63.7122 253.839 63.5146 253.724 63.3432C253.611 63.1718 253.457 63.0369 253.263 62.9387C253.068 62.8404 252.846 62.7913 252.595 62.7913C252.342 62.7913 252.117 62.8404 251.92 62.9387C251.724 63.0369 251.569 63.1718 251.456 63.3432C251.343 63.5146 251.288 63.7122 251.29 63.9359C251.288 64.1513 251.339 64.3394 251.444 64.5004C251.55 64.6593 251.702 64.7837 251.898 64.8736C252.095 64.9614 252.327 65.0053 252.595 65.0053ZM252.595 62.0166C252.808 62.0166 252.997 61.9738 253.162 61.8881C253.327 61.8024 253.457 61.6832 253.551 61.5306C253.647 61.3779 253.697 61.1992 253.699 60.9943C253.697 60.7936 253.648 60.618 253.554 60.4674C253.462 60.3169 253.334 60.2009 253.169 60.1193C253.003 60.0357 252.812 59.9939 252.595 59.9939C252.373 59.9939 252.179 60.0357 252.011 60.1193C251.846 60.2009 251.718 60.3169 251.626 60.4674C251.534 60.618 251.489 60.7936 251.491 60.9943C251.489 61.1992 251.535 61.3779 251.629 61.5306C251.723 61.6832 251.852 61.8024 252.018 61.8881C252.185 61.9738 252.377 62.0166 252.595 62.0166Z" fill="#050505"/>
<rect x="273.197" y="51.4581" width="24.149" height="22.3828" rx="5.00959" stroke="#D2D2D2" stroke-width="0.578231"/>
<path d="M285.219 59.2005C285.505 59.2025 285.787 59.2548 286.065 59.3573C286.344 59.4597 286.594 59.627 286.818 59.859C287.044 60.0911 287.224 60.4047 287.358 60.7999C287.493 61.1929 287.562 61.6821 287.565 62.2675C287.565 62.8299 287.508 63.3307 287.395 63.7697C287.282 64.2067 287.12 64.5757 286.909 64.8767C286.7 65.1778 286.446 65.4067 286.147 65.5635C285.848 65.7203 285.511 65.7987 285.137 65.7987C284.755 65.7987 284.415 65.7235 284.118 65.573C283.821 65.4224 283.58 65.2144 283.394 64.9489C283.207 64.6813 283.091 64.3739 283.045 64.0269H284.002C284.065 64.3028 284.192 64.5265 284.385 64.698C284.579 64.8673 284.83 64.952 285.137 64.952C285.608 64.952 285.975 64.7471 286.238 64.3373C286.501 63.9255 286.634 63.3505 286.636 62.6125H286.586C286.477 62.7923 286.341 62.947 286.178 63.0766C286.017 63.2063 285.837 63.3066 285.636 63.3777C285.435 63.4488 285.221 63.4843 284.993 63.4843C284.623 63.4843 284.286 63.3934 283.983 63.2115C283.68 63.0296 283.438 62.7798 283.259 62.462C283.079 62.1442 282.989 61.7814 282.989 61.3738C282.989 60.9682 283.081 60.6002 283.265 60.2699C283.451 59.9395 283.71 59.6782 284.043 59.4858C284.377 59.2914 284.769 59.1963 285.219 59.2005ZM285.222 60.0158C284.977 60.0158 284.757 60.0765 284.56 60.1977C284.366 60.3169 284.212 60.4789 284.099 60.6838C283.986 60.8866 283.93 61.1124 283.93 61.3612C283.93 61.61 283.984 61.8358 284.093 62.0386C284.204 62.2393 284.354 62.3992 284.544 62.5184C284.737 62.6355 284.956 62.694 285.203 62.694C285.387 62.694 285.558 62.6585 285.717 62.5874C285.876 62.5163 286.015 62.4181 286.134 62.2926C286.254 62.1651 286.347 62.0208 286.414 61.8598C286.48 61.6989 286.514 61.5295 286.514 61.3518C286.514 61.1156 286.457 60.896 286.345 60.6932C286.234 60.4904 286.081 60.3274 285.887 60.204C285.692 60.0786 285.471 60.0158 285.222 60.0158Z" fill="#050505"/>
<path d="M16.718 84.0572V89.1953H16.0055L13.3938 85.427H13.3461V89.1953H12.5709V84.0572H13.2884L15.9026 87.8305H15.9503V84.0572H16.718ZM19.4119 89.2731C19.0506 89.2731 18.7353 89.1903 18.466 89.0247C18.1968 88.8591 17.9877 88.6275 17.8388 88.3298C17.69 88.032 17.6155 87.6841 17.6155 87.2861C17.6155 86.8863 17.69 86.5368 17.8388 86.2374C17.9877 85.938 18.1968 85.7055 18.466 85.5399C18.7353 85.3743 19.0506 85.2915 19.4119 85.2915C19.7732 85.2915 20.0884 85.3743 20.3577 85.5399C20.627 85.7055 20.8361 85.938 20.9849 86.2374C21.1338 86.5368 21.2082 86.8863 21.2082 87.2861C21.2082 87.6841 21.1338 88.032 20.9849 88.3298C20.8361 88.6275 20.627 88.8591 20.3577 89.0247C20.0884 89.1903 19.7732 89.2731 19.4119 89.2731ZM19.4144 88.6434C19.6485 88.6434 19.8426 88.5815 19.9964 88.4577C20.1503 88.3339 20.2641 88.1692 20.3376 87.9635C20.4129 87.7577 20.4505 87.5311 20.4505 87.2836C20.4505 87.0377 20.4129 86.8119 20.3376 86.6062C20.2641 86.3988 20.1503 86.2324 19.9964 86.1069C19.8426 85.9815 19.6485 85.9187 19.4144 85.9187C19.1786 85.9187 18.9829 85.9815 18.8273 86.1069C18.6734 86.2324 18.5589 86.3988 18.4836 86.6062C18.41 86.8119 18.3732 87.0377 18.3732 87.2836C18.3732 87.5311 18.41 87.7577 18.4836 87.9635C18.5589 88.1692 18.6734 88.3339 18.8273 88.4577C18.9829 88.5815 19.1786 88.6434 19.4144 88.6434ZM23.8444 85.3417V85.9438H21.7395V85.3417H23.8444ZM22.304 84.4185H23.0541V88.0638C23.0541 88.2093 23.0759 88.3189 23.1193 88.3925C23.1628 88.4644 23.2189 88.5137 23.2874 88.5405C23.3577 88.5656 23.4338 88.5781 23.5157 88.5781C23.576 88.5781 23.6286 88.574 23.6738 88.5656C23.719 88.5572 23.7541 88.5505 23.7792 88.5455L23.9146 89.1652C23.8712 89.1819 23.8093 89.1987 23.729 89.2154C23.6487 89.2338 23.5484 89.2438 23.4279 89.2455C23.2306 89.2488 23.0466 89.2137 22.876 89.1401C22.7054 89.0665 22.5674 88.9528 22.462 88.7989C22.3566 88.645 22.304 88.4519 22.304 88.2194V84.4185ZM27.2941 84.0572V89.1953H26.5439V84.0572H27.2941ZM28.3033 89.1953V85.3417H29.0534V89.1953H28.3033ZM28.6821 84.7471C28.5516 84.7471 28.4396 84.7036 28.3459 84.6167C28.2539 84.528 28.2079 84.4226 28.2079 84.3005C28.2079 84.1768 28.2539 84.0714 28.3459 83.9844C28.4396 83.8958 28.5516 83.8515 28.6821 83.8515C28.8126 83.8515 28.9238 83.8958 29.0158 83.9844C29.1094 84.0714 29.1563 84.1768 29.1563 84.3005C29.1563 84.4226 29.1094 84.528 29.0158 84.6167C28.9238 84.7036 28.8126 84.7471 28.6821 84.7471ZM30.7525 87.8882L30.7475 86.9725H30.878L32.4134 85.3417H33.3116L31.5604 87.1983H31.4425L30.7525 87.8882ZM30.0626 89.1953V84.0572H30.8127V89.1953H30.0626ZM32.4962 89.1953L31.1163 87.3638L31.6331 86.8395L33.4169 89.1953H32.4962ZM35.4974 89.2731C35.1177 89.2731 34.7907 89.192 34.5164 89.0297C34.2438 88.8658 34.0331 88.6358 33.8842 88.3398C33.737 88.0421 33.6634 87.6933 33.6634 87.2936C33.6634 86.8989 33.737 86.551 33.8842 86.2499C34.0331 85.9489 34.2405 85.7139 34.5064 85.5449C34.774 85.376 35.0868 85.2915 35.4447 85.2915C35.6622 85.2915 35.8729 85.3275 36.0769 85.3994C36.281 85.4713 36.4641 85.5842 36.6264 85.7381C36.7886 85.892 36.9166 86.0919 37.0102 86.3377C37.1039 86.5819 37.1507 86.8788 37.1507 87.2284V87.4943H34.0874V86.9323H36.4156C36.4156 86.735 36.3755 86.5602 36.2952 86.408C36.2149 86.2541 36.102 86.1328 35.9565 86.0442C35.8127 85.9555 35.6438 85.9112 35.4497 85.9112C35.239 85.9112 35.055 85.9631 34.8978 86.0668C34.7422 86.1688 34.6218 86.3026 34.5365 86.4682C34.4529 86.6321 34.4111 86.8102 34.4111 87.0026V87.4416C34.4111 87.6992 34.4562 87.9183 34.5465 88.0989C34.6385 88.2796 34.7665 88.4176 34.9304 88.5129C35.0943 88.6066 35.2858 88.6534 35.5049 88.6534C35.6471 88.6534 35.7767 88.6333 35.8938 88.5932C36.0109 88.5514 36.1121 88.4895 36.1974 88.4075C36.2827 88.3256 36.3479 88.2244 36.3931 88.104L37.1031 88.2319C37.0462 88.441 36.9442 88.6241 36.797 88.7814C36.6515 88.9369 36.4683 89.0582 36.2475 89.1451C36.0284 89.2304 35.7784 89.2731 35.4974 89.2731ZM38.7332 84.0572V89.1953H37.983V84.0572H38.7332ZM40.2166 90.6404C40.1045 90.6404 40.0025 90.6312 39.9105 90.6128C39.8185 90.5961 39.7499 90.5777 39.7048 90.5576L39.8854 89.943C40.0225 89.9797 40.1446 89.9956 40.2517 89.9906C40.3587 89.9856 40.4532 89.9455 40.5352 89.8702C40.6188 89.7949 40.6924 89.672 40.756 89.5014L40.8488 89.2455L39.4388 85.3417H40.2416L41.2176 88.3323H41.2577L42.2337 85.3417H43.039L41.4509 89.7096C41.3773 89.9103 41.2837 90.0801 41.1699 90.2189C41.0562 90.3594 40.9207 90.4648 40.7635 90.535C40.6063 90.6053 40.424 90.6404 40.2166 90.6404Z" fill="#999999"/>
<path d="M296.936 89.1953V84.0572H300.157V84.7245H297.711V86.2901H299.989V86.9549H297.711V88.528H300.187V89.1953H296.936ZM301.725 85.3417L302.575 86.842L303.433 85.3417H304.253L303.052 87.2685L304.263 89.1953H303.443L302.575 87.7552L301.709 89.1953H300.887L302.086 87.2685L300.902 85.3417H301.725ZM306.823 85.3417V85.9438H304.718V85.3417H306.823ZM305.282 84.4185H306.032V88.0638C306.032 88.2093 306.054 88.3189 306.097 88.3925C306.141 88.4644 306.197 88.5137 306.266 88.5405C306.336 88.5656 306.412 88.5781 306.494 88.5781C306.554 88.5781 306.607 88.574 306.652 88.5656C306.697 88.5572 306.732 88.5505 306.757 88.5455L306.893 89.1652C306.849 89.1819 306.787 89.1987 306.707 89.2154C306.627 89.2338 306.526 89.2438 306.406 89.2455C306.209 89.2488 306.025 89.2137 305.854 89.1401C305.683 89.0665 305.546 88.9528 305.44 88.7989C305.335 88.645 305.282 88.4519 305.282 88.2194V84.4185ZM307.652 89.1953V85.3417H308.377V85.9539H308.418C308.488 85.7465 308.612 85.5834 308.789 85.4646C308.968 85.3442 309.17 85.284 309.396 85.284C309.443 85.284 309.498 85.2857 309.562 85.289C309.627 85.2924 309.678 85.2966 309.715 85.3016V86.0191C309.684 86.0107 309.631 86.0015 309.554 85.9915C309.477 85.9798 309.4 85.9739 309.323 85.9739C309.146 85.9739 308.988 86.0116 308.849 86.0868C308.712 86.1604 308.603 86.2633 308.523 86.3954C308.443 86.5259 308.402 86.6747 308.402 86.842V89.1953H307.652ZM311.887 89.2731C311.507 89.2731 311.18 89.192 310.906 89.0297C310.633 88.8658 310.422 88.6358 310.273 88.3398C310.126 88.0421 310.053 87.6933 310.053 87.2936C310.053 86.8989 310.126 86.551 310.273 86.2499C310.422 85.9489 310.63 85.7139 310.896 85.5449C311.163 85.376 311.476 85.2915 311.834 85.2915C312.051 85.2915 312.262 85.3275 312.466 85.3994C312.67 85.4713 312.853 85.5842 313.016 85.7381C313.178 85.892 313.306 86.0919 313.399 86.3377C313.493 86.5819 313.54 86.8788 313.54 87.2284V87.4943H310.477V86.9323H312.805C312.805 86.735 312.765 86.5602 312.684 86.408C312.604 86.2541 312.491 86.1328 312.346 86.0442C312.202 85.9555 312.033 85.9112 311.839 85.9112C311.628 85.9112 311.444 85.9631 311.287 86.0668C311.131 86.1688 311.011 86.3026 310.926 86.4682C310.842 86.6321 310.8 86.8102 310.8 87.0026V87.4416C310.8 87.6992 310.845 87.9183 310.936 88.0989C311.028 88.2796 311.156 88.4176 311.32 88.5129C311.484 88.6066 311.675 88.6534 311.894 88.6534C312.036 88.6534 312.166 88.6333 312.283 88.5932C312.4 88.5514 312.501 88.4895 312.587 88.4075C312.672 88.3256 312.737 88.2244 312.782 88.104L313.492 88.2319C313.435 88.441 313.333 88.6241 313.186 88.7814C313.041 88.9369 312.858 89.0582 312.637 89.1451C312.418 89.2304 312.168 89.2731 311.887 89.2731ZM314.372 89.1953V85.3417H315.092V85.9689H315.14C315.22 85.7565 315.352 85.5909 315.534 85.4722C315.716 85.3517 315.934 85.2915 316.189 85.2915C316.446 85.2915 316.662 85.3517 316.836 85.4722C317.012 85.5926 317.141 85.7582 317.225 85.9689H317.265C317.357 85.7632 317.503 85.5993 317.704 85.4772C317.905 85.3534 318.144 85.2915 318.422 85.2915C318.771 85.2915 319.056 85.4011 319.277 85.6202C319.5 85.8393 319.611 86.1696 319.611 86.6112V89.1953H318.861V86.6814C318.861 86.4205 318.79 86.2315 318.647 86.1144C318.505 85.9974 318.335 85.9388 318.138 85.9388C317.894 85.9388 317.704 86.0141 317.569 86.1646C317.433 86.3135 317.365 86.505 317.365 86.7391V89.1953H316.618V86.6338C316.618 86.4247 316.552 86.2566 316.422 86.1295C316.292 86.0024 316.122 85.9388 315.913 85.9388C315.771 85.9388 315.639 85.9765 315.519 86.0517C315.4 86.1253 315.304 86.2282 315.23 86.3603C315.158 86.4924 315.122 86.6455 315.122 86.8194V89.1953H314.372ZM322.277 89.2731C321.897 89.2731 321.57 89.192 321.296 89.0297C321.023 88.8658 320.813 88.6358 320.664 88.3398C320.517 88.0421 320.443 87.6933 320.443 87.2936C320.443 86.8989 320.517 86.551 320.664 86.2499C320.813 85.9489 321.02 85.7139 321.286 85.5449C321.554 85.376 321.866 85.2915 322.224 85.2915C322.442 85.2915 322.653 85.3275 322.857 85.3994C323.061 85.4713 323.244 85.5842 323.406 85.7381C323.568 85.892 323.696 86.0919 323.79 86.3377C323.884 86.5819 323.93 86.8788 323.93 87.2284V87.4943H320.867V86.9323H323.195C323.195 86.735 323.155 86.5602 323.075 86.408C322.995 86.2541 322.882 86.1328 322.736 86.0442C322.592 85.9555 322.423 85.9112 322.229 85.9112C322.019 85.9112 321.835 85.9631 321.677 86.0668C321.522 86.1688 321.401 86.3026 321.316 86.4682C321.233 86.6321 321.191 86.8102 321.191 87.0026V87.4416C321.191 87.6992 321.236 87.9183 321.326 88.0989C321.418 88.2796 321.546 88.4176 321.71 88.5129C321.874 88.6066 322.065 88.6534 322.285 88.6534C322.427 88.6534 322.556 88.6333 322.673 88.5932C322.791 88.5514 322.892 88.4895 322.977 88.4075C323.062 88.3256 323.128 88.2244 323.173 88.104L323.883 88.2319C323.826 88.441 323.724 88.6241 323.577 88.7814C323.431 88.9369 323.248 89.0582 323.027 89.1451C322.808 89.2304 322.558 89.2731 322.277 89.2731ZM325.513 84.0572V89.1953H324.763V84.0572H325.513ZM326.996 90.6404C326.884 90.6404 326.782 90.6312 326.69 90.6128C326.598 90.5961 326.53 90.5777 326.484 90.5576L326.665 89.943C326.802 89.9797 326.924 89.9956 327.031 89.9906C327.138 89.9856 327.233 89.9455 327.315 89.8702C327.398 89.7949 327.472 89.672 327.536 89.5014L327.628 89.2455L326.218 85.3417H327.021L327.997 88.3323H328.037L329.013 85.3417H329.819L328.231 89.7096C328.157 89.9103 328.063 90.0801 327.95 90.2189C327.836 90.3594 327.7 90.4648 327.543 90.535C327.386 90.6053 327.204 90.6404 326.996 90.6404Z" fill="#999999"/>
<path d="M136.659 109.793V105.297H138.178C138.531 105.297 138.819 105.361 139.043 105.488C139.268 105.614 139.435 105.784 139.543 106C139.652 106.215 139.706 106.455 139.706 106.72C139.706 106.985 139.652 107.225 139.543 107.442C139.436 107.658 139.271 107.831 139.047 107.96C138.823 108.087 138.536 108.151 138.187 108.151H137.098V107.668H138.169C138.411 107.668 138.604 107.626 138.751 107.543C138.897 107.459 139.003 107.347 139.069 107.205C139.136 107.061 139.17 106.9 139.17 106.72C139.17 106.54 139.136 106.379 139.069 106.237C139.003 106.095 138.896 105.983 138.749 105.903C138.601 105.821 138.405 105.78 138.16 105.78H137.203V109.793H136.659ZM141.846 109.863C141.542 109.863 141.275 109.791 141.045 109.646C140.817 109.501 140.638 109.298 140.509 109.038C140.382 108.777 140.318 108.473 140.318 108.125C140.318 107.773 140.382 107.467 140.509 107.205C140.638 106.943 140.817 106.739 141.045 106.594C141.275 106.45 141.542 106.377 141.846 106.377C142.15 106.377 142.417 106.45 142.645 106.594C142.875 106.739 143.053 106.943 143.181 107.205C143.31 107.467 143.374 107.773 143.374 108.125C143.374 108.473 143.31 108.777 143.181 109.038C143.053 109.298 142.875 109.501 142.645 109.646C142.417 109.791 142.15 109.863 141.846 109.863ZM141.846 109.398C142.077 109.398 142.268 109.339 142.417 109.22C142.566 109.101 142.677 108.946 142.748 108.752C142.82 108.559 142.856 108.35 142.856 108.125C142.856 107.899 142.82 107.689 142.748 107.495C142.677 107.3 142.566 107.143 142.417 107.023C142.268 106.903 142.077 106.843 141.846 106.843C141.615 106.843 141.425 106.903 141.275 107.023C141.126 107.143 141.016 107.3 140.944 107.495C140.872 107.689 140.836 107.899 140.836 108.125C140.836 108.35 140.872 108.559 140.944 108.752C141.016 108.946 141.126 109.101 141.275 109.22C141.425 109.339 141.615 109.398 141.846 109.398ZM144.814 109.793L143.787 106.421H144.331L145.06 109.003H145.095L145.815 106.421H146.368L147.08 108.994H147.115L147.843 106.421H148.388L147.361 109.793H146.851L146.114 107.203H146.061L145.323 109.793H144.814ZM150.372 109.863C150.047 109.863 149.767 109.792 149.531 109.648C149.297 109.503 149.116 109.301 148.989 109.042C148.863 108.782 148.8 108.479 148.8 108.133C148.8 107.788 148.863 107.484 148.989 107.22C149.116 106.955 149.293 106.749 149.52 106.601C149.748 106.452 150.015 106.377 150.319 106.377C150.495 106.377 150.668 106.406 150.839 106.465C151.011 106.524 151.167 106.619 151.307 106.75C151.448 106.881 151.56 107.053 151.643 107.268C151.726 107.484 151.768 107.748 151.768 108.063V108.283H149.169V107.835H151.241C151.241 107.645 151.203 107.475 151.127 107.326C151.052 107.176 150.946 107.058 150.807 106.972C150.669 106.886 150.507 106.843 150.319 106.843C150.113 106.843 149.934 106.894 149.784 106.996C149.634 107.097 149.519 107.229 149.439 107.391C149.358 107.554 149.318 107.728 149.318 107.914V108.212C149.318 108.467 149.362 108.683 149.45 108.86C149.539 109.036 149.663 109.17 149.821 109.262C149.979 109.352 150.163 109.398 150.372 109.398C150.508 109.398 150.631 109.379 150.741 109.341C150.852 109.301 150.948 109.243 151.028 109.165C151.109 109.086 151.171 108.988 151.215 108.871L151.715 109.011C151.663 109.181 151.574 109.331 151.45 109.459C151.325 109.587 151.172 109.686 150.989 109.758C150.806 109.828 150.6 109.863 150.372 109.863ZM152.556 109.793V106.421H153.057V106.93H153.092C153.153 106.764 153.264 106.628 153.425 106.524C153.586 106.42 153.768 106.368 153.97 106.368C154.008 106.368 154.055 106.369 154.113 106.371C154.17 106.372 154.213 106.374 154.242 106.377V106.904C154.225 106.9 154.184 106.893 154.121 106.884C154.06 106.874 153.995 106.869 153.926 106.869C153.762 106.869 153.616 106.903 153.487 106.972C153.36 107.039 153.259 107.133 153.184 107.253C153.111 107.372 153.074 107.507 153.074 107.659V109.793H152.556ZM156.167 109.863C155.842 109.863 155.562 109.792 155.327 109.648C155.092 109.503 154.912 109.301 154.784 109.042C154.658 108.782 154.596 108.479 154.596 108.133C154.596 107.788 154.658 107.484 154.784 107.22C154.912 106.955 155.089 106.749 155.316 106.601C155.544 106.452 155.81 106.377 156.115 106.377C156.29 106.377 156.464 106.406 156.635 106.465C156.806 106.524 156.962 106.619 157.103 106.75C157.243 106.881 157.355 107.053 157.438 107.268C157.522 107.484 157.564 107.748 157.564 108.063V108.283H154.964V107.835H157.037C157.037 107.645 156.999 107.475 156.922 107.326C156.848 107.176 156.741 107.058 156.602 106.972C156.464 106.886 156.302 106.843 156.115 106.843C155.908 106.843 155.73 106.894 155.579 106.996C155.43 107.097 155.315 107.229 155.234 107.391C155.154 107.554 155.114 107.728 155.114 107.914V108.212C155.114 108.467 155.158 108.683 155.245 108.86C155.335 109.036 155.458 109.17 155.616 109.262C155.774 109.352 155.958 109.398 156.167 109.398C156.303 109.398 156.426 109.379 156.536 109.341C156.647 109.301 156.743 109.243 156.824 109.165C156.904 109.086 156.966 108.988 157.01 108.871L157.511 109.011C157.458 109.181 157.37 109.331 157.245 109.459C157.121 109.587 156.967 109.686 156.784 109.758C156.601 109.828 156.396 109.863 156.167 109.863ZM159.625 109.863C159.344 109.863 159.096 109.792 158.881 109.65C158.666 109.507 158.497 109.305 158.376 109.044C158.254 108.782 158.194 108.473 158.194 108.116C158.194 107.762 158.254 107.454 158.376 107.194C158.497 106.933 158.666 106.732 158.883 106.59C159.099 106.448 159.35 106.377 159.634 106.377C159.853 106.377 160.027 106.414 160.154 106.487C160.283 106.559 160.381 106.641 160.448 106.733C160.517 106.824 160.57 106.898 160.608 106.957H160.652V105.297H161.17V109.793H160.67V109.275H160.608C160.57 109.336 160.516 109.414 160.446 109.508C160.376 109.6 160.275 109.682 160.145 109.756C160.015 109.827 159.841 109.863 159.625 109.863ZM159.695 109.398C159.903 109.398 160.079 109.344 160.222 109.235C160.365 109.126 160.474 108.974 160.549 108.781C160.624 108.586 160.661 108.362 160.661 108.107C160.661 107.855 160.624 107.635 160.551 107.446C160.478 107.256 160.37 107.108 160.226 107.003C160.083 106.896 159.906 106.843 159.695 106.843C159.476 106.843 159.293 106.899 159.146 107.012C159.001 107.123 158.892 107.274 158.819 107.466C158.747 107.656 158.712 107.87 158.712 108.107C158.712 108.347 158.748 108.565 158.821 108.761C158.896 108.956 159.006 109.111 159.151 109.227C159.297 109.341 159.478 109.398 159.695 109.398ZM164 109.793V105.297H164.518V106.957H164.562C164.6 106.898 164.653 106.824 164.72 106.733C164.789 106.641 164.887 106.559 165.014 106.487C165.143 106.414 165.317 106.377 165.537 106.377C165.821 106.377 166.071 106.448 166.287 106.59C166.504 106.732 166.673 106.933 166.795 107.194C166.916 107.454 166.977 107.762 166.977 108.116C166.977 108.473 166.916 108.782 166.795 109.044C166.673 109.305 166.505 109.507 166.29 109.65C166.074 109.792 165.826 109.863 165.545 109.863C165.329 109.863 165.155 109.827 165.025 109.756C164.895 109.682 164.795 109.6 164.724 109.508C164.654 109.414 164.6 109.336 164.562 109.275H164.5V109.793H164ZM164.509 108.107C164.509 108.362 164.547 108.586 164.621 108.781C164.696 108.974 164.805 109.126 164.948 109.235C165.092 109.344 165.267 109.398 165.475 109.398C165.692 109.398 165.873 109.341 166.017 109.227C166.164 109.111 166.274 108.956 166.347 108.761C166.421 108.565 166.459 108.347 166.459 108.107C166.459 107.87 166.422 107.656 166.349 107.466C166.277 107.274 166.168 107.123 166.022 107.012C165.877 106.899 165.695 106.843 165.475 106.843C165.264 106.843 165.087 106.896 164.944 107.003C164.801 107.108 164.692 107.256 164.619 107.446C164.546 107.635 164.509 107.855 164.509 108.107ZM167.982 111.057C167.894 111.057 167.816 111.05 167.747 111.035C167.678 111.022 167.631 111.009 167.605 110.996L167.736 110.539C167.862 110.572 167.973 110.583 168.07 110.574C168.167 110.566 168.252 110.523 168.327 110.445C168.403 110.369 168.472 110.245 168.535 110.074L168.632 109.811L167.385 106.421H167.947L168.878 109.108H168.913L169.844 106.421H170.406L168.974 110.285C168.91 110.459 168.83 110.603 168.735 110.717C168.64 110.833 168.53 110.918 168.404 110.974C168.279 111.03 168.139 111.057 167.982 111.057Z" fill="#575656"/>
<path d="M172.795 109.793V106.421H173.452V109.793H172.795ZM173.127 105.901C173.013 105.901 172.915 105.863 172.833 105.787C172.752 105.709 172.712 105.617 172.712 105.51C172.712 105.402 172.752 105.31 172.833 105.233C172.915 105.156 173.013 105.117 173.127 105.117C173.241 105.117 173.338 105.156 173.419 105.233C173.501 105.31 173.542 105.402 173.542 105.51C173.542 105.617 173.501 105.709 173.419 105.787C173.338 105.863 173.241 105.901 173.127 105.901ZM174.991 107.791V109.793H174.335V106.421H174.965V106.97H175.006C175.084 106.791 175.205 106.648 175.371 106.54C175.538 106.431 175.748 106.377 176.001 106.377C176.231 106.377 176.432 106.425 176.605 106.522C176.777 106.617 176.911 106.759 177.006 106.948C177.101 107.137 177.149 107.37 177.149 107.648V109.793H176.493V107.727C176.493 107.483 176.429 107.292 176.302 107.154C176.174 107.015 175.999 106.946 175.777 106.946C175.625 106.946 175.489 106.979 175.371 107.045C175.254 107.11 175.161 107.207 175.092 107.334C175.025 107.46 174.991 107.612 174.991 107.791ZM179.603 106.421V106.948H177.761V106.421H179.603ZM178.255 105.613H178.912V108.803C178.912 108.93 178.931 109.026 178.969 109.09C179.007 109.153 179.056 109.197 179.116 109.22C179.177 109.242 179.244 109.253 179.316 109.253C179.368 109.253 179.414 109.249 179.454 109.242C179.493 109.235 179.524 109.229 179.546 109.224L179.665 109.767C179.627 109.781 179.573 109.796 179.502 109.811C179.432 109.827 179.344 109.835 179.239 109.837C179.066 109.84 178.905 109.809 178.756 109.745C178.607 109.68 178.486 109.581 178.394 109.446C178.301 109.311 178.255 109.142 178.255 108.939V105.613ZM181.746 109.861C181.414 109.861 181.128 109.79 180.888 109.648C180.649 109.505 180.465 109.303 180.335 109.044C180.206 108.784 180.142 108.479 180.142 108.129C180.142 107.784 180.206 107.479 180.335 107.216C180.465 106.952 180.647 106.747 180.879 106.599C181.113 106.451 181.387 106.377 181.7 106.377C181.891 106.377 182.075 106.409 182.253 106.472C182.432 106.534 182.592 106.633 182.734 106.768C182.876 106.903 182.988 107.077 183.07 107.293C183.152 107.506 183.193 107.766 183.193 108.072V108.305H180.513V107.813H182.55C182.55 107.64 182.515 107.487 182.444 107.354C182.374 107.219 182.275 107.113 182.148 107.036C182.022 106.958 181.874 106.919 181.705 106.919C181.52 106.919 181.359 106.965 181.222 107.055C181.086 107.145 180.98 107.262 180.906 107.407C180.832 107.55 180.796 107.706 180.796 107.874V108.258C180.796 108.484 180.835 108.676 180.914 108.834C180.995 108.992 181.107 109.112 181.25 109.196C181.394 109.278 181.561 109.319 181.753 109.319C181.877 109.319 181.991 109.301 182.093 109.266C182.196 109.23 182.284 109.175 182.359 109.104C182.433 109.032 182.491 108.943 182.53 108.838L183.151 108.95C183.102 109.133 183.012 109.293 182.883 109.431C182.756 109.567 182.596 109.673 182.403 109.749C182.211 109.824 181.992 109.861 181.746 109.861ZM185.335 111.128C185.067 111.128 184.837 111.093 184.644 111.022C184.452 110.952 184.295 110.859 184.174 110.744C184.052 110.628 183.962 110.501 183.902 110.364L184.466 110.131C184.505 110.195 184.558 110.263 184.624 110.335C184.691 110.408 184.782 110.471 184.896 110.522C185.012 110.573 185.16 110.599 185.342 110.599C185.59 110.599 185.796 110.538 185.958 110.416C186.121 110.296 186.202 110.105 186.202 109.841V109.178H186.16C186.121 109.25 186.064 109.33 185.989 109.418C185.916 109.505 185.815 109.581 185.686 109.646C185.557 109.71 185.39 109.742 185.184 109.742C184.917 109.742 184.677 109.68 184.464 109.556C184.251 109.43 184.083 109.245 183.959 109C183.836 108.755 183.774 108.452 183.774 108.094C183.774 107.735 183.835 107.428 183.956 107.172C184.079 106.916 184.248 106.72 184.461 106.584C184.675 106.446 184.917 106.377 185.188 106.377C185.397 106.377 185.566 106.412 185.695 106.483C185.824 106.551 185.924 106.632 185.996 106.724C186.069 106.816 186.125 106.897 186.165 106.968H186.213V106.421H186.856V109.868C186.856 110.157 186.789 110.395 186.654 110.581C186.52 110.767 186.338 110.904 186.108 110.994C185.879 111.083 185.622 111.128 185.335 111.128ZM185.328 109.198C185.517 109.198 185.677 109.154 185.807 109.066C185.939 108.977 186.038 108.85 186.106 108.684C186.174 108.518 186.209 108.318 186.209 108.085C186.209 107.858 186.175 107.658 186.108 107.486C186.04 107.313 185.942 107.178 185.811 107.082C185.681 106.984 185.52 106.935 185.328 106.935C185.131 106.935 184.966 106.986 184.835 107.088C184.703 107.189 184.603 107.327 184.536 107.501C184.47 107.675 184.437 107.87 184.437 108.085C184.437 108.306 184.471 108.5 184.538 108.667C184.605 108.834 184.705 108.964 184.837 109.058C184.97 109.151 185.134 109.198 185.328 109.198ZM187.737 109.793V106.421H188.371V106.957H188.406C188.468 106.775 188.576 106.633 188.731 106.529C188.888 106.423 189.065 106.371 189.262 106.371C189.303 106.371 189.352 106.372 189.407 106.375C189.464 106.378 189.509 106.382 189.541 106.386V107.014C189.515 107.006 189.468 106.998 189.401 106.99C189.333 106.979 189.266 106.974 189.199 106.974C189.044 106.974 188.905 107.007 188.784 107.073C188.664 107.137 188.569 107.227 188.498 107.343C188.428 107.457 188.393 107.587 188.393 107.734V109.793H187.737ZM191.06 109.868C190.847 109.868 190.653 109.828 190.481 109.749C190.308 109.669 190.171 109.552 190.07 109.4C189.971 109.248 189.921 109.061 189.921 108.84C189.921 108.65 189.958 108.493 190.031 108.37C190.104 108.248 190.203 108.15 190.327 108.078C190.451 108.007 190.59 107.953 190.744 107.916C190.898 107.879 191.054 107.852 191.214 107.833C191.416 107.809 191.58 107.79 191.706 107.776C191.832 107.759 191.923 107.734 191.98 107.699C192.037 107.664 192.066 107.607 192.066 107.527V107.512C192.066 107.32 192.012 107.172 191.903 107.066C191.796 106.961 191.637 106.908 191.425 106.908C191.204 106.908 191.03 106.957 190.902 107.055C190.776 107.152 190.689 107.26 190.641 107.378L190.024 107.238C190.097 107.033 190.204 106.867 190.345 106.742C190.487 106.614 190.65 106.522 190.834 106.465C191.019 106.406 191.212 106.377 191.416 106.377C191.551 106.377 191.693 106.393 191.844 106.425C191.996 106.456 192.138 106.513 192.27 106.597C192.403 106.68 192.512 106.799 192.597 106.955C192.682 107.108 192.724 107.308 192.724 107.554V109.793H192.083V109.332H192.057C192.014 109.417 191.951 109.5 191.866 109.582C191.781 109.664 191.672 109.732 191.539 109.786C191.406 109.841 191.246 109.868 191.06 109.868ZM191.203 109.341C191.384 109.341 191.54 109.305 191.668 109.233C191.799 109.161 191.897 109.068 191.965 108.952C192.033 108.835 192.068 108.71 192.068 108.577V108.142C192.044 108.166 191.999 108.188 191.932 108.208C191.866 108.227 191.791 108.244 191.706 108.258C191.621 108.272 191.538 108.284 191.458 108.296C191.377 108.306 191.31 108.315 191.256 108.322C191.128 108.338 191.012 108.365 190.907 108.403C190.803 108.441 190.719 108.496 190.656 108.568C190.595 108.638 190.564 108.732 190.564 108.849C190.564 109.011 190.624 109.134 190.744 109.218C190.864 109.3 191.017 109.341 191.203 109.341ZM195.203 106.421V106.948H193.298V106.421H195.203ZM193.82 109.793V106.03C193.82 105.82 193.866 105.645 193.959 105.506C194.051 105.365 194.173 105.261 194.325 105.192C194.477 105.121 194.643 105.086 194.821 105.086C194.953 105.086 195.066 105.097 195.159 105.119C195.253 105.14 195.323 105.159 195.368 105.176L195.214 105.708C195.183 105.699 195.144 105.689 195.096 105.677C195.047 105.664 194.989 105.657 194.92 105.657C194.761 105.657 194.646 105.697 194.578 105.776C194.51 105.855 194.477 105.969 194.477 106.118V109.793H193.82ZM196.537 105.297V109.793H195.88V105.297H196.537ZM198.84 109.861C198.524 109.861 198.248 109.789 198.013 109.644C197.777 109.499 197.594 109.296 197.464 109.036C197.334 108.775 197.268 108.471 197.268 108.122C197.268 107.773 197.334 107.467 197.464 107.205C197.594 106.943 197.777 106.739 198.013 106.594C198.248 106.45 198.524 106.377 198.84 106.377C199.156 106.377 199.432 106.45 199.668 106.594C199.903 106.739 200.086 106.943 200.217 107.205C200.347 107.467 200.412 107.773 200.412 108.122C200.412 108.471 200.347 108.775 200.217 109.036C200.086 109.296 199.903 109.499 199.668 109.644C199.432 109.789 199.156 109.861 198.84 109.861ZM198.842 109.31C199.047 109.31 199.217 109.256 199.352 109.148C199.486 109.039 199.586 108.895 199.65 108.715C199.716 108.535 199.749 108.337 199.749 108.12C199.749 107.905 199.716 107.707 199.65 107.527C199.586 107.346 199.486 107.2 199.352 107.091C199.217 106.981 199.047 106.926 198.842 106.926C198.636 106.926 198.465 106.981 198.329 107.091C198.194 107.2 198.094 107.346 198.028 107.527C197.964 107.707 197.931 107.905 197.931 108.12C197.931 108.337 197.964 108.535 198.028 108.715C198.094 108.895 198.194 109.039 198.329 109.148C198.465 109.256 198.636 109.31 198.842 109.31ZM201.773 109.793L200.781 106.421H201.459L202.12 108.897H202.153L202.816 106.421H203.494L204.153 108.886H204.186L204.842 106.421H205.52L204.53 109.793H203.861L203.176 107.358H203.125L202.44 109.793H201.773Z" fill="#050505"/>
</g>
</svg>
