<svg width="198" height="176" viewBox="0 0 198 176" fill="none" xmlns="http://www.w3.org/2000/svg">
<g opacity="0.7">
<rect x="0.908203" y="0.90918" width="197" height="240.084" rx="8.27297" fill="white"/>
<path d="M179.295 16.4209L173.09 22.6256" stroke="black" stroke-width="1.03412" strokeLInecap="round" strokeLinejoin="round"/>
<path d="M173.09 16.4209L179.295 22.6256" stroke="black" stroke-width="1.03412" strokeLInecap="round" strokeLinejoin="round"/>
<path d="M16.5794 37.7617H14.1446V30.2408H16.6565C17.3934 30.2408 18.0263 30.3914 18.5551 30.6925C19.0839 30.9912 19.4891 31.4209 19.7706 31.9815C20.0546 32.5397 20.1966 33.2093 20.1966 33.9903C20.1966 34.7737 20.0534 35.4469 19.7669 36.01C19.4829 36.5731 19.0716 37.0064 18.533 37.31C17.9944 37.6112 17.3432 37.7617 16.5794 37.7617ZM15.2794 36.7702H16.5169C17.0898 36.7702 17.566 36.6625 17.9455 36.447C18.3249 36.2291 18.6089 35.9146 18.7974 35.5033C18.9859 35.0895 19.0802 34.5852 19.0802 33.9903C19.0802 33.4002 18.9859 32.8996 18.7974 32.4883C18.6114 32.077 18.3335 31.7648 17.9638 31.5519C17.5941 31.3389 17.1351 31.2324 16.5867 31.2324H15.2794V36.7702ZM23.8955 37.8756C23.3667 37.8756 22.9052 37.7544 22.5111 37.512C22.1169 37.2696 21.8109 36.9306 21.593 36.4948C21.3751 36.059 21.2661 35.5498 21.2661 34.9671C21.2661 34.382 21.3751 33.8703 21.593 33.4321C21.8109 32.9938 22.1169 32.6535 22.5111 32.4112C22.9052 32.1688 23.3667 32.0476 23.8955 32.0476C24.4243 32.0476 24.8858 32.1688 25.28 32.4112C25.6741 32.6535 25.9802 32.9938 26.198 33.4321C26.4159 33.8703 26.5249 34.382 26.5249 34.9671C26.5249 35.5498 26.4159 36.059 26.198 36.4948C25.9802 36.9306 25.6741 37.2696 25.28 37.512C24.8858 37.7544 24.4243 37.8756 23.8955 37.8756ZM23.8992 36.9538C24.2419 36.9538 24.5259 36.8632 24.7512 36.6821C24.9764 36.5009 25.1429 36.2597 25.2506 35.9586C25.3608 35.6575 25.4158 35.3258 25.4158 34.9634C25.4158 34.6035 25.3608 34.273 25.2506 33.9719C25.1429 33.6683 24.9764 33.4247 24.7512 33.2411C24.5259 33.0575 24.2419 32.9657 23.8992 32.9657C23.554 32.9657 23.2675 33.0575 23.0399 33.2411C22.8146 33.4247 22.6469 33.6683 22.5368 33.9719C22.429 34.273 22.3752 34.6035 22.3752 34.9634C22.3752 35.3258 22.429 35.6575 22.5368 35.9586C22.6469 36.2597 22.8146 36.5009 23.0399 36.6821C23.2675 36.8632 23.554 36.9538 23.8992 36.9538ZM31.1814 39.877C31.0173 39.877 30.868 39.8635 30.7333 39.8366C30.5987 39.8121 30.4983 39.7852 30.4322 39.7558L30.6966 38.8561C30.8974 38.9099 31.0761 38.9332 31.2328 38.9258C31.3895 38.9185 31.5278 38.8597 31.6477 38.7496C31.7702 38.6394 31.8779 38.4595 31.9709 38.2097L32.1068 37.8352L30.0429 32.1211H31.2181L32.6466 36.4984H32.7054L34.1339 32.1211H35.3127L32.9881 38.5145C32.8804 38.8083 32.7433 39.0568 32.5768 39.26C32.4104 39.4657 32.2121 39.6199 31.9819 39.7227C31.7518 39.8256 31.4849 39.877 31.1814 39.877ZM38.5287 37.8756C37.9999 37.8756 37.5384 37.7544 37.1443 37.512C36.7501 37.2696 36.4441 36.9306 36.2262 36.4948C36.0083 36.059 35.8994 35.5498 35.8994 34.9671C35.8994 34.382 36.0083 33.8703 36.2262 33.4321C36.4441 32.9938 36.7501 32.6535 37.1443 32.4112C37.5384 32.1688 37.9999 32.0476 38.5287 32.0476C39.0575 32.0476 39.519 32.1688 39.9132 32.4112C40.3073 32.6535 40.6134 32.9938 40.8313 33.4321C41.0491 33.8703 41.1581 34.382 41.1581 34.9671C41.1581 35.5498 41.0491 36.059 40.8313 36.4948C40.6134 36.9306 40.3073 37.2696 39.9132 37.512C39.519 37.7544 39.0575 37.8756 38.5287 37.8756ZM38.5324 36.9538C38.8751 36.9538 39.1591 36.8632 39.3844 36.6821C39.6096 36.5009 39.7761 36.2597 39.8838 35.9586C39.994 35.6575 40.0491 35.3258 40.0491 34.9634C40.0491 34.6035 39.994 34.273 39.8838 33.9719C39.7761 33.6683 39.6096 33.4247 39.3844 33.2411C39.1591 33.0575 38.8751 32.9657 38.5324 32.9657C38.1872 32.9657 37.9008 33.0575 37.6731 33.2411C37.4478 33.4247 37.2801 33.6683 37.17 33.9719C37.0623 34.273 37.0084 34.6035 37.0084 34.9634C37.0084 35.3258 37.0623 35.6575 37.17 35.9586C37.2801 36.2597 37.4478 36.5009 37.6731 36.6821C37.9008 36.8632 38.1872 36.9538 38.5324 36.9538ZM45.9569 35.4225V32.1211H47.0586V37.7617H45.9789V36.7849H45.9202C45.7904 37.086 45.5823 37.337 45.2959 37.5377C45.0119 37.736 44.6581 37.8352 44.2346 37.8352C43.8722 37.8352 43.5515 37.7556 43.2724 37.5965C42.9958 37.4349 42.7779 37.1962 42.6188 36.8804C42.4621 36.5645 42.3837 36.1741 42.3837 35.7089V32.1211H43.4817V35.5767C43.4817 35.9611 43.5882 36.2671 43.8012 36.4948C44.0142 36.7225 44.2909 36.8363 44.6312 36.8363C44.8368 36.8363 45.0412 36.7849 45.2444 36.6821C45.4501 36.5792 45.6202 36.4238 45.7549 36.2157C45.892 36.0076 45.9593 35.7432 45.9569 35.4225ZM52.9122 37.8866C52.5548 37.8866 52.2316 37.8205 51.9427 37.6883C51.6538 37.5536 51.4249 37.359 51.256 37.1044C51.0895 36.8498 51.0063 36.5376 51.0063 36.1679C51.0063 35.8497 51.0675 35.5877 51.1899 35.3821C51.3123 35.1764 51.4776 35.0136 51.6857 34.8936C51.8938 34.7737 52.1263 34.6831 52.3834 34.6219C52.6405 34.5607 52.9024 34.5142 53.1693 34.4824C53.5071 34.4432 53.7813 34.4114 53.9919 34.3869C54.2024 34.3599 54.3554 34.3171 54.4509 34.2583C54.5464 34.1996 54.5941 34.1041 54.5941 33.9719V33.9462C54.5941 33.6255 54.5036 33.377 54.3224 33.2007C54.1437 33.0244 53.8768 32.9363 53.5218 32.9363C53.1521 32.9363 52.8608 33.0183 52.6478 33.1824C52.4373 33.3439 52.2916 33.5239 52.2108 33.7222L51.1789 33.4872C51.3013 33.1444 51.48 32.8678 51.715 32.6572C51.9525 32.4442 52.2255 32.29 52.534 32.1945C52.8424 32.0966 53.1668 32.0476 53.5071 32.0476C53.7324 32.0476 53.9711 32.0745 54.2232 32.1284C54.4778 32.1798 54.7153 32.2753 54.9357 32.4148C55.1584 32.5544 55.3408 32.7539 55.4828 33.0134C55.6248 33.2705 55.6958 33.6047 55.6958 34.016V37.7617H54.6235V36.9905H54.5794C54.5084 37.1325 54.4019 37.2721 54.26 37.4092C54.118 37.5463 53.9356 37.6601 53.7128 37.7507C53.49 37.8413 53.2231 37.8866 52.9122 37.8866ZM53.1509 37.0052C53.4545 37.0052 53.714 36.9452 53.9294 36.8253C54.1473 36.7053 54.3126 36.5486 54.4252 36.3552C54.5403 36.1594 54.5978 35.95 54.5978 35.7273V35.0001C54.5586 35.0393 54.4827 35.076 54.3701 35.1103C54.26 35.1421 54.1339 35.1703 53.9919 35.1948C53.8499 35.2168 53.7116 35.2376 53.5769 35.2572C53.4423 35.2743 53.3296 35.289 53.2391 35.3013C53.0261 35.3282 52.8314 35.3735 52.6552 35.4372C52.4813 35.5008 52.3418 35.5926 52.2365 35.7126C52.1337 35.8301 52.0823 35.9868 52.0823 36.1826C52.0823 36.4544 52.1827 36.66 52.3834 36.7996C52.5842 36.9367 52.84 37.0052 53.1509 37.0052ZM59.5233 39.9945C59.0753 39.9945 58.6897 39.9357 58.3665 39.8182C58.0458 39.7007 57.7838 39.5452 57.5806 39.3518C57.3774 39.1584 57.2256 38.9466 57.1253 38.7165L58.069 38.3273C58.1352 38.435 58.2233 38.5488 58.3335 38.6688C58.4461 38.7912 58.5979 38.8952 58.7888 38.9809C58.9822 39.0666 59.2307 39.1095 59.5343 39.1095C59.9505 39.1095 60.2945 39.0079 60.5662 38.8047C60.838 38.6039 60.9738 38.2832 60.9738 37.8425V36.7335H60.9041C60.838 36.8534 60.7425 36.9869 60.6176 37.1338C60.4952 37.2806 60.3263 37.408 60.1109 37.5157C59.8954 37.6234 59.6151 37.6773 59.2699 37.6773C58.8243 37.6773 58.4228 37.5732 58.0654 37.3651C57.7104 37.1546 57.4288 36.8449 57.2207 36.436C57.0151 36.0247 56.9123 35.5192 56.9123 34.9194C56.9123 34.3195 57.0139 33.8054 57.2171 33.377C57.4227 32.9486 57.7043 32.6205 58.0617 32.3928C58.4191 32.1627 58.8243 32.0476 59.2772 32.0476C59.6273 32.0476 59.9101 32.1064 60.1255 32.2239C60.341 32.339 60.5087 32.4736 60.6286 32.6278C60.7511 32.7821 60.8453 32.918 60.9114 33.0355H60.9922V32.1211H62.0682V37.8866C62.0682 38.3713 61.9556 38.7692 61.7303 39.0801C61.5051 39.391 61.2003 39.6211 60.8159 39.7705C60.434 39.9198 60.0031 39.9945 59.5233 39.9945ZM59.5123 36.7665C59.8281 36.7665 60.0949 36.6931 60.3128 36.5462C60.5332 36.3968 60.6996 36.1839 60.8123 35.9072C60.9273 35.6281 60.9849 35.2939 60.9849 34.9047C60.9849 34.5252 60.9285 34.191 60.8159 33.9021C60.7033 33.6132 60.5381 33.388 60.3202 33.2264C60.1023 33.0624 59.833 32.9804 59.5123 32.9804C59.1818 32.9804 58.9063 33.0661 58.686 33.2374C58.4657 33.4064 58.2992 33.6365 58.1866 33.9278C58.0764 34.2192 58.0213 34.5448 58.0213 34.9047C58.0213 35.2743 58.0776 35.5987 58.1902 35.8778C58.3029 36.1569 58.4693 36.3748 58.6897 36.5315C58.9125 36.6882 59.1867 36.7665 59.5123 36.7665ZM63.5408 37.7617V32.1211H64.6021V33.0171H64.6608C64.7637 32.7135 64.9448 32.4748 65.2043 32.301C65.4663 32.1247 65.7625 32.0366 66.093 32.0366C66.1616 32.0366 66.2424 32.039 66.3354 32.0439C66.4309 32.0488 66.5056 32.055 66.5594 32.0623V33.1126C66.5153 33.1003 66.437 33.0869 66.3244 33.0722C66.2118 33.055 66.0992 33.0465 65.9865 33.0465C65.727 33.0465 65.4957 33.1016 65.2925 33.2117C65.0917 33.3195 64.9326 33.47 64.8151 33.6634C64.6976 33.8544 64.6388 34.0723 64.6388 34.3171V37.7617H63.5408ZM69.7387 37.8756C69.183 37.8756 68.7043 37.7568 68.3028 37.5193C67.9038 37.2794 67.5953 36.9428 67.3774 36.5095C67.162 36.0737 67.0543 35.5632 67.0543 34.9781C67.0543 34.4003 67.162 33.8911 67.3774 33.4504C67.5953 33.0098 67.8989 32.6658 68.2882 32.4185C68.6799 32.1712 69.1377 32.0476 69.6616 32.0476C69.9799 32.0476 70.2883 32.1003 70.587 32.2055C70.8857 32.3108 71.1538 32.476 71.3912 32.7013C71.6287 32.9265 71.816 33.2191 71.9531 33.579C72.0902 33.9364 72.1588 34.371 72.1588 34.8826V35.2719H67.6749V34.4493H71.0828C71.0828 34.1604 71.024 33.9046 70.9065 33.6818C70.789 33.4566 70.6237 33.2791 70.4107 33.1493C70.2002 33.0196 69.9529 32.9547 69.6689 32.9547C69.3605 32.9547 69.0912 33.0306 68.861 33.1824C68.6333 33.3317 68.4571 33.5276 68.3322 33.7699C68.2098 34.0098 68.1486 34.2706 68.1486 34.5521V35.1948C68.1486 35.5718 68.2147 35.8925 68.3469 36.1569C68.4816 36.4213 68.6688 36.6233 68.9088 36.7629C69.1487 36.9 69.429 36.9685 69.7497 36.9685C69.9578 36.9685 70.1476 36.9391 70.3189 36.8804C70.4903 36.8192 70.6384 36.7286 70.7633 36.6086C70.8881 36.4887 70.9836 36.3405 71.0497 36.1643L72.089 36.3516C72.0057 36.6576 71.8564 36.9257 71.641 37.1558C71.428 37.3835 71.1599 37.561 70.8367 37.6883C70.516 37.8131 70.15 37.8756 69.7387 37.8756ZM75.8081 37.8756C75.2524 37.8756 74.7737 37.7568 74.3722 37.5193C73.9732 37.2794 73.6647 36.9428 73.4468 36.5095C73.2314 36.0737 73.1237 35.5632 73.1237 34.9781C73.1237 34.4003 73.2314 33.8911 73.4468 33.4504C73.6647 33.0098 73.9683 32.6658 74.3576 32.4185C74.7493 32.1712 75.2071 32.0476 75.731 32.0476C76.0493 32.0476 76.3577 32.1003 76.6564 32.2055C76.9551 32.3108 77.2232 32.476 77.4606 32.7013C77.6981 32.9265 77.8854 33.2191 78.0225 33.579C78.1596 33.9364 78.2282 34.371 78.2282 34.8826V35.2719H73.7443V34.4493H77.1522C77.1522 34.1604 77.0934 33.9046 76.9759 33.6818C76.8584 33.4566 76.6931 33.2791 76.4801 33.1493C76.2696 33.0196 76.0223 32.9547 75.7383 32.9547C75.4299 32.9547 75.1606 33.0306 74.9304 33.1824C74.7027 33.3317 74.5265 33.5276 74.4016 33.7699C74.2792 34.0098 74.218 34.2706 74.218 34.5521V35.1948C74.218 35.5718 74.2841 35.8925 74.4163 36.1569C74.551 36.4213 74.7382 36.6233 74.9782 36.7629C75.2181 36.9 75.4984 36.9685 75.8191 36.9685C76.0272 36.9685 76.217 36.9391 76.3883 36.8804C76.5597 36.8192 76.7078 36.7286 76.8327 36.6086C76.9575 36.4887 77.053 36.3405 77.1191 36.1643L78.1584 36.3516C78.0751 36.6576 77.9258 36.9257 77.7104 37.1558C77.4974 37.3835 77.2293 37.561 76.9061 37.6883C76.5854 37.8131 76.2194 37.8756 75.8081 37.8756ZM81.805 34.0233V33.4725C82.2187 33.4725 82.5076 33.388 82.6716 33.2191C82.8357 33.0477 82.9177 32.7649 82.9177 32.3708V31.3168C82.9177 30.9423 82.9593 30.6277 83.0426 30.373C83.1282 30.116 83.258 29.9103 83.4318 29.7561C83.6056 29.6019 83.826 29.4905 84.0928 29.4219C84.3597 29.3534 84.6743 29.3191 85.0366 29.3191V30.1894C84.7526 30.1894 84.5311 30.231 84.3719 30.3143C84.2128 30.3975 84.1014 30.5273 84.0377 30.7036C83.9765 30.8774 83.9459 31.1002 83.9459 31.3719V32.7086C83.9459 32.8971 83.9178 33.0722 83.8615 33.2338C83.8052 33.3929 83.7011 33.5312 83.5493 33.6487C83.3975 33.7663 83.1809 33.8581 82.8993 33.9242C82.6178 33.9903 82.253 34.0233 81.805 34.0233ZM85.0366 38.6871C84.6743 38.6871 84.3597 38.6529 84.0928 38.5843C83.826 38.5158 83.6056 38.4044 83.4318 38.2501C83.258 38.0959 83.1282 37.8915 83.0426 37.6369C82.9593 37.3798 82.9177 37.064 82.9177 36.6894V35.6318C82.9177 35.2401 82.8357 34.9585 82.6716 34.7872C82.5076 34.6158 82.2187 34.5301 81.805 34.5301V33.9829C82.253 33.9829 82.6178 34.016 82.8993 34.0821C83.1809 34.1457 83.3975 34.2375 83.5493 34.3575C83.7011 34.475 83.8052 34.6146 83.8615 34.7761C83.9178 34.9353 83.9459 35.1091 83.9459 35.2976V36.6343C83.9459 36.9036 83.9765 37.1264 84.0377 37.3027C84.1014 37.4765 84.2128 37.6063 84.3719 37.6919C84.5311 37.7752 84.7526 37.8168 85.0366 37.8168V38.6871ZM81.805 34.5301V33.4725H82.8222V34.5301H81.805ZM92.4262 32.6866H91.2804C91.2364 32.4418 91.1544 32.2263 91.0344 32.0403C90.9144 31.8542 90.7675 31.6963 90.5937 31.5665C90.4199 31.4368 90.2253 31.3389 90.0098 31.2728C89.7968 31.2067 89.5704 31.1736 89.3305 31.1736C88.8971 31.1736 88.5091 31.2826 88.1663 31.5004C87.826 31.7183 87.5567 32.0378 87.3584 32.4589C87.1626 32.88 87.0646 33.3941 87.0646 34.0013C87.0646 34.6133 87.1626 35.1299 87.3584 35.551C87.5567 35.9721 87.8273 36.2903 88.17 36.5058C88.5128 36.7212 88.8983 36.829 89.3268 36.829C89.5643 36.829 89.7895 36.7971 90.0025 36.7335C90.2179 36.6674 90.4126 36.5707 90.5864 36.4434C90.7602 36.3161 90.9071 36.1606 91.0271 35.977C91.1495 35.7909 91.2339 35.5779 91.2804 35.338L92.4262 35.3417C92.365 35.7113 92.2463 36.0516 92.07 36.3626C91.8962 36.671 91.6722 36.9379 91.398 37.1631C91.1262 37.3859 90.8153 37.5585 90.4652 37.6809C90.1151 37.8033 89.7332 37.8645 89.3194 37.8645C88.6682 37.8645 88.088 37.7103 87.5788 37.4018C87.0695 37.0909 86.668 36.6466 86.3742 36.0688C86.0829 35.491 85.9372 34.8018 85.9372 34.0013C85.9372 33.1983 86.0841 32.5091 86.3779 31.9338C86.6717 31.356 87.0732 30.9129 87.5824 30.6044C88.0917 30.2935 88.6707 30.138 89.3194 30.138C89.7185 30.138 90.0906 30.1955 90.4358 30.3106C90.7835 30.4232 91.0956 30.5897 91.3723 30.81C91.6489 31.0279 91.8778 31.2948 92.059 31.6106C92.2401 31.924 92.3626 32.2826 92.4262 32.6866ZM96.0719 37.8756C95.5431 37.8756 95.0816 37.7544 94.6874 37.512C94.2933 37.2696 93.9872 36.9306 93.7694 36.4948C93.5515 36.059 93.4425 35.5498 93.4425 34.9671C93.4425 34.382 93.5515 33.8703 93.7694 33.4321C93.9872 32.9938 94.2933 32.6535 94.6874 32.4112C95.0816 32.1688 95.5431 32.0476 96.0719 32.0476C96.6007 32.0476 97.0622 32.1688 97.4563 32.4112C97.8505 32.6535 98.1565 32.9938 98.3744 33.4321C98.5923 33.8703 98.7013 34.382 98.7013 34.9671C98.7013 35.5498 98.5923 36.059 98.3744 36.4948C98.1565 36.9306 97.8505 37.2696 97.4563 37.512C97.0622 37.7544 96.6007 37.8756 96.0719 37.8756ZM96.0756 36.9538C96.4183 36.9538 96.7023 36.8632 96.9275 36.6821C97.1528 36.5009 97.3192 36.2597 97.427 35.9586C97.5371 35.6575 97.5922 35.3258 97.5922 34.9634C97.5922 34.6035 97.5371 34.273 97.427 33.9719C97.3192 33.6683 97.1528 33.4247 96.9275 33.2411C96.7023 33.0575 96.4183 32.9657 96.0756 32.9657C95.7304 32.9657 95.4439 33.0575 95.2162 33.2411C94.991 33.4247 94.8233 33.6683 94.7131 33.9719C94.6054 34.273 94.5516 34.6035 94.5516 34.9634C94.5516 35.3258 94.6054 35.6575 94.7131 35.9586C94.8233 36.2597 94.991 36.5009 95.2162 36.6821C95.4439 36.8632 95.7304 36.9538 96.0756 36.9538ZM99.9269 37.7617V32.1211H100.981V33.0391H101.051C101.168 32.7282 101.36 32.4858 101.627 32.312C101.894 32.1357 102.214 32.0476 102.586 32.0476C102.963 32.0476 103.278 32.1357 103.533 32.312C103.79 32.4883 103.98 32.7307 104.102 33.0391H104.161C104.296 32.738 104.51 32.4981 104.804 32.3194C105.097 32.1382 105.448 32.0476 105.854 32.0476C106.366 32.0476 106.783 32.208 107.106 32.5287C107.432 32.8494 107.595 33.3329 107.595 33.9792V37.7617H106.497V34.0821C106.497 33.7002 106.393 33.4235 106.184 33.2521C105.976 33.0808 105.728 32.9951 105.439 32.9951C105.082 32.9951 104.804 33.1052 104.605 33.3256C104.407 33.5435 104.308 33.8238 104.308 34.1665V37.7617H103.214V34.0123C103.214 33.7063 103.118 33.4602 102.927 33.2742C102.736 33.0881 102.488 32.9951 102.182 32.9951C101.974 32.9951 101.781 33.0502 101.605 33.1603C101.431 33.268 101.291 33.4186 101.183 33.612C101.078 33.8054 101.025 34.0294 101.025 34.284V37.7617H99.9269ZM109.066 39.877V32.1211H110.139V33.0355H110.23C110.294 32.918 110.386 32.7821 110.506 32.6278C110.626 32.4736 110.792 32.339 111.005 32.2239C111.218 32.1064 111.5 32.0476 111.85 32.0476C112.305 32.0476 112.712 32.1627 113.069 32.3928C113.427 32.6229 113.707 32.9547 113.91 33.388C114.116 33.8213 114.219 34.3428 114.219 34.9524C114.219 35.562 114.117 36.0847 113.914 36.5205C113.711 36.9538 113.431 37.288 113.076 37.523C112.721 37.7556 112.316 37.8719 111.861 37.8719C111.518 37.8719 111.238 37.8144 111.02 37.6993C110.805 37.5842 110.636 37.4496 110.513 37.2953C110.391 37.1411 110.297 37.004 110.23 36.884H110.164V39.877H109.066ZM110.142 34.9414C110.142 35.338 110.2 35.6856 110.315 35.9843C110.43 36.283 110.596 36.5168 110.814 36.6857C111.032 36.8522 111.299 36.9355 111.615 36.9355C111.943 36.9355 112.217 36.8485 112.438 36.6747C112.658 36.4984 112.824 36.2597 112.937 35.9586C113.052 35.6575 113.11 35.3184 113.11 34.9414C113.11 34.5693 113.053 34.2351 112.941 33.9389C112.83 33.6426 112.664 33.4088 112.441 33.2374C112.221 33.0661 111.945 32.9804 111.615 32.9804C111.297 32.9804 111.027 33.0624 110.807 33.2264C110.589 33.3905 110.424 33.6194 110.311 33.9131C110.199 34.2069 110.142 34.5497 110.142 34.9414ZM117.09 37.8866C116.733 37.8866 116.41 37.8205 116.121 37.6883C115.832 37.5536 115.603 37.359 115.434 37.1044C115.268 36.8498 115.184 36.5376 115.184 36.1679C115.184 35.8497 115.246 35.5877 115.368 35.3821C115.49 35.1764 115.656 35.0136 115.864 34.8936C116.072 34.7737 116.304 34.6831 116.561 34.6219C116.819 34.5607 117.081 34.5142 117.347 34.4824C117.685 34.4432 117.959 34.4114 118.17 34.3869C118.381 34.3599 118.534 34.3171 118.629 34.2583C118.724 34.1996 118.772 34.1041 118.772 33.9719V33.9462C118.772 33.6255 118.682 33.377 118.5 33.2007C118.322 33.0244 118.055 32.9363 117.7 32.9363C117.33 32.9363 117.039 33.0183 116.826 33.1824C116.615 33.3439 116.47 33.5239 116.389 33.7222L115.357 33.4872C115.479 33.1444 115.658 32.8678 115.893 32.6572C116.131 32.4442 116.404 32.29 116.712 32.1945C117.021 32.0966 117.345 32.0476 117.685 32.0476C117.91 32.0476 118.149 32.0745 118.401 32.1284C118.656 32.1798 118.893 32.2753 119.114 32.4148C119.337 32.5544 119.519 32.7539 119.661 33.0134C119.803 33.2705 119.874 33.6047 119.874 34.016V37.7617H118.802V36.9905H118.758C118.687 37.1325 118.58 37.2721 118.438 37.4092C118.296 37.5463 118.114 37.6601 117.891 37.7507C117.668 37.8413 117.401 37.8866 117.09 37.8866ZM117.329 37.0052C117.633 37.0052 117.892 36.9452 118.108 36.8253C118.325 36.7053 118.491 36.5486 118.603 36.3552C118.718 36.1594 118.776 35.95 118.776 35.7273V35.0001C118.737 35.0393 118.661 35.076 118.548 35.1103C118.438 35.1421 118.312 35.1703 118.17 35.1948C118.028 35.2168 117.89 35.2376 117.755 35.2572C117.62 35.2743 117.508 35.289 117.417 35.3013C117.204 35.3282 117.01 35.3735 116.833 35.4372C116.659 35.5008 116.52 35.5926 116.415 35.7126C116.312 35.8301 116.26 35.9868 116.26 36.1826C116.26 36.4544 116.361 36.66 116.561 36.7996C116.762 36.9367 117.018 37.0052 117.329 37.0052ZM122.434 34.4126V37.7617H121.336V32.1211H122.39V33.0391H122.46C122.59 32.7405 122.793 32.5005 123.07 32.3194C123.349 32.1382 123.7 32.0476 124.124 32.0476C124.508 32.0476 124.845 32.1284 125.134 32.29C125.422 32.4491 125.646 32.6866 125.806 33.0024C125.965 33.3182 126.044 33.7087 126.044 34.1739V37.7617H124.946V34.3061C124.946 33.8972 124.84 33.5777 124.627 33.3476C124.414 33.115 124.121 32.9987 123.749 32.9987C123.495 32.9987 123.268 33.0538 123.07 33.164C122.874 33.2742 122.718 33.4357 122.603 33.6487C122.491 33.8593 122.434 34.1139 122.434 34.4126ZM128.009 39.877C127.845 39.877 127.696 39.8635 127.561 39.8366C127.426 39.8121 127.326 39.7852 127.26 39.7558L127.524 38.8561C127.725 38.9099 127.904 38.9332 128.06 38.9258C128.217 38.9185 128.355 38.8597 128.475 38.7496C128.598 38.6394 128.706 38.4595 128.799 38.2097L128.934 37.8352L126.871 32.1211H128.046L129.474 36.4984H129.533L130.962 32.1211H132.14L129.816 38.5145C129.708 38.8083 129.571 39.0568 129.404 39.26C129.238 39.4657 129.04 39.6199 128.81 39.7227C128.579 39.8256 128.313 39.877 128.009 39.877ZM137.007 34.4126V37.7617H135.909V32.1211H136.963V33.0391H137.033C137.163 32.7405 137.366 32.5005 137.642 32.3194C137.921 32.1382 138.273 32.0476 138.696 32.0476C139.081 32.0476 139.417 32.1284 139.706 32.29C139.995 32.4491 140.219 32.6866 140.378 33.0024C140.537 33.3182 140.617 33.7087 140.617 34.1739V37.7617H139.519V34.3061C139.519 33.8972 139.412 33.5777 139.199 33.3476C138.986 33.115 138.694 32.9987 138.322 32.9987C138.067 32.9987 137.841 33.0538 137.642 33.164C137.447 33.2742 137.291 33.4357 137.176 33.6487C137.063 33.8593 137.007 34.1139 137.007 34.4126ZM143.731 37.8866C143.374 37.8866 143.05 37.8205 142.762 37.6883C142.473 37.5536 142.244 37.359 142.075 37.1044C141.908 36.8498 141.825 36.5376 141.825 36.1679C141.825 35.8497 141.886 35.5877 142.009 35.3821C142.131 35.1764 142.296 35.0136 142.504 34.8936C142.713 34.7737 142.945 34.6831 143.202 34.6219C143.459 34.5607 143.721 34.5142 143.988 34.4824C144.326 34.4432 144.6 34.4114 144.811 34.3869C145.021 34.3599 145.174 34.3171 145.27 34.2583C145.365 34.1996 145.413 34.1041 145.413 33.9719V33.9462C145.413 33.6255 145.322 33.377 145.141 33.2007C144.962 33.0244 144.696 32.9363 144.341 32.9363C143.971 32.9363 143.68 33.0183 143.467 33.1824C143.256 33.3439 143.11 33.5239 143.03 33.7222L141.998 33.4872C142.12 33.1444 142.299 32.8678 142.534 32.6572C142.771 32.4442 143.044 32.29 143.353 32.1945C143.661 32.0966 143.986 32.0476 144.326 32.0476C144.551 32.0476 144.79 32.0745 145.042 32.1284C145.297 32.1798 145.534 32.2753 145.754 32.4148C145.977 32.5544 146.16 32.7539 146.302 33.0134C146.444 33.2705 146.515 33.6047 146.515 34.016V37.7617H145.442V36.9905H145.398C145.327 37.1325 145.221 37.2721 145.079 37.4092C144.937 37.5463 144.754 37.6601 144.532 37.7507C144.309 37.8413 144.042 37.8866 143.731 37.8866ZM143.97 37.0052C144.273 37.0052 144.533 36.9452 144.748 36.8253C144.966 36.7053 145.131 36.5486 145.244 36.3552C145.359 36.1594 145.417 35.95 145.417 35.7273V35.0001C145.377 35.0393 145.302 35.076 145.189 35.1103C145.079 35.1421 144.953 35.1703 144.811 35.1948C144.669 35.2168 144.53 35.2376 144.396 35.2572C144.261 35.2743 144.148 35.289 144.058 35.3013C143.845 35.3282 143.65 35.3735 143.474 35.4372C143.3 35.5008 143.161 35.5926 143.055 35.7126C142.953 35.8301 142.901 35.9868 142.901 36.1826C142.901 36.4544 143.001 36.66 143.202 36.7996C143.403 36.9367 143.659 37.0052 143.97 37.0052ZM147.977 37.7617V32.1211H149.031V33.0391H149.101C149.218 32.7282 149.411 32.4858 149.677 32.312C149.944 32.1357 150.264 32.0476 150.636 32.0476C151.013 32.0476 151.329 32.1357 151.583 32.312C151.84 32.4883 152.03 32.7307 152.153 33.0391H152.211C152.346 32.738 152.56 32.4981 152.854 32.3194C153.148 32.1382 153.498 32.0476 153.904 32.0476C154.416 32.0476 154.833 32.208 155.156 32.5287C155.482 32.8494 155.645 33.3329 155.645 33.9792V37.7617H154.547V34.0821C154.547 33.7002 154.443 33.4235 154.235 33.2521C154.027 33.0808 153.778 32.9951 153.489 32.9951C153.132 32.9951 152.854 33.1052 152.656 33.3256C152.457 33.5435 152.358 33.8238 152.358 34.1665V37.7617H151.264V34.0123C151.264 33.7063 151.168 33.4602 150.977 33.2742C150.786 33.0881 150.538 32.9951 150.232 32.9951C150.024 32.9951 149.832 33.0502 149.655 33.1603C149.482 33.268 149.341 33.4186 149.233 33.612C149.128 33.8054 149.075 34.0294 149.075 34.284V37.7617H147.977ZM159.548 37.8756C158.992 37.8756 158.513 37.7568 158.112 37.5193C157.713 37.2794 157.404 36.9428 157.186 36.5095C156.971 36.0737 156.863 35.5632 156.863 34.9781C156.863 34.4003 156.971 33.8911 157.186 33.4504C157.404 33.0098 157.708 32.6658 158.097 32.4185C158.489 32.1712 158.947 32.0476 159.471 32.0476C159.789 32.0476 160.097 32.1003 160.396 32.2055C160.695 32.3108 160.963 32.476 161.2 32.7013C161.438 32.9265 161.625 33.2191 161.762 33.579C161.899 33.9364 161.968 34.371 161.968 34.8826V35.2719H157.484V34.4493H160.892C160.892 34.1604 160.833 33.9046 160.715 33.6818C160.598 33.4566 160.433 33.2791 160.22 33.1493C160.009 33.0196 159.762 32.9547 159.478 32.9547C159.169 32.9547 158.9 33.0306 158.67 33.1824C158.442 33.3317 158.266 33.5276 158.141 33.7699C158.019 34.0098 157.958 34.2706 157.958 34.5521V35.1948C157.958 35.5718 158.024 35.8925 158.156 36.1569C158.29 36.4213 158.478 36.6233 158.718 36.7629C158.958 36.9 159.238 36.9685 159.559 36.9685C159.767 36.9685 159.956 36.9391 160.128 36.8804C160.299 36.8192 160.447 36.7286 160.572 36.6086C160.697 36.4887 160.793 36.3405 160.859 36.1643L161.898 36.3516C161.815 36.6576 161.665 36.9257 161.45 37.1558C161.237 37.3835 160.969 37.561 160.646 37.6883C160.325 37.8131 159.959 37.8756 159.548 37.8756ZM165.995 34.6219V35.1691C165.582 35.1691 165.293 35.2548 165.129 35.4261C164.965 35.5975 164.883 35.8791 164.883 36.2708V37.3284C164.883 37.703 164.84 38.0176 164.754 38.2722C164.671 38.5292 164.542 38.7349 164.368 38.8891C164.195 39.0434 163.974 39.1547 163.707 39.2233C163.441 39.2918 163.126 39.3261 162.764 39.3261V38.4558C163.048 38.4558 163.269 38.4129 163.428 38.3273C163.587 38.244 163.698 38.1143 163.759 37.938C163.823 37.7642 163.854 37.5426 163.854 37.2733V35.9366C163.854 35.7481 163.882 35.5742 163.939 35.4151C163.995 35.2535 164.099 35.114 164.251 34.9965C164.403 34.8765 164.619 34.7847 164.901 34.7211C165.182 34.655 165.547 34.6219 165.995 34.6219ZM162.764 29.9581C163.126 29.9581 163.441 29.9923 163.707 30.0609C163.974 30.1294 164.195 30.2408 164.368 30.3951C164.542 30.5493 164.671 30.755 164.754 31.012C164.84 31.2666 164.883 31.5812 164.883 31.9558V33.0098C164.883 33.4039 164.965 33.6867 165.129 33.8581C165.293 34.027 165.582 34.1114 165.995 34.1114V34.6623C165.547 34.6623 165.182 34.6292 164.901 34.5631C164.619 34.497 164.403 34.4052 164.251 34.2877C164.099 34.1702 163.995 34.0319 163.939 33.8727C163.882 33.7112 163.854 33.5361 163.854 33.3476V32.0109C163.854 31.7391 163.823 31.5164 163.759 31.3425C163.698 31.1663 163.587 31.0365 163.428 30.9533C163.269 30.87 163.048 30.8284 162.764 30.8284V29.9581ZM165.995 34.1114V35.1691H164.978V34.1114H165.995ZM169.831 37.7617V32.1211H170.929V37.7617H169.831ZM170.386 31.2507C170.195 31.2507 170.031 31.1871 169.893 31.0598C169.759 30.93 169.691 30.7758 169.691 30.5971C169.691 30.4159 169.759 30.2617 169.893 30.1343C170.031 30.0046 170.195 29.9397 170.386 29.9397C170.576 29.9397 170.739 30.0046 170.874 30.1343C171.011 30.2617 171.08 30.4159 171.08 30.5971C171.08 30.7758 171.011 30.93 170.874 31.0598C170.739 31.1871 170.576 31.2507 170.386 31.2507ZM176.633 33.4982L175.638 33.6744C175.596 33.5471 175.53 33.426 175.44 33.3109C175.351 33.1958 175.231 33.1016 175.08 33.0281C174.928 32.9547 174.738 32.918 174.51 32.918C174.2 32.918 173.94 32.9877 173.732 33.1273C173.524 33.2644 173.42 33.4419 173.42 33.6598C173.42 33.8483 173.49 34.0001 173.629 34.1151C173.769 34.2302 173.994 34.3244 174.305 34.3979L175.201 34.6035C175.72 34.7235 176.107 34.9083 176.361 35.1581C176.616 35.4078 176.743 35.7322 176.743 36.1312C176.743 36.4691 176.645 36.7702 176.449 37.0346C176.256 37.2966 175.985 37.5022 175.638 37.6515C175.293 37.8009 174.892 37.8756 174.437 37.8756C173.805 37.8756 173.29 37.7409 172.891 37.4716C172.492 37.1999 172.247 36.8143 172.157 36.3148L173.218 36.1532C173.284 36.4299 173.42 36.6392 173.625 36.7812C173.831 36.9208 174.099 36.9905 174.43 36.9905C174.79 36.9905 175.077 36.9159 175.293 36.7665C175.508 36.6147 175.616 36.4299 175.616 36.212C175.616 36.0357 175.55 35.8876 175.418 35.7677C175.288 35.6477 175.088 35.5571 174.819 35.4959L173.864 35.2866C173.338 35.1666 172.949 34.9757 172.696 34.7137C172.447 34.4517 172.322 34.12 172.322 33.7185C172.322 33.3856 172.415 33.0942 172.601 32.8445C172.787 32.5948 173.044 32.4002 173.372 32.2606C173.7 32.1186 174.076 32.0476 174.499 32.0476C175.109 32.0476 175.589 32.1798 175.939 32.4442C176.289 32.7062 176.52 33.0575 176.633 33.4982ZM14.1446 51.7617V44.2408H15.2426V47.0355H15.3087C15.3724 46.918 15.4642 46.7821 15.5842 46.6278C15.7041 46.4736 15.8706 46.339 16.0836 46.2239C16.2966 46.1064 16.5781 46.0476 16.9282 46.0476C17.3836 46.0476 17.79 46.1627 18.1474 46.3928C18.5049 46.6229 18.7852 46.9547 18.9884 47.388C19.194 47.8213 19.2969 48.3428 19.2969 48.9524C19.2969 49.562 19.1953 50.0847 18.9921 50.5205C18.7889 50.9538 18.5098 51.288 18.1548 51.523C17.7998 51.7556 17.3946 51.8719 16.9393 51.8719C16.5965 51.8719 16.3162 51.8144 16.0983 51.6993C15.8829 51.5842 15.7139 51.4496 15.5915 51.2953C15.4691 51.1411 15.3748 51.004 15.3087 50.884H15.2169V51.7617H14.1446ZM15.2206 48.9414C15.2206 49.338 15.2781 49.6856 15.3932 49.9843C15.5083 50.283 15.6748 50.5168 15.8926 50.6857C16.1105 50.8522 16.3774 50.9355 16.6932 50.9355C17.0213 50.9355 17.2955 50.8485 17.5158 50.6747C17.7361 50.4984 17.9026 50.2597 18.0152 49.9586C18.1303 49.6575 18.1878 49.3184 18.1878 48.9414C18.1878 48.5693 18.1315 48.2351 18.0189 47.9389C17.9087 47.6426 17.7423 47.4088 17.5195 47.2374C17.2991 47.0661 17.0237 46.9804 16.6932 46.9804C16.3749 46.9804 16.1056 47.0624 15.8853 47.2264C15.6674 47.3905 15.5022 47.6194 15.3895 47.9131C15.2769 48.2069 15.2206 48.5497 15.2206 48.9414ZM22.9609 51.8756C22.4052 51.8756 21.9265 51.7568 21.525 51.5193C21.126 51.2794 20.8175 50.9428 20.5996 50.5095C20.3842 50.0737 20.2765 49.5632 20.2765 48.9781C20.2765 48.4003 20.3842 47.8911 20.5996 47.4504C20.8175 47.0098 21.1211 46.6658 21.5104 46.4185C21.9021 46.1712 22.3599 46.0476 22.8838 46.0476C23.2021 46.0476 23.5105 46.1003 23.8092 46.2055C24.1079 46.3108 24.376 46.476 24.6134 46.7013C24.8509 46.9265 25.0382 47.2191 25.1753 47.579C25.3124 47.9364 25.381 48.371 25.381 48.8826V49.2719H20.8971V48.4493H24.305C24.305 48.1604 24.2462 47.9046 24.1287 47.6818C24.0112 47.4566 23.8459 47.2791 23.6329 47.1493C23.4224 47.0196 23.1751 46.9547 22.8911 46.9547C22.5827 46.9547 22.3134 47.0306 22.0832 47.1824C21.8555 47.3317 21.6793 47.5276 21.5544 47.7699C21.432 48.0098 21.3708 48.2706 21.3708 48.5521V49.1948C21.3708 49.5718 21.4369 49.8925 21.5691 50.1569C21.7038 50.4213 21.891 50.6233 22.131 50.7629C22.3709 50.9 22.6512 50.9685 22.9719 50.9685C23.18 50.9685 23.3698 50.9391 23.5411 50.8804C23.7125 50.8192 23.8606 50.7286 23.9855 50.6086C24.1103 50.4887 24.2058 50.3405 24.2719 50.1643L25.3112 50.3516C25.2279 50.6576 25.0786 50.9257 24.8632 51.1558C24.6502 51.3835 24.3821 51.561 24.0589 51.6883C23.7382 51.8131 23.3722 51.8756 22.9609 51.8756ZM30.8261 47.4982L29.8309 47.6744C29.7893 47.5471 29.7232 47.426 29.6326 47.3109C29.5444 47.1958 29.4245 47.1016 29.2727 47.0281C29.1209 46.9547 28.9312 46.918 28.7035 46.918C28.3926 46.918 28.133 46.9877 27.9249 47.1273C27.7168 47.2644 27.6128 47.4419 27.6128 47.6598C27.6128 47.8483 27.6826 48.0001 27.8221 48.1151C27.9617 48.2302 28.1869 48.3244 28.4978 48.3979L29.3939 48.6035C29.9129 48.7235 30.2997 48.9083 30.5543 49.1581C30.8089 49.4078 30.9362 49.7322 30.9362 50.1312C30.9362 50.4691 30.8383 50.7702 30.6425 51.0346C30.449 51.2966 30.1785 51.5022 29.8309 51.6515C29.4857 51.8009 29.0854 51.8756 28.63 51.8756C27.9984 51.8756 27.483 51.7409 27.084 51.4716C26.6849 51.1999 26.4401 50.8143 26.3495 50.3148L27.4108 50.1532C27.4769 50.4299 27.6128 50.6392 27.8184 50.7812C28.0241 50.9208 28.2922 50.9905 28.6227 50.9905C28.9826 50.9905 29.2702 50.9159 29.4857 50.7665C29.7011 50.6147 29.8088 50.4299 29.8088 50.212C29.8088 50.0357 29.7427 49.8876 29.6105 49.7677C29.4808 49.6477 29.2813 49.5571 29.0119 49.4959L28.0571 49.2866C27.5308 49.1666 27.1415 48.9757 26.8894 48.7137C26.6396 48.4517 26.5148 48.12 26.5148 47.7185C26.5148 47.3856 26.6078 47.0942 26.7939 46.8445C26.9799 46.5948 27.237 46.4002 27.5651 46.2606C27.8931 46.1186 28.2689 46.0476 28.6925 46.0476C29.3021 46.0476 29.7819 46.1798 30.132 46.4442C30.4821 46.7062 30.7134 47.0575 30.8261 47.4982ZM34.7765 46.1211V47.0024H31.6955V46.1211H34.7765ZM32.5218 44.7697H33.6198V50.1055C33.6198 50.3185 33.6516 50.4789 33.7153 50.5866C33.7789 50.6919 33.8609 50.7641 33.9613 50.8032C34.0641 50.84 34.1755 50.8583 34.2955 50.8583C34.3836 50.8583 34.4607 50.8522 34.5268 50.84C34.5929 50.8277 34.6443 50.8179 34.6811 50.8106L34.8794 51.7177C34.8157 51.7421 34.7251 51.7666 34.6076 51.7911C34.4901 51.818 34.3432 51.8327 34.1669 51.8352C33.8781 51.8401 33.6088 51.7886 33.359 51.6809C33.1093 51.5732 32.9073 51.4067 32.7531 51.1815C32.5989 50.9563 32.5218 50.6735 32.5218 50.3332V44.7697ZM41.361 46.1211V47.0024H38.2799V46.1211H41.361ZM39.1062 44.7697H40.2042V50.1055C40.2042 50.3185 40.236 50.4789 40.2997 50.5866C40.3633 50.6919 40.4454 50.7641 40.5457 50.8032C40.6486 50.84 40.76 50.8583 40.8799 50.8583C40.968 50.8583 41.0452 50.8522 41.1113 50.84C41.1774 50.8277 41.2288 50.8179 41.2655 50.8106L41.4638 51.7177C41.4002 51.7421 41.3096 51.7666 41.1921 51.7911C41.0745 51.818 40.9277 51.8327 40.7514 51.8352C40.4625 51.8401 40.1932 51.7886 39.9435 51.6809C39.6938 51.5732 39.4918 51.4067 39.3375 51.1815C39.1833 50.9563 39.1062 50.6735 39.1062 50.3332V44.7697ZM44.891 51.8756C44.3622 51.8756 43.9007 51.7544 43.5065 51.512C43.1124 51.2696 42.8063 50.9306 42.5885 50.4948C42.3706 50.059 42.2616 49.5498 42.2616 48.9671C42.2616 48.382 42.3706 47.8703 42.5885 47.4321C42.8063 46.9938 43.1124 46.6535 43.5065 46.4112C43.9007 46.1688 44.3622 46.0476 44.891 46.0476C45.4198 46.0476 45.8813 46.1688 46.2754 46.4112C46.6696 46.6535 46.9756 46.9938 47.1935 47.4321C47.4114 47.8703 47.5204 48.382 47.5204 48.9671C47.5204 49.5498 47.4114 50.059 47.1935 50.4948C46.9756 50.9306 46.6696 51.2696 46.2754 51.512C45.8813 51.7544 45.4198 51.8756 44.891 51.8756ZM44.8947 50.9538C45.2374 50.9538 45.5214 50.8632 45.7466 50.6821C45.9719 50.5009 46.1383 50.2597 46.2461 49.9586C46.3562 49.6575 46.4113 49.3258 46.4113 48.9634C46.4113 48.6035 46.3562 48.273 46.2461 47.9719C46.1383 47.6683 45.9719 47.4247 45.7466 47.2411C45.5214 47.0575 45.2374 46.9657 44.8947 46.9657C44.5495 46.9657 44.263 47.0575 44.0353 47.2411C43.8101 47.4247 43.6424 47.6683 43.5322 47.9719C43.4245 48.273 43.3707 48.6035 43.3707 48.9634C43.3707 49.3258 43.4245 49.6575 43.5322 49.9586C43.6424 50.2597 43.8101 50.5009 44.0353 50.6821C44.263 50.8632 44.5495 50.9538 44.8947 50.9538ZM51.122 51.8756C50.5932 51.8756 50.1317 51.7544 49.7375 51.512C49.3433 51.2696 49.0373 50.9306 48.8194 50.4948C48.6015 50.059 48.4926 49.5498 48.4926 48.9671C48.4926 48.382 48.6015 47.8703 48.8194 47.4321C49.0373 46.9938 49.3433 46.6535 49.7375 46.4112C50.1317 46.1688 50.5932 46.0476 51.122 46.0476C51.6508 46.0476 52.1123 46.1688 52.5064 46.4112C52.9006 46.6535 53.2066 46.9938 53.4245 47.4321C53.6424 47.8703 53.7513 48.382 53.7513 48.9671C53.7513 49.5498 53.6424 50.059 53.4245 50.4948C53.2066 50.9306 52.9006 51.2696 52.5064 51.512C52.1123 51.7544 51.6508 51.8756 51.122 51.8756ZM51.1256 50.9538C51.4684 50.9538 51.7524 50.8632 51.9776 50.6821C52.2028 50.5009 52.3693 50.2597 52.477 49.9586C52.5872 49.6575 52.6423 49.3258 52.6423 48.9634C52.6423 48.6035 52.5872 48.273 52.477 47.9719C52.3693 47.6683 52.2028 47.4247 51.9776 47.2411C51.7524 47.0575 51.4684 46.9657 51.1256 46.9657C50.7804 46.9657 50.494 47.0575 50.2663 47.2411C50.0411 47.4247 49.8734 47.6683 49.7632 47.9719C49.6555 48.273 49.6016 48.6035 49.6016 48.9634C49.6016 49.3258 49.6555 49.6575 49.7632 49.9586C49.8734 50.2597 50.0411 50.5009 50.2663 50.6821C50.494 50.8632 50.7804 50.9538 51.1256 50.9538ZM56.075 44.2408V51.7617H54.977V44.2408H56.075ZM62.922 46.1211V47.0024H59.8409V46.1211H62.922ZM60.6672 44.7697H61.7652V50.1055C61.7652 50.3185 61.797 50.4789 61.8607 50.5866C61.9244 50.6919 62.0064 50.7641 62.1067 50.8032C62.2096 50.84 62.321 50.8583 62.4409 50.8583C62.5291 50.8583 62.6062 50.8522 62.6723 50.84C62.7384 50.8277 62.7898 50.8179 62.8265 50.8106L63.0248 51.7177C62.9612 51.7421 62.8706 51.7666 62.7531 51.7911C62.6356 51.818 62.4887 51.8327 62.3124 51.8352C62.0235 51.8401 61.7542 51.7886 61.5045 51.6809C61.2548 51.5732 61.0528 51.4067 60.8986 51.1815C60.7443 50.9563 60.6672 50.6735 60.6672 50.3332V44.7697ZM66.452 51.8756C65.9232 51.8756 65.4617 51.7544 65.0675 51.512C64.6734 51.2696 64.3674 50.9306 64.1495 50.4948C63.9316 50.059 63.8226 49.5498 63.8226 48.9671C63.8226 48.382 63.9316 47.8703 64.1495 47.4321C64.3674 46.9938 64.6734 46.6535 65.0675 46.4112C65.4617 46.1688 65.9232 46.0476 66.452 46.0476C66.9808 46.0476 67.4423 46.1688 67.8365 46.4112C68.2306 46.6535 68.5366 46.9938 68.7545 47.4321C68.9724 47.8703 69.0814 48.382 69.0814 48.9671C69.0814 49.5498 68.9724 50.059 68.7545 50.4948C68.5366 50.9306 68.2306 51.2696 67.8365 51.512C67.4423 51.7544 66.9808 51.8756 66.452 51.8756ZM66.4557 50.9538C66.7984 50.9538 67.0824 50.8632 67.3076 50.6821C67.5329 50.5009 67.6994 50.2597 67.8071 49.9586C67.9172 49.6575 67.9723 49.3258 67.9723 48.9634C67.9723 48.6035 67.9172 48.273 67.8071 47.9719C67.6994 47.6683 67.5329 47.4247 67.3076 47.2411C67.0824 47.0575 66.7984 46.9657 66.4557 46.9657C66.1105 46.9657 65.824 47.0575 65.5964 47.2411C65.3711 47.4247 65.2034 47.6683 65.0932 47.9719C64.9855 48.273 64.9317 48.6035 64.9317 48.9634C64.9317 49.3258 64.9855 49.6575 65.0932 49.9586C65.2034 50.2597 65.3711 50.5009 65.5964 50.6821C65.824 50.8632 66.1105 50.9538 66.4557 50.9538ZM75.4087 53.9945C74.9607 53.9945 74.5751 53.9357 74.252 53.8182C73.9313 53.7007 73.6693 53.5452 73.4661 53.3518C73.2629 53.1584 73.1111 52.9466 73.0107 52.7165L73.9545 52.3273C74.0206 52.435 74.1088 52.5488 74.2189 52.6688C74.3315 52.7912 74.4833 52.8952 74.6743 52.9809C74.8677 53.0666 75.1162 53.1095 75.4198 53.1095C75.836 53.1095 76.1799 53.0079 76.4517 52.8047C76.7234 52.6039 76.8593 52.2832 76.8593 51.8425V50.7335H76.7895C76.7234 50.8534 76.628 50.9869 76.5031 51.1338C76.3807 51.2806 76.2118 51.408 75.9963 51.5157C75.7809 51.6234 75.5006 51.6773 75.1554 51.6773C74.7098 51.6773 74.3083 51.5732 73.9508 51.3651C73.5959 51.1546 73.3143 50.8449 73.1062 50.436C72.9006 50.0247 72.7977 49.5192 72.7977 48.9194C72.7977 48.3195 72.8993 47.8054 73.1025 47.377C73.3082 46.9486 73.5897 46.6205 73.9472 46.3928C74.3046 46.1627 74.7098 46.0476 75.1627 46.0476C75.5128 46.0476 75.7956 46.1064 76.011 46.2239C76.2264 46.339 76.3942 46.4736 76.5141 46.6278C76.6365 46.7821 76.7308 46.918 76.7969 47.0355H76.8777V46.1211H77.9537V51.8866C77.9537 52.3713 77.841 52.7692 77.6158 53.0801C77.3906 53.391 77.0858 53.6211 76.7014 53.7705C76.3195 53.9198 75.8886 53.9945 75.4087 53.9945ZM75.3977 50.7665C75.7136 50.7665 75.9804 50.6931 76.1983 50.5462C76.4186 50.3968 76.5851 50.1839 76.6977 49.9072C76.8128 49.6281 76.8703 49.2939 76.8703 48.9047C76.8703 48.5252 76.814 48.191 76.7014 47.9021C76.5888 47.6132 76.4235 47.388 76.2056 47.2264C75.9877 47.0624 75.7184 46.9804 75.3977 46.9804C75.0672 46.9804 74.7918 47.0661 74.5715 47.2374C74.3511 47.4064 74.1846 47.6365 74.072 47.9278C73.9619 48.2192 73.9068 48.5448 73.9068 48.9047C73.9068 49.2743 73.9631 49.5987 74.0757 49.8778C74.1883 50.1569 74.3548 50.3748 74.5751 50.5315C74.7979 50.6882 75.0721 50.7665 75.3977 50.7665ZM81.8573 51.8756C81.3016 51.8756 80.823 51.7568 80.4214 51.5193C80.0224 51.2794 79.7139 50.9428 79.496 50.5095C79.2806 50.0737 79.1729 49.5632 79.1729 48.9781C79.1729 48.4003 79.2806 47.8911 79.496 47.4504C79.7139 47.0098 80.0175 46.6658 80.4068 46.4185C80.7985 46.1712 81.2563 46.0476 81.7802 46.0476C82.0985 46.0476 82.4069 46.1003 82.7056 46.2055C83.0043 46.3108 83.2724 46.476 83.5099 46.7013C83.7473 46.9265 83.9346 47.2191 84.0717 47.579C84.2088 47.9364 84.2774 48.371 84.2774 48.8826V49.2719H79.7935V48.4493H83.2014C83.2014 48.1604 83.1426 47.9046 83.0251 47.6818C82.9076 47.4566 82.7423 47.2791 82.5293 47.1493C82.3188 47.0196 82.0715 46.9547 81.7875 46.9547C81.4791 46.9547 81.2098 47.0306 80.9796 47.1824C80.752 47.3317 80.5757 47.5276 80.4508 47.7699C80.3284 48.0098 80.2672 48.2706 80.2672 48.5521V49.1948C80.2672 49.5718 80.3333 49.8925 80.4655 50.1569C80.6002 50.4213 80.7875 50.6233 81.0274 50.7629C81.2673 50.9 81.5476 50.9685 81.8683 50.9685C82.0764 50.9685 82.2662 50.9391 82.4375 50.8804C82.6089 50.8192 82.757 50.7286 82.8819 50.6086C83.0067 50.4887 83.1022 50.3405 83.1683 50.1643L84.2076 50.3516C84.1244 50.6576 83.975 50.9257 83.7596 51.1558C83.5466 51.3835 83.2785 51.561 82.9553 51.6883C82.6346 51.8131 82.2686 51.8756 81.8573 51.8756ZM88.1287 46.1211V47.0024H85.0476V46.1211H88.1287ZM85.8739 44.7697H86.9719V50.1055C86.9719 50.3185 87.0037 50.4789 87.0674 50.5866C87.131 50.6919 87.2131 50.7641 87.3134 50.8032C87.4163 50.84 87.5277 50.8583 87.6476 50.8583C87.7358 50.8583 87.8129 50.8522 87.879 50.84C87.9451 50.8277 87.9965 50.8179 88.0332 50.8106L88.2315 51.7177C88.1679 51.7421 88.0773 51.7666 87.9598 51.7911C87.8423 51.818 87.6954 51.8327 87.5191 51.8352C87.2302 51.8401 86.9609 51.7886 86.7112 51.6809C86.4615 51.5732 86.2595 51.4067 86.1053 51.1815C85.951 50.9563 85.8739 50.6735 85.8739 50.3332V44.7697ZM95.6532 49.4225V46.1211H96.7549V51.7617H95.6753V50.7849H95.6165C95.4868 51.086 95.2787 51.337 94.9922 51.5377C94.7082 51.736 94.3545 51.8352 93.9309 51.8352C93.5686 51.8352 93.2479 51.7556 92.9688 51.5965C92.6921 51.4349 92.4743 51.1962 92.3151 50.8804C92.1584 50.5645 92.0801 50.1741 92.0801 49.7089V46.1211H93.1781V49.5767C93.1781 49.9611 93.2846 50.2671 93.4976 50.4948C93.7106 50.7225 93.9872 50.8363 94.3275 50.8363C94.5332 50.8363 94.7376 50.7849 94.9408 50.6821C95.1465 50.5792 95.3166 50.4238 95.4513 50.2157C95.5884 50.0076 95.6557 49.7432 95.6532 49.4225ZM102.457 47.4982L101.462 47.6744C101.42 47.5471 101.354 47.426 101.264 47.3109C101.175 47.1958 101.056 47.1016 100.904 47.0281C100.752 46.9547 100.562 46.918 100.335 46.918C100.024 46.918 99.7641 46.9877 99.556 47.1273C99.3479 47.2644 99.2438 47.4419 99.2438 47.6598C99.2438 47.8483 99.3136 48.0001 99.4532 48.1151C99.5927 48.2302 99.8179 48.3244 100.129 48.3979L101.025 48.6035C101.544 48.7235 101.931 48.9083 102.185 49.1581C102.44 49.4078 102.567 49.7322 102.567 50.1312C102.567 50.4691 102.469 50.7702 102.273 51.0346C102.08 51.2966 101.81 51.5022 101.462 51.6515C101.117 51.8009 100.716 51.8756 100.261 51.8756C99.6294 51.8756 99.1141 51.7409 98.715 51.4716C98.316 51.1999 98.0711 50.8143 97.9806 50.3148L99.0419 50.1532C99.108 50.4299 99.2438 50.6392 99.4495 50.7812C99.6551 50.9208 99.9232 50.9905 100.254 50.9905C100.614 50.9905 100.901 50.9159 101.117 50.7665C101.332 50.6147 101.44 50.4299 101.44 50.212C101.44 50.0357 101.374 49.8876 101.242 49.7677C101.112 49.6477 100.912 49.5571 100.643 49.4959L99.6882 49.2866C99.1618 49.1666 98.7726 48.9757 98.5204 48.7137C98.2707 48.4517 98.1458 48.12 98.1458 47.7185C98.1458 47.3856 98.2388 47.0942 98.4249 46.8445C98.611 46.5948 98.868 46.4002 99.1961 46.2606C99.5241 46.1186 99.8999 46.0476 100.323 46.0476C100.933 46.0476 101.413 46.1798 101.763 46.4442C102.113 46.7062 102.344 47.0575 102.457 47.4982ZM106.206 51.8756C105.65 51.8756 105.171 51.7568 104.77 51.5193C104.371 51.2794 104.062 50.9428 103.844 50.5095C103.629 50.0737 103.521 49.5632 103.521 48.9781C103.521 48.4003 103.629 47.8911 103.844 47.4504C104.062 47.0098 104.366 46.6658 104.755 46.4185C105.147 46.1712 105.605 46.0476 106.128 46.0476C106.447 46.0476 106.755 46.1003 107.054 46.2055C107.353 46.3108 107.621 46.476 107.858 46.7013C108.096 46.9265 108.283 47.2191 108.42 47.579C108.557 47.9364 108.626 48.371 108.626 48.8826V49.2719H104.142V48.4493H107.55C107.55 48.1604 107.491 47.9046 107.373 47.6818C107.256 47.4566 107.091 47.2791 106.878 47.1493C106.667 47.0196 106.42 46.9547 106.136 46.9547C105.827 46.9547 105.558 47.0306 105.328 47.1824C105.1 47.3317 104.924 47.5276 104.799 47.7699C104.677 48.0098 104.615 48.2706 104.615 48.5521V49.1948C104.615 49.5718 104.682 49.8925 104.814 50.1569C104.948 50.4213 105.136 50.6233 105.376 50.7629C105.616 50.9 105.896 50.9685 106.217 50.9685C106.425 50.9685 106.614 50.9391 106.786 50.8804C106.957 50.8192 107.105 50.7286 107.23 50.6086C107.355 50.4887 107.451 50.3405 107.517 50.1643L108.556 50.3516C108.473 50.6576 108.323 50.9257 108.108 51.1558C107.895 51.3835 107.627 51.561 107.304 51.6883C106.983 51.8131 106.617 51.8756 106.206 51.8756ZM109.844 51.7617V46.1211H110.905V47.0171H110.964C111.067 46.7135 111.248 46.4748 111.507 46.301C111.769 46.1247 112.066 46.0366 112.396 46.0366C112.465 46.0366 112.546 46.039 112.639 46.0439C112.734 46.0488 112.809 46.055 112.863 46.0623V47.1126C112.819 47.1003 112.74 47.0869 112.628 47.0722C112.515 47.055 112.402 47.0465 112.29 47.0465C112.03 47.0465 111.799 47.1016 111.596 47.2117C111.395 47.3195 111.236 47.47 111.118 47.6634C111.001 47.8544 110.942 48.0723 110.942 48.3171V51.7617H109.844ZM118.04 47.4982L117.044 47.6744C117.003 47.5471 116.937 47.426 116.846 47.3109C116.758 47.1958 116.638 47.1016 116.486 47.0281C116.334 46.9547 116.145 46.918 115.917 46.918C115.606 46.918 115.347 46.9877 115.138 47.1273C114.93 47.2644 114.826 47.4419 114.826 47.6598C114.826 47.8483 114.896 48.0001 115.036 48.1151C115.175 48.2302 115.4 48.3244 115.711 48.3979L116.607 48.6035C117.126 48.7235 117.513 48.9083 117.768 49.1581C118.022 49.4078 118.15 49.7322 118.15 50.1312C118.15 50.4691 118.052 50.7702 117.856 51.0346C117.663 51.2966 117.392 51.5022 117.044 51.6515C116.699 51.8009 116.299 51.8756 115.844 51.8756C115.212 51.8756 114.697 51.7409 114.298 51.4716C113.898 51.1999 113.654 50.8143 113.563 50.3148L114.624 50.1532C114.69 50.4299 114.826 50.6392 115.032 50.7812C115.238 50.9208 115.506 50.9905 115.836 50.9905C116.196 50.9905 116.484 50.9159 116.699 50.7665C116.915 50.6147 117.022 50.4299 117.022 50.212C117.022 50.0357 116.956 49.8876 116.824 49.7677C116.694 49.6477 116.495 49.5571 116.225 49.4959L115.271 49.2866C114.744 49.1666 114.355 48.9757 114.103 48.7137C113.853 48.4517 113.728 48.12 113.728 47.7185C113.728 47.3856 113.821 47.0942 114.007 46.8445C114.193 46.5948 114.451 46.4002 114.779 46.2606C115.107 46.1186 115.482 46.0476 115.906 46.0476C116.516 46.0476 116.995 46.1798 117.346 46.4442C117.696 46.7062 117.927 47.0575 118.04 47.4982ZM124.778 46.1211V47.0024H121.591V46.1211H124.778ZM122.465 51.7617V45.4674C122.465 45.1148 122.542 44.8223 122.696 44.5897C122.85 44.3547 123.055 44.1796 123.309 44.0646C123.564 43.9471 123.841 43.8883 124.139 43.8883C124.36 43.8883 124.548 43.9067 124.705 43.9434C124.862 43.9777 124.978 44.0095 125.054 44.0389L124.797 44.9276C124.745 44.9129 124.679 44.8957 124.598 44.8761C124.518 44.8541 124.42 44.8431 124.305 44.8431C124.038 44.8431 123.847 44.9092 123.732 45.0414C123.619 45.1736 123.563 45.3646 123.563 45.6143V51.7617H122.465ZM128.12 51.8756C127.564 51.8756 127.086 51.7568 126.684 51.5193C126.285 51.2794 125.977 50.9428 125.759 50.5095C125.543 50.0737 125.436 49.5632 125.436 48.9781C125.436 48.4003 125.543 47.8911 125.759 47.4504C125.977 47.0098 126.28 46.6658 126.67 46.4185C127.061 46.1712 127.519 46.0476 128.043 46.0476C128.361 46.0476 128.67 46.1003 128.968 46.2055C129.267 46.3108 129.535 46.476 129.773 46.7013C130.01 46.9265 130.197 47.2191 130.334 47.579C130.472 47.9364 130.54 48.371 130.54 48.8826V49.2719H126.056V48.4493H129.464C129.464 48.1604 129.405 47.9046 129.288 47.6818C129.17 47.4566 129.005 47.2791 128.792 47.1493C128.582 47.0196 128.334 46.9547 128.05 46.9547C127.742 46.9547 127.473 47.0306 127.242 47.1824C127.015 47.3317 126.838 47.5276 126.714 47.7699C126.591 48.0098 126.53 48.2706 126.53 48.5521V49.1948C126.53 49.5718 126.596 49.8925 126.728 50.1569C126.863 50.4213 127.05 50.6233 127.29 50.7629C127.53 50.9 127.81 50.9685 128.131 50.9685C128.339 50.9685 128.529 50.9391 128.7 50.8804C128.872 50.8192 129.02 50.7286 129.145 50.6086C129.27 50.4887 129.365 50.3405 129.431 50.1643L130.47 50.3516C130.387 50.6576 130.238 50.9257 130.022 51.1558C129.809 51.3835 129.541 51.561 129.218 51.6883C128.897 51.8131 128.531 51.8756 128.12 51.8756ZM134.189 51.8756C133.634 51.8756 133.155 51.7568 132.754 51.5193C132.355 51.2794 132.046 50.9428 131.828 50.5095C131.613 50.0737 131.505 49.5632 131.505 48.9781C131.505 48.4003 131.613 47.8911 131.828 47.4504C132.046 47.0098 132.35 46.6658 132.739 46.4185C133.131 46.1712 133.588 46.0476 134.112 46.0476C134.431 46.0476 134.739 46.1003 135.038 46.2055C135.336 46.3108 135.605 46.476 135.842 46.7013C136.079 46.9265 136.267 47.2191 136.404 47.579C136.541 47.9364 136.61 48.371 136.61 48.8826V49.2719H132.126V48.4493H135.534C135.534 48.1604 135.475 47.9046 135.357 47.6818C135.24 47.4566 135.074 47.2791 134.862 47.1493C134.651 47.0196 134.404 46.9547 134.12 46.9547C133.811 46.9547 133.542 47.0306 133.312 47.1824C133.084 47.3317 132.908 47.5276 132.783 47.7699C132.661 48.0098 132.599 48.2706 132.599 48.5521V49.1948C132.599 49.5718 132.665 49.8925 132.798 50.1569C132.932 50.4213 133.12 50.6233 133.36 50.7629C133.599 50.9 133.88 50.9685 134.2 50.9685C134.409 50.9685 134.598 50.9391 134.77 50.8804C134.941 50.8192 135.089 50.7286 135.214 50.6086C135.339 50.4887 135.434 50.3405 135.5 50.1643L136.54 50.3516C136.457 50.6576 136.307 50.9257 136.092 51.1558C135.879 51.3835 135.611 51.561 135.287 51.6883C134.967 51.8131 134.601 51.8756 134.189 51.8756ZM139.939 51.8719C139.484 51.8719 139.078 51.7556 138.72 51.523C138.365 51.288 138.086 50.9538 137.883 50.5205C137.682 50.0847 137.582 49.562 137.582 48.9524C137.582 48.3428 137.683 47.8213 137.887 47.388C138.092 46.9547 138.374 46.6229 138.731 46.3928C139.089 46.1627 139.494 46.0476 139.947 46.0476C140.297 46.0476 140.578 46.1064 140.791 46.2239C141.007 46.339 141.173 46.4736 141.291 46.6278C141.411 46.7821 141.504 46.918 141.57 47.0355H141.636V44.2408H142.734V51.7617H141.662V50.884H141.57C141.504 51.004 141.408 51.1411 141.283 51.2953C141.161 51.4496 140.992 51.5842 140.777 51.6993C140.561 51.8144 140.282 51.8719 139.939 51.8719ZM140.182 50.9355C140.498 50.9355 140.764 50.8522 140.982 50.6857C141.203 50.5168 141.369 50.283 141.482 49.9843C141.597 49.6856 141.654 49.338 141.654 48.9414C141.654 48.5497 141.598 48.2069 141.485 47.9131C141.373 47.6194 141.208 47.3905 140.99 47.2264C140.772 47.0624 140.502 46.9804 140.182 46.9804C139.851 46.9804 139.576 47.0661 139.355 47.2374C139.135 47.4088 138.969 47.6426 138.856 47.9389C138.746 48.2351 138.691 48.5693 138.691 48.9414C138.691 49.3184 138.747 49.6575 138.86 49.9586C138.972 50.2597 139.139 50.4984 139.359 50.6747C139.582 50.8485 139.856 50.9355 140.182 50.9355ZM144.389 51.7617V44.2408H145.487V47.0355H145.553C145.617 46.918 145.709 46.7821 145.829 46.6278C145.949 46.4736 146.115 46.339 146.328 46.2239C146.541 46.1064 146.823 46.0476 147.173 46.0476C147.628 46.0476 148.035 46.1627 148.392 46.3928C148.75 46.6229 149.03 46.9547 149.233 47.388C149.439 47.8213 149.542 48.3428 149.542 48.9524C149.542 49.562 149.44 50.0847 149.237 50.5205C149.034 50.9538 148.754 51.288 148.399 51.523C148.044 51.7556 147.639 51.8719 147.184 51.8719C146.841 51.8719 146.561 51.8144 146.343 51.6993C146.128 51.5842 145.959 51.4496 145.836 51.2953C145.714 51.1411 145.62 51.004 145.553 50.884H145.462V51.7617H144.389ZM145.465 48.9414C145.465 49.338 145.523 49.6856 145.638 49.9843C145.753 50.283 145.919 50.5168 146.137 50.6857C146.355 50.8522 146.622 50.9355 146.938 50.9355C147.266 50.9355 147.54 50.8485 147.76 50.6747C147.981 50.4984 148.147 50.2597 148.26 49.9586C148.375 49.6575 148.433 49.3184 148.433 48.9414C148.433 48.5693 148.376 48.2351 148.264 47.9389C148.153 47.6426 147.987 47.4088 147.764 47.2374C147.544 47.0661 147.268 46.9804 146.938 46.9804C146.62 46.9804 146.35 47.0624 146.13 47.2264C145.912 47.3905 145.747 47.6194 145.634 47.9131C145.522 48.2069 145.465 48.5497 145.465 48.9414ZM152.416 51.8866C152.059 51.8866 151.735 51.8205 151.447 51.6883C151.158 51.5536 150.929 51.359 150.76 51.1044C150.593 50.8498 150.51 50.5376 150.51 50.1679C150.51 49.8497 150.571 49.5877 150.694 49.3821C150.816 49.1764 150.981 49.0136 151.189 48.8936C151.398 48.7737 151.63 48.6831 151.887 48.6219C152.144 48.5607 152.406 48.5142 152.673 48.4824C153.011 48.4432 153.285 48.4114 153.496 48.3869C153.706 48.3599 153.859 48.3171 153.955 48.2583C154.05 48.1996 154.098 48.1041 154.098 47.9719V47.9462C154.098 47.6255 154.007 47.377 153.826 47.2007C153.647 47.0244 153.381 46.9363 153.026 46.9363C152.656 46.9363 152.365 47.0183 152.152 47.1824C151.941 47.3439 151.795 47.5239 151.715 47.7222L150.683 47.4872C150.805 47.1444 150.984 46.8678 151.219 46.6572C151.456 46.4442 151.729 46.29 152.038 46.1945C152.346 46.0966 152.671 46.0476 153.011 46.0476C153.236 46.0476 153.475 46.0745 153.727 46.1284C153.982 46.1798 154.219 46.2753 154.439 46.4148C154.662 46.5544 154.845 46.7539 154.987 47.0134C155.129 47.2705 155.2 47.6047 155.2 48.016V51.7617H154.127V50.9905H154.083C154.012 51.1325 153.906 51.2721 153.764 51.4092C153.622 51.5463 153.439 51.6601 153.217 51.7507C152.994 51.8413 152.727 51.8866 152.416 51.8866ZM152.655 51.0052C152.958 51.0052 153.218 50.9452 153.433 50.8253C153.651 50.7053 153.816 50.5486 153.929 50.3552C154.044 50.1594 154.102 49.95 154.102 49.7273V49.0001C154.062 49.0393 153.987 49.076 153.874 49.1103C153.764 49.1421 153.638 49.1703 153.496 49.1948C153.354 49.2168 153.215 49.2376 153.081 49.2572C152.946 49.2743 152.833 49.289 152.743 49.3013C152.53 49.3282 152.335 49.3735 152.159 49.4372C151.985 49.5008 151.846 49.5926 151.74 49.7126C151.638 49.8301 151.586 49.9868 151.586 50.1826C151.586 50.4544 151.686 50.66 151.887 50.7996C152.088 50.9367 152.344 51.0052 152.655 51.0052ZM159.038 51.8756C158.492 51.8756 158.022 51.7519 157.628 51.5047C157.236 51.2549 156.935 50.911 156.725 50.4727C156.514 50.0345 156.409 49.5326 156.409 48.9671C156.409 48.3942 156.516 47.8887 156.732 47.4504C156.947 47.0098 157.251 46.6658 157.643 46.4185C158.034 46.1712 158.496 46.0476 159.027 46.0476C159.456 46.0476 159.837 46.1272 160.173 46.2863C160.508 46.443 160.779 46.6633 160.984 46.9473C161.193 47.2313 161.316 47.5631 161.355 47.9425H160.287C160.228 47.6781 160.093 47.4504 159.883 47.2595C159.675 47.0685 159.396 46.973 159.045 46.973C158.739 46.973 158.471 47.0538 158.241 47.2154C158.014 47.3745 157.836 47.6022 157.709 47.8985C157.581 48.1922 157.518 48.5399 157.518 48.9414C157.518 49.3527 157.58 49.7077 157.705 50.0064C157.83 50.305 158.006 50.5364 158.234 50.7004C158.464 50.8645 158.735 50.9465 159.045 50.9465C159.254 50.9465 159.442 50.9085 159.611 50.8326C159.782 50.7543 159.926 50.6429 160.041 50.4984C160.158 50.354 160.24 50.1802 160.287 49.977H161.355C161.316 50.3418 161.197 50.6674 160.999 50.9538C160.801 51.2403 160.535 51.4655 160.202 51.6295C159.872 51.7935 159.484 51.8756 159.038 51.8756ZM163.539 49.8484L163.532 48.5081H163.723L165.971 46.1211H167.285L164.722 48.8386H164.549L163.539 49.8484ZM162.53 51.7617V44.2408H163.628V51.7617H162.53ZM166.092 51.7617L164.072 49.0809L164.828 48.3134L167.439 51.7617H166.092ZM169.487 49.5987V49.529C169.492 49.0736 169.537 48.7113 169.623 48.442C169.711 48.1727 169.836 47.9548 169.997 47.7883C170.159 47.6218 170.353 47.47 170.581 47.3329C170.728 47.2399 170.86 47.1358 170.978 47.0208C171.095 46.9057 171.188 46.7735 171.257 46.6242C171.325 46.4748 171.36 46.3096 171.36 46.1284C171.36 45.9105 171.308 45.722 171.205 45.5629C171.103 45.4037 170.965 45.2813 170.794 45.1956C170.625 45.1075 170.437 45.0634 170.229 45.0634C170.04 45.0634 169.86 45.1026 169.689 45.181C169.517 45.2593 169.375 45.3817 169.263 45.5482C169.15 45.7122 169.085 45.924 169.068 46.1835H167.952C167.969 45.7428 168.08 45.3707 168.286 45.0671C168.492 44.7611 168.763 44.5297 169.101 44.373C169.441 44.2164 169.817 44.138 170.229 44.138C170.679 44.138 171.073 44.2225 171.411 44.3914C171.749 44.5579 172.011 44.7917 172.197 45.0928C172.385 45.3915 172.48 45.7404 172.48 46.1394C172.48 46.4136 172.437 46.6609 172.351 46.8812C172.265 47.0991 172.143 47.2937 171.984 47.4651C171.827 47.6365 171.639 47.7883 171.418 47.9205C171.21 48.0502 171.041 48.1849 170.912 48.3244C170.784 48.464 170.691 48.6292 170.632 48.8202C170.574 49.0112 170.542 49.2474 170.537 49.529V49.5987H169.487ZM170.041 51.8315C169.841 51.8315 169.668 51.7605 169.523 51.6185C169.379 51.4741 169.307 51.3002 169.307 51.097C169.307 50.8963 169.379 50.7249 169.523 50.5829C169.668 50.4385 169.841 50.3662 170.041 50.3662C170.24 50.3662 170.411 50.4385 170.555 50.5829C170.702 50.7249 170.776 50.8963 170.776 51.097C170.776 51.2317 170.741 51.3553 170.673 51.4679C170.607 51.5781 170.519 51.6662 170.408 51.7323C170.298 51.7984 170.176 51.8315 170.041 51.8315Z" fill="#050505"/>
<rect x="13.3184" y="64.0352" width="172.181" height="23.4094" rx="6.20472" fill="#F0F0F0"/>
<g clip-path="url(#clip0_4255_28283)">
<path d="M26.762 80.0483C29.1417 80.0483 31.0708 78.1192 31.0708 75.7395C31.0708 73.3598 29.1417 71.4307 26.762 71.4307C24.3823 71.4307 22.4531 73.3598 22.4531 75.7395C22.4531 78.1192 24.3823 80.0483 26.762 80.0483Z" stroke="#050505" stroke-width="0.51706" strokeLInecap="round" strokeLinejoin="round"/>
</g>
<path d="M39.585 74.2918C39.5541 74.0313 39.429 73.8291 39.2096 73.6851C38.9903 73.5412 38.7212 73.4692 38.4025 73.4692C38.1694 73.4692 37.9655 73.5069 37.7907 73.5823C37.6176 73.6577 37.4822 73.7614 37.3845 73.8933C37.2885 74.0253 37.2406 74.1752 37.2406 74.3432C37.2406 74.4837 37.274 74.6045 37.3408 74.7056C37.4094 74.805 37.4968 74.8882 37.603 74.955C37.7093 75.0201 37.8207 75.0741 37.9372 75.1169C38.0537 75.1581 38.1608 75.1915 38.2585 75.2172L38.7932 75.3611C38.9303 75.3971 39.0828 75.4468 39.2508 75.5102C39.4204 75.5737 39.5824 75.6602 39.7366 75.7699C39.8926 75.8778 40.0211 76.0167 40.1222 76.1863C40.2233 76.356 40.2739 76.5642 40.2739 76.811C40.2739 77.0955 40.1993 77.3525 40.0502 77.5822C39.9029 77.8118 39.6869 77.9943 39.4024 78.1297C39.1197 78.2651 38.7761 78.3328 38.3716 78.3328C37.9946 78.3328 37.6681 78.2719 37.3922 78.1503C37.118 78.0286 36.9021 77.8589 36.7444 77.6413C36.5885 77.4236 36.5002 77.1709 36.4797 76.883H37.1377C37.1549 77.0817 37.2217 77.2463 37.3382 77.3765C37.4565 77.505 37.6056 77.601 37.7855 77.6644C37.9672 77.7261 38.1626 77.757 38.3716 77.757C38.615 77.757 38.8335 77.7175 39.0271 77.6387C39.2208 77.5582 39.3742 77.4468 39.4873 77.3045C39.6004 77.1606 39.6569 76.9926 39.6569 76.8007C39.6569 76.6259 39.6081 76.4836 39.5104 76.374C39.4127 76.2643 39.2842 76.1752 39.1248 76.1066C38.9654 76.0381 38.7932 75.9781 38.6081 75.9267L37.9603 75.7416C37.549 75.6234 37.2234 75.4545 36.9835 75.2352C36.7436 75.0158 36.6236 74.7288 36.6236 74.374C36.6236 74.0793 36.7033 73.8222 36.8627 73.6028C37.0238 73.3818 37.2397 73.2104 37.5105 73.0887C37.783 72.9653 38.0871 72.9036 38.423 72.9036C38.7624 72.9036 39.064 72.9645 39.3279 73.0862C39.5918 73.2061 39.8009 73.3706 39.9551 73.5797C40.1111 73.7888 40.1933 74.0261 40.2019 74.2918H39.585ZM42.957 74.2918V74.8059H40.9108V74.2918H42.957ZM41.5071 73.3458H42.1138V77.1092C42.1138 77.2805 42.1386 77.4091 42.1883 77.4948C42.2398 77.5787 42.3049 77.6353 42.3837 77.6644C42.4643 77.6918 42.5491 77.7055 42.6382 77.7055C42.705 77.7055 42.7599 77.7021 42.8027 77.6953C42.8456 77.6867 42.8798 77.6798 42.9055 77.6747L43.0289 78.2197C42.9878 78.2351 42.9304 78.2505 42.8567 78.2659C42.783 78.2831 42.6896 78.2916 42.5765 78.2916C42.4051 78.2916 42.2372 78.2548 42.0727 78.1811C41.9099 78.1074 41.7745 77.9952 41.6665 77.8444C41.5603 77.6936 41.5071 77.5033 41.5071 77.2737V73.3458ZM43.8695 78.2402V74.2918H44.4556V74.8882H44.4968C44.5687 74.6928 44.699 74.5343 44.8875 74.4126C45.076 74.2909 45.2885 74.2301 45.525 74.2301C45.5696 74.2301 45.6253 74.2309 45.6921 74.2326C45.7589 74.2344 45.8095 74.2369 45.8438 74.2404V74.8573C45.8232 74.8522 45.7761 74.8445 45.7024 74.8342C45.6304 74.8222 45.5541 74.8162 45.4736 74.8162C45.2816 74.8162 45.1103 74.8565 44.9595 74.937C44.8104 75.0158 44.6921 75.1255 44.6047 75.266C44.519 75.4048 44.4762 75.5634 44.4762 75.7416V78.2402H43.8695ZM48.0468 78.3225C47.6903 78.3225 47.3776 78.2377 47.1085 78.068C46.8412 77.8983 46.6321 77.661 46.4813 77.3559C46.3322 77.0509 46.2576 76.6944 46.2576 76.2866C46.2576 75.8753 46.3322 75.5162 46.4813 75.2095C46.6321 74.9027 46.8412 74.6645 47.1085 74.4949C47.3776 74.3252 47.6903 74.2404 48.0468 74.2404C48.4032 74.2404 48.7151 74.3252 48.9825 74.4949C49.2515 74.6645 49.4606 74.9027 49.6097 75.2095C49.7605 75.5162 49.8359 75.8753 49.8359 76.2866C49.8359 76.6944 49.7605 77.0509 49.6097 77.3559C49.4606 77.661 49.2515 77.8983 48.9825 78.068C48.7151 78.2377 48.4032 78.3225 48.0468 78.3225ZM48.0468 77.7775C48.3175 77.7775 48.5403 77.7081 48.7151 77.5693C48.8899 77.4305 49.0193 77.248 49.1033 77.0218C49.1873 76.7956 49.2293 76.5505 49.2293 76.2866C49.2293 76.0227 49.1873 75.7767 49.1033 75.5488C49.0193 75.3209 48.8899 75.1366 48.7151 74.9961C48.5403 74.8556 48.3175 74.7853 48.0468 74.7853C47.776 74.7853 47.5532 74.8556 47.3784 74.9961C47.2036 75.1366 47.0742 75.3209 46.9902 75.5488C46.9063 75.7767 46.8643 76.0227 46.8643 76.2866C46.8643 76.5505 46.9063 76.7956 46.9902 77.0218C47.0742 77.248 47.2036 77.4305 47.3784 77.5693C47.5532 77.7081 47.776 77.7775 48.0468 77.7775ZM51.3686 75.865V78.2402H50.762V74.2918H51.3481V74.9087H51.3995C51.492 74.7082 51.6326 74.5471 51.8211 74.4254C52.0096 74.3021 52.2529 74.2404 52.5511 74.2404C52.8185 74.2404 53.0524 74.2952 53.2529 74.4049C53.4534 74.5128 53.6094 74.6774 53.7208 74.8984C53.8321 75.1178 53.8878 75.3954 53.8878 75.7313V78.2402H53.2812V75.7724C53.2812 75.4623 53.2006 75.2206 53.0395 75.0475C52.8785 74.8727 52.6574 74.7853 52.3763 74.7853C52.1827 74.7853 52.0096 74.8273 51.8571 74.9113C51.7063 74.9953 51.5871 75.1178 51.4997 75.2789C51.4123 75.44 51.3686 75.6353 51.3686 75.865ZM56.5902 79.8032C56.2972 79.8032 56.0452 79.7655 55.8344 79.6901C55.6237 79.6164 55.448 79.5187 55.3075 79.397C55.1687 79.277 55.0581 79.1485 54.9759 79.0114L55.4591 78.6721C55.514 78.7441 55.5834 78.8263 55.6674 78.9189C55.7513 79.0131 55.8661 79.0945 56.0118 79.1631C56.1592 79.2333 56.352 79.2685 56.5902 79.2685C56.909 79.2685 57.172 79.1914 57.3794 79.0371C57.5867 78.8829 57.6904 78.6412 57.6904 78.3122V77.5102H57.639C57.5945 77.5822 57.531 77.6713 57.4488 77.7775C57.3682 77.8821 57.2517 77.9755 57.0992 78.0577C56.9484 78.1383 56.7444 78.1785 56.4874 78.1785C56.1686 78.1785 55.8824 78.1031 55.6288 77.9523C55.3769 77.8015 55.1772 77.5822 55.0298 77.2942C54.8842 77.0063 54.8113 76.6567 54.8113 76.2454C54.8113 75.841 54.8825 75.4888 55.0247 75.1889C55.1669 74.8873 55.3649 74.6542 55.6185 74.4897C55.8721 74.3235 56.1652 74.2404 56.4977 74.2404C56.7547 74.2404 56.9587 74.2832 57.1095 74.3689C57.262 74.4529 57.3785 74.5488 57.4591 74.6568C57.5413 74.7631 57.6047 74.8505 57.6493 74.919H57.711V74.2918H58.2971V78.3533C58.2971 78.6927 58.22 78.9686 58.0657 79.1811C57.9132 79.3953 57.7076 79.5521 57.4488 79.6515C57.1917 79.7526 56.9055 79.8032 56.5902 79.8032ZM56.5696 77.6336C56.813 77.6336 57.0186 77.5779 57.1866 77.4665C57.3545 77.3551 57.4822 77.1949 57.5696 76.9858C57.657 76.7767 57.7007 76.5265 57.7007 76.2352C57.7007 75.9507 57.6579 75.6996 57.5722 75.482C57.4865 75.2643 57.3597 75.0938 57.1917 74.9704C57.0238 74.847 56.8164 74.7853 56.5696 74.7853C56.3126 74.7853 56.0984 74.8505 55.927 74.9807C55.7573 75.1109 55.6296 75.2857 55.544 75.5051C55.46 75.7245 55.418 75.9678 55.418 76.2352C55.418 76.5094 55.4608 76.7518 55.5465 76.9626C55.6339 77.1717 55.7625 77.3362 55.9321 77.4562C56.1035 77.5744 56.316 77.6336 56.5696 77.6336ZM60.0143 72.9756V78.2402H59.4076V72.9756H60.0143ZM61.5161 79.7209C61.4133 79.7209 61.3216 79.7123 61.2411 79.6952C61.1605 79.6798 61.1048 79.6644 61.074 79.6489L61.2282 79.1142C61.3756 79.1519 61.5059 79.1657 61.619 79.1554C61.7321 79.1451 61.8323 79.0945 61.9197 79.0037C62.0088 78.9146 62.0902 78.7698 62.1639 78.5693L62.277 78.2608L60.8169 74.2918H61.475L62.5649 77.4382H62.6061L63.696 74.2918H64.3541L62.6781 78.8161C62.6026 79.02 62.5093 79.1888 62.3979 79.3225C62.2865 79.4578 62.1571 79.5581 62.0097 79.6232C61.864 79.6883 61.6995 79.7209 61.5161 79.7209ZM67.489 78.2402H66.8206L68.7537 72.9756H69.4118L71.3449 78.2402H70.6765L69.1033 73.8085H69.0622L67.489 78.2402ZM67.7357 76.1837H70.4297V76.7493H67.7357V76.1837ZM73.6764 79.8032C73.3834 79.8032 73.1315 79.7655 72.9207 79.6901C72.7099 79.6164 72.5342 79.5187 72.3937 79.397C72.2549 79.277 72.1443 79.1485 72.0621 79.0114L72.5454 78.6721C72.6002 78.7441 72.6696 78.8263 72.7536 78.9189C72.8375 79.0131 72.9524 79.0945 73.098 79.1631C73.2454 79.2333 73.4382 79.2685 73.6764 79.2685C73.9952 79.2685 74.2582 79.1914 74.4656 79.0371C74.673 78.8829 74.7766 78.6412 74.7766 78.3122V77.5102H74.7252C74.6807 77.5822 74.6173 77.6713 74.535 77.7775C74.4545 77.8821 74.3379 77.9755 74.1854 78.0577C74.0346 78.1383 73.8307 78.1785 73.5736 78.1785C73.2548 78.1785 72.9686 78.1031 72.715 77.9523C72.4631 77.8015 72.2634 77.5822 72.1161 77.2942C71.9704 77.0063 71.8976 76.6567 71.8976 76.2454C71.8976 75.841 71.9687 75.4888 72.1109 75.1889C72.2532 74.8873 72.4511 74.6542 72.7047 74.4897C72.9584 74.3235 73.2514 74.2404 73.5839 74.2404C73.8409 74.2404 74.0449 74.2832 74.1957 74.3689C74.3482 74.4529 74.4647 74.5488 74.5453 74.6568C74.6275 74.7631 74.691 74.8505 74.7355 74.919H74.7972V74.2918H75.3833V78.3533C75.3833 78.6927 75.3062 78.9686 75.152 79.1811C74.9994 79.3953 74.7938 79.5521 74.535 79.6515C74.2779 79.7526 73.9918 79.8032 73.6764 79.8032ZM73.6559 77.6336C73.8992 77.6336 74.1049 77.5779 74.2728 77.4665C74.4408 77.3551 74.5684 77.1949 74.6558 76.9858C74.7432 76.7767 74.7869 76.5265 74.7869 76.2352C74.7869 75.9507 74.7441 75.6996 74.6584 75.482C74.5727 75.2643 74.4459 75.0938 74.2779 74.9704C74.11 74.847 73.9026 74.7853 73.6559 74.7853C73.3988 74.7853 73.1846 74.8505 73.0132 74.9807C72.8435 75.1109 72.7159 75.2857 72.6302 75.5051C72.5462 75.7245 72.5042 75.9678 72.5042 76.2352C72.5042 76.5094 72.5471 76.7518 72.6328 76.9626C72.7202 77.1717 72.8487 77.3362 73.0183 77.4562C73.1897 77.5744 73.4022 77.6336 73.6559 77.6336ZM76.4938 78.2402V74.2918H77.0799V74.8882H77.121C77.193 74.6928 77.3233 74.5343 77.5118 74.4126C77.7003 74.2909 77.9128 74.2301 78.1493 74.2301C78.1938 74.2301 78.2495 74.2309 78.3164 74.2326C78.3832 74.2344 78.4338 74.2369 78.468 74.2404V74.8573C78.4475 74.8522 78.4004 74.8445 78.3267 74.8342C78.2547 74.8222 78.1784 74.8162 78.0979 74.8162C77.9059 74.8162 77.7346 74.8565 77.5838 74.937C77.4347 75.0158 77.3164 75.1255 77.229 75.266C77.1433 75.4048 77.1005 75.5634 77.1005 75.7416V78.2402H76.4938ZM80.7225 78.3225C80.342 78.3225 80.0138 78.2385 79.7379 78.0706C79.4637 77.9009 79.2521 77.6644 79.103 77.3611C78.9556 77.056 78.8819 76.7013 78.8819 76.2969C78.8819 75.8924 78.9556 75.5359 79.103 75.2275C79.2521 74.9173 79.4594 74.6757 79.7251 74.5026C79.9924 74.3278 80.3043 74.2404 80.6608 74.2404C80.8664 74.2404 81.0695 74.2746 81.27 74.3432C81.4705 74.4117 81.653 74.5231 81.8175 74.6774C81.9821 74.8299 82.1132 75.0321 82.2109 75.284C82.3085 75.5359 82.3574 75.8461 82.3574 76.2146V76.4717H79.3138V75.9472H81.7404C81.7404 75.7245 81.6959 75.5257 81.6068 75.3509C81.5194 75.1761 81.3943 75.0381 81.2314 74.937C81.0704 74.8359 80.8801 74.7853 80.6608 74.7853C80.4191 74.7853 80.2101 74.8453 80.0335 74.9653C79.8587 75.0835 79.7242 75.2378 79.63 75.428C79.5357 75.6182 79.4886 75.8221 79.4886 76.0398V76.3894C79.4886 76.6876 79.54 76.9404 79.6428 77.1477C79.7473 77.3534 79.8922 77.5102 80.0772 77.6181C80.2623 77.7244 80.4774 77.7775 80.7225 77.7775C80.8818 77.7775 81.0258 77.7552 81.1543 77.7107C81.2846 77.6644 81.3968 77.5959 81.4911 77.505C81.5853 77.4125 81.6582 77.2977 81.7096 77.1606L82.2957 77.3251C82.234 77.5239 82.1303 77.6987 81.9846 77.8495C81.839 77.9986 81.659 78.1151 81.4448 78.1991C81.2306 78.2814 80.9898 78.3225 80.7225 78.3225ZM84.9357 78.3225C84.5553 78.3225 84.2271 78.2385 83.9512 78.0706C83.677 77.9009 83.4653 77.6644 83.3162 77.3611C83.1688 77.056 83.0951 76.7013 83.0951 76.2969C83.0951 75.8924 83.1688 75.5359 83.3162 75.2275C83.4653 74.9173 83.6727 74.6757 83.9383 74.5026C84.2056 74.3278 84.5175 74.2404 84.874 74.2404C85.0797 74.2404 85.2827 74.2746 85.4832 74.3432C85.6838 74.4117 85.8663 74.5231 86.0308 74.6774C86.1953 74.8299 86.3264 75.0321 86.4241 75.284C86.5218 75.5359 86.5706 75.8461 86.5706 76.2146V76.4717H83.527V75.9472H85.9537C85.9537 75.7245 85.9091 75.5257 85.82 75.3509C85.7326 75.1761 85.6075 75.0381 85.4447 74.937C85.2836 74.8359 85.0934 74.7853 84.874 74.7853C84.6324 74.7853 84.4233 74.8453 84.2468 74.9653C84.072 75.0835 83.9374 75.2378 83.8432 75.428C83.7489 75.6182 83.7018 75.8221 83.7018 76.0398V76.3894C83.7018 76.6876 83.7532 76.9404 83.856 77.1477C83.9606 77.3534 84.1054 77.5102 84.2905 77.6181C84.4756 77.7244 84.6906 77.7775 84.9357 77.7775C85.0951 77.7775 85.239 77.7552 85.3676 77.7107C85.4978 77.6644 85.6101 77.5959 85.7043 77.505C85.7986 77.4125 85.8714 77.2977 85.9228 77.1606L86.5089 77.3251C86.4472 77.5239 86.3435 77.6987 86.1979 77.8495C86.0522 77.9986 85.8723 78.1151 85.658 78.1991C85.4438 78.2814 85.203 78.3225 84.9357 78.3225Z" fill="#050505"/>
<rect x="13.3184" y="91.5811" width="172.181" height="23.4094" rx="6.20472" fill="#F0F0F0"/>
<g clip-path="url(#clip1_4255_28283)">
<path d="M26.762 107.594C29.1417 107.594 31.0708 105.665 31.0708 103.285C31.0708 100.906 29.1417 98.9766 26.762 98.9766C24.3823 98.9766 22.4531 100.906 22.4531 103.285C22.4531 105.665 24.3823 107.594 26.762 107.594Z" stroke="#050505" stroke-width="0.51706" strokeLInecap="round" strokeLinejoin="round"/>
<circle cx="26.5918" cy="103.115" r="6" fill="#050505"/>
</g>
<path d="M36.9218 105.786H36.2534L38.1865 100.522H38.8446L40.7777 105.786H40.1094L38.5361 101.354H38.495L36.9218 105.786ZM37.1686 103.73H39.8626V104.295H37.1686V103.73ZM43.1093 107.349C42.8162 107.349 42.5643 107.311 42.3535 107.236C42.1427 107.162 41.9671 107.065 41.8265 106.943C41.6877 106.823 41.5772 106.694 41.4949 106.557L41.9782 106.218C42.033 106.29 42.1024 106.372 42.1864 106.465C42.2704 106.559 42.3852 106.64 42.5309 106.709C42.6783 106.779 42.8711 106.814 43.1093 106.814C43.428 106.814 43.6911 106.737 43.8984 106.583C44.1058 106.429 44.2095 106.187 44.2095 105.858V105.056H44.1581C44.1135 105.128 44.0501 105.217 43.9679 105.323C43.8873 105.428 43.7708 105.521 43.6182 105.604C43.4674 105.684 43.2635 105.724 43.0064 105.724C42.6877 105.724 42.4015 105.649 42.1479 105.498C41.8959 105.347 41.6963 105.128 41.5489 104.84C41.4032 104.552 41.3304 104.203 41.3304 103.791C41.3304 103.387 41.4015 103.035 41.5438 102.735C41.686 102.433 41.8839 102.2 42.1376 102.036C42.3912 101.869 42.6843 101.786 43.0167 101.786C43.2738 101.786 43.4777 101.829 43.6285 101.915C43.7811 101.999 43.8976 102.095 43.9781 102.203C44.0604 102.309 44.1238 102.396 44.1684 102.465H44.2301V101.838H44.8162V105.899C44.8162 106.239 44.739 106.514 44.5848 106.727C44.4323 106.941 44.2266 107.098 43.9679 107.197C43.7108 107.299 43.4246 107.349 43.1093 107.349ZM43.0887 105.179C43.3321 105.179 43.5377 105.124 43.7056 105.012C43.8736 104.901 44.0013 104.741 44.0887 104.532C44.1761 104.323 44.2198 104.072 44.2198 103.781C44.2198 103.497 44.1769 103.246 44.0912 103.028C44.0056 102.81 43.8787 102.64 43.7108 102.516C43.5428 102.393 43.3355 102.331 43.0887 102.331C42.8316 102.331 42.6174 102.396 42.446 102.527C42.2764 102.657 42.1487 102.832 42.063 103.051C41.9791 103.27 41.9371 103.514 41.9371 103.781C41.9371 104.055 41.9799 104.298 42.0656 104.509C42.153 104.718 42.2815 104.882 42.4512 105.002C42.6226 105.12 42.8351 105.179 43.0887 105.179ZM45.9267 105.786V101.838H46.5128V102.434H46.5539C46.6259 102.239 46.7561 102.08 46.9446 101.958C47.1331 101.837 47.3456 101.776 47.5821 101.776C47.6267 101.776 47.6824 101.777 47.7492 101.779C47.8161 101.78 47.8666 101.783 47.9009 101.786V102.403C47.8803 102.398 47.8332 102.39 47.7595 102.38C47.6875 102.368 47.6113 102.362 47.5307 102.362C47.3388 102.362 47.1674 102.402 47.0166 102.483C46.8675 102.562 46.7493 102.671 46.6619 102.812C46.5762 102.951 46.5333 103.109 46.5333 103.287V105.786H45.9267ZM50.1553 105.868C49.7749 105.868 49.4467 105.784 49.1708 105.616C48.8966 105.447 48.6849 105.21 48.5358 104.907C48.3884 104.602 48.3148 104.247 48.3148 103.843C48.3148 103.438 48.3884 103.082 48.5358 102.773C48.6849 102.463 48.8923 102.222 49.1579 102.048C49.4253 101.874 49.7372 101.786 50.0936 101.786C50.2993 101.786 50.5023 101.821 50.7029 101.889C50.9034 101.958 51.0859 102.069 51.2504 102.223C51.4149 102.376 51.546 102.578 51.6437 102.83C51.7414 103.082 51.7902 103.392 51.7902 103.76V104.018H48.7466V103.493H51.1733C51.1733 103.27 51.1287 103.072 51.0396 102.897C50.9522 102.722 50.8271 102.584 50.6643 102.483C50.5032 102.382 50.313 102.331 50.0936 102.331C49.852 102.331 49.6429 102.391 49.4664 102.511C49.2916 102.629 49.1571 102.784 49.0628 102.974C48.9686 103.164 48.9214 103.368 48.9214 103.586V103.935C48.9214 104.233 48.9728 104.486 49.0757 104.694C49.1802 104.899 49.325 105.056 49.5101 105.164C49.6952 105.27 49.9103 105.323 50.1553 105.323C50.3147 105.323 50.4586 105.301 50.5872 105.257C50.7174 105.21 50.8297 105.142 50.9239 105.051C51.0182 104.958 51.091 104.844 51.1424 104.706L51.7285 104.871C51.6668 105.07 51.5632 105.245 51.4175 105.395C51.2718 105.544 51.0919 105.661 50.8777 105.745C50.6634 105.827 50.4227 105.868 50.1553 105.868ZM54.3686 105.868C53.9881 105.868 53.6599 105.784 53.384 105.616C53.1098 105.447 52.8982 105.21 52.7491 104.907C52.6017 104.602 52.528 104.247 52.528 103.843C52.528 103.438 52.6017 103.082 52.7491 102.773C52.8982 102.463 53.1055 102.222 53.3712 102.048C53.6385 101.874 53.9504 101.786 54.3069 101.786C54.5125 101.786 54.7156 101.821 54.9161 101.889C55.1166 101.958 55.2991 102.069 55.4636 102.223C55.6282 102.376 55.7593 102.578 55.8569 102.83C55.9546 103.082 56.0035 103.392 56.0035 103.76V104.018H52.9599V103.493H55.3865C55.3865 103.27 55.342 103.072 55.2528 102.897C55.1654 102.722 55.0403 102.584 54.8775 102.483C54.7164 102.382 54.5262 102.331 54.3069 102.331C54.0652 102.331 53.8561 102.391 53.6796 102.511C53.5048 102.629 53.3703 102.784 53.276 102.974C53.1818 103.164 53.1347 103.368 53.1347 103.586V103.935C53.1347 104.233 53.1861 104.486 53.2889 104.694C53.3934 104.899 53.5382 105.056 53.7233 105.164C53.9084 105.27 54.1235 105.323 54.3686 105.323C54.5279 105.323 54.6719 105.301 54.8004 105.257C54.9307 105.21 55.0429 105.142 55.1372 105.051C55.2314 104.958 55.3043 104.844 55.3557 104.706L55.9418 104.871C55.8801 105.07 55.7764 105.245 55.6307 105.395C55.4851 105.544 55.3051 105.661 55.0909 105.745C54.8767 105.827 54.6359 105.868 54.3686 105.868Z" fill="#050505"/>
<rect x="13.3184" y="119.127" width="172.181" height="23.4094" rx="6.20472" fill="#F0F0F0"/>
<g clip-path="url(#clip2_4255_28283)">
<path d="M26.762 135.14C29.1417 135.14 31.0708 133.211 31.0708 130.831C31.0708 128.452 29.1417 126.522 26.762 126.522C24.3823 126.522 22.4531 128.452 22.4531 130.831C22.4531 133.211 24.3823 135.14 26.762 135.14Z" stroke="#050505" stroke-width="0.51706" strokeLInecap="round" strokeLinejoin="round"/>
</g>
<path d="M40.8805 128.067V133.332H40.2636L37.3948 129.198H37.3434V133.332H36.7059V128.067H37.3228L40.2019 132.211H40.2533V128.067H40.8805ZM43.7294 133.414C43.349 133.414 43.0208 133.33 42.7449 133.162C42.4707 132.993 42.259 132.756 42.1099 132.453C41.9626 132.148 41.8889 131.793 41.8889 131.389C41.8889 130.984 41.9626 130.628 42.1099 130.319C42.259 130.009 42.4664 129.767 42.732 129.594C42.9994 129.42 43.3113 129.332 43.6677 129.332C43.8734 129.332 44.0765 129.366 44.277 129.435C44.4775 129.504 44.66 129.615 44.8245 129.769C44.989 129.922 45.1201 130.124 45.2178 130.376C45.3155 130.628 45.3643 130.938 45.3643 131.306V131.563H42.3207V131.039H44.7474C44.7474 130.816 44.7028 130.617 44.6137 130.443C44.5263 130.268 44.4012 130.13 44.2384 130.029C44.0773 129.928 43.8871 129.877 43.6677 129.877C43.4261 129.877 43.217 129.937 43.0405 130.057C42.8657 130.175 42.7312 130.33 42.6369 130.52C42.5427 130.71 42.4955 130.914 42.4955 131.132V131.481C42.4955 131.779 42.5469 132.032 42.6498 132.24C42.7543 132.445 42.8991 132.602 43.0842 132.71C43.2693 132.816 43.4844 132.869 43.7294 132.869C43.8888 132.869 44.0328 132.847 44.1613 132.802C44.2915 132.756 44.4038 132.688 44.498 132.597C44.5923 132.504 44.6651 132.389 44.7165 132.252L45.3026 132.417C45.2409 132.616 45.1373 132.79 44.9916 132.941C44.8459 133.09 44.666 133.207 44.4518 133.291C44.2376 133.373 43.9968 133.414 43.7294 133.414ZM48.7755 131.718V129.384H49.3822V133.332H48.7755V132.664H48.7344C48.6419 132.864 48.4979 133.035 48.3025 133.175C48.1072 133.314 47.8604 133.383 47.5622 133.383C47.3154 133.383 47.0961 133.329 46.9041 133.221C46.7122 133.112 46.5614 132.947 46.4517 132.728C46.342 132.507 46.2872 132.228 46.2872 131.892V129.384H46.8939V131.851C46.8939 132.139 46.9744 132.369 47.1355 132.54C47.2983 132.712 47.5057 132.797 47.7576 132.797C47.9084 132.797 48.0618 132.759 48.2177 132.682C48.3754 132.605 48.5073 132.486 48.6136 132.327C48.7216 132.168 48.7755 131.964 48.7755 131.718ZM52.2105 129.384V129.898H50.1643V129.384H52.2105ZM50.7607 128.438H51.3674V132.201C51.3674 132.372 51.3922 132.501 51.4419 132.587C51.4933 132.671 51.5584 132.727 51.6373 132.756C51.7178 132.784 51.8026 132.797 51.8918 132.797C51.9586 132.797 52.0134 132.794 52.0563 132.787C52.0991 132.778 52.1334 132.772 52.1591 132.766L52.2825 133.311C52.2414 133.327 52.184 133.342 52.1103 133.358C52.0366 133.375 51.9432 133.383 51.8301 133.383C51.6587 133.383 51.4907 133.347 51.3262 133.273C51.1634 133.199 51.028 133.087 50.9201 132.936C50.8138 132.785 50.7607 132.595 50.7607 132.365V128.438ZM53.1231 133.332V129.384H53.7092V129.98H53.7503C53.8223 129.785 53.9525 129.626 54.1411 129.504C54.3296 129.383 54.5421 129.322 54.7786 129.322C54.8231 129.322 54.8788 129.323 54.9457 129.324C55.0125 129.326 55.063 129.329 55.0973 129.332V129.949C55.0768 129.944 55.0296 129.936 54.9559 129.926C54.884 129.914 54.8077 129.908 54.7272 129.908C54.5352 129.908 54.3638 129.948 54.213 130.029C54.0639 130.108 53.9457 130.217 53.8583 130.358C53.7726 130.497 53.7298 130.655 53.7298 130.833V133.332H53.1231ZM56.9784 133.425C56.7282 133.425 56.5011 133.377 56.2972 133.283C56.0932 133.187 55.9313 133.049 55.8113 132.869C55.6913 132.688 55.6314 132.468 55.6314 132.211C55.6314 131.985 55.6759 131.802 55.765 131.661C55.8542 131.519 55.9733 131.407 56.1224 131.327C56.2714 131.246 56.436 131.186 56.6159 131.147C56.7976 131.106 56.9801 131.073 57.1634 131.049C57.4034 131.018 57.5979 130.995 57.747 130.98C57.8978 130.963 58.0075 130.935 58.076 130.895C58.1463 130.856 58.1814 130.787 58.1814 130.689V130.669C58.1814 130.415 58.112 130.218 57.9732 130.078C57.8361 129.937 57.6279 129.867 57.3485 129.867C57.0589 129.867 56.8318 129.93 56.6673 130.057C56.5028 130.184 56.3871 130.319 56.3203 130.463L55.7445 130.258C55.8473 130.018 55.9844 129.831 56.1558 129.697C56.3289 129.562 56.5174 129.468 56.7213 129.414C56.927 129.36 57.1292 129.332 57.328 129.332C57.4548 129.332 57.6005 129.348 57.765 129.378C57.9312 129.408 58.0914 129.468 58.2457 129.561C58.4016 129.653 58.531 129.793 58.6338 129.98C58.7367 130.167 58.7881 130.417 58.7881 130.731V133.332H58.1814V132.797H58.1506C58.1094 132.883 58.0409 132.975 57.9449 133.072C57.8489 133.17 57.7213 133.253 57.5619 133.322C57.4025 133.39 57.208 133.425 56.9784 133.425ZM57.0709 132.88C57.3108 132.88 57.5131 132.832 57.6776 132.738C57.8438 132.644 57.9689 132.522 58.0529 132.373C58.1386 132.224 58.1814 132.067 58.1814 131.903V131.348C58.1557 131.378 58.0992 131.407 58.0118 131.432C57.9261 131.456 57.8267 131.478 57.7136 131.497C57.6022 131.514 57.4933 131.529 57.3871 131.543C57.2826 131.555 57.1977 131.565 57.1326 131.574C56.9749 131.594 56.8276 131.628 56.6905 131.674C56.5551 131.719 56.4454 131.786 56.3614 131.877C56.2792 131.966 56.238 132.088 56.238 132.242C56.238 132.453 56.316 132.612 56.472 132.72C56.6296 132.826 56.8293 132.88 57.0709 132.88ZM60.502 128.067V133.332H59.8954V128.067H60.502Z" fill="#050505"/>
<rect x="13.3184" y="146.673" width="172.181" height="23.4094" rx="6.20472" fill="#F0F0F0"/>
<g clip-path="url(#clip3_4255_28283)">
<path d="M26.762 162.686C29.1417 162.686 31.0708 160.757 31.0708 158.377C31.0708 155.997 29.1417 154.068 26.762 154.068C24.3823 154.068 22.4531 155.997 22.4531 158.377C22.4531 160.757 24.3823 162.686 26.762 162.686Z" stroke="#050505" stroke-width="0.51706" strokeLInecap="round" strokeLinejoin="round"/>
</g>
<path d="M38.3305 160.878H36.7059V155.613H38.4025C38.9132 155.613 39.3502 155.719 39.7135 155.93C40.0768 156.139 40.3553 156.439 40.5489 156.832C40.7426 157.223 40.8394 157.69 40.8394 158.235C40.8394 158.784 40.7417 159.256 40.5464 159.652C40.351 160.046 40.0665 160.349 39.6929 160.562C39.3193 160.773 38.8652 160.878 38.3305 160.878ZM37.3434 160.312H38.2894C38.7247 160.312 39.0854 160.228 39.3716 160.06C39.6578 159.893 39.8712 159.653 40.0117 159.343C40.1522 159.033 40.2225 158.664 40.2225 158.235C40.2225 157.81 40.1531 157.444 40.0142 157.138C39.8754 156.829 39.6681 156.593 39.3922 156.428C39.1162 156.262 38.7726 156.179 38.3613 156.179H37.3434V160.312ZM41.8265 160.878V156.929H42.4332V160.878H41.8265ZM42.135 156.271C42.0168 156.271 41.9148 156.231 41.8291 156.151C41.7451 156.07 41.7031 155.973 41.7031 155.86C41.7031 155.747 41.7451 155.65 41.8291 155.57C41.9148 155.489 42.0168 155.449 42.135 155.449C42.2533 155.449 42.3544 155.489 42.4383 155.57C42.524 155.65 42.5669 155.747 42.5669 155.86C42.5669 155.973 42.524 156.07 42.4383 156.151C42.3544 156.231 42.2533 156.271 42.135 156.271ZM46.3412 157.814L45.7962 157.968C45.7619 157.877 45.7114 157.789 45.6445 157.703C45.5794 157.616 45.4903 157.544 45.3772 157.487C45.2641 157.431 45.1193 157.402 44.9428 157.402C44.7011 157.402 44.4998 157.458 44.3387 157.57C44.1793 157.679 44.0996 157.819 44.0996 157.989C44.0996 158.139 44.1544 158.258 44.2641 158.346C44.3738 158.433 44.5452 158.506 44.7782 158.564L45.3643 158.708C45.7174 158.794 45.9804 158.925 46.1535 159.102C46.3266 159.276 46.4131 159.502 46.4131 159.778C46.4131 160.004 46.348 160.206 46.2178 160.384C46.0892 160.563 45.9093 160.703 45.678 160.806C45.4466 160.909 45.1775 160.96 44.8708 160.96C44.4681 160.96 44.1347 160.873 43.8708 160.698C43.6069 160.523 43.4398 160.268 43.3695 159.932L43.9454 159.788C44.0002 160 44.1039 160.16 44.2564 160.266C44.4106 160.372 44.612 160.426 44.8605 160.426C45.1433 160.426 45.3678 160.366 45.534 160.246C45.7019 160.124 45.7859 159.978 45.7859 159.809C45.7859 159.671 45.7379 159.557 45.642 159.464C45.546 159.37 45.3986 159.3 45.1998 159.253L44.5417 159.099C44.1801 159.013 43.9145 158.881 43.7449 158.701C43.5769 158.519 43.4929 158.292 43.4929 158.019C43.4929 157.797 43.5555 157.6 43.6806 157.428C43.8074 157.257 43.9796 157.122 44.1973 157.025C44.4166 156.927 44.6651 156.878 44.9428 156.878C45.3335 156.878 45.6402 156.964 45.863 157.135C46.0875 157.306 46.2469 157.533 46.3412 157.814ZM48.4883 160.97C48.2381 160.97 48.011 160.923 47.8071 160.829C47.6031 160.733 47.4412 160.595 47.3212 160.415C47.2013 160.234 47.1413 160.014 47.1413 159.757C47.1413 159.531 47.1858 159.348 47.2749 159.207C47.3641 159.065 47.4832 158.953 47.6323 158.873C47.7814 158.792 47.9459 158.732 48.1258 158.693C48.3075 158.652 48.49 158.619 48.6734 158.595C48.9133 158.564 49.1078 158.541 49.2569 158.526C49.4077 158.509 49.5174 158.48 49.5859 158.441C49.6562 158.402 49.6913 158.333 49.6913 158.235V158.215C49.6913 157.961 49.6219 157.764 49.4831 157.624C49.346 157.483 49.1378 157.413 48.8584 157.413C48.5688 157.413 48.3417 157.476 48.1772 157.603C48.0127 157.73 47.897 157.865 47.8302 158.009L47.2544 157.803C47.3572 157.564 47.4943 157.377 47.6657 157.243C47.8388 157.108 48.0273 157.013 48.2312 156.96C48.4369 156.905 48.6391 156.878 48.8379 156.878C48.9647 156.878 49.1104 156.893 49.2749 156.924C49.4411 156.953 49.6013 157.014 49.7556 157.107C49.9115 157.199 50.0409 157.339 50.1437 157.526C50.2466 157.713 50.298 157.963 50.298 158.276V160.878H49.6913V160.343H49.6605C49.6193 160.429 49.5508 160.521 49.4548 160.618C49.3589 160.716 49.2312 160.799 49.0718 160.868C48.9124 160.936 48.7179 160.97 48.4883 160.97ZM48.5808 160.426C48.8207 160.426 49.023 160.378 49.1875 160.284C49.3537 160.19 49.4788 160.068 49.5628 159.919C49.6485 159.77 49.6913 159.613 49.6913 159.449V158.893C49.6656 158.924 49.6091 158.953 49.5217 158.978C49.436 159.002 49.3366 159.024 49.2235 159.043C49.1121 159.06 49.0033 159.075 48.897 159.089C48.7925 159.101 48.7076 159.111 48.6425 159.12C48.4848 159.14 48.3375 159.174 48.2004 159.22C48.065 159.264 47.9553 159.332 47.8713 159.423C47.7891 159.512 47.7479 159.634 47.7479 159.788C47.7479 159.999 47.8259 160.158 47.9819 160.266C48.1395 160.372 48.3392 160.426 48.5808 160.426ZM52.9991 162.441C52.706 162.441 52.4541 162.403 52.2433 162.328C52.0325 162.254 51.8568 162.156 51.7163 162.035C51.5775 161.915 51.467 161.786 51.3847 161.649L51.868 161.31C51.9228 161.382 51.9922 161.464 52.0762 161.557C52.1602 161.651 52.275 161.732 52.4207 161.801C52.5681 161.871 52.7608 161.906 52.9991 161.906C53.3178 161.906 53.5809 161.829 53.7882 161.675C53.9956 161.521 54.0993 161.279 54.0993 160.95V160.148H54.0479C54.0033 160.22 53.9399 160.309 53.8576 160.415C53.7771 160.52 53.6606 160.613 53.508 160.695C53.3572 160.776 53.1533 160.816 52.8962 160.816C52.5775 160.816 52.2913 160.741 52.0376 160.59C51.7857 160.439 51.5861 160.22 51.4387 159.932C51.293 159.644 51.2202 159.294 51.2202 158.883C51.2202 158.479 51.2913 158.127 51.4336 157.827C51.5758 157.525 51.7737 157.292 52.0274 157.127C52.281 156.961 52.574 156.878 52.9065 156.878C53.1636 156.878 53.3675 156.921 53.5183 157.007C53.6708 157.091 53.7874 157.187 53.8679 157.294C53.9502 157.401 54.0136 157.488 54.0581 157.557H54.1198V156.929H54.7059V160.991C54.7059 161.33 54.6288 161.606 54.4746 161.819C54.3221 162.033 54.1164 162.19 53.8576 162.289C53.6006 162.39 53.3144 162.441 52.9991 162.441ZM52.9785 160.271C53.2218 160.271 53.4275 160.216 53.5954 160.104C53.7634 159.993 53.8911 159.833 53.9785 159.623C54.0659 159.414 54.1096 159.164 54.1096 158.873C54.1096 158.588 54.0667 158.337 53.981 158.12C53.8953 157.902 53.7685 157.731 53.6006 157.608C53.4326 157.485 53.2253 157.423 52.9785 157.423C52.7214 157.423 52.5072 157.488 52.3358 157.618C52.1662 157.749 52.0385 157.923 51.9528 158.143C51.8688 158.362 51.8269 158.606 51.8269 158.873C51.8269 159.147 51.8697 159.39 51.9554 159.6C52.0428 159.809 52.1713 159.974 52.341 160.094C52.5124 160.212 52.7249 160.271 52.9785 160.271ZM55.8164 160.878V156.929H56.4025V157.526H56.4437C56.5157 157.33 56.6459 157.172 56.8344 157.05C57.0229 156.929 57.2354 156.868 57.4719 156.868C57.5165 156.868 57.5722 156.869 57.639 156.87C57.7058 156.872 57.7564 156.875 57.7907 156.878V157.495C57.7701 157.49 57.723 157.482 57.6493 157.472C57.5773 157.46 57.5011 157.454 57.4205 157.454C57.2286 157.454 57.0572 157.494 56.9064 157.575C56.7573 157.654 56.639 157.763 56.5516 157.904C56.466 158.043 56.4231 158.201 56.4231 158.379V160.878H55.8164ZM60.0451 160.96C59.6647 160.96 59.3365 160.876 59.0606 160.708C58.7864 160.539 58.5747 160.302 58.4256 159.999C58.2782 159.694 58.2045 159.339 58.2045 158.935C58.2045 158.53 58.2782 158.174 58.4256 157.865C58.5747 157.555 58.7821 157.313 59.0477 157.14C59.3151 156.965 59.627 156.878 59.9834 156.878C60.1891 156.878 60.3921 156.912 60.5926 156.981C60.7932 157.049 60.9757 157.161 61.1402 157.315C61.3047 157.468 61.4358 157.67 61.5335 157.922C61.6312 158.174 61.68 158.484 61.68 158.852V159.109H58.6364V158.585H61.0631C61.0631 158.362 61.0185 158.163 60.9294 157.989C60.842 157.814 60.7169 157.676 60.5541 157.575C60.393 157.474 60.2028 157.423 59.9834 157.423C59.7418 157.423 59.5327 157.483 59.3562 157.603C59.1814 157.721 59.0468 157.875 58.9526 158.066C58.8583 158.256 58.8112 158.46 58.8112 158.677V159.027C58.8112 159.325 58.8626 159.578 58.9654 159.785C59.07 159.991 59.2148 160.148 59.3999 160.256C59.585 160.362 59.8 160.415 60.0451 160.415C60.2045 160.415 60.3484 160.393 60.477 160.348C60.6072 160.302 60.7195 160.234 60.8137 160.143C60.908 160.05 60.9808 159.935 61.0322 159.798L61.6183 159.963C61.5566 160.162 61.4529 160.336 61.3073 160.487C61.1616 160.636 60.9817 160.753 60.7674 160.837C60.5532 160.919 60.3124 160.96 60.0451 160.96ZM64.2583 160.96C63.8779 160.96 63.5497 160.876 63.2738 160.708C62.9996 160.539 62.7879 160.302 62.6389 159.999C62.4915 159.694 62.4178 159.339 62.4178 158.935C62.4178 158.53 62.4915 158.174 62.6389 157.865C62.7879 157.555 62.9953 157.313 63.2609 157.14C63.5283 156.965 63.8402 156.878 64.1966 156.878C64.4023 156.878 64.6054 156.912 64.8059 156.981C65.0064 157.049 65.1889 157.161 65.3534 157.315C65.5179 157.468 65.649 157.67 65.7467 157.922C65.8444 158.174 65.8932 158.484 65.8932 158.852V159.109H62.8496V158.585H65.2763C65.2763 158.362 65.2317 158.163 65.1426 157.989C65.0552 157.814 64.9301 157.676 64.7673 157.575C64.6062 157.474 64.416 157.423 64.1966 157.423C63.955 157.423 63.7459 157.483 63.5694 157.603C63.3946 157.721 63.2601 157.875 63.1658 158.066C63.0716 158.256 63.0244 158.46 63.0244 158.677V159.027C63.0244 159.325 63.0759 159.578 63.1787 159.785C63.2832 159.991 63.428 160.148 63.6131 160.256C63.7982 160.362 64.0133 160.415 64.2583 160.415C64.4177 160.415 64.5617 160.393 64.6902 160.348C64.8204 160.302 64.9327 160.234 65.027 160.143C65.1212 160.05 65.194 159.935 65.2455 159.798L65.8316 159.963C65.7699 160.162 65.6662 160.336 65.5205 160.487C65.3748 160.636 65.1949 160.753 64.9807 160.837C64.7665 160.919 64.5257 160.96 64.2583 160.96Z" fill="#050505"/>
</g>
<defs>
<clipPath id="clip0_4255_28283">
<rect width="10.3412" height="10.3412" fill="white" transform="translate(21.5918 70.5693)"/>
</clipPath>
<clipPath id="clip1_4255_28283">
<rect width="10.3412" height="10.3412" fill="white" transform="translate(21.5918 98.1152)"/>
</clipPath>
<clipPath id="clip2_4255_28283">
<rect width="10.3412" height="10.3412" fill="white" transform="translate(21.5918 125.661)"/>
</clipPath>
<clipPath id="clip3_4255_28283">
<rect width="10.3412" height="10.3412" fill="white" transform="translate(21.5918 153.207)"/>
</clipPath>
</defs>
</svg>
