<svg width="231" height="174" viewBox="0 0 231 174" fill="none" xmlns="http://www.w3.org/2000/svg">
<g opacity="0.7">
<rect x="0.908203" y="0.90918" width="229.275" height="179.039" rx="9.40526" fill="white"/>
<path d="M211.351 18.5439L204.297 25.5979" stroke="black" stroke-width="1.17566" strokeLInecap="round" strokeLInejoin="round"/>
<path d="M204.297 18.5439L211.351 25.5979" stroke="black" stroke-width="1.17566" strokeLInecap="round" strokeLInejoin="round"/>
<path d="M56.8214 45.2998V35.0395H58.68V39.3831H63.4344V35.0395H65.2981V45.2998H63.4344V40.9412H58.68V45.2998H56.8214ZM70.5961 45.4501C69.8446 45.4501 69.1933 45.2848 68.6422 44.9541C68.0911 44.6235 67.6636 44.1609 67.3597 43.5664C67.0591 42.9719 66.9088 42.2772 66.9088 41.4823C66.9088 40.6874 67.0591 39.991 67.3597 39.3931C67.6636 38.7953 68.0911 38.331 68.6422 38.0004C69.1933 37.6697 69.8446 37.5044 70.5961 37.5044C71.3476 37.5044 71.9989 37.6697 72.55 38.0004C73.101 38.331 73.5269 38.7953 73.8275 39.3931C74.1314 39.991 74.2834 40.6874 74.2834 41.4823C74.2834 42.2772 74.1314 42.9719 73.8275 43.5664C73.5269 44.1609 73.101 44.6235 72.55 44.9541C71.9989 45.2848 71.3476 45.4501 70.5961 45.4501ZM70.6061 43.9972C71.0136 43.9972 71.3543 43.8853 71.6281 43.6616C71.902 43.4345 72.1057 43.1305 72.2393 42.7498C72.3763 42.369 72.4447 41.9448 72.4447 41.4772C72.4447 41.0063 72.3763 40.5805 72.2393 40.1997C72.1057 39.8156 71.902 39.51 71.6281 39.2829C71.3543 39.0558 71.0136 38.9422 70.6061 38.9422C70.1886 38.9422 69.8413 39.0558 69.564 39.2829C69.2902 39.51 69.0848 39.8156 68.9478 40.1997C68.8142 40.5805 68.7474 41.0063 68.7474 41.4772C68.7474 41.9448 68.8142 42.369 68.9478 42.7498C69.0848 43.1305 69.2902 43.4345 69.564 43.6616C69.8413 43.8853 70.1886 43.9972 70.6061 43.9972ZM77.1904 45.2998L75.0161 37.6046H76.8647L78.2174 43.0153H78.2875L79.6703 37.6046H81.4989L82.8816 42.9852H82.9568L84.2894 37.6046H86.1431L83.9638 45.2998H82.075L80.6322 40.0995H80.527L79.0841 45.2998H77.1904ZM96.9908 39.6386L95.3375 39.819C95.2907 39.652 95.2089 39.495 95.092 39.348C94.9785 39.2011 94.8248 39.0825 94.6311 38.9923C94.4374 38.9022 94.2002 38.8571 93.9197 38.8571C93.5423 38.8571 93.225 38.9389 92.9678 39.1026C92.714 39.2662 92.5887 39.4783 92.5921 39.7388C92.5887 39.9626 92.6706 40.1446 92.8376 40.2849C93.0079 40.4252 93.2884 40.5404 93.6792 40.6306L94.9918 40.9111C95.7199 41.0681 96.261 41.3169 96.615 41.6576C96.9724 41.9983 97.1527 42.4442 97.1561 42.9952C97.1527 43.4795 97.0108 43.9071 96.7302 44.2778C96.453 44.6452 96.0673 44.9324 95.573 45.1395C95.0786 45.3466 94.5109 45.4501 93.8696 45.4501C92.9277 45.4501 92.1696 45.253 91.5951 44.8589C91.0206 44.4615 90.6783 43.9087 90.5681 43.2007L92.3366 43.0303C92.4167 43.3777 92.5871 43.6399 92.8476 43.8169C93.1081 43.9939 93.4471 44.0824 93.8646 44.0824C94.2954 44.0824 94.6411 43.9939 94.9016 43.8169C95.1655 43.6399 95.2974 43.4211 95.2974 43.1606C95.2974 42.9401 95.2122 42.7581 95.0419 42.6145C94.8749 42.4709 94.6144 42.3607 94.2604 42.2838L92.9478 42.0083C92.2096 41.8547 91.6636 41.5958 91.3095 41.2318C90.9555 40.8644 90.7802 40.4001 90.7835 39.839C90.7802 39.3647 90.9087 38.9539 91.1693 38.6066C91.4331 38.2559 91.7988 37.9853 92.2664 37.795C92.7374 37.6013 93.2801 37.5044 93.8946 37.5044C94.7964 37.5044 95.5062 37.6964 96.0239 38.0805C96.5449 38.4646 96.8672 38.984 96.9908 39.6386ZM100.866 45.4551C100.378 45.4551 99.9391 45.3683 99.5483 45.1946C99.1609 45.0176 98.8536 44.7571 98.6265 44.4131C98.4027 44.069 98.2908 43.6449 98.2908 43.1405C98.2908 42.7063 98.371 42.3473 98.5313 42.0634C98.6916 41.7795 98.9104 41.5524 99.1876 41.3821C99.4648 41.2117 99.7771 41.0831 100.124 40.9963C100.475 40.9061 100.838 40.841 101.212 40.8009C101.662 40.7542 102.028 40.7124 102.309 40.6757C102.589 40.6356 102.793 40.5755 102.92 40.4953C103.05 40.4118 103.115 40.2832 103.115 40.1095V40.0795C103.115 39.7021 103.003 39.4098 102.78 39.2028C102.556 38.9957 102.234 38.8921 101.813 38.8921C101.369 38.8921 101.016 38.989 100.756 39.1827C100.499 39.3764 100.325 39.6052 100.235 39.8691L98.5413 39.6286C98.6749 39.161 98.8954 38.7702 99.2026 38.4563C99.5099 38.139 99.8856 37.9018 100.33 37.7449C100.774 37.5846 101.265 37.5044 101.803 37.5044C102.174 37.5044 102.543 37.5478 102.91 37.6347C103.277 37.7215 103.613 37.8651 103.917 38.0655C104.221 38.2626 104.465 38.5314 104.648 38.8721C104.835 39.2128 104.929 39.6386 104.929 40.1496V45.2998H103.186V44.2427H103.125C103.015 44.4565 102.86 44.6569 102.659 44.8439C102.462 45.0276 102.214 45.1762 101.913 45.2898C101.616 45.4 101.267 45.4551 100.866 45.4551ZM101.337 44.1225C101.701 44.1225 102.017 44.0507 102.284 43.9071C102.551 43.7601 102.756 43.5664 102.9 43.3259C103.047 43.0854 103.12 42.8232 103.12 42.5393V41.6326C103.064 41.6793 102.967 41.7227 102.83 41.7628C102.696 41.8029 102.546 41.838 102.379 41.868C102.212 41.8981 102.047 41.9248 101.883 41.9482C101.719 41.9716 101.577 41.9916 101.457 42.0083C101.187 42.045 100.944 42.1052 100.731 42.1887C100.517 42.2722 100.348 42.3891 100.225 42.5393C100.101 42.6863 100.039 42.8767 100.039 43.1105C100.039 43.4445 100.161 43.6966 100.405 43.867C100.649 44.0373 100.959 44.1225 101.337 44.1225ZM110.595 37.6046V39.0074H106.171V37.6046H110.595ZM107.264 35.761H109.077V42.9852C109.077 43.229 109.114 43.4161 109.187 43.5463C109.264 43.6733 109.364 43.7601 109.488 43.8069C109.612 43.8536 109.748 43.877 109.899 43.877C110.012 43.877 110.116 43.8686 110.209 43.8519C110.306 43.8352 110.38 43.8202 110.43 43.8069L110.735 45.2247C110.639 45.2581 110.5 45.2948 110.32 45.3349C110.143 45.375 109.925 45.3983 109.668 45.405C109.214 45.4184 108.805 45.3499 108.441 45.1996C108.077 45.046 107.788 44.8088 107.574 44.4882C107.364 44.1676 107.26 43.7668 107.264 43.2858V35.761ZM112.112 45.2998V37.6046H113.925V45.2998H112.112ZM113.024 36.5124C112.736 36.5124 112.489 36.4172 112.282 36.2269C112.075 36.0332 111.972 35.801 111.972 35.5305C111.972 35.2566 112.075 35.0245 112.282 34.8341C112.489 34.6404 112.736 34.5435 113.024 34.5435C113.314 34.5435 113.561 34.6404 113.765 34.8341C113.972 35.0245 114.076 35.2566 114.076 35.5305C114.076 35.801 113.972 36.0332 113.765 36.2269C113.561 36.4172 113.314 36.5124 113.024 36.5124ZM121.872 39.6386L120.219 39.819C120.172 39.652 120.091 39.495 119.974 39.348C119.86 39.2011 119.706 39.0825 119.513 38.9923C119.319 38.9022 119.082 38.8571 118.801 38.8571C118.424 38.8571 118.107 38.9389 117.849 39.1026C117.596 39.2662 117.47 39.4783 117.474 39.7388C117.47 39.9626 117.552 40.1446 117.719 40.2849C117.89 40.4252 118.17 40.5404 118.561 40.6306L119.873 40.9111C120.602 41.0681 121.143 41.3169 121.497 41.6576C121.854 41.9983 122.034 42.4442 122.038 42.9952C122.034 43.4795 121.892 43.9071 121.612 44.2778C121.335 44.6452 120.949 44.9324 120.455 45.1395C119.96 45.3466 119.393 45.4501 118.751 45.4501C117.809 45.4501 117.051 45.253 116.477 44.8589C115.902 44.4615 115.56 43.9087 115.45 43.2007L117.218 43.0303C117.298 43.3777 117.469 43.6399 117.729 43.8169C117.99 43.9939 118.329 44.0824 118.746 44.0824C119.177 44.0824 119.523 43.9939 119.783 43.8169C120.047 43.6399 120.179 43.4211 120.179 43.1606C120.179 42.9401 120.094 42.7581 119.924 42.6145C119.757 42.4709 119.496 42.3607 119.142 42.2838L117.829 42.0083C117.091 41.8547 116.545 41.5958 116.191 41.2318C115.837 40.8644 115.662 40.4001 115.665 39.839C115.662 39.3647 115.79 38.9539 116.051 38.6066C116.315 38.2559 116.681 37.9853 117.148 37.795C117.619 37.6013 118.162 37.5044 118.776 37.5044C119.678 37.5044 120.388 37.6964 120.906 38.0805C121.427 38.4646 121.749 38.984 121.872 39.6386ZM127.431 37.6046V39.0074H122.882V37.6046H127.431ZM124.019 45.2998V36.8782C124.019 36.3605 124.126 35.9296 124.34 35.5856C124.557 35.2416 124.847 34.9844 125.212 34.8141C125.576 34.6437 125.98 34.5586 126.424 34.5586C126.738 34.5586 127.017 34.5836 127.261 34.6337C127.504 34.6838 127.685 34.7289 127.802 34.769L127.441 36.1718C127.364 36.1484 127.267 36.125 127.15 36.1016C127.033 36.0749 126.903 36.0615 126.76 36.0615C126.422 36.0615 126.183 36.1434 126.043 36.307C125.906 36.4673 125.838 36.6978 125.838 36.9984V45.2998H124.019ZM128.851 45.2998V37.6046H130.665V45.2998H128.851ZM129.763 36.5124C129.476 36.5124 129.229 36.4172 129.022 36.2269C128.814 36.0332 128.711 35.801 128.711 35.5305C128.711 35.2566 128.814 35.0245 129.022 34.8341C129.229 34.6404 129.476 34.5435 129.763 34.5435C130.054 34.5435 130.301 34.6404 130.504 34.8341C130.712 35.0245 130.815 35.2566 130.815 35.5305C130.815 35.801 130.712 36.0332 130.504 36.2269C130.301 36.4172 130.054 36.5124 129.763 36.5124ZM135.936 45.4501C135.165 45.4501 134.499 45.2898 133.938 44.9692C133.38 44.6452 132.951 44.1876 132.65 43.5964C132.349 43.0019 132.199 42.3022 132.199 41.4973C132.199 40.7057 132.349 40.011 132.65 39.4132C132.954 38.812 133.378 38.3444 133.923 38.0104C134.467 37.6731 135.107 37.5044 135.841 37.5044C136.316 37.5044 136.763 37.5812 137.184 37.7349C137.608 37.8851 137.982 38.1189 138.306 38.4362C138.633 38.7535 138.891 39.1577 139.078 39.6486C139.265 40.1363 139.358 40.7174 139.358 41.3921V41.9482H133.051V40.7258H137.62C137.616 40.3784 137.541 40.0695 137.394 39.7989C137.247 39.5251 137.042 39.3096 136.778 39.1527C136.518 38.9957 136.214 38.9172 135.866 38.9172C135.496 38.9172 135.17 39.0074 134.889 39.1877C134.609 39.3647 134.39 39.5985 134.233 39.8891C134.079 40.1763 134.001 40.492 133.998 40.836V41.9031C133.998 42.3506 134.079 42.7347 134.243 43.0554C134.407 43.3727 134.636 43.6165 134.929 43.7868C135.223 43.9538 135.567 44.0373 135.962 44.0373C136.225 44.0373 136.464 44.0006 136.678 43.9271C136.892 43.8503 137.077 43.7384 137.234 43.5914C137.391 43.4445 137.51 43.2624 137.59 43.0453L139.283 43.2357C139.176 43.6833 138.972 44.074 138.672 44.408C138.375 44.7387 137.994 44.9959 137.53 45.1796C137.065 45.3599 136.534 45.4501 135.936 45.4501ZM143.748 45.4351C143.144 45.4351 142.603 45.2798 142.125 44.9692C141.647 44.6585 141.27 44.2076 140.993 43.6165C140.716 43.0253 140.577 42.3072 140.577 41.4622C140.577 40.6072 140.717 39.8858 140.998 39.2979C141.282 38.7068 141.664 38.2609 142.145 37.9603C142.626 37.6564 143.162 37.5044 143.753 37.5044C144.204 37.5044 144.575 37.5812 144.865 37.7349C145.156 37.8851 145.386 38.0672 145.557 38.2809C145.727 38.4913 145.859 38.6901 145.953 38.8771H146.028V35.0395H147.846V45.2998H146.063V44.0874H145.953C145.859 44.2744 145.724 44.4732 145.547 44.6836C145.37 44.8907 145.136 45.0677 144.845 45.2146C144.555 45.3616 144.189 45.4351 143.748 45.4351ZM144.254 43.9471C144.638 43.9471 144.966 43.8436 145.236 43.6365C145.507 43.4261 145.712 43.1339 145.852 42.7598C145.993 42.3857 146.063 41.9499 146.063 41.4522C146.063 40.9545 145.993 40.522 145.852 40.1546C145.715 39.7872 145.512 39.5017 145.241 39.2979C144.974 39.0942 144.645 38.9923 144.254 38.9923C143.85 38.9923 143.513 39.0975 143.242 39.308C142.972 39.5184 142.768 39.809 142.631 40.1797C142.494 40.5504 142.426 40.9746 142.426 41.4522C142.426 41.9332 142.494 42.3623 142.631 42.7397C142.771 43.1138 142.977 43.4094 143.247 43.6265C143.521 43.8403 143.857 43.9471 144.254 43.9471ZM155.493 45.4551C155.005 45.4551 154.566 45.3683 154.175 45.1946C153.788 45.0176 153.48 44.7571 153.253 44.4131C153.029 44.069 152.918 43.6449 152.918 43.1405C152.918 42.7063 152.998 42.3473 153.158 42.0634C153.318 41.7795 153.537 41.5524 153.814 41.3821C154.092 41.2117 154.404 41.0831 154.751 40.9963C155.102 40.9061 155.464 40.841 155.838 40.8009C156.289 40.7542 156.655 40.7124 156.935 40.6757C157.216 40.6356 157.42 40.5755 157.547 40.4953C157.677 40.4118 157.742 40.2832 157.742 40.1095V40.0795C157.742 39.7021 157.63 39.4098 157.406 39.2028C157.183 38.9957 156.86 38.8921 156.44 38.8921C155.995 38.8921 155.643 38.989 155.382 39.1827C155.125 39.3764 154.952 39.6052 154.861 39.8691L153.168 39.6286C153.302 39.161 153.522 38.7702 153.829 38.4563C154.137 38.139 154.512 37.9018 154.957 37.7449C155.401 37.5846 155.892 37.5044 156.429 37.5044C156.8 37.5044 157.169 37.5478 157.537 37.6347C157.904 37.7215 158.24 37.8651 158.544 38.0655C158.848 38.2626 159.091 38.5314 159.275 38.8721C159.462 39.2128 159.556 39.6386 159.556 40.1496V45.2998H157.812V44.2427H157.752C157.642 44.4565 157.487 44.6569 157.286 44.8439C157.089 45.0276 156.84 45.1762 156.54 45.2898C156.242 45.4 155.893 45.4551 155.493 45.4551ZM155.964 44.1225C156.328 44.1225 156.643 44.0507 156.91 43.9071C157.178 43.7601 157.383 43.5664 157.527 43.3259C157.674 43.0854 157.747 42.8232 157.747 42.5393V41.6326C157.69 41.6793 157.593 41.7227 157.457 41.7628C157.323 41.8029 157.173 41.838 157.006 41.868C156.839 41.8981 156.673 41.9248 156.51 41.9482C156.346 41.9716 156.204 41.9916 156.084 42.0083C155.813 42.045 155.571 42.1052 155.357 42.1887C155.144 42.2722 154.975 42.3891 154.851 42.5393C154.728 42.6863 154.666 42.8767 154.666 43.1105C154.666 43.4445 154.788 43.6966 155.032 43.867C155.276 44.0373 155.586 44.1225 155.964 44.1225ZM161.379 45.2998V37.6046H163.138V38.8871H163.218C163.358 38.4429 163.599 38.1006 163.939 37.8601C164.283 37.6163 164.676 37.4944 165.117 37.4944C165.217 37.4944 165.329 37.4994 165.452 37.5094C165.579 37.5161 165.684 37.5278 165.768 37.5445V39.2128C165.691 39.1861 165.569 39.1627 165.402 39.1426C165.239 39.1193 165.08 39.1076 164.926 39.1076C164.596 39.1076 164.298 39.1794 164.035 39.323C163.774 39.4633 163.569 39.6587 163.418 39.9091C163.268 40.1596 163.193 40.4485 163.193 40.7759V45.2998H161.379ZM170.063 45.4501C169.291 45.4501 168.625 45.2898 168.064 44.9692C167.506 44.6452 167.077 44.1876 166.776 43.5964C166.476 43.0019 166.325 42.3022 166.325 41.4973C166.325 40.7057 166.476 40.011 166.776 39.4132C167.08 38.812 167.504 38.3444 168.049 38.0104C168.593 37.6731 169.233 37.5044 169.968 37.5044C170.442 37.5044 170.889 37.5812 171.31 37.7349C171.734 37.8851 172.108 38.1189 172.432 38.4362C172.76 38.7535 173.017 39.1577 173.204 39.6486C173.391 40.1363 173.484 40.7174 173.484 41.3921V41.9482H167.177V40.7258H171.746C171.743 40.3784 171.668 40.0695 171.521 39.7989C171.374 39.5251 171.168 39.3096 170.904 39.1527C170.644 38.9957 170.34 38.9172 169.993 38.9172C169.622 38.9172 169.296 39.0074 169.016 39.1877C168.735 39.3647 168.516 39.5985 168.359 39.8891C168.206 40.1763 168.127 40.492 168.124 40.836V41.9031C168.124 42.3506 168.206 42.7347 168.369 43.0554C168.533 43.3727 168.762 43.6165 169.056 43.7868C169.35 43.9538 169.694 44.0373 170.088 44.0373C170.352 44.0373 170.59 44.0006 170.804 43.9271C171.018 43.8503 171.203 43.7384 171.36 43.5914C171.517 43.4445 171.636 43.2624 171.716 43.0453L173.409 43.2357C173.302 43.6833 173.099 44.074 172.798 44.408C172.501 44.7387 172.12 44.9959 171.656 45.1796C171.192 45.3599 170.661 45.4501 170.063 45.4501ZM60.9332 63.2998L58.7589 55.6046H60.6076L61.9603 61.0153H62.0304L63.4131 55.6046H65.2418L66.6245 60.9852H66.6996L68.0323 55.6046H69.8859L67.7066 63.2998H65.8179L64.375 58.0995H64.2698L62.827 63.2998H60.9332ZM71.1522 63.2998V55.6046H72.9658V63.2998H71.1522ZM72.064 54.5124C71.7768 54.5124 71.5296 54.4172 71.3225 54.2269C71.1155 54.0332 71.0119 53.801 71.0119 53.5305C71.0119 53.2566 71.1155 53.0245 71.3225 52.8341C71.5296 52.6404 71.7768 52.5435 72.064 52.5435C72.3546 52.5435 72.6017 52.6404 72.8055 52.8341C73.0125 53.0245 73.1161 53.2566 73.1161 53.5305C73.1161 53.801 73.0125 54.0332 72.8055 54.2269C72.6017 54.4172 72.3546 54.5124 72.064 54.5124ZM78.6733 55.6046V57.0074H74.2496V55.6046H78.6733ZM75.3417 53.761H77.1553V60.9852C77.1553 61.229 77.192 61.4161 77.2655 61.5463C77.3423 61.6733 77.4425 61.7601 77.5661 61.8069C77.6897 61.8536 77.8266 61.877 77.9769 61.877C78.0905 61.877 78.194 61.8686 78.2875 61.8519C78.3844 61.8352 78.4579 61.8202 78.508 61.8069L78.8136 63.2247C78.7167 63.2581 78.5781 63.2948 78.3978 63.3349C78.2207 63.375 78.0036 63.3983 77.7465 63.405C77.2922 63.4184 76.8831 63.3499 76.519 63.1996C76.155 63.046 75.8661 62.8088 75.6523 62.4882C75.4419 62.1676 75.3384 61.7668 75.3417 61.2858V53.761ZM82.169 58.7909V63.2998H80.3554V53.0395H82.1289V56.9122H82.2191C82.3994 56.478 82.6783 56.1356 83.0557 55.8851C83.4365 55.6313 83.9208 55.5044 84.5086 55.5044C85.043 55.5044 85.5089 55.6163 85.9064 55.8401C86.3038 56.0638 86.6111 56.3911 86.8282 56.822C87.0486 57.2529 87.1588 57.7789 87.1588 58.4001V63.2998H85.3452V58.6807C85.3452 58.163 85.2116 57.7605 84.9445 57.4733C84.6806 57.1827 84.3099 57.0374 83.8323 57.0374C83.5116 57.0374 83.2244 57.1076 82.9705 57.2478C82.7201 57.3848 82.523 57.5835 82.3794 57.844C82.2391 58.1045 82.169 58.4202 82.169 58.7909ZM95.8635 63.4501C95.112 63.4501 94.4608 63.2848 93.9097 62.9541C93.3586 62.6235 92.9311 62.1609 92.6271 61.5664C92.3265 60.9719 92.1762 60.2772 92.1762 59.4823C92.1762 58.6874 92.3265 57.991 92.6271 57.3931C92.9311 56.7953 93.3586 56.331 93.9097 56.0004C94.4608 55.6697 95.112 55.5044 95.8635 55.5044C96.615 55.5044 97.2663 55.6697 97.8174 56.0004C98.3685 56.331 98.7943 56.7953 99.0949 57.3931C99.3989 57.991 99.5508 58.6874 99.5508 59.4823C99.5508 60.2772 99.3989 60.9719 99.0949 61.5664C98.7943 62.1609 98.3685 62.6235 97.8174 62.9541C97.2663 63.2848 96.615 63.4501 95.8635 63.4501ZM95.8736 61.9972C96.281 61.9972 96.6217 61.8853 96.8956 61.6616C97.1694 61.4345 97.3732 61.1305 97.5068 60.7498C97.6437 60.369 97.7122 59.9448 97.7122 59.4772C97.7122 59.0063 97.6437 58.5805 97.5068 58.1997C97.3732 57.8156 97.1694 57.51 96.8956 57.2829C96.6217 57.0558 96.281 56.9422 95.8736 56.9422C95.4561 56.9422 95.1087 57.0558 94.8315 57.2829C94.5576 57.51 94.3522 57.8156 94.2153 58.1997C94.0817 58.5805 94.0149 59.0063 94.0149 59.4772C94.0149 59.9448 94.0817 60.369 94.2153 60.7498C94.3522 61.1305 94.5576 61.4345 94.8315 61.6616C95.1087 61.8853 95.4561 61.9972 95.8736 61.9972ZM105.995 60.0634V55.6046H107.808V63.2998H106.05V61.9321H105.97C105.796 62.363 105.511 62.7153 105.113 62.9892C104.719 63.2631 104.233 63.4 103.655 63.4C103.151 63.4 102.705 63.2881 102.318 63.0643C101.933 62.8372 101.633 62.5082 101.416 62.0774C101.199 61.6432 101.09 61.1188 101.09 60.5043V55.6046H102.904V60.2237C102.904 60.7114 103.037 61.0988 103.304 61.386C103.572 61.6733 103.922 61.8169 104.357 61.8169C104.624 61.8169 104.883 61.7517 105.133 61.6215C105.384 61.4912 105.589 61.2975 105.749 61.0403C105.913 60.7798 105.995 60.4542 105.995 60.0634ZM109.673 63.2998V55.6046H111.432V56.8871H111.512C111.652 56.4429 111.893 56.1006 112.233 55.8601C112.577 55.6163 112.97 55.4944 113.411 55.4944C113.511 55.4944 113.623 55.4994 113.746 55.5094C113.873 55.5161 113.979 55.5278 114.062 55.5445V57.2128C113.985 57.1861 113.863 57.1627 113.696 57.1426C113.533 57.1193 113.374 57.1076 113.22 57.1076C112.89 57.1076 112.592 57.1794 112.329 57.323C112.068 57.4633 111.863 57.6587 111.712 57.9091C111.562 58.1596 111.487 58.4485 111.487 58.7759V63.2998H109.673ZM118.766 66.1855V55.6046H120.55V56.8771H120.655C120.749 56.6901 120.88 56.4913 121.051 56.2809C121.221 56.0672 121.452 55.8851 121.742 55.7349C122.033 55.5812 122.403 55.5044 122.854 55.5044C123.449 55.5044 123.985 55.6564 124.463 55.9603C124.944 56.2609 125.324 56.7068 125.605 57.2979C125.889 57.8858 126.031 58.6072 126.031 59.4622C126.031 60.3072 125.892 61.0253 125.615 61.6165C125.338 62.2076 124.96 62.6585 124.483 62.9692C124.005 63.2798 123.464 63.4351 122.859 63.4351C122.419 63.4351 122.053 63.3616 121.762 63.2146C121.472 63.0677 121.238 62.8907 121.061 62.6836C120.887 62.4732 120.752 62.2744 120.655 62.0874H120.58V66.1855H118.766ZM120.545 59.4522C120.545 59.9499 120.615 60.3857 120.755 60.7598C120.899 61.1339 121.104 61.4261 121.371 61.6365C121.642 61.8436 121.969 61.9471 122.353 61.9471C122.754 61.9471 123.09 61.8403 123.36 61.6265C123.631 61.4094 123.835 61.1138 123.972 60.7397C124.112 60.3623 124.182 59.9332 124.182 59.4522C124.182 58.9746 124.114 58.5504 123.977 58.1797C123.84 57.809 123.636 57.5184 123.365 57.308C123.095 57.0975 122.758 56.9923 122.353 56.9923C121.966 56.9923 121.637 57.0942 121.366 57.2979C121.096 57.5017 120.89 57.7872 120.75 58.1546C120.613 58.522 120.545 58.9545 120.545 59.4522ZM127.584 63.2998V55.6046H129.342V56.8871H129.422C129.563 56.4429 129.803 56.1006 130.144 55.8601C130.488 55.6163 130.88 55.4944 131.321 55.4944C131.421 55.4944 131.533 55.4994 131.657 55.5094C131.784 55.5161 131.889 55.5278 131.972 55.5445V57.2128C131.896 57.1861 131.774 57.1627 131.607 57.1426C131.443 57.1193 131.284 57.1076 131.131 57.1076C130.8 57.1076 130.503 57.1794 130.239 57.323C129.978 57.4633 129.773 57.6587 129.623 57.9091C129.472 58.1596 129.397 58.4485 129.397 58.7759V63.2998H127.584ZM136.217 63.4501C135.466 63.4501 134.814 63.2848 134.263 62.9541C133.712 62.6235 133.285 62.1609 132.981 61.5664C132.68 60.9719 132.53 60.2772 132.53 59.4823C132.53 58.6874 132.68 57.991 132.981 57.3931C133.285 56.7953 133.712 56.331 134.263 56.0004C134.814 55.6697 135.466 55.5044 136.217 55.5044C136.969 55.5044 137.62 55.6697 138.171 56.0004C138.722 56.331 139.148 56.7953 139.448 57.3931C139.752 57.991 139.904 58.6874 139.904 59.4823C139.904 60.2772 139.752 60.9719 139.448 61.5664C139.148 62.1609 138.722 62.6235 138.171 62.9541C137.62 63.2848 136.969 63.4501 136.217 63.4501ZM136.227 61.9972C136.635 61.9972 136.975 61.8853 137.249 61.6616C137.523 61.4345 137.727 61.1305 137.86 60.7498C137.997 60.369 138.066 59.9448 138.066 59.4772C138.066 59.0063 137.997 58.5805 137.86 58.1997C137.727 57.8156 137.523 57.51 137.249 57.2829C136.975 57.0558 136.635 56.9422 136.227 56.9422C135.81 56.9422 135.462 57.0558 135.185 57.2829C134.911 57.51 134.706 57.8156 134.569 58.1997C134.435 58.5805 134.368 59.0063 134.368 59.4772C134.368 59.9448 134.435 60.369 134.569 60.7498C134.706 61.1305 134.911 61.4345 135.185 61.6616C135.462 61.8853 135.81 61.9972 136.227 61.9972ZM144.299 63.4351C143.695 63.4351 143.154 63.2798 142.676 62.9692C142.198 62.6585 141.821 62.2076 141.544 61.6165C141.267 61.0253 141.128 60.3072 141.128 59.4622C141.128 58.6072 141.268 57.8858 141.549 57.2979C141.833 56.7068 142.215 56.2609 142.696 55.9603C143.177 55.6564 143.713 55.5044 144.304 55.5044C144.755 55.5044 145.126 55.5812 145.416 55.7349C145.707 55.8851 145.938 56.0672 146.108 56.2809C146.278 56.4913 146.41 56.6901 146.504 56.8771H146.579V53.0395H148.397V63.2998H146.614V62.0874H146.504C146.41 62.2744 146.275 62.4732 146.098 62.6836C145.921 62.8907 145.687 63.0677 145.396 63.2146C145.106 63.3616 144.74 63.4351 144.299 63.4351ZM144.805 61.9471C145.189 61.9471 145.517 61.8436 145.787 61.6365C146.058 61.4261 146.263 61.1339 146.403 60.7598C146.544 60.3857 146.614 59.9499 146.614 59.4522C146.614 58.9545 146.544 58.522 146.403 58.1546C146.266 57.7872 146.063 57.5017 145.792 57.2979C145.525 57.0942 145.196 56.9923 144.805 56.9923C144.401 56.9923 144.064 57.0975 143.793 57.308C143.523 57.5184 143.319 57.809 143.182 58.1797C143.045 58.5504 142.977 58.9746 142.977 59.4522C142.977 59.9332 143.045 60.3623 143.182 60.7397C143.322 61.1138 143.528 61.4094 143.798 61.6265C144.072 61.8403 144.408 61.9471 144.805 61.9471ZM155.235 60.0634V55.6046H157.048V63.2998H155.29V61.9321H155.21C155.036 62.363 154.75 62.7153 154.353 62.9892C153.959 63.2631 153.473 63.4 152.895 63.4C152.391 63.4 151.945 63.2881 151.557 63.0643C151.173 62.8372 150.873 62.5082 150.656 62.0774C150.438 61.6432 150.33 61.1188 150.33 60.5043V55.6046H152.144V60.2237C152.144 60.7114 152.277 61.0988 152.544 61.386C152.812 61.6733 153.162 61.8169 153.596 61.8169C153.864 61.8169 154.122 61.7517 154.373 61.6215C154.623 61.4912 154.829 61.2975 154.989 61.0403C155.153 60.7798 155.235 60.4542 155.235 60.0634ZM162.27 63.4501C161.502 63.4501 160.842 63.2814 160.291 62.9441C159.743 62.6068 159.321 62.1408 159.023 61.5463C158.729 60.9485 158.582 60.2605 158.582 59.4823C158.582 58.7007 158.733 58.011 159.033 57.4132C159.334 56.812 159.758 56.3444 160.306 56.0104C160.857 55.6731 161.508 55.5044 162.26 55.5044C162.884 55.5044 163.437 55.6196 163.918 55.8501C164.402 56.0772 164.788 56.3995 165.075 56.817C165.363 57.2311 165.526 57.7154 165.566 58.2699H163.833C163.763 57.8991 163.596 57.5902 163.332 57.343C163.071 57.0925 162.722 56.9673 162.285 56.9673C161.914 56.9673 161.588 57.0675 161.308 57.2679C161.027 57.4649 160.809 57.7488 160.652 58.1196C160.498 58.4903 160.421 58.9345 160.421 59.4522C160.421 59.9766 160.498 60.4275 160.652 60.8049C160.805 61.1789 161.021 61.4679 161.298 61.6716C161.578 61.872 161.907 61.9722 162.285 61.9722C162.552 61.9722 162.791 61.9221 163.001 61.8219C163.215 61.7183 163.394 61.5697 163.537 61.376C163.681 61.1823 163.779 60.9468 163.833 60.6696H165.566C165.523 61.214 165.363 61.6966 165.085 62.1175C164.808 62.535 164.431 62.8623 163.953 63.0994C163.476 63.3332 162.914 63.4501 162.27 63.4501ZM170.898 55.6046V57.0074H166.474V55.6046H170.898ZM167.567 53.761H169.38V60.9852C169.38 61.229 169.417 61.4161 169.49 61.5463C169.567 61.6733 169.667 61.7601 169.791 61.8069C169.914 61.8536 170.051 61.877 170.202 61.877C170.315 61.877 170.419 61.8686 170.512 61.8519C170.609 61.8352 170.683 61.8202 170.733 61.8069L171.038 63.2247C170.942 63.2581 170.803 63.2948 170.623 63.3349C170.446 63.375 170.228 63.3983 169.971 63.405C169.517 63.4184 169.108 63.3499 168.744 63.1996C168.38 63.046 168.091 62.8088 167.877 62.4882C167.667 62.1676 167.563 61.7668 167.567 61.2858V53.761Z" fill="#050505"/>
<path d="M77.1653 83.002L75.2949 76.1618H76.1366L77.5661 81.7328H77.6329L79.0891 76.1618H80.0243L81.4805 81.7328H81.5473L82.9768 76.1618H83.8184L81.9481 83.002H81.0931L79.5834 77.5512H79.53L78.0203 83.002H77.1653ZM86.4169 83.1088C85.9226 83.1088 85.4962 82.9997 85.1377 82.7815C84.7815 82.5611 84.5065 82.2538 84.3128 81.8597C84.1213 81.4634 84.0255 81.0024 84.0255 80.477C84.0255 79.9515 84.1213 79.4883 84.3128 79.0875C84.5065 78.6845 84.7759 78.3706 85.121 78.1457C85.4684 77.9186 85.8736 77.805 86.3368 77.805C86.604 77.805 86.8678 77.8495 87.1283 77.9386C87.3888 78.0277 87.626 78.1724 87.8397 78.3728C88.0535 78.571 88.2238 78.8337 88.3507 79.161C88.4777 79.4883 88.5411 79.8914 88.5411 80.3701V80.7041H84.5866V80.0227H87.7395C87.7395 79.7333 87.6816 79.475 87.5659 79.2479C87.4523 79.0208 87.2898 78.8415 87.0782 78.7101C86.8689 78.5788 86.6218 78.5131 86.3368 78.5131C86.0228 78.5131 85.7512 78.591 85.5218 78.7469C85.2947 78.9005 85.1199 79.1009 84.9974 79.3481C84.875 79.5952 84.8137 79.8602 84.8137 80.143V80.5972C84.8137 80.9846 84.8805 81.3131 85.0141 81.5825C85.15 81.8497 85.3381 82.0534 85.5786 82.1937C85.8191 82.3317 86.0985 82.4008 86.4169 82.4008C86.624 82.4008 86.811 82.3718 86.978 82.3139C87.1472 82.2538 87.2931 82.1647 87.4156 82.0467C87.538 81.9265 87.6327 81.7773 87.6994 81.5992L88.461 81.8129C88.3808 82.0712 88.2461 82.2983 88.0568 82.4943C87.8676 82.688 87.6338 82.8394 87.3554 82.9485C87.0771 83.0554 86.7643 83.1088 86.4169 83.1088ZM90.4349 76.1618V76.763C90.4349 76.9455 90.4015 77.1404 90.3347 77.3474C90.2701 77.5523 90.1743 77.7516 90.0474 77.9453C89.9227 78.1368 89.7713 78.3038 89.5932 78.4463L89.1657 78.0989C89.306 77.8985 89.4273 77.6903 89.5297 77.4744C89.6344 77.2562 89.6867 77.0235 89.6867 76.7763V76.1618H90.4349ZM92.8254 83.1088C92.3979 83.1088 92.0205 83.0008 91.6932 82.7849C91.3659 82.5666 91.1098 82.2594 90.925 81.863C90.7402 81.4645 90.6478 80.9935 90.6478 80.4502C90.6478 79.9114 90.7402 79.4438 90.925 79.0475C91.1098 78.6511 91.367 78.345 91.6965 78.129C92.0261 77.913 92.4068 77.805 92.8388 77.805C93.1728 77.805 93.4366 77.8607 93.6303 77.972C93.8263 78.0811 93.9755 78.2058 94.0779 78.3461C94.1825 78.4841 94.2638 78.5977 94.3217 78.6868H94.3885V76.1618H95.1767V83.002H94.4152V82.2137H94.3217C94.2638 82.3072 94.1814 82.4253 94.0745 82.5678C93.9677 82.708 93.8151 82.8338 93.617 82.9452C93.4188 83.0543 93.155 83.1088 92.8254 83.1088ZM92.9323 82.4008C93.2485 82.4008 93.5157 82.3184 93.7339 82.1536C93.9521 81.9866 94.118 81.7562 94.2315 81.4622C94.3451 81.1661 94.4019 80.8243 94.4019 80.4369C94.4019 80.0539 94.3462 79.7188 94.2349 79.4316C94.1235 79.1421 93.9588 78.9172 93.7406 78.7569C93.5223 78.5944 93.2529 78.5131 92.9323 78.5131C92.5983 78.5131 92.32 78.5988 92.0973 78.7703C91.8769 78.9395 91.711 79.1699 91.5997 79.4616C91.4906 79.7511 91.436 80.0762 91.436 80.4369C91.436 80.802 91.4917 81.1338 91.603 81.4322C91.7166 81.7283 91.8836 81.9643 92.104 82.1402C92.3266 82.3139 92.6028 82.4008 92.9323 82.4008ZM100.163 76.1618V83.002H99.375V76.1618H100.163ZM103.691 83.1088C103.228 83.1088 102.822 82.9986 102.472 82.7782C102.125 82.5577 101.853 82.2494 101.657 81.853C101.463 81.4567 101.366 80.9935 101.366 80.4636C101.366 79.9292 101.463 79.4627 101.657 79.0642C101.853 78.6656 102.125 78.3561 102.472 78.1357C102.822 77.9152 103.228 77.805 103.691 77.805C104.154 77.805 104.559 77.9152 104.907 78.1357C105.256 78.3561 105.528 78.6656 105.722 79.0642C105.918 79.4627 106.016 79.9292 106.016 80.4636C106.016 80.9935 105.918 81.4567 105.722 81.853C105.528 82.2494 105.256 82.5577 104.907 82.7782C104.559 82.9986 104.154 83.1088 103.691 83.1088ZM103.691 82.4008C104.043 82.4008 104.332 82.3106 104.559 82.1302C104.787 81.9499 104.955 81.7127 105.064 81.4188C105.173 81.1249 105.227 80.8065 105.227 80.4636C105.227 80.1207 105.173 79.8012 105.064 79.505C104.955 79.2089 104.787 78.9695 104.559 78.787C104.332 78.6044 104.043 78.5131 103.691 78.5131C103.339 78.5131 103.05 78.6044 102.823 78.787C102.596 78.9695 102.427 79.2089 102.318 79.505C102.209 79.8012 102.155 80.1207 102.155 80.4636C102.155 80.8065 102.209 81.1249 102.318 81.4188C102.427 81.7127 102.596 81.9499 102.823 82.1302C103.05 82.3106 103.339 82.4008 103.691 82.4008ZM111.23 77.8718L109.333 83.002H108.531L106.634 77.8718H107.489L108.906 81.9599H108.959L110.375 77.8718H111.23ZM114.238 83.1088C113.743 83.1088 113.317 82.9997 112.959 82.7815C112.602 82.5611 112.327 82.2538 112.134 81.8597C111.942 81.4634 111.846 81.0024 111.846 80.477C111.846 79.9515 111.942 79.4883 112.134 79.0875C112.327 78.6845 112.597 78.3706 112.942 78.1457C113.289 77.9186 113.694 77.805 114.158 77.805C114.425 77.805 114.689 77.8495 114.949 77.9386C115.21 78.0277 115.447 78.1724 115.661 78.3728C115.874 78.571 116.045 78.8337 116.172 79.161C116.298 79.4883 116.362 79.8914 116.362 80.3701V80.7041H112.407V80.0227H115.56C115.56 79.7333 115.502 79.475 115.387 79.2479C115.273 79.0208 115.111 78.8415 114.899 78.7101C114.69 78.5788 114.443 78.5131 114.158 78.5131C113.844 78.5131 113.572 78.591 113.343 78.7469C113.116 78.9005 112.941 79.1009 112.818 79.3481C112.696 79.5952 112.635 79.8602 112.635 80.143V80.5972C112.635 80.9846 112.701 81.3131 112.835 81.5825C112.971 81.8497 113.159 82.0534 113.399 82.1937C113.64 82.3317 113.919 82.4008 114.238 82.4008C114.445 82.4008 114.632 82.3718 114.799 82.3139C114.968 82.2538 115.114 82.1647 115.236 82.0467C115.359 81.9265 115.453 81.7773 115.52 81.5992L116.282 81.8129C116.202 82.0712 116.067 82.2983 115.878 82.4943C115.688 82.688 115.455 82.8394 115.176 82.9485C114.898 83.0554 114.585 83.1088 114.238 83.1088ZM122.437 77.8718V78.5398H119.779V77.8718H122.437ZM120.554 76.6427H121.342V81.5324C121.342 81.755 121.374 81.922 121.439 82.0334C121.505 82.1425 121.59 82.216 121.692 82.2538C121.797 82.2894 121.907 82.3072 122.023 82.3072C122.11 82.3072 122.181 82.3028 122.237 82.2939C122.293 82.2828 122.337 82.2738 122.37 82.2672L122.531 82.9752C122.477 82.9953 122.403 83.0153 122.307 83.0354C122.211 83.0576 122.09 83.0688 121.943 83.0688C121.72 83.0688 121.502 83.0209 121.288 82.9251C121.077 82.8294 120.901 82.6835 120.761 82.4876C120.623 82.2917 120.554 82.0445 120.554 81.7461V76.6427ZM125.652 83.1088C125.189 83.1088 124.782 82.9986 124.433 82.7782C124.086 82.5577 123.814 82.2494 123.618 81.853C123.424 81.4567 123.327 80.9935 123.327 80.4636C123.327 79.9292 123.424 79.4627 123.618 79.0642C123.814 78.6656 124.086 78.3561 124.433 78.1357C124.782 77.9152 125.189 77.805 125.652 77.805C126.115 77.805 126.52 77.9152 126.868 78.1357C127.217 78.3561 127.489 78.6656 127.683 79.0642C127.879 79.4627 127.977 79.9292 127.977 80.4636C127.977 80.9935 127.879 81.4567 127.683 81.853C127.489 82.2494 127.217 82.5577 126.868 82.7782C126.52 82.9986 126.115 83.1088 125.652 83.1088ZM125.652 82.4008C126.004 82.4008 126.293 82.3106 126.52 82.1302C126.747 81.9499 126.916 81.7127 127.025 81.4188C127.134 81.1249 127.188 80.8065 127.188 80.4636C127.188 80.1207 127.134 79.8012 127.025 79.505C126.916 79.2089 126.747 78.9695 126.52 78.787C126.293 78.6044 126.004 78.5131 125.652 78.5131C125.3 78.5131 125.011 78.6044 124.784 78.787C124.556 78.9695 124.388 79.2089 124.279 79.505C124.17 79.8012 124.116 80.1207 124.116 80.4636C124.116 80.8065 124.17 81.1249 124.279 81.4188C124.388 81.7127 124.556 81.9499 124.784 82.1302C125.011 82.3106 125.3 82.4008 125.652 82.4008ZM132.56 81.1316L132.546 80.1563H132.707L134.951 77.8718H135.926L133.535 80.2899H133.468L132.56 81.1316ZM131.825 83.002V76.1618H132.613V83.002H131.825ZM135.085 83.002L133.081 80.4636L133.642 79.9159L136.087 83.002H135.085ZM137.729 79.9159V83.002H136.941V77.8718H137.702V78.6734H137.769C137.889 78.4129 138.072 78.2036 138.317 78.0455C138.562 77.8852 138.878 77.805 139.266 77.805C139.613 77.805 139.917 77.8763 140.177 78.0188C140.438 78.159 140.64 78.3728 140.785 78.66C140.93 78.945 141.002 79.3058 141.002 79.7422V83.002H140.214V79.7956C140.214 79.3926 140.109 79.0786 139.9 78.8538C139.691 78.6266 139.404 78.5131 139.038 78.5131C138.787 78.5131 138.562 78.5676 138.364 78.6767C138.168 78.7858 138.013 78.945 137.9 79.1543C137.786 79.3637 137.729 79.6175 137.729 79.9159ZM144.527 83.1088C144.064 83.1088 143.657 82.9986 143.308 82.7782C142.96 82.5577 142.689 82.2494 142.493 81.853C142.299 81.4567 142.202 80.9935 142.202 80.4636C142.202 79.9292 142.299 79.4627 142.493 79.0642C142.689 78.6656 142.96 78.3561 143.308 78.1357C143.657 77.9152 144.064 77.805 144.527 77.805C144.99 77.805 145.395 77.9152 145.743 78.1357C146.092 78.3561 146.364 78.6656 146.557 79.0642C146.753 79.4627 146.851 79.9292 146.851 80.4636C146.851 80.9935 146.753 81.4567 146.557 81.853C146.364 82.2494 146.092 82.5577 145.743 82.7782C145.395 82.9986 144.99 83.1088 144.527 83.1088ZM144.527 82.4008C144.879 82.4008 145.168 82.3106 145.395 82.1302C145.622 81.9499 145.79 81.7127 145.899 81.4188C146.009 81.1249 146.063 80.8065 146.063 80.4636C146.063 80.1207 146.009 79.8012 145.899 79.505C145.79 79.2089 145.622 78.9695 145.395 78.787C145.168 78.6044 144.879 78.5131 144.527 78.5131C144.175 78.5131 143.885 78.6044 143.658 78.787C143.431 78.9695 143.263 79.2089 143.154 79.505C143.045 79.8012 142.99 80.1207 142.99 80.4636C142.99 80.8065 143.045 81.1249 143.154 81.4188C143.263 81.7127 143.431 81.9499 143.658 82.1302C143.885 82.3106 144.175 82.4008 144.527 82.4008ZM149.042 83.002L147.479 77.8718H148.308L149.416 81.7996H149.47L150.565 77.8718H151.407L152.489 81.7862H152.543L153.651 77.8718H154.48L152.917 83.002H152.142L151.02 79.0608H150.939L149.817 83.002H149.042Z" fill="#575656"/>
<path d="M41.9182 97.4072L45.7264 103.9L53.1215 105.49L48.08 111.093L48.8422 118.569L41.9182 115.539L34.9941 118.569L35.7563 111.093L30.7148 105.49L38.1099 103.9L41.9182 97.4072Z" fill="#FFCB45"/>
<path d="M78.4357 97.4072L82.244 103.9L89.6391 105.49L84.5976 111.093L85.3598 118.569L78.4357 115.539L71.5117 118.569L72.2739 111.093L67.2324 105.49L74.6275 103.9L78.4357 97.4072Z" fill="#FFCB45"/>
<path d="M114.951 97.4072L118.76 103.9L126.155 105.49L121.113 111.093L121.875 118.569L114.951 115.539L108.027 118.569L108.79 111.093L103.748 105.49L111.143 103.9L114.951 97.4072Z" fill="#FFCB45"/>
<path d="M151.457 97.4072L155.265 103.9L162.661 105.49L157.619 111.093L158.381 118.569L151.457 115.539L144.533 118.569L145.295 111.093L140.254 105.49L147.649 103.9L151.457 97.4072Z" fill="#F2F2F2"/>
<path d="M144.533 118.569L151.457 115.539V97.4072L147.649 103.9L140.254 105.49L145.295 111.093L144.533 118.569Z" fill="#FFCB45"/>
<path d="M187.971 97.4072L191.779 103.9L199.174 105.49L194.133 111.093L194.895 118.569L187.971 115.539L181.047 118.569L181.809 111.093L176.768 105.49L184.163 103.9L187.971 97.4072Z" fill="#F2F2F2"/>
<path d="M16.1748 128.639L17.9517 133.677H18.0218L19.7986 128.639H20.5585L18.3608 134.624H17.6127L15.415 128.639H16.1748ZM22.8614 134.718C22.4288 134.718 22.0557 134.622 21.7421 134.431C21.4303 134.238 21.1897 133.969 21.0202 133.625C20.8527 133.278 20.7689 132.874 20.7689 132.415C20.7689 131.955 20.8527 131.55 21.0202 131.199C21.1897 130.846 21.4255 130.572 21.7275 130.375C22.0314 130.176 22.386 130.077 22.7912 130.077C23.025 130.077 23.2559 130.116 23.4839 130.194C23.7118 130.272 23.9193 130.398 24.1063 130.574C24.2934 130.747 24.4424 130.977 24.5535 131.263C24.6645 131.55 24.72 131.902 24.72 132.321V132.613H21.2599V132.017H24.0187C24.0187 131.764 23.968 131.538 23.8667 131.339C23.7673 131.14 23.6251 130.984 23.44 130.869C23.2569 130.754 23.0406 130.696 22.7912 130.696C22.5165 130.696 22.2788 130.764 22.0782 130.901C21.8794 131.035 21.7265 131.211 21.6193 131.427C21.5122 131.643 21.4586 131.875 21.4586 132.122V132.52C21.4586 132.859 21.517 133.146 21.6339 133.382C21.7528 133.616 21.9174 133.794 22.1278 133.917C22.3383 134.038 22.5828 134.098 22.8614 134.098C23.0426 134.098 23.2062 134.073 23.3523 134.022C23.5004 133.969 23.628 133.891 23.7352 133.788C23.8423 133.683 23.9251 133.552 23.9836 133.397L24.6499 133.584C24.5798 133.81 24.4619 134.008 24.2963 134.18C24.1307 134.349 23.9261 134.482 23.6826 134.577C23.439 134.671 23.1653 134.718 22.8614 134.718ZM25.7692 134.624V130.135H26.4355V130.813H26.4823C26.5641 130.591 26.7122 130.411 26.9265 130.273C27.1408 130.134 27.3824 130.065 27.6513 130.065C27.7019 130.065 27.7652 130.066 27.8412 130.068C27.9172 130.07 27.9747 130.073 28.0136 130.077V130.778C27.9903 130.772 27.9367 130.763 27.8529 130.752C27.7711 130.738 27.6844 130.731 27.5928 130.731C27.3746 130.731 27.1798 130.777 27.0083 130.869C26.8388 130.958 26.7044 131.083 26.605 131.243C26.5076 131.401 26.4589 131.581 26.4589 131.783V134.624H25.7692ZM29.412 136.307C29.2951 136.307 29.1909 136.298 29.0993 136.278C29.0078 136.261 28.9444 136.243 28.9094 136.226L29.0847 135.618C29.2523 135.661 29.4003 135.676 29.5289 135.664C29.6575 135.653 29.7715 135.595 29.8708 135.492C29.9722 135.391 30.0647 135.226 30.1485 134.998L30.2771 134.647L28.6171 130.135H29.3653L30.6044 133.712H30.6511L31.8903 130.135H32.6384L30.733 135.279C30.6472 135.51 30.5411 135.702 30.4144 135.854C30.2878 136.008 30.1407 136.122 29.9731 136.196C29.8075 136.27 29.6205 136.307 29.412 136.307ZM38.6922 132.789V130.135H39.3819V134.624H38.6922V133.864H38.6455C38.5403 134.092 38.3766 134.286 38.1545 134.446C37.9324 134.604 37.6519 134.682 37.3129 134.682C37.0323 134.682 36.7829 134.621 36.5647 134.498C36.3465 134.374 36.175 134.187 36.0504 133.937C35.9257 133.686 35.8633 133.369 35.8633 132.987V130.135H36.553V132.941C36.553 133.268 36.6446 133.529 36.8277 133.724C37.0128 133.919 37.2486 134.016 37.535 134.016C37.7064 134.016 37.8808 133.972 38.0581 133.885C38.2373 133.797 38.3873 133.663 38.5081 133.481C38.6309 133.3 38.6922 133.069 38.6922 132.789ZM41.3349 131.924V134.624H40.6452V130.135H41.3115V130.837H41.3699C41.4751 130.609 41.6349 130.425 41.8492 130.287C42.0635 130.147 42.3402 130.077 42.6792 130.077C42.9831 130.077 43.2491 130.139 43.477 130.264C43.705 130.386 43.8823 130.574 44.0089 130.825C44.1355 131.074 44.1989 131.39 44.1989 131.772V134.624H43.5092V131.818C43.5092 131.466 43.4176 131.191 43.2345 130.994C43.0513 130.796 42.8 130.696 42.4805 130.696C42.2603 130.696 42.0635 130.744 41.8901 130.839C41.7187 130.935 41.5833 131.074 41.4839 131.257C41.3845 131.441 41.3349 131.663 41.3349 131.924ZM48.6388 131.14L48.0192 131.316C47.9803 131.213 47.9228 131.112 47.8468 131.015C47.7728 130.915 47.6715 130.834 47.5429 130.769C47.4143 130.705 47.2496 130.673 47.049 130.673C46.7743 130.673 46.5453 130.736 46.3622 130.863C46.181 130.988 46.0904 131.146 46.0904 131.339C46.0904 131.511 46.1528 131.646 46.2774 131.745C46.4021 131.845 46.597 131.928 46.8619 131.994L47.5283 132.157C47.9296 132.255 48.2287 132.404 48.4254 132.605C48.6222 132.803 48.7206 133.06 48.7206 133.373C48.7206 133.63 48.6466 133.86 48.4985 134.063C48.3524 134.266 48.1478 134.425 47.8848 134.542C47.6218 134.659 47.3159 134.718 46.9671 134.718C46.5093 134.718 46.1303 134.618 45.8303 134.419C45.5303 134.221 45.3403 133.93 45.2604 133.549L45.9151 133.385C45.9774 133.626 46.0953 133.808 46.2687 133.928C46.444 134.049 46.6729 134.11 46.9555 134.11C47.2769 134.11 47.5321 134.041 47.7211 133.905C47.9121 133.767 48.0075 133.601 48.0075 133.408C48.0075 133.252 47.953 133.122 47.8439 133.017C47.7348 132.91 47.5672 132.83 47.3412 132.777L46.5931 132.602C46.182 132.504 45.88 132.353 45.6871 132.149C45.4962 131.942 45.4007 131.684 45.4007 131.374C45.4007 131.121 45.4718 130.897 45.6141 130.702C45.7582 130.507 45.954 130.354 46.2015 130.243C46.4508 130.132 46.7333 130.077 47.049 130.077C47.4932 130.077 47.8419 130.174 48.0952 130.369C48.3504 130.564 48.5316 130.821 48.6388 131.14ZM51.0797 134.729C50.7953 134.729 50.5371 134.676 50.3053 134.568C50.0735 134.459 49.8893 134.303 49.753 134.098C49.6166 133.891 49.5484 133.642 49.5484 133.35C49.5484 133.093 49.599 132.884 49.7004 132.724C49.8017 132.563 49.9371 132.436 50.1066 132.345C50.2761 132.253 50.4631 132.185 50.6677 132.14C50.8742 132.093 51.0817 132.056 51.2902 132.029C51.5629 131.994 51.7841 131.968 51.9536 131.95C52.125 131.931 52.2497 131.898 52.3276 131.854C52.4075 131.809 52.4475 131.731 52.4475 131.62V131.596C52.4475 131.308 52.3685 131.084 52.2107 130.924C52.0549 130.764 51.8182 130.685 51.5006 130.685C51.1713 130.685 50.9132 130.757 50.7261 130.901C50.5391 131.045 50.4076 131.199 50.3316 131.363L49.677 131.129C49.7939 130.856 49.9497 130.644 50.1446 130.492C50.3413 130.338 50.5557 130.231 50.7875 130.17C51.0213 130.108 51.2512 130.077 51.4772 130.077C51.6214 130.077 51.787 130.094 51.974 130.129C52.163 130.162 52.3452 130.232 52.5205 130.337C52.6978 130.442 52.8449 130.601 52.9618 130.813C53.0787 131.026 53.1371 131.31 53.1371 131.667V134.624H52.4475V134.016H52.4124C52.3656 134.114 52.2877 134.218 52.1786 134.329C52.0695 134.44 51.9243 134.534 51.7431 134.612C51.562 134.69 51.3408 134.729 51.0797 134.729ZM51.185 134.11C51.4577 134.11 51.6876 134.056 51.8747 133.949C52.0636 133.842 52.2059 133.703 52.3013 133.534C52.3987 133.364 52.4475 133.186 52.4475 132.999V132.368C52.4182 132.403 52.3539 132.435 52.2546 132.464C52.1572 132.492 52.0442 132.516 51.9156 132.537C51.7889 132.557 51.6652 132.574 51.5444 132.59C51.4256 132.604 51.3291 132.615 51.2551 132.625C51.0759 132.648 50.9083 132.686 50.7524 132.739C50.5985 132.79 50.4738 132.867 50.3784 132.97C50.2848 133.071 50.2381 133.21 50.2381 133.385C50.2381 133.625 50.3267 133.806 50.504 133.928C50.6833 134.049 50.9102 134.11 51.185 134.11ZM56.3482 130.135V130.72H54.0219V130.135H56.3482ZM54.6999 129.06H55.3896V133.338C55.3896 133.533 55.4179 133.679 55.4744 133.777C55.5328 133.872 55.6069 133.936 55.6965 133.969C55.7881 134.001 55.8845 134.016 55.9858 134.016C56.0618 134.016 56.1241 134.012 56.1728 134.004C56.2215 133.995 56.2605 133.987 56.2897 133.981L56.43 134.601C56.3833 134.618 56.318 134.636 56.2342 134.653C56.1504 134.673 56.0443 134.682 55.9157 134.682C55.7208 134.682 55.5299 134.641 55.3429 134.557C55.1578 134.473 55.0039 134.345 54.8811 134.174C54.7603 134.003 54.6999 133.786 54.6999 133.525V129.06ZM57.3856 134.624V130.135H58.0753V134.624H57.3856ZM57.7363 129.387C57.6019 129.387 57.486 129.341 57.3886 129.25C57.2931 129.158 57.2454 129.048 57.2454 128.919C57.2454 128.791 57.2931 128.681 57.3886 128.589C57.486 128.498 57.6019 128.452 57.7363 128.452C57.8708 128.452 57.9857 128.498 58.0812 128.589C58.1786 128.681 58.2273 128.791 58.2273 128.919C58.2273 129.048 58.1786 129.158 58.0812 129.25C57.9857 129.341 57.8708 129.387 57.7363 129.387ZM62.5182 131.14L61.8986 131.316C61.8597 131.213 61.8022 131.112 61.7262 131.015C61.6522 130.915 61.5509 130.834 61.4223 130.769C61.2937 130.705 61.1291 130.673 60.9284 130.673C60.6537 130.673 60.4248 130.736 60.2416 130.863C60.0604 130.988 59.9698 131.146 59.9698 131.339C59.9698 131.511 60.0322 131.646 60.1569 131.745C60.2816 131.845 60.4764 131.928 60.7413 131.994L61.4077 132.157C61.809 132.255 62.1081 132.404 62.3049 132.605C62.5016 132.803 62.6 133.06 62.6 133.373C62.6 133.63 62.526 133.86 62.3779 134.063C62.2318 134.266 62.0272 134.425 61.7642 134.542C61.5012 134.659 61.1953 134.718 60.8466 134.718C60.3887 134.718 60.0098 134.618 59.7097 134.419C59.4097 134.221 59.2197 133.93 59.1399 133.549L59.7945 133.385C59.8568 133.626 59.9747 133.808 60.1481 133.928C60.3234 134.049 60.5524 134.11 60.8349 134.11C61.1563 134.11 61.4116 134.041 61.6005 133.905C61.7915 133.767 61.8869 133.601 61.8869 133.408C61.8869 133.252 61.8324 133.122 61.7233 133.017C61.6142 132.91 61.4466 132.83 61.2206 132.777L60.4725 132.602C60.0614 132.504 59.7594 132.353 59.5665 132.149C59.3756 131.942 59.2801 131.684 59.2801 131.374C59.2801 131.121 59.3512 130.897 59.4935 130.702C59.6376 130.507 59.8334 130.354 60.0809 130.243C60.3303 130.132 60.6128 130.077 60.9284 130.077C61.3726 130.077 61.7213 130.174 61.9746 130.369C62.2298 130.564 62.411 130.821 62.5182 131.14ZM65.6372 130.135V130.72H63.2174V130.135H65.6372ZM63.9422 134.624V129.516C63.9422 129.258 64.0026 129.044 64.1233 128.873C64.2441 128.701 64.401 128.573 64.5939 128.487C64.7867 128.401 64.9903 128.358 65.2047 128.358C65.3742 128.358 65.5125 128.372 65.6196 128.399C65.7268 128.426 65.8067 128.452 65.8593 128.475L65.6606 129.071C65.6255 129.06 65.5768 129.045 65.5144 129.028C65.454 129.01 65.3742 129.001 65.2748 129.001C65.0468 129.001 64.8822 129.059 64.7809 129.174C64.6815 129.289 64.6319 129.457 64.6319 129.679V134.624H63.9422ZM66.6038 134.624V130.135H67.2935V134.624H66.6038ZM66.9545 129.387C66.82 129.387 66.7041 129.341 66.6067 129.25C66.5112 129.158 66.4635 129.048 66.4635 128.919C66.4635 128.791 66.5112 128.681 66.6067 128.589C66.7041 128.498 66.82 128.452 66.9545 128.452C67.0889 128.452 67.2038 128.498 67.2993 128.589C67.3967 128.681 67.4454 128.791 67.4454 128.919C67.4454 129.048 67.3967 129.158 67.2993 129.25C67.2038 129.341 67.0889 129.387 66.9545 129.387ZM70.4387 134.718C70.0062 134.718 69.6331 134.622 69.3195 134.431C69.0077 134.238 68.7671 133.969 68.5976 133.625C68.4301 133.278 68.3463 132.874 68.3463 132.415C68.3463 131.955 68.4301 131.55 68.5976 131.199C68.7671 130.846 69.0029 130.572 69.3048 130.375C69.6088 130.176 69.9634 130.077 70.3686 130.077C70.6024 130.077 70.8333 130.116 71.0612 130.194C71.2892 130.272 71.4967 130.398 71.6837 130.574C71.8707 130.747 72.0198 130.977 72.1308 131.263C72.2419 131.55 72.2974 131.902 72.2974 132.321V132.613H68.8372V132.017H71.596C71.596 131.764 71.5454 131.538 71.4441 131.339C71.3447 131.14 71.2025 130.984 71.0174 130.869C70.8343 130.754 70.618 130.696 70.3686 130.696C70.0939 130.696 69.8562 130.764 69.6555 130.901C69.4568 131.035 69.3039 131.211 69.1967 131.427C69.0896 131.643 69.036 131.875 69.036 132.122V132.52C69.036 132.859 69.0944 133.146 69.2113 133.382C69.3302 133.616 69.4948 133.794 69.7052 133.917C69.9156 134.038 70.1601 134.098 70.4387 134.098C70.6199 134.098 70.7836 134.073 70.9297 134.022C71.0778 133.969 71.2054 133.891 71.3126 133.788C71.4197 133.683 71.5025 133.552 71.561 133.397L72.2273 133.584C72.1571 133.81 72.0393 134.008 71.8737 134.18C71.7081 134.349 71.5035 134.482 71.26 134.577C71.0164 134.671 70.7427 134.718 70.4387 134.718ZM75.0416 134.718C74.6675 134.718 74.3373 134.623 74.0509 134.434C73.7645 134.243 73.5404 133.974 73.3787 133.627C73.217 133.279 73.1362 132.867 73.1362 132.391C73.1362 131.92 73.217 131.511 73.3787 131.164C73.5404 130.817 73.7655 130.549 74.0538 130.36C74.3422 130.171 74.6753 130.077 75.0533 130.077C75.3455 130.077 75.5764 130.125 75.7459 130.223C75.9173 130.318 76.0479 130.427 76.1375 130.55C76.2291 130.671 76.3002 130.77 76.3508 130.848H76.4093V128.639H77.099V134.624H76.4327V133.934H76.3508C76.3002 134.016 76.2281 134.119 76.1346 134.244C76.0411 134.367 75.9076 134.477 75.7342 134.574C75.5608 134.67 75.3299 134.718 75.0416 134.718ZM75.1351 134.098C75.4118 134.098 75.6456 134.026 75.8365 133.882C76.0274 133.736 76.1726 133.534 76.2719 133.277C76.3713 133.018 76.421 132.719 76.421 132.38C76.421 132.044 76.3723 131.751 76.2749 131.5C76.1774 131.247 76.0333 131.05 75.8423 130.91C75.6514 130.767 75.4157 130.696 75.1351 130.696C74.8429 130.696 74.5993 130.771 74.4045 130.921C74.2116 131.069 74.0665 131.271 73.9691 131.526C73.8736 131.78 73.8259 132.064 73.8259 132.38C73.8259 132.699 73.8746 132.989 73.972 133.25C74.0713 133.51 74.2175 133.716 74.4103 133.87C74.6052 134.022 74.8468 134.098 75.1351 134.098Z" fill="#999999"/>
<path d="M163.531 128.639L165.308 133.677H165.378L167.155 128.639H167.915L165.717 134.624H164.969L162.771 128.639H163.531ZM170.218 134.718C169.785 134.718 169.412 134.622 169.099 134.431C168.787 134.238 168.546 133.969 168.377 133.625C168.209 133.278 168.125 132.874 168.125 132.415C168.125 131.955 168.209 131.55 168.377 131.199C168.546 130.846 168.782 130.572 169.084 130.375C169.388 130.176 169.742 130.077 170.148 130.077C170.382 130.077 170.612 130.116 170.84 130.194C171.068 130.272 171.276 130.398 171.463 130.574C171.65 130.747 171.799 130.977 171.91 131.263C172.021 131.55 172.077 131.902 172.077 132.321V132.613H168.616V132.017H171.375C171.375 131.764 171.325 131.538 171.223 131.339C171.124 131.14 170.982 130.984 170.797 130.869C170.613 130.754 170.397 130.696 170.148 130.696C169.873 130.696 169.635 130.764 169.435 130.901C169.236 131.035 169.083 131.211 168.976 131.427C168.869 131.643 168.815 131.875 168.815 132.122V132.52C168.815 132.859 168.874 133.146 168.99 133.382C169.109 133.616 169.274 133.794 169.484 133.917C169.695 134.038 169.939 134.098 170.218 134.098C170.399 134.098 170.563 134.073 170.709 134.022C170.857 133.969 170.985 133.891 171.092 133.788C171.199 133.683 171.282 133.552 171.34 133.397L172.006 133.584C171.936 133.81 171.818 134.008 171.653 134.18C171.487 134.349 171.283 134.482 171.039 134.577C170.796 134.671 170.522 134.718 170.218 134.718ZM173.126 134.624V130.135H173.792V130.813H173.839C173.921 130.591 174.069 130.411 174.283 130.273C174.497 130.134 174.739 130.065 175.008 130.065C175.058 130.065 175.122 130.066 175.198 130.068C175.274 130.07 175.331 130.073 175.37 130.077V130.778C175.347 130.772 175.293 130.763 175.209 130.752C175.128 130.738 175.041 130.731 174.949 130.731C174.731 130.731 174.536 130.777 174.365 130.869C174.195 130.958 174.061 131.083 173.962 131.243C173.864 131.401 173.815 131.581 173.815 131.783V134.624H173.126ZM176.769 136.307C176.652 136.307 176.547 136.298 176.456 136.278C176.364 136.261 176.301 136.243 176.266 136.226L176.441 135.618C176.609 135.661 176.757 135.676 176.885 135.664C177.014 135.653 177.128 135.595 177.227 135.492C177.329 135.391 177.421 135.226 177.505 134.998L177.634 134.647L175.974 130.135H176.722L177.961 133.712H178.008L179.247 130.135H179.995L178.089 135.279C178.004 135.51 177.898 135.702 177.771 135.854C177.644 136.008 177.497 136.122 177.33 136.196C177.164 136.27 176.977 136.307 176.769 136.307ZM186.399 131.14L185.78 131.316C185.741 131.213 185.683 131.112 185.607 131.015C185.533 130.915 185.432 130.834 185.304 130.769C185.175 130.705 185.01 130.673 184.81 130.673C184.535 130.673 184.306 130.736 184.123 130.863C183.942 130.988 183.851 131.146 183.851 131.339C183.851 131.511 183.913 131.646 184.038 131.745C184.163 131.845 184.358 131.928 184.623 131.994L185.289 132.157C185.69 132.255 185.989 132.404 186.186 132.605C186.383 132.803 186.481 133.06 186.481 133.373C186.481 133.63 186.407 133.86 186.259 134.063C186.113 134.266 185.908 134.425 185.645 134.542C185.382 134.659 185.077 134.718 184.728 134.718C184.27 134.718 183.891 134.618 183.591 134.419C183.291 134.221 183.101 133.93 183.021 133.549L183.676 133.385C183.738 133.626 183.856 133.808 184.029 133.928C184.205 134.049 184.434 134.11 184.716 134.11C185.038 134.11 185.293 134.041 185.482 133.905C185.673 133.767 185.768 133.601 185.768 133.408C185.768 133.252 185.714 133.122 185.605 133.017C185.495 132.91 185.328 132.83 185.102 132.777L184.354 132.602C183.943 132.504 183.641 132.353 183.448 132.149C183.257 131.942 183.161 131.684 183.161 131.374C183.161 131.121 183.232 130.897 183.375 130.702C183.519 130.507 183.715 130.354 183.962 130.243C184.212 130.132 184.494 130.077 184.81 130.077C185.254 130.077 185.603 130.174 185.856 130.369C186.111 130.564 186.292 130.821 186.399 131.14ZM188.84 134.729C188.556 134.729 188.298 134.676 188.066 134.568C187.834 134.459 187.65 134.303 187.514 134.098C187.377 133.891 187.309 133.642 187.309 133.35C187.309 133.093 187.36 132.884 187.461 132.724C187.562 132.563 187.698 132.436 187.867 132.345C188.037 132.253 188.224 132.185 188.428 132.14C188.635 132.093 188.842 132.056 189.051 132.029C189.324 131.994 189.545 131.968 189.714 131.95C189.886 131.931 190.01 131.898 190.088 131.854C190.168 131.809 190.208 131.731 190.208 131.62V131.596C190.208 131.308 190.129 131.084 189.971 130.924C189.816 130.764 189.579 130.685 189.261 130.685C188.932 130.685 188.674 130.757 188.487 130.901C188.3 131.045 188.168 131.199 188.092 131.363L187.438 131.129C187.555 130.856 187.71 130.644 187.905 130.492C188.102 130.338 188.316 130.231 188.548 130.17C188.782 130.108 189.012 130.077 189.238 130.077C189.382 130.077 189.548 130.094 189.735 130.129C189.924 130.162 190.106 130.232 190.281 130.337C190.458 130.442 190.606 130.601 190.722 130.813C190.839 131.026 190.898 131.31 190.898 131.667V134.624H190.208V134.016H190.173C190.126 134.114 190.048 134.218 189.939 134.329C189.83 134.44 189.685 134.534 189.504 134.612C189.323 134.69 189.101 134.729 188.84 134.729ZM188.946 134.11C189.218 134.11 189.448 134.056 189.635 133.949C189.824 133.842 189.967 133.703 190.062 133.534C190.159 133.364 190.208 133.186 190.208 132.999V132.368C190.179 132.403 190.115 132.435 190.015 132.464C189.918 132.492 189.805 132.516 189.676 132.537C189.55 132.557 189.426 132.574 189.305 132.59C189.186 132.604 189.09 132.615 189.016 132.625C188.837 132.648 188.669 132.686 188.513 132.739C188.359 132.79 188.235 132.867 188.139 132.97C188.046 133.071 187.999 133.21 187.999 133.385C187.999 133.625 188.087 133.806 188.265 133.928C188.444 134.049 188.671 134.11 188.946 134.11ZM194.109 130.135V130.72H191.783V130.135H194.109ZM192.461 129.06H193.15V133.338C193.15 133.533 193.179 133.679 193.235 133.777C193.293 133.872 193.368 133.936 193.457 133.969C193.549 134.001 193.645 134.016 193.746 134.016C193.822 134.016 193.885 134.012 193.934 134.004C193.982 133.995 194.021 133.987 194.05 133.981L194.191 134.601C194.144 134.618 194.079 134.636 193.995 134.653C193.911 134.673 193.805 134.682 193.676 134.682C193.482 134.682 193.291 134.641 193.104 134.557C192.918 134.473 192.765 134.345 192.642 134.174C192.521 134.003 192.461 133.786 192.461 133.525V129.06ZM195.146 134.624V130.135H195.836V134.624H195.146ZM195.497 129.387C195.363 129.387 195.247 129.341 195.149 129.25C195.054 129.158 195.006 129.048 195.006 128.919C195.006 128.791 195.054 128.681 195.149 128.589C195.247 128.498 195.363 128.452 195.497 128.452C195.631 128.452 195.746 128.498 195.842 128.589C195.939 128.681 195.988 128.791 195.988 128.919C195.988 129.048 195.939 129.158 195.842 129.25C195.746 129.341 195.631 129.387 195.497 129.387ZM200.279 131.14L199.659 131.316C199.62 131.213 199.563 131.112 199.487 131.015C199.413 130.915 199.312 130.834 199.183 130.769C199.054 130.705 198.89 130.673 198.689 130.673C198.414 130.673 198.185 130.736 198.002 130.863C197.821 130.988 197.73 131.146 197.73 131.339C197.73 131.511 197.793 131.646 197.918 131.745C198.042 131.845 198.237 131.928 198.502 131.994L199.168 132.157C199.57 132.255 199.869 132.404 200.066 132.605C200.262 132.803 200.361 133.06 200.361 133.373C200.361 133.63 200.287 133.86 200.139 134.063C199.992 134.266 199.788 134.425 199.525 134.542C199.262 134.659 198.956 134.718 198.607 134.718C198.149 134.718 197.77 134.618 197.47 134.419C197.17 134.221 196.98 133.93 196.901 133.549L197.555 133.385C197.617 133.626 197.735 133.808 197.909 133.928C198.084 134.049 198.313 134.11 198.596 134.11C198.917 134.11 199.172 134.041 199.361 133.905C199.552 133.767 199.648 133.601 199.648 133.408C199.648 133.252 199.593 133.122 199.484 133.017C199.375 132.91 199.207 132.83 198.981 132.777L198.233 132.602C197.822 132.504 197.52 132.353 197.327 132.149C197.136 131.942 197.041 131.684 197.041 131.374C197.041 131.121 197.112 130.897 197.254 130.702C197.398 130.507 197.594 130.354 197.842 130.243C198.091 130.132 198.373 130.077 198.689 130.077C199.133 130.077 199.482 130.174 199.735 130.369C199.991 130.564 200.172 130.821 200.279 131.14ZM203.398 130.135V130.72H200.978V130.135H203.398ZM201.703 134.624V129.516C201.703 129.258 201.763 129.044 201.884 128.873C202.005 128.701 202.162 128.573 202.355 128.487C202.547 128.401 202.751 128.358 202.965 128.358C203.135 128.358 203.273 128.372 203.38 128.399C203.487 128.426 203.567 128.452 203.62 128.475L203.421 129.071C203.386 129.06 203.337 129.045 203.275 129.028C203.215 129.01 203.135 129.001 203.035 129.001C202.808 129.001 202.643 129.059 202.542 129.174C202.442 129.289 202.393 129.457 202.393 129.679V134.624H201.703ZM204.364 134.624V130.135H205.054V134.624H204.364ZM204.715 129.387C204.581 129.387 204.465 129.341 204.367 129.25C204.272 129.158 204.224 129.048 204.224 128.919C204.224 128.791 204.272 128.681 204.367 128.589C204.465 128.498 204.581 128.452 204.715 128.452C204.85 128.452 204.965 128.498 205.06 128.589C205.157 128.681 205.206 128.791 205.206 128.919C205.206 129.048 205.157 129.158 205.06 129.25C204.965 129.341 204.85 129.387 204.715 129.387ZM208.199 134.718C207.767 134.718 207.394 134.622 207.08 134.431C206.768 134.238 206.528 133.969 206.358 133.625C206.191 133.278 206.107 132.874 206.107 132.415C206.107 131.955 206.191 131.55 206.358 131.199C206.528 130.846 206.764 130.572 207.066 130.375C207.369 130.176 207.724 130.077 208.129 130.077C208.363 130.077 208.594 130.116 208.822 130.194C209.05 130.272 209.257 130.398 209.444 130.574C209.631 130.747 209.78 130.977 209.892 131.263C210.003 131.55 210.058 131.902 210.058 132.321V132.613H206.598V132.017H209.357C209.357 131.764 209.306 131.538 209.205 131.339C209.105 131.14 208.963 130.984 208.778 130.869C208.595 130.754 208.379 130.696 208.129 130.696C207.855 130.696 207.617 130.764 207.416 130.901C207.217 131.035 207.065 131.211 206.957 131.427C206.85 131.643 206.797 131.875 206.797 132.122V132.52C206.797 132.859 206.855 133.146 206.972 133.382C207.091 133.616 207.255 133.794 207.466 133.917C207.676 134.038 207.921 134.098 208.199 134.098C208.381 134.098 208.544 134.073 208.69 134.022C208.838 133.969 208.966 133.891 209.073 133.788C209.18 133.683 209.263 133.552 209.322 133.397L209.988 133.584C209.918 133.81 209.8 134.008 209.634 134.18C209.469 134.349 209.264 134.482 209.021 134.577C208.777 134.671 208.503 134.718 208.199 134.718ZM212.802 134.718C212.428 134.718 212.098 134.623 211.812 134.434C211.525 134.243 211.301 133.974 211.139 133.627C210.978 133.279 210.897 132.867 210.897 132.391C210.897 131.92 210.978 131.511 211.139 131.164C211.301 130.817 211.526 130.549 211.814 130.36C212.103 130.171 212.436 130.077 212.814 130.077C213.106 130.077 213.337 130.125 213.507 130.223C213.678 130.318 213.809 130.427 213.898 130.55C213.99 130.671 214.061 130.77 214.112 130.848H214.17V128.639H214.86V134.624H214.193V133.934H214.112C214.061 134.016 213.989 134.119 213.895 134.244C213.802 134.367 213.668 134.477 213.495 134.574C213.321 134.67 213.091 134.718 212.802 134.718ZM212.896 134.098C213.172 134.098 213.406 134.026 213.597 133.882C213.788 133.736 213.933 133.534 214.033 133.277C214.132 133.018 214.182 132.719 214.182 132.38C214.182 132.044 214.133 131.751 214.036 131.5C213.938 131.247 213.794 131.05 213.603 130.91C213.412 130.767 213.176 130.696 212.896 130.696C212.604 130.696 212.36 130.771 212.165 130.921C211.972 131.069 211.827 131.271 211.73 131.526C211.634 131.78 211.587 132.064 211.587 132.38C211.587 132.699 211.635 132.989 211.733 133.25C211.832 133.51 211.978 133.716 212.171 133.87C212.366 134.022 212.607 134.098 212.896 134.098Z" fill="#999999"/>
<path d="M69.9513 160.731V154.746H71.9736C72.4431 154.746 72.8269 154.831 73.125 155.001C73.4251 155.168 73.6472 155.395 73.7913 155.681C73.9355 155.968 74.0076 156.287 74.0076 156.64C74.0076 156.993 73.9355 157.313 73.7913 157.602C73.6491 157.89 73.429 158.12 73.1309 158.291C72.8328 158.461 72.4509 158.545 71.9853 158.545H70.5357V157.903H71.9619C72.2834 157.903 72.5415 157.847 72.7363 157.736C72.9312 157.625 73.0724 157.475 73.1601 157.286C73.2497 157.095 73.2945 156.88 73.2945 156.64C73.2945 156.4 73.2497 156.186 73.1601 155.997C73.0724 155.808 72.9302 155.66 72.7334 155.553C72.5366 155.444 72.2756 155.389 71.9502 155.389H70.676V160.731H69.9513ZM76.857 160.825C76.4517 160.825 76.0962 160.729 75.7903 160.536C75.4864 160.343 75.2487 160.073 75.0772 159.726C74.9077 159.379 74.823 158.974 74.823 158.51C74.823 158.043 74.9077 157.635 75.0772 157.286C75.2487 156.937 75.4864 156.666 75.7903 156.473C76.0962 156.281 76.4517 156.184 76.857 156.184C77.2622 156.184 77.6168 156.281 77.9208 156.473C78.2266 156.666 78.4643 156.937 78.6338 157.286C78.8053 157.635 78.891 158.043 78.891 158.51C78.891 158.974 78.8053 159.379 78.6338 159.726C78.4643 160.073 78.2266 160.343 77.9208 160.536C77.6168 160.729 77.2622 160.825 76.857 160.825ZM76.857 160.205C77.1648 160.205 77.4181 160.126 77.6168 159.969C77.8155 159.811 77.9626 159.603 78.0581 159.346C78.1536 159.089 78.2013 158.81 78.2013 158.51C78.2013 158.21 78.1536 157.931 78.0581 157.672C77.9626 157.413 77.8155 157.203 77.6168 157.043C77.4181 156.884 77.1648 156.804 76.857 156.804C76.5492 156.804 76.2959 156.884 76.0971 157.043C75.8984 157.203 75.7513 157.413 75.6559 157.672C75.5604 157.931 75.5127 158.21 75.5127 158.51C75.5127 158.81 75.5604 159.089 75.6559 159.346C75.7513 159.603 75.8984 159.811 76.0971 159.969C76.2959 160.126 76.5492 160.205 76.857 160.205ZM80.8081 160.731L79.4404 156.243H80.1652L81.1354 159.679H81.1822L82.1408 156.243H82.8772L83.8241 159.668H83.8708L84.8411 156.243H85.5659L84.1982 160.731H83.5202L82.5382 157.283H82.4681L81.4861 160.731H80.8081ZM88.207 160.825C87.7745 160.825 87.4014 160.729 87.0877 160.539C86.776 160.346 86.5354 160.077 86.3659 159.732C86.1983 159.385 86.1146 158.982 86.1146 158.522C86.1146 158.062 86.1983 157.657 86.3659 157.306C86.5354 156.954 86.7711 156.679 87.0731 156.482C87.377 156.283 87.7316 156.184 88.1369 156.184C88.3707 156.184 88.6016 156.223 88.8295 156.301C89.0575 156.379 89.2649 156.506 89.452 156.681C89.639 156.854 89.7881 157.084 89.8991 157.371C90.0102 157.657 90.0657 158.01 90.0657 158.429V158.721H86.6055V158.125H89.3643C89.3643 157.871 89.3137 157.645 89.2123 157.447C89.113 157.248 88.9708 157.091 88.7857 156.976C88.6025 156.861 88.3863 156.804 88.1369 156.804C87.8622 156.804 87.6245 156.872 87.4238 157.008C87.2251 157.143 87.0721 157.318 86.965 157.534C86.8578 157.751 86.8043 157.982 86.8043 158.23V158.627C86.8043 158.966 86.8627 159.254 86.9796 159.489C87.0984 159.723 87.2631 159.901 87.4735 160.024C87.6839 160.145 87.9284 160.205 88.207 160.205C88.3882 160.205 88.5519 160.18 88.698 160.129C88.8461 160.077 88.9737 159.999 89.0808 159.896C89.188 159.79 89.2708 159.66 89.3292 159.504L89.9956 159.691C89.9254 159.917 89.8075 160.116 89.6419 160.287C89.4763 160.457 89.2718 160.589 89.0282 160.685C88.7847 160.778 88.511 160.825 88.207 160.825ZM91.1149 160.731V156.243H91.7812V156.921H91.8279C91.9098 156.698 92.0578 156.518 92.2721 156.38C92.4865 156.242 92.728 156.172 92.9969 156.172C93.0476 156.172 93.1109 156.173 93.1869 156.175C93.2628 156.177 93.3203 156.18 93.3593 156.184V156.886C93.3359 156.88 93.2823 156.871 93.1986 156.859C93.1167 156.846 93.03 156.839 92.9385 156.839C92.7202 156.839 92.5254 156.885 92.354 156.976C92.1845 157.066 92.05 157.19 91.9507 157.35C91.8533 157.508 91.8045 157.688 91.8045 157.891V160.731H91.1149ZM95.9223 160.825C95.4897 160.825 95.1167 160.729 94.803 160.539C94.4912 160.346 94.2506 160.077 94.0811 159.732C93.9136 159.385 93.8298 158.982 93.8298 158.522C93.8298 158.062 93.9136 157.657 94.0811 157.306C94.2506 156.954 94.4864 156.679 94.7884 156.482C95.0923 156.283 95.4469 156.184 95.8521 156.184C96.0859 156.184 96.3168 156.223 96.5448 156.301C96.7727 156.379 96.9802 156.506 97.1672 156.681C97.3543 156.854 97.5033 157.084 97.6144 157.371C97.7254 157.657 97.7809 158.01 97.7809 158.429V158.721H94.3208V158.125H97.0796C97.0796 157.871 97.0289 157.645 96.9276 157.447C96.8282 157.248 96.686 157.091 96.5009 156.976C96.3178 156.861 96.1015 156.804 95.8521 156.804C95.5774 156.804 95.3397 156.872 95.1391 157.008C94.9403 157.143 94.7874 157.318 94.6802 157.534C94.5731 157.751 94.5195 157.982 94.5195 158.23V158.627C94.5195 158.966 94.5779 159.254 94.6948 159.489C94.8137 159.723 94.9783 159.901 95.1887 160.024C95.3992 160.145 95.6437 160.205 95.9223 160.205C96.1035 160.205 96.2671 160.18 96.4132 160.129C96.5613 160.077 96.6889 159.999 96.7961 159.896C96.9032 159.79 96.986 159.66 97.0445 159.504L97.7108 159.691C97.6407 159.917 97.5228 160.116 97.3572 160.287C97.1916 160.457 96.987 160.589 96.7435 160.685C96.4999 160.778 96.2262 160.825 95.9223 160.825ZM100.525 160.825C100.151 160.825 99.8208 160.73 99.5344 160.541C99.248 160.351 99.024 160.082 98.8622 159.735C98.7005 159.386 98.6197 158.974 98.6197 158.499C98.6197 158.027 98.7005 157.618 98.8622 157.271C99.024 156.924 99.249 156.657 99.5373 156.468C99.8257 156.279 100.159 156.184 100.537 156.184C100.829 156.184 101.06 156.233 101.229 156.33C101.401 156.426 101.531 156.535 101.621 156.658C101.713 156.778 101.784 156.878 101.834 156.956H101.893V154.746H102.583V160.731H101.916V160.042H101.834C101.784 160.124 101.712 160.227 101.618 160.352C101.525 160.474 101.391 160.584 101.218 160.682C101.044 160.777 100.813 160.825 100.525 160.825ZM100.619 160.205C100.895 160.205 101.129 160.133 101.32 159.989C101.511 159.843 101.656 159.641 101.755 159.384C101.855 159.125 101.905 158.826 101.905 158.487C101.905 158.152 101.856 157.859 101.758 157.607C101.661 157.354 101.517 157.157 101.326 157.017C101.135 156.875 100.899 156.804 100.619 156.804C100.326 156.804 100.083 156.879 99.888 157.029C99.6951 157.177 99.55 157.378 99.4526 157.634C99.3571 157.887 99.3094 158.171 99.3094 158.487C99.3094 158.807 99.3581 159.097 99.4555 159.358C99.5549 159.617 99.701 159.824 99.8939 159.977C100.089 160.129 100.33 160.205 100.619 160.205ZM106.35 160.731V154.746H107.039V156.956H107.098C107.148 156.878 107.218 156.778 107.308 156.658C107.4 156.535 107.53 156.426 107.7 156.33C107.871 156.233 108.103 156.184 108.395 156.184C108.773 156.184 109.106 156.279 109.395 156.468C109.683 156.657 109.908 156.924 110.07 157.271C110.232 157.618 110.312 158.027 110.312 158.499C110.312 158.974 110.232 159.386 110.07 159.735C109.908 160.082 109.684 160.351 109.398 160.541C109.111 160.73 108.781 160.825 108.407 160.825C108.119 160.825 107.888 160.777 107.714 160.682C107.541 160.584 107.407 160.474 107.314 160.352C107.22 160.227 107.148 160.124 107.098 160.042H107.016V160.731H106.35ZM107.028 158.487C107.028 158.826 107.077 159.125 107.177 159.384C107.276 159.641 107.421 159.843 107.612 159.989C107.803 160.133 108.037 160.205 108.313 160.205C108.602 160.205 108.842 160.129 109.035 159.977C109.23 159.824 109.376 159.617 109.474 159.358C109.573 159.097 109.623 158.807 109.623 158.487C109.623 158.171 109.574 157.887 109.477 157.634C109.381 157.378 109.236 157.177 109.041 157.029C108.848 156.879 108.606 156.804 108.313 156.804C108.033 156.804 107.797 156.875 107.606 157.017C107.415 157.157 107.271 157.354 107.174 157.607C107.076 157.859 107.028 158.152 107.028 158.487ZM111.651 162.415C111.534 162.415 111.43 162.405 111.338 162.386C111.247 162.368 111.183 162.35 111.148 162.333L111.324 161.725C111.491 161.768 111.639 161.784 111.768 161.772C111.896 161.76 112.01 161.703 112.11 161.599C112.211 161.498 112.304 161.333 112.387 161.106L112.516 160.755L110.856 156.243H111.604L112.843 159.82H112.89L114.129 156.243H114.877L112.972 161.386C112.886 161.618 112.78 161.81 112.653 161.962C112.527 162.116 112.38 162.23 112.212 162.304C112.046 162.378 111.859 162.415 111.651 162.415Z" fill="#575656"/>
<path d="M118.058 160.731V156.243H118.932V160.731H118.058ZM118.5 155.55C118.348 155.55 118.217 155.499 118.108 155.398C118.001 155.295 117.947 155.172 117.947 155.03C117.947 154.886 118.001 154.763 118.108 154.662C118.217 154.558 118.348 154.507 118.5 154.507C118.652 154.507 118.781 154.558 118.888 154.662C118.997 154.763 119.052 154.886 119.052 155.03C119.052 155.172 118.997 155.295 118.888 155.398C118.781 155.499 118.652 155.55 118.5 155.55ZM120.981 158.066V160.731H120.108V156.243H120.946V156.973H121.002C121.105 156.735 121.267 156.545 121.487 156.4C121.709 156.256 121.989 156.184 122.326 156.184C122.632 156.184 122.9 156.248 123.129 156.377C123.359 156.504 123.538 156.693 123.664 156.944C123.791 157.195 123.854 157.506 123.854 157.876V160.731H122.98V157.981C122.98 157.656 122.896 157.402 122.726 157.219C122.557 157.034 122.324 156.941 122.028 156.941C121.825 156.941 121.645 156.985 121.487 157.073C121.331 157.16 121.207 157.289 121.116 157.458C121.026 157.626 120.981 157.828 120.981 158.066ZM127.122 156.243V156.944H124.67V156.243H127.122ZM125.327 155.167H126.201V159.413C126.201 159.583 126.226 159.711 126.277 159.796C126.328 159.88 126.393 159.938 126.473 159.969C126.555 159.998 126.643 160.013 126.739 160.013C126.809 160.013 126.87 160.008 126.923 159.998C126.975 159.988 127.016 159.98 127.046 159.975L127.203 160.696C127.153 160.716 127.081 160.735 126.987 160.755C126.894 160.776 126.777 160.788 126.636 160.79C126.407 160.794 126.192 160.753 125.993 160.667C125.795 160.581 125.634 160.449 125.511 160.27C125.389 160.09 125.327 159.865 125.327 159.595V155.167ZM129.975 160.822C129.532 160.822 129.151 160.728 128.832 160.539C128.514 160.348 128.269 160.08 128.095 159.735C127.924 159.388 127.838 158.982 127.838 158.516C127.838 158.056 127.924 157.651 128.095 157.3C128.269 156.95 128.51 156.676 128.82 156.479C129.132 156.283 129.496 156.184 129.913 156.184C130.166 156.184 130.412 156.226 130.65 156.31C130.887 156.394 131.101 156.525 131.29 156.704C131.479 156.884 131.628 157.116 131.737 157.403C131.846 157.687 131.9 158.033 131.9 158.44V158.75H128.332V158.095H131.044C131.044 157.866 130.997 157.662 130.904 157.485C130.81 157.305 130.679 157.164 130.509 157.061C130.342 156.958 130.145 156.906 129.919 156.906C129.674 156.906 129.459 156.966 129.276 157.087C129.095 157.206 128.955 157.362 128.855 157.555C128.758 157.746 128.709 157.953 128.709 158.177V158.689C128.709 158.989 128.762 159.244 128.867 159.454C128.974 159.665 129.123 159.825 129.314 159.937C129.505 160.046 129.728 160.1 129.983 160.1C130.149 160.1 130.3 160.077 130.436 160.03C130.573 159.981 130.691 159.909 130.79 159.814C130.889 159.718 130.965 159.6 131.018 159.46L131.845 159.609C131.779 159.853 131.66 160.066 131.488 160.249C131.319 160.43 131.106 160.572 130.848 160.673C130.593 160.772 130.302 160.822 129.975 160.822ZM134.752 162.508C134.396 162.508 134.089 162.462 133.831 162.368C133.576 162.274 133.368 162.151 133.206 161.997C133.044 161.843 132.924 161.674 132.844 161.491L133.595 161.182C133.647 161.267 133.717 161.358 133.805 161.453C133.895 161.551 134.016 161.634 134.168 161.702C134.321 161.77 134.519 161.804 134.761 161.804C135.092 161.804 135.366 161.723 135.582 161.561C135.798 161.402 135.906 161.146 135.906 160.796V159.913H135.851C135.798 160.009 135.722 160.115 135.623 160.232C135.526 160.349 135.391 160.45 135.22 160.536C135.048 160.621 134.825 160.664 134.55 160.664C134.196 160.664 133.876 160.581 133.592 160.416C133.309 160.248 133.085 160.002 132.92 159.676C132.756 159.349 132.674 158.947 132.674 158.469C132.674 157.992 132.755 157.583 132.917 157.242C133.08 156.901 133.304 156.64 133.589 156.459C133.873 156.276 134.196 156.184 134.556 156.184C134.835 156.184 135.06 156.231 135.231 156.324C135.403 156.416 135.536 156.523 135.632 156.646C135.729 156.769 135.804 156.877 135.857 156.97H135.921V156.243H136.777V160.831C136.777 161.217 136.688 161.533 136.508 161.781C136.329 162.028 136.087 162.211 135.781 162.33C135.477 162.449 135.134 162.508 134.752 162.508ZM134.743 159.939C134.995 159.939 135.207 159.881 135.38 159.764C135.556 159.645 135.688 159.476 135.778 159.256C135.869 159.034 135.915 158.768 135.915 158.458C135.915 158.156 135.87 157.89 135.781 157.66C135.691 157.43 135.56 157.251 135.386 157.122C135.213 156.992 134.999 156.926 134.743 156.926C134.48 156.926 134.261 156.995 134.086 157.131C133.91 157.265 133.778 157.449 133.688 157.68C133.601 157.912 133.557 158.171 133.557 158.458C133.557 158.752 133.602 159.01 133.691 159.232C133.781 159.454 133.913 159.628 134.089 159.752C134.266 159.877 134.484 159.939 134.743 159.939ZM137.949 160.731V156.243H138.794V156.956H138.841C138.922 156.714 139.067 156.524 139.273 156.386C139.482 156.245 139.717 156.175 139.98 156.175C140.035 156.175 140.099 156.177 140.173 156.181C140.249 156.185 140.309 156.19 140.351 156.196V157.032C140.316 157.022 140.254 157.011 140.164 156.999C140.075 156.986 139.985 156.979 139.896 156.979C139.689 156.979 139.505 157.023 139.343 157.111C139.183 157.196 139.057 157.316 138.963 157.47C138.87 157.622 138.823 157.795 138.823 157.99V160.731H137.949ZM142.374 160.831C142.089 160.831 141.832 160.778 141.602 160.673C141.372 160.566 141.19 160.411 141.056 160.208C140.923 160.006 140.857 159.757 140.857 159.463C140.857 159.21 140.906 159.001 141.003 158.838C141.101 158.674 141.232 158.544 141.398 158.449C141.563 158.354 141.748 158.281 141.953 158.233C142.158 158.184 142.366 158.147 142.578 158.122C142.847 158.091 143.065 158.065 143.233 158.046C143.401 158.024 143.522 157.99 143.598 157.943C143.674 157.897 143.712 157.821 143.712 157.715V157.695C143.712 157.44 143.64 157.242 143.496 157.102C143.354 156.961 143.141 156.891 142.859 156.891C142.565 156.891 142.333 156.957 142.163 157.087C141.996 157.216 141.88 157.359 141.816 157.517L140.994 157.33C141.092 157.057 141.234 156.837 141.421 156.669C141.61 156.5 141.827 156.377 142.073 156.301C142.318 156.223 142.576 156.184 142.847 156.184C143.026 156.184 143.216 156.206 143.417 156.248C143.62 156.289 143.809 156.365 143.984 156.476C144.161 156.587 144.306 156.746 144.419 156.953C144.532 157.157 144.589 157.423 144.589 157.751V160.731H143.736V160.118H143.701C143.644 160.231 143.559 160.342 143.446 160.451C143.333 160.56 143.188 160.651 143.011 160.723C142.834 160.795 142.621 160.831 142.374 160.831ZM142.564 160.129C142.805 160.129 143.012 160.082 143.183 159.986C143.357 159.891 143.488 159.766 143.578 159.612C143.669 159.456 143.715 159.29 143.715 159.112V158.534C143.684 158.565 143.624 158.594 143.534 158.621C143.446 158.647 143.346 158.669 143.233 158.689C143.12 158.706 143.01 158.723 142.903 158.738C142.796 158.752 142.706 158.764 142.634 158.773C142.464 158.795 142.309 158.831 142.169 158.882C142.031 158.932 141.92 159.005 141.836 159.101C141.754 159.194 141.713 159.319 141.713 159.475C141.713 159.691 141.793 159.855 141.953 159.966C142.113 160.075 142.316 160.129 142.564 160.129ZM147.889 156.243V156.944H145.352V156.243H147.889ZM146.048 160.731V155.722C146.048 155.442 146.109 155.209 146.232 155.024C146.355 154.837 146.518 154.698 146.72 154.606C146.923 154.512 147.143 154.466 147.381 154.466C147.556 154.466 147.706 154.48 147.831 154.51C147.955 154.537 148.048 154.562 148.108 154.586L147.904 155.293C147.863 155.281 147.81 155.267 147.746 155.252C147.682 155.234 147.604 155.226 147.512 155.226C147.3 155.226 147.148 155.278 147.056 155.383C146.967 155.489 146.922 155.641 146.922 155.839V160.731H146.048ZM149.665 154.746V160.731H148.791V154.746H149.665ZM152.731 160.822C152.31 160.822 151.943 160.726 151.629 160.533C151.315 160.34 151.072 160.07 150.899 159.723C150.725 159.376 150.638 158.971 150.638 158.507C150.638 158.042 150.725 157.635 150.899 157.286C151.072 156.937 151.315 156.666 151.629 156.473C151.943 156.281 152.31 156.184 152.731 156.184C153.152 156.184 153.519 156.281 153.833 156.473C154.146 156.666 154.39 156.937 154.563 157.286C154.737 157.635 154.823 158.042 154.823 158.507C154.823 158.971 154.737 159.376 154.563 159.723C154.39 160.07 154.146 160.34 153.833 160.533C153.519 160.726 153.152 160.822 152.731 160.822ZM152.734 160.089C153.007 160.089 153.233 160.016 153.412 159.872C153.591 159.728 153.724 159.536 153.809 159.297C153.897 159.057 153.941 158.793 153.941 158.505C153.941 158.218 153.897 157.955 153.809 157.715C153.724 157.474 153.591 157.28 153.412 157.134C153.233 156.988 153.007 156.915 152.734 156.915C152.459 156.915 152.231 156.988 152.05 157.134C151.871 157.28 151.737 157.474 151.65 157.715C151.564 157.955 151.521 158.218 151.521 158.505C151.521 158.793 151.564 159.057 151.65 159.297C151.737 159.536 151.871 159.728 152.05 159.872C152.231 160.016 152.459 160.089 152.734 160.089ZM156.635 160.731L155.314 156.243H156.217L157.097 159.539H157.141L158.023 156.243H158.926L159.803 159.524H159.847L160.721 156.243H161.624L160.306 160.731H159.415L158.503 157.49H158.436L157.524 160.731H156.635Z" fill="#050505"/>
</g>
</svg>
