<svg width="222" height="182" viewBox="0 0 222 182" fill="none" xmlns="http://www.w3.org/2000/svg">
<g opacity="0.7">
<rect x="0.904297" y="0.90918" width="221.003" height="189.168" rx="8.03646" fill="white"/>
<path d="M203.824 15.9775L197.797 22.0049" stroke="black" stroke-width="1.00456" stroke-linecap="round" stroke-linejoin="round"/>
<path d="M197.797 15.9775L203.824 22.0049" stroke="black" stroke-width="1.00456" stroke-linecap="round" stroke-linejoin="round"/>
<path d="M15.1921 37.0234L13.1659 29.7176H14.3253L15.7486 35.3753H15.8164L17.2968 29.7176H18.4455L19.926 35.3789H19.9937L21.4135 29.7176H22.5765L20.5467 37.0234H19.4372L17.8997 31.5512H17.8426L16.3051 37.0234H15.1921ZM24.5626 33.77V37.0234H23.496V29.7176H24.5483V32.4359H24.6161C24.7445 32.141 24.9407 31.9067 25.2047 31.7331C25.4687 31.5595 25.8135 31.4727 26.2392 31.4727C26.615 31.4727 26.9432 31.55 27.2238 31.7046C27.5068 31.8591 27.7256 32.0898 27.8802 32.3966C28.0372 32.701 28.1156 33.0815 28.1156 33.5382V37.0234H27.049V33.6666C27.049 33.2647 26.9456 32.9531 26.7387 32.7319C26.5318 32.5084 26.244 32.3966 25.8754 32.3966C25.6233 32.3966 25.3973 32.4501 25.1976 32.5572C25.0002 32.6642 24.8444 32.8211 24.7303 33.028C24.6185 33.2326 24.5626 33.4799 24.5626 33.77ZM31.1336 37.1447C30.7864 37.1447 30.4725 37.0805 30.1918 36.9521C29.9112 36.8213 29.6888 36.6322 29.5247 36.3849C29.363 36.1376 29.2822 35.8343 29.2822 35.4752C29.2822 35.1661 29.3416 34.9116 29.4605 34.7118C29.5794 34.512 29.74 34.3539 29.9421 34.2374C30.1443 34.1208 30.3702 34.0328 30.6199 33.9734C30.8696 33.9139 31.1241 33.8687 31.3833 33.8378C31.7115 33.7998 31.9779 33.7689 32.1824 33.7451C32.3869 33.7189 32.5356 33.6773 32.6283 33.6202C32.7211 33.5631 32.7674 33.4704 32.7674 33.342V33.317C32.7674 33.0054 32.6794 32.7641 32.5034 32.5928C32.3298 32.4216 32.0706 32.336 31.7258 32.336C31.3667 32.336 31.0837 32.4156 30.8767 32.575C30.6722 32.7319 30.5307 32.9067 30.4522 33.0994L29.4498 32.8711C29.5687 32.5381 29.7423 32.2694 29.9706 32.0649C30.2013 31.858 30.4665 31.7081 30.7662 31.6154C31.0658 31.5202 31.3809 31.4727 31.7115 31.4727C31.9303 31.4727 32.1622 31.4988 32.4071 31.5512C32.6545 31.6011 32.8852 31.6939 33.0992 31.8294C33.3156 31.965 33.4928 32.1588 33.6307 32.4109C33.7687 32.6606 33.8376 32.9852 33.8376 33.3848V37.0234H32.796V36.2743H32.7532C32.6842 36.4122 32.5807 36.5478 32.4428 36.681C32.3049 36.8142 32.1277 36.9247 31.9113 37.0127C31.6949 37.1007 31.4356 37.1447 31.1336 37.1447ZM31.3655 36.2886C31.6604 36.2886 31.9125 36.2303 32.1217 36.1138C32.3334 35.9972 32.4939 35.845 32.6033 35.6572C32.7151 35.4669 32.771 35.2636 32.771 35.0471V34.3408C32.7329 34.3789 32.6592 34.4145 32.5498 34.4478C32.4428 34.4787 32.3203 34.5061 32.1824 34.5299C32.0445 34.5513 31.9101 34.5715 31.7793 34.5905C31.6485 34.6072 31.5391 34.6214 31.4511 34.6333C31.2442 34.6595 31.0551 34.7035 30.8839 34.7653C30.715 34.8272 30.5795 34.9163 30.4772 35.0329C30.3773 35.147 30.3274 35.2992 30.3274 35.4895C30.3274 35.7535 30.4249 35.9532 30.6199 36.0888C30.8149 36.222 31.0634 36.2886 31.3655 36.2886ZM37.8161 31.544V32.4002H34.8231V31.544H37.8161ZM35.6257 30.2313H36.6924V35.4146C36.6924 35.6215 36.7233 35.7773 36.7851 35.8819C36.847 35.9842 36.9266 36.0543 37.0241 36.0924C37.124 36.128 37.2322 36.1459 37.3488 36.1459C37.4344 36.1459 37.5093 36.1399 37.5735 36.128C37.6377 36.1161 37.6877 36.1066 37.7233 36.0995L37.916 36.9806C37.8541 37.0044 37.7661 37.0282 37.652 37.052C37.5378 37.0781 37.3951 37.0924 37.2239 37.0948C36.9433 37.0995 36.6817 37.0496 36.4391 36.945C36.1965 36.8403 36.0003 36.6786 35.8505 36.4598C35.7007 36.241 35.6257 35.9663 35.6257 35.6357V30.2313ZM43.7057 37.1305C43.2634 37.1305 42.8686 37.0175 42.5214 36.7916C42.1765 36.5633 41.9054 36.2386 41.708 35.8177C41.513 35.3944 41.4155 34.8866 41.4155 34.2944C41.4155 33.7023 41.5142 33.1957 41.7116 32.7748C41.9114 32.3538 42.1849 32.0316 42.5321 31.808C42.8793 31.5845 43.2729 31.4727 43.7129 31.4727C44.0529 31.4727 44.3264 31.5298 44.5333 31.6439C44.7426 31.7557 44.9043 31.8865 45.0185 32.0363C45.135 32.1861 45.2254 32.3181 45.2896 32.4323H45.3538V29.7176H46.4205V37.0234H45.3788V36.1708H45.2896C45.2254 36.2874 45.1327 36.4206 45.0114 36.5704C44.8925 36.7202 44.7284 36.851 44.5191 36.9628C44.3098 37.0746 44.0387 37.1305 43.7057 37.1305ZM43.9412 36.2208C44.248 36.2208 44.5072 36.1399 44.7188 35.9782C44.9329 35.8141 45.0946 35.587 45.204 35.2969C45.3158 35.0067 45.3717 34.669 45.3717 34.2837C45.3717 33.9032 45.317 33.5703 45.2076 33.2849C45.0982 32.9995 44.9376 32.7771 44.726 32.6178C44.5143 32.4585 44.2527 32.3788 43.9412 32.3788C43.6201 32.3788 43.3526 32.462 43.1385 32.6285C42.9245 32.795 42.7628 33.0221 42.6534 33.3099C42.5463 33.5976 42.4928 33.9222 42.4928 34.2837C42.4928 34.65 42.5475 34.9794 42.6569 35.2719C42.7663 35.5644 42.9281 35.7963 43.1421 35.9675C43.3585 36.1364 43.6249 36.2208 43.9412 36.2208ZM50.2509 37.134C49.7372 37.134 49.2889 37.0163 48.906 36.7809C48.5231 36.5454 48.2258 36.216 48.0142 35.7927C47.8025 35.3694 47.6967 34.8747 47.6967 34.3087C47.6967 33.7403 47.8025 33.2433 48.0142 32.8176C48.2258 32.3919 48.5231 32.0613 48.906 31.8259C49.2889 31.5904 49.7372 31.4727 50.2509 31.4727C50.7646 31.4727 51.2129 31.5904 51.5957 31.8259C51.9786 32.0613 52.2759 32.3919 52.4876 32.8176C52.6992 33.2433 52.8051 33.7403 52.8051 34.3087C52.8051 34.8747 52.6992 35.3694 52.4876 35.7927C52.2759 36.216 51.9786 36.5454 51.5957 36.7809C51.2129 37.0163 50.7646 37.134 50.2509 37.134ZM50.2544 36.2386C50.5874 36.2386 50.8633 36.1506 51.0821 35.9746C51.3009 35.7987 51.4626 35.5644 51.5672 35.2719C51.6742 34.9794 51.7277 34.6571 51.7277 34.3051C51.7277 33.9555 51.6742 33.6345 51.5672 33.342C51.4626 33.0471 51.3009 32.8104 51.0821 32.6321C50.8633 32.4537 50.5874 32.3645 50.2544 32.3645C49.9191 32.3645 49.6409 32.4537 49.4197 32.6321C49.2009 32.8104 49.038 33.0471 48.931 33.342C48.8263 33.6345 48.774 33.9555 48.774 34.3051C48.774 34.6571 48.8263 34.9794 48.931 35.2719C49.038 35.5644 49.2009 35.7987 49.4197 35.9746C49.6409 36.1506 49.9191 36.2386 50.2544 36.2386ZM57.3284 39.0782C57.1691 39.0782 57.024 39.0651 56.8932 39.039C56.7624 39.0152 56.6649 38.989 56.6007 38.9605L56.8575 38.0865C57.0526 38.1388 57.2262 38.1614 57.3784 38.1543C57.5306 38.1471 57.665 38.0901 57.7815 37.983C57.9004 37.876 58.005 37.7012 58.0954 37.4587L58.2274 37.0948L56.2226 31.544H57.3641L58.7518 35.7963H58.8089L60.1966 31.544H61.3417L59.0836 37.7547C58.9789 38.0401 58.8457 38.2815 58.684 38.4789C58.5223 38.6787 58.3297 38.8285 58.1061 38.9284C57.8826 39.0283 57.6233 39.0782 57.3284 39.0782ZM64.4658 37.134C63.9521 37.134 63.5038 37.0163 63.1209 36.7809C62.738 36.5454 62.4407 36.216 62.229 35.7927C62.0174 35.3694 61.9116 34.8747 61.9116 34.3087C61.9116 33.7403 62.0174 33.2433 62.229 32.8176C62.4407 32.3919 62.738 32.0613 63.1209 31.8259C63.5038 31.5904 63.9521 31.4727 64.4658 31.4727C64.9794 31.4727 65.4277 31.5904 65.8106 31.8259C66.1935 32.0613 66.4908 32.3919 66.7025 32.8176C66.9141 33.2433 67.02 33.7403 67.02 34.3087C67.02 34.8747 66.9141 35.3694 66.7025 35.7927C66.4908 36.216 66.1935 36.5454 65.8106 36.7809C65.4277 37.0163 64.9794 37.134 64.4658 37.134ZM64.4693 36.2386C64.8023 36.2386 65.0781 36.1506 65.2969 35.9746C65.5157 35.7987 65.6775 35.5644 65.7821 35.2719C65.8891 34.9794 65.9426 34.6571 65.9426 34.3051C65.9426 33.9555 65.8891 33.6345 65.7821 33.342C65.6775 33.0471 65.5157 32.8104 65.2969 32.6321C65.0781 32.4537 64.8023 32.3645 64.4693 32.3645C64.134 32.3645 63.8557 32.4537 63.6346 32.6321C63.4158 32.8104 63.2529 33.0471 63.1458 33.342C63.0412 33.6345 62.9889 33.9555 62.9889 34.3051C62.9889 34.6571 63.0412 34.9794 63.1458 35.2719C63.2529 35.5644 63.4158 35.7987 63.6346 35.9746C63.8557 36.1506 64.134 36.2386 64.4693 36.2386ZM71.6816 34.7511V31.544H72.7518V37.0234H71.703V36.0745H71.6459C71.5198 36.3671 71.3177 36.6108 71.0394 36.8058C70.7636 36.9985 70.4199 37.0948 70.0085 37.0948C69.6565 37.0948 69.345 37.0175 69.0738 36.8629C68.8051 36.7059 68.5934 36.4741 68.4389 36.1673C68.2867 35.8605 68.2106 35.4812 68.2106 35.0293V31.544H69.2772V34.9009C69.2772 35.2743 69.3806 35.5715 69.5875 35.7927C69.7944 36.0139 70.0632 36.1245 70.3938 36.1245C70.5935 36.1245 70.7921 36.0745 70.9895 35.9746C71.1893 35.8748 71.3545 35.7237 71.4854 35.5216C71.6185 35.3194 71.6839 35.0626 71.6816 34.7511ZM77.9101 29.7176V37.0234H76.8435V29.7176H77.9101ZM79.3451 37.0234V31.544H80.4117V37.0234H79.3451ZM79.8837 30.6986C79.6982 30.6986 79.5389 30.6367 79.4057 30.5131C79.2749 30.387 79.2095 30.2372 79.2095 30.0636C79.2095 29.8876 79.2749 29.7378 79.4057 29.6141C79.5389 29.4881 79.6982 29.425 79.8837 29.425C80.0692 29.425 80.2274 29.4881 80.3582 29.6141C80.4914 29.7378 80.5579 29.8876 80.5579 30.0636C80.5579 30.2372 80.4914 30.387 80.3582 30.5131C80.2274 30.6367 80.0692 30.6986 79.8837 30.6986ZM82.8277 35.1649L82.8205 33.8628H83.006L85.1892 31.544H86.4663L83.9763 34.1838H83.8087L82.8277 35.1649ZM81.8466 37.0234V29.7176H82.9133V37.0234H81.8466ZM85.3069 37.0234L83.3449 34.4193L84.0798 33.6737L86.6161 37.0234H85.3069ZM89.5743 37.134C89.0345 37.134 88.5696 37.0187 88.1795 36.788C87.7919 36.5549 87.4922 36.2279 87.2806 35.807C87.0713 35.3837 86.9666 34.8878 86.9666 34.3194C86.9666 33.7581 87.0713 33.2635 87.2806 32.8354C87.4922 32.4073 87.7871 32.0732 88.1653 31.833C88.5458 31.5928 88.9905 31.4727 89.4994 31.4727C89.8086 31.4727 90.1083 31.5238 90.3984 31.6261C90.6885 31.7283 90.949 31.8889 91.1796 32.1077C91.4103 32.3265 91.5923 32.6107 91.7254 32.9603C91.8586 33.3075 91.9252 33.7296 91.9252 34.2267V34.6048H87.5695V33.8057H90.88C90.88 33.5251 90.8229 33.2766 90.7088 33.0601C90.5946 32.8413 90.4341 32.6689 90.2272 32.5429C90.0226 32.4168 89.7824 32.3538 89.5066 32.3538C89.2069 32.3538 88.9453 32.4275 88.7218 32.575C88.5006 32.7201 88.3294 32.9103 88.2081 33.1458C88.0892 33.3788 88.0297 33.6321 88.0297 33.9056V34.5299C88.0297 34.8961 88.0939 35.2077 88.2223 35.4645C88.3531 35.7214 88.5351 35.9176 88.7681 36.0531C89.0012 36.1863 89.2735 36.2529 89.5851 36.2529C89.7872 36.2529 89.9715 36.2244 90.138 36.1673C90.3045 36.1078 90.4483 36.0198 90.5696 35.9033C90.6909 35.7868 90.7837 35.6429 90.8479 35.4717L91.8574 35.6536C91.7766 35.9509 91.6315 36.2113 91.4222 36.4348C91.2153 36.656 90.9549 36.8284 90.641 36.9521C90.3294 37.0734 89.9739 37.134 89.5743 37.134ZM95.7672 37.0234V31.544H96.791V32.4359H96.8588C96.973 32.1338 97.1597 31.8984 97.4189 31.7295C97.6781 31.5583 97.9885 31.4727 98.35 31.4727C98.7162 31.4727 99.023 31.5583 99.2703 31.7295C99.52 31.9008 99.7044 32.1362 99.8233 32.4359H99.8803C100.011 32.1433 100.219 31.9103 100.505 31.7367C100.79 31.5607 101.13 31.4727 101.525 31.4727C102.022 31.4727 102.427 31.6285 102.741 31.94C103.058 32.2516 103.216 32.7212 103.216 33.3491V37.0234H102.149V33.449C102.149 33.078 102.048 32.8092 101.846 32.6428C101.644 32.4763 101.402 32.3931 101.122 32.3931C100.775 32.3931 100.505 32.5001 100.312 32.7141C100.119 32.9258 100.023 33.1981 100.023 33.531V37.0234H98.96V33.3812C98.96 33.0839 98.8672 32.8449 98.6817 32.6642C98.4962 32.4834 98.2548 32.3931 97.9576 32.3931C97.7554 32.3931 97.5687 32.4466 97.3975 32.5536C97.2286 32.6582 97.0919 32.8045 96.9872 32.9924C96.885 33.1802 96.8338 33.3978 96.8338 33.6452V37.0234H95.7672ZM106.953 37.134C106.44 37.134 105.991 37.0163 105.609 36.7809C105.226 36.5454 104.928 36.216 104.717 35.7927C104.505 35.3694 104.399 34.8747 104.399 34.3087C104.399 33.7403 104.505 33.2433 104.717 32.8176C104.928 32.3919 105.226 32.0613 105.609 31.8259C105.991 31.5904 106.44 31.4727 106.953 31.4727C107.467 31.4727 107.915 31.5904 108.298 31.8259C108.681 32.0613 108.978 32.3919 109.19 32.8176C109.402 33.2433 109.508 33.7403 109.508 34.3087C109.508 34.8747 109.402 35.3694 109.19 35.7927C108.978 36.216 108.681 36.5454 108.298 36.7809C107.915 37.0163 107.467 37.134 106.953 37.134ZM106.957 36.2386C107.29 36.2386 107.566 36.1506 107.785 35.9746C108.003 35.7987 108.165 35.5644 108.27 35.2719C108.377 34.9794 108.43 34.6571 108.43 34.3051C108.43 33.9555 108.377 33.6345 108.27 33.342C108.165 33.0471 108.003 32.8104 107.785 32.6321C107.566 32.4537 107.29 32.3645 106.957 32.3645C106.622 32.3645 106.343 32.4537 106.122 32.6321C105.903 32.8104 105.741 33.0471 105.634 33.342C105.529 33.6345 105.477 33.9555 105.477 34.3051C105.477 34.6571 105.529 34.9794 105.634 35.2719C105.741 35.5644 105.903 35.7987 106.122 35.9746C106.343 36.1506 106.622 36.2386 106.957 36.2386ZM114.804 32.8818L113.837 33.053C113.797 32.9293 113.733 32.8116 113.645 32.6998C113.559 32.5881 113.443 32.4965 113.295 32.4252C113.148 32.3538 112.963 32.3181 112.742 32.3181C112.44 32.3181 112.188 32.3859 111.986 32.5215C111.784 32.6547 111.683 32.8271 111.683 33.0387C111.683 33.2219 111.751 33.3693 111.886 33.4811C112.022 33.5929 112.241 33.6844 112.543 33.7558L113.413 33.9555C113.917 34.0721 114.293 34.2516 114.54 34.4942C114.788 34.7368 114.911 35.0519 114.911 35.4395C114.911 35.7677 114.816 36.0603 114.626 36.3171C114.438 36.5716 114.175 36.7713 113.837 36.9164C113.502 37.0615 113.113 37.134 112.671 37.134C112.057 37.134 111.557 37.0032 111.169 36.7416C110.781 36.4776 110.544 36.1031 110.456 35.6179L111.487 35.461C111.551 35.7297 111.683 35.933 111.883 36.071C112.082 36.2065 112.343 36.2743 112.664 36.2743C113.013 36.2743 113.293 36.2018 113.502 36.0567C113.711 35.9092 113.816 35.7297 113.816 35.518C113.816 35.3468 113.752 35.2029 113.623 35.0864C113.497 34.9698 113.304 34.8819 113.042 34.8224L112.114 34.6191C111.603 34.5025 111.225 34.317 110.98 34.0626C110.737 33.8081 110.616 33.4858 110.616 33.0958C110.616 32.7724 110.707 32.4894 110.887 32.2468C111.068 32.0042 111.318 31.8151 111.636 31.6796C111.955 31.5417 112.32 31.4727 112.732 31.4727C113.324 31.4727 113.79 31.6011 114.13 31.858C114.47 32.1124 114.695 32.4537 114.804 32.8818ZM118.642 31.544V32.4002H115.649V31.544H118.642ZM116.451 30.2313H117.518V35.4146C117.518 35.6215 117.549 35.7773 117.611 35.8819C117.673 35.9842 117.752 36.0543 117.85 36.0924C117.95 36.128 118.058 36.1459 118.174 36.1459C118.26 36.1459 118.335 36.1399 118.399 36.128C118.463 36.1161 118.513 36.1066 118.549 36.0995L118.742 36.9806C118.68 37.0044 118.592 37.0282 118.478 37.052C118.364 37.0781 118.221 37.0924 118.05 37.0948C117.769 37.0995 117.507 37.0496 117.265 36.945C117.022 36.8403 116.826 36.6786 116.676 36.4598C116.526 36.241 116.451 35.9663 116.451 35.6357V30.2313ZM15.2706 51.1447C14.9234 51.1447 14.6095 51.0805 14.3288 50.9521C14.0482 50.8213 13.8258 50.6322 13.6617 50.3849C13.5 50.1376 13.4192 49.8343 13.4192 49.4752C13.4192 49.1661 13.4786 48.9116 13.5975 48.7118C13.7164 48.512 13.877 48.3539 14.0791 48.2374C14.2813 48.1208 14.5072 48.0328 14.7569 47.9734C15.0066 47.9139 15.2611 47.8687 15.5203 47.8378C15.8485 47.7998 16.1149 47.7689 16.3194 47.7451C16.5239 47.7189 16.6726 47.6773 16.7653 47.6202C16.8581 47.5631 16.9044 47.4704 16.9044 47.342V47.317C16.9044 47.0054 16.8164 46.7641 16.6405 46.5928C16.4669 46.4216 16.2076 46.336 15.8628 46.336C15.5037 46.336 15.2207 46.4156 15.0138 46.575C14.8092 46.7319 14.6677 46.9067 14.5893 47.0994L13.5868 46.8711C13.7057 46.5381 13.8794 46.2694 14.1077 46.0649C14.3383 45.858 14.6035 45.7081 14.9032 45.6154C15.2028 45.5202 15.5179 45.4727 15.8485 45.4727C16.0673 45.4727 16.2992 45.4988 16.5441 45.5512C16.7915 45.6011 17.0222 45.6939 17.2362 45.8294C17.4526 45.965 17.6298 46.1588 17.7677 46.4109C17.9057 46.6606 17.9746 46.9852 17.9746 47.3848V51.0234H16.933V50.2743H16.8902C16.8212 50.4122 16.7178 50.5478 16.5798 50.681C16.4419 50.8142 16.2647 50.9247 16.0483 51.0127C15.8319 51.1007 15.5726 51.1447 15.2706 51.1447ZM15.5025 50.2886C15.7974 50.2886 16.0495 50.2303 16.2588 50.1138C16.4704 49.9972 16.6309 49.845 16.7403 49.6572C16.8521 49.4669 16.908 49.2636 16.908 49.0471V48.3408C16.87 48.3789 16.7962 48.4145 16.6868 48.4478C16.5798 48.4787 16.4573 48.5061 16.3194 48.5299C16.1815 48.5513 16.0471 48.5715 15.9163 48.5905C15.7855 48.6072 15.6761 48.6214 15.5881 48.6333C15.3812 48.6595 15.1921 48.7035 15.0209 48.7653C14.852 48.8272 14.7165 48.9163 14.6142 49.0329C14.5143 49.147 14.4644 49.2992 14.4644 49.4895C14.4644 49.7535 14.5619 49.9532 14.7569 50.0888C14.9519 50.222 15.2005 50.2886 15.5025 50.2886ZM19.4809 51.0234V43.7176H20.5476V46.4323H20.6118C20.6736 46.3181 20.7628 46.1861 20.8793 46.0363C20.9959 45.8865 21.1576 45.7557 21.3645 45.6439C21.5714 45.5298 21.8449 45.4727 22.185 45.4727C22.6273 45.4727 23.0221 45.5845 23.3693 45.808C23.7165 46.0316 23.9888 46.3538 24.1862 46.7748C24.386 47.1957 24.4859 47.7023 24.4859 48.2944C24.4859 48.8866 24.3872 49.3944 24.1898 49.8177C23.9924 50.2386 23.7213 50.5633 23.3765 50.7916C23.0316 51.0175 22.638 51.1305 22.1957 51.1305C21.8627 51.1305 21.5904 51.0746 21.3788 50.9628C21.1695 50.851 21.0054 50.7202 20.8865 50.5704C20.7676 50.4206 20.676 50.2874 20.6118 50.1708H20.5226V51.0234H19.4809ZM20.5262 48.2837C20.5262 48.669 20.5821 49.0067 20.6938 49.2969C20.8056 49.587 20.9673 49.8141 21.179 49.9782C21.3906 50.1399 21.6499 50.2208 21.9567 50.2208C22.2753 50.2208 22.5417 50.1364 22.7557 49.9675C22.9698 49.7963 23.1315 49.5644 23.2409 49.2719C23.3527 48.9794 23.4086 48.65 23.4086 48.2837C23.4086 47.9222 23.3539 47.5976 23.2445 47.3099C23.1374 47.0221 22.9757 46.795 22.7593 46.6285C22.5453 46.462 22.2777 46.3788 21.9567 46.3788C21.6475 46.3788 21.3859 46.4585 21.1718 46.6178C20.9602 46.7771 20.7997 46.9995 20.6903 47.2849C20.5809 47.5703 20.5262 47.9032 20.5262 48.2837ZM27.9917 51.134C27.478 51.134 27.0297 51.0163 26.6468 50.7809C26.2639 50.5454 25.9666 50.216 25.755 49.7927C25.5433 49.3694 25.4375 48.8747 25.4375 48.3087C25.4375 47.7403 25.5433 47.2433 25.755 46.8176C25.9666 46.3919 26.2639 46.0613 26.6468 45.8259C27.0297 45.5904 27.478 45.4727 27.9917 45.4727C28.5054 45.4727 28.9537 45.5904 29.3366 45.8259C29.7194 46.0613 30.0167 46.3919 30.2284 46.8176C30.44 47.2433 30.5459 47.7403 30.5459 48.3087C30.5459 48.8747 30.44 49.3694 30.2284 49.7927C30.0167 50.216 29.7194 50.5454 29.3366 50.7809C28.9537 51.0163 28.5054 51.134 27.9917 51.134ZM27.9952 50.2386C28.3282 50.2386 28.6041 50.1506 28.8229 49.9746C29.0417 49.7987 29.2034 49.5644 29.308 49.2719C29.415 48.9794 29.4685 48.6571 29.4685 48.3051C29.4685 47.9555 29.415 47.6345 29.308 47.342C29.2034 47.0471 29.0417 46.8104 28.8229 46.6321C28.6041 46.4537 28.3282 46.3645 27.9952 46.3645C27.6599 46.3645 27.3817 46.4537 27.1605 46.6321C26.9417 46.8104 26.7788 47.0471 26.6718 47.342C26.5671 47.6345 26.5148 47.9555 26.5148 48.3051C26.5148 48.6571 26.5671 48.9794 26.6718 49.2719C26.7788 49.5644 26.9417 49.7987 27.1605 49.9746C27.3817 50.1506 27.6599 50.2386 27.9952 50.2386ZM35.2075 48.7511V45.544H36.2777V51.0234H35.2289V50.0745H35.1718C35.0458 50.3671 34.8436 50.6108 34.5654 50.8058C34.2895 50.9985 33.9458 51.0948 33.5344 51.0948C33.1824 51.0948 32.8709 51.0175 32.5998 50.8629C32.331 50.7059 32.1194 50.4741 31.9648 50.1673C31.8126 49.8605 31.7365 49.4812 31.7365 49.0293V45.544H32.8031V48.9009C32.8031 49.2743 32.9066 49.5715 33.1135 49.7927C33.3204 50.0139 33.5891 50.1245 33.9197 50.1245C34.1194 50.1245 34.318 50.0745 34.5154 49.9746C34.7152 49.8748 34.8805 49.7237 35.0113 49.5216C35.1445 49.3194 35.2099 49.0626 35.2075 48.7511ZM40.2686 45.544V46.4002H37.2756V45.544H40.2686ZM38.0783 44.2313H39.1449V49.4146C39.1449 49.6215 39.1758 49.7773 39.2377 49.8819C39.2995 49.9842 39.3792 50.0543 39.4767 50.0924C39.5766 50.128 39.6848 50.1459 39.8013 50.1459C39.8869 50.1459 39.9618 50.1399 40.026 50.128C40.0902 50.1161 40.1402 50.1066 40.1759 50.0995L40.3685 50.9806C40.3067 51.0044 40.2187 51.0282 40.1045 51.052C39.9904 51.0781 39.8477 51.0924 39.6764 51.0948C39.3958 51.0995 39.1342 51.0496 38.8916 50.945C38.649 50.8403 38.4528 50.6786 38.303 50.4598C38.1532 50.241 38.0783 49.9663 38.0783 49.6357V44.2313ZM43.7396 47.3919V46.8568C44.1415 46.8568 44.4222 46.7748 44.5815 46.6107C44.7408 46.4442 44.8205 46.1695 44.8205 45.7866V44.7628C44.8205 44.3989 44.8609 44.0933 44.9418 43.846C45.025 43.5963 45.1511 43.3965 45.3199 43.2467C45.4888 43.0968 45.7028 42.9886 45.9621 42.9221C46.2213 42.8555 46.5269 42.8222 46.8789 42.8222V43.6676C46.603 43.6676 46.3878 43.7081 46.2332 43.7889C46.0786 43.8698 45.9704 43.9958 45.9085 44.167C45.8491 44.3359 45.8194 44.5523 45.8194 44.8163V46.1148C45.8194 46.2979 45.792 46.468 45.7373 46.6249C45.6826 46.7795 45.5815 46.9139 45.4341 47.028C45.2866 47.1422 45.0762 47.2314 44.8027 47.2956C44.5292 47.3598 44.1748 47.3919 43.7396 47.3919ZM46.8789 51.9224C46.5269 51.9224 46.2213 51.8891 45.9621 51.8225C45.7028 51.7559 45.4888 51.6477 45.3199 51.4979C45.1511 51.3481 45.025 51.1495 44.9418 50.9021C44.8609 50.6524 44.8205 50.3456 44.8205 49.9818V48.9544C44.8205 48.5739 44.7408 48.3004 44.5815 48.1339C44.4222 47.9674 44.1415 47.8842 43.7396 47.8842V47.3527C44.1748 47.3527 44.5292 47.3848 44.8027 47.449C45.0762 47.5108 45.2866 47.6 45.4341 47.7165C45.5815 47.8307 45.6826 47.9662 45.7373 48.1232C45.792 48.2778 45.8194 48.4466 45.8194 48.6298V49.9283C45.8194 50.1899 45.8491 50.4063 45.9085 50.5775C45.9704 50.7464 46.0786 50.8724 46.2332 50.9557C46.3878 51.0365 46.603 51.0769 46.8789 51.0769V51.9224ZM43.7396 47.8842V46.8568H44.7278V47.8842H43.7396ZM54.0572 46.0934H52.9442C52.9014 45.8556 52.8217 45.6463 52.7052 45.4656C52.5887 45.2848 52.446 45.1314 52.2771 45.0054C52.1083 44.8793 51.9192 44.7842 51.7099 44.72C51.503 44.6558 51.283 44.6237 51.05 44.6237C50.629 44.6237 50.2521 44.7295 49.9191 44.9412C49.5885 45.1528 49.3269 45.4632 49.1343 45.8722C48.944 46.2813 48.8489 46.7807 48.8489 47.3705C48.8489 47.9651 48.944 48.4669 49.1343 48.8759C49.3269 49.285 49.5897 49.5941 49.9227 49.8034C50.2556 50.0127 50.6302 50.1173 51.0464 50.1173C51.2771 50.1173 51.4959 50.0864 51.7028 50.0246C51.9121 49.9604 52.1011 49.8664 52.27 49.7428C52.4388 49.6191 52.5815 49.4681 52.6981 49.2897C52.817 49.109 52.899 48.9021 52.9442 48.669L54.0572 48.6726C53.9977 49.0317 53.8824 49.3623 53.7112 49.6643C53.5423 49.9639 53.3247 50.2232 53.0584 50.442C52.7944 50.6584 52.4923 50.826 52.1523 50.945C51.8122 51.0639 51.4412 51.1233 51.0392 51.1233C50.4066 51.1233 49.843 50.9735 49.3483 50.6738C48.8537 50.3718 48.4636 49.9402 48.1783 49.3789C47.8953 48.8176 47.7537 48.1482 47.7537 47.3705C47.7537 46.5904 47.8964 45.921 48.1818 45.3621C48.4672 44.8008 48.8572 44.3704 49.3519 44.0707C49.8466 43.7687 50.409 43.6177 51.0392 43.6177C51.4269 43.6177 51.7884 43.6736 52.1237 43.7853C52.4614 43.8947 52.7646 44.0565 53.0334 44.2705C53.3021 44.4822 53.5245 44.7414 53.7005 45.0482C53.8765 45.3526 53.9954 45.701 54.0572 46.0934ZM57.5987 51.134C57.085 51.134 56.6367 51.0163 56.2538 50.7809C55.8709 50.5454 55.5736 50.216 55.3619 49.7927C55.1503 49.3694 55.0445 48.8747 55.0445 48.3087C55.0445 47.7403 55.1503 47.2433 55.3619 46.8176C55.5736 46.3919 55.8709 46.0613 56.2538 45.8259C56.6367 45.5904 57.085 45.4727 57.5987 45.4727C58.1124 45.4727 58.5606 45.5904 58.9435 45.8259C59.3264 46.0613 59.6237 46.3919 59.8354 46.8176C60.047 47.2433 60.1529 47.7403 60.1529 48.3087C60.1529 48.8747 60.047 49.3694 59.8354 49.7927C59.6237 50.216 59.3264 50.5454 58.9435 50.7809C58.5606 51.0163 58.1124 51.134 57.5987 51.134ZM57.6022 50.2386C57.9352 50.2386 58.211 50.1506 58.4298 49.9746C58.6486 49.7987 58.8104 49.5644 58.915 49.2719C59.022 48.9794 59.0755 48.6571 59.0755 48.3051C59.0755 47.9555 59.022 47.6345 58.915 47.342C58.8104 47.0471 58.6486 46.8104 58.4298 46.6321C58.211 46.4537 57.9352 46.3645 57.6022 46.3645C57.2669 46.3645 56.9886 46.4537 56.7675 46.6321C56.5487 46.8104 56.3858 47.0471 56.2787 47.342C56.1741 47.6345 56.1218 47.9555 56.1218 48.3051C56.1218 48.6571 56.1741 48.9794 56.2787 49.2719C56.3858 49.5644 56.5487 49.7987 56.7675 49.9746C56.9886 50.1506 57.2669 50.2386 57.6022 50.2386ZM61.3435 51.0234V45.544H62.3673V46.4359H62.4351C62.5492 46.1338 62.7359 45.8984 62.9951 45.7295C63.2543 45.5583 63.5647 45.4727 63.9262 45.4727C64.2924 45.4727 64.5992 45.5583 64.8466 45.7295C65.0963 45.9008 65.2806 46.1362 65.3995 46.4359H65.4566C65.5874 46.1433 65.7955 45.9103 66.0809 45.7367C66.3662 45.5607 66.7063 45.4727 67.1011 45.4727C67.5982 45.4727 68.0036 45.6285 68.3176 45.94C68.6339 46.2516 68.792 46.7212 68.792 47.3491V51.0234H67.7254V47.449C67.7254 47.078 67.6243 46.8092 67.4222 46.6428C67.22 46.4763 66.9786 46.3931 66.698 46.3931C66.3508 46.3931 66.0809 46.5001 65.8882 46.7141C65.6956 46.9258 65.5993 47.1981 65.5993 47.531V51.0234H64.5362V47.3812C64.5362 47.0839 64.4435 46.8449 64.258 46.6642C64.0725 46.4834 63.8311 46.3931 63.5338 46.3931C63.3316 46.3931 63.145 46.4466 62.9737 46.5536C62.8049 46.6582 62.6681 46.8045 62.5635 46.9924C62.4612 47.1802 62.4101 47.3978 62.4101 47.6452V51.0234H61.3435ZM70.2216 53.0782V45.544H71.2633V46.4323H71.3525C71.4143 46.3181 71.5035 46.1861 71.62 46.0363C71.7366 45.8865 71.8983 45.7557 72.1052 45.6439C72.3121 45.5298 72.5856 45.4727 72.9257 45.4727C73.368 45.4727 73.7628 45.5845 74.11 45.808C74.4572 46.0316 74.7295 46.3538 74.9269 46.7748C75.1267 47.1957 75.2266 47.7023 75.2266 48.2944C75.2266 48.8866 75.1279 49.3944 74.9305 49.8177C74.7331 50.2386 74.462 50.5633 74.1171 50.7916C73.7723 51.0175 73.3787 51.1305 72.9364 51.1305C72.6034 51.1305 72.3311 51.0746 72.1194 50.9628C71.9102 50.851 71.7461 50.7202 71.6272 50.5704C71.5082 50.4206 71.4167 50.2874 71.3525 50.1708H71.2883V53.0782H70.2216ZM71.2669 48.2837C71.2669 48.669 71.3227 49.0067 71.4345 49.2969C71.5463 49.587 71.708 49.8141 71.9197 49.9782C72.1313 50.1399 72.3906 50.2208 72.6973 50.2208C73.016 50.2208 73.2824 50.1364 73.4964 49.9675C73.7105 49.7963 73.8722 49.5644 73.9816 49.2719C74.0934 48.9794 74.1492 48.65 74.1492 48.2837C74.1492 47.9222 74.0946 47.5976 73.9852 47.3099C73.8781 47.0221 73.7164 46.795 73.5 46.6285C73.286 46.462 73.0184 46.3788 72.6973 46.3788C72.3882 46.3788 72.1266 46.4585 71.9125 46.6178C71.7009 46.7771 71.5403 46.9995 71.431 47.2849C71.3216 47.5703 71.2669 47.9032 71.2669 48.2837ZM78.0162 51.1447C77.669 51.1447 77.3551 51.0805 77.0745 50.9521C76.7938 50.8213 76.5715 50.6322 76.4074 50.3849C76.2456 50.1376 76.1648 49.8343 76.1648 49.4752C76.1648 49.1661 76.2242 48.9116 76.3432 48.7118C76.4621 48.512 76.6226 48.3539 76.8247 48.2374C77.0269 48.1208 77.2528 48.0328 77.5025 47.9734C77.7522 47.9139 78.0067 47.8687 78.2659 47.8378C78.5941 47.7998 78.8605 47.7689 79.065 47.7451C79.2695 47.7189 79.4182 47.6773 79.5109 47.6202C79.6037 47.5631 79.6501 47.4704 79.6501 47.342V47.317C79.6501 47.0054 79.5621 46.7641 79.3861 46.5928C79.2125 46.4216 78.9532 46.336 78.6084 46.336C78.2493 46.336 77.9663 46.4156 77.7594 46.575C77.5549 46.7319 77.4133 46.9067 77.3349 47.0994L76.3324 46.8711C76.4514 46.5381 76.625 46.2694 76.8533 46.0649C77.084 45.858 77.3491 45.7081 77.6488 45.6154C77.9484 45.5202 78.2636 45.4727 78.5941 45.4727C78.8129 45.4727 79.0448 45.4988 79.2898 45.5512C79.5371 45.6011 79.7678 45.6939 79.9818 45.8294C80.1982 45.965 80.3754 46.1588 80.5134 46.4109C80.6513 46.6606 80.7203 46.9852 80.7203 47.3848V51.0234H79.6786V50.2743H79.6358C79.5668 50.4122 79.4634 50.5478 79.3254 50.681C79.1875 50.8142 79.0103 50.9247 78.7939 51.0127C78.5775 51.1007 78.3183 51.1447 78.0162 51.1447ZM78.2481 50.2886C78.543 50.2886 78.7951 50.2303 79.0044 50.1138C79.216 49.9972 79.3766 49.845 79.486 49.6572C79.5977 49.4669 79.6536 49.2636 79.6536 49.0471V48.3408C79.6156 48.3789 79.5419 48.4145 79.4325 48.4478C79.3254 48.4787 79.203 48.5061 79.065 48.5299C78.9271 48.5513 78.7927 48.5715 78.6619 48.5905C78.5311 48.6072 78.4217 48.6214 78.3337 48.6333C78.1268 48.6595 77.9377 48.7035 77.7665 48.7653C77.5977 48.8272 77.4621 48.9163 77.3598 49.0329C77.26 49.147 77.21 49.2992 77.21 49.4895C77.21 49.7535 77.3075 49.9532 77.5025 50.0888C77.6975 50.222 77.9461 50.2886 78.2481 50.2886ZM83.2076 47.77V51.0234H82.1409V45.544H83.1648V46.4359H83.2325C83.3586 46.1457 83.556 45.9127 83.8247 45.7367C84.0958 45.5607 84.4371 45.4727 84.8485 45.4727C85.2219 45.4727 85.5489 45.5512 85.8295 45.7081C86.1102 45.8627 86.3278 46.0934 86.4824 46.4002C86.637 46.707 86.7142 47.0863 86.7142 47.5382V51.0234H85.6476V47.6666C85.6476 47.2694 85.5442 46.9591 85.3373 46.7355C85.1304 46.5096 84.8462 46.3966 84.4847 46.3966C84.2373 46.3966 84.0173 46.4501 83.8247 46.5572C83.6345 46.6642 83.4834 46.8211 83.3717 47.028C83.2623 47.2326 83.2076 47.4799 83.2076 47.77ZM88.6228 53.0782C88.4634 53.0782 88.3184 53.0651 88.1875 53.039C88.0567 53.0152 87.9592 52.989 87.895 52.9605L88.1519 52.0865C88.3469 52.1388 88.5205 52.1614 88.6727 52.1543C88.8249 52.1471 88.9593 52.0901 89.0758 51.983C89.1947 51.876 89.2994 51.7012 89.3897 51.4587L89.5217 51.0948L87.5169 45.544H88.6584L90.0461 49.7963H90.1032L91.4909 45.544H92.636L90.3779 51.7547C90.2732 52.0401 90.1401 52.2815 89.9783 52.4789C89.8166 52.6787 89.624 52.8285 89.4004 52.9284C89.1769 53.0283 88.9177 53.0782 88.6228 53.0782ZM97.3636 47.77V51.0234H96.297V45.544H97.3208V46.4359H97.3886C97.5146 46.1457 97.712 45.9127 97.9807 45.7367C98.2519 45.5607 98.5931 45.4727 99.0046 45.4727C99.3779 45.4727 99.7049 45.5512 99.9856 45.7081C100.266 45.8627 100.484 46.0934 100.638 46.4002C100.793 46.707 100.87 47.0863 100.87 47.5382V51.0234H99.8036V47.6666C99.8036 47.2694 99.7002 46.9591 99.4933 46.7355C99.2864 46.5096 99.0022 46.3966 98.6407 46.3966C98.3934 46.3966 98.1734 46.4501 97.9807 46.5572C97.7905 46.6642 97.6395 46.8211 97.5277 47.028C97.4183 47.2326 97.3636 47.4799 97.3636 47.77ZM103.895 51.1447C103.548 51.1447 103.234 51.0805 102.954 50.9521C102.673 50.8213 102.451 50.6322 102.286 50.3849C102.125 50.1376 102.044 49.8343 102.044 49.4752C102.044 49.1661 102.103 48.9116 102.222 48.7118C102.341 48.512 102.502 48.3539 102.704 48.2374C102.906 48.1208 103.132 48.0328 103.382 47.9734C103.631 47.9139 103.886 47.8687 104.145 47.8378C104.473 47.7998 104.74 47.7689 104.944 47.7451C105.149 47.7189 105.297 47.6773 105.39 47.6202C105.483 47.5631 105.529 47.4704 105.529 47.342V47.317C105.529 47.0054 105.441 46.7641 105.265 46.5928C105.092 46.4216 104.832 46.336 104.488 46.336C104.128 46.336 103.845 46.4156 103.639 46.575C103.434 46.7319 103.292 46.9067 103.214 47.0994L102.212 46.8711C102.33 46.5381 102.504 46.2694 102.732 46.0649C102.963 45.858 103.228 45.7081 103.528 45.6154C103.828 45.5202 104.143 45.4727 104.473 45.4727C104.692 45.4727 104.924 45.4988 105.169 45.5512C105.416 45.6011 105.647 45.6939 105.861 45.8294C106.077 45.965 106.255 46.1588 106.392 46.4109C106.53 46.6606 106.599 46.9852 106.599 47.3848V51.0234H105.558V50.2743H105.515C105.446 50.4122 105.343 50.5478 105.205 50.681C105.067 50.8142 104.889 50.9247 104.673 51.0127C104.457 51.1007 104.197 51.1447 103.895 51.1447ZM104.127 50.2886C104.422 50.2886 104.674 50.2303 104.884 50.1138C105.095 49.9972 105.256 49.845 105.365 49.6572C105.477 49.4669 105.533 49.2636 105.533 49.0471V48.3408C105.495 48.3789 105.421 48.4145 105.312 48.4478C105.205 48.4787 105.082 48.5061 104.944 48.5299C104.806 48.5513 104.672 48.5715 104.541 48.5905C104.41 48.6072 104.301 48.6214 104.213 48.6333C104.006 48.6595 103.817 48.7035 103.646 48.7653C103.477 48.8272 103.341 48.9163 103.239 49.0329C103.139 49.147 103.089 49.2992 103.089 49.4895C103.089 49.7535 103.187 49.9532 103.382 50.0888C103.577 50.222 103.825 50.2886 104.127 50.2886ZM108.02 51.0234V45.544H109.044V46.4359H109.112C109.226 46.1338 109.413 45.8984 109.672 45.7295C109.931 45.5583 110.241 45.4727 110.603 45.4727C110.969 45.4727 111.276 45.5583 111.523 45.7295C111.773 45.9008 111.957 46.1362 112.076 46.4359H112.133C112.264 46.1433 112.472 45.9103 112.757 45.7367C113.043 45.5607 113.383 45.4727 113.778 45.4727C114.275 45.4727 114.68 45.6285 114.994 45.94C115.31 46.2516 115.469 46.7212 115.469 47.3491V51.0234H114.402V47.449C114.402 47.078 114.301 46.8092 114.099 46.6428C113.897 46.4763 113.655 46.3931 113.375 46.3931C113.027 46.3931 112.757 46.5001 112.565 46.7141C112.372 46.9258 112.276 47.1981 112.276 47.531V51.0234H111.213V47.3812C111.213 47.0839 111.12 46.8449 110.935 46.6642C110.749 46.4834 110.508 46.3931 110.21 46.3931C110.008 46.3931 109.822 46.4466 109.65 46.5536C109.481 46.6582 109.345 46.8045 109.24 46.9924C109.138 47.1802 109.087 47.3978 109.087 47.6452V51.0234H108.02ZM119.26 51.134C118.72 51.134 118.255 51.0187 117.865 50.788C117.477 50.5549 117.178 50.2279 116.966 49.807C116.757 49.3837 116.652 48.8878 116.652 48.3194C116.652 47.7581 116.757 47.2635 116.966 46.8354C117.178 46.4073 117.473 46.0732 117.851 45.833C118.231 45.5928 118.676 45.4727 119.185 45.4727C119.494 45.4727 119.794 45.5238 120.084 45.6261C120.374 45.7283 120.634 45.8889 120.865 46.1077C121.096 46.3265 121.278 46.6107 121.411 46.9603C121.544 47.3075 121.611 47.7296 121.611 48.2267V48.6048H117.255V47.8057H120.565C120.565 47.5251 120.508 47.2766 120.394 47.0601C120.28 46.8413 120.12 46.6689 119.913 46.5429C119.708 46.4168 119.468 46.3538 119.192 46.3538C118.892 46.3538 118.631 46.4275 118.407 46.575C118.186 46.7201 118.015 46.9103 117.894 47.1458C117.775 47.3788 117.715 47.6321 117.715 47.9056V48.5299C117.715 48.8961 117.779 49.2077 117.908 49.4645C118.039 49.7214 118.221 49.9176 118.454 50.0531C118.687 50.1863 118.959 50.2529 119.271 50.2529C119.473 50.2529 119.657 50.2244 119.823 50.1673C119.99 50.1078 120.134 50.0198 120.255 49.9033C120.376 49.7868 120.469 49.6429 120.533 49.4717L121.543 49.6536C121.462 49.9509 121.317 50.2113 121.108 50.4348C120.901 50.656 120.64 50.8284 120.326 50.9521C120.015 51.0734 119.659 51.134 119.26 51.134ZM125.523 47.9734V48.5049C125.121 48.5049 124.841 48.5881 124.681 48.7546C124.522 48.9211 124.442 49.1946 124.442 49.5751V50.6025C124.442 50.9664 124.401 51.272 124.317 51.5193C124.237 51.769 124.112 51.9688 123.943 52.1186C123.774 52.2684 123.56 52.3766 123.301 52.4432C123.041 52.5098 122.736 52.5431 122.384 52.5431V51.6977C122.66 51.6977 122.875 51.656 123.03 51.5728C123.184 51.4919 123.291 51.3659 123.351 51.1947C123.412 51.0258 123.443 50.8106 123.443 50.549V49.2505C123.443 49.0674 123.471 48.8985 123.525 48.7439C123.58 48.587 123.681 48.4514 123.829 48.3372C123.976 48.2207 124.187 48.1315 124.46 48.0697C124.734 48.0055 125.088 47.9734 125.523 47.9734ZM122.384 43.4429C122.736 43.4429 123.041 43.4762 123.301 43.5428C123.56 43.6094 123.774 43.7176 123.943 43.8674C124.112 44.0172 124.237 44.217 124.317 44.4667C124.401 44.714 124.442 45.0196 124.442 45.3835V46.4073C124.442 46.7902 124.522 47.0649 124.681 47.2314C124.841 47.3955 125.121 47.4775 125.523 47.4775V48.0126C125.088 48.0126 124.734 47.9805 124.46 47.9163C124.187 47.8521 123.976 47.7629 123.829 47.6488C123.681 47.5346 123.58 47.4002 123.525 47.2456C123.471 47.0887 123.443 46.9186 123.443 46.7355V45.437C123.443 45.173 123.412 44.9566 123.351 44.7878C123.291 44.6165 123.184 44.4905 123.03 44.4096C122.875 44.3288 122.66 44.2883 122.384 44.2883V43.4429ZM125.523 47.4775V48.5049H124.535V47.4775H125.523Z" fill="#050505"/>
<rect x="12.959" y="63.0596" width="196.893" height="57.7621" rx="8.03646" fill="#F0F0F0"/>
<path d="M25.4018 76.3857V75.7578H29.7853V76.3857H27.9474V81.6025H27.2397V76.3857H25.4018ZM30.7178 83.2464C30.6037 83.2464 30.5019 83.2368 30.4125 83.2178C30.323 83.2007 30.2612 83.1836 30.227 83.1665L30.3982 82.5729C30.5618 82.6147 30.7064 82.6299 30.832 82.6185C30.9575 82.6071 31.0688 82.551 31.1659 82.4501C31.2648 82.3512 31.3552 82.1904 31.437 81.9678L31.5626 81.6254L29.9416 77.219H30.6722L31.8822 80.7121H31.9279L33.1379 77.219H33.8685L32.0078 82.2418C31.924 82.4682 31.8204 82.6556 31.6967 82.804C31.573 82.9543 31.4294 83.0656 31.2658 83.1379C31.104 83.2102 30.9214 83.2464 30.7178 83.2464ZM34.7575 83.2464V77.219H35.4081V77.9154H35.488C35.5375 77.8393 35.606 77.7422 35.6935 77.6243C35.7829 77.5044 35.9104 77.3979 36.0759 77.3046C36.2434 77.2095 36.4698 77.1619 36.7552 77.1619C37.1243 77.1619 37.4496 77.2542 37.7312 77.4388C38.0128 77.6233 38.2325 77.8849 38.3904 78.2236C38.5483 78.5622 38.6273 78.9618 38.6273 79.4222C38.6273 79.8864 38.5483 80.2888 38.3904 80.6294C38.2325 80.968 38.0137 81.2306 37.734 81.417C37.4543 81.6016 37.1319 81.6939 36.7666 81.6939C36.485 81.6939 36.2595 81.6472 36.0902 81.554C35.9209 81.4589 35.7906 81.3514 35.6992 81.2315C35.6079 81.1098 35.5375 81.0089 35.488 80.929H35.431V83.2464H34.7575ZM35.4195 79.4108C35.4195 79.7418 35.4681 80.0339 35.5651 80.2869C35.6621 80.5381 35.8039 80.735 35.9903 80.8777C36.1768 81.0184 36.4051 81.0888 36.6752 81.0888C36.9568 81.0888 37.1918 81.0146 37.3801 80.8662C37.5704 80.7159 37.7131 80.5143 37.8082 80.2612C37.9053 80.0063 37.9538 79.7228 37.9538 79.4108C37.9538 79.1026 37.9062 78.8248 37.8111 78.5775C37.7179 78.3282 37.5761 78.1313 37.3859 77.9867C37.1975 77.8402 36.9606 77.767 36.6752 77.767C36.4013 77.767 36.1711 77.8364 35.9846 77.9753C35.7982 78.1123 35.6574 78.3044 35.5622 78.5518C35.4671 78.7972 35.4195 79.0835 35.4195 79.4108ZM41.4926 81.6939C41.0702 81.6939 40.7058 81.6006 40.3995 81.4142C40.0951 81.2258 39.8602 80.9633 39.6946 80.6265C39.531 80.2879 39.4492 79.894 39.4492 79.445C39.4492 78.996 39.531 78.6003 39.6946 78.2578C39.8602 77.9135 40.0904 77.6452 40.3853 77.453C40.6821 77.259 41.0283 77.1619 41.4241 77.1619C41.6524 77.1619 41.8778 77.2 42.1004 77.2761C42.323 77.3522 42.5257 77.4759 42.7083 77.6471C42.8909 77.8164 43.0365 78.0409 43.1449 78.3206C43.2534 78.6003 43.3076 78.9446 43.3076 79.3537V79.6391H39.9286V79.0569H42.6227C42.6227 78.8096 42.5732 78.5889 42.4743 78.3948C42.3773 78.2007 42.2384 78.0476 42.0576 77.9353C41.8788 77.8231 41.6676 77.767 41.4241 77.767C41.1558 77.767 40.9237 77.8335 40.7277 77.9667C40.5337 78.098 40.3843 78.2692 40.2797 78.4804C40.175 78.6916 40.1227 78.918 40.1227 79.1596V79.5478C40.1227 79.8788 40.1798 80.1594 40.2939 80.3896C40.41 80.618 40.5708 80.792 40.7762 80.9119C40.9817 81.0299 41.2205 81.0888 41.4926 81.0888C41.6695 81.0888 41.8293 81.0641 41.972 81.0146C42.1166 80.9633 42.2412 80.8872 42.3459 80.7863C42.4505 80.6836 42.5314 80.5561 42.5884 80.4039L43.2391 80.5866C43.1706 80.8073 43.0555 81.0013 42.8938 81.1688C42.7321 81.3343 42.5323 81.4637 42.2945 81.5569C42.0567 81.6482 41.7894 81.6939 41.4926 81.6939ZM47.0262 83.2464C46.912 83.2464 46.8102 83.2368 46.7208 83.2178C46.6314 83.2007 46.5696 83.1836 46.5353 83.1665L46.7066 82.5729C46.8702 82.6147 47.0148 82.6299 47.1403 82.6185C47.2659 82.6071 47.3772 82.551 47.4742 82.4501C47.5732 82.3512 47.6635 82.1904 47.7454 81.9678L47.8709 81.6254L46.2499 77.219H46.9805L48.1906 80.7121H48.2362L49.4463 77.219H50.1768L48.3161 82.2418C48.2324 82.4682 48.1287 82.6556 48.0051 82.804C47.8814 82.9543 47.7377 83.0656 47.5741 83.1379C47.4124 83.2102 47.2298 83.2464 47.0262 83.2464ZM52.6897 81.6939C52.2939 81.6939 51.9467 81.5997 51.648 81.4113C51.3512 81.223 51.1191 80.9595 50.9517 80.6208C50.7861 80.2822 50.7034 79.8864 50.7034 79.4336C50.7034 78.977 50.7861 78.5784 50.9517 78.2378C51.1191 77.8973 51.3512 77.6328 51.648 77.4445C51.9467 77.2561 52.2939 77.1619 52.6897 77.1619C53.0854 77.1619 53.4317 77.2561 53.7285 77.4445C54.0272 77.6328 54.2593 77.8973 54.4248 78.2378C54.5922 78.5784 54.6759 78.977 54.6759 79.4336C54.6759 79.8864 54.5922 80.2822 54.4248 80.6208C54.2593 80.9595 54.0272 81.223 53.7285 81.4113C53.4317 81.5997 53.0854 81.6939 52.6897 81.6939ZM52.6897 81.0888C52.9903 81.0888 53.2376 81.0118 53.4317 80.8577C53.6257 80.7036 53.7694 80.501 53.8626 80.2498C53.9558 79.9987 54.0024 79.7266 54.0024 79.4336C54.0024 79.1406 53.9558 78.8676 53.8626 78.6146C53.7694 78.3615 53.6257 78.157 53.4317 78.001C53.2376 77.845 52.9903 77.767 52.6897 77.767C52.3891 77.767 52.1417 77.845 51.9477 78.001C51.7536 78.157 51.61 78.3615 51.5167 78.6146C51.4235 78.8676 51.3769 79.1406 51.3769 79.4336C51.3769 79.7266 51.4235 79.9987 51.5167 80.2498C51.61 80.501 51.7536 80.7036 51.9477 80.8577C52.1417 81.0118 52.3891 81.0888 52.6897 81.0888ZM58.4666 79.8103V77.219H59.1401V81.6025H58.4666V80.8605H58.4209C58.3182 81.0831 58.1584 81.2724 57.9415 81.4285C57.7246 81.5826 57.4506 81.6596 57.1196 81.6596C56.8456 81.6596 56.6021 81.5997 56.389 81.4798C56.1759 81.3581 56.0085 81.1754 55.8867 80.9319C55.7649 80.6865 55.7041 80.3773 55.7041 80.0044V77.219H56.3776V79.9587C56.3776 80.2783 56.467 80.5333 56.6458 80.7236C56.8266 80.9138 57.0568 81.0089 57.3365 81.0089C57.5039 81.0089 57.6742 80.9661 57.8473 80.8805C58.0223 80.7949 58.1688 80.6636 58.2868 80.4867C58.4067 80.3097 58.4666 80.0843 58.4666 79.8103ZM60.3737 81.6025V77.219H61.0244V77.8811H61.07C61.1499 77.6642 61.2945 77.4882 61.5038 77.3531C61.7131 77.2181 61.949 77.1505 62.2116 77.1505C62.261 77.1505 62.3229 77.1515 62.3971 77.1534C62.4713 77.1553 62.5274 77.1581 62.5654 77.1619V77.8469C62.5426 77.8412 62.4903 77.8326 62.4085 77.8212C62.3286 77.8079 62.2439 77.8012 62.1545 77.8012C61.9414 77.8012 61.7511 77.8459 61.5837 77.9353C61.4182 78.0229 61.2869 78.1446 61.1899 78.3006C61.0948 78.4547 61.0472 78.6307 61.0472 78.8286V81.6025H60.3737ZM66.914 81.7053C66.6362 81.7053 66.3841 81.653 66.1577 81.5483C65.9313 81.4418 65.7515 81.2886 65.6184 81.0888C65.4852 80.8872 65.4186 80.6436 65.4186 80.3583C65.4186 80.1071 65.468 79.9035 65.567 79.7475C65.6659 79.5896 65.7981 79.466 65.9637 79.3765C66.1292 79.2871 66.3118 79.2205 66.5116 79.1768C66.7133 79.1311 66.9159 79.0949 67.1195 79.0683C67.3858 79.0341 67.6018 79.0084 67.7673 78.9913C67.9347 78.9722 68.0565 78.9408 68.1326 78.8971C68.2106 78.8533 68.2496 78.7772 68.2496 78.6688V78.6459C68.2496 78.3644 68.1726 78.1456 68.0184 77.9896C67.8662 77.8335 67.6351 77.7555 67.325 77.7555C67.0034 77.7555 66.7513 77.8259 66.5687 77.9667C66.386 78.1075 66.2576 78.2578 66.1834 78.4176L65.5442 78.1893C65.6583 77.923 65.8105 77.7156 66.0008 77.5672C66.1929 77.4169 66.4022 77.3122 66.6286 77.2533C66.8569 77.1924 67.0814 77.1619 67.3021 77.1619C67.4429 77.1619 67.6046 77.1791 67.7873 77.2133C67.9718 77.2457 68.1497 77.3132 68.321 77.4159C68.4941 77.5187 68.6377 77.6737 68.7519 77.8811C68.866 78.0885 68.9231 78.3663 68.9231 78.7144V81.6025H68.2496V81.0089H68.2154C68.1697 81.1041 68.0936 81.2059 67.9871 81.3143C67.8805 81.4227 67.7388 81.515 67.5618 81.5911C67.3849 81.6672 67.1689 81.7053 66.914 81.7053ZM67.0167 81.1003C67.2831 81.1003 67.5076 81.0479 67.6903 80.9433C67.8748 80.8387 68.0137 80.7036 68.1069 80.5381C68.202 80.3725 68.2496 80.1984 68.2496 80.0158V79.3994C68.2211 79.4336 68.1583 79.465 68.0613 79.4935C67.9661 79.5202 67.8558 79.544 67.7302 79.5649C67.6065 79.5839 67.4857 79.601 67.3678 79.6163C67.2517 79.6296 67.1575 79.641 67.0852 79.6505C66.9102 79.6733 66.7466 79.7104 66.5944 79.7618C66.4441 79.8113 66.3223 79.8864 66.2291 79.9873C66.1378 80.0862 66.0921 80.2213 66.0921 80.3925C66.0921 80.6265 66.1787 80.8035 66.3518 80.9233C66.5268 81.0413 66.7485 81.1003 67.0167 81.1003ZM70.8259 78.9656V81.6025H70.1524V77.219H70.8031V77.9039H70.8602C70.9629 77.6813 71.1189 77.5025 71.3282 77.3674C71.5375 77.2304 71.8077 77.1619 72.1387 77.1619C72.4355 77.1619 72.6952 77.2228 72.9178 77.3446C73.1404 77.4644 73.3135 77.6471 73.4372 77.8925C73.5609 78.1361 73.6227 78.4443 73.6227 78.8172V81.6025H72.9492V78.8628C72.9492 78.5185 72.8598 78.2502 72.6809 78.058C72.5021 77.864 72.2567 77.767 71.9446 77.767C71.7296 77.767 71.5375 77.8136 71.3682 77.9068C71.2007 78 71.0685 78.1361 70.9715 78.3149C70.8744 78.4937 70.8259 78.7106 70.8259 78.9656ZM77.9584 78.2007L77.3534 78.372C77.3154 78.2711 77.2592 78.1732 77.185 78.078C77.1127 77.981 77.0138 77.9011 76.8882 77.8383C76.7627 77.7755 76.6019 77.7441 76.4059 77.7441C76.1377 77.7441 75.9141 77.806 75.7353 77.9296C75.5583 78.0514 75.4699 78.2064 75.4699 78.3948C75.4699 78.5622 75.5307 78.6945 75.6525 78.7915C75.7743 78.8885 75.9645 78.9694 76.2233 79.0341L76.874 79.1939C77.2659 79.289 77.5579 79.4346 77.7501 79.6305C77.9423 79.8246 78.0383 80.0748 78.0383 80.3811C78.0383 80.6322 77.966 80.8567 77.8214 81.0546C77.6788 81.2525 77.479 81.4085 77.2221 81.5226C76.9653 81.6368 76.6666 81.6939 76.326 81.6939C75.8789 81.6939 75.5089 81.5968 75.2159 81.4028C74.9229 81.2087 74.7374 80.9252 74.6594 80.5523L75.2986 80.3925C75.3595 80.6284 75.4746 80.8054 75.644 80.9233C75.8152 81.0413 76.0387 81.1003 76.3146 81.1003C76.6285 81.1003 76.8778 81.0337 77.0623 80.9005C77.2488 80.7654 77.342 80.6037 77.342 80.4153C77.342 80.2631 77.2887 80.1357 77.1822 80.0329C77.0756 79.9283 76.912 79.8503 76.6913 79.7989L75.9607 79.6277C75.5593 79.5325 75.2644 79.3851 75.076 79.1853C74.8896 78.9836 74.7964 78.7316 74.7964 78.429C74.7964 78.1817 74.8658 77.9629 75.0047 77.7727C75.1455 77.5824 75.3367 77.4331 75.5783 77.3246C75.8218 77.2162 76.0977 77.1619 76.4059 77.1619C76.8397 77.1619 77.1803 77.2571 77.4276 77.4473C77.6768 77.6376 77.8538 77.8887 77.9584 78.2007ZM80.0453 81.6025L78.7097 77.219H79.4175L80.3649 80.5752H80.4106L81.3467 77.219H82.0658L82.9905 80.5637H83.0362L83.9836 77.219H84.6914L83.3558 81.6025H82.6937L81.7348 78.235H81.6663L80.7074 81.6025H80.0453ZM87.2706 81.6939C86.8482 81.6939 86.4839 81.6006 86.1775 81.4142C85.8731 81.2258 85.6382 80.9633 85.4726 80.6265C85.309 80.2879 85.2272 79.894 85.2272 79.445C85.2272 78.996 85.309 78.6003 85.4726 78.2578C85.6382 77.9135 85.8684 77.6452 86.1633 77.453C86.4601 77.259 86.8063 77.1619 87.2021 77.1619C87.4304 77.1619 87.6558 77.2 87.8784 77.2761C88.101 77.3522 88.3037 77.4759 88.4863 77.6471C88.669 77.8164 88.8145 78.0409 88.923 78.3206C89.0314 78.6003 89.0856 78.9446 89.0856 79.3537V79.6391H85.7067V79.0569H88.4007C88.4007 78.8096 88.3512 78.5889 88.2523 78.3948C88.1553 78.2007 88.0164 78.0476 87.8356 77.9353C87.6568 77.8231 87.4456 77.767 87.2021 77.767C86.9338 77.767 86.7017 77.8335 86.5057 77.9667C86.3117 78.098 86.1623 78.2692 86.0577 78.4804C85.953 78.6916 85.9007 78.918 85.9007 79.1596V79.5478C85.9007 79.8788 85.9578 80.1594 86.0719 80.3896C86.188 80.618 86.3488 80.792 86.5542 80.9119C86.7597 81.0299 86.9985 81.0888 87.2706 81.0888C87.4475 81.0888 87.6073 81.0641 87.75 81.0146C87.8946 80.9633 88.0192 80.8872 88.1239 80.7863C88.2285 80.6836 88.3094 80.5561 88.3664 80.4039L89.0171 80.5866C88.9486 80.8073 88.8335 81.0013 88.6718 81.1688C88.5101 81.3343 88.3103 81.4637 88.0725 81.5569C87.8347 81.6482 87.5674 81.6939 87.2706 81.6939ZM90.1102 81.6025V77.219H90.7608V77.8811H90.8065C90.8864 77.6642 91.031 77.4882 91.2403 77.3531C91.4496 77.2181 91.6855 77.1505 91.948 77.1505C91.9975 77.1505 92.0593 77.1515 92.1335 77.1534C92.2077 77.1553 92.2639 77.1581 92.3019 77.1619V77.8469C92.2791 77.8412 92.2268 77.8326 92.145 77.8212C92.065 77.8079 91.9804 77.8012 91.891 77.8012C91.6779 77.8012 91.4876 77.8459 91.3202 77.9353C91.1547 78.0229 91.0234 78.1446 90.9264 78.3006C90.8312 78.4547 90.7837 78.6307 90.7837 78.8286V81.6025H90.1102ZM96.034 78.9656V81.6025H95.3605V75.7578H96.034V77.9039H96.0911C96.1939 77.6775 96.348 77.4977 96.5534 77.3646C96.7608 77.2295 97.0367 77.1619 97.3811 77.1619C97.6798 77.1619 97.9414 77.2219 98.1659 77.3417C98.3904 77.4597 98.5645 77.6414 98.6881 77.8868C98.8137 78.1303 98.8765 78.4405 98.8765 78.8172V81.6025H98.203V78.8628C98.203 78.5147 98.1126 78.2455 97.9319 78.0552C97.753 77.863 97.5047 77.767 97.187 77.767C96.9663 77.767 96.7684 77.8136 96.5934 77.9068C96.4203 78 96.2833 78.1361 96.1824 78.3149C96.0835 78.4937 96.034 78.7106 96.034 78.9656ZM101.947 81.6939C101.524 81.6939 101.16 81.6006 100.854 81.4142C100.549 81.2258 100.314 80.9633 100.149 80.6265C99.985 80.2879 99.9032 79.894 99.9032 79.445C99.9032 78.996 99.985 78.6003 100.149 78.2578C100.314 77.9135 100.544 77.6452 100.839 77.453C101.136 77.259 101.482 77.1619 101.878 77.1619C102.106 77.1619 102.332 77.2 102.554 77.2761C102.777 77.3522 102.98 77.4759 103.162 77.6471C103.345 77.8164 103.49 78.0409 103.599 78.3206C103.707 78.6003 103.762 78.9446 103.762 79.3537V79.6391H100.383V79.0569H103.077C103.077 78.8096 103.027 78.5889 102.928 78.3948C102.831 78.2007 102.692 78.0476 102.512 77.9353C102.333 77.8231 102.122 77.767 101.878 77.767C101.61 77.767 101.378 77.8335 101.182 77.9667C100.988 78.098 100.838 78.2692 100.734 78.4804C100.629 78.6916 100.577 78.918 100.577 79.1596V79.5478C100.577 79.8788 100.634 80.1594 100.748 80.3896C100.864 80.618 101.025 80.792 101.23 80.9119C101.436 81.0299 101.674 81.0888 101.947 81.0888C102.123 81.0888 102.283 81.0641 102.426 81.0146C102.571 80.9633 102.695 80.8872 102.8 80.7863C102.904 80.6836 102.985 80.5561 103.042 80.4039L103.693 80.5866C103.625 80.8073 103.509 81.0013 103.348 81.1688C103.186 81.3343 102.986 81.4637 102.748 81.5569C102.511 81.6482 102.243 81.6939 101.947 81.6939ZM104.786 81.6025V77.219H105.437V77.8811H105.482C105.562 77.6642 105.707 77.4882 105.916 77.3531C106.126 77.2181 106.361 77.1505 106.624 77.1505C106.673 77.1505 106.735 77.1515 106.81 77.1534C106.884 77.1553 106.94 77.1581 106.978 77.1619V77.8469C106.955 77.8412 106.903 77.8326 106.821 77.8212C106.741 77.8079 106.656 77.8012 106.567 77.8012C106.354 77.8012 106.164 77.8459 105.996 77.9353C105.831 78.0229 105.699 78.1446 105.602 78.3006C105.507 78.4547 105.46 78.6307 105.46 78.8286V81.6025H104.786ZM109.481 81.6939C109.058 81.6939 108.694 81.6006 108.388 81.4142C108.083 81.2258 107.848 80.9633 107.683 80.6265C107.519 80.2879 107.437 79.894 107.437 79.445C107.437 78.996 107.519 78.6003 107.683 78.2578C107.848 77.9135 108.079 77.6452 108.373 77.453C108.67 77.259 109.016 77.1619 109.412 77.1619C109.641 77.1619 109.866 77.2 110.089 77.2761C110.311 77.3522 110.514 77.4759 110.696 77.6471C110.879 77.8164 111.025 78.0409 111.133 78.3206C111.242 78.6003 111.296 78.9446 111.296 79.3537V79.6391H107.917V79.0569H110.611C110.611 78.8096 110.561 78.5889 110.462 78.3948C110.365 78.2007 110.227 78.0476 110.046 77.9353C109.867 77.8231 109.656 77.767 109.412 77.767C109.144 77.767 108.912 77.8335 108.716 77.9667C108.522 78.098 108.372 78.2692 108.268 78.4804C108.163 78.6916 108.111 78.918 108.111 79.1596V79.5478C108.111 79.8788 108.168 80.1594 108.282 80.3896C108.398 80.618 108.559 80.792 108.764 80.9119C108.97 81.0299 109.209 81.0888 109.481 81.0888C109.658 81.0888 109.817 81.0641 109.96 81.0146C110.105 80.9633 110.229 80.8872 110.334 80.7863C110.439 80.6836 110.52 80.5561 110.577 80.4039L111.227 80.5866C111.159 80.8073 111.044 81.0013 110.882 81.1688C110.72 81.3343 110.52 81.4637 110.283 81.5569C110.045 81.6482 109.778 81.6939 109.481 81.6939ZM112.811 81.6482C112.67 81.6482 112.55 81.5978 112.449 81.4969C112.348 81.3961 112.297 81.2753 112.297 81.1345C112.297 80.9937 112.348 80.8729 112.449 80.7721C112.55 80.6712 112.67 80.6208 112.811 80.6208C112.952 80.6208 113.073 80.6712 113.174 80.7721C113.274 80.8729 113.325 80.9937 113.325 81.1345C113.325 81.2277 113.301 81.3133 113.254 81.3914C113.208 81.4694 113.146 81.5321 113.068 81.5797C112.992 81.6254 112.906 81.6482 112.811 81.6482ZM115.024 81.6482C114.884 81.6482 114.763 81.5978 114.662 81.4969C114.561 81.3961 114.511 81.2753 114.511 81.1345C114.511 80.9937 114.561 80.8729 114.662 80.7721C114.763 80.6712 114.884 80.6208 115.024 80.6208C115.165 80.6208 115.286 80.6712 115.387 80.7721C115.488 80.8729 115.538 80.9937 115.538 81.1345C115.538 81.2277 115.514 81.3133 115.467 81.3914C115.421 81.4694 115.359 81.5321 115.281 81.5797C115.205 81.6254 115.119 81.6482 115.024 81.6482ZM117.237 81.6482C117.097 81.6482 116.976 81.5978 116.875 81.4969C116.774 81.3961 116.724 81.2753 116.724 81.1345C116.724 80.9937 116.774 80.8729 116.875 80.7721C116.976 80.6712 117.097 80.6208 117.237 80.6208C117.378 80.6208 117.499 80.6712 117.6 80.7721C117.701 80.8729 117.751 80.9937 117.751 81.1345C117.751 81.2277 117.727 81.3133 117.68 81.3914C117.634 81.4694 117.572 81.5321 117.494 81.5797C117.418 81.6254 117.333 81.6482 117.237 81.6482ZM119.451 81.6482C119.31 81.6482 119.189 81.5978 119.088 81.4969C118.987 81.3961 118.937 81.2753 118.937 81.1345C118.937 80.9937 118.987 80.8729 119.088 80.7721C119.189 80.6712 119.31 80.6208 119.451 80.6208C119.591 80.6208 119.712 80.6712 119.813 80.7721C119.914 80.8729 119.964 80.9937 119.964 81.1345C119.964 81.2277 119.941 81.3133 119.893 81.3914C119.847 81.4694 119.786 81.5321 119.708 81.5797C119.631 81.6254 119.546 81.6482 119.451 81.6482Z" fill="#787878"/>
<rect x="12.959" y="128.858" width="196.893" height="25.0547" rx="6.02735" fill="#050505"/>
<path d="M101.81 139.502C101.776 139.213 101.637 138.989 101.394 138.829C101.15 138.669 100.851 138.589 100.498 138.589C100.239 138.589 100.012 138.631 99.8183 138.715C99.6262 138.798 99.4759 138.913 99.3674 139.06C99.2609 139.206 99.2076 139.373 99.2076 139.559C99.2076 139.715 99.2447 139.849 99.3189 139.962C99.395 140.072 99.492 140.164 99.61 140.239C99.728 140.311 99.8516 140.371 99.981 140.418C100.11 140.464 100.229 140.501 100.338 140.53L100.931 140.689C101.084 140.729 101.253 140.785 101.439 140.855C101.628 140.925 101.807 141.021 101.979 141.143C102.152 141.263 102.295 141.417 102.407 141.606C102.519 141.794 102.575 142.025 102.575 142.299C102.575 142.615 102.492 142.9 102.327 143.155C102.163 143.41 101.924 143.613 101.608 143.763C101.294 143.913 100.912 143.988 100.463 143.988C100.045 143.988 99.6823 143.921 99.376 143.786C99.0716 143.651 98.8319 143.462 98.6568 143.221C98.4837 142.979 98.3857 142.699 98.3629 142.379H99.0935C99.1125 142.6 99.1867 142.782 99.3161 142.927C99.4473 143.07 99.6129 143.176 99.8126 143.246C100.014 143.315 100.231 143.349 100.463 143.349C100.733 143.349 100.976 143.305 101.191 143.218C101.406 143.129 101.576 143.005 101.702 142.847C101.827 142.687 101.89 142.501 101.89 142.288C101.89 142.094 101.836 141.936 101.728 141.814C101.619 141.692 101.476 141.593 101.299 141.517C101.123 141.441 100.931 141.374 100.726 141.317L100.007 141.112C99.5501 140.981 99.1886 140.793 98.9222 140.55C98.6559 140.306 98.5227 139.987 98.5227 139.594C98.5227 139.266 98.6112 138.981 98.7881 138.737C98.9669 138.492 99.2067 138.302 99.5073 138.167C99.8098 138.03 100.147 137.961 100.52 137.961C100.897 137.961 101.232 138.029 101.525 138.164C101.818 138.297 102.05 138.48 102.221 138.712C102.394 138.944 102.486 139.207 102.495 139.502H101.81ZM106.41 142.094V139.502H107.084V143.886H106.41V143.144H106.364C106.262 143.366 106.102 143.556 105.885 143.712C105.668 143.866 105.394 143.943 105.063 143.943C104.789 143.943 104.546 143.883 104.332 143.763C104.119 143.641 103.952 143.459 103.83 143.215C103.708 142.97 103.647 142.66 103.647 142.288V139.502H104.321V142.242C104.321 142.562 104.41 142.816 104.589 143.007C104.77 143.197 105 143.292 105.28 143.292C105.447 143.292 105.618 143.249 105.791 143.164C105.966 143.078 106.112 142.947 106.23 142.77C106.35 142.593 106.41 142.367 106.41 142.094ZM108.408 143.886V138.041H109.082V140.199H109.139C109.188 140.122 109.257 140.025 109.345 139.907C109.434 139.788 109.561 139.681 109.727 139.588C109.894 139.493 110.121 139.445 110.406 139.445C110.775 139.445 111.101 139.537 111.382 139.722C111.664 139.907 111.883 140.168 112.041 140.507C112.199 140.845 112.278 141.245 112.278 141.705C112.278 142.17 112.199 142.572 112.041 142.913C111.883 143.251 111.665 143.514 111.385 143.7C111.105 143.885 110.783 143.977 110.418 143.977C110.136 143.977 109.911 143.93 109.741 143.837C109.572 143.742 109.442 143.635 109.35 143.515C109.259 143.393 109.188 143.292 109.139 143.212H109.059V143.886H108.408ZM109.071 141.694C109.071 142.025 109.119 142.317 109.216 142.57C109.313 142.821 109.455 143.018 109.641 143.161C109.828 143.302 110.056 143.372 110.326 143.372C110.608 143.372 110.843 143.298 111.031 143.149C111.221 142.999 111.364 142.797 111.459 142.544C111.556 142.289 111.605 142.006 111.605 141.694C111.605 141.386 111.557 141.108 111.462 140.861C111.369 140.611 111.227 140.415 111.037 140.27C110.848 140.123 110.612 140.05 110.326 140.05C110.052 140.05 109.822 140.12 109.636 140.258C109.449 140.395 109.308 140.588 109.213 140.835C109.118 141.08 109.071 141.367 109.071 141.694ZM113.309 143.886V139.502H113.959V140.187H114.016C114.108 139.953 114.255 139.771 114.459 139.642C114.662 139.511 114.907 139.445 115.192 139.445C115.481 139.445 115.722 139.511 115.914 139.642C116.108 139.771 116.259 139.953 116.368 140.187H116.414C116.526 139.961 116.694 139.781 116.919 139.648C117.143 139.513 117.412 139.445 117.726 139.445C118.118 139.445 118.439 139.568 118.688 139.813C118.937 140.057 119.062 140.436 119.062 140.952V143.886H118.388V140.952C118.388 140.629 118.3 140.397 118.123 140.258C117.946 140.12 117.738 140.05 117.498 140.05C117.19 140.05 116.951 140.143 116.782 140.33C116.612 140.514 116.528 140.748 116.528 141.032V143.886H115.843V140.883C115.843 140.634 115.762 140.434 115.6 140.281C115.438 140.127 115.23 140.05 114.975 140.05C114.8 140.05 114.637 140.097 114.484 140.19C114.334 140.283 114.212 140.413 114.119 140.578C114.028 140.742 113.982 140.931 113.982 141.146V143.886H113.309ZM120.293 143.886V139.502H120.967V143.886H120.293ZM120.636 138.772C120.505 138.772 120.391 138.727 120.296 138.637C120.203 138.548 120.156 138.441 120.156 138.315C120.156 138.189 120.203 138.082 120.296 137.993C120.391 137.903 120.505 137.858 120.636 137.858C120.767 137.858 120.879 137.903 120.973 137.993C121.068 138.082 121.115 138.189 121.115 138.315C121.115 138.441 121.068 138.548 120.973 138.637C120.879 138.727 120.767 138.772 120.636 138.772ZM124.107 139.502V140.073H121.835V139.502H124.107ZM122.497 138.452H123.171V142.63C123.171 142.82 123.198 142.963 123.253 143.058C123.311 143.151 123.383 143.214 123.47 143.246C123.56 143.277 123.654 143.292 123.753 143.292C123.827 143.292 123.888 143.288 123.936 143.281C123.983 143.271 124.021 143.264 124.05 143.258L124.187 143.863C124.141 143.88 124.077 143.897 123.995 143.914C123.914 143.933 123.81 143.943 123.684 143.943C123.494 143.943 123.308 143.902 123.125 143.82C122.944 143.738 122.794 143.614 122.674 143.446C122.556 143.279 122.497 143.068 122.497 142.813V138.452Z" fill="white"/>
<path d="M72.446 173.968V168.854H74.174C74.5752 168.854 74.9032 168.926 75.1579 169.071C75.4143 169.214 75.604 169.408 75.7272 169.653C75.8504 169.897 75.912 170.17 75.912 170.472C75.912 170.773 75.8504 171.047 75.7272 171.293C75.6057 171.54 75.4176 171.736 75.1629 171.883C74.9082 172.028 74.5819 172.1 74.184 172.1H72.9454V171.551H74.164C74.4387 171.551 74.6593 171.503 74.8258 171.408C74.9922 171.313 75.1129 171.185 75.1878 171.024C75.2644 170.861 75.3027 170.677 75.3027 170.472C75.3027 170.267 75.2644 170.084 75.1878 169.922C75.1129 169.761 74.9914 169.634 74.8233 169.543C74.6551 169.45 74.4321 169.403 74.154 169.403H73.0653V173.968H72.446ZM78.3467 174.048C78.0004 174.048 77.6966 173.965 77.4353 173.8C77.1756 173.636 76.9725 173.405 76.826 173.109C76.6811 172.812 76.6087 172.466 76.6087 172.07C76.6087 171.67 76.6811 171.322 76.826 171.024C76.9725 170.726 77.1756 170.494 77.4353 170.329C77.6966 170.165 78.0004 170.082 78.3467 170.082C78.693 170.082 78.996 170.165 79.2557 170.329C79.517 170.494 79.7201 170.726 79.865 171.024C80.0115 171.322 80.0847 171.67 80.0847 172.07C80.0847 172.466 80.0115 172.812 79.865 173.109C79.7201 173.405 79.517 173.636 79.2557 173.8C78.996 173.965 78.693 174.048 78.3467 174.048ZM78.3467 173.518C78.6097 173.518 78.8262 173.451 78.996 173.316C79.1658 173.181 79.2915 173.004 79.373 172.784C79.4546 172.564 79.4954 172.326 79.4954 172.07C79.4954 171.814 79.4546 171.575 79.373 171.353C79.2915 171.132 79.1658 170.953 78.996 170.816C78.8262 170.68 78.6097 170.612 78.3467 170.612C78.0837 170.612 77.8673 170.68 77.6975 170.816C77.5277 170.953 77.402 171.132 77.3204 171.353C77.2388 171.575 77.198 171.814 77.198 172.07C77.198 172.326 77.2388 172.564 77.3204 172.784C77.402 173.004 77.5277 173.181 77.6975 173.316C77.8673 173.451 78.0837 173.518 78.3467 173.518ZM81.7228 173.968L80.5542 170.132H81.1735L82.0025 173.069H82.0425L82.8615 170.132H83.4908L84.2999 173.059H84.3398L85.1689 170.132H85.7881L84.6195 173.968H84.0402L83.2011 171.021H83.1412L82.3022 173.968H81.7228ZM88.0449 174.048C87.6753 174.048 87.3565 173.966 87.0885 173.803C86.8222 173.638 86.6166 173.408 86.4717 173.114C86.3286 172.817 86.257 172.473 86.257 172.08C86.257 171.687 86.3286 171.341 86.4717 171.041C86.6166 170.74 86.818 170.505 87.076 170.337C87.3357 170.167 87.6387 170.082 87.985 170.082C88.1848 170.082 88.382 170.116 88.5768 170.182C88.7716 170.249 88.9489 170.357 89.1087 170.507C89.2685 170.655 89.3959 170.851 89.4908 171.096C89.5856 171.341 89.6331 171.642 89.6331 172V172.25H86.6765V171.74H89.0338C89.0338 171.524 88.9905 171.331 88.9039 171.161C88.819 170.991 88.6975 170.857 88.5394 170.759C88.3829 170.661 88.1981 170.612 87.985 170.612C87.7503 170.612 87.5472 170.67 87.3757 170.786C87.2059 170.901 87.0752 171.051 86.9836 171.236C86.8921 171.421 86.8463 171.619 86.8463 171.83V172.17C86.8463 172.46 86.8962 172.705 86.9961 172.906C87.0977 173.106 87.2383 173.259 87.4181 173.363C87.5979 173.467 87.8069 173.518 88.0449 173.518C88.1997 173.518 88.3396 173.497 88.4644 173.453C88.591 173.408 88.7 173.342 88.7916 173.254C88.8831 173.164 88.9539 173.052 89.0038 172.919L89.5732 173.079C89.5132 173.272 89.4125 173.442 89.271 173.588C89.1295 173.733 88.9547 173.846 88.7466 173.928C88.5385 174.008 88.3046 174.048 88.0449 174.048ZM90.5296 173.968V170.132H91.0989V170.712H91.1389C91.2088 170.522 91.3353 170.368 91.5184 170.25C91.7015 170.131 91.908 170.072 92.1377 170.072C92.181 170.072 92.2351 170.073 92.3 170.075C92.3649 170.076 92.4141 170.079 92.4474 170.082V170.682C92.4274 170.677 92.3816 170.669 92.31 170.659C92.2401 170.647 92.166 170.642 92.0878 170.642C91.9013 170.642 91.7348 170.681 91.5883 170.759C91.4435 170.836 91.3286 170.942 91.2437 171.079C91.1605 171.213 91.1189 171.367 91.1189 171.541V173.968H90.5296ZM94.6373 174.048C94.2678 174.048 93.949 173.966 93.6809 173.803C93.4146 173.638 93.209 173.408 93.0641 173.114C92.921 172.817 92.8494 172.473 92.8494 172.08C92.8494 171.687 92.921 171.341 93.0641 171.041C93.209 170.74 93.4104 170.505 93.6684 170.337C93.9281 170.167 94.2311 170.082 94.5774 170.082C94.7772 170.082 94.9744 170.116 95.1692 170.182C95.364 170.249 95.5413 170.357 95.7011 170.507C95.8609 170.655 95.9883 170.851 96.0832 171.096C96.1781 171.341 96.2255 171.642 96.2255 172V172.25H93.2689V171.74H95.6262C95.6262 171.524 95.5829 171.331 95.4963 171.161C95.4114 170.991 95.2899 170.857 95.1318 170.759C94.9753 170.661 94.7905 170.612 94.5774 170.612C94.3427 170.612 94.1396 170.67 93.9681 170.786C93.7983 170.901 93.6676 171.051 93.5761 171.236C93.4845 171.421 93.4387 171.619 93.4387 171.83V172.17C93.4387 172.46 93.4887 172.705 93.5885 172.906C93.6901 173.106 93.8308 173.259 94.0106 173.363C94.1903 173.467 94.3993 173.518 94.6373 173.518C94.7922 173.518 94.932 173.497 95.0568 173.453C95.1834 173.408 95.2924 173.342 95.384 173.254C95.4755 173.164 95.5463 173.052 95.5962 172.919L96.1656 173.079C96.1056 173.272 96.0049 173.442 95.8634 173.588C95.7219 173.733 95.5471 173.846 95.339 173.928C95.1309 174.008 94.897 174.048 94.6373 174.048ZM98.5703 174.048C98.2507 174.048 97.9685 173.967 97.7238 173.805C97.4791 173.642 97.2876 173.413 97.1494 173.116C97.0113 172.818 96.9422 172.466 96.9422 172.06C96.9422 171.657 97.0113 171.308 97.1494 171.011C97.2876 170.715 97.4799 170.486 97.7263 170.324C97.9727 170.163 98.2573 170.082 98.5803 170.082C98.83 170.082 99.0273 170.124 99.1721 170.207C99.3186 170.289 99.4301 170.382 99.5067 170.487C99.585 170.59 99.6457 170.675 99.689 170.741H99.739V168.854H100.328V173.968H99.7589V173.378H99.689C99.6457 173.448 99.5841 173.537 99.5042 173.643C99.4243 173.748 99.3103 173.842 99.1621 173.925C99.014 174.007 98.8167 174.048 98.5703 174.048ZM98.6502 173.518C98.8866 173.518 99.0864 173.457 99.2495 173.334C99.4127 173.209 99.5367 173.036 99.6216 172.817C99.7065 172.595 99.7489 172.34 99.7489 172.05C99.7489 171.764 99.7073 171.513 99.6241 171.298C99.5409 171.082 99.4177 170.914 99.2545 170.794C99.0914 170.672 98.8899 170.612 98.6502 170.612C98.4005 170.612 98.1924 170.676 98.0259 170.804C97.8611 170.93 97.7371 171.103 97.6539 171.321C97.5723 171.537 97.5315 171.78 97.5315 172.05C97.5315 172.323 97.5731 172.571 97.6564 172.794C97.7413 173.016 97.8661 173.192 98.0309 173.324C98.1974 173.453 98.4038 173.518 98.6502 173.518ZM103.547 173.968V168.854H104.136V170.741H104.186C104.23 170.675 104.29 170.59 104.366 170.487C104.444 170.382 104.556 170.289 104.701 170.207C104.847 170.124 105.045 170.082 105.295 170.082C105.618 170.082 105.903 170.163 106.149 170.324C106.395 170.486 106.588 170.715 106.726 171.011C106.864 171.308 106.933 171.657 106.933 172.06C106.933 172.466 106.864 172.818 106.726 173.116C106.588 173.413 106.396 173.642 106.152 173.805C105.907 173.967 105.625 174.048 105.305 174.048C105.059 174.048 104.861 174.007 104.713 173.925C104.565 173.842 104.451 173.748 104.371 173.643C104.291 173.537 104.23 173.448 104.186 173.378H104.116V173.968H103.547ZM104.126 172.05C104.126 172.34 104.169 172.595 104.254 172.817C104.339 173.036 104.463 173.209 104.626 173.334C104.789 173.457 104.989 173.518 105.225 173.518C105.472 173.518 105.677 173.453 105.842 173.324C106.008 173.192 106.133 173.016 106.217 172.794C106.301 172.571 106.344 172.323 106.344 172.05C106.344 171.78 106.302 171.537 106.219 171.321C106.137 171.103 106.013 170.93 105.847 170.804C105.682 170.676 105.475 170.612 105.225 170.612C104.985 170.612 104.784 170.672 104.621 170.794C104.458 170.914 104.335 171.082 104.251 171.298C104.168 171.513 104.126 171.764 104.126 172.05ZM108.077 175.406C107.977 175.406 107.888 175.398 107.81 175.381C107.731 175.366 107.677 175.351 107.647 175.336L107.797 174.817C107.94 174.853 108.067 174.867 108.177 174.857C108.287 174.847 108.384 174.798 108.469 174.709C108.555 174.623 108.635 174.482 108.706 174.287L108.816 173.988L107.398 170.132H108.037L109.096 173.189H109.136L110.194 170.132H110.834L109.206 174.527C109.132 174.725 109.042 174.889 108.933 175.019C108.825 175.151 108.699 175.248 108.556 175.311C108.415 175.374 108.255 175.406 108.077 175.406Z" fill="#575656"/>
<path d="M113.552 173.968V170.132H114.298V173.968H113.552ZM113.929 169.54C113.799 169.54 113.687 169.497 113.594 169.411C113.503 169.322 113.457 169.217 113.457 169.096C113.457 168.973 113.503 168.868 113.594 168.781C113.687 168.693 113.799 168.649 113.929 168.649C114.059 168.649 114.169 168.693 114.261 168.781C114.354 168.868 114.401 168.973 114.401 169.096C114.401 169.217 114.354 169.322 114.261 169.411C114.169 169.497 114.059 169.54 113.929 169.54ZM116.05 171.69V173.968H115.303V170.132H116.02V170.756H116.067C116.155 170.553 116.293 170.39 116.482 170.267C116.671 170.144 116.91 170.082 117.198 170.082C117.46 170.082 117.689 170.137 117.885 170.247C118.081 170.355 118.234 170.517 118.342 170.731C118.45 170.946 118.504 171.212 118.504 171.528V173.968H117.758V171.618C117.758 171.34 117.685 171.123 117.54 170.966C117.396 170.808 117.197 170.729 116.944 170.729C116.77 170.729 116.616 170.766 116.482 170.841C116.348 170.916 116.243 171.026 116.164 171.171C116.088 171.314 116.05 171.487 116.05 171.69ZM121.296 170.132V170.731H119.201V170.132H121.296ZM119.763 169.213H120.509V172.842C120.509 172.986 120.531 173.095 120.574 173.169C120.618 173.24 120.673 173.289 120.742 173.316C120.812 173.341 120.887 173.353 120.969 173.353C121.029 173.353 121.081 173.349 121.126 173.341C121.171 173.333 121.206 173.326 121.231 173.321L121.366 173.938C121.323 173.954 121.261 173.971 121.181 173.988C121.101 174.006 121.001 174.016 120.881 174.018C120.685 174.021 120.502 173.986 120.332 173.913C120.162 173.84 120.025 173.726 119.92 173.573C119.815 173.42 119.763 173.228 119.763 172.996V169.213ZM123.734 174.045C123.356 174.045 123.03 173.964 122.757 173.803C122.486 173.64 122.276 173.411 122.128 173.116C121.982 172.82 121.908 172.473 121.908 172.075C121.908 171.682 121.982 171.336 122.128 171.036C122.276 170.736 122.483 170.503 122.747 170.334C123.014 170.166 123.325 170.082 123.681 170.082C123.898 170.082 124.108 170.118 124.311 170.19C124.514 170.261 124.696 170.374 124.858 170.527C125.019 170.68 125.146 170.879 125.24 171.124C125.333 171.367 125.379 171.662 125.379 172.01V172.275H122.33V171.715H124.648C124.648 171.519 124.608 171.345 124.528 171.193C124.448 171.04 124.336 170.92 124.191 170.831C124.048 170.743 123.879 170.699 123.686 170.699C123.477 170.699 123.294 170.751 123.137 170.854C122.982 170.955 122.862 171.089 122.777 171.253C122.694 171.417 122.653 171.594 122.653 171.785V172.222C122.653 172.479 122.698 172.697 122.787 172.877C122.879 173.056 123.006 173.194 123.169 173.289C123.333 173.382 123.523 173.428 123.741 173.428C123.883 173.428 124.012 173.408 124.128 173.368C124.245 173.327 124.346 173.265 124.431 173.184C124.515 173.102 124.58 173.001 124.625 172.882L125.332 173.009C125.275 173.217 125.174 173.399 125.027 173.556C124.883 173.711 124.7 173.831 124.48 173.918C124.262 174.003 124.014 174.045 123.734 174.045ZM127.816 175.486C127.511 175.486 127.249 175.446 127.029 175.366C126.811 175.286 126.633 175.181 126.495 175.049C126.357 174.918 126.254 174.774 126.185 174.617L126.827 174.352C126.872 174.426 126.932 174.503 127.007 174.585C127.084 174.668 127.187 174.739 127.317 174.797C127.448 174.855 127.617 174.884 127.823 174.884C128.107 174.884 128.34 174.815 128.525 174.677C128.71 174.54 128.802 174.322 128.802 174.023V173.269H128.755C128.71 173.35 128.645 173.441 128.56 173.541C128.477 173.641 128.362 173.727 128.216 173.8C128.069 173.874 127.878 173.91 127.644 173.91C127.341 173.91 127.068 173.84 126.825 173.698C126.583 173.555 126.392 173.344 126.25 173.066C126.11 172.787 126.041 172.443 126.041 172.035C126.041 171.627 126.11 171.278 126.248 170.986C126.388 170.695 126.579 170.472 126.822 170.317C127.065 170.16 127.341 170.082 127.649 170.082C127.887 170.082 128.079 170.122 128.226 170.202C128.372 170.28 128.486 170.372 128.568 170.477C128.651 170.582 128.715 170.674 128.76 170.754H128.815V170.132H129.547V174.053C129.547 174.382 129.47 174.653 129.317 174.864C129.164 175.076 128.956 175.232 128.695 175.334C128.435 175.435 128.142 175.486 127.816 175.486ZM127.809 173.291C128.023 173.291 128.205 173.241 128.353 173.141C128.503 173.04 128.616 172.895 128.692 172.707C128.771 172.517 128.81 172.29 128.81 172.025C128.81 171.767 128.772 171.54 128.695 171.343C128.618 171.147 128.506 170.994 128.358 170.884C128.21 170.772 128.027 170.717 127.809 170.717C127.584 170.717 127.396 170.775 127.247 170.891C127.097 171.006 126.984 171.163 126.907 171.361C126.832 171.559 126.795 171.78 126.795 172.025C126.795 172.276 126.833 172.497 126.91 172.687C126.986 172.877 127.099 173.025 127.249 173.131C127.401 173.238 127.587 173.291 127.809 173.291ZM130.548 173.968V170.132H131.27V170.741H131.309C131.379 170.535 131.503 170.373 131.679 170.255C131.857 170.135 132.059 170.075 132.283 170.075C132.33 170.075 132.385 170.076 132.448 170.08C132.513 170.083 132.564 170.087 132.6 170.092V170.806C132.571 170.798 132.517 170.789 132.441 170.779C132.364 170.767 132.288 170.761 132.211 170.761C132.034 170.761 131.877 170.799 131.739 170.874C131.602 170.947 131.494 171.049 131.414 171.181C131.334 171.311 131.295 171.459 131.295 171.625V173.968H130.548ZM134.329 174.053C134.085 174.053 133.866 174.008 133.669 173.918C133.473 173.826 133.317 173.694 133.202 173.521C133.089 173.348 133.033 173.135 133.033 172.884C133.033 172.668 133.074 172.489 133.157 172.35C133.241 172.21 133.353 172.099 133.494 172.018C133.636 171.936 133.794 171.874 133.969 171.833C134.144 171.791 134.322 171.759 134.503 171.738C134.733 171.711 134.919 171.69 135.063 171.673C135.206 171.655 135.31 171.625 135.375 171.586C135.44 171.546 135.472 171.481 135.472 171.391V171.373C135.472 171.155 135.411 170.986 135.287 170.866C135.166 170.746 134.984 170.687 134.743 170.687C134.492 170.687 134.294 170.742 134.149 170.854C134.006 170.964 133.906 171.086 133.852 171.221L133.15 171.061C133.233 170.828 133.355 170.64 133.514 170.497C133.676 170.352 133.862 170.247 134.071 170.182C134.281 170.116 134.502 170.082 134.733 170.082C134.886 170.082 135.049 170.101 135.22 170.137C135.393 170.172 135.555 170.237 135.704 170.332C135.856 170.427 135.98 170.563 136.076 170.739C136.173 170.914 136.221 171.141 136.221 171.421V173.968H135.492V173.443H135.462C135.414 173.54 135.342 173.635 135.245 173.728C135.148 173.821 135.024 173.899 134.873 173.96C134.721 174.022 134.54 174.053 134.329 174.053ZM134.491 173.453C134.697 173.453 134.874 173.413 135.02 173.331C135.168 173.249 135.281 173.143 135.357 173.011C135.436 172.878 135.475 172.736 135.475 172.584V172.09C135.448 172.117 135.396 172.142 135.32 172.165C135.245 172.186 135.159 172.206 135.063 172.222C134.966 172.237 134.872 172.251 134.78 172.265C134.689 172.276 134.612 172.286 134.551 172.295C134.406 172.313 134.274 172.344 134.154 172.387C134.036 172.43 133.941 172.493 133.869 172.574C133.799 172.654 133.764 172.761 133.764 172.894C133.764 173.079 133.832 173.219 133.969 173.314C134.105 173.407 134.279 173.453 134.491 173.453ZM139.041 170.132V170.731H136.874V170.132H139.041ZM137.468 173.968V169.688C137.468 169.448 137.52 169.249 137.625 169.091C137.73 168.931 137.869 168.812 138.042 168.734C138.215 168.654 138.404 168.614 138.607 168.614C138.757 168.614 138.885 168.626 138.991 168.651C139.098 168.675 139.177 168.696 139.228 168.716L139.054 169.321C139.019 169.311 138.974 169.299 138.919 169.286C138.864 169.271 138.797 169.263 138.719 169.263C138.538 169.263 138.408 169.308 138.33 169.398C138.253 169.488 138.215 169.618 138.215 169.788V173.968H137.468ZM140.558 168.854V173.968H139.812V168.854H140.558ZM143.178 174.045C142.819 174.045 142.505 173.963 142.237 173.798C141.969 173.633 141.761 173.403 141.613 173.106C141.464 172.81 141.39 172.464 141.39 172.067C141.39 171.67 141.464 171.322 141.613 171.024C141.761 170.726 141.969 170.494 142.237 170.329C142.505 170.165 142.819 170.082 143.178 170.082C143.538 170.082 143.852 170.165 144.12 170.329C144.388 170.494 144.596 170.726 144.744 171.024C144.892 171.322 144.966 171.67 144.966 172.067C144.966 172.464 144.892 172.81 144.744 173.106C144.596 173.403 144.388 173.633 144.12 173.798C143.852 173.963 143.538 174.045 143.178 174.045ZM143.181 173.418C143.414 173.418 143.607 173.357 143.76 173.234C143.913 173.11 144.027 172.946 144.1 172.742C144.175 172.537 144.212 172.311 144.212 172.065C144.212 171.82 144.175 171.596 144.1 171.391C144.027 171.184 143.913 171.019 143.76 170.894C143.607 170.769 143.414 170.707 143.181 170.707C142.946 170.707 142.751 170.769 142.596 170.894C142.443 171.019 142.329 171.184 142.254 171.391C142.181 171.596 142.145 171.82 142.145 172.065C142.145 172.311 142.181 172.537 142.254 172.742C142.329 172.946 142.443 173.11 142.596 173.234C142.751 173.357 142.946 173.418 143.181 173.418ZM146.514 173.968L145.386 170.132H146.157L146.909 172.949H146.946L147.701 170.132H148.472L149.221 172.936H149.259L150.005 170.132H150.777L149.651 173.968H148.889L148.11 171.198H148.053L147.274 173.968H146.514Z" fill="#050505"/>
</g>
</svg>
