<svg width="285" height="175" viewBox="0 0 285 175" fill="none" xmlns="http://www.w3.org/2000/svg">
<g opacity="0.8">
<rect x="0.0917969" y="0.363281" width="284.818" height="187.676" rx="9.31921" fill="white"/>
<path d="M267.435 17.8369L260.445 24.8263" stroke="#050505" stroke-width="1.1649" stroke-linecap="round" stroke-linejoin="round"/>
<path d="M260.445 17.8369L267.435 24.8263" stroke="#050505" stroke-width="1.1649" stroke-linecap="round" stroke-linejoin="round"/>
<path d="M14.891 39.4854V32.7077H15.7118V35.7259H19.3256V32.7077H20.1463V39.4854H19.3256V36.454H15.7118V39.4854H14.891ZM21.6835 39.4854V34.4021H22.4645V39.4854H21.6835ZM22.0807 33.5549C21.9284 33.5549 21.7972 33.5031 21.6868 33.3994C21.5787 33.2957 21.5247 33.1711 21.5247 33.0254C21.5247 32.8798 21.5787 32.7552 21.6868 32.6515C21.7972 32.5478 21.9284 32.4959 22.0807 32.4959C22.2329 32.4959 22.3631 32.5478 22.4712 32.6515C22.5815 32.7552 22.6366 32.8798 22.6366 33.0254C22.6366 33.1711 22.5815 33.2957 22.4712 33.3994C22.3631 33.5031 22.2329 33.5549 22.0807 33.5549ZM25.0599 38.5587L25.007 38.9161C24.9695 39.1677 24.9121 39.4368 24.8349 39.7236C24.7599 40.0104 24.6816 40.2807 24.5999 40.5344C24.5183 40.7881 24.451 40.99 24.3981 41.14H23.8024C23.831 40.9988 23.8686 40.8124 23.9149 40.5808C23.9612 40.3491 24.0075 40.0899 24.0539 39.8031C24.1024 39.5184 24.1421 39.2272 24.173 38.9294L24.2127 38.5587H25.0599ZM31.1798 41.4975C30.8025 41.4975 30.4782 41.4489 30.2068 41.3518C29.9355 41.257 29.7093 41.1312 29.5284 40.9746C29.3497 40.8201 29.2074 40.6547 29.1015 40.4782L29.7237 40.0413C29.7943 40.134 29.8836 40.2399 29.9917 40.359C30.0998 40.4804 30.2476 40.5852 30.4352 40.6734C30.6249 40.7639 30.8731 40.8091 31.1798 40.8091C31.5902 40.8091 31.9288 40.7098 32.1958 40.5113C32.4627 40.3127 32.5962 40.0016 32.5962 39.578V38.5455H32.53C32.4727 38.6382 32.391 38.7529 32.2851 38.8897C32.1814 39.0242 32.0314 39.1445 31.835 39.2504C31.6409 39.3541 31.3784 39.4059 31.0474 39.4059C30.6371 39.4059 30.2686 39.3089 29.9421 39.1147C29.6178 38.9206 29.3607 38.6382 29.171 38.2675C28.9835 37.8969 28.8897 37.4468 28.8897 36.9173C28.8897 36.3966 28.9813 35.9432 29.1644 35.5571C29.3475 35.1688 29.6023 34.8688 29.9288 34.657C30.2554 34.443 30.6326 34.336 31.0607 34.336C31.3916 34.336 31.6541 34.3911 31.8483 34.5014C32.0446 34.6095 32.1947 34.7331 32.2984 34.8721C32.4043 35.0089 32.4859 35.1214 32.5433 35.2096H32.6227V34.4021H33.3772V39.631C33.3772 40.0678 33.2779 40.423 33.0794 40.6966C32.883 40.9724 32.6183 41.1742 32.2851 41.3022C31.9542 41.4324 31.5857 41.4975 31.1798 41.4975ZM31.1533 38.7043C31.4666 38.7043 31.7314 38.6326 31.9476 38.4892C32.1638 38.3458 32.3281 38.1395 32.4407 37.8704C32.5532 37.6012 32.6094 37.2791 32.6094 36.904C32.6094 36.5378 32.5543 36.2146 32.444 35.9344C32.3337 35.6542 32.1704 35.4347 31.9542 35.2758C31.738 35.117 31.471 35.0375 31.1533 35.0375C30.8224 35.0375 30.5466 35.1214 30.326 35.2891C30.1076 35.4567 29.9432 35.6818 29.8329 35.9642C29.7248 36.2466 29.6707 36.5599 29.6707 36.904C29.6707 37.257 29.7259 37.5692 29.8362 37.8406C29.9487 38.1098 30.1142 38.3216 30.3326 38.476C30.5532 38.6282 30.8268 38.7043 31.1533 38.7043ZM36.8719 39.5913C36.413 39.5913 36.0104 39.482 35.664 39.2636C35.3198 39.0452 35.0507 38.7396 34.8565 38.3469C34.6646 37.9542 34.5686 37.4953 34.5686 36.9702C34.5686 36.4407 34.6646 35.9785 34.8565 35.5836C35.0507 35.1887 35.3198 34.882 35.664 34.6636C36.0104 34.4452 36.413 34.336 36.8719 34.336C37.3308 34.336 37.7324 34.4452 38.0765 34.6636C38.4229 34.882 38.6921 35.1887 38.884 35.5836C39.0782 35.9785 39.1752 36.4407 39.1752 36.9702C39.1752 37.4953 39.0782 37.9542 38.884 38.3469C38.6921 38.7396 38.4229 39.0452 38.0765 39.2636C37.7324 39.482 37.3308 39.5913 36.8719 39.5913ZM36.8719 38.8897C37.2205 38.8897 37.5073 38.8003 37.7324 38.6216C37.9574 38.4429 38.124 38.2079 38.2321 37.9167C38.3402 37.6255 38.3942 37.31 38.3942 36.9702C38.3942 36.6305 38.3402 36.3139 38.2321 36.0204C38.124 35.727 37.9574 35.4898 37.7324 35.3089C37.5073 35.128 37.2205 35.0375 36.8719 35.0375C36.5233 35.0375 36.2365 35.128 36.0115 35.3089C35.7864 35.4898 35.6199 35.727 35.5118 36.0204C35.4037 36.3139 35.3496 36.6305 35.3496 36.9702C35.3496 37.31 35.4037 37.6255 35.5118 37.9167C35.6199 38.2079 35.7864 38.4429 36.0115 38.6216C36.2365 38.8003 36.5233 38.8897 36.8719 38.8897ZM42.4325 39.5913C41.9736 39.5913 41.571 39.482 41.2246 39.2636C40.8804 39.0452 40.6112 38.7396 40.4171 38.3469C40.2251 37.9542 40.1292 37.4953 40.1292 36.9702C40.1292 36.4407 40.2251 35.9785 40.4171 35.5836C40.6112 35.1887 40.8804 34.882 41.2246 34.6636C41.571 34.4452 41.9736 34.336 42.4325 34.336C42.8914 34.336 43.2929 34.4452 43.6371 34.6636C43.9835 34.882 44.2527 35.1887 44.4446 35.5836C44.6388 35.9785 44.7358 36.4407 44.7358 36.9702C44.7358 37.4953 44.6388 37.9542 44.4446 38.3469C44.2527 38.7396 43.9835 39.0452 43.6371 39.2636C43.2929 39.482 42.8914 39.5913 42.4325 39.5913ZM42.4325 38.8897C42.7811 38.8897 43.0679 38.8003 43.2929 38.6216C43.518 38.4429 43.6845 38.2079 43.7927 37.9167C43.9008 37.6255 43.9548 37.31 43.9548 36.9702C43.9548 36.6305 43.9008 36.3139 43.7927 36.0204C43.6845 35.727 43.518 35.4898 43.2929 35.3089C43.0679 35.128 42.7811 35.0375 42.4325 35.0375C42.0839 35.0375 41.7971 35.128 41.5721 35.3089C41.347 35.4898 41.1805 35.727 41.0723 36.0204C40.9642 36.3139 40.9102 36.6305 40.9102 36.9702C40.9102 37.31 40.9642 37.6255 41.0723 37.9167C41.1805 38.2079 41.347 38.4429 41.5721 38.6216C41.7971 38.8003 42.0839 38.8897 42.4325 38.8897ZM47.8475 39.5913C47.4239 39.5913 47.0499 39.4842 46.7256 39.2702C46.4013 39.054 46.1476 38.7496 45.9644 38.3569C45.7813 37.9619 45.6898 37.4953 45.6898 36.957C45.6898 36.4231 45.7813 35.9598 45.9644 35.567C46.1476 35.1743 46.4024 34.871 46.7289 34.657C47.0554 34.443 47.4327 34.336 47.8607 34.336C48.1916 34.336 48.4531 34.3911 48.645 34.5014C48.8392 34.6095 48.987 34.7331 49.0885 34.8721C49.1922 35.0089 49.2727 35.1214 49.3301 35.2096H49.3963V32.7077H50.1773V39.4854H49.4227V38.7043H49.3301C49.2727 38.797 49.1911 38.9139 49.0852 39.0551C48.9793 39.1941 48.8281 39.3188 48.6318 39.4291C48.4354 39.5372 48.174 39.5913 47.8475 39.5913ZM47.9534 38.8897C48.2667 38.8897 48.5314 38.808 48.7476 38.6448C48.9638 38.4793 49.1282 38.251 49.2407 37.9597C49.3532 37.6663 49.4095 37.3276 49.4095 36.9438C49.4095 36.5643 49.3543 36.2322 49.244 35.9476C49.1337 35.6608 48.9704 35.438 48.7542 35.2791C48.538 35.1181 48.2711 35.0375 47.9534 35.0375C47.6224 35.0375 47.3466 35.1225 47.126 35.2924C46.9076 35.46 46.7432 35.6884 46.6329 35.9774C46.5248 36.2642 46.4708 36.5863 46.4708 36.9438C46.4708 37.3056 46.5259 37.6343 46.6362 37.9299C46.7488 38.2234 46.9142 38.4572 47.1326 38.6315C47.3533 38.8036 47.6268 38.8897 47.9534 38.8897ZM56.5478 34.4021V35.064H53.9136V34.4021H56.5478ZM54.6813 33.1843H55.4623V38.0292C55.4623 38.2499 55.4943 38.4153 55.5583 38.5256C55.6245 38.6337 55.7083 38.7065 55.8098 38.7441C55.9135 38.7794 56.0227 38.797 56.1375 38.797C56.2235 38.797 56.2941 38.7926 56.3493 38.7838C56.4044 38.7727 56.4485 38.7639 56.4816 38.7573L56.6405 39.4589C56.5875 39.4787 56.5136 39.4986 56.4188 39.5184C56.3239 39.5405 56.2036 39.5515 56.058 39.5515C55.8374 39.5515 55.6212 39.5041 55.4094 39.4092C55.1998 39.3144 55.0255 39.1699 54.8865 38.9757C54.7497 38.7816 54.6813 38.5367 54.6813 38.241V33.1843ZM59.7331 39.5913C59.2742 39.5913 58.8716 39.482 58.5252 39.2636C58.181 39.0452 57.9118 38.7396 57.7177 38.3469C57.5257 37.9542 57.4298 37.4953 57.4298 36.9702C57.4298 36.4407 57.5257 35.9785 57.7177 35.5836C57.9118 35.1887 58.181 34.882 58.5252 34.6636C58.8716 34.4452 59.2742 34.336 59.7331 34.336C60.192 34.336 60.5935 34.4452 60.9377 34.6636C61.2841 34.882 61.5533 35.1887 61.7452 35.5836C61.9393 35.9785 62.0364 36.4407 62.0364 36.9702C62.0364 37.4953 61.9393 37.9542 61.7452 38.3469C61.5533 38.7396 61.2841 39.0452 60.9377 39.2636C60.5935 39.482 60.192 39.5913 59.7331 39.5913ZM59.7331 38.8897C60.0817 38.8897 60.3685 38.8003 60.5935 38.6216C60.8186 38.4429 60.9851 38.2079 61.0932 37.9167C61.2014 37.6255 61.2554 37.31 61.2554 36.9702C61.2554 36.6305 61.2014 36.3139 61.0932 36.0204C60.9851 35.727 60.8186 35.4898 60.5935 35.3089C60.3685 35.128 60.0817 35.0375 59.7331 35.0375C59.3845 35.0375 59.0977 35.128 58.8727 35.3089C58.6476 35.4898 58.481 35.727 58.3729 36.0204C58.2648 36.3139 58.2108 36.6305 58.2108 36.9702C58.2108 37.31 58.2648 37.6255 58.3729 37.9167C58.481 38.2079 58.6476 38.4429 58.8727 38.6216C59.0977 38.8003 59.3845 38.8897 59.7331 38.8897ZM69.4503 35.5406L68.7487 35.7391C68.7045 35.6222 68.6395 35.5086 68.5534 35.3983C68.4696 35.2858 68.3549 35.1931 68.2092 35.1203C68.0636 35.0475 67.8772 35.0111 67.65 35.0111C67.3389 35.0111 67.0796 35.0828 66.8722 35.2262C66.6671 35.3674 66.5645 35.5472 66.5645 35.7656C66.5645 35.9598 66.6351 36.1131 66.7763 36.2256C66.9175 36.3381 67.1381 36.4319 67.4382 36.5069L68.1927 36.6922C68.6472 36.8025 68.9858 36.9713 69.2087 37.1986C69.4315 37.4236 69.5429 37.7137 69.5429 38.0689C69.5429 38.3602 69.4591 38.6205 69.2914 38.85C69.1259 39.0794 68.8943 39.2603 68.5964 39.3927C68.2986 39.5251 67.9522 39.5913 67.5573 39.5913C67.0388 39.5913 66.6097 39.4787 66.2699 39.2537C65.9302 39.0287 65.7151 38.6999 65.6246 38.2675L66.3659 38.0822C66.4365 38.3558 66.57 38.5609 66.7663 38.6977C66.9649 38.8345 67.2241 38.9029 67.5441 38.9029C67.9081 38.9029 68.1971 38.8257 68.4111 38.6712C68.6273 38.5146 68.7354 38.3271 68.7354 38.1087C68.7354 37.9322 68.6737 37.7843 68.5501 37.6652C68.4266 37.5439 68.2368 37.4534 67.9809 37.3938L67.1337 37.1953C66.6682 37.085 66.3262 36.914 66.1078 36.6823C65.8916 36.4484 65.7835 36.1561 65.7835 35.8053C65.7835 35.5185 65.864 35.2648 66.025 35.0442C66.1883 34.8235 66.41 34.6504 66.6902 34.5246C66.9726 34.3988 67.2925 34.336 67.65 34.336C68.153 34.336 68.5479 34.4463 68.8347 34.6669C69.1237 34.8875 69.3289 35.1787 69.4503 35.5406ZM72.8498 39.5913C72.36 39.5913 71.9375 39.4831 71.5823 39.2669C71.2293 39.0485 70.9568 38.7441 70.7649 38.3535C70.5752 37.9608 70.4803 37.5041 70.4803 36.9835C70.4803 36.4628 70.5752 36.0039 70.7649 35.6068C70.9568 35.2074 71.2238 34.8963 71.5658 34.6735C71.9099 34.4485 72.3115 34.336 72.7704 34.336C73.0351 34.336 73.2966 34.3801 73.5547 34.4683C73.8128 34.5566 74.0478 34.7 74.2596 34.8986C74.4714 35.0949 74.6402 35.3552 74.7659 35.6796C74.8917 36.0039 74.9546 36.4032 74.9546 36.8776V37.2085H71.0363V36.5334H74.1603C74.1603 36.2466 74.103 35.9906 73.9882 35.7656C73.8757 35.5406 73.7147 35.363 73.5051 35.2328C73.2977 35.1026 73.0528 35.0375 72.7704 35.0375C72.4593 35.0375 72.1901 35.1148 71.9629 35.2692C71.7379 35.4214 71.5647 35.62 71.4433 35.8649C71.322 36.1098 71.2613 36.3723 71.2613 36.6525V37.1026C71.2613 37.4865 71.3275 37.8119 71.4599 38.0789C71.5945 38.3436 71.7809 38.5455 72.0192 38.6845C72.2574 38.8213 72.5343 38.8897 72.8498 38.8897C73.055 38.8897 73.2403 38.861 73.4058 38.8036C73.5735 38.7441 73.718 38.6558 73.8393 38.5389C73.9607 38.4197 74.0544 38.2719 74.1206 38.0954L74.8751 38.3072C74.7957 38.5631 74.6622 38.7882 74.4747 38.9823C74.2872 39.1743 74.0555 39.3243 73.7797 39.4324C73.504 39.5383 73.194 39.5913 72.8498 39.5913ZM78.2739 39.5913C77.7841 39.5913 77.3616 39.4831 77.0064 39.2669C76.6534 39.0485 76.3809 38.7441 76.189 38.3535C75.9992 37.9608 75.9044 37.5041 75.9044 36.9835C75.9044 36.4628 75.9992 36.0039 76.189 35.6068C76.3809 35.2074 76.6479 34.8963 76.9898 34.6735C77.334 34.4485 77.7356 34.336 78.1945 34.336C78.4592 34.336 78.7206 34.3801 78.9788 34.4683C79.2369 34.5566 79.4719 34.7 79.6837 34.8986C79.8955 35.0949 80.0643 35.3552 80.19 35.6796C80.3158 36.0039 80.3786 36.4032 80.3786 36.8776V37.2085H76.4603V36.5334H79.5844C79.5844 36.2466 79.527 35.9906 79.4123 35.7656C79.2998 35.5406 79.1387 35.363 78.9291 35.2328C78.7217 35.1026 78.4769 35.0375 78.1945 35.0375C77.8834 35.0375 77.6142 35.1148 77.387 35.2692C77.1619 35.4214 76.9887 35.62 76.8674 35.8649C76.746 36.1098 76.6854 36.3723 76.6854 36.6525V37.1026C76.6854 37.4865 76.7516 37.8119 76.8839 38.0789C77.0185 38.3436 77.2049 38.5455 77.4432 38.6845C77.6815 38.8213 77.9584 38.8897 78.2739 38.8897C78.4791 38.8897 78.6644 38.861 78.8299 38.8036C78.9975 38.7441 79.142 38.6558 79.2634 38.5389C79.3847 38.4197 79.4785 38.2719 79.5447 38.0954L80.2992 38.3072C80.2198 38.5631 80.0863 38.7882 79.8988 38.9823C79.7113 39.1743 79.4796 39.3243 79.2038 39.4324C78.928 39.5383 78.6181 39.5913 78.2739 39.5913ZM84.6908 41.3916C84.5584 41.3916 84.4403 41.3805 84.3367 41.3585C84.233 41.3386 84.1613 41.3187 84.1215 41.2989L84.3201 40.6105C84.5098 40.6591 84.6775 40.6767 84.8231 40.6635C84.9687 40.6503 85.0978 40.5852 85.2103 40.4682C85.3251 40.3535 85.4299 40.1671 85.5247 39.909L85.6703 39.5118L83.7906 34.4021H84.6378L86.041 38.4528H86.0939L87.4971 34.4021H88.3443L86.1866 40.2267C86.0895 40.4892 85.9693 40.7065 85.8259 40.8786C85.6825 41.0529 85.5159 41.182 85.3262 41.2658C85.1386 41.3496 84.9268 41.3916 84.6908 41.3916ZM91.2582 39.5913C90.7993 39.5913 90.3967 39.482 90.0503 39.2636C89.7061 39.0452 89.437 38.7396 89.2428 38.3469C89.0509 37.9542 88.9549 37.4953 88.9549 36.9702C88.9549 36.4407 89.0509 35.9785 89.2428 35.5836C89.437 35.1887 89.7061 34.882 90.0503 34.6636C90.3967 34.4452 90.7993 34.336 91.2582 34.336C91.7171 34.336 92.1187 34.4452 92.4628 34.6636C92.8092 34.882 93.0784 35.1887 93.2703 35.5836C93.4645 35.9785 93.5615 36.4407 93.5615 36.9702C93.5615 37.4953 93.4645 37.9542 93.2703 38.3469C93.0784 38.7396 92.8092 39.0452 92.4628 39.2636C92.1187 39.482 91.7171 39.5913 91.2582 39.5913ZM91.2582 38.8897C91.6068 38.8897 91.8936 38.8003 92.1187 38.6216C92.3437 38.4429 92.5103 38.2079 92.6184 37.9167C92.7265 37.6255 92.7805 37.31 92.7805 36.9702C92.7805 36.6305 92.7265 36.3139 92.6184 36.0204C92.5103 35.727 92.3437 35.4898 92.1187 35.3089C91.8936 35.128 91.6068 35.0375 91.2582 35.0375C90.9096 35.0375 90.6228 35.128 90.3978 35.3089C90.1727 35.4898 90.0062 35.727 89.8981 36.0204C89.79 36.3139 89.7359 36.6305 89.7359 36.9702C89.7359 37.31 89.79 37.6255 89.8981 37.9167C90.0062 38.2079 90.1727 38.4429 90.3978 38.6216C90.6228 38.8003 90.9096 38.8897 91.2582 38.8897ZM97.9572 37.4071V34.4021H98.7382V39.4854H97.9572V38.6249H97.9043C97.7851 38.883 97.5998 39.1026 97.3483 39.2835C97.0968 39.4622 96.7791 39.5515 96.3952 39.5515C96.0775 39.5515 95.7951 39.482 95.548 39.343C95.3009 39.2018 95.1068 38.99 94.9656 38.7076C94.8244 38.423 94.7538 38.0645 94.7538 37.6321V34.4021H95.5348V37.5792C95.5348 37.9498 95.6385 38.2454 95.8458 38.4661C96.0554 38.6867 96.3224 38.797 96.6467 38.797C96.8409 38.797 97.0383 38.7474 97.2391 38.6481C97.4421 38.5488 97.6119 38.3966 97.7487 38.1914C97.8877 37.9862 97.9572 37.7248 97.9572 37.4071ZM101.201 32.7077L101.135 37.5792H100.367L100.301 32.7077H101.201ZM100.751 39.5383C100.588 39.5383 100.448 39.4798 100.331 39.3629C100.214 39.246 100.155 39.1059 100.155 38.9426C100.155 38.7794 100.214 38.6393 100.331 38.5223C100.448 38.4054 100.588 38.3469 100.751 38.3469C100.914 38.3469 101.055 38.4054 101.171 38.5223C101.288 38.6393 101.347 38.7794 101.347 38.9426C101.347 39.0507 101.319 39.15 101.264 39.2405C101.211 39.3309 101.139 39.4037 101.049 39.4589C100.961 39.5118 100.861 39.5383 100.751 39.5383Z" fill="#575656"/>
<path d="M23.7751 57.4083H21.9185C21.8656 57.1038 21.7679 56.8341 21.6256 56.5992C21.4833 56.3609 21.3063 56.159 21.0945 55.9935C20.8827 55.8281 20.6411 55.704 20.3697 55.6212C20.1017 55.5352 19.8121 55.4922 19.501 55.4922C18.9483 55.4922 18.4585 55.6312 18.0316 55.9091C17.6047 56.1838 17.2705 56.5876 17.0289 57.1204C16.7873 57.6499 16.6665 58.2969 16.6665 59.0613C16.6665 59.839 16.7873 60.4943 17.0289 61.0271C17.2738 61.5566 17.608 61.957 18.0316 62.2284C18.4585 62.4965 18.9467 62.6305 19.496 62.6305C19.8005 62.6305 20.0851 62.5908 20.3499 62.5114C20.6179 62.4286 20.8578 62.3078 21.0696 62.149C21.2848 61.9901 21.4651 61.7949 21.6107 61.5632C21.7597 61.3316 21.8622 61.0668 21.9185 60.769L23.7751 60.7789C23.7056 61.2621 23.555 61.7154 23.3233 62.139C23.095 62.5626 22.7955 62.9366 22.4248 63.2609C22.0542 63.5819 21.6207 63.8334 21.1242 64.0155C20.6278 64.1942 20.0768 64.2835 19.4712 64.2835C18.5777 64.2835 17.7801 64.0767 17.0785 63.663C16.3769 63.2493 15.8243 62.652 15.4205 61.871C15.0168 61.09 14.8149 60.1534 14.8149 59.0613C14.8149 57.9659 15.0184 57.0294 15.4255 56.2517C15.8326 55.4707 16.3869 54.8733 17.0885 54.4596C17.7901 54.046 18.5843 53.8391 19.4712 53.8391C20.0371 53.8391 20.5633 53.9186 21.0498 54.0774C21.5363 54.2363 21.9698 54.4696 22.3504 54.7773C22.731 55.0818 23.0437 55.4558 23.2886 55.8992C23.5368 56.3394 23.6989 56.8424 23.7751 57.4083ZM28.7081 64.2935C27.9635 64.2935 27.3182 64.1296 26.7721 63.802C26.2261 63.4744 25.8025 63.016 25.5013 62.427C25.2035 61.8379 25.0545 61.1495 25.0545 60.3619C25.0545 59.5743 25.2035 58.8843 25.5013 58.2919C25.8025 57.6995 26.2261 57.2395 26.7721 56.9119C27.3182 56.5843 27.9635 56.4204 28.7081 56.4204C29.4527 56.4204 30.098 56.5843 30.6441 56.9119C31.1901 57.2395 31.6121 57.6995 31.9099 58.2919C32.2111 58.8843 32.3617 59.5743 32.3617 60.3619C32.3617 61.1495 32.2111 61.8379 31.9099 62.427C31.6121 63.016 31.1901 63.4744 30.6441 63.802C30.098 64.1296 29.4527 64.2935 28.7081 64.2935ZM28.718 62.8539C29.1218 62.8539 29.4593 62.743 29.7307 62.5213C30.0021 62.2962 30.2039 61.9951 30.3363 61.6178C30.472 61.2406 30.5398 60.8203 30.5398 60.3569C30.5398 59.8903 30.472 59.4684 30.3363 59.0911C30.2039 58.7105 30.0021 58.4077 29.7307 58.1827C29.4593 57.9577 29.1218 57.8451 28.718 57.8451C28.3044 57.8451 27.9602 57.9577 27.6855 58.1827C27.4141 58.4077 27.2106 58.7105 27.0749 59.0911C26.9425 59.4684 26.8764 59.8903 26.8764 60.3569C26.8764 60.8203 26.9425 61.2406 27.0749 61.6178C27.2106 61.9951 27.4141 62.2962 27.6855 62.5213C27.9602 62.743 28.3044 62.8539 28.718 62.8539ZM38.7467 60.9377V56.5197H40.5437V64.1445H38.8013V62.7893H38.7219C38.5498 63.2163 38.2668 63.5654 37.873 63.8368C37.4825 64.1081 37.001 64.2438 36.4285 64.2438C35.9287 64.2438 35.4869 64.1329 35.1031 63.9112C34.7225 63.6862 34.4246 63.3602 34.2095 62.9333C33.9944 62.5031 33.8869 61.9835 33.8869 61.3746V56.5197H35.6839V61.0966C35.6839 61.5798 35.8162 61.9637 36.081 62.2483C36.3457 62.5329 36.6932 62.6752 37.1234 62.6752C37.3882 62.6752 37.6447 62.6106 37.8929 62.4816C38.1411 62.3525 38.3446 62.1606 38.5034 61.9057C38.6656 61.6476 38.7467 61.3249 38.7467 60.9377ZM44.1885 53.9781V64.1445H42.3915V53.9781H44.1885ZM48.8659 64.2786C48.2669 64.2786 47.7308 64.1247 47.2576 63.8169C46.7843 63.5091 46.4104 63.0624 46.1357 62.4766C45.861 61.8908 45.7237 61.1793 45.7237 60.3421C45.7237 59.4949 45.8627 58.78 46.1407 58.1976C46.422 57.6118 46.8009 57.17 47.2774 56.8722C47.754 56.571 48.2851 56.4204 48.8709 56.4204C49.3177 56.4204 49.685 56.4966 49.9729 56.6488C50.2608 56.7977 50.4892 56.9781 50.658 57.1899C50.8267 57.3984 50.9575 57.5953 51.0501 57.7806H51.1246V53.9781H52.9265V64.1445H51.1593V62.9432H51.0501C50.9575 63.1286 50.8234 63.3255 50.648 63.534C50.4726 63.7391 50.241 63.9145 49.9531 64.0601C49.6651 64.2058 49.3028 64.2786 48.8659 64.2786ZM49.3673 62.8042C49.7479 62.8042 50.0722 62.7016 50.3403 62.4965C50.6083 62.288 50.8118 61.9984 50.9508 61.6277C51.0898 61.2571 51.1593 60.8252 51.1593 60.3321C51.1593 59.839 51.0898 59.4105 50.9508 59.0464C50.8152 58.6824 50.6133 58.3995 50.3452 58.1976C50.0805 57.9957 49.7545 57.8948 49.3673 57.8948C48.9669 57.8948 48.6326 57.999 48.3646 58.2075C48.0965 58.416 47.8946 58.7039 47.7589 59.0713C47.6233 59.4386 47.5554 59.8589 47.5554 60.3321C47.5554 60.8087 47.6233 61.2339 47.7589 61.6079C47.8979 61.9785 48.1015 62.2714 48.3695 62.4865C48.6409 62.6983 48.9735 62.8042 49.3673 62.8042ZM59.4257 67.0038C59.1808 67.0038 58.9542 66.984 58.7457 66.9443C58.5405 66.9079 58.3767 66.8648 58.2542 66.8152L58.6712 65.4153C58.9326 65.4914 59.166 65.5279 59.3711 65.5245C59.5763 65.5212 59.7567 65.4567 59.9122 65.3309C60.0711 65.2085 60.2051 65.0033 60.3143 64.7154L60.4682 64.3034L57.7032 56.5197H59.6094L61.3667 62.278H61.4461L63.2084 56.5197H65.1195L62.0666 65.0678C61.9243 65.4716 61.7357 65.8174 61.5007 66.1053C61.2658 66.3966 60.9778 66.6183 60.637 66.7705C60.2994 66.9261 59.8957 67.0038 59.4257 67.0038ZM69.4296 64.2935C68.685 64.2935 68.0396 64.1296 67.4936 63.802C66.9475 63.4744 66.5239 63.016 66.2228 62.427C65.9249 61.8379 65.776 61.1495 65.776 60.3619C65.776 59.5743 65.9249 58.8843 66.2228 58.2919C66.5239 57.6995 66.9475 57.2395 67.4936 56.9119C68.0396 56.5843 68.685 56.4204 69.4296 56.4204C70.1742 56.4204 70.8195 56.5843 71.3656 56.9119C71.9116 57.2395 72.3336 57.6995 72.6314 58.2919C72.9325 58.8843 73.0831 59.5743 73.0831 60.3619C73.0831 61.1495 72.9325 61.8379 72.6314 62.427C72.3336 63.016 71.9116 63.4744 71.3656 63.802C70.8195 64.1296 70.1742 64.2935 69.4296 64.2935ZM69.4395 62.8539C69.8432 62.8539 70.1808 62.743 70.4522 62.5213C70.7235 62.2962 70.9254 61.9951 71.0578 61.6178C71.1935 61.2406 71.2613 60.8203 71.2613 60.3569C71.2613 59.8903 71.1935 59.4684 71.0578 59.0911C70.9254 58.7105 70.7235 58.4077 70.4522 58.1827C70.1808 57.9577 69.8432 57.8451 69.4395 57.8451C69.0258 57.8451 68.6817 57.9577 68.407 58.1827C68.1356 58.4077 67.9321 58.7105 67.7964 59.0911C67.664 59.4684 67.5978 59.8903 67.5978 60.3569C67.5978 60.8203 67.664 61.2406 67.7964 61.6178C67.9321 61.9951 68.1356 62.2962 68.407 62.5213C68.6817 62.743 69.0258 62.8539 69.4395 62.8539ZM79.4682 60.9377V56.5197H81.2651V64.1445H79.5228V62.7893H79.4433C79.2712 63.2163 78.9883 63.5654 78.5945 63.8368C78.204 64.1081 77.7225 64.2438 77.1499 64.2438C76.6502 64.2438 76.2084 64.1329 75.8245 63.9112C75.444 63.6862 75.1461 63.3602 74.931 62.9333C74.7159 62.5031 74.6083 61.9835 74.6083 61.3746V56.5197H76.4053V61.0966C76.4053 61.5798 76.5377 61.9637 76.8024 62.2483C77.0672 62.5329 77.4147 62.6752 77.8449 62.6752C78.1097 62.6752 78.3661 62.6106 78.6143 62.4816C78.8625 62.3525 79.0661 62.1606 79.2249 61.9057C79.3871 61.6476 79.4682 61.3249 79.4682 60.9377ZM86.5804 67.0038V56.5197H88.3476V57.7806H88.4519C88.5445 57.5953 88.6753 57.3984 88.844 57.1899C89.0128 56.9781 89.2412 56.7977 89.5291 56.6488C89.817 56.4966 90.1843 56.4204 90.6311 56.4204C91.2202 56.4204 91.7513 56.571 92.2246 56.8722C92.7011 57.17 93.0784 57.6118 93.3564 58.1976C93.6377 58.78 93.7783 59.4949 93.7783 60.3421C93.7783 61.1793 93.641 61.8908 93.3663 62.4766C93.0916 63.0624 92.7177 63.5091 92.2444 63.8169C91.7712 64.1247 91.2351 64.2786 90.6361 64.2786C90.1992 64.2786 89.8368 64.2058 89.5489 64.0601C89.261 63.9145 89.0294 63.7391 88.854 63.534C88.6819 63.3255 88.5478 63.1286 88.4519 62.9432H88.3774V67.0038H86.5804ZM88.3427 60.3321C88.3427 60.8252 88.4122 61.2571 88.5512 61.6277C88.6935 61.9984 88.897 62.288 89.1617 62.4965C89.4298 62.7016 89.7541 62.8042 90.1347 62.8042C90.5318 62.8042 90.8644 62.6983 91.1325 62.4865C91.4005 62.2714 91.6024 61.9785 91.7381 61.6079C91.8771 61.2339 91.9466 60.8087 91.9466 60.3321C91.9466 59.8589 91.8787 59.4386 91.743 59.0713C91.6074 58.7039 91.4055 58.416 91.1374 58.2075C90.8694 57.999 90.5351 57.8948 90.1347 57.8948C89.7508 57.8948 89.4248 57.9957 89.1568 58.1976C88.8887 58.3995 88.6852 58.6824 88.5462 59.0464C88.4105 59.4105 88.3427 59.839 88.3427 60.3321ZM97.1142 53.9781V64.1445H95.3172V53.9781H97.1142ZM102.338 64.2935C101.573 64.2935 100.913 64.1346 100.357 63.8169C99.8043 63.4959 99.379 63.0425 99.0812 62.4567C98.7833 61.8677 98.6344 61.1744 98.6344 60.3768C98.6344 59.5925 98.7833 58.9041 99.0812 58.3118C99.3823 57.7161 99.8026 57.2528 100.342 56.9218C100.881 56.5876 101.515 56.4204 102.243 56.4204C102.713 56.4204 103.157 56.4966 103.574 56.6488C103.994 56.7977 104.365 57.0294 104.686 57.3438C105.01 57.6582 105.265 58.0586 105.45 58.5451C105.635 59.0282 105.728 59.6041 105.728 60.2726V60.8236H99.4783V59.6123H104.006C104.002 59.2682 103.928 58.962 103.782 58.694C103.637 58.4226 103.433 58.2092 103.172 58.0536C102.913 57.8981 102.612 57.8203 102.268 57.8203C101.901 57.8203 101.578 57.9097 101.3 58.0884C101.022 58.2638 100.805 58.4954 100.65 58.7833C100.498 59.0679 100.42 59.3807 100.417 59.7215V60.7789C100.417 61.2224 100.498 61.6029 100.66 61.9206C100.822 62.235 101.049 62.4766 101.34 62.6454C101.631 62.8109 101.972 62.8936 102.362 62.8936C102.624 62.8936 102.86 62.8572 103.072 62.7844C103.284 62.7083 103.468 62.5974 103.623 62.4518C103.779 62.3062 103.896 62.1258 103.976 61.9107L105.654 62.0993C105.548 62.5428 105.346 62.93 105.048 63.2609C104.753 63.5886 104.376 63.8434 103.916 64.0254C103.456 64.2041 102.93 64.2935 102.338 64.2935ZM109.442 64.2984C108.959 64.2984 108.524 64.2124 108.137 64.0403C107.753 63.8649 107.449 63.6068 107.223 63.2659C107.002 62.925 106.891 62.5047 106.891 62.005C106.891 61.5748 106.97 61.219 107.129 60.9377C107.288 60.6564 107.505 60.4314 107.779 60.2626C108.054 60.0939 108.364 59.9664 108.708 59.8804C109.055 59.791 109.414 59.7265 109.785 59.6868C110.232 59.6405 110.594 59.5991 110.872 59.5627C111.15 59.523 111.352 59.4634 111.478 59.384C111.607 59.3013 111.671 59.1738 111.671 59.0018V58.972C111.671 58.598 111.56 58.3084 111.339 58.1033C111.117 57.8981 110.798 57.7955 110.381 57.7955C109.94 57.7955 109.591 57.8915 109.333 58.0834C109.078 58.2754 108.906 58.502 108.817 58.7635L107.139 58.5252C107.271 58.0619 107.49 57.6747 107.794 57.3636C108.099 57.0492 108.471 56.8143 108.911 56.6587C109.351 56.4999 109.838 56.4204 110.371 56.4204C110.738 56.4204 111.104 56.4635 111.468 56.5495C111.832 56.6356 112.164 56.7779 112.466 56.9764C112.767 57.1717 113.008 57.4381 113.19 57.7756C113.376 58.1132 113.468 58.5351 113.468 59.0415V64.1445H111.741V63.0971H111.681C111.572 63.3089 111.418 63.5075 111.22 63.6928C111.024 63.8748 110.778 64.0221 110.48 64.1346C110.185 64.2438 109.84 64.2984 109.442 64.2984ZM109.909 62.978C110.27 62.978 110.583 62.9068 110.847 62.7645C111.112 62.6189 111.316 62.427 111.458 62.1887C111.603 61.9504 111.676 61.6906 111.676 61.4093V60.5108C111.62 60.5572 111.524 60.6002 111.388 60.6399C111.256 60.6796 111.107 60.7144 110.942 60.7441C110.776 60.7739 110.612 60.8004 110.45 60.8236C110.288 60.8467 110.147 60.8666 110.028 60.8831C109.76 60.9195 109.52 60.9791 109.308 61.0618C109.097 61.1446 108.929 61.2604 108.807 61.4093C108.685 61.5549 108.623 61.7436 108.623 61.9752C108.623 62.3062 108.744 62.556 108.986 62.7248C109.227 62.8936 109.535 62.978 109.909 62.978ZM121.302 58.5351L119.663 58.7138C119.617 58.5484 119.536 58.3928 119.42 58.2472C119.308 58.1016 119.155 57.9841 118.964 57.8948C118.772 57.8054 118.537 57.7607 118.259 57.7607C117.885 57.7607 117.57 57.8418 117.315 58.004C117.064 58.1661 116.94 58.3763 116.943 58.6344C116.94 58.8561 117.021 59.0365 117.186 59.1755C117.355 59.3145 117.633 59.4287 118.02 59.518L119.321 59.796C120.042 59.9516 120.578 60.1981 120.929 60.5357C121.283 60.8732 121.462 61.315 121.465 61.8611C121.462 62.3409 121.321 62.7645 121.043 63.1319C120.769 63.4959 120.387 63.7805 119.897 63.9857C119.407 64.1909 118.844 64.2935 118.209 64.2935C117.276 64.2935 116.524 64.0982 115.955 63.7077C115.386 63.3139 115.047 62.7662 114.938 62.0646L116.69 61.8958C116.769 62.24 116.938 62.4998 117.196 62.6752C117.454 62.8506 117.79 62.9383 118.204 62.9383C118.631 62.9383 118.973 62.8506 119.232 62.6752C119.493 62.4998 119.624 62.283 119.624 62.0249C119.624 61.8065 119.539 61.6261 119.371 61.4838C119.205 61.3415 118.947 61.2323 118.596 61.1562L117.296 60.8831C116.564 60.7309 116.023 60.4744 115.672 60.1137C115.322 59.7497 115.148 59.2897 115.151 58.7337C115.148 58.2638 115.275 57.8567 115.533 57.5125C115.795 57.1651 116.157 56.897 116.62 56.7084C117.087 56.5164 117.625 56.4204 118.234 56.4204C119.127 56.4204 119.831 56.6107 120.344 56.9913C120.86 57.3719 121.179 57.8865 121.302 58.5351ZM126.323 64.2935C125.558 64.2935 124.898 64.1346 124.342 63.8169C123.789 63.4959 123.364 63.0425 123.066 62.4567C122.768 61.8677 122.62 61.1744 122.62 60.3768C122.62 59.5925 122.768 58.9041 123.066 58.3118C123.367 57.7161 123.788 57.2528 124.327 56.9218C124.867 56.5876 125.5 56.4204 126.228 56.4204C126.698 56.4204 127.142 56.4966 127.559 56.6488C127.979 56.7977 128.35 57.0294 128.671 57.3438C128.995 57.6582 129.25 58.0586 129.435 58.5451C129.621 59.0282 129.713 59.6041 129.713 60.2726V60.8236H123.463V59.6123H127.991C127.987 59.2682 127.913 58.962 127.767 58.694C127.622 58.4226 127.418 58.2092 127.157 58.0536C126.899 57.8981 126.597 57.8203 126.253 57.8203C125.886 57.8203 125.563 57.9097 125.285 58.0884C125.007 58.2638 124.79 58.4954 124.635 58.7833C124.483 59.0679 124.405 59.3807 124.402 59.7215V60.7789C124.402 61.2224 124.483 61.6029 124.645 61.9206C124.807 62.235 125.034 62.4766 125.325 62.6454C125.616 62.8109 125.957 62.8936 126.348 62.8936C126.609 62.8936 126.846 62.8572 127.057 62.7844C127.269 62.7083 127.453 62.5974 127.608 62.4518C127.764 62.3062 127.881 62.1258 127.961 61.9107L129.639 62.0993C129.533 62.5428 129.331 62.93 129.033 63.2609C128.739 63.5886 128.361 63.8434 127.901 64.0254C127.441 64.2041 126.915 64.2935 126.323 64.2935ZM138.563 56.5197V57.9097H134.055V56.5197H138.563ZM135.182 64.1445V55.7999C135.182 55.287 135.288 54.8601 135.5 54.5192C135.715 54.1783 136.003 53.9235 136.364 53.7547C136.725 53.586 137.125 53.5016 137.565 53.5016C137.876 53.5016 138.153 53.5264 138.394 53.576C138.636 53.6257 138.814 53.6704 138.93 53.7101L138.573 55.1C138.497 55.0768 138.401 55.0537 138.285 55.0305C138.169 55.004 138.04 54.9908 137.898 54.9908C137.563 54.9908 137.327 55.0719 137.188 55.234C137.052 55.3929 136.984 55.6212 136.984 55.9191V64.1445H135.182ZM139.97 64.1445V56.5197H141.767V64.1445H139.97ZM140.874 55.4376C140.589 55.4376 140.344 55.3432 140.139 55.1546C139.934 54.9627 139.831 54.7327 139.831 54.4646C139.831 54.1932 139.934 53.9632 140.139 53.7746C140.344 53.5827 140.589 53.4867 140.874 53.4867C141.162 53.4867 141.406 53.5827 141.608 53.7746C141.814 53.9632 141.916 54.1932 141.916 54.4646C141.916 54.7327 141.814 54.9627 141.608 55.1546C141.406 55.3432 141.162 55.4376 140.874 55.4376ZM145.412 53.9781V64.1445H143.615V53.9781H145.412ZM149.057 53.9781V64.1445H147.26V53.9781H149.057ZM157.698 64.2935C156.953 64.2935 156.308 64.1296 155.762 63.802C155.216 63.4744 154.792 63.016 154.491 62.427C154.193 61.8379 154.045 61.1495 154.045 60.3619C154.045 59.5743 154.193 58.8843 154.491 58.2919C154.792 57.6995 155.216 57.2395 155.762 56.9119C156.308 56.5843 156.953 56.4204 157.698 56.4204C158.443 56.4204 159.088 56.5843 159.634 56.9119C160.18 57.2395 160.602 57.6995 160.9 58.2919C161.201 58.8843 161.352 59.5743 161.352 60.3619C161.352 61.1495 161.201 61.8379 160.9 62.427C160.602 63.016 160.18 63.4744 159.634 63.802C159.088 64.1296 158.443 64.2935 157.698 64.2935ZM157.708 62.8539C158.112 62.8539 158.449 62.743 158.721 62.5213C158.992 62.2962 159.194 61.9951 159.326 61.6178C159.462 61.2406 159.53 60.8203 159.53 60.3569C159.53 59.8903 159.462 59.4684 159.326 59.0911C159.194 58.7105 158.992 58.4077 158.721 58.1827C158.449 57.9577 158.112 57.8451 157.708 57.8451C157.294 57.8451 156.95 57.9577 156.676 58.1827C156.404 58.4077 156.201 58.7105 156.065 59.0911C155.933 59.4684 155.866 59.8903 155.866 60.3569C155.866 60.8203 155.933 61.2406 156.065 61.6178C156.201 61.9951 156.404 62.2962 156.676 62.5213C156.95 62.743 157.294 62.8539 157.708 62.8539ZM167.737 60.9377V56.5197H169.534V64.1445H167.791V62.7893H167.712C167.54 63.2163 167.257 63.5654 166.863 63.8368C166.473 64.1081 165.991 64.2438 165.418 64.2438C164.919 64.2438 164.477 64.1329 164.093 63.9112C163.712 63.6862 163.415 63.3602 163.2 62.9333C162.984 62.5031 162.877 61.9835 162.877 61.3746V56.5197H164.674V61.0966C164.674 61.5798 164.806 61.9637 165.071 62.2483C165.336 62.5329 165.683 62.6752 166.113 62.6752C166.378 62.6752 166.635 62.6106 166.883 62.4816C167.131 62.3525 167.335 62.1606 167.493 61.9057C167.656 61.6476 167.737 61.3249 167.737 60.9377ZM175.189 56.5197V57.9097H170.806V56.5197H175.189ZM171.888 54.693H173.685V61.8511C173.685 62.0927 173.721 62.278 173.794 62.4071C173.87 62.5329 173.969 62.6189 174.092 62.6652C174.214 62.7116 174.35 62.7347 174.499 62.7347C174.612 62.7347 174.714 62.7265 174.807 62.7099C174.903 62.6934 174.976 62.6785 175.025 62.6652L175.328 64.0701C175.232 64.1032 175.095 64.1396 174.916 64.1793C174.741 64.219 174.525 64.2422 174.271 64.2488C173.821 64.262 173.415 64.1942 173.054 64.0452C172.694 63.893 172.407 63.6581 172.196 63.3404C171.987 63.0227 171.885 62.6255 171.888 62.149V54.693ZM183.485 64.2935C182.741 64.2935 182.095 64.1296 181.549 63.802C181.003 63.4744 180.58 63.016 180.278 62.427C179.981 61.8379 179.832 61.1495 179.832 60.3619C179.832 59.5743 179.981 58.8843 180.278 58.2919C180.58 57.6995 181.003 57.2395 181.549 56.9119C182.095 56.5843 182.741 56.4204 183.485 56.4204C184.23 56.4204 184.875 56.5843 185.421 56.9119C185.967 57.2395 186.389 57.6995 186.687 58.2919C186.988 58.8843 187.139 59.5743 187.139 60.3619C187.139 61.1495 186.988 61.8379 186.687 62.427C186.389 63.016 185.967 63.4744 185.421 63.802C184.875 64.1296 184.23 64.2935 183.485 64.2935ZM183.495 62.8539C183.899 62.8539 184.236 62.743 184.508 62.5213C184.779 62.2962 184.981 61.9951 185.113 61.6178C185.249 61.2406 185.317 60.8203 185.317 60.3569C185.317 59.8903 185.249 59.4684 185.113 59.0911C184.981 58.7105 184.779 58.4077 184.508 58.1827C184.236 57.9577 183.899 57.8451 183.495 57.8451C183.081 57.8451 182.737 57.9577 182.463 58.1827C182.191 58.4077 181.988 58.7105 181.852 59.0911C181.72 59.4684 181.653 59.8903 181.653 60.3569C181.653 60.8203 181.72 61.2406 181.852 61.6178C181.988 61.9951 182.191 62.2962 182.463 62.5213C182.737 62.743 183.081 62.8539 183.495 62.8539ZM193.524 60.9377V56.5197H195.321V64.1445H193.578V62.7893H193.499C193.327 63.2163 193.044 63.5654 192.65 63.8368C192.26 64.1081 191.778 64.2438 191.206 64.2438C190.706 64.2438 190.264 64.1329 189.88 63.9112C189.5 63.6862 189.202 63.3602 188.987 62.9333C188.772 62.5031 188.664 61.9835 188.664 61.3746V56.5197H190.461V61.0966C190.461 61.5798 190.593 61.9637 190.858 62.2483C191.123 62.5329 191.47 62.6752 191.901 62.6752C192.165 62.6752 192.422 62.6106 192.67 62.4816C192.918 62.3525 193.122 62.1606 193.281 61.9057C193.443 61.6476 193.524 61.3249 193.524 60.9377ZM197.169 64.1445V56.5197H198.911V57.7905H198.99C199.129 57.3504 199.368 57.0112 199.705 56.7729C200.046 56.5313 200.435 56.4105 200.872 56.4105C200.971 56.4105 201.082 56.4155 201.204 56.4254C201.33 56.432 201.434 56.4436 201.517 56.4602V58.1132C201.441 58.0867 201.32 58.0636 201.155 58.0437C200.993 58.0205 200.835 58.0089 200.683 58.0089C200.356 58.0089 200.061 58.0801 199.8 58.2224C199.541 58.3614 199.338 58.555 199.189 58.8032C199.04 59.0514 198.966 59.3377 198.966 59.662V64.1445H197.169ZM20.0818 88.0038V83.9432H20.0073C19.9147 84.1286 19.7806 84.3255 19.6052 84.534C19.4298 84.7391 19.1982 84.9145 18.9103 85.0601C18.6224 85.2058 18.26 85.2786 17.8231 85.2786C17.2241 85.2786 16.688 85.1247 16.2148 84.8169C15.7415 84.5091 15.3676 84.0624 15.0929 83.4766C14.8182 82.8908 14.6809 82.1793 14.6809 81.3421C14.6809 80.4949 14.8199 79.78 15.0979 79.1976C15.3792 78.6118 15.7581 78.17 16.2346 77.8722C16.7112 77.571 17.2424 77.4204 17.8281 77.4204C18.2749 77.4204 18.6422 77.4966 18.9301 77.6488C19.218 77.7977 19.4464 77.9781 19.6152 78.1899C19.784 78.3984 19.9147 78.5953 20.0073 78.7806H20.1165V77.5197H21.8838V88.0038H20.0818ZM18.3245 83.8042C18.7051 83.8042 19.0294 83.7016 19.2975 83.4965C19.5655 83.288 19.7691 82.9984 19.9081 82.6277C20.047 82.2571 20.1165 81.8252 20.1165 81.3321C20.1165 80.839 20.047 80.4105 19.9081 80.0464C19.7724 79.6824 19.5705 79.3995 19.3024 79.1976C19.0377 78.9957 18.7117 78.8948 18.3245 78.8948C17.9241 78.8948 17.5898 78.999 17.3218 79.2075C17.0537 79.416 16.8518 79.7039 16.7162 80.0713C16.5805 80.4386 16.5126 80.8589 16.5126 81.3321C16.5126 81.8087 16.5805 82.2339 16.7162 82.6079C16.8552 82.9785 17.0587 83.2714 17.3267 83.4865C17.5981 83.6983 17.9307 83.8042 18.3245 83.8042ZM28.5902 81.9377V77.5197H30.3872V85.1445H28.6448V83.7893H28.5654C28.3933 84.2163 28.1103 84.5654 27.7165 84.8368C27.326 85.1081 26.8445 85.2438 26.272 85.2438C25.7723 85.2438 25.3305 85.1329 24.9466 84.9112C24.566 84.6862 24.2682 84.3602 24.053 83.9333C23.8379 83.5031 23.7304 82.9835 23.7304 82.3746V77.5197H25.5274V82.0966C25.5274 82.5798 25.6598 82.9637 25.9245 83.2483C26.1893 83.5329 26.5367 83.6752 26.967 83.6752C27.2317 83.6752 27.4882 83.6106 27.7364 83.4816C27.9846 83.3525 28.1881 83.1606 28.347 82.9057C28.5091 82.6476 28.5902 82.3249 28.5902 81.9377ZM32.2351 85.1445V77.5197H34.0321V85.1445H32.2351ZM33.1385 76.4376C32.8539 76.4376 32.609 76.3432 32.4038 76.1546C32.1987 75.9627 32.0961 75.7327 32.0961 75.4646C32.0961 75.1932 32.1987 74.9632 32.4038 74.7746C32.609 74.5827 32.8539 74.4867 33.1385 74.4867C33.4264 74.4867 33.6713 74.5827 33.8732 74.7746C34.0784 74.9632 34.181 75.1932 34.181 75.4646C34.181 75.7327 34.0784 75.9627 33.8732 76.1546C33.6713 76.3432 33.4264 76.4376 33.1385 76.4376ZM39.2059 85.2935C38.4447 85.2935 37.7911 85.1263 37.2451 84.7921C36.7023 84.4578 36.2837 83.9962 35.9891 83.4071C35.6979 82.8147 35.5523 82.133 35.5523 81.3619C35.5523 80.5875 35.7012 79.9041 35.9991 79.3118C36.2969 78.7161 36.7172 78.2528 37.2599 77.9218C37.806 77.5876 38.4513 77.4204 39.1959 77.4204C39.8148 77.4204 40.3625 77.5346 40.839 77.763C41.3189 77.988 41.7011 78.3074 41.9857 78.721C42.2703 79.1314 42.4325 79.6113 42.4722 80.1606H40.7546C40.6852 79.7933 40.5197 79.4872 40.2582 79.2423C40.0001 78.9941 39.6543 78.87 39.2208 78.87C38.8534 78.87 38.5307 78.9692 38.2528 79.1678C37.9748 79.363 37.758 79.6443 37.6025 80.0117C37.4502 80.379 37.3741 80.8192 37.3741 81.3321C37.3741 81.8517 37.4502 82.2985 37.6025 82.6724C37.7547 83.0431 37.9682 83.3293 38.2428 83.5312C38.5208 83.7298 38.8468 83.8291 39.2208 83.8291C39.4855 83.8291 39.7221 83.7794 39.9306 83.6801C40.1424 83.5775 40.3195 83.4303 40.4618 83.2383C40.6041 83.0464 40.7017 82.8131 40.7546 82.5384H42.4722C42.4292 83.0778 42.2703 83.556 41.9957 83.973C41.721 84.3867 41.347 84.711 40.8738 84.946C40.4005 85.1776 39.8446 85.2935 39.2059 85.2935ZM45.5859 82.7519L45.581 80.5826H45.8689L48.609 77.5197H50.7088L47.3382 81.2726H46.9659L45.5859 82.7519ZM43.9478 85.1445V74.9781H45.7448V85.1445H43.9478ZM48.7331 85.1445L46.2511 81.6746L47.4623 80.4088L50.8826 85.1445H48.7331ZM61.4002 79.5351L59.7621 79.7138C59.7157 79.5484 59.6346 79.3928 59.5188 79.2472C59.4063 79.1016 59.2541 78.9841 59.0621 78.8948C58.8702 78.8054 58.6352 78.7607 58.3572 78.7607C57.9833 78.7607 57.6689 78.8418 57.4141 79.004C57.1625 79.1661 57.0384 79.3763 57.0417 79.6344C57.0384 79.8561 57.1195 80.0365 57.285 80.1755C57.4538 80.3145 57.7318 80.4287 58.1189 80.518L59.4195 80.796C60.141 80.9516 60.6771 81.1981 61.0279 81.5357C61.382 81.8732 61.5607 82.315 61.564 82.8611C61.5607 83.3409 61.4201 83.7645 61.1421 84.1319C60.8674 84.4959 60.4852 84.7805 59.9954 84.9857C59.5056 85.1909 58.943 85.2935 58.3076 85.2935C57.3743 85.2935 56.6231 85.0982 56.0539 84.7077C55.4847 84.3139 55.1455 83.7662 55.0363 83.0646L56.7886 82.8958C56.868 83.24 57.0368 83.4998 57.2949 83.6752C57.553 83.8506 57.8889 83.9383 58.3026 83.9383C58.7295 83.9383 59.072 83.8506 59.3302 83.6752C59.5916 83.4998 59.7223 83.283 59.7223 83.0249C59.7223 82.8065 59.638 82.6261 59.4692 82.4838C59.3037 82.3415 59.0456 82.2323 58.6948 82.1562L57.3942 81.8831C56.6628 81.7309 56.1217 81.4744 55.7709 81.1137C55.4202 80.7497 55.2464 80.2897 55.2497 79.7337C55.2464 79.2638 55.3738 78.8567 55.632 78.5125C55.8934 78.1651 56.2558 77.897 56.7191 77.7084C57.1857 77.5164 57.7235 77.4204 58.3324 77.4204C59.2259 77.4204 59.9292 77.6107 60.4421 77.9913C60.9584 78.3719 61.2777 78.8865 61.4002 79.5351ZM67.9056 81.9377V77.5197H69.7026V85.1445H67.9602V83.7893H67.8808C67.7087 84.2163 67.4257 84.5654 67.0319 84.8368C66.6414 85.1081 66.1599 85.2438 65.5874 85.2438C65.0877 85.2438 64.6459 85.1329 64.262 84.9112C63.8814 84.6862 63.5836 84.3602 63.3684 83.9333C63.1533 83.5031 63.0458 82.9835 63.0458 82.3746V77.5197H64.8428V82.0966C64.8428 82.5798 64.9752 82.9637 65.2399 83.2483C65.5047 83.5329 65.8521 83.6752 66.2824 83.6752C66.5471 83.6752 66.8036 83.6106 67.0518 83.4816C67.3 83.3525 67.5035 83.1606 67.6624 82.9057C67.8245 82.6476 67.9056 82.3249 67.9056 81.9377ZM71.5505 85.1445V77.5197H73.2929V78.7905H73.3723C73.5113 78.3504 73.7495 78.0112 74.0871 77.7729C74.428 77.5313 74.8168 77.4105 75.2537 77.4105C75.3529 77.4105 75.4638 77.4155 75.5863 77.4254C75.712 77.432 75.8163 77.4436 75.899 77.4602V79.1132C75.8229 79.0867 75.7021 79.0636 75.5366 79.0437C75.3745 79.0205 75.2173 79.0089 75.065 79.0089C74.7374 79.0089 74.4429 79.0801 74.1814 79.2224C73.9233 79.3614 73.7198 79.555 73.5708 79.8032C73.4219 80.0514 73.3475 80.3377 73.3475 80.662V85.1445H71.5505ZM84.1356 77.5197L81.4203 85.1445H79.4346L76.7193 77.5197H78.6354L80.3877 83.1837H80.4672L82.2244 77.5197H84.1356ZM88.4953 85.2935C87.7308 85.2935 87.0706 85.1346 86.5146 84.8169C85.962 84.4959 85.5367 84.0425 85.2389 83.4567C84.941 82.8677 84.7921 82.1744 84.7921 81.3768C84.7921 80.5925 84.941 79.9041 85.2389 79.3118C85.54 78.7161 85.9603 78.2528 86.4998 77.9218C87.0392 77.5876 87.6729 77.4204 88.401 77.4204C88.8709 77.4204 89.3144 77.4966 89.7314 77.6488C90.1517 77.7977 90.5223 78.0294 90.8433 78.3438C91.1676 78.6582 91.4225 79.0586 91.6078 79.5451C91.7931 80.0282 91.8858 80.6041 91.8858 81.2726V81.8236H85.636V80.6123H90.1632C90.1599 80.2682 90.0855 79.962 89.9399 79.694C89.7942 79.4226 89.5907 79.2092 89.3293 79.0536C89.0711 78.8981 88.77 78.8203 88.4258 78.8203C88.0585 78.8203 87.7358 78.9097 87.4578 79.0884C87.1798 79.2638 86.9631 79.4954 86.8075 79.7833C86.6553 80.0679 86.5775 80.3807 86.5742 80.7215V81.7789C86.5742 82.2224 86.6553 82.6029 86.8175 82.9206C86.9796 83.235 87.2063 83.4766 87.4975 83.6454C87.7888 83.8109 88.1296 83.8936 88.5201 83.8936C88.7816 83.8936 89.0182 83.8572 89.23 83.7844C89.4418 83.7083 89.6255 83.5974 89.781 83.4518C89.9365 83.3062 90.054 83.1258 90.1334 82.9107L91.8113 83.0993C91.7054 83.5428 91.5035 83.93 91.2057 84.2609C90.9112 84.5886 90.5339 84.8434 90.0739 85.0254C89.6139 85.2041 89.0877 85.2935 88.4953 85.2935ZM94.3045 88.0038C94.0596 88.0038 93.8329 87.984 93.6244 87.9443C93.4192 87.9079 93.2554 87.8648 93.133 87.8152L93.55 86.4153C93.8114 86.4914 94.0447 86.5279 94.2499 86.5245C94.4551 86.5212 94.6354 86.4567 94.791 86.3309C94.9498 86.2085 95.0839 86.0033 95.1931 85.7154L95.347 85.3034L92.582 77.5197H94.4882L96.2455 83.278H96.3249L98.0871 77.5197H99.9983L96.9454 86.0678C96.8031 86.4716 96.6145 86.8174 96.3795 87.1053C96.1445 87.3966 95.8566 87.6183 95.5157 87.7705C95.1782 87.9261 94.7744 88.0038 94.3045 88.0038Z" fill="#050505"/>
<path d="M15.7118 98.0271V104.805H14.891V98.0271H15.7118ZM19.4621 99.7215V100.383H16.8279V99.7215H19.4621ZM17.5956 98.5036H18.3766V103.349C18.3766 103.569 18.4086 103.735 18.4726 103.845C18.5388 103.953 18.6226 104.026 18.7241 104.063C18.8278 104.099 18.937 104.116 19.0518 104.116C19.1378 104.116 19.2084 104.112 19.2636 104.103C19.3187 104.092 19.3628 104.083 19.3959 104.077L19.5548 104.778C19.5018 104.798 19.4279 104.818 19.333 104.838C19.2382 104.86 19.1179 104.871 18.9723 104.871C18.7517 104.871 18.5355 104.823 18.3237 104.729C18.1141 104.634 17.9398 104.489 17.8008 104.295C17.664 104.101 17.5956 103.856 17.5956 103.56V98.5036ZM24.4096 104.805L22.8608 99.7215H23.6816L24.7803 103.613H24.8332L25.9187 99.7215H26.7527L27.8249 103.6H27.8779L28.9766 99.7215H29.7973L28.2485 104.805H27.4807L26.3688 100.9H26.2894L25.1774 104.805H24.4096ZM30.8298 104.805V99.7215H31.6108V104.805H30.8298ZM31.2269 98.8743C31.0747 98.8743 30.9434 98.8224 30.8331 98.7187C30.725 98.615 30.671 98.4904 30.671 98.3448C30.671 98.1992 30.725 98.0745 30.8331 97.9708C30.9434 97.8671 31.0747 97.8153 31.2269 97.8153C31.3792 97.8153 31.5093 97.8671 31.6175 97.9708C31.7278 98.0745 31.7829 98.1992 31.7829 98.3448C31.7829 98.4904 31.7278 98.615 31.6175 98.7187C31.5093 98.8224 31.3792 98.8743 31.2269 98.8743ZM33.8223 98.0271V104.805H33.0413V98.0271H33.8223ZM36.0338 98.0271V104.805H35.2528V98.0271H36.0338ZM42.1504 104.911C41.6915 104.911 41.2888 104.801 40.9425 104.583C40.5983 104.365 40.3291 104.059 40.135 103.666C39.943 103.274 39.847 102.815 39.847 102.29C39.847 101.76 39.943 101.298 40.135 100.903C40.3291 100.508 40.5983 100.201 40.9425 99.9829C41.2888 99.7645 41.6915 99.6553 42.1504 99.6553C42.6093 99.6553 43.0108 99.7645 43.355 99.9829C43.7014 100.201 43.9705 100.508 44.1625 100.903C44.3566 101.298 44.4537 101.76 44.4537 102.29C44.4537 102.815 44.3566 103.274 44.1625 103.666C43.9705 104.059 43.7014 104.365 43.355 104.583C43.0108 104.801 42.6093 104.911 42.1504 104.911ZM42.1504 104.209C42.499 104.209 42.7858 104.12 43.0108 103.941C43.2359 103.762 43.4024 103.527 43.5105 103.236C43.6186 102.945 43.6727 102.629 43.6727 102.29C43.6727 101.95 43.6186 101.633 43.5105 101.34C43.4024 101.046 43.2359 100.809 43.0108 100.628C42.7858 100.447 42.499 100.357 42.1504 100.357C41.8018 100.357 41.515 100.447 41.2899 100.628C41.0649 100.809 40.8983 101.046 40.7902 101.34C40.6821 101.633 40.6281 101.95 40.6281 102.29C40.6281 102.629 40.6821 102.945 40.7902 103.236C40.8983 103.527 41.0649 103.762 41.2899 103.941C41.515 104.12 41.8018 104.209 42.1504 104.209ZM46.4269 101.747V104.805H45.6459V99.7215H46.4004V100.516H46.4666C46.5858 100.258 46.7667 100.05 47.0094 99.8936C47.2521 99.7347 47.5653 99.6553 47.9492 99.6553C48.2934 99.6553 48.5946 99.7259 48.8527 99.8671C49.1108 100.006 49.3116 100.218 49.455 100.502C49.5984 100.785 49.6701 101.142 49.6701 101.575V104.805H48.8891V101.628C48.8891 101.228 48.7854 100.917 48.578 100.694C48.3706 100.469 48.086 100.357 47.7242 100.357C47.4749 100.357 47.2521 100.411 47.0557 100.519C46.8615 100.627 46.7082 100.785 46.5957 100.992C46.4832 101.2 46.4269 101.451 46.4269 101.747ZM51.8783 98.0271V104.805H51.0973V98.0271H51.8783ZM53.8118 106.711C53.6794 106.711 53.5614 106.7 53.4577 106.678C53.354 106.658 53.2823 106.638 53.2426 106.618L53.4411 105.93C53.6309 105.978 53.7986 105.996 53.9442 105.983C54.0898 105.97 54.2188 105.905 54.3314 105.788C54.4461 105.673 54.5509 105.486 54.6458 105.228L54.7914 104.831L52.9116 99.7215H53.7588L55.162 103.772H55.215L56.6181 99.7215H57.4653L55.3076 105.546C55.2106 105.809 55.0903 106.026 54.9469 106.198C54.8035 106.372 54.6369 106.501 54.4472 106.585C54.2597 106.669 54.0479 106.711 53.8118 106.711ZM63.3279 99.7215V100.383H60.6936V99.7215H63.3279ZM61.4614 98.5036H62.2424V103.349C62.2424 103.569 62.2744 103.735 62.3384 103.845C62.4046 103.953 62.4884 104.026 62.5899 104.063C62.6936 104.099 62.8028 104.116 62.9175 104.116C63.0036 104.116 63.0742 104.112 63.1293 104.103C63.1845 104.092 63.2286 104.083 63.2617 104.077L63.4206 104.778C63.3676 104.798 63.2937 104.818 63.1988 104.838C63.104 104.86 62.9837 104.871 62.8381 104.871C62.6175 104.871 62.4013 104.823 62.1895 104.729C61.9799 104.634 61.8056 104.489 61.6666 104.295C61.5298 104.101 61.4614 103.856 61.4614 103.56V98.5036ZM65.9986 104.924C65.6765 104.924 65.3841 104.863 65.1216 104.742C64.859 104.618 64.6506 104.441 64.4961 104.209C64.3417 103.975 64.2645 103.693 64.2645 103.362C64.2645 103.071 64.3218 102.835 64.4365 102.654C64.5513 102.47 64.7046 102.327 64.8966 102.223C65.0885 102.12 65.3003 102.042 65.532 101.992C65.7658 101.939 66.0008 101.897 66.2368 101.866C66.5457 101.826 66.7961 101.796 66.9881 101.777C67.1822 101.755 67.3234 101.718 67.4117 101.667C67.5021 101.617 67.5474 101.528 67.5474 101.403V101.376C67.5474 101.05 67.458 100.796 67.2793 100.615C67.1028 100.434 66.8347 100.344 66.4751 100.344C66.1023 100.344 65.8099 100.425 65.5981 100.589C65.3863 100.752 65.2374 100.926 65.1514 101.111L64.4101 100.847C64.5424 100.538 64.7189 100.297 64.9396 100.125C65.1624 99.9509 65.4051 99.8296 65.6676 99.7612C65.9324 99.6906 66.1927 99.6553 66.4486 99.6553C66.6119 99.6553 66.7994 99.6752 67.0112 99.7149C67.2253 99.7524 67.4315 99.8307 67.6301 99.9498C67.8309 100.069 67.9974 100.249 68.1298 100.489C68.2622 100.73 68.3284 101.052 68.3284 101.456V104.805H67.5474V104.116H67.5077C67.4547 104.227 67.3665 104.345 67.2429 104.47C67.1193 104.596 66.955 104.703 66.7498 104.791C66.5446 104.88 66.2942 104.924 65.9986 104.924ZM66.1177 104.222C66.4266 104.222 66.6869 104.162 66.8987 104.04C67.1127 103.919 67.2738 103.762 67.3819 103.57C67.4922 103.378 67.5474 103.176 67.5474 102.965V102.25C67.5143 102.29 67.4415 102.326 67.3289 102.359C67.2186 102.39 67.0907 102.418 66.9451 102.442C66.8016 102.464 66.6616 102.484 66.5248 102.501C66.3902 102.517 66.281 102.53 66.1971 102.541C65.9942 102.568 65.8044 102.611 65.6279 102.67C65.4536 102.728 65.3124 102.815 65.2043 102.932C65.0984 103.046 65.0455 103.203 65.0455 103.402C65.0455 103.673 65.1459 103.878 65.3466 104.017C65.5496 104.154 65.8066 104.222 66.1177 104.222ZM70.482 102.951L70.4687 101.985H70.6276L72.8515 99.7215H73.8178L71.4483 102.117H71.3821L70.482 102.951ZM69.7539 104.805V98.0271H70.5349V104.805H69.7539ZM72.9838 104.805L70.9982 102.29L71.5542 101.747L73.9767 104.805H72.9838ZM76.7449 104.911C76.2552 104.911 75.8327 104.802 75.4775 104.586C75.1245 104.368 74.852 104.063 74.66 103.673C74.4703 103.28 74.3754 102.823 74.3754 102.303C74.3754 101.782 74.4703 101.323 74.66 100.926C74.852 100.527 75.1189 100.216 75.4609 99.9929C75.8051 99.7678 76.2066 99.6553 76.6655 99.6553C76.9303 99.6553 77.1917 99.6994 77.4498 99.7877C77.708 99.8759 77.9429 100.019 78.1547 100.218C78.3665 100.414 78.5353 100.675 78.6611 100.999C78.7868 101.323 78.8497 101.723 78.8497 102.197V102.528H74.9314V101.853H78.0555C78.0555 101.566 77.9981 101.31 77.8834 101.085C77.7709 100.86 77.6098 100.682 77.4002 100.552C77.1928 100.422 76.9479 100.357 76.6655 100.357C76.3544 100.357 76.0853 100.434 75.858 100.589C75.633 100.741 75.4598 100.939 75.3385 101.184C75.2171 101.429 75.1564 101.692 75.1564 101.972V102.422C75.1564 102.806 75.2226 103.131 75.355 103.398C75.4896 103.663 75.676 103.865 75.9143 104.004C76.1526 104.141 76.4295 104.209 76.7449 104.209C76.9501 104.209 77.1355 104.18 77.3009 104.123C77.4686 104.063 77.6131 103.975 77.7345 103.858C77.8558 103.739 77.9496 103.591 78.0157 103.415L78.7703 103.627C78.6909 103.882 78.5574 104.108 78.3699 104.302C78.1823 104.494 77.9507 104.644 77.6749 104.752C77.3991 104.858 77.0891 104.911 76.7449 104.911ZM84.1546 104.924C83.8325 104.924 83.5402 104.863 83.2777 104.742C83.0151 104.618 82.8066 104.441 82.6522 104.209C82.4977 103.975 82.4205 103.693 82.4205 103.362C82.4205 103.071 82.4779 102.835 82.5926 102.654C82.7073 102.47 82.8607 102.327 83.0526 102.223C83.2446 102.12 83.4564 102.042 83.688 101.992C83.9219 101.939 84.1568 101.897 84.3929 101.866C84.7018 101.826 84.9522 101.796 85.1441 101.777C85.3383 101.755 85.4795 101.718 85.5677 101.667C85.6582 101.617 85.7034 101.528 85.7034 101.403V101.376C85.7034 101.05 85.6141 100.796 85.4354 100.615C85.2589 100.434 84.9908 100.344 84.6312 100.344C84.2583 100.344 83.966 100.425 83.7542 100.589C83.5424 100.752 83.3935 100.926 83.3074 101.111L82.5661 100.847C82.6985 100.538 82.875 100.297 83.0956 100.125C83.3185 99.9509 83.5612 99.8296 83.8237 99.7612C84.0885 99.6906 84.3488 99.6553 84.6047 99.6553C84.768 99.6553 84.9555 99.6752 85.1673 99.7149C85.3813 99.7524 85.5876 99.8307 85.7862 99.9498C85.9869 100.069 86.1535 100.249 86.2859 100.489C86.4183 100.73 86.4844 101.052 86.4844 101.456V104.805H85.7034V104.116H85.6637C85.6108 104.227 85.5225 104.345 85.399 104.47C85.2754 104.596 85.1111 104.703 84.9059 104.791C84.7007 104.88 84.4503 104.924 84.1546 104.924ZM84.2738 104.222C84.5827 104.222 84.843 104.162 85.0548 104.04C85.2688 103.919 85.4299 103.762 85.538 103.57C85.6483 103.378 85.7034 103.176 85.7034 102.965V102.25C85.6703 102.29 85.5975 102.326 85.485 102.359C85.3747 102.39 85.2467 102.418 85.1011 102.442C84.9577 102.464 84.8176 102.484 84.6808 102.501C84.5463 102.517 84.437 102.53 84.3532 102.541C84.1502 102.568 83.9605 102.611 83.784 102.67C83.6097 102.728 83.4685 102.815 83.3604 102.932C83.2545 103.046 83.2015 103.203 83.2015 103.402C83.2015 103.673 83.3019 103.878 83.5027 104.017C83.7057 104.154 83.9627 104.222 84.2738 104.222ZM92.7946 99.7215V100.383H90.0544V99.7215H92.7946ZM90.8752 104.805V99.0199C90.8752 98.7287 90.9436 98.486 91.0803 98.2918C91.2171 98.0977 91.3947 97.9521 91.6132 97.855C91.8316 97.7579 92.0621 97.7094 92.3048 97.7094C92.4968 97.7094 92.6534 97.7248 92.7747 97.7557C92.8961 97.7866 92.9865 97.8153 93.0461 97.8418L92.8211 98.5169C92.7814 98.5036 92.7262 98.4871 92.6556 98.4672C92.5872 98.4474 92.4968 98.4374 92.3842 98.4374C92.1261 98.4374 91.9397 98.5025 91.825 98.6327C91.7124 98.7629 91.6562 98.9537 91.6562 99.2052V104.805H90.8752ZM95.8111 104.911C95.3213 104.911 94.8988 104.802 94.5436 104.586C94.1906 104.368 93.9181 104.063 93.7262 103.673C93.5364 103.28 93.4416 102.823 93.4416 102.303C93.4416 101.782 93.5364 101.323 93.7262 100.926C93.9181 100.527 94.1851 100.216 94.5271 99.9929C94.8712 99.7678 95.2728 99.6553 95.7317 99.6553C95.9964 99.6553 96.2579 99.6994 96.516 99.7877C96.7741 99.8759 97.0091 100.019 97.2209 100.218C97.4327 100.414 97.6015 100.675 97.7272 100.999C97.853 101.323 97.9159 101.723 97.9159 102.197V102.528H93.9976V101.853H97.1216C97.1216 101.566 97.0642 101.31 96.9495 101.085C96.837 100.86 96.6759 100.682 96.4663 100.552C96.259 100.422 96.0141 100.357 95.7317 100.357C95.4206 100.357 95.1514 100.434 94.9242 100.589C94.6991 100.741 94.5259 100.939 94.4046 101.184C94.2833 101.429 94.2226 101.692 94.2226 101.972V102.422C94.2226 102.806 94.2888 103.131 94.4212 103.398C94.5557 103.663 94.7422 103.865 94.9804 104.004C95.2187 104.141 95.4956 104.209 95.8111 104.209C96.0163 104.209 96.2016 104.18 96.3671 104.123C96.5347 104.063 96.6793 103.975 96.8006 103.858C96.9219 103.739 97.0157 103.591 97.0819 103.415L97.8364 103.627C97.757 103.882 97.6235 104.108 97.436 104.302C97.2485 104.494 97.0168 104.644 96.741 104.752C96.4652 104.858 96.1553 104.911 95.8111 104.911ZM100.256 104.805L98.7068 99.7215H99.5275L100.626 103.613H100.679L101.765 99.7215H102.599L103.671 103.6H103.724L104.823 99.7215H105.643L104.094 104.805H103.327L102.215 100.9H102.135L101.023 104.805H100.256ZM109.297 104.805V99.7215H110.051V100.516H110.118C110.223 100.244 110.394 100.034 110.63 99.8836C110.867 99.7314 111.15 99.6553 111.481 99.6553C111.816 99.6553 112.095 99.7314 112.318 99.8836C112.543 100.034 112.719 100.244 112.844 100.516H112.897C113.028 100.253 113.223 100.045 113.483 99.8903C113.744 99.7336 114.056 99.6553 114.42 99.6553C114.874 99.6553 115.246 99.7976 115.535 100.082C115.824 100.365 115.969 100.805 115.969 101.403V104.805H115.187V101.403C115.187 101.028 115.085 100.76 114.88 100.598C114.675 100.437 114.433 100.357 114.155 100.357C113.798 100.357 113.521 100.465 113.324 100.681C113.128 100.895 113.03 101.167 113.03 101.495V104.805H112.236V101.323C112.236 101.034 112.142 100.801 111.954 100.625C111.767 100.446 111.525 100.357 111.229 100.357C111.027 100.357 110.837 100.411 110.66 100.519C110.486 100.627 110.345 100.777 110.237 100.969C110.131 101.159 110.078 101.378 110.078 101.628V104.805H109.297ZM117.397 104.805V99.7215H118.178V104.805H117.397ZM117.794 98.8743C117.641 98.8743 117.51 98.8224 117.4 98.7187C117.292 98.615 117.238 98.4904 117.238 98.3448C117.238 98.1992 117.292 98.0745 117.4 97.9708C117.51 97.8671 117.641 97.8153 117.794 97.8153C117.946 97.8153 118.076 97.8671 118.184 97.9708C118.294 98.0745 118.35 98.1992 118.35 98.3448C118.35 98.4904 118.294 98.615 118.184 98.7187C118.076 98.8224 117.946 98.8743 117.794 98.8743ZM120.389 101.747V104.805H119.608V99.7215H120.363V100.516H120.429C120.548 100.258 120.729 100.05 120.971 99.8936C121.214 99.7347 121.527 99.6553 121.911 99.6553C122.256 99.6553 122.557 99.7259 122.815 99.8671C123.073 100.006 123.274 100.218 123.417 100.502C123.56 100.785 123.632 101.142 123.632 101.575V104.805H122.851V101.628C122.851 101.228 122.747 100.917 122.54 100.694C122.333 100.469 122.048 100.357 121.686 100.357C121.437 100.357 121.214 100.411 121.018 100.519C120.824 100.627 120.67 100.785 120.558 100.992C120.445 101.2 120.389 101.451 120.389 101.747ZM128.263 102.726V99.7215H129.044V104.805H128.263V103.944H128.21C128.091 104.202 127.905 104.422 127.654 104.603C127.402 104.782 127.085 104.871 126.701 104.871C126.383 104.871 126.101 104.801 125.854 104.662C125.607 104.521 125.412 104.309 125.271 104.027C125.13 103.742 125.059 103.384 125.059 102.951V99.7215H125.84V102.898C125.84 103.269 125.944 103.565 126.151 103.785C126.361 104.006 126.628 104.116 126.952 104.116C127.146 104.116 127.344 104.067 127.545 103.967C127.748 103.868 127.918 103.716 128.054 103.511C128.193 103.306 128.263 103.044 128.263 102.726ZM132.685 99.7215V100.383H130.051V99.7215H132.685ZM130.819 98.5036H131.6V103.349C131.6 103.569 131.632 103.735 131.695 103.845C131.762 103.953 131.846 104.026 131.947 104.063C132.051 104.099 132.16 104.116 132.275 104.116C132.361 104.116 132.431 104.112 132.486 104.103C132.542 104.092 132.586 104.083 132.619 104.077L132.778 104.778C132.725 104.798 132.651 104.818 132.556 104.838C132.461 104.86 132.341 104.871 132.195 104.871C131.975 104.871 131.758 104.823 131.547 104.729C131.337 104.634 131.163 104.489 131.024 104.295C130.887 104.101 130.819 103.856 130.819 103.56V98.5036ZM135.936 104.911C135.447 104.911 135.024 104.802 134.669 104.586C134.316 104.368 134.044 104.063 133.852 103.673C133.662 103.28 133.567 102.823 133.567 102.303C133.567 101.782 133.662 101.323 133.852 100.926C134.044 100.527 134.31 100.216 134.652 99.9929C134.997 99.7678 135.398 99.6553 135.857 99.6553C136.122 99.6553 136.383 99.6994 136.641 99.7877C136.899 99.8759 137.134 100.019 137.346 100.218C137.558 100.414 137.727 100.675 137.853 100.999C137.978 101.323 138.041 101.723 138.041 102.197V102.528H134.123V101.853H137.247C137.247 101.566 137.19 101.31 137.075 101.085C136.962 100.86 136.801 100.682 136.592 100.552C136.384 100.422 136.139 100.357 135.857 100.357C135.546 100.357 135.277 100.434 135.05 100.589C134.825 100.741 134.651 100.939 134.53 101.184C134.409 101.429 134.348 101.692 134.348 101.972V102.422C134.348 102.806 134.414 103.131 134.547 103.398C134.681 103.663 134.868 103.865 135.106 104.004C135.344 104.141 135.621 104.209 135.936 104.209C136.142 104.209 136.327 104.18 136.492 104.123C136.66 104.063 136.805 103.975 136.926 103.858C137.047 103.739 137.141 103.591 137.207 103.415L137.962 103.627C137.882 103.882 137.749 104.108 137.561 104.302C137.374 104.494 137.142 104.644 136.866 104.752C136.591 104.858 136.281 104.911 135.936 104.911ZM142.83 100.86L142.128 101.058C142.084 100.942 142.019 100.828 141.933 100.718C141.849 100.605 141.734 100.512 141.589 100.44C141.443 100.367 141.257 100.33 141.03 100.33C140.719 100.33 140.459 100.402 140.252 100.546C140.047 100.687 139.944 100.867 139.944 101.085C139.944 101.279 140.015 101.432 140.156 101.545C140.297 101.657 140.518 101.751 140.818 101.826L141.572 102.012C142.027 102.122 142.365 102.291 142.588 102.518C142.811 102.743 142.923 103.033 142.923 103.388C142.923 103.679 142.839 103.94 142.671 104.169C142.506 104.399 142.274 104.58 141.976 104.712C141.678 104.844 141.332 104.911 140.937 104.911C140.418 104.911 139.989 104.798 139.65 104.573C139.31 104.348 139.095 104.019 139.004 103.587L139.746 103.402C139.816 103.675 139.95 103.88 140.146 104.017C140.345 104.154 140.604 104.222 140.924 104.222C141.288 104.222 141.577 104.145 141.791 103.991C142.007 103.834 142.115 103.646 142.115 103.428C142.115 103.251 142.053 103.104 141.93 102.985C141.806 102.863 141.616 102.773 141.361 102.713L140.513 102.515C140.048 102.404 139.706 102.233 139.487 102.002C139.271 101.768 139.163 101.475 139.163 101.125C139.163 100.838 139.244 100.584 139.405 100.364C139.568 100.143 139.79 99.9697 140.07 99.8439C140.352 99.7182 140.672 99.6553 141.03 99.6553C141.533 99.6553 141.928 99.7656 142.214 99.9862C142.503 100.207 142.709 100.498 142.83 100.86Z" fill="#575656"/>
<rect x="179.654" y="118.124" width="91.2768" height="27.9788" rx="6.9894" fill="#050505"/>
<path d="M202.82 130.03C202.78 129.695 202.619 129.434 202.337 129.249C202.055 129.064 201.708 128.971 201.298 128.971C200.998 128.971 200.735 129.02 200.51 129.117C200.287 129.214 200.113 129.347 199.987 129.517C199.864 129.687 199.802 129.88 199.802 130.096C199.802 130.277 199.845 130.433 199.931 130.563C200.019 130.691 200.132 130.798 200.269 130.884C200.405 130.968 200.549 131.037 200.699 131.092C200.849 131.145 200.987 131.188 201.113 131.221L201.801 131.407C201.977 131.453 202.174 131.517 202.39 131.599C202.608 131.68 202.817 131.792 203.015 131.933C203.216 132.072 203.382 132.251 203.512 132.469C203.642 132.688 203.707 132.956 203.707 133.273C203.707 133.64 203.611 133.97 203.419 134.266C203.229 134.562 202.951 134.797 202.585 134.971C202.221 135.145 201.779 135.232 201.258 135.232C200.773 135.232 200.353 135.154 199.997 134.997C199.644 134.841 199.366 134.622 199.163 134.342C198.963 134.062 198.849 133.737 198.822 133.366H199.67C199.692 133.622 199.778 133.834 199.928 134.001C200.08 134.167 200.272 134.29 200.504 134.372C200.737 134.451 200.989 134.491 201.258 134.491C201.571 134.491 201.853 134.44 202.102 134.339C202.351 134.235 202.549 134.092 202.694 133.909C202.84 133.723 202.913 133.507 202.913 133.26C202.913 133.035 202.85 132.852 202.724 132.711C202.598 132.569 202.433 132.455 202.228 132.366C202.023 132.278 201.801 132.201 201.563 132.135L200.729 131.897C200.199 131.744 199.78 131.527 199.471 131.245C199.162 130.962 199.008 130.593 199.008 130.136C199.008 129.757 199.11 129.426 199.316 129.143C199.523 128.859 199.801 128.638 200.15 128.481C200.5 128.322 200.892 128.243 201.324 128.243C201.761 128.243 202.149 128.321 202.489 128.478C202.829 128.632 203.098 128.844 203.297 129.113C203.498 129.383 203.603 129.688 203.614 130.03H202.82ZM207.161 130.03V130.692H204.527V130.03H207.161ZM205.295 128.812H206.076V133.657C206.076 133.878 206.108 134.043 206.172 134.154C206.238 134.262 206.322 134.334 206.423 134.372C206.527 134.407 206.636 134.425 206.751 134.425C206.837 134.425 206.908 134.421 206.963 134.412C207.018 134.401 207.062 134.392 207.095 134.385L207.254 135.087C207.201 135.107 207.127 135.127 207.032 135.146C206.937 135.168 206.817 135.179 206.671 135.179C206.451 135.179 206.235 135.132 206.023 135.037C205.813 134.942 205.639 134.798 205.5 134.604C205.363 134.409 205.295 134.165 205.295 133.869V128.812ZM209.832 135.232C209.51 135.232 209.217 135.172 208.955 135.05C208.692 134.927 208.484 134.749 208.329 134.518C208.175 134.284 208.098 134.001 208.098 133.67C208.098 133.379 208.155 133.143 208.27 132.962C208.385 132.779 208.538 132.636 208.73 132.532C208.922 132.428 209.134 132.351 209.365 132.3C209.599 132.247 209.834 132.205 210.07 132.175C210.379 132.135 210.629 132.105 210.821 132.085C211.016 132.063 211.157 132.027 211.245 131.976C211.335 131.925 211.381 131.837 211.381 131.711V131.685C211.381 131.358 211.291 131.105 211.113 130.924C210.936 130.743 210.668 130.652 210.308 130.652C209.936 130.652 209.643 130.734 209.432 130.897C209.22 131.06 209.071 131.235 208.985 131.42L208.243 131.155C208.376 130.846 208.552 130.606 208.773 130.434C208.996 130.26 209.238 130.138 209.501 130.07C209.766 129.999 210.026 129.964 210.282 129.964C210.445 129.964 210.633 129.984 210.845 130.023C211.059 130.061 211.265 130.139 211.463 130.258C211.664 130.378 211.831 130.557 211.963 130.798C212.096 131.038 212.162 131.36 212.162 131.764V135.113H211.381V134.425H211.341C211.288 134.535 211.2 134.653 211.076 134.779C210.953 134.905 210.788 135.012 210.583 135.1C210.378 135.188 210.128 135.232 209.832 135.232ZM209.951 134.531C210.26 134.531 210.52 134.47 210.732 134.349C210.946 134.227 211.107 134.071 211.215 133.879C211.326 133.687 211.381 133.485 211.381 133.273V132.558C211.348 132.598 211.275 132.635 211.162 132.668C211.052 132.699 210.924 132.726 210.778 132.75C210.635 132.772 210.495 132.792 210.358 132.81C210.224 132.825 210.114 132.839 210.031 132.85C209.828 132.876 209.638 132.919 209.461 132.979C209.287 133.036 209.146 133.123 209.038 133.24C208.932 133.355 208.879 133.512 208.879 133.71C208.879 133.981 208.979 134.187 209.18 134.326C209.383 134.462 209.64 134.531 209.951 134.531ZM213.587 135.113V130.03H214.342V130.798H214.395C214.487 130.546 214.655 130.342 214.898 130.186C215.14 130.029 215.414 129.951 215.718 129.951C215.776 129.951 215.848 129.952 215.934 129.954C216.02 129.956 216.085 129.959 216.129 129.964V130.758C216.102 130.752 216.042 130.742 215.947 130.728C215.854 130.713 215.756 130.705 215.652 130.705C215.405 130.705 215.185 130.757 214.99 130.861C214.798 130.962 214.646 131.103 214.534 131.284C214.423 131.463 214.368 131.667 214.368 131.897V135.113H213.587ZM219.584 130.03V130.692H216.95V130.03H219.584ZM217.717 128.812H218.498V133.657C218.498 133.878 218.53 134.043 218.594 134.154C218.661 134.262 218.744 134.334 218.846 134.372C218.95 134.407 219.059 134.425 219.173 134.425C219.26 134.425 219.33 134.421 219.385 134.412C219.44 134.401 219.485 134.392 219.518 134.385L219.677 135.087C219.624 135.107 219.55 135.127 219.455 135.146C219.36 135.168 219.24 135.179 219.094 135.179C218.873 135.179 218.657 135.132 218.445 135.037C218.236 134.942 218.062 134.798 217.923 134.604C217.786 134.409 217.717 134.165 217.717 133.869V128.812ZM226.98 131.169L226.279 131.367C226.235 131.25 226.17 131.137 226.083 131.026C226 130.914 225.885 130.821 225.739 130.748C225.594 130.675 225.407 130.639 225.18 130.639C224.869 130.639 224.61 130.711 224.402 130.854C224.197 130.995 224.095 131.175 224.095 131.394C224.095 131.588 224.165 131.741 224.306 131.854C224.448 131.966 224.668 132.06 224.968 132.135L225.723 132.32C226.177 132.43 226.516 132.599 226.739 132.827C226.962 133.052 227.073 133.342 227.073 133.697C227.073 133.988 226.989 134.248 226.821 134.478C226.656 134.707 226.424 134.888 226.126 135.021C225.829 135.153 225.482 135.219 225.087 135.219C224.569 135.219 224.14 135.107 223.8 134.882C223.46 134.657 223.245 134.328 223.155 133.895L223.896 133.71C223.967 133.984 224.1 134.189 224.296 134.326C224.495 134.462 224.754 134.531 225.074 134.531C225.438 134.531 225.727 134.454 225.941 134.299C226.157 134.143 226.265 133.955 226.265 133.737C226.265 133.56 226.204 133.412 226.08 133.293C225.957 133.172 225.767 133.081 225.511 133.022L224.664 132.823C224.198 132.713 223.856 132.542 223.638 132.31C223.422 132.076 223.314 131.784 223.314 131.433C223.314 131.146 223.394 130.893 223.555 130.672C223.718 130.451 223.94 130.278 224.22 130.153C224.503 130.027 224.823 129.964 225.18 129.964C225.683 129.964 226.078 130.074 226.365 130.295C226.654 130.515 226.859 130.807 226.98 131.169ZM231.452 133.035V130.03H232.233V135.113H231.452V134.253H231.399C231.28 134.511 231.095 134.73 230.843 134.911C230.592 135.09 230.274 135.179 229.89 135.179C229.572 135.179 229.29 135.11 229.043 134.971C228.796 134.83 228.602 134.618 228.46 134.336C228.319 134.051 228.249 133.692 228.249 133.26V130.03H229.03V133.207C229.03 133.578 229.133 133.873 229.341 134.094C229.55 134.315 229.817 134.425 230.142 134.425C230.336 134.425 230.533 134.375 230.734 134.276C230.937 134.177 231.107 134.024 231.244 133.819C231.383 133.614 231.452 133.353 231.452 133.035ZM233.664 135.113V130.03H234.418V130.798H234.471C234.564 130.546 234.731 130.342 234.974 130.186C235.217 130.029 235.49 129.951 235.795 129.951C235.852 129.951 235.924 129.952 236.01 129.954C236.096 129.956 236.161 129.959 236.205 129.964V130.758C236.179 130.752 236.118 130.742 236.023 130.728C235.931 130.713 235.832 130.705 235.729 130.705C235.482 130.705 235.261 130.757 235.067 130.861C234.875 130.962 234.723 131.103 234.61 131.284C234.5 131.463 234.445 131.667 234.445 131.897V135.113H233.664ZM241.442 130.03L239.563 135.113H238.768L236.889 130.03H237.736L239.139 134.081H239.192L240.595 130.03H241.442ZM244.422 135.219C243.933 135.219 243.51 135.111 243.155 134.895C242.802 134.676 242.529 134.372 242.337 133.981C242.148 133.589 242.053 133.132 242.053 132.611C242.053 132.091 242.148 131.632 242.337 131.235C242.529 130.835 242.796 130.524 243.138 130.301C243.483 130.076 243.884 129.964 244.343 129.964C244.608 129.964 244.869 130.008 245.127 130.096C245.385 130.185 245.62 130.328 245.832 130.526C246.044 130.723 246.213 130.983 246.339 131.307C246.464 131.632 246.527 132.031 246.527 132.505V132.836H242.609V132.161H245.733C245.733 131.875 245.676 131.619 245.561 131.394C245.448 131.169 245.287 130.991 245.078 130.861C244.87 130.731 244.625 130.665 244.343 130.665C244.032 130.665 243.763 130.743 243.535 130.897C243.31 131.049 243.137 131.248 243.016 131.493C242.895 131.738 242.834 132 242.834 132.28V132.731C242.834 133.114 242.9 133.44 243.032 133.707C243.167 133.972 243.353 134.173 243.592 134.312C243.83 134.449 244.107 134.518 244.422 134.518C244.628 134.518 244.813 134.489 244.978 134.432C245.146 134.372 245.291 134.284 245.412 134.167C245.533 134.048 245.627 133.9 245.693 133.723L246.448 133.935C246.368 134.191 246.235 134.416 246.047 134.61C245.86 134.802 245.628 134.952 245.352 135.06C245.077 135.166 244.767 135.219 244.422 135.219ZM248.064 137.019C247.931 137.019 247.813 137.008 247.709 136.986C247.606 136.967 247.534 136.947 247.494 136.927L247.693 136.238C247.883 136.287 248.05 136.305 248.196 136.291C248.342 136.278 248.471 136.213 248.583 136.096C248.698 135.981 248.803 135.795 248.897 135.537L249.043 135.14L247.163 130.03H248.011L249.414 134.081H249.467L250.87 130.03H251.717L249.559 135.855C249.462 136.117 249.342 136.334 249.199 136.507C249.055 136.681 248.889 136.81 248.699 136.894C248.511 136.978 248.3 137.019 248.064 137.019Z" fill="white"/>
<path d="M97.3236 169.081V163.151H99.3274C99.7927 163.151 100.173 163.235 100.468 163.403C100.766 163.569 100.986 163.793 101.129 164.077C101.271 164.361 101.343 164.678 101.343 165.027C101.343 165.376 101.271 165.694 101.129 165.98C100.988 166.265 100.769 166.493 100.474 166.663C100.179 166.831 99.8004 166.915 99.339 166.915H97.9027V166.278H99.3158C99.6344 166.278 99.8902 166.223 100.083 166.113C100.276 166.003 100.416 165.854 100.503 165.667C100.592 165.478 100.636 165.265 100.636 165.027C100.636 164.79 100.592 164.577 100.503 164.39C100.416 164.203 100.275 164.056 100.08 163.95C99.8853 163.842 99.6267 163.788 99.3043 163.788H98.0417V169.081H97.3236ZM104.166 169.174C103.765 169.174 103.412 169.078 103.109 168.887C102.808 168.696 102.573 168.429 102.403 168.085C102.235 167.741 102.151 167.34 102.151 166.88C102.151 166.417 102.235 166.013 102.403 165.667C102.573 165.321 102.808 165.053 103.109 164.862C103.412 164.671 103.765 164.575 104.166 164.575C104.568 164.575 104.919 164.671 105.22 164.862C105.523 165.053 105.759 165.321 105.927 165.667C106.097 166.013 106.182 166.417 106.182 166.88C106.182 167.34 106.097 167.741 105.927 168.085C105.759 168.429 105.523 168.696 105.22 168.887C104.919 169.078 104.568 169.174 104.166 169.174ZM104.166 168.56C104.471 168.56 104.722 168.482 104.919 168.325C105.116 168.169 105.262 167.963 105.356 167.708C105.451 167.454 105.498 167.178 105.498 166.88C105.498 166.583 105.451 166.306 105.356 166.049C105.262 165.792 105.116 165.585 104.919 165.427C104.722 165.268 104.471 165.189 104.166 165.189C103.861 165.189 103.61 165.268 103.413 165.427C103.216 165.585 103.071 165.792 102.976 166.049C102.881 166.306 102.834 166.583 102.834 166.88C102.834 167.178 102.881 167.454 102.976 167.708C103.071 167.963 103.216 168.169 103.413 168.325C103.61 168.482 103.861 168.56 104.166 168.56ZM108.081 169.081L106.726 164.633H107.444L108.405 168.039H108.452L109.402 164.633H110.131L111.07 168.027H111.116L112.077 164.633H112.795L111.44 169.081H110.768L109.795 165.664H109.726L108.753 169.081H108.081ZM115.412 169.174C114.984 169.174 114.614 169.079 114.303 168.89C113.994 168.699 113.756 168.432 113.588 168.091C113.422 167.747 113.339 167.347 113.339 166.892C113.339 166.436 113.422 166.035 113.588 165.687C113.756 165.338 113.99 165.066 114.289 164.871C114.59 164.674 114.941 164.575 115.343 164.575C115.575 164.575 115.803 164.614 116.029 164.691C116.255 164.768 116.461 164.894 116.646 165.068C116.831 165.239 116.979 165.467 117.089 165.751C117.199 166.035 117.254 166.384 117.254 166.799V167.089H113.826V166.498H116.559C116.559 166.247 116.509 166.023 116.408 165.826C116.31 165.629 116.169 165.474 115.986 165.36C115.804 165.246 115.59 165.189 115.343 165.189C115.071 165.189 114.835 165.257 114.636 165.392C114.439 165.525 114.288 165.699 114.182 165.913C114.075 166.127 114.022 166.357 114.022 166.602V166.996C114.022 167.332 114.08 167.617 114.196 167.85C114.314 168.082 114.477 168.259 114.686 168.38C114.894 168.5 115.136 168.56 115.412 168.56C115.592 168.56 115.754 168.535 115.899 168.485C116.046 168.432 116.172 168.355 116.278 168.253C116.384 168.149 116.466 168.019 116.524 167.865L117.185 168.05C117.115 168.274 116.998 168.471 116.834 168.641C116.67 168.809 116.467 168.94 116.226 169.035C115.985 169.127 115.714 169.174 115.412 169.174ZM118.294 169.081V164.633H118.954V165.305H119C119.081 165.085 119.228 164.906 119.44 164.769C119.653 164.632 119.892 164.564 120.158 164.564C120.209 164.564 120.271 164.565 120.347 164.567C120.422 164.569 120.479 164.571 120.517 164.575V165.27C120.494 165.265 120.441 165.256 120.358 165.244C120.277 165.231 120.191 165.224 120.1 165.224C119.884 165.224 119.691 165.269 119.521 165.36C119.353 165.449 119.22 165.572 119.122 165.731C119.025 165.887 118.977 166.066 118.977 166.266V169.081H118.294ZM123.057 169.174C122.628 169.174 122.259 169.079 121.948 168.89C121.639 168.699 121.401 168.432 121.233 168.091C121.067 167.747 120.984 167.347 120.984 166.892C120.984 166.436 121.067 166.035 121.233 165.687C121.401 165.338 121.634 165.066 121.933 164.871C122.235 164.674 122.586 164.575 122.988 164.575C123.219 164.575 123.448 164.614 123.674 164.691C123.9 164.768 124.105 164.894 124.291 165.068C124.476 165.239 124.624 165.467 124.734 165.751C124.844 166.035 124.899 166.384 124.899 166.799V167.089H121.47V166.498H124.204C124.204 166.247 124.154 166.023 124.053 165.826C123.955 165.629 123.814 165.474 123.63 165.36C123.449 165.246 123.235 165.189 122.988 165.189C122.715 165.189 122.48 165.257 122.281 165.392C122.084 165.525 121.933 165.699 121.826 165.913C121.72 166.127 121.667 166.357 121.667 166.602V166.996C121.667 167.332 121.725 167.617 121.841 167.85C121.959 168.082 122.122 168.259 122.33 168.38C122.539 168.5 122.781 168.56 123.057 168.56C123.237 168.56 123.399 168.535 123.543 168.485C123.69 168.432 123.817 168.355 123.923 168.253C124.029 168.149 124.111 168.019 124.169 167.865L124.829 168.05C124.76 168.274 124.643 168.471 124.479 168.641C124.315 168.809 124.112 168.94 123.871 169.035C123.629 169.127 123.358 169.174 123.057 169.174ZM127.618 169.174C127.247 169.174 126.92 169.08 126.636 168.893C126.352 168.704 126.13 168.437 125.97 168.094C125.81 167.748 125.73 167.34 125.73 166.869C125.73 166.402 125.81 165.996 125.97 165.653C126.13 165.309 126.353 165.043 126.639 164.856C126.925 164.669 127.255 164.575 127.629 164.575C127.919 164.575 128.148 164.624 128.316 164.72C128.485 164.815 128.615 164.923 128.704 165.044C128.794 165.164 128.865 165.263 128.915 165.34H128.973V163.151H129.656V169.081H128.996V168.398H128.915C128.865 168.479 128.793 168.581 128.701 168.705C128.608 168.826 128.476 168.935 128.304 169.032C128.132 169.126 127.903 169.174 127.618 169.174ZM127.71 168.56C127.985 168.56 128.216 168.488 128.405 168.346C128.595 168.201 128.738 168.001 128.837 167.746C128.935 167.489 128.985 167.193 128.985 166.857C128.985 166.525 128.936 166.235 128.84 165.986C128.743 165.735 128.6 165.54 128.411 165.401C128.222 165.26 127.988 165.189 127.71 165.189C127.421 165.189 127.18 165.264 126.986 165.412C126.795 165.559 126.652 165.759 126.555 166.012C126.46 166.263 126.413 166.544 126.413 166.857C126.413 167.174 126.461 167.461 126.558 167.72C126.656 167.977 126.801 168.181 126.992 168.334C127.185 168.485 127.425 168.56 127.71 168.56ZM133.389 169.081V163.151H134.072V165.34H134.13C134.18 165.263 134.25 165.164 134.339 165.044C134.429 164.923 134.559 164.815 134.727 164.72C134.897 164.624 135.126 164.575 135.416 164.575C135.79 164.575 136.12 164.669 136.406 164.856C136.692 165.043 136.915 165.309 137.075 165.653C137.235 165.996 137.315 166.402 137.315 166.869C137.315 167.34 137.235 167.748 137.075 168.094C136.915 168.437 136.693 168.704 136.409 168.893C136.125 169.08 135.798 169.174 135.427 169.174C135.142 169.174 134.913 169.126 134.741 169.032C134.569 168.935 134.437 168.826 134.344 168.705C134.252 168.581 134.18 168.479 134.13 168.398H134.049V169.081H133.389ZM134.061 166.857C134.061 167.193 134.11 167.489 134.208 167.746C134.307 168.001 134.451 168.201 134.64 168.346C134.829 168.488 135.061 168.56 135.335 168.56C135.621 168.56 135.859 168.485 136.05 168.334C136.243 168.181 136.388 167.977 136.484 167.72C136.583 167.461 136.632 167.174 136.632 166.857C136.632 166.544 136.584 166.263 136.487 166.012C136.393 165.759 136.249 165.559 136.056 165.412C135.865 165.264 135.624 165.189 135.335 165.189C135.057 165.189 134.823 165.26 134.634 165.401C134.445 165.54 134.302 165.735 134.205 165.986C134.109 166.235 134.061 166.525 134.061 166.857ZM138.642 170.749C138.526 170.749 138.423 170.739 138.332 170.72C138.241 170.703 138.178 170.685 138.144 170.668L138.317 170.066C138.483 170.108 138.63 170.124 138.758 170.112C138.885 170.1 138.998 170.043 139.096 169.941C139.197 169.841 139.288 169.678 139.371 169.452L139.499 169.104L137.854 164.633H138.595L139.823 168.178H139.869L141.097 164.633H141.839L139.951 169.73C139.866 169.959 139.76 170.15 139.635 170.3C139.509 170.453 139.364 170.566 139.198 170.639C139.034 170.712 138.848 170.749 138.642 170.749Z" fill="#575656"/>
<path d="M144.991 169.081V164.633H145.856V169.081H144.991ZM145.428 163.947C145.277 163.947 145.148 163.897 145.04 163.796C144.934 163.694 144.88 163.572 144.88 163.432C144.88 163.289 144.934 163.167 145.04 163.067C145.148 162.964 145.277 162.913 145.428 162.913C145.578 162.913 145.707 162.964 145.813 163.067C145.921 163.167 145.975 163.289 145.975 163.432C145.975 163.572 145.921 163.694 145.813 163.796C145.707 163.897 145.578 163.947 145.428 163.947ZM147.887 166.44V169.081H147.021V164.633H147.852V165.357H147.907C148.01 165.122 148.17 164.932 148.388 164.79C148.608 164.647 148.885 164.575 149.219 164.575C149.522 164.575 149.787 164.639 150.015 164.766C150.243 164.892 150.42 165.079 150.545 165.328C150.671 165.577 150.733 165.885 150.733 166.252V169.081H149.868V166.356C149.868 166.034 149.784 165.782 149.616 165.6C149.448 165.417 149.217 165.325 148.924 165.325C148.723 165.325 148.544 165.369 148.388 165.456C148.233 165.543 148.111 165.67 148.02 165.838C147.931 166.004 147.887 166.205 147.887 166.44ZM153.971 164.633V165.328H151.541V164.633H153.971ZM152.193 163.568H153.059V167.775C153.059 167.943 153.084 168.069 153.134 168.154C153.184 168.237 153.249 168.294 153.328 168.325C153.409 168.354 153.497 168.369 153.591 168.369C153.661 168.369 153.722 168.364 153.774 168.354C153.826 168.345 153.867 168.337 153.896 168.331L154.052 169.046C154.002 169.066 153.93 169.085 153.838 169.104C153.745 169.125 153.629 169.137 153.49 169.139C153.262 169.143 153.05 169.102 152.853 169.017C152.656 168.932 152.497 168.801 152.375 168.624C152.254 168.446 152.193 168.223 152.193 167.955V163.568ZM156.798 169.171C156.36 169.171 155.982 169.077 155.666 168.89C155.351 168.701 155.108 168.435 154.936 168.094C154.766 167.75 154.681 167.347 154.681 166.886C154.681 166.431 154.766 166.029 154.936 165.681C155.108 165.334 155.347 165.063 155.654 164.868C155.963 164.673 156.324 164.575 156.737 164.575C156.988 164.575 157.231 164.617 157.467 164.7C157.702 164.783 157.914 164.913 158.101 165.091C158.288 165.268 158.436 165.499 158.544 165.783C158.652 166.065 158.706 166.407 158.706 166.811V167.118H155.17V166.469H157.858C157.858 166.241 157.811 166.04 157.719 165.864C157.626 165.686 157.496 165.546 157.328 165.444C157.162 165.342 156.967 165.291 156.743 165.291C156.5 165.291 156.287 165.35 156.106 165.47C155.926 165.588 155.787 165.742 155.689 165.933C155.592 166.123 155.544 166.328 155.544 166.55V167.057C155.544 167.354 155.596 167.607 155.7 167.816C155.806 168.024 155.954 168.183 156.143 168.293C156.333 168.402 156.554 168.456 156.806 168.456C156.971 168.456 157.12 168.432 157.255 168.386C157.39 168.338 157.507 168.266 157.606 168.172C157.704 168.077 157.779 167.96 157.832 167.821L158.651 167.969C158.585 168.21 158.468 168.422 158.298 168.603C158.13 168.783 157.918 168.923 157.664 169.023C157.411 169.122 157.122 169.171 156.798 169.171ZM161.532 170.842C161.178 170.842 160.874 170.795 160.619 170.703C160.366 170.61 160.16 170.487 160 170.335C159.839 170.182 159.72 170.015 159.641 169.834L160.385 169.527C160.437 169.612 160.506 169.702 160.593 169.796C160.682 169.893 160.802 169.975 160.952 170.042C161.105 170.11 161.301 170.144 161.54 170.144C161.868 170.144 162.14 170.064 162.354 169.903C162.568 169.745 162.675 169.492 162.675 169.145V168.27H162.62C162.568 168.365 162.493 168.47 162.394 168.586C162.298 168.702 162.165 168.802 161.995 168.887C161.825 168.972 161.604 169.014 161.332 169.014C160.98 169.014 160.664 168.932 160.382 168.768C160.102 168.602 159.88 168.358 159.716 168.036C159.554 167.711 159.473 167.313 159.473 166.84C159.473 166.367 159.553 165.961 159.713 165.624C159.875 165.286 160.097 165.027 160.379 164.848C160.661 164.666 160.98 164.575 161.337 164.575C161.614 164.575 161.837 164.622 162.006 164.714C162.176 164.805 162.309 164.911 162.403 165.033C162.5 165.154 162.574 165.262 162.626 165.354H162.69V164.633H163.538V169.18C163.538 169.562 163.449 169.875 163.272 170.121C163.094 170.366 162.854 170.547 162.551 170.665C162.25 170.783 161.91 170.842 161.532 170.842ZM161.523 168.296C161.772 168.296 161.982 168.238 162.154 168.123C162.328 168.005 162.459 167.837 162.548 167.619C162.639 167.399 162.684 167.135 162.684 166.828C162.684 166.529 162.64 166.265 162.551 166.038C162.462 165.81 162.332 165.632 162.16 165.505C161.988 165.376 161.776 165.311 161.523 165.311C161.262 165.311 161.045 165.378 160.871 165.514C160.698 165.647 160.566 165.828 160.477 166.058C160.391 166.288 160.347 166.544 160.347 166.828C160.347 167.12 160.392 167.375 160.48 167.596C160.569 167.816 160.7 167.987 160.874 168.111C161.05 168.235 161.266 168.296 161.523 168.296ZM164.699 169.081V164.633H165.536V165.34H165.583C165.664 165.1 165.807 164.912 166.011 164.775C166.218 164.636 166.451 164.567 166.712 164.567C166.766 164.567 166.83 164.569 166.903 164.572C166.978 164.576 167.037 164.581 167.08 164.587V165.415C167.045 165.405 166.983 165.395 166.894 165.383C166.806 165.37 166.717 165.363 166.628 165.363C166.423 165.363 166.241 165.406 166.081 165.493C165.922 165.578 165.797 165.697 165.704 165.849C165.612 166 165.565 166.172 165.565 166.365V169.081H164.699ZM169.084 169.18C168.802 169.18 168.547 169.127 168.319 169.023C168.091 168.917 167.911 168.763 167.778 168.563C167.646 168.362 167.581 168.116 167.581 167.824C167.581 167.573 167.629 167.367 167.725 167.205C167.822 167.042 167.952 166.914 168.116 166.82C168.28 166.725 168.464 166.653 168.667 166.605C168.869 166.557 169.076 166.52 169.286 166.495C169.553 166.464 169.769 166.439 169.935 166.42C170.101 166.399 170.222 166.365 170.297 166.319C170.372 166.272 170.41 166.197 170.41 166.093V166.072C170.41 165.82 170.338 165.624 170.195 165.485C170.055 165.346 169.844 165.276 169.564 165.276C169.273 165.276 169.043 165.341 168.875 165.47C168.709 165.598 168.594 165.739 168.53 165.896L167.717 165.71C167.813 165.44 167.954 165.222 168.14 165.056C168.327 164.888 168.542 164.766 168.785 164.691C169.028 164.614 169.284 164.575 169.553 164.575C169.73 164.575 169.918 164.597 170.117 164.639C170.318 164.68 170.505 164.755 170.679 164.865C170.855 164.975 170.999 165.132 171.111 165.337C171.222 165.54 171.278 165.803 171.278 166.127V169.081H170.433V168.473H170.398C170.342 168.585 170.258 168.695 170.146 168.803C170.034 168.911 169.89 169.001 169.715 169.072C169.539 169.144 169.329 169.18 169.084 169.18ZM169.272 168.485C169.511 168.485 169.716 168.437 169.886 168.343C170.057 168.248 170.188 168.125 170.277 167.972C170.367 167.818 170.413 167.653 170.413 167.477V166.903C170.382 166.934 170.322 166.963 170.233 166.99C170.146 167.015 170.047 167.038 169.935 167.057C169.823 167.074 169.714 167.091 169.608 167.106C169.501 167.12 169.413 167.131 169.341 167.141C169.173 167.162 169.02 167.198 168.881 167.248C168.744 167.298 168.634 167.371 168.551 167.465C168.47 167.558 168.429 167.681 168.429 167.836C168.429 168.05 168.508 168.212 168.667 168.322C168.825 168.43 169.027 168.485 169.272 168.485ZM174.548 164.633V165.328H172.035V164.633H174.548ZM172.724 169.081V164.118C172.724 163.84 172.785 163.609 172.907 163.426C173.028 163.24 173.189 163.102 173.39 163.012C173.591 162.919 173.809 162.873 174.045 162.873C174.218 162.873 174.367 162.887 174.491 162.916C174.614 162.943 174.706 162.968 174.766 162.991L174.563 163.692C174.522 163.681 174.47 163.667 174.407 163.652C174.343 163.634 174.266 163.626 174.175 163.626C173.964 163.626 173.814 163.678 173.723 163.782C173.634 163.886 173.59 164.037 173.59 164.234V169.081H172.724ZM176.308 163.151V169.081H175.442V163.151H176.308ZM179.346 169.171C178.929 169.171 178.565 169.075 178.254 168.884C177.943 168.693 177.702 168.426 177.53 168.082C177.358 167.738 177.273 167.337 177.273 166.877C177.273 166.416 177.358 166.013 177.53 165.667C177.702 165.321 177.943 165.053 178.254 164.862C178.565 164.671 178.929 164.575 179.346 164.575C179.763 164.575 180.127 164.671 180.438 164.862C180.748 165.053 180.99 165.321 181.161 165.667C181.333 166.013 181.419 166.416 181.419 166.877C181.419 167.337 181.333 167.738 181.161 168.082C180.99 168.426 180.748 168.693 180.438 168.884C180.127 169.075 179.763 169.171 179.346 169.171ZM179.349 168.444C179.619 168.444 179.843 168.373 180.021 168.23C180.198 168.087 180.329 167.897 180.414 167.659C180.501 167.422 180.545 167.16 180.545 166.875C180.545 166.591 180.501 166.33 180.414 166.093C180.329 165.853 180.198 165.661 180.021 165.516C179.843 165.372 179.619 165.299 179.349 165.299C179.077 165.299 178.851 165.372 178.671 165.516C178.494 165.661 178.361 165.853 178.274 166.093C178.19 166.33 178.147 166.591 178.147 166.875C178.147 167.16 178.19 167.422 178.274 167.659C178.361 167.897 178.494 168.087 178.671 168.23C178.851 168.373 179.077 168.444 179.349 168.444ZM183.215 169.081L181.906 164.633H182.8L183.672 167.9H183.716L184.59 164.633H185.485L186.353 167.885H186.397L187.263 164.633H188.158L186.852 169.081H185.968L185.065 165.87H184.998L184.095 169.081H183.215Z" fill="#050505"/>
</g>
</svg>
