<svg width="419" height="280" viewBox="0 0 419 280" fill="none" xmlns="http://www.w3.org/2000/svg">
<rect width="419" height="280" rx="8" fill="#272138"/>
<path d="M26.9432 34.1477H25.1705C25.1023 33.7689 24.9754 33.4356 24.7898 33.1477C24.6042 32.8598 24.3769 32.6155 24.108 32.4148C23.839 32.214 23.5379 32.0625 23.2045 31.9602C22.875 31.858 22.5246 31.8068 22.1534 31.8068C21.483 31.8068 20.8826 31.9754 20.3523 32.3125C19.8258 32.6496 19.4091 33.1439 19.1023 33.7955C18.7992 34.447 18.6477 35.2424 18.6477 36.1818C18.6477 37.1288 18.7992 37.928 19.1023 38.5795C19.4091 39.2311 19.8277 39.7235 20.358 40.0568C20.8883 40.3902 21.4848 40.5568 22.1477 40.5568C22.5152 40.5568 22.8636 40.5076 23.1932 40.4091C23.5265 40.3068 23.8277 40.1572 24.0966 39.9602C24.3655 39.7633 24.5928 39.5227 24.7784 39.2386C24.9678 38.9508 25.0985 38.6212 25.1705 38.25L26.9432 38.2557C26.8485 38.8277 26.6648 39.3542 26.392 39.8352C26.1231 40.3125 25.7765 40.7254 25.3523 41.0739C24.9318 41.4186 24.4508 41.6856 23.9091 41.875C23.3674 42.0644 22.7765 42.1591 22.1364 42.1591C21.1288 42.1591 20.2311 41.9205 19.4432 41.4432C18.6553 40.9621 18.0341 40.2746 17.5795 39.3807C17.1288 38.4867 16.9034 37.4205 16.9034 36.1818C16.9034 34.9394 17.1307 33.8731 17.5852 32.983C18.0398 32.089 18.661 31.4034 19.4489 30.9261C20.2367 30.4451 21.1326 30.2045 22.1364 30.2045C22.7538 30.2045 23.3295 30.2936 23.8636 30.4716C24.4015 30.6458 24.8845 30.9034 25.3125 31.2443C25.7405 31.5814 26.0947 31.9943 26.375 32.483C26.6553 32.9678 26.8447 33.5227 26.9432 34.1477ZM34.4361 38.3807V33.2727H36.1406V42H34.4702V40.4886H34.3793C34.1785 40.9545 33.8565 41.3428 33.4134 41.6534C32.974 41.9602 32.4266 42.1136 31.7713 42.1136C31.2107 42.1136 30.7145 41.9905 30.2827 41.7443C29.8546 41.4943 29.5175 41.125 29.2713 40.6364C29.0289 40.1477 28.9077 39.5436 28.9077 38.8239V33.2727H30.6065V38.6193C30.6065 39.214 30.7713 39.6875 31.1009 40.0398C31.4304 40.392 31.8584 40.5682 32.3849 40.5682C32.7031 40.5682 33.0194 40.4886 33.3338 40.3295C33.652 40.1705 33.9152 39.9299 34.1236 39.608C34.3357 39.286 34.4399 38.8769 34.4361 38.3807ZM44.9631 35.4034L43.4233 35.6761C43.3589 35.4792 43.2566 35.2917 43.1165 35.1136C42.9801 34.9356 42.7945 34.7898 42.5597 34.6761C42.3248 34.5625 42.0313 34.5057 41.679 34.5057C41.1979 34.5057 40.7964 34.6136 40.4744 34.8295C40.1525 35.0417 39.9915 35.3163 39.9915 35.6534C39.9915 35.9451 40.0994 36.1799 40.3153 36.358C40.5313 36.536 40.8797 36.6818 41.3608 36.7955L42.7472 37.1136C43.5502 37.2992 44.1487 37.5852 44.5426 37.9716C44.9366 38.358 45.1335 38.8598 45.1335 39.4773C45.1335 40 44.982 40.4659 44.679 40.875C44.3797 41.2803 43.9612 41.5985 43.4233 41.8295C42.8892 42.0606 42.2699 42.1761 41.5653 42.1761C40.5881 42.1761 39.7907 41.9678 39.1733 41.5511C38.5559 41.1307 38.1771 40.5341 38.0369 39.7614L39.679 39.5114C39.7813 39.9394 39.9915 40.2633 40.3097 40.483C40.6278 40.6989 41.0426 40.8068 41.554 40.8068C42.1108 40.8068 42.5559 40.6913 42.8892 40.4602C43.2225 40.2254 43.3892 39.9394 43.3892 39.6023C43.3892 39.3295 43.2869 39.1004 43.0824 38.9148C42.8816 38.7292 42.5729 38.589 42.1562 38.4943L40.679 38.1705C39.8646 37.9848 39.2623 37.6894 38.8722 37.2841C38.4858 36.8788 38.2926 36.3655 38.2926 35.7443C38.2926 35.2292 38.4366 34.7784 38.7244 34.392C39.0123 34.0057 39.41 33.7045 39.9176 33.4886C40.4252 33.2689 41.0066 33.1591 41.6619 33.1591C42.6051 33.1591 43.3475 33.3636 43.8892 33.7727C44.4309 34.178 44.7888 34.7216 44.9631 35.4034ZM51.0753 33.2727V34.6364H46.3082V33.2727H51.0753ZM47.5866 31.1818H49.2855V39.4375C49.2855 39.767 49.3348 40.0152 49.4332 40.1818C49.5317 40.3447 49.6586 40.4564 49.8139 40.517C49.973 40.5739 50.1454 40.6023 50.331 40.6023C50.4673 40.6023 50.5866 40.5928 50.6889 40.5739C50.7912 40.5549 50.8707 40.5398 50.9276 40.5284L51.2344 41.9318C51.1359 41.9697 50.9957 42.0076 50.8139 42.0455C50.6321 42.0871 50.4048 42.1098 50.1321 42.1136C49.6851 42.1212 49.2685 42.0417 48.8821 41.875C48.4957 41.7083 48.1832 41.4508 47.9446 41.1023C47.706 40.7538 47.5866 40.3163 47.5866 39.7898V31.1818ZM56.5369 42.1761C55.7188 42.1761 55.0047 41.9886 54.3949 41.6136C53.785 41.2386 53.3116 40.714 52.9744 40.0398C52.6373 39.3655 52.4688 38.5777 52.4688 37.6761C52.4688 36.7708 52.6373 35.9792 52.9744 35.3011C53.3116 34.6231 53.785 34.0966 54.3949 33.7216C55.0047 33.3466 55.7188 33.1591 56.5369 33.1591C57.3551 33.1591 58.0691 33.3466 58.679 33.7216C59.2888 34.0966 59.7623 34.6231 60.0994 35.3011C60.4366 35.9792 60.6051 36.7708 60.6051 37.6761C60.6051 38.5777 60.4366 39.3655 60.0994 40.0398C59.7623 40.714 59.2888 41.2386 58.679 41.6136C58.0691 41.9886 57.3551 42.1761 56.5369 42.1761ZM56.5426 40.75C57.0729 40.75 57.5123 40.6098 57.8608 40.3295C58.2093 40.0492 58.4669 39.6761 58.6335 39.2102C58.804 38.7443 58.8892 38.2311 58.8892 37.6705C58.8892 37.1136 58.804 36.6023 58.6335 36.1364C58.4669 35.6667 58.2093 35.2898 57.8608 35.0057C57.5123 34.7216 57.0729 34.5795 56.5426 34.5795C56.0085 34.5795 55.5653 34.7216 55.2131 35.0057C54.8646 35.2898 54.6051 35.6667 54.4347 36.1364C54.268 36.6023 54.1847 37.1136 54.1847 37.6705C54.1847 38.2311 54.268 38.7443 54.4347 39.2102C54.6051 39.6761 54.8646 40.0492 55.2131 40.3295C55.5653 40.6098 56.0085 40.75 56.5426 40.75ZM62.5014 42V33.2727H64.1321V34.6932H64.2401C64.4219 34.2121 64.7192 33.8371 65.1321 33.5682C65.545 33.2955 66.0393 33.1591 66.6151 33.1591C67.1984 33.1591 67.687 33.2955 68.081 33.5682C68.4787 33.8409 68.7723 34.2159 68.9616 34.6932H69.0526C69.2609 34.2273 69.5923 33.8561 70.0469 33.5795C70.5014 33.2992 71.0431 33.1591 71.6719 33.1591C72.4635 33.1591 73.1094 33.4072 73.6094 33.9034C74.1132 34.3996 74.3651 35.1477 74.3651 36.1477V42H72.6662V36.3068C72.6662 35.7159 72.5052 35.2879 72.1832 35.0227C71.8613 34.7576 71.4768 34.625 71.0298 34.625C70.4768 34.625 70.0469 34.7955 69.7401 35.1364C69.4332 35.4735 69.2798 35.9072 69.2798 36.4375V42H67.5866V36.1989C67.5866 35.7254 67.4389 35.3447 67.1435 35.0568C66.848 34.7689 66.4635 34.625 65.9901 34.625C65.6681 34.625 65.3707 34.7102 65.098 34.8807C64.8291 35.0473 64.6113 35.2803 64.4446 35.5795C64.2817 35.8788 64.2003 36.2254 64.2003 36.6193V42H62.5014ZM80.4034 42.1761C79.5436 42.1761 78.803 41.9924 78.1818 41.625C77.5644 41.2538 77.0871 40.733 76.75 40.0625C76.4167 39.3883 76.25 38.5985 76.25 37.6932C76.25 36.7992 76.4167 36.0114 76.75 35.3295C77.0871 34.6477 77.5568 34.1155 78.1591 33.733C78.7652 33.3504 79.4735 33.1591 80.2841 33.1591C80.7765 33.1591 81.2538 33.2405 81.7159 33.4034C82.178 33.5663 82.5928 33.822 82.9602 34.1705C83.3277 34.5189 83.6174 34.9716 83.8295 35.5284C84.0417 36.0814 84.1477 36.7538 84.1477 37.5455V38.1477H77.2102V36.875H82.483C82.483 36.428 82.392 36.0322 82.2102 35.6875C82.0284 35.339 81.7727 35.0644 81.4432 34.8636C81.1174 34.6629 80.7348 34.5625 80.2955 34.5625C79.8182 34.5625 79.4015 34.6799 79.0455 34.9148C78.6932 35.1458 78.4205 35.4489 78.2273 35.8239C78.0379 36.1951 77.9432 36.5985 77.9432 37.0341V38.0284C77.9432 38.6117 78.0455 39.108 78.25 39.517C78.4583 39.9261 78.7481 40.2386 79.1193 40.4545C79.4905 40.6667 79.9242 40.7727 80.4205 40.7727C80.7424 40.7727 81.036 40.7273 81.3011 40.6364C81.5663 40.5417 81.7955 40.4015 81.9886 40.2159C82.1818 40.0303 82.3295 39.8011 82.4318 39.5284L84.0398 39.8182C83.911 40.2917 83.6799 40.7064 83.3466 41.0625C83.017 41.4148 82.6023 41.6894 82.1023 41.8864C81.6061 42.0795 81.0398 42.1761 80.4034 42.1761ZM86.0327 42V33.2727H87.6747V34.6591H87.7656C87.9247 34.1894 88.205 33.8201 88.6065 33.5511C89.0118 33.2784 89.4702 33.142 89.9815 33.142C90.0876 33.142 90.2126 33.1458 90.3565 33.1534C90.5043 33.161 90.6198 33.1705 90.7031 33.1818V34.8068C90.6349 34.7879 90.5137 34.767 90.3395 34.7443C90.1652 34.7178 89.991 34.7045 89.8168 34.7045C89.4152 34.7045 89.0573 34.7898 88.7429 34.9602C88.4323 35.1269 88.1861 35.3598 88.0043 35.6591C87.8224 35.9545 87.7315 36.2917 87.7315 36.6705V42H86.0327ZM96.544 42V30.3636H103.839V31.875H98.2997V35.4205H103.459V36.9261H98.2997V40.4886H103.908V42H96.544ZM110.202 33.2727V34.6364H105.27V33.2727H110.202ZM106.622 42V32.2614C106.622 31.7159 106.741 31.2633 106.98 30.9034C107.219 30.5398 107.535 30.2689 107.929 30.0909C108.323 29.9091 108.751 29.8182 109.213 29.8182C109.554 29.8182 109.846 29.8466 110.088 29.9034C110.33 29.9564 110.51 30.0057 110.628 30.0511L110.23 31.4261C110.151 31.4034 110.048 31.3769 109.923 31.3466C109.798 31.3125 109.647 31.2955 109.469 31.2955C109.056 31.2955 108.76 31.3977 108.582 31.6023C108.408 31.8068 108.321 32.1023 108.321 32.4886V42H106.622ZM116.108 33.2727V34.6364H111.176V33.2727H116.108ZM112.528 42V32.2614C112.528 31.7159 112.648 31.2633 112.886 30.9034C113.125 30.5398 113.441 30.2689 113.835 30.0909C114.229 29.9091 114.657 29.8182 115.119 29.8182C115.46 29.8182 115.752 29.8466 115.994 29.9034C116.237 29.9564 116.417 30.0057 116.534 30.0511L116.136 31.4261C116.057 31.4034 115.955 31.3769 115.83 31.3466C115.705 31.3125 115.553 31.2955 115.375 31.2955C114.962 31.2955 114.667 31.3977 114.489 31.6023C114.314 31.8068 114.227 32.1023 114.227 32.4886V42H112.528ZM121.193 42.1761C120.375 42.1761 119.661 41.9886 119.051 41.6136C118.441 41.2386 117.968 40.714 117.631 40.0398C117.294 39.3655 117.125 38.5777 117.125 37.6761C117.125 36.7708 117.294 35.9792 117.631 35.3011C117.968 34.6231 118.441 34.0966 119.051 33.7216C119.661 33.3466 120.375 33.1591 121.193 33.1591C122.011 33.1591 122.725 33.3466 123.335 33.7216C123.945 34.0966 124.419 34.6231 124.756 35.3011C125.093 35.9792 125.261 36.7708 125.261 37.6761C125.261 38.5777 125.093 39.3655 124.756 40.0398C124.419 40.714 123.945 41.2386 123.335 41.6136C122.725 41.9886 122.011 42.1761 121.193 42.1761ZM121.199 40.75C121.729 40.75 122.169 40.6098 122.517 40.3295C122.866 40.0492 123.123 39.6761 123.29 39.2102C123.46 38.7443 123.545 38.2311 123.545 37.6705C123.545 37.1136 123.46 36.6023 123.29 36.1364C123.123 35.6667 122.866 35.2898 122.517 35.0057C122.169 34.7216 121.729 34.5795 121.199 34.5795C120.665 34.5795 120.222 34.7216 119.869 35.0057C119.521 35.2898 119.261 35.6667 119.091 36.1364C118.924 36.6023 118.841 37.1136 118.841 37.6705C118.841 38.2311 118.924 38.7443 119.091 39.2102C119.261 39.6761 119.521 40.0492 119.869 40.3295C120.222 40.6098 120.665 40.75 121.199 40.75ZM127.158 42V33.2727H128.8V34.6591H128.891C129.05 34.1894 129.33 33.8201 129.732 33.5511C130.137 33.2784 130.595 33.142 131.107 33.142C131.213 33.142 131.338 33.1458 131.482 33.1534C131.629 33.161 131.745 33.1705 131.828 33.1818V34.8068C131.76 34.7879 131.639 34.767 131.464 34.7443C131.29 34.7178 131.116 34.7045 130.942 34.7045C130.54 34.7045 130.182 34.7898 129.868 34.9602C129.557 35.1269 129.311 35.3598 129.129 35.6591C128.947 35.9545 128.857 36.2917 128.857 36.6705V42H127.158ZM137.888 33.2727V34.6364H133.121V33.2727H137.888ZM134.399 31.1818H136.098V39.4375C136.098 39.767 136.147 40.0152 136.246 40.1818C136.344 40.3447 136.471 40.4564 136.626 40.517C136.786 40.5739 136.958 40.6023 137.143 40.6023C137.28 40.6023 137.399 40.5928 137.501 40.5739C137.604 40.5549 137.683 40.5398 137.74 40.5284L138.047 41.9318C137.948 41.9697 137.808 42.0076 137.626 42.0455C137.445 42.0871 137.217 42.1098 136.945 42.1136C136.498 42.1212 136.081 42.0417 135.695 41.875C135.308 41.7083 134.996 41.4508 134.757 41.1023C134.518 40.7538 134.399 40.3163 134.399 39.7898V31.1818ZM150.484 33.4205C150.424 32.8826 150.174 32.4659 149.734 32.1705C149.295 31.8712 148.742 31.7216 148.075 31.7216C147.598 31.7216 147.185 31.7973 146.837 31.9489C146.488 32.0966 146.217 32.3011 146.024 32.5625C145.835 32.8201 145.74 33.1136 145.74 33.4432C145.74 33.7197 145.804 33.9583 145.933 34.1591C146.066 34.3598 146.238 34.5284 146.45 34.6648C146.666 34.7973 146.897 34.9091 147.143 35C147.39 35.0871 147.626 35.1591 147.854 35.2159L148.99 35.5114C149.361 35.6023 149.742 35.7254 150.132 35.8807C150.522 36.036 150.884 36.2405 151.217 36.4943C151.551 36.7481 151.82 37.0625 152.024 37.4375C152.232 37.8125 152.337 38.2614 152.337 38.7841C152.337 39.4432 152.166 40.0284 151.825 40.5398C151.488 41.0511 150.998 41.4545 150.354 41.75C149.714 42.0455 148.939 42.1932 148.03 42.1932C147.159 42.1932 146.405 42.0549 145.768 41.7784C145.132 41.5019 144.634 41.1098 144.274 40.6023C143.914 40.0909 143.715 39.4848 143.678 38.7841H145.439C145.473 39.2045 145.609 39.5549 145.848 39.8352C146.09 40.1117 146.399 40.3182 146.774 40.4545C147.153 40.5871 147.568 40.6534 148.018 40.6534C148.515 40.6534 148.956 40.5758 149.342 40.4205C149.732 40.2614 150.039 40.0417 150.263 39.7614C150.486 39.4773 150.598 39.1458 150.598 38.767C150.598 38.4223 150.5 38.1402 150.303 37.9205C150.109 37.7008 149.846 37.5189 149.513 37.375C149.183 37.2311 148.81 37.1042 148.393 36.9943L147.018 36.6193C146.087 36.3655 145.348 35.9924 144.803 35.5C144.261 35.0076 143.99 34.3561 143.99 33.5455C143.99 32.875 144.172 32.2898 144.536 31.7898C144.899 31.2898 145.392 30.9015 146.013 30.625C146.634 30.3447 147.335 30.2045 148.115 30.2045C148.903 30.2045 149.598 30.3428 150.2 30.6193C150.806 30.8958 151.284 31.2765 151.632 31.7614C151.981 32.2424 152.162 32.7955 152.178 33.4205H150.484ZM157.974 42.1761C157.13 42.1761 156.402 41.9848 155.793 41.6023C155.187 41.2159 154.721 40.6837 154.395 40.0057C154.069 39.3277 153.906 38.5511 153.906 37.6761C153.906 36.7898 154.073 36.0076 154.406 35.3295C154.74 34.6477 155.209 34.1155 155.815 33.733C156.421 33.3504 157.135 33.1591 157.957 33.1591C158.62 33.1591 159.211 33.2822 159.73 33.5284C160.249 33.7708 160.668 34.1117 160.986 34.5511C161.308 34.9905 161.499 35.5038 161.56 36.0909H159.906C159.815 35.6818 159.607 35.3295 159.281 35.0341C158.959 34.7386 158.527 34.5909 157.986 34.5909C157.512 34.5909 157.098 34.7159 156.741 34.9659C156.389 35.2121 156.115 35.5644 155.918 36.0227C155.721 36.4773 155.622 37.0152 155.622 37.6364C155.622 38.2727 155.719 38.822 155.912 39.2841C156.105 39.7462 156.378 40.1042 156.73 40.358C157.086 40.6117 157.505 40.7386 157.986 40.7386C158.308 40.7386 158.599 40.6799 158.861 40.5625C159.126 40.4413 159.348 40.2689 159.526 40.0455C159.707 39.822 159.834 39.553 159.906 39.2386H161.56C161.499 39.803 161.315 40.3068 161.009 40.75C160.702 41.1932 160.291 41.5417 159.776 41.7955C159.264 42.0492 158.664 42.1761 157.974 42.1761ZM167.053 42.1761C166.234 42.1761 165.52 41.9886 164.911 41.6136C164.301 41.2386 163.827 40.714 163.49 40.0398C163.153 39.3655 162.984 38.5777 162.984 37.6761C162.984 36.7708 163.153 35.9792 163.49 35.3011C163.827 34.6231 164.301 34.0966 164.911 33.7216C165.52 33.3466 166.234 33.1591 167.053 33.1591C167.871 33.1591 168.585 33.3466 169.195 33.7216C169.804 34.0966 170.278 34.6231 170.615 35.3011C170.952 35.9792 171.121 36.7708 171.121 37.6761C171.121 38.5777 170.952 39.3655 170.615 40.0398C170.278 40.714 169.804 41.2386 169.195 41.6136C168.585 41.9886 167.871 42.1761 167.053 42.1761ZM167.058 40.75C167.589 40.75 168.028 40.6098 168.376 40.3295C168.725 40.0492 168.982 39.6761 169.149 39.2102C169.32 38.7443 169.405 38.2311 169.405 37.6705C169.405 37.1136 169.32 36.6023 169.149 36.1364C168.982 35.6667 168.725 35.2898 168.376 35.0057C168.028 34.7216 167.589 34.5795 167.058 34.5795C166.524 34.5795 166.081 34.7216 165.729 35.0057C165.38 35.2898 165.121 35.6667 164.95 36.1364C164.784 36.6023 164.7 37.1136 164.7 37.6705C164.7 38.2311 164.784 38.7443 164.95 39.2102C165.121 39.6761 165.38 40.0492 165.729 40.3295C166.081 40.6098 166.524 40.75 167.058 40.75ZM173.017 42V33.2727H174.659V34.6591H174.75C174.909 34.1894 175.189 33.8201 175.591 33.5511C175.996 33.2784 176.455 33.142 176.966 33.142C177.072 33.142 177.197 33.1458 177.341 33.1534C177.489 33.161 177.604 33.1705 177.688 33.1818V34.8068C177.619 34.7879 177.498 34.767 177.324 34.7443C177.15 34.7178 176.975 34.7045 176.801 34.7045C176.4 34.7045 176.042 34.7898 175.727 34.9602C175.417 35.1269 175.17 35.3598 174.989 35.6591C174.807 35.9545 174.716 36.2917 174.716 36.6705V42H173.017ZM182.607 42.1761C181.747 42.1761 181.006 41.9924 180.385 41.625C179.768 41.2538 179.29 40.733 178.953 40.0625C178.62 39.3883 178.453 38.5985 178.453 37.6932C178.453 36.7992 178.62 36.0114 178.953 35.3295C179.29 34.6477 179.76 34.1155 180.362 33.733C180.968 33.3504 181.677 33.1591 182.487 33.1591C182.98 33.1591 183.457 33.2405 183.919 33.4034C184.381 33.5663 184.796 33.822 185.163 34.1705C185.531 34.5189 185.821 34.9716 186.033 35.5284C186.245 36.0814 186.351 36.7538 186.351 37.5455V38.1477H179.413V36.875H184.686C184.686 36.428 184.595 36.0322 184.413 35.6875C184.232 35.339 183.976 35.0644 183.646 34.8636C183.321 34.6629 182.938 34.5625 182.499 34.5625C182.021 34.5625 181.605 34.6799 181.249 34.9148C180.896 35.1458 180.624 35.4489 180.43 35.8239C180.241 36.1951 180.146 36.5985 180.146 37.0341V38.0284C180.146 38.6117 180.249 39.108 180.453 39.517C180.661 39.9261 180.951 40.2386 181.322 40.4545C181.694 40.6667 182.127 40.7727 182.624 40.7727C182.946 40.7727 183.239 40.7273 183.504 40.6364C183.769 40.5417 183.999 40.4015 184.192 40.2159C184.385 40.0303 184.533 39.8011 184.635 39.5284L186.243 39.8182C186.114 40.2917 185.883 40.7064 185.55 41.0625C185.22 41.4148 184.805 41.6894 184.305 41.8864C183.809 42.0795 183.243 42.1761 182.607 42.1761ZM192.964 36.1818C192.964 34.7576 193.152 33.447 193.527 32.25C193.902 31.053 194.449 29.9489 195.169 28.9375H196.726C196.446 29.3125 196.184 29.7727 195.942 30.3182C195.699 30.8636 195.487 31.4621 195.305 32.1136C195.124 32.7614 194.982 33.4337 194.879 34.1307C194.777 34.8239 194.726 35.5076 194.726 36.1818C194.726 37.0833 194.815 37.9962 194.993 38.9205C195.171 39.8447 195.411 40.7027 195.714 41.4943C196.018 42.286 196.355 42.9318 196.726 43.4318H195.169C194.449 42.4205 193.902 41.3163 193.527 40.1193C193.152 38.9223 192.964 37.6098 192.964 36.1818ZM208.318 34.1477H206.545C206.477 33.7689 206.35 33.4356 206.165 33.1477C205.979 32.8598 205.752 32.6155 205.483 32.4148C205.214 32.214 204.913 32.0625 204.58 31.9602C204.25 31.858 203.9 31.8068 203.528 31.8068C202.858 31.8068 202.258 31.9754 201.727 32.3125C201.201 32.6496 200.784 33.1439 200.477 33.7955C200.174 34.447 200.023 35.2424 200.023 36.1818C200.023 37.1288 200.174 37.928 200.477 38.5795C200.784 39.2311 201.203 39.7235 201.733 40.0568C202.263 40.3902 202.86 40.5568 203.523 40.5568C203.89 40.5568 204.239 40.5076 204.568 40.4091C204.902 40.3068 205.203 40.1572 205.472 39.9602C205.741 39.7633 205.968 39.5227 206.153 39.2386C206.343 38.9508 206.473 38.6212 206.545 38.25L208.318 38.2557C208.223 38.8277 208.04 39.3542 207.767 39.8352C207.498 40.3125 207.152 40.7254 206.727 41.0739C206.307 41.4186 205.826 41.6856 205.284 41.875C204.742 42.0644 204.152 42.1591 203.511 42.1591C202.504 42.1591 201.606 41.9205 200.818 41.4432C200.03 40.9621 199.409 40.2746 198.955 39.3807C198.504 38.4867 198.278 37.4205 198.278 36.1818C198.278 34.9394 198.506 33.8731 198.96 32.983C199.415 32.089 200.036 31.4034 200.824 30.9261C201.612 30.4451 202.508 30.2045 203.511 30.2045C204.129 30.2045 204.705 30.2936 205.239 30.4716C205.777 30.6458 206.259 30.9034 206.688 31.2443C207.116 31.5814 207.47 31.9943 207.75 32.483C208.03 32.9678 208.22 33.5227 208.318 34.1477ZM210.419 42V30.3636H217.714V31.875H212.175V35.4205H217.334V36.9261H212.175V40.4886H217.783V42H210.419ZM226.406 33.4205C226.346 32.8826 226.096 32.4659 225.656 32.1705C225.217 31.8712 224.664 31.7216 223.997 31.7216C223.52 31.7216 223.107 31.7973 222.759 31.9489C222.41 32.0966 222.139 32.3011 221.946 32.5625C221.757 32.8201 221.662 33.1136 221.662 33.4432C221.662 33.7197 221.726 33.9583 221.855 34.1591C221.988 34.3598 222.16 34.5284 222.372 34.6648C222.588 34.7973 222.819 34.9091 223.065 35C223.312 35.0871 223.548 35.1591 223.776 35.2159L224.912 35.5114C225.283 35.6023 225.664 35.7254 226.054 35.8807C226.444 36.036 226.806 36.2405 227.139 36.4943C227.473 36.7481 227.741 37.0625 227.946 37.4375C228.154 37.8125 228.259 38.2614 228.259 38.7841C228.259 39.4432 228.088 40.0284 227.747 40.5398C227.41 41.0511 226.92 41.4545 226.276 41.75C225.635 42.0455 224.861 42.1932 223.952 42.1932C223.08 42.1932 222.327 42.0549 221.69 41.7784C221.054 41.5019 220.556 41.1098 220.196 40.6023C219.836 40.0909 219.637 39.4848 219.599 38.7841H221.361C221.395 39.2045 221.531 39.5549 221.77 39.8352C222.012 40.1117 222.321 40.3182 222.696 40.4545C223.075 40.5871 223.49 40.6534 223.94 40.6534C224.437 40.6534 224.878 40.5758 225.264 40.4205C225.654 40.2614 225.961 40.0417 226.185 39.7614C226.408 39.4773 226.52 39.1458 226.52 38.767C226.52 38.4223 226.421 38.1402 226.224 37.9205C226.031 37.7008 225.768 37.5189 225.435 37.375C225.105 37.2311 224.732 37.1042 224.315 36.9943L222.94 36.6193C222.009 36.3655 221.27 35.9924 220.724 35.5C220.183 35.0076 219.912 34.3561 219.912 33.5455C219.912 32.875 220.094 32.2898 220.457 31.7898C220.821 31.2898 221.313 30.9015 221.935 30.625C222.556 30.3447 223.257 30.2045 224.037 30.2045C224.825 30.2045 225.52 30.3428 226.122 30.6193C226.728 30.8958 227.205 31.2765 227.554 31.7614C227.902 32.2424 228.084 32.7955 228.099 33.4205H226.406ZM233.487 36.1818C233.487 37.6098 233.3 38.9223 232.925 40.1193C232.55 41.3163 232.002 42.4205 231.283 43.4318H229.726C230.006 43.0568 230.268 42.5966 230.51 42.0511C230.752 41.5057 230.964 40.9091 231.146 40.2614C231.328 39.6098 231.47 38.9356 231.572 38.2386C231.675 37.5417 231.726 36.8561 231.726 36.1818C231.726 35.2841 231.637 34.3731 231.459 33.4489C231.281 32.5246 231.04 31.6667 230.737 30.875C230.434 30.0833 230.097 29.4375 229.726 28.9375H231.283C232.002 29.9489 232.55 31.053 232.925 32.25C233.3 33.447 233.487 34.7576 233.487 36.1818Z" fill="#AFAAC7"/>
<path fill-rule="evenodd" clip-rule="evenodd" d="M262 36C262 38.1217 261.157 40.1566 259.657 41.6569C258.157 43.1571 256.122 44 254 44C251.878 44 249.843 43.1571 248.343 41.6569C246.843 40.1566 246 38.1217 246 36C246 33.8783 246.843 31.8434 248.343 30.3431C249.843 28.8429 251.878 28 254 28C256.122 28 258.157 28.8429 259.657 30.3431C261.157 31.8434 262 33.8783 262 36ZM255 32C255 32.2652 254.895 32.5196 254.707 32.7071C254.52 32.8946 254.265 33 254 33C253.735 33 253.48 32.8946 253.293 32.7071C253.105 32.5196 253 32.2652 253 32C253 31.7348 253.105 31.4804 253.293 31.2929C253.48 31.1054 253.735 31 254 31C254.265 31 254.52 31.1054 254.707 31.2929C254.895 31.4804 255 31.7348 255 32ZM253 35C252.801 35 252.61 35.079 252.47 35.2197C252.329 35.3603 252.25 35.5511 252.25 35.75C252.25 35.9489 252.329 36.1397 252.47 36.2803C252.61 36.421 252.801 36.5 253 36.5H253.253C253.29 36.5 253.327 36.5084 253.361 36.5246C253.395 36.5408 253.424 36.5643 253.448 36.5935C253.471 36.6227 253.488 36.6567 253.496 36.6932C253.505 36.7296 253.505 36.7675 253.497 36.804L253.038 38.87C252.981 39.1259 252.982 39.3913 253.042 39.6466C253.101 39.902 253.217 40.1407 253.381 40.3452C253.545 40.5496 253.753 40.7146 253.99 40.828C254.226 40.9413 254.485 41.0001 254.747 41H255C255.199 41 255.39 40.921 255.53 40.7803C255.671 40.6397 255.75 40.4489 255.75 40.25C255.75 40.0511 255.671 39.8603 255.53 39.7197C255.39 39.579 255.199 39.5 255 39.5H254.747C254.71 39.5 254.673 39.4916 254.639 39.4754C254.605 39.4592 254.576 39.4357 254.552 39.4065C254.529 39.3773 254.512 39.3433 254.504 39.3068C254.495 39.2704 254.495 39.2325 254.503 39.196L254.962 37.13C255.019 36.8741 255.018 36.6087 254.958 36.3534C254.899 36.098 254.783 35.8593 254.619 35.6548C254.455 35.4504 254.247 35.2854 254.01 35.172C253.774 35.0587 253.515 34.9999 253.253 35H253Z" fill="#AFAAC7"/>
<path d="M217.661 141.505C230.361 191.489 200.136 242.305 150.151 255.005C100.167 267.705 49.3514 237.48 36.6515 187.495C23.9516 137.511 54.1766 86.6952 104.161 73.9952C154.145 61.2953 204.961 91.5203 217.661 141.505ZM86.4291 174.848C92.1441 197.341 115.011 210.942 137.504 205.227C159.997 199.512 173.598 176.645 167.883 154.152C162.168 131.659 139.301 118.058 116.808 123.773C94.3154 129.488 80.7141 152.355 86.4291 174.848Z" fill="#1BD598"/>
<path d="M128.367 71.1276C149.969 71.4082 170.806 79.1703 187.326 93.0915C203.847 107.013 215.03 126.232 218.969 147.473C222.908 168.715 219.36 190.666 208.929 209.585C198.499 228.504 181.831 243.221 161.766 251.229C141.7 259.237 119.48 260.039 98.8889 253.5C78.2983 246.961 60.6121 233.484 48.8439 215.367C37.0756 197.249 31.9534 175.612 34.3499 154.141C36.7465 132.67 46.5137 112.695 61.9871 97.6183L99.8054 134.403C92.8424 141.188 86.4706 150.177 85.3922 159.839C84.3137 169.5 86.6187 179.237 91.9144 187.39C97.2101 195.543 105.169 201.607 114.435 204.55C123.7 207.493 133.7 207.132 142.729 203.528C151.759 199.925 159.259 193.302 163.953 184.788C168.647 176.275 170.243 166.397 168.471 156.838C166.698 147.279 161.666 138.631 154.231 132.366C146.797 126.102 137.421 122.609 127.7 122.482L128.367 71.1276Z" fill="#FFB17B"/>
<path d="M128.369 71.1275C146.421 71.362 164.018 76.8243 179.03 86.8533C194.042 96.8823 205.824 111.048 212.952 127.635C220.079 144.222 222.245 162.52 219.188 180.313C216.131 198.106 207.981 214.631 195.726 227.888C183.471 241.145 167.636 250.565 150.138 255.008C132.639 259.451 114.228 258.727 97.133 252.922C80.0379 247.118 64.992 236.482 53.8166 222.303C42.6413 208.124 35.8158 191.009 34.1664 173.031L85.3108 168.339C86.053 176.429 89.1245 184.131 94.1534 190.511C99.1823 196.892 105.953 201.678 113.646 204.29C121.339 206.902 129.624 207.228 137.498 205.229C145.372 203.229 152.498 198.99 158.013 193.025C163.528 187.059 167.195 179.623 168.571 171.616C169.946 163.609 168.971 155.375 165.764 147.911C162.557 140.447 157.255 134.072 150.499 129.559C143.744 125.046 135.825 122.588 127.702 122.482L128.369 71.1275Z" fill="#DA384E"/>
<path d="M128.369 71.1275C152.447 71.4402 175.473 81.0421 192.64 97.9282C209.807 114.814 219.787 137.679 220.496 161.749C221.206 185.818 212.59 209.231 196.447 227.099C180.305 244.967 157.884 255.909 133.867 257.639L130.176 206.412C140.984 205.634 151.073 200.71 158.337 192.67C165.601 184.629 169.478 174.093 169.159 163.262C168.84 152.431 164.349 142.141 156.624 134.543C148.899 126.944 138.537 122.623 127.702 122.482L128.369 71.1275Z" fill="#1BD598"/>
<path d="M53.9336 142.34V137.14H54.721V141.716H57.0831V142.34H53.9336ZM59.1487 142.429C58.8367 142.429 58.5792 142.377 58.3762 142.273C58.1732 142.169 58.0221 142.033 57.9231 141.865C57.8241 141.691 57.7745 141.503 57.7745 141.3C57.7745 140.944 57.9132 140.661 58.1905 140.453C58.4678 140.245 58.864 140.141 59.379 140.141H60.3446V140.075C60.3446 139.787 60.2654 139.572 60.1069 139.428C59.9534 139.285 59.7529 139.213 59.5053 139.213C59.2874 139.213 59.0967 139.267 58.9333 139.376C58.7748 139.48 58.6783 139.636 58.6436 139.844H57.8563C57.881 139.577 57.9701 139.349 58.1237 139.161C58.2821 138.968 58.4802 138.822 58.7179 138.723C58.9605 138.619 59.2255 138.567 59.5127 138.567C60.0277 138.567 60.4263 138.703 60.7086 138.975C60.9909 139.243 61.132 139.609 61.132 140.075V142.34H60.4486L60.3818 141.709C60.2778 141.912 60.1267 142.083 59.9287 142.221C59.7306 142.36 59.4706 142.429 59.1487 142.429ZM59.3047 141.79C59.5176 141.79 59.6959 141.741 59.8395 141.642C59.9881 141.538 60.102 141.402 60.1812 141.233C60.2654 141.065 60.3174 140.879 60.3372 140.676H59.4607C59.1487 140.676 58.9259 140.731 58.7922 140.84C58.6634 140.949 58.599 141.085 58.599 141.248C58.599 141.417 58.6609 141.55 58.7847 141.649C58.9135 141.743 59.0868 141.79 59.3047 141.79ZM64.1225 142.429C63.8352 142.429 63.5802 142.372 63.3574 142.258C63.1395 142.144 62.9662 141.984 62.8374 141.776L62.7557 142.34H62.05V136.992H62.8374V139.228C62.9563 139.054 63.1197 138.901 63.3277 138.767C63.5356 138.634 63.803 138.567 64.1299 138.567C64.4864 138.567 64.8009 138.651 65.0732 138.819C65.3456 138.988 65.5585 139.218 65.712 139.51C65.8705 139.802 65.9497 140.134 65.9497 140.505C65.9497 140.877 65.8705 141.209 65.712 141.501C65.5585 141.788 65.3456 142.016 65.0732 142.184C64.8009 142.348 64.4839 142.429 64.1225 142.429ZM63.9887 141.746C64.3255 141.746 64.6028 141.632 64.8207 141.404C65.0386 141.171 65.1475 140.869 65.1475 140.498C65.1475 140.255 65.098 140.04 64.999 139.852C64.8999 139.664 64.7637 139.517 64.5904 139.413C64.4171 139.305 64.2165 139.25 63.9887 139.25C63.652 139.25 63.3747 139.366 63.1568 139.599C62.9439 139.832 62.8374 140.132 62.8374 140.498C62.8374 140.869 62.9439 141.171 63.1568 141.404C63.3747 141.632 63.652 141.746 63.9887 141.746ZM68.5246 142.429C68.1631 142.429 67.8413 142.35 67.559 142.192C67.2817 142.028 67.0638 141.803 66.9053 141.516C66.7469 141.228 66.6676 140.894 66.6676 140.513C66.6676 140.127 66.7444 139.787 66.8979 139.495C67.0564 139.203 67.2743 138.975 67.5516 138.812C67.8338 138.648 68.1607 138.567 68.5321 138.567C68.8936 138.567 69.208 138.648 69.4754 138.812C69.7428 138.97 69.9508 139.183 70.0994 139.451C70.2479 139.718 70.3222 140.013 70.3222 140.335C70.3222 140.384 70.3197 140.439 70.3148 140.498C70.3148 140.552 70.3123 140.614 70.3074 140.684H67.4401C67.4649 141.04 67.5813 141.313 67.7893 141.501C68.0022 141.684 68.2473 141.776 68.5246 141.776C68.7475 141.776 68.9332 141.726 69.0817 141.627C69.2352 141.523 69.3491 141.384 69.4234 141.211H70.2108C70.1117 141.558 69.9137 141.847 69.6165 142.08C69.3244 142.313 68.9604 142.429 68.5246 142.429ZM68.5246 139.213C68.2622 139.213 68.0294 139.292 67.8264 139.451C67.6234 139.604 67.4996 139.837 67.455 140.149H69.5348C69.52 139.862 69.4185 139.634 69.2303 139.465C69.0421 139.297 68.8069 139.213 68.5246 139.213ZM71.1392 142.34V136.992H71.9265V142.34H71.1392Z" fill="#FFEEE2"/>
<rect x="53.6715" y="144.871" width="18.5917" height="7.69327" rx="1.06114" fill="#7A65E2"/>
<rect x="53.6715" y="144.871" width="18.5917" height="7.69327" rx="1.06114" stroke="#7A65E2" stroke-width="0.53057"/>
<path d="M55.4728 151.217V147.037L54.6934 147.21V146.81L55.6659 146.389H56.0591V151.217H55.4728ZM59.2647 151.217V150.183H56.8161V149.734L59.1613 146.389H59.8372V149.672H60.5545V150.183H59.8372V151.217H59.2647ZM57.4576 149.672H59.2923V147.031L57.4576 149.672ZM61.4199 151.252C61.305 151.252 61.2084 151.215 61.1303 151.141C61.0567 151.063 61.0199 150.969 61.0199 150.859C61.0199 150.748 61.0567 150.656 61.1303 150.583C61.2084 150.505 61.305 150.465 61.4199 150.465C61.5303 150.465 61.6223 150.505 61.6958 150.583C61.774 150.656 61.8131 150.748 61.8131 150.859C61.8131 150.969 61.774 151.063 61.6958 151.141C61.6223 151.215 61.5303 151.252 61.4199 151.252ZM64.1309 151.3C63.7814 151.3 63.4871 151.236 63.248 151.107C63.0089 150.974 62.8158 150.797 62.6686 150.576C62.5261 150.355 62.4203 150.109 62.3514 149.838C62.287 149.562 62.2548 149.281 62.2548 148.996C62.2548 148.463 62.3284 147.996 62.4755 147.596C62.6227 147.191 62.8342 146.877 63.1101 146.651C63.3906 146.421 63.7285 146.306 64.124 146.306C64.4275 146.306 64.6873 146.366 64.9034 146.486C65.1195 146.605 65.2897 146.766 65.4138 146.968C65.5426 147.166 65.623 147.387 65.6552 147.631H65.1172C65.0666 147.369 64.954 147.166 64.7793 147.024C64.6045 146.881 64.3838 146.81 64.1171 146.81C63.7538 146.81 63.4481 146.982 63.1997 147.327C62.956 147.667 62.825 148.201 62.8066 148.927C62.917 148.711 63.0917 148.525 63.3308 148.369C63.5745 148.208 63.8665 148.127 64.2068 148.127C64.4827 148.127 64.7402 148.192 64.9793 148.32C65.223 148.449 65.4207 148.631 65.5725 148.865C65.7242 149.095 65.8001 149.366 65.8001 149.679C65.8001 149.95 65.7334 150.21 65.6 150.459C65.4667 150.707 65.2736 150.909 65.0207 151.066C64.7724 151.222 64.4758 151.3 64.1309 151.3ZM64.0895 150.79C64.3056 150.79 64.4988 150.744 64.6689 150.652C64.839 150.56 64.9724 150.433 65.0689 150.272C65.1655 150.107 65.2138 149.918 65.2138 149.707C65.2138 149.38 65.1057 149.12 64.8896 148.927C64.6781 148.73 64.4114 148.631 64.0895 148.631C63.8734 148.631 63.6803 148.681 63.5101 148.782C63.34 148.879 63.2043 149.01 63.1032 149.176C63.0066 149.341 62.9583 149.521 62.9583 149.714C62.9583 149.921 63.0066 150.107 63.1032 150.272C63.2043 150.433 63.34 150.56 63.5101 150.652C63.6803 150.744 63.8734 150.79 64.0895 150.79ZM67.4919 148.631C67.285 148.631 67.0964 148.585 66.9263 148.493C66.7608 148.396 66.6297 148.263 66.5331 148.093C66.4366 147.918 66.3883 147.711 66.3883 147.472C66.3883 147.233 66.4366 147.028 66.5331 146.858C66.6343 146.683 66.7676 146.55 66.9332 146.458C67.1033 146.362 67.2919 146.313 67.4988 146.313C67.7057 146.313 67.8919 146.362 68.0575 146.458C68.223 146.55 68.3541 146.683 68.4506 146.858C68.5472 147.028 68.5955 147.233 68.5955 147.472C68.5955 147.711 68.5449 147.918 68.4437 148.093C68.3472 148.263 68.2161 148.396 68.0506 148.493C67.885 148.585 67.6988 148.631 67.4919 148.631ZM67.0642 151.217L69.8715 146.389H70.4509L67.6436 151.217H67.0642ZM67.4919 148.182C67.6528 148.182 67.7931 148.123 67.9126 148.003C68.0368 147.884 68.0988 147.707 68.0988 147.472C68.0988 147.233 68.0391 147.054 67.9195 146.934C67.8 146.81 67.6597 146.748 67.4988 146.748C67.3378 146.748 67.193 146.81 67.0642 146.934C66.9401 147.054 66.878 147.233 66.878 147.472C66.878 147.707 66.9401 147.884 67.0642 148.003C67.1884 148.123 67.3309 148.182 67.4919 148.182ZM70.0715 151.3C69.8646 151.3 69.6761 151.254 69.5059 151.162C69.3404 151.066 69.2093 150.932 69.1128 150.762C69.0162 150.587 68.9679 150.38 68.9679 150.141C68.9679 149.902 69.0162 149.698 69.1128 149.527C69.2139 149.353 69.3473 149.219 69.5128 149.127C69.6784 149.031 69.8646 148.983 70.0715 148.983C70.2784 148.983 70.4647 149.031 70.6302 149.127C70.7957 149.219 70.9268 149.353 71.0234 149.527C71.1199 149.698 71.1682 149.902 71.1682 150.141C71.1682 150.38 71.1199 150.587 71.0234 150.762C70.9268 150.932 70.7957 151.066 70.6302 151.162C70.4647 151.254 70.2784 151.3 70.0715 151.3ZM70.0646 150.852C70.2302 150.852 70.3727 150.792 70.4923 150.672C70.6164 150.553 70.6785 150.376 70.6785 150.141C70.6785 149.902 70.6187 149.723 70.4991 149.603C70.3796 149.484 70.237 149.424 70.0715 149.424C69.9106 149.424 69.768 149.484 69.6439 149.603C69.5197 149.723 69.4576 149.902 69.4576 150.141C69.4576 150.376 69.5174 150.553 69.637 150.672C69.7611 150.792 69.9037 150.852 70.0646 150.852Z" fill="white"/>
<path d="M75.7344 213.437V208.237H76.5218V212.813H78.8839V213.437H75.7344ZM80.9495 213.526C80.6375 213.526 80.38 213.474 80.177 213.37C79.974 213.266 79.8229 213.13 79.7239 212.961C79.6248 212.788 79.5753 212.6 79.5753 212.397C79.5753 212.04 79.714 211.758 79.9913 211.55C80.2686 211.342 80.6648 211.238 81.1798 211.238H82.1454V211.171C82.1454 210.884 82.0662 210.668 81.9077 210.525C81.7542 210.381 81.5536 210.309 81.306 210.309C81.0882 210.309 80.8975 210.364 80.7341 210.473C80.5756 210.577 80.4791 210.733 80.4444 210.941H79.657C79.6818 210.673 79.7709 210.446 79.9244 210.257C80.0829 210.064 80.281 209.918 80.5187 209.819C80.7613 209.715 81.0263 209.663 81.3135 209.663C81.8285 209.663 82.2271 209.799 82.5094 210.072C82.7916 210.339 82.9328 210.706 82.9328 211.171V213.437H82.2494L82.1825 212.805C82.0786 213.008 81.9275 213.179 81.7294 213.318C81.5314 213.456 81.2714 213.526 80.9495 213.526ZM81.1055 212.887C81.3184 212.887 81.4967 212.837 81.6403 212.738C81.7889 212.634 81.9028 212.498 81.982 212.33C82.0662 212.161 82.1182 211.976 82.138 211.773H81.2615C80.9495 211.773 80.7267 211.827 80.593 211.936C80.4642 212.045 80.3998 212.181 80.3998 212.345C80.3998 212.513 80.4617 212.647 80.5855 212.746C80.7143 212.84 80.8876 212.887 81.1055 212.887ZM85.9232 213.526C85.636 213.526 85.381 213.469 85.1582 213.355C84.9403 213.241 84.7669 213.08 84.6382 212.872L84.5565 213.437H83.8508V208.088H84.6382V210.324C84.757 210.151 84.9205 209.997 85.1284 209.864C85.3364 209.73 85.6038 209.663 85.9307 209.663C86.2872 209.663 86.6017 209.747 86.874 209.916C87.1464 210.084 87.3593 210.314 87.5128 210.606C87.6713 210.899 87.7505 211.23 87.7505 211.602C87.7505 211.973 87.6713 212.305 87.5128 212.597C87.3593 212.884 87.1464 213.112 86.874 213.281C86.6017 213.444 86.2847 213.526 85.9232 213.526ZM85.7895 212.842C86.1263 212.842 86.4036 212.728 86.6215 212.501C86.8394 212.268 86.9483 211.966 86.9483 211.594C86.9483 211.352 86.8988 211.136 86.7997 210.948C86.7007 210.76 86.5645 210.614 86.3912 210.51C86.2179 210.401 86.0173 210.346 85.7895 210.346C85.4528 210.346 85.1755 210.463 84.9576 210.696C84.7447 210.928 84.6382 211.228 84.6382 211.594C84.6382 211.966 84.7447 212.268 84.9576 212.501C85.1755 212.728 85.4528 212.842 85.7895 212.842ZM90.3254 213.526C89.9639 213.526 89.642 213.446 89.3598 213.288C89.0825 213.125 88.8646 212.899 88.7061 212.612C88.5477 212.325 88.4684 211.991 88.4684 211.609C88.4684 211.223 88.5452 210.884 88.6987 210.592C88.8572 210.299 89.075 210.072 89.3523 209.908C89.6346 209.745 89.9614 209.663 90.3328 209.663C90.6943 209.663 91.0088 209.745 91.2762 209.908C91.5436 210.067 91.7516 210.28 91.9001 210.547C92.0487 210.814 92.123 211.109 92.123 211.431C92.123 211.48 92.1205 211.535 92.1156 211.594C92.1156 211.649 92.1131 211.711 92.1081 211.78H89.2409C89.2657 212.137 89.3821 212.409 89.59 212.597C89.803 212.78 90.0481 212.872 90.3254 212.872C90.5483 212.872 90.734 212.822 90.8825 212.723C91.036 212.619 91.1499 212.481 91.2242 212.307H92.0116C91.9125 212.654 91.7144 212.944 91.4173 213.177C91.1252 213.409 90.7612 213.526 90.3254 213.526ZM90.3254 210.309C90.063 210.309 89.8302 210.389 89.6272 210.547C89.4242 210.701 89.3004 210.933 89.2558 211.245H91.3356C91.3208 210.958 91.2192 210.73 91.0311 210.562C90.8429 210.394 90.6077 210.309 90.3254 210.309ZM92.9399 213.437V208.088H93.7273V213.437H92.9399Z" fill="#F9D2D7"/>
<rect x="75.207" y="215.702" width="21.1223" height="8.22384" rx="1.32643" fill="#ECE9FF"/>
<path d="M76.8866 222.314V221.907C77.213 221.649 77.5211 221.389 77.8108 221.127C78.1051 220.861 78.3649 220.599 78.5902 220.341C78.8201 220.084 78.9995 219.831 79.1282 219.582C79.2616 219.334 79.3282 219.095 79.3282 218.865C79.3282 218.695 79.2984 218.536 79.2386 218.389C79.1834 218.242 79.0914 218.125 78.9627 218.037C78.8339 217.945 78.6592 217.899 78.4385 217.899C78.227 217.899 78.0499 217.948 77.9074 218.044C77.7648 218.136 77.6568 218.26 77.5832 218.417C77.5142 218.573 77.4797 218.741 77.4797 218.92H76.9211C76.9211 218.603 76.9877 218.332 77.1211 218.106C77.2544 217.876 77.4361 217.702 77.666 217.582C77.8959 217.463 78.1557 217.403 78.4454 217.403C78.873 217.403 79.2225 217.525 79.4938 217.768C79.7697 218.007 79.9076 218.366 79.9076 218.844C79.9076 219.129 79.8364 219.412 79.6938 219.693C79.5513 219.969 79.3696 220.238 79.1489 220.5C78.9282 220.757 78.6914 220.999 78.4385 221.224C78.1902 221.449 77.958 221.652 77.7418 221.831H80.0732V222.314H76.8866ZM82.9816 222.314V221.279H80.533V220.831L82.8781 217.486H83.554V220.769H84.2714V221.279H83.554V222.314H82.9816ZM81.1744 220.769H83.0092V218.127L81.1744 220.769ZM85.1368 222.348C85.0218 222.348 84.9253 222.311 84.8471 222.238C84.7735 222.16 84.7367 222.065 84.7367 221.955C84.7367 221.845 84.7735 221.753 84.8471 221.679C84.9253 221.601 85.0218 221.562 85.1368 221.562C85.2471 221.562 85.3391 221.601 85.4127 221.679C85.4909 221.753 85.5299 221.845 85.5299 221.955C85.5299 222.065 85.4909 222.16 85.4127 222.238C85.3391 222.311 85.2471 222.348 85.1368 222.348ZM87.822 222.396C87.514 222.396 87.2358 222.341 86.9874 222.231C86.7391 222.116 86.5391 221.946 86.3874 221.721C86.2402 221.495 86.1621 221.215 86.1529 220.879H86.7391C86.7437 221.155 86.8403 221.394 87.0288 221.596C87.2174 221.794 87.4818 221.893 87.822 221.893C88.1623 221.893 88.4175 221.799 88.5876 221.61C88.7624 221.422 88.8498 221.194 88.8498 220.927C88.8498 220.702 88.7946 220.518 88.6842 220.376C88.5785 220.233 88.4336 220.127 88.2497 220.058C88.0703 219.989 87.8726 219.955 87.6565 219.955H87.2978V219.465H87.6565C87.9692 219.465 88.2129 219.394 88.3876 219.251C88.567 219.109 88.6566 218.909 88.6566 218.651C88.6566 218.435 88.5854 218.258 88.4428 218.12C88.3049 217.978 88.0979 217.906 87.822 217.906C87.5553 217.906 87.3415 217.987 87.1806 218.148C87.0196 218.304 86.93 218.502 86.9116 218.741H86.3253C86.3391 218.479 86.4081 218.247 86.5322 218.044C86.661 217.842 86.8357 217.686 87.0564 217.575C87.2771 217.46 87.5323 217.403 87.822 217.403C88.1347 217.403 88.3945 217.458 88.6014 217.568C88.813 217.679 88.9716 217.826 89.0774 218.01C89.1877 218.194 89.2429 218.396 89.2429 218.617C89.2429 218.86 89.1762 219.083 89.0429 219.286C88.9095 219.483 88.7095 219.617 88.4428 219.686C88.7279 219.746 88.9647 219.881 89.1532 220.093C89.3418 220.304 89.436 220.582 89.436 220.927C89.436 221.194 89.374 221.44 89.2498 221.665C89.1302 221.886 88.9509 222.063 88.7118 222.196C88.4727 222.33 88.1761 222.396 87.822 222.396ZM91.1279 219.727C90.921 219.727 90.7324 219.681 90.5623 219.589C90.3968 219.493 90.2657 219.359 90.1692 219.189C90.0726 219.014 90.0243 218.808 90.0243 218.568C90.0243 218.329 90.0726 218.125 90.1692 217.955C90.2703 217.78 90.4037 217.646 90.5692 217.555C90.7393 217.458 90.9279 217.41 91.1348 217.41C91.3417 217.41 91.5279 217.458 91.6935 217.555C91.859 217.646 91.9901 217.78 92.0866 217.955C92.1832 218.125 92.2315 218.329 92.2315 218.568C92.2315 218.808 92.1809 219.014 92.0797 219.189C91.9832 219.359 91.8521 219.493 91.6866 219.589C91.521 219.681 91.3348 219.727 91.1279 219.727ZM90.7003 222.314L93.5075 217.486H94.0869L91.2796 222.314H90.7003ZM91.1279 219.279C91.2888 219.279 91.4291 219.219 91.5486 219.1C91.6728 218.98 91.7349 218.803 91.7349 218.568C91.7349 218.329 91.6751 218.15 91.5555 218.03C91.436 217.906 91.2957 217.844 91.1348 217.844C90.9738 217.844 90.829 217.906 90.7003 218.03C90.5761 218.15 90.514 218.329 90.514 218.568C90.514 218.803 90.5761 218.98 90.7003 219.1C90.8244 219.219 90.967 219.279 91.1279 219.279ZM93.7075 222.396C93.5006 222.396 93.3121 222.351 93.1419 222.259C92.9764 222.162 92.8453 222.029 92.7488 221.858C92.6522 221.684 92.6039 221.477 92.6039 221.238C92.6039 220.999 92.6522 220.794 92.7488 220.624C92.8499 220.449 92.9833 220.316 93.1488 220.224C93.3144 220.127 93.5006 220.079 93.7075 220.079C93.9144 220.079 94.1007 220.127 94.2662 220.224C94.4318 220.316 94.5628 220.449 94.6594 220.624C94.7559 220.794 94.8042 220.999 94.8042 221.238C94.8042 221.477 94.7559 221.684 94.6594 221.858C94.5628 222.029 94.4318 222.162 94.2662 222.259C94.1007 222.351 93.9144 222.396 93.7075 222.396ZM93.7006 221.948C93.8662 221.948 94.0087 221.888 94.1283 221.769C94.2524 221.649 94.3145 221.472 94.3145 221.238C94.3145 220.999 94.2547 220.819 94.1352 220.7C94.0156 220.58 93.8731 220.52 93.7075 220.52C93.5466 220.52 93.404 220.58 93.2799 220.7C93.1557 220.819 93.0937 220.999 93.0937 221.238C93.0937 221.472 93.1534 221.649 93.273 221.769C93.3971 221.888 93.5397 221.948 93.7006 221.948Z" fill="#5D45DB"/>
<path d="M176.939 131.908V126.709H177.727V131.284H180.089V131.908H176.939ZM182.155 131.997C181.843 131.997 181.585 131.945 181.382 131.841C181.179 131.737 181.028 131.601 180.929 131.433C180.83 131.259 180.78 131.071 180.78 130.868C180.78 130.512 180.919 130.229 181.196 130.021C181.474 129.814 181.87 129.71 182.385 129.71H183.35V129.643C183.35 129.355 183.271 129.14 183.113 128.996C182.959 128.853 182.759 128.781 182.511 128.781C182.293 128.781 182.103 128.835 181.939 128.944C181.781 129.048 181.684 129.204 181.649 129.412H180.862C180.887 129.145 180.976 128.917 181.13 128.729C181.288 128.536 181.486 128.39 181.724 128.291C181.966 128.187 182.231 128.135 182.519 128.135C183.034 128.135 183.432 128.271 183.714 128.543C183.997 128.811 184.138 129.177 184.138 129.643V131.908H183.454L183.388 131.277C183.284 131.48 183.133 131.651 182.935 131.789C182.736 131.928 182.476 131.997 182.155 131.997ZM182.311 131.359C182.524 131.359 182.702 131.309 182.845 131.21C182.994 131.106 183.108 130.97 183.187 130.801C183.271 130.633 183.323 130.447 183.343 130.244H182.467C182.155 130.244 181.932 130.299 181.798 130.408C181.669 130.517 181.605 130.653 181.605 130.816C181.605 130.985 181.667 131.118 181.791 131.217C181.919 131.311 182.093 131.359 182.311 131.359ZM187.128 131.997C186.841 131.997 186.586 131.94 186.363 131.826C186.145 131.713 185.972 131.552 185.843 131.344L185.762 131.908H185.056V126.56H185.843V128.796C185.962 128.623 186.126 128.469 186.334 128.335C186.542 128.202 186.809 128.135 187.136 128.135C187.492 128.135 187.807 128.219 188.079 128.387C188.351 128.556 188.564 128.786 188.718 129.078C188.876 129.37 188.956 129.702 188.956 130.073C188.956 130.445 188.876 130.777 188.718 131.069C188.564 131.356 188.351 131.584 188.079 131.752C187.807 131.916 187.49 131.997 187.128 131.997ZM186.995 131.314C187.331 131.314 187.609 131.2 187.827 130.972C188.044 130.74 188.153 130.437 188.153 130.066C188.153 129.823 188.104 129.608 188.005 129.42C187.906 129.232 187.77 129.086 187.596 128.982C187.423 128.873 187.222 128.818 186.995 128.818C186.658 128.818 186.381 128.935 186.163 129.167C185.95 129.4 185.843 129.7 185.843 130.066C185.843 130.437 185.95 130.74 186.163 130.972C186.381 131.2 186.658 131.314 186.995 131.314ZM191.53 131.997C191.169 131.997 190.847 131.918 190.565 131.76C190.288 131.596 190.07 131.371 189.911 131.084C189.753 130.796 189.673 130.462 189.673 130.081C189.673 129.695 189.75 129.355 189.904 129.063C190.062 128.771 190.28 128.543 190.557 128.38C190.84 128.216 191.167 128.135 191.538 128.135C191.899 128.135 192.214 128.216 192.481 128.38C192.749 128.538 192.957 128.751 193.105 129.019C193.254 129.286 193.328 129.581 193.328 129.903C193.328 129.952 193.326 130.007 193.321 130.066C193.321 130.121 193.318 130.182 193.313 130.252H190.446C190.471 130.608 190.587 130.881 190.795 131.069C191.008 131.252 191.253 131.344 191.53 131.344C191.753 131.344 191.939 131.294 192.088 131.195C192.241 131.091 192.355 130.952 192.429 130.779H193.217C193.118 131.126 192.92 131.415 192.622 131.648C192.33 131.881 191.966 131.997 191.53 131.997ZM191.53 128.781C191.268 128.781 191.035 128.86 190.832 129.019C190.629 129.172 190.505 129.405 190.461 129.717H192.541C192.526 129.43 192.424 129.202 192.236 129.034C192.048 128.865 191.813 128.781 191.53 128.781ZM194.145 131.908V126.56H194.932V131.908H194.145Z" fill="#AEFFE4"/>
<rect x="176.412" y="134.174" width="22.1223" height="8.22384" rx="1.32643" fill="#ECE9FF"/>
<path d="M180.531 140.785V139.751H178.082V139.302L180.427 135.957H181.103V139.24H181.82V139.751H181.103V140.785H180.531ZM178.724 139.24H180.558V136.599L178.724 139.24ZM184.114 140.868C183.796 140.868 183.511 140.811 183.258 140.696C183.005 140.576 182.805 140.413 182.658 140.206C182.516 139.994 182.444 139.751 182.444 139.475C182.444 139.181 182.53 138.916 182.7 138.682C182.874 138.447 183.104 138.291 183.389 138.213C183.127 138.125 182.925 137.985 182.782 137.792C182.64 137.599 182.569 137.387 182.569 137.157C182.569 136.923 182.631 136.709 182.755 136.516C182.879 136.318 183.056 136.162 183.286 136.047C183.516 135.932 183.792 135.874 184.114 135.874C184.436 135.874 184.711 135.932 184.941 136.047C185.171 136.162 185.348 136.318 185.472 136.516C185.597 136.709 185.659 136.923 185.659 137.157C185.659 137.383 185.587 137.594 185.445 137.792C185.302 137.985 185.1 138.125 184.838 138.213C185.123 138.291 185.351 138.447 185.521 138.682C185.695 138.916 185.783 139.181 185.783 139.475C185.783 139.751 185.709 139.994 185.562 140.206C185.42 140.413 185.222 140.576 184.969 140.696C184.716 140.811 184.431 140.868 184.114 140.868ZM184.114 138.006C184.408 138.006 184.64 137.932 184.81 137.785C184.985 137.633 185.072 137.436 185.072 137.192C185.072 136.921 184.987 136.716 184.817 136.578C184.647 136.44 184.413 136.371 184.114 136.371C183.815 136.371 183.58 136.44 183.41 136.578C183.245 136.716 183.162 136.921 183.162 137.192C183.162 137.436 183.247 137.633 183.417 137.785C183.587 137.932 183.819 138.006 184.114 138.006ZM184.114 140.358C184.477 140.358 184.748 140.275 184.928 140.109C185.111 139.939 185.203 139.716 185.203 139.44C185.203 139.128 185.105 138.891 184.907 138.73C184.709 138.569 184.445 138.489 184.114 138.489C183.783 138.489 183.518 138.569 183.32 138.73C183.123 138.891 183.024 139.128 183.024 139.44C183.024 139.716 183.114 139.939 183.293 140.109C183.477 140.275 183.75 140.358 184.114 140.358ZM186.896 140.82C186.781 140.82 186.684 140.783 186.606 140.71C186.532 140.631 186.496 140.537 186.496 140.427C186.496 140.316 186.532 140.224 186.606 140.151C186.684 140.073 186.781 140.034 186.896 140.034C187.006 140.034 187.098 140.073 187.172 140.151C187.25 140.224 187.289 140.316 187.289 140.427C187.289 140.537 187.25 140.631 187.172 140.71C187.098 140.783 187.006 140.82 186.896 140.82ZM189.671 140.868C189.353 140.868 189.068 140.811 188.815 140.696C188.562 140.576 188.362 140.413 188.215 140.206C188.073 139.994 188.001 139.751 188.001 139.475C188.001 139.181 188.087 138.916 188.257 138.682C188.431 138.447 188.661 138.291 188.946 138.213C188.684 138.125 188.482 137.985 188.339 137.792C188.197 137.599 188.126 137.387 188.126 137.157C188.126 136.923 188.188 136.709 188.312 136.516C188.436 136.318 188.613 136.162 188.843 136.047C189.073 135.932 189.349 135.874 189.671 135.874C189.993 135.874 190.268 135.932 190.498 136.047C190.728 136.162 190.905 136.318 191.029 136.516C191.154 136.709 191.216 136.923 191.216 137.157C191.216 137.383 191.144 137.594 191.002 137.792C190.859 137.985 190.657 138.125 190.395 138.213C190.68 138.291 190.908 138.447 191.078 138.682C191.252 138.916 191.34 139.181 191.34 139.475C191.34 139.751 191.266 139.994 191.119 140.206C190.977 140.413 190.779 140.576 190.526 140.696C190.273 140.811 189.988 140.868 189.671 140.868ZM189.671 138.006C189.965 138.006 190.197 137.932 190.367 137.785C190.542 137.633 190.629 137.436 190.629 137.192C190.629 136.921 190.544 136.716 190.374 136.578C190.204 136.44 189.97 136.371 189.671 136.371C189.372 136.371 189.137 136.44 188.967 136.578C188.802 136.716 188.719 136.921 188.719 137.192C188.719 137.436 188.804 137.633 188.974 137.785C189.144 137.932 189.376 138.006 189.671 138.006ZM189.671 140.358C190.034 140.358 190.305 140.275 190.485 140.109C190.668 139.939 190.76 139.716 190.76 139.44C190.76 139.128 190.662 138.891 190.464 138.73C190.266 138.569 190.002 138.489 189.671 138.489C189.34 138.489 189.075 138.569 188.877 138.73C188.68 138.891 188.581 139.128 188.581 139.44C188.581 139.716 188.671 139.939 188.85 140.109C189.034 140.275 189.307 140.358 189.671 140.358ZM193.156 138.199C192.949 138.199 192.761 138.153 192.591 138.061C192.425 137.964 192.294 137.831 192.198 137.661C192.101 137.486 192.053 137.279 192.053 137.04C192.053 136.801 192.101 136.596 192.198 136.426C192.299 136.252 192.432 136.118 192.598 136.026C192.768 135.93 192.956 135.881 193.163 135.881C193.37 135.881 193.556 135.93 193.722 136.026C193.887 136.118 194.018 136.252 194.115 136.426C194.212 136.596 194.26 136.801 194.26 137.04C194.26 137.279 194.209 137.486 194.108 137.661C194.012 137.831 193.881 137.964 193.715 138.061C193.549 138.153 193.363 138.199 193.156 138.199ZM192.729 140.785L195.536 135.957H196.115L193.308 140.785H192.729ZM193.156 137.751C193.317 137.751 193.457 137.691 193.577 137.571C193.701 137.452 193.763 137.275 193.763 137.04C193.763 136.801 193.703 136.622 193.584 136.502C193.464 136.378 193.324 136.316 193.163 136.316C193.002 136.316 192.857 136.378 192.729 136.502C192.604 136.622 192.542 136.801 192.542 137.04C192.542 137.275 192.604 137.452 192.729 137.571C192.853 137.691 192.995 137.751 193.156 137.751ZM195.736 140.868C195.529 140.868 195.34 140.822 195.17 140.73C195.005 140.634 194.874 140.5 194.777 140.33C194.681 140.155 194.632 139.949 194.632 139.709C194.632 139.47 194.681 139.266 194.777 139.096C194.878 138.921 195.012 138.787 195.177 138.695C195.343 138.599 195.529 138.551 195.736 138.551C195.943 138.551 196.129 138.599 196.295 138.695C196.46 138.787 196.591 138.921 196.688 139.096C196.784 139.266 196.833 139.47 196.833 139.709C196.833 139.949 196.784 140.155 196.688 140.33C196.591 140.5 196.46 140.634 196.295 140.73C196.129 140.822 195.943 140.868 195.736 140.868ZM195.729 140.42C195.895 140.42 196.037 140.36 196.157 140.241C196.281 140.121 196.343 139.944 196.343 139.709C196.343 139.47 196.283 139.291 196.164 139.171C196.044 139.052 195.901 138.992 195.736 138.992C195.575 138.992 195.432 139.052 195.308 139.171C195.184 139.291 195.122 139.47 195.122 139.709C195.122 139.944 195.182 140.121 195.301 140.241C195.426 140.36 195.568 140.42 195.729 140.42Z" fill="#5D45DB"/>
<rect x="240.656" y="114.5" width="12" height="12" rx="2" fill="#1BD598"/>
<path d="M261.889 125.5V115.318H263.122V124.406H267.855V125.5H261.889ZM272.707 125.659C272.018 125.659 271.413 125.495 270.893 125.167C270.376 124.839 269.971 124.38 269.68 123.79C269.391 123.2 269.247 122.51 269.247 121.722C269.247 120.926 269.391 120.232 269.68 119.638C269.971 119.045 270.376 118.585 270.893 118.256C271.413 117.928 272.018 117.764 272.707 117.764C273.397 117.764 274 117.928 274.517 118.256C275.037 118.585 275.442 119.045 275.73 119.638C276.022 120.232 276.168 120.926 276.168 121.722C276.168 122.51 276.022 123.2 275.73 123.79C275.442 124.38 275.037 124.839 274.517 125.167C274 125.495 273.397 125.659 272.707 125.659ZM272.707 124.605C273.231 124.605 273.662 124.471 274 124.202C274.338 123.934 274.588 123.581 274.751 123.143C274.913 122.706 274.994 122.232 274.994 121.722C274.994 121.211 274.913 120.736 274.751 120.295C274.588 119.854 274.338 119.498 274 119.226C273.662 118.954 273.231 118.818 272.707 118.818C272.184 118.818 271.753 118.954 271.415 119.226C271.077 119.498 270.826 119.854 270.664 120.295C270.502 120.736 270.42 121.211 270.42 121.722C270.42 122.232 270.502 122.706 270.664 123.143C270.826 123.581 271.077 123.934 271.415 124.202C271.753 124.471 272.184 124.605 272.707 124.605ZM279.429 125.5L277.102 117.864H278.335L279.986 123.71H280.065L281.696 117.864H282.949L284.56 123.69H284.639L286.29 117.864H287.523L285.196 125.5H284.043L282.372 119.634H282.253L280.582 125.5H279.429ZM293.17 125.5V115.318H299.315V116.412H294.403V119.852H298.997V120.946H294.403V124.406H299.395V125.5H293.17ZM304.779 117.864V118.858H300.663V117.864H304.779ZM301.896 125.5V116.81C301.896 116.372 301.998 116.008 302.204 115.716C302.409 115.424 302.676 115.205 303.004 115.06C303.332 114.914 303.679 114.841 304.043 114.841C304.332 114.841 304.567 114.864 304.749 114.911C304.932 114.957 305.067 115 305.157 115.04L304.819 116.054C304.759 116.034 304.676 116.009 304.57 115.979C304.468 115.95 304.332 115.935 304.163 115.935C303.775 115.935 303.495 116.032 303.322 116.228C303.153 116.424 303.069 116.71 303.069 117.088V125.5H301.896ZM309.824 117.864V118.858H305.708V117.864H309.824ZM306.941 125.5V116.81C306.941 116.372 307.043 116.008 307.249 115.716C307.454 115.424 307.721 115.205 308.049 115.06C308.377 114.914 308.724 114.841 309.088 114.841C309.377 114.841 309.612 114.864 309.794 114.911C309.977 114.957 310.112 115 310.202 115.04L309.864 116.054C309.804 116.034 309.721 116.009 309.615 115.979C309.512 115.95 309.377 115.935 309.208 115.935C308.82 115.935 308.54 116.032 308.367 116.228C308.198 116.424 308.114 116.71 308.114 117.088V125.5H306.941ZM314.256 125.659C313.567 125.659 312.962 125.495 312.442 125.167C311.925 124.839 311.52 124.38 311.229 123.79C310.94 123.2 310.796 122.51 310.796 121.722C310.796 120.926 310.94 120.232 311.229 119.638C311.52 119.045 311.925 118.585 312.442 118.256C312.962 117.928 313.567 117.764 314.256 117.764C314.946 117.764 315.549 117.928 316.066 118.256C316.586 118.585 316.991 119.045 317.279 119.638C317.571 120.232 317.716 120.926 317.716 121.722C317.716 122.51 317.571 123.2 317.279 123.79C316.991 124.38 316.586 124.839 316.066 125.167C315.549 125.495 314.946 125.659 314.256 125.659ZM314.256 124.605C314.78 124.605 315.211 124.471 315.549 124.202C315.887 123.934 316.137 123.581 316.3 123.143C316.462 122.706 316.543 122.232 316.543 121.722C316.543 121.211 316.462 120.736 316.3 120.295C316.137 119.854 315.887 119.498 315.549 119.226C315.211 118.954 314.78 118.818 314.256 118.818C313.733 118.818 313.302 118.954 312.964 119.226C312.626 119.498 312.375 119.854 312.213 120.295C312.05 120.736 311.969 121.211 311.969 121.722C311.969 122.232 312.05 122.706 312.213 123.143C312.375 123.581 312.626 123.934 312.964 124.202C313.302 124.471 313.733 124.605 314.256 124.605ZM319.507 125.5V117.864H320.641V119.017H320.721C320.86 118.639 321.112 118.333 321.476 118.097C321.841 117.862 322.252 117.744 322.709 117.744C322.795 117.744 322.903 117.746 323.032 117.749C323.162 117.753 323.259 117.758 323.326 117.764V118.957C323.286 118.947 323.195 118.933 323.052 118.913C322.913 118.889 322.766 118.878 322.61 118.878C322.239 118.878 321.907 118.956 321.615 119.112C321.327 119.264 321.098 119.476 320.929 119.748C320.764 120.016 320.681 120.323 320.681 120.668V125.5H319.507ZM328.516 117.864V118.858H324.559V117.864H328.516ZM325.712 116.034H326.885V123.312C326.885 123.644 326.933 123.893 327.029 124.058C327.129 124.221 327.255 124.33 327.407 124.386C327.563 124.439 327.727 124.466 327.9 124.466C328.029 124.466 328.135 124.459 328.218 124.446C328.301 124.429 328.367 124.416 328.417 124.406L328.655 125.46C328.576 125.49 328.465 125.52 328.322 125.55C328.18 125.583 327.999 125.599 327.78 125.599C327.449 125.599 327.124 125.528 326.806 125.386C326.491 125.243 326.229 125.026 326.02 124.734C325.815 124.443 325.712 124.075 325.712 123.631V116.034ZM351.288 120.409C351.288 119.156 351.451 118.004 351.776 116.954C352.104 115.9 352.571 114.93 353.178 114.045H354.212C353.973 114.374 353.749 114.778 353.54 115.259C353.335 115.736 353.154 116.261 352.999 116.835C352.843 117.405 352.72 117.995 352.631 118.604C352.545 119.214 352.501 119.816 352.501 120.409C352.501 121.198 352.578 121.998 352.73 122.81C352.883 123.622 353.088 124.376 353.347 125.072C353.605 125.768 353.893 126.335 354.212 126.773H353.178C352.571 125.888 352.104 124.92 351.776 123.869C351.451 122.815 351.288 121.662 351.288 120.409ZM359.244 125.639C358.495 125.639 357.857 125.435 357.33 125.028C356.803 124.617 356.4 124.022 356.122 123.243C355.844 122.461 355.704 121.516 355.704 120.409C355.704 119.309 355.844 118.369 356.122 117.59C356.404 116.808 356.808 116.211 357.335 115.8C357.865 115.386 358.502 115.179 359.244 115.179C359.987 115.179 360.621 115.386 361.148 115.8C361.679 116.211 362.083 116.808 362.361 117.59C362.643 118.369 362.784 119.309 362.784 120.409C362.784 121.516 362.645 122.461 362.366 123.243C362.088 124.022 361.685 124.617 361.158 125.028C360.631 125.435 359.993 125.639 359.244 125.639ZM359.244 124.545C359.987 124.545 360.563 124.187 360.974 123.472C361.385 122.756 361.591 121.735 361.591 120.409C361.591 119.527 361.496 118.777 361.307 118.157C361.122 117.537 360.853 117.065 360.502 116.74C360.154 116.415 359.735 116.253 359.244 116.253C358.508 116.253 357.933 116.616 357.519 117.342C357.105 118.064 356.898 119.087 356.898 120.409C356.898 121.291 356.99 122.04 357.176 122.656C357.362 123.273 357.628 123.742 357.976 124.063C358.328 124.385 358.75 124.545 359.244 124.545ZM369.863 123.591V123.054C369.863 122.683 369.94 122.343 370.092 122.035C370.248 121.723 370.473 121.475 370.768 121.289C371.067 121.1 371.428 121.006 371.852 121.006C372.283 121.006 372.644 121.1 372.936 121.289C373.228 121.475 373.448 121.723 373.597 122.035C373.746 122.343 373.821 122.683 373.821 123.054V123.591C373.821 123.962 373.745 124.304 373.592 124.615C373.443 124.923 373.221 125.172 372.926 125.361C372.634 125.546 372.276 125.639 371.852 125.639C371.421 125.639 371.058 125.546 370.763 125.361C370.468 125.172 370.245 124.923 370.092 124.615C369.94 124.304 369.863 123.962 369.863 123.591ZM370.878 123.054V123.591C370.878 123.899 370.951 124.176 371.096 124.421C371.242 124.663 371.494 124.784 371.852 124.784C372.2 124.784 372.445 124.663 372.588 124.421C372.734 124.176 372.807 123.899 372.807 123.591V123.054C372.807 122.746 372.737 122.471 372.598 122.229C372.459 121.983 372.21 121.861 371.852 121.861C371.504 121.861 371.254 121.983 371.101 122.229C370.952 122.471 370.878 122.746 370.878 123.054ZM364.792 117.764V117.227C364.792 116.856 364.869 116.516 365.021 116.208C365.177 115.897 365.402 115.648 365.697 115.462C365.996 115.273 366.357 115.179 366.781 115.179C367.212 115.179 367.573 115.273 367.865 115.462C368.157 115.648 368.377 115.897 368.526 116.208C368.675 116.516 368.75 116.856 368.75 117.227V117.764C368.75 118.135 368.674 118.477 368.521 118.788C368.372 119.097 368.15 119.345 367.855 119.534C367.563 119.72 367.205 119.812 366.781 119.812C366.35 119.812 365.987 119.72 365.692 119.534C365.397 119.345 365.174 119.097 365.021 118.788C364.869 118.477 364.792 118.135 364.792 117.764ZM365.807 117.227V117.764C365.807 118.072 365.88 118.349 366.025 118.594C366.171 118.836 366.423 118.957 366.781 118.957C367.129 118.957 367.374 118.836 367.517 118.594C367.663 118.349 367.736 118.072 367.736 117.764V117.227C367.736 116.919 367.666 116.644 367.527 116.402C367.388 116.157 367.139 116.034 366.781 116.034C366.433 116.034 366.183 116.157 366.03 116.402C365.881 116.644 365.807 116.919 365.807 117.227ZM365.17 125.5L372.17 115.318H373.304L366.304 125.5H365.17ZM378.574 120.409C378.574 121.662 378.41 122.815 378.081 123.869C377.757 124.92 377.291 125.888 376.684 126.773H375.65C375.889 126.445 376.111 126.04 376.317 125.56C376.525 125.082 376.708 124.559 376.863 123.989C377.019 123.415 377.14 122.824 377.226 122.214C377.316 121.601 377.361 120.999 377.361 120.409C377.361 119.62 377.284 118.82 377.132 118.008C376.979 117.196 376.774 116.442 376.515 115.746C376.257 115.05 375.969 114.483 375.65 114.045H376.684C377.291 114.93 377.757 115.9 378.081 116.954C378.41 118.004 378.574 119.156 378.574 120.409Z" fill="#AFAAC7"/>
<path d="M334.636 120.409C334.636 119.156 334.798 118.004 335.123 116.954C335.451 115.9 335.919 114.93 336.525 114.045H337.559C337.321 114.374 337.097 114.778 336.888 115.259C336.683 115.736 336.502 116.261 336.346 116.835C336.19 117.405 336.068 117.995 335.978 118.604C335.892 119.214 335.849 119.816 335.849 120.409C335.849 121.198 335.925 121.998 336.078 122.81C336.23 123.622 336.436 124.376 336.694 125.072C336.953 125.768 337.241 126.335 337.559 126.773H336.525C335.919 125.888 335.451 124.92 335.123 123.869C334.798 122.815 334.636 121.662 334.636 120.409ZM342.85 115.318V125.5H341.617V116.611H341.558L339.072 118.261V117.009L341.617 115.318H342.85ZM348.304 120.409C348.304 121.662 348.14 122.815 347.812 123.869C347.487 124.92 347.021 125.888 346.415 126.773H345.381C345.619 126.445 345.842 126.04 346.047 125.56C346.256 125.082 346.438 124.559 346.594 123.989C346.75 123.415 346.871 122.824 346.957 122.214C347.046 121.601 347.091 120.999 347.091 120.409C347.091 119.62 347.015 118.82 346.862 118.008C346.71 117.196 346.504 116.442 346.246 115.746C345.987 115.05 345.699 114.483 345.381 114.045H346.415C347.021 114.93 347.487 115.9 347.812 116.954C348.14 118.004 348.304 119.156 348.304 120.409Z" fill="white"/>
<rect x="240.656" y="158.5" width="12" height="12" rx="2" fill="#FFB17B"/>
<path d="M261.889 159.318H263.361L266.821 167.77H266.94L270.401 159.318H271.872V169.5H270.719V161.764H270.619L267.438 169.5H266.324L263.142 161.764H263.043V169.5H261.889V159.318ZM277.387 169.659C276.651 169.659 276.016 169.497 275.483 169.172C274.952 168.844 274.543 168.386 274.255 167.8C273.97 167.21 273.827 166.524 273.827 165.741C273.827 164.959 273.97 164.27 274.255 163.673C274.543 163.073 274.944 162.606 275.458 162.271C275.975 161.933 276.578 161.764 277.268 161.764C277.665 161.764 278.058 161.83 278.446 161.963C278.834 162.096 279.187 162.311 279.505 162.609C279.823 162.904 280.077 163.295 280.265 163.783C280.454 164.27 280.549 164.87 280.549 165.582V166.08H274.662V165.065H279.356C279.356 164.634 279.269 164.25 279.097 163.912C278.928 163.574 278.686 163.307 278.371 163.112C278.06 162.916 277.692 162.818 277.268 162.818C276.8 162.818 276.396 162.934 276.055 163.166C275.716 163.395 275.456 163.693 275.274 164.061C275.092 164.429 275.001 164.823 275.001 165.244V165.92C275.001 166.497 275.1 166.986 275.299 167.387C275.501 167.785 275.781 168.088 276.139 168.297C276.497 168.502 276.913 168.605 277.387 168.605C277.695 168.605 277.974 168.562 278.222 168.476C278.474 168.386 278.691 168.254 278.873 168.078C279.056 167.899 279.197 167.677 279.296 167.412L280.43 167.73C280.31 168.115 280.11 168.453 279.828 168.744C279.546 169.033 279.198 169.258 278.784 169.42C278.37 169.58 277.904 169.659 277.387 169.659ZM285.217 169.659C284.581 169.659 284.019 169.498 283.532 169.177C283.045 168.852 282.663 168.395 282.388 167.805C282.113 167.211 281.976 166.51 281.976 165.702C281.976 164.9 282.113 164.204 282.388 163.614C282.663 163.024 283.046 162.568 283.537 162.246C284.027 161.925 284.594 161.764 285.237 161.764C285.734 161.764 286.127 161.847 286.415 162.013C286.707 162.175 286.929 162.361 287.081 162.57C287.237 162.775 287.358 162.944 287.444 163.077H287.544V159.318H288.717V169.5H287.584V168.327H287.444C287.358 168.466 287.236 168.642 287.077 168.854C286.917 169.062 286.69 169.25 286.395 169.415C286.1 169.578 285.708 169.659 285.217 169.659ZM285.376 168.605C285.847 168.605 286.245 168.482 286.569 168.237C286.894 167.989 287.141 167.646 287.31 167.208C287.479 166.767 287.564 166.259 287.564 165.682C287.564 165.112 287.481 164.613 287.315 164.185C287.149 163.754 286.904 163.42 286.579 163.181C286.255 162.939 285.854 162.818 285.376 162.818C284.879 162.818 284.465 162.946 284.133 163.201C283.805 163.453 283.558 163.796 283.393 164.23C283.23 164.661 283.149 165.145 283.149 165.682C283.149 166.225 283.232 166.719 283.398 167.163C283.567 167.604 283.815 167.955 284.143 168.217C284.475 168.476 284.886 168.605 285.376 168.605ZM295.126 169.5V159.318H301.27V160.412H296.358V163.852H300.952V164.946H296.358V168.406H301.35V169.5H295.126ZM306.734 161.864V162.858H302.618V161.864H306.734ZM303.851 169.5V160.81C303.851 160.372 303.953 160.008 304.159 159.716C304.364 159.424 304.631 159.205 304.959 159.06C305.287 158.914 305.634 158.841 305.998 158.841C306.287 158.841 306.522 158.864 306.704 158.911C306.887 158.957 307.023 159 307.112 159.04L306.774 160.054C306.714 160.034 306.631 160.009 306.525 159.979C306.423 159.95 306.287 159.935 306.118 159.935C305.73 159.935 305.45 160.032 305.278 160.228C305.108 160.424 305.024 160.71 305.024 161.088V169.5H303.851ZM311.779 161.864V162.858H307.663V161.864H311.779ZM308.896 169.5V160.81C308.896 160.372 308.998 160.008 309.204 159.716C309.409 159.424 309.676 159.205 310.004 159.06C310.332 158.914 310.679 158.841 311.043 158.841C311.332 158.841 311.567 158.864 311.749 158.911C311.932 158.957 312.067 159 312.157 159.04L311.819 160.054C311.759 160.034 311.676 160.009 311.57 159.979C311.468 159.95 311.332 159.935 311.163 159.935C310.775 159.935 310.495 160.032 310.322 160.228C310.153 160.424 310.069 160.71 310.069 161.088V169.5H308.896ZM316.211 169.659C315.522 169.659 314.917 169.495 314.397 169.167C313.88 168.839 313.475 168.38 313.184 167.79C312.895 167.2 312.751 166.51 312.751 165.722C312.751 164.926 312.895 164.232 313.184 163.638C313.475 163.045 313.88 162.585 314.397 162.256C314.917 161.928 315.522 161.764 316.211 161.764C316.901 161.764 317.504 161.928 318.021 162.256C318.541 162.585 318.946 163.045 319.234 163.638C319.526 164.232 319.672 164.926 319.672 165.722C319.672 166.51 319.526 167.2 319.234 167.79C318.946 168.38 318.541 168.839 318.021 169.167C317.504 169.495 316.901 169.659 316.211 169.659ZM316.211 168.605C316.735 168.605 317.166 168.471 317.504 168.202C317.842 167.934 318.092 167.581 318.255 167.143C318.417 166.706 318.498 166.232 318.498 165.722C318.498 165.211 318.417 164.736 318.255 164.295C318.092 163.854 317.842 163.498 317.504 163.226C317.166 162.954 316.735 162.818 316.211 162.818C315.688 162.818 315.257 162.954 314.919 163.226C314.581 163.498 314.33 163.854 314.168 164.295C314.006 164.736 313.924 165.211 313.924 165.722C313.924 166.232 314.006 166.706 314.168 167.143C314.33 167.581 314.581 167.934 314.919 168.202C315.257 168.471 315.688 168.605 316.211 168.605ZM321.463 169.5V161.864H322.596V163.017H322.676C322.815 162.639 323.067 162.333 323.431 162.097C323.796 161.862 324.207 161.744 324.664 161.744C324.75 161.744 324.858 161.746 324.987 161.749C325.117 161.753 325.214 161.758 325.281 161.764V162.957C325.241 162.947 325.15 162.933 325.007 162.913C324.868 162.889 324.721 162.878 324.565 162.878C324.194 162.878 323.862 162.956 323.57 163.112C323.282 163.264 323.053 163.476 322.884 163.748C322.719 164.016 322.636 164.323 322.636 164.668V169.5H321.463ZM330.471 161.864V162.858H326.514V161.864H330.471ZM327.667 160.034H328.84V167.312C328.84 167.644 328.888 167.893 328.985 168.058C329.084 168.221 329.21 168.33 329.362 168.386C329.518 168.439 329.682 168.466 329.855 168.466C329.984 168.466 330.09 168.459 330.173 168.446C330.256 168.429 330.322 168.416 330.372 168.406L330.61 169.46C330.531 169.49 330.42 169.52 330.277 169.55C330.135 169.583 329.954 169.599 329.735 169.599C329.404 169.599 329.079 169.528 328.761 169.386C328.446 169.243 328.184 169.026 327.975 168.734C327.77 168.443 327.667 168.075 327.667 167.631V160.034ZM353.243 164.409C353.243 163.156 353.406 162.004 353.731 160.954C354.059 159.9 354.526 158.93 355.133 158.045H356.167C355.928 158.374 355.704 158.778 355.496 159.259C355.29 159.736 355.109 160.261 354.954 160.835C354.798 161.405 354.675 161.995 354.586 162.604C354.5 163.214 354.456 163.816 354.456 164.409C354.456 165.198 354.533 165.998 354.685 166.81C354.838 167.622 355.043 168.376 355.302 169.072C355.56 169.768 355.849 170.335 356.167 170.773H355.133C354.526 169.888 354.059 168.92 353.731 167.869C353.406 166.815 353.243 165.662 353.243 164.409ZM361.199 169.639C360.45 169.639 359.812 169.435 359.285 169.028C358.758 168.617 358.355 168.022 358.077 167.243C357.799 166.461 357.659 165.516 357.659 164.409C357.659 163.309 357.799 162.369 358.077 161.59C358.359 160.808 358.763 160.211 359.29 159.8C359.82 159.386 360.457 159.179 361.199 159.179C361.942 159.179 362.576 159.386 363.103 159.8C363.634 160.211 364.038 160.808 364.316 161.59C364.598 162.369 364.739 163.309 364.739 164.409C364.739 165.516 364.6 166.461 364.321 167.243C364.043 168.022 363.64 168.617 363.113 169.028C362.586 169.435 361.948 169.639 361.199 169.639ZM361.199 168.545C361.942 168.545 362.518 168.187 362.929 167.472C363.34 166.756 363.546 165.735 363.546 164.409C363.546 163.527 363.451 162.777 363.262 162.157C363.077 161.537 362.808 161.065 362.457 160.74C362.109 160.415 361.69 160.253 361.199 160.253C360.463 160.253 359.888 160.616 359.474 161.342C359.06 162.064 358.853 163.087 358.853 164.409C358.853 165.291 358.945 166.04 359.131 166.656C359.317 167.273 359.583 167.742 359.931 168.063C360.283 168.385 360.705 168.545 361.199 168.545ZM371.819 167.591V167.054C371.819 166.683 371.895 166.343 372.047 166.035C372.203 165.723 372.428 165.475 372.723 165.289C373.022 165.1 373.383 165.006 373.807 165.006C374.238 165.006 374.599 165.1 374.891 165.289C375.183 165.475 375.403 165.723 375.552 166.035C375.701 166.343 375.776 166.683 375.776 167.054V167.591C375.776 167.962 375.7 168.304 375.547 168.615C375.398 168.923 375.176 169.172 374.881 169.361C374.589 169.546 374.231 169.639 373.807 169.639C373.376 169.639 373.013 169.546 372.718 169.361C372.423 169.172 372.2 168.923 372.047 168.615C371.895 168.304 371.819 167.962 371.819 167.591ZM372.833 167.054V167.591C372.833 167.899 372.906 168.176 373.051 168.421C373.197 168.663 373.449 168.784 373.807 168.784C374.155 168.784 374.4 168.663 374.543 168.421C374.689 168.176 374.762 167.899 374.762 167.591V167.054C374.762 166.746 374.692 166.471 374.553 166.229C374.414 165.983 374.165 165.861 373.807 165.861C373.459 165.861 373.209 165.983 373.056 166.229C372.907 166.471 372.833 166.746 372.833 167.054ZM366.748 161.764V161.227C366.748 160.856 366.824 160.516 366.976 160.208C367.132 159.897 367.357 159.648 367.652 159.462C367.951 159.273 368.312 159.179 368.736 159.179C369.167 159.179 369.528 159.273 369.82 159.462C370.112 159.648 370.332 159.897 370.481 160.208C370.63 160.516 370.705 160.856 370.705 161.227V161.764C370.705 162.135 370.629 162.477 370.476 162.788C370.327 163.097 370.105 163.345 369.81 163.534C369.518 163.72 369.16 163.812 368.736 163.812C368.305 163.812 367.942 163.72 367.647 163.534C367.352 163.345 367.129 163.097 366.976 162.788C366.824 162.477 366.748 162.135 366.748 161.764ZM367.762 161.227V161.764C367.762 162.072 367.835 162.349 367.98 162.594C368.126 162.836 368.378 162.957 368.736 162.957C369.084 162.957 369.329 162.836 369.472 162.594C369.618 162.349 369.691 162.072 369.691 161.764V161.227C369.691 160.919 369.621 160.644 369.482 160.402C369.343 160.157 369.094 160.034 368.736 160.034C368.388 160.034 368.138 160.157 367.985 160.402C367.836 160.644 367.762 160.919 367.762 161.227ZM367.125 169.5L374.125 159.318H375.259L368.259 169.5H367.125ZM380.529 164.409C380.529 165.662 380.365 166.815 380.037 167.869C379.712 168.92 379.246 169.888 378.64 170.773H377.605C377.844 170.445 378.066 170.04 378.272 169.56C378.48 169.082 378.663 168.559 378.819 167.989C378.974 167.415 379.095 166.824 379.181 166.214C379.271 165.601 379.316 164.999 379.316 164.409C379.316 163.62 379.239 162.82 379.087 162.008C378.935 161.196 378.729 160.442 378.471 159.746C378.212 159.05 377.924 158.483 377.605 158.045H378.64C379.246 158.93 379.712 159.9 380.037 160.954C380.365 162.004 380.529 163.156 380.529 164.409Z" fill="#AFAAC7"/>
<path d="M336.591 164.409C336.591 163.156 336.753 162.004 337.078 160.954C337.406 159.9 337.874 158.93 338.48 158.045H339.514C339.276 158.374 339.052 158.778 338.843 159.259C338.638 159.736 338.457 160.261 338.301 160.835C338.146 161.405 338.023 161.995 337.933 162.604C337.847 163.214 337.804 163.816 337.804 164.409C337.804 165.198 337.88 165.998 338.033 166.81C338.185 167.622 338.391 168.376 338.649 169.072C338.908 169.768 339.196 170.335 339.514 170.773H338.48C337.874 169.888 337.406 168.92 337.078 167.869C336.753 166.815 336.591 165.662 336.591 164.409ZM344.805 159.318V169.5H343.572V160.611H343.513L341.027 162.261V161.009L343.572 159.318H344.805ZM350.259 164.409C350.259 165.662 350.095 166.815 349.767 167.869C349.442 168.92 348.977 169.888 348.37 170.773H347.336C347.575 170.445 347.797 170.04 348.002 169.56C348.211 169.082 348.393 168.559 348.549 167.989C348.705 167.415 348.826 166.824 348.912 166.214C349.001 165.601 349.046 164.999 349.046 164.409C349.046 163.62 348.97 162.82 348.817 162.008C348.665 161.196 348.46 160.442 348.201 159.746C347.942 159.05 347.654 158.483 347.336 158.045H348.37C348.977 158.93 349.442 159.9 349.767 160.954C350.095 162.004 350.259 163.156 350.259 164.409Z" fill="white"/>
<rect x="240.656" y="202.5" width="12" height="12" rx="2" fill="#DA384E"/>
<path d="M261.889 213.5V203.318H263.122V207.852H268.551V203.318H269.784V213.5H268.551V208.946H263.122V213.5H261.889ZM272.093 213.5V205.864H273.267V213.5H272.093ZM272.69 204.591C272.461 204.591 272.264 204.513 272.098 204.357C271.936 204.201 271.855 204.014 271.855 203.795C271.855 203.577 271.936 203.389 272.098 203.234C272.264 203.078 272.461 203 272.69 203C272.919 203 273.114 203.078 273.277 203.234C273.442 203.389 273.525 203.577 273.525 203.795C273.525 204.014 273.442 204.201 273.277 204.357C273.114 204.513 272.919 204.591 272.69 204.591ZM278.498 216.523C277.931 216.523 277.444 216.45 277.036 216.304C276.629 216.161 276.289 215.973 276.017 215.737C275.749 215.505 275.535 215.257 275.376 214.991L276.311 214.335C276.417 214.474 276.551 214.634 276.713 214.812C276.876 214.995 277.098 215.152 277.379 215.285C277.664 215.421 278.037 215.489 278.498 215.489C279.115 215.489 279.623 215.339 280.024 215.041C280.425 214.743 280.626 214.276 280.626 213.639V212.088H280.526C280.44 212.227 280.318 212.4 280.159 212.605C280.003 212.807 279.777 212.988 279.482 213.147C279.191 213.303 278.796 213.381 278.299 213.381C277.683 213.381 277.129 213.235 276.639 212.943C276.151 212.652 275.765 212.227 275.48 211.67C275.199 211.114 275.058 210.437 275.058 209.642C275.058 208.86 275.195 208.179 275.47 207.599C275.745 207.015 276.128 206.565 276.619 206.246C277.109 205.925 277.676 205.764 278.319 205.764C278.816 205.764 279.211 205.847 279.502 206.013C279.797 206.175 280.023 206.361 280.178 206.57C280.338 206.775 280.46 206.944 280.546 207.077H280.666V205.864H281.799V213.719C281.799 214.375 281.65 214.909 281.352 215.32C281.057 215.734 280.659 216.037 280.159 216.229C279.661 216.425 279.108 216.523 278.498 216.523ZM278.458 212.327C278.929 212.327 279.327 212.219 279.651 212.004C279.976 211.788 280.223 211.478 280.392 211.074C280.561 210.67 280.646 210.186 280.646 209.622C280.646 209.072 280.563 208.586 280.397 208.165C280.231 207.745 279.986 207.415 279.661 207.176C279.337 206.937 278.936 206.818 278.458 206.818C277.961 206.818 277.547 206.944 277.215 207.196C276.887 207.448 276.64 207.786 276.475 208.21C276.312 208.634 276.231 209.105 276.231 209.622C276.231 210.152 276.314 210.621 276.48 211.029C276.649 211.433 276.897 211.752 277.225 211.984C277.557 212.212 277.968 212.327 278.458 212.327ZM285.12 208.906V213.5H283.947V203.318H285.12V207.057H285.22C285.399 206.662 285.667 206.349 286.025 206.117C286.386 205.882 286.867 205.764 287.467 205.764C287.987 205.764 288.443 205.869 288.834 206.077C289.225 206.283 289.528 206.599 289.744 207.027C289.963 207.451 290.072 207.991 290.072 208.648V213.5H288.899V208.727C288.899 208.121 288.741 207.652 288.426 207.32C288.115 206.986 287.682 206.818 287.129 206.818C286.744 206.818 286.4 206.899 286.095 207.062C285.793 207.224 285.554 207.461 285.379 207.773C285.206 208.084 285.12 208.462 285.12 208.906ZM296.315 213.5V203.318H302.46V204.412H297.548V207.852H302.142V208.946H297.548V212.406H302.539V213.5H296.315ZM307.924 205.864V206.858H303.807V205.864H307.924ZM305.04 213.5V204.81C305.04 204.372 305.143 204.008 305.348 203.716C305.554 203.424 305.821 203.205 306.149 203.06C306.477 202.914 306.823 202.841 307.188 202.841C307.476 202.841 307.712 202.864 307.894 202.911C308.076 202.957 308.212 203 308.301 203.04L307.963 204.054C307.904 204.034 307.821 204.009 307.715 203.979C307.612 203.95 307.476 203.935 307.307 203.935C306.919 203.935 306.639 204.032 306.467 204.228C306.298 204.424 306.213 204.71 306.213 205.088V213.5H305.04ZM312.969 205.864V206.858H308.852V205.864H312.969ZM310.085 213.5V204.81C310.085 204.372 310.188 204.008 310.393 203.716C310.599 203.424 310.866 203.205 311.194 203.06C311.522 202.914 311.868 202.841 312.233 202.841C312.521 202.841 312.756 202.864 312.939 202.911C313.121 202.957 313.257 203 313.346 203.04L313.008 204.054C312.949 204.034 312.866 204.009 312.76 203.979C312.657 203.95 312.521 203.935 312.352 203.935C311.964 203.935 311.684 204.032 311.512 204.228C311.343 204.424 311.258 204.71 311.258 205.088V213.5H310.085ZM317.401 213.659C316.711 213.659 316.106 213.495 315.586 213.167C315.069 212.839 314.665 212.38 314.373 211.79C314.085 211.2 313.941 210.51 313.941 209.722C313.941 208.926 314.085 208.232 314.373 207.638C314.665 207.045 315.069 206.585 315.586 206.256C316.106 205.928 316.711 205.764 317.401 205.764C318.09 205.764 318.693 205.928 319.21 206.256C319.731 206.585 320.135 207.045 320.423 207.638C320.715 208.232 320.861 208.926 320.861 209.722C320.861 210.51 320.715 211.2 320.423 211.79C320.135 212.38 319.731 212.839 319.21 213.167C318.693 213.495 318.09 213.659 317.401 213.659ZM317.401 212.605C317.924 212.605 318.355 212.471 318.693 212.202C319.031 211.934 319.282 211.581 319.444 211.143C319.606 210.706 319.688 210.232 319.688 209.722C319.688 209.211 319.606 208.736 319.444 208.295C319.282 207.854 319.031 207.498 318.693 207.226C318.355 206.954 317.924 206.818 317.401 206.818C316.877 206.818 316.446 206.954 316.108 207.226C315.77 207.498 315.52 207.854 315.357 208.295C315.195 208.736 315.114 209.211 315.114 209.722C315.114 210.232 315.195 210.706 315.357 211.143C315.52 211.581 315.77 211.934 316.108 212.202C316.446 212.471 316.877 212.605 317.401 212.605ZM322.652 213.5V205.864H323.786V207.017H323.865C324.004 206.639 324.256 206.333 324.621 206.097C324.985 205.862 325.396 205.744 325.854 205.744C325.94 205.744 326.048 205.746 326.177 205.749C326.306 205.753 326.404 205.758 326.47 205.764V206.957C326.43 206.947 326.339 206.933 326.197 206.913C326.058 206.889 325.91 206.878 325.754 206.878C325.383 206.878 325.052 206.956 324.76 207.112C324.472 207.264 324.243 207.476 324.074 207.748C323.908 208.016 323.825 208.323 323.825 208.668V213.5H322.652ZM331.661 205.864V206.858H327.703V205.864H331.661ZM328.857 204.034H330.03V211.312C330.03 211.644 330.078 211.893 330.174 212.058C330.273 212.221 330.399 212.33 330.552 212.386C330.708 212.439 330.872 212.466 331.044 212.466C331.173 212.466 331.279 212.459 331.362 212.446C331.445 212.429 331.511 212.416 331.561 212.406L331.8 213.46C331.72 213.49 331.609 213.52 331.467 213.55C331.324 213.583 331.143 213.599 330.925 213.599C330.593 213.599 330.268 213.528 329.95 213.386C329.635 213.243 329.374 213.026 329.165 212.734C328.959 212.443 328.857 212.075 328.857 211.631V204.034ZM354.433 208.409C354.433 207.156 354.595 206.004 354.92 204.954C355.248 203.9 355.716 202.93 356.322 202.045H357.356C357.118 202.374 356.894 202.778 356.685 203.259C356.48 203.736 356.299 204.261 356.143 204.835C355.987 205.405 355.865 205.995 355.775 206.604C355.689 207.214 355.646 207.816 355.646 208.409C355.646 209.198 355.722 209.998 355.875 210.81C356.027 211.622 356.233 212.376 356.491 213.072C356.75 213.768 357.038 214.335 357.356 214.773H356.322C355.716 213.888 355.248 212.92 354.92 211.869C354.595 210.815 354.433 209.662 354.433 208.409ZM362.389 213.639C361.64 213.639 361.002 213.435 360.475 213.028C359.948 212.617 359.545 212.022 359.267 211.243C358.988 210.461 358.849 209.516 358.849 208.409C358.849 207.309 358.988 206.369 359.267 205.59C359.548 204.808 359.953 204.211 360.48 203.8C361.01 203.386 361.646 203.179 362.389 203.179C363.131 203.179 363.766 203.386 364.293 203.8C364.823 204.211 365.227 204.808 365.506 205.59C365.788 206.369 365.928 207.309 365.928 208.409C365.928 209.516 365.789 210.461 365.511 211.243C365.232 212.022 364.83 212.617 364.303 213.028C363.776 213.435 363.138 213.639 362.389 213.639ZM362.389 212.545C363.131 212.545 363.708 212.187 364.119 211.472C364.53 210.756 364.735 209.735 364.735 208.409C364.735 207.527 364.641 206.777 364.452 206.157C364.266 205.537 363.998 205.065 363.646 204.74C363.298 204.415 362.879 204.253 362.389 204.253C361.653 204.253 361.078 204.616 360.664 205.342C360.249 206.064 360.042 207.087 360.042 208.409C360.042 209.291 360.135 210.04 360.32 210.656C360.506 211.273 360.773 211.742 361.121 212.063C361.472 212.385 361.895 212.545 362.389 212.545ZM373.008 211.591V211.054C373.008 210.683 373.084 210.343 373.237 210.035C373.392 209.723 373.618 209.475 373.913 209.289C374.211 209.1 374.572 209.006 374.997 209.006C375.427 209.006 375.789 209.1 376.08 209.289C376.372 209.475 376.593 209.723 376.742 210.035C376.891 210.343 376.965 210.683 376.965 211.054V211.591C376.965 211.962 376.889 212.304 376.737 212.615C376.588 212.923 376.365 213.172 376.07 213.361C375.779 213.546 375.421 213.639 374.997 213.639C374.566 213.639 374.203 213.546 373.908 213.361C373.613 213.172 373.389 212.923 373.237 212.615C373.084 212.304 373.008 211.962 373.008 211.591ZM374.022 211.054V211.591C374.022 211.899 374.095 212.176 374.241 212.421C374.387 212.663 374.639 212.784 374.997 212.784C375.345 212.784 375.59 212.663 375.732 212.421C375.878 212.176 375.951 211.899 375.951 211.591V211.054C375.951 210.746 375.882 210.471 375.742 210.229C375.603 209.983 375.355 209.861 374.997 209.861C374.649 209.861 374.398 209.983 374.246 210.229C374.097 210.471 374.022 210.746 374.022 211.054ZM367.937 205.764V205.227C367.937 204.856 368.013 204.516 368.166 204.208C368.321 203.897 368.547 203.648 368.842 203.462C369.14 203.273 369.501 203.179 369.926 203.179C370.356 203.179 370.718 203.273 371.009 203.462C371.301 203.648 371.521 203.897 371.671 204.208C371.82 204.516 371.894 204.856 371.894 205.227V205.764C371.894 206.135 371.818 206.477 371.666 206.788C371.517 207.097 371.294 207.345 370.999 207.534C370.708 207.72 370.35 207.812 369.926 207.812C369.495 207.812 369.132 207.72 368.837 207.534C368.542 207.345 368.318 207.097 368.166 206.788C368.013 206.477 367.937 206.135 367.937 205.764ZM368.951 205.227V205.764C368.951 206.072 369.024 206.349 369.17 206.594C369.316 206.836 369.568 206.957 369.926 206.957C370.274 206.957 370.519 206.836 370.661 206.594C370.807 206.349 370.88 206.072 370.88 205.764V205.227C370.88 204.919 370.811 204.644 370.671 204.402C370.532 204.157 370.284 204.034 369.926 204.034C369.578 204.034 369.327 204.157 369.175 204.402C369.026 204.644 368.951 204.919 368.951 205.227ZM368.315 213.5L375.315 203.318H376.448L369.448 213.5H368.315ZM381.718 208.409C381.718 209.662 381.554 210.815 381.226 211.869C380.901 212.92 380.436 213.888 379.829 214.773H378.795C379.034 214.445 379.256 214.04 379.461 213.56C379.67 213.082 379.852 212.559 380.008 211.989C380.164 211.415 380.285 210.824 380.371 210.214C380.46 209.601 380.505 208.999 380.505 208.409C380.505 207.62 380.429 206.82 380.276 206.008C380.124 205.196 379.919 204.442 379.66 203.746C379.401 203.05 379.113 202.483 378.795 202.045H379.829C380.436 202.93 380.901 203.9 381.226 204.954C381.554 206.004 381.718 207.156 381.718 208.409Z" fill="#AFAAC7"/>
<path d="M337.781 208.409C337.781 207.156 337.943 206.004 338.268 204.954C338.596 203.9 339.063 202.93 339.67 202.045H340.704C340.465 202.374 340.241 202.778 340.033 203.259C339.827 203.736 339.647 204.261 339.491 204.835C339.335 205.405 339.212 205.995 339.123 206.604C339.037 207.214 338.994 207.816 338.994 208.409C338.994 209.198 339.07 209.998 339.222 210.81C339.375 211.622 339.58 212.376 339.839 213.072C340.097 213.768 340.386 214.335 340.704 214.773H339.67C339.063 213.888 338.596 212.92 338.268 211.869C337.943 210.815 337.781 209.662 337.781 208.409ZM345.995 203.318V213.5H344.762V204.611H344.702L342.216 206.261V205.009L344.762 203.318H345.995ZM351.449 208.409C351.449 209.662 351.285 210.815 350.956 211.869C350.632 212.92 350.166 213.888 349.559 214.773H348.525C348.764 214.445 348.986 214.04 349.192 213.56C349.4 213.082 349.583 212.559 349.738 211.989C349.894 211.415 350.015 210.824 350.101 210.214C350.191 209.601 350.236 208.999 350.236 208.409C350.236 207.62 350.159 206.82 350.007 206.008C349.854 205.196 349.649 204.442 349.39 203.746C349.132 203.05 348.844 202.483 348.525 202.045H349.559C350.166 202.93 350.632 203.9 350.956 204.954C351.285 206.004 351.449 207.156 351.449 208.409Z" fill="white"/>
<path d="M121.485 166L131.516 146.162V145.993H119.914V143.02H135.107V146.094L125.109 166H121.485Z" fill="white"/>
<path d="M100.449 187H99.3142L102.596 178.063H103.713L106.994 187H105.86L103.189 179.477H103.119L100.449 187ZM100.868 183.509H105.441V184.469H100.868V183.509ZM112.887 180.297L110.409 187H109.362L106.883 180.297H108L109.85 185.639H109.92L111.77 180.297H112.887ZM116.712 189.653C116.215 189.653 115.787 189.589 115.429 189.461C115.071 189.336 114.773 189.17 114.535 188.964C114.299 188.76 114.111 188.542 113.972 188.309L114.792 187.733C114.885 187.855 115.003 187.995 115.146 188.152C115.288 188.312 115.483 188.45 115.73 188.567C115.98 188.686 116.308 188.745 116.712 188.745C117.253 188.745 117.7 188.615 118.052 188.353C118.404 188.091 118.58 187.681 118.58 187.122V185.761H118.492C118.417 185.883 118.309 186.034 118.17 186.215C118.033 186.392 117.835 186.551 117.576 186.69C117.32 186.827 116.974 186.895 116.538 186.895C115.996 186.895 115.511 186.767 115.08 186.511C114.652 186.255 114.314 185.883 114.063 185.394C113.816 184.905 113.692 184.312 113.692 183.614C113.692 182.927 113.813 182.329 114.055 181.82C114.296 181.308 114.632 180.913 115.063 180.633C115.493 180.351 115.991 180.21 116.555 180.21C116.991 180.21 117.338 180.283 117.594 180.428C117.852 180.571 118.05 180.734 118.187 180.917C118.327 181.097 118.434 181.246 118.51 181.362H118.615V180.297H119.61V187.192C119.61 187.768 119.479 188.236 119.217 188.597C118.958 188.961 118.609 189.227 118.17 189.396C117.733 189.567 117.247 189.653 116.712 189.653ZM116.677 185.97C117.09 185.97 117.439 185.876 117.724 185.687C118.01 185.497 118.226 185.225 118.375 184.871C118.523 184.516 118.597 184.091 118.597 183.596C118.597 183.113 118.524 182.687 118.379 182.318C118.234 181.948 118.018 181.659 117.733 181.449C117.448 181.24 117.096 181.135 116.677 181.135C116.241 181.135 115.877 181.246 115.586 181.467C115.298 181.688 115.082 181.985 114.936 182.357C114.794 182.729 114.722 183.143 114.722 183.596C114.722 184.062 114.795 184.473 114.94 184.831C115.089 185.186 115.307 185.465 115.595 185.669C115.886 185.87 116.247 185.97 116.677 185.97ZM129.698 181.799L128.773 182.06C128.715 181.906 128.629 181.756 128.516 181.611C128.405 181.463 128.254 181.34 128.062 181.244C127.87 181.148 127.624 181.1 127.325 181.1C126.914 181.1 126.573 181.195 126.299 181.384C126.029 181.57 125.893 181.807 125.893 182.095C125.893 182.351 125.986 182.553 126.173 182.702C126.359 182.85 126.65 182.974 127.045 183.073L128.04 183.317C128.639 183.463 129.086 183.685 129.38 183.985C129.674 184.281 129.821 184.664 129.821 185.132C129.821 185.516 129.71 185.86 129.489 186.162C129.271 186.465 128.965 186.703 128.573 186.878C128.18 187.052 127.723 187.14 127.202 187.14C126.519 187.14 125.953 186.991 125.505 186.695C125.057 186.398 124.773 185.964 124.654 185.394L125.631 185.15C125.725 185.511 125.901 185.781 126.159 185.961C126.421 186.142 126.763 186.232 127.185 186.232C127.665 186.232 128.046 186.13 128.328 185.927C128.613 185.72 128.756 185.473 128.756 185.185C128.756 184.952 128.674 184.757 128.511 184.6C128.349 184.44 128.098 184.321 127.761 184.242L126.644 183.98C126.03 183.835 125.579 183.609 125.291 183.304C125.006 182.996 124.863 182.61 124.863 182.148C124.863 181.769 124.97 181.435 125.182 181.144C125.397 180.853 125.69 180.625 126.059 180.459C126.431 180.293 126.853 180.21 127.325 180.21C127.988 180.21 128.509 180.356 128.887 180.647C129.268 180.937 129.538 181.321 129.698 181.799ZM134.094 187.14C133.465 187.14 132.924 186.991 132.47 186.695C132.017 186.398 131.667 185.989 131.423 185.468C131.179 184.948 131.057 184.353 131.057 183.684C131.057 183.003 131.182 182.402 131.432 181.881C131.685 181.358 132.037 180.949 132.488 180.655C132.942 180.359 133.471 180.21 134.076 180.21C134.547 180.21 134.972 180.297 135.35 180.472C135.729 180.647 136.038 180.891 136.28 181.205C136.521 181.519 136.671 181.886 136.729 182.305H135.699C135.621 181.999 135.446 181.729 135.176 181.493C134.908 181.255 134.547 181.135 134.094 181.135C133.692 181.135 133.34 181.24 133.038 181.449C132.738 181.656 132.504 181.948 132.335 182.327C132.169 182.702 132.086 183.143 132.086 183.649C132.086 184.167 132.168 184.617 132.331 185.001C132.497 185.385 132.729 185.684 133.029 185.896C133.331 186.108 133.686 186.215 134.094 186.215C134.361 186.215 134.604 186.168 134.822 186.075C135.041 185.982 135.225 185.848 135.377 185.673C135.528 185.499 135.635 185.289 135.699 185.045H136.729C136.671 185.441 136.527 185.797 136.297 186.114C136.07 186.428 135.769 186.679 135.394 186.865C135.022 187.048 134.588 187.14 134.094 187.14ZM140.958 187.14C140.353 187.14 139.822 186.996 139.365 186.708C138.911 186.42 138.556 186.017 138.3 185.499C138.047 184.981 137.921 184.376 137.921 183.684C137.921 182.985 138.047 182.376 138.3 181.855C138.556 181.335 138.911 180.93 139.365 180.642C139.822 180.354 140.353 180.21 140.958 180.21C141.563 180.21 142.092 180.354 142.546 180.642C143.003 180.93 143.358 181.335 143.611 181.855C143.867 182.376 143.995 182.985 143.995 183.684C143.995 184.376 143.867 184.981 143.611 185.499C143.358 186.017 143.003 186.42 142.546 186.708C142.092 186.996 141.563 187.14 140.958 187.14ZM140.958 186.215C141.417 186.215 141.795 186.097 142.092 185.861C142.389 185.625 142.609 185.316 142.751 184.932C142.894 184.548 142.965 184.132 142.965 183.684C142.965 183.236 142.894 182.818 142.751 182.431C142.609 182.044 142.389 181.732 142.092 181.493C141.795 181.255 141.417 181.135 140.958 181.135C140.498 181.135 140.12 181.255 139.823 181.493C139.526 181.732 139.307 182.044 139.164 182.431C139.022 182.818 138.95 183.236 138.95 183.684C138.95 184.132 139.022 184.548 139.164 184.932C139.307 185.316 139.526 185.625 139.823 185.861C140.12 186.097 140.498 186.215 140.958 186.215ZM145.567 187V180.297H146.562V181.31H146.632C146.754 180.978 146.975 180.709 147.295 180.503C147.615 180.296 147.976 180.193 148.377 180.193C148.453 180.193 148.547 180.194 148.661 180.197C148.774 180.2 148.86 180.204 148.918 180.21V181.257C148.883 181.249 148.803 181.236 148.678 181.218C148.556 181.198 148.426 181.188 148.29 181.188C147.964 181.188 147.673 181.256 147.417 181.393C147.164 181.527 146.963 181.713 146.815 181.951C146.669 182.187 146.597 182.456 146.597 182.759V187H145.567ZM152.745 187.14C152.099 187.14 151.542 186.997 151.074 186.712C150.608 186.424 150.249 186.023 149.996 185.508C149.746 184.99 149.621 184.388 149.621 183.701C149.621 183.015 149.746 182.409 149.996 181.886C150.249 181.359 150.601 180.949 151.052 180.655C151.506 180.359 152.035 180.21 152.64 180.21C152.989 180.21 153.334 180.268 153.674 180.385C154.015 180.501 154.325 180.69 154.604 180.952C154.883 181.211 155.106 181.554 155.272 181.982C155.437 182.409 155.52 182.936 155.52 183.561V183.998H150.354V183.108H154.473C154.473 182.729 154.397 182.392 154.246 182.095C154.098 181.799 153.885 181.564 153.609 181.393C153.336 181.221 153.013 181.135 152.64 181.135C152.23 181.135 151.875 181.237 151.576 181.441C151.279 181.641 151.05 181.903 150.89 182.226C150.73 182.549 150.65 182.895 150.65 183.265V183.858C150.65 184.364 150.738 184.793 150.912 185.145C151.09 185.495 151.336 185.761 151.65 185.944C151.964 186.124 152.329 186.215 152.745 186.215C153.016 186.215 153.26 186.177 153.478 186.101C153.699 186.023 153.89 185.906 154.05 185.752C154.21 185.595 154.333 185.4 154.421 185.167L155.416 185.447C155.311 185.784 155.135 186.081 154.888 186.337C154.64 186.59 154.335 186.788 153.971 186.93C153.608 187.07 153.199 187.14 152.745 187.14Z" fill="#AFAAC7"/>
</svg>
