<svg width="419" height="280" viewBox="0 0 419 280" fill="none" xmlns="http://www.w3.org/2000/svg">
<rect width="419" height="280" rx="8" fill="#272138"/>
<path d="M26.6705 30.3636V42H25.0568L19.142 33.4659H19.0341V42H17.2784V30.3636H18.9034L24.8239 38.9091H24.9318V30.3636H26.6705ZM32.8565 42.1761C31.9967 42.1761 31.2562 41.9924 30.6349 41.625C30.0175 41.2538 29.5402 40.733 29.2031 40.0625C28.8698 39.3883 28.7031 38.5985 28.7031 37.6932C28.7031 36.7992 28.8698 36.0114 29.2031 35.3295C29.5402 34.6477 30.0099 34.1155 30.6122 33.733C31.2183 33.3504 31.9266 33.1591 32.7372 33.1591C33.2296 33.1591 33.7069 33.2405 34.169 33.4034C34.6312 33.5663 35.0459 33.822 35.4134 34.1705C35.7808 34.5189 36.0705 34.9716 36.2827 35.5284C36.4948 36.0814 36.6009 36.7538 36.6009 37.5455V38.1477H29.6634V36.875H34.9361C34.9361 36.428 34.8452 36.0322 34.6634 35.6875C34.4815 35.339 34.2259 35.0644 33.8963 34.8636C33.5705 34.6629 33.188 34.5625 32.7486 34.5625C32.2713 34.5625 31.8546 34.6799 31.4986 34.9148C31.1463 35.1458 30.8736 35.4489 30.6804 35.8239C30.491 36.1951 30.3963 36.5985 30.3963 37.0341V38.0284C30.3963 38.6117 30.4986 39.108 30.7031 39.517C30.9115 39.9261 31.2012 40.2386 31.5724 40.4545C31.9437 40.6667 32.3774 40.7727 32.8736 40.7727C33.1955 40.7727 33.4891 40.7273 33.7543 40.6364C34.0194 40.5417 34.2486 40.4015 34.4418 40.2159C34.6349 40.0303 34.7827 39.8011 34.8849 39.5284L36.4929 39.8182C36.3641 40.2917 36.133 40.7064 35.7997 41.0625C35.4702 41.4148 35.0554 41.6894 34.5554 41.8864C34.0592 42.0795 33.4929 42.1761 32.8565 42.1761ZM42.5597 33.2727V34.6364H37.7926V33.2727H42.5597ZM39.071 31.1818H40.7699V39.4375C40.7699 39.767 40.8191 40.0152 40.9176 40.1818C41.0161 40.3447 41.143 40.4564 41.2983 40.517C41.4574 40.5739 41.6297 40.6023 41.8153 40.6023C41.9517 40.6023 42.071 40.5928 42.1733 40.5739C42.2756 40.5549 42.3551 40.5398 42.4119 40.5284L42.7188 41.9318C42.6203 41.9697 42.4801 42.0076 42.2983 42.0455C42.1165 42.0871 41.8892 42.1098 41.6165 42.1136C41.1695 42.1212 40.7528 42.0417 40.3665 41.875C39.9801 41.7083 39.6676 41.4508 39.429 41.1023C39.1903 40.7538 39.071 40.3163 39.071 39.7898V31.1818ZM48.8097 42V30.3636H52.9574C53.8627 30.3636 54.6127 30.5284 55.2074 30.858C55.8021 31.1875 56.2472 31.6383 56.5426 32.2102C56.8381 32.7784 56.9858 33.4186 56.9858 34.1307C56.9858 34.8466 56.8362 35.4905 56.5369 36.0625C56.2415 36.6307 55.7945 37.0814 55.196 37.4148C54.6013 37.7443 53.8532 37.9091 52.9517 37.9091H50.0994V36.4205H52.7926C53.3646 36.4205 53.8286 36.322 54.1847 36.125C54.5407 35.9242 54.8021 35.6515 54.9688 35.3068C55.1354 34.9621 55.2188 34.5701 55.2188 34.1307C55.2188 33.6913 55.1354 33.3011 54.9688 32.9602C54.8021 32.6193 54.5388 32.3523 54.179 32.1591C53.8229 31.9659 53.3532 31.8693 52.7699 31.8693H50.5653V42H48.8097ZM58.9077 42V33.2727H60.5497V34.6591H60.6406C60.7997 34.1894 61.08 33.8201 61.4815 33.5511C61.8868 33.2784 62.3452 33.142 62.8565 33.142C62.9626 33.142 63.0876 33.1458 63.2315 33.1534C63.3793 33.161 63.4948 33.1705 63.5781 33.1818V34.8068C63.5099 34.7879 63.3887 34.767 63.2145 34.7443C63.0402 34.7178 62.866 34.7045 62.6918 34.7045C62.2902 34.7045 61.9323 34.7898 61.6179 34.9602C61.3073 35.1269 61.0611 35.3598 60.8793 35.6591C60.6974 35.9545 60.6065 36.2917 60.6065 36.6705V42H58.9077ZM68.4119 42.1761C67.5938 42.1761 66.8797 41.9886 66.2699 41.6136C65.66 41.2386 65.1866 40.714 64.8494 40.0398C64.5123 39.3655 64.3438 38.5777 64.3438 37.6761C64.3438 36.7708 64.5123 35.9792 64.8494 35.3011C65.1866 34.6231 65.66 34.0966 66.2699 33.7216C66.8797 33.3466 67.5938 33.1591 68.4119 33.1591C69.2301 33.1591 69.9441 33.3466 70.554 33.7216C71.1638 34.0966 71.6373 34.6231 71.9744 35.3011C72.3116 35.9792 72.4801 36.7708 72.4801 37.6761C72.4801 38.5777 72.3116 39.3655 71.9744 40.0398C71.6373 40.714 71.1638 41.2386 70.554 41.6136C69.9441 41.9886 69.2301 42.1761 68.4119 42.1761ZM68.4176 40.75C68.9479 40.75 69.3873 40.6098 69.7358 40.3295C70.0843 40.0492 70.3419 39.6761 70.5085 39.2102C70.679 38.7443 70.7642 38.2311 70.7642 37.6705C70.7642 37.1136 70.679 36.6023 70.5085 36.1364C70.3419 35.6667 70.0843 35.2898 69.7358 35.0057C69.3873 34.7216 68.9479 34.5795 68.4176 34.5795C67.8835 34.5795 67.4403 34.7216 67.0881 35.0057C66.7396 35.2898 66.4801 35.6667 66.3097 36.1364C66.143 36.6023 66.0597 37.1136 66.0597 37.6705C66.0597 38.2311 66.143 38.7443 66.3097 39.2102C66.4801 39.6761 66.7396 40.0492 67.0881 40.3295C67.4403 40.6098 67.8835 40.75 68.4176 40.75ZM74.3764 42V33.2727H76.0071V34.6932H76.1151C76.2969 34.2121 76.5942 33.8371 77.0071 33.5682C77.42 33.2955 77.9143 33.1591 78.4901 33.1591C79.0734 33.1591 79.562 33.2955 79.956 33.5682C80.3537 33.8409 80.6473 34.2159 80.8366 34.6932H80.9276C81.1359 34.2273 81.4673 33.8561 81.9219 33.5795C82.3764 33.2992 82.9181 33.1591 83.5469 33.1591C84.3385 33.1591 84.9844 33.4072 85.4844 33.9034C85.9882 34.3996 86.2401 35.1477 86.2401 36.1477V42H84.5412V36.3068C84.5412 35.7159 84.3802 35.2879 84.0582 35.0227C83.7363 34.7576 83.3518 34.625 82.9048 34.625C82.3518 34.625 81.9219 34.7955 81.6151 35.1364C81.3082 35.4735 81.1548 35.9072 81.1548 36.4375V42H79.4616V36.1989C79.4616 35.7254 79.3139 35.3447 79.0185 35.0568C78.723 34.7689 78.3385 34.625 77.8651 34.625C77.5431 34.625 77.2457 34.7102 76.973 34.8807C76.7041 35.0473 76.4863 35.2803 76.3196 35.5795C76.1567 35.8788 76.0753 36.2254 76.0753 36.6193V42H74.3764ZM92.1932 42.1761C91.375 42.1761 90.661 41.9886 90.0511 41.6136C89.4413 41.2386 88.9678 40.714 88.6307 40.0398C88.2936 39.3655 88.125 38.5777 88.125 37.6761C88.125 36.7708 88.2936 35.9792 88.6307 35.3011C88.9678 34.6231 89.4413 34.0966 90.0511 33.7216C90.661 33.3466 91.375 33.1591 92.1932 33.1591C93.0114 33.1591 93.7254 33.3466 94.3352 33.7216C94.9451 34.0966 95.4186 34.6231 95.7557 35.3011C96.0928 35.9792 96.2614 36.7708 96.2614 37.6761C96.2614 38.5777 96.0928 39.3655 95.7557 40.0398C95.4186 40.714 94.9451 41.2386 94.3352 41.6136C93.7254 41.9886 93.0114 42.1761 92.1932 42.1761ZM92.1989 40.75C92.7292 40.75 93.1686 40.6098 93.517 40.3295C93.8655 40.0492 94.1231 39.6761 94.2898 39.2102C94.4602 38.7443 94.5455 38.2311 94.5455 37.6705C94.5455 37.1136 94.4602 36.6023 94.2898 36.1364C94.1231 35.6667 93.8655 35.2898 93.517 35.0057C93.1686 34.7216 92.7292 34.5795 92.1989 34.5795C91.6648 34.5795 91.2216 34.7216 90.8693 35.0057C90.5208 35.2898 90.2614 35.6667 90.0909 36.1364C89.9242 36.6023 89.8409 37.1136 89.8409 37.6705C89.8409 38.2311 89.9242 38.7443 90.0909 39.2102C90.2614 39.6761 90.5208 40.0492 90.8693 40.3295C91.2216 40.6098 91.6648 40.75 92.1989 40.75ZM102.232 33.2727V34.6364H97.4645V33.2727H102.232ZM98.7429 31.1818H100.442V39.4375C100.442 39.767 100.491 40.0152 100.589 40.1818C100.688 40.3447 100.815 40.4564 100.97 40.517C101.129 40.5739 101.302 40.6023 101.487 40.6023C101.624 40.6023 101.743 40.5928 101.845 40.5739C101.947 40.5549 102.027 40.5398 102.084 40.5284L102.391 41.9318C102.292 41.9697 102.152 42.0076 101.97 42.0455C101.788 42.0871 101.561 42.1098 101.288 42.1136C100.841 42.1212 100.425 42.0417 100.038 41.875C99.652 41.7083 99.3395 41.4508 99.1009 41.1023C98.8622 40.7538 98.7429 40.3163 98.7429 39.7898V31.1818ZM107.778 42.1761C106.919 42.1761 106.178 41.9924 105.557 41.625C104.939 41.2538 104.462 40.733 104.125 40.0625C103.792 39.3883 103.625 38.5985 103.625 37.6932C103.625 36.7992 103.792 36.0114 104.125 35.3295C104.462 34.6477 104.932 34.1155 105.534 33.733C106.14 33.3504 106.848 33.1591 107.659 33.1591C108.152 33.1591 108.629 33.2405 109.091 33.4034C109.553 33.5663 109.968 33.822 110.335 34.1705C110.703 34.5189 110.992 34.9716 111.205 35.5284C111.417 36.0814 111.523 36.7538 111.523 37.5455V38.1477H104.585V36.875H109.858C109.858 36.428 109.767 36.0322 109.585 35.6875C109.403 35.339 109.148 35.0644 108.818 34.8636C108.492 34.6629 108.11 34.5625 107.67 34.5625C107.193 34.5625 106.777 34.6799 106.42 34.9148C106.068 35.1458 105.795 35.4489 105.602 35.8239C105.413 36.1951 105.318 36.5985 105.318 37.0341V38.0284C105.318 38.6117 105.42 39.108 105.625 39.517C105.833 39.9261 106.123 40.2386 106.494 40.4545C106.866 40.6667 107.299 40.7727 107.795 40.7727C108.117 40.7727 108.411 40.7273 108.676 40.6364C108.941 40.5417 109.17 40.4015 109.364 40.2159C109.557 40.0303 109.705 39.8011 109.807 39.5284L111.415 39.8182C111.286 40.2917 111.055 40.7064 110.722 41.0625C110.392 41.4148 109.977 41.6894 109.477 41.8864C108.981 42.0795 108.415 42.1761 107.778 42.1761ZM113.408 42V33.2727H115.05V34.6591H115.141C115.3 34.1894 115.58 33.8201 115.982 33.5511C116.387 33.2784 116.845 33.142 117.357 33.142C117.463 33.142 117.588 33.1458 117.732 33.1534C117.879 33.161 117.995 33.1705 118.078 33.1818V34.8068C118.01 34.7879 117.889 34.767 117.714 34.7443C117.54 34.7178 117.366 34.7045 117.192 34.7045C116.79 34.7045 116.432 34.7898 116.118 34.9602C115.807 35.1269 115.561 35.3598 115.379 35.6591C115.197 35.9545 115.107 36.2917 115.107 36.6705V42H113.408ZM130.266 33.4205C130.205 32.8826 129.955 32.4659 129.516 32.1705C129.076 31.8712 128.523 31.7216 127.857 31.7216C127.379 31.7216 126.966 31.7973 126.618 31.9489C126.269 32.0966 125.999 32.3011 125.805 32.5625C125.616 32.8201 125.521 33.1136 125.521 33.4432C125.521 33.7197 125.586 33.9583 125.714 34.1591C125.847 34.3598 126.019 34.5284 126.232 34.6648C126.447 34.7973 126.679 34.9091 126.925 35C127.171 35.0871 127.408 35.1591 127.635 35.2159L128.771 35.5114C129.143 35.6023 129.523 35.7254 129.913 35.8807C130.304 36.036 130.665 36.2405 130.999 36.4943C131.332 36.7481 131.601 37.0625 131.805 37.4375C132.014 37.8125 132.118 38.2614 132.118 38.7841C132.118 39.4432 131.947 40.0284 131.607 40.5398C131.269 41.0511 130.779 41.4545 130.135 41.75C129.495 42.0455 128.72 42.1932 127.811 42.1932C126.94 42.1932 126.186 42.0549 125.55 41.7784C124.913 41.5019 124.415 41.1098 124.055 40.6023C123.696 40.0909 123.497 39.4848 123.459 38.7841H125.22C125.254 39.2045 125.391 39.5549 125.629 39.8352C125.872 40.1117 126.18 40.3182 126.555 40.4545C126.934 40.5871 127.349 40.6534 127.8 40.6534C128.296 40.6534 128.737 40.5758 129.124 40.4205C129.514 40.2614 129.821 40.0417 130.044 39.7614C130.268 39.4773 130.379 39.1458 130.379 38.767C130.379 38.4223 130.281 38.1402 130.084 37.9205C129.891 37.7008 129.627 37.5189 129.294 37.375C128.964 37.2311 128.591 37.1042 128.175 36.9943L126.8 36.6193C125.868 36.3655 125.129 35.9924 124.584 35.5C124.042 35.0076 123.771 34.3561 123.771 33.5455C123.771 32.875 123.953 32.2898 124.317 31.7898C124.68 31.2898 125.173 30.9015 125.794 30.625C126.415 30.3447 127.116 30.2045 127.896 30.2045C128.684 30.2045 129.379 30.3428 129.982 30.6193C130.588 30.8958 131.065 31.2765 131.413 31.7614C131.762 32.2424 131.944 32.7955 131.959 33.4205H130.266ZM137.756 42.1761C136.911 42.1761 136.184 41.9848 135.574 41.6023C134.968 41.2159 134.502 40.6837 134.176 40.0057C133.85 39.3277 133.688 38.5511 133.688 37.6761C133.688 36.7898 133.854 36.0076 134.188 35.3295C134.521 34.6477 134.991 34.1155 135.597 33.733C136.203 33.3504 136.917 33.1591 137.739 33.1591C138.402 33.1591 138.992 33.2822 139.511 33.5284C140.03 33.7708 140.449 34.1117 140.767 34.5511C141.089 34.9905 141.28 35.5038 141.341 36.0909H139.688C139.597 35.6818 139.388 35.3295 139.062 35.0341C138.741 34.7386 138.309 34.5909 137.767 34.5909C137.294 34.5909 136.879 34.7159 136.523 34.9659C136.17 35.2121 135.896 35.5644 135.699 36.0227C135.502 36.4773 135.403 37.0152 135.403 37.6364C135.403 38.2727 135.5 38.822 135.693 39.2841C135.886 39.7462 136.159 40.1042 136.511 40.358C136.867 40.6117 137.286 40.7386 137.767 40.7386C138.089 40.7386 138.381 40.6799 138.642 40.5625C138.907 40.4413 139.129 40.2689 139.307 40.0455C139.489 39.822 139.616 39.553 139.688 39.2386H141.341C141.28 39.803 141.097 40.3068 140.79 40.75C140.483 41.1932 140.072 41.5417 139.557 41.7955C139.045 42.0492 138.445 42.1761 137.756 42.1761ZM146.834 42.1761C146.016 42.1761 145.302 41.9886 144.692 41.6136C144.082 41.2386 143.608 40.714 143.271 40.0398C142.934 39.3655 142.766 38.5777 142.766 37.6761C142.766 36.7708 142.934 35.9792 143.271 35.3011C143.608 34.6231 144.082 34.0966 144.692 33.7216C145.302 33.3466 146.016 33.1591 146.834 33.1591C147.652 33.1591 148.366 33.3466 148.976 33.7216C149.586 34.0966 150.059 34.6231 150.396 35.3011C150.733 35.9792 150.902 36.7708 150.902 37.6761C150.902 38.5777 150.733 39.3655 150.396 40.0398C150.059 40.714 149.586 41.2386 148.976 41.6136C148.366 41.9886 147.652 42.1761 146.834 42.1761ZM146.839 40.75C147.37 40.75 147.809 40.6098 148.158 40.3295C148.506 40.0492 148.764 39.6761 148.93 39.2102C149.101 38.7443 149.186 38.2311 149.186 37.6705C149.186 37.1136 149.101 36.6023 148.93 36.1364C148.764 35.6667 148.506 35.2898 148.158 35.0057C147.809 34.7216 147.37 34.5795 146.839 34.5795C146.305 34.5795 145.862 34.7216 145.51 35.0057C145.161 35.2898 144.902 35.6667 144.732 36.1364C144.565 36.6023 144.482 37.1136 144.482 37.6705C144.482 38.2311 144.565 38.7443 144.732 39.2102C144.902 39.6761 145.161 40.0492 145.51 40.3295C145.862 40.6098 146.305 40.75 146.839 40.75ZM152.798 42V33.2727H154.44V34.6591H154.531C154.69 34.1894 154.971 33.8201 155.372 33.5511C155.777 33.2784 156.236 33.142 156.747 33.142C156.853 33.142 156.978 33.1458 157.122 33.1534C157.27 33.161 157.385 33.1705 157.469 33.1818V34.8068C157.401 34.7879 157.279 34.767 157.105 34.7443C156.931 34.7178 156.757 34.7045 156.582 34.7045C156.181 34.7045 155.823 34.7898 155.509 34.9602C155.198 35.1269 154.952 35.3598 154.77 35.6591C154.588 35.9545 154.497 36.2917 154.497 36.6705V42H152.798ZM162.388 42.1761C161.528 42.1761 160.787 41.9924 160.166 41.625C159.549 41.2538 159.071 40.733 158.734 40.0625C158.401 39.3883 158.234 38.5985 158.234 37.6932C158.234 36.7992 158.401 36.0114 158.734 35.3295C159.071 34.6477 159.541 34.1155 160.143 33.733C160.75 33.3504 161.458 33.1591 162.268 33.1591C162.761 33.1591 163.238 33.2405 163.7 33.4034C164.162 33.5663 164.577 33.822 164.945 34.1705C165.312 34.5189 165.602 34.9716 165.814 35.5284C166.026 36.0814 166.132 36.7538 166.132 37.5455V38.1477H159.195V36.875H164.467C164.467 36.428 164.376 36.0322 164.195 35.6875C164.013 35.339 163.757 35.0644 163.428 34.8636C163.102 34.6629 162.719 34.5625 162.28 34.5625C161.803 34.5625 161.386 34.6799 161.03 34.9148C160.678 35.1458 160.405 35.4489 160.212 35.8239C160.022 36.1951 159.928 36.5985 159.928 37.0341V38.0284C159.928 38.6117 160.03 39.108 160.234 39.517C160.443 39.9261 160.732 40.2386 161.104 40.4545C161.475 40.6667 161.909 40.7727 162.405 40.7727C162.727 40.7727 163.02 40.7273 163.286 40.6364C163.551 40.5417 163.78 40.4015 163.973 40.2159C164.166 40.0303 164.314 39.8011 164.416 39.5284L166.024 39.8182C165.895 40.2917 165.664 40.7064 165.331 41.0625C165.001 41.4148 164.587 41.6894 164.087 41.8864C163.59 42.0795 163.024 42.1761 162.388 42.1761Z" fill="#AFAAC7"/>
<path fill-rule="evenodd" clip-rule="evenodd" d="M193 36C193 38.1217 192.157 40.1566 190.657 41.6569C189.157 43.1571 187.122 44 185 44C182.878 44 180.843 43.1571 179.343 41.6569C177.843 40.1566 177 38.1217 177 36C177 33.8783 177.843 31.8434 179.343 30.3431C180.843 28.8429 182.878 28 185 28C187.122 28 189.157 28.8429 190.657 30.3431C192.157 31.8434 193 33.8783 193 36ZM186 32C186 32.2652 185.895 32.5196 185.707 32.7071C185.52 32.8946 185.265 33 185 33C184.735 33 184.48 32.8946 184.293 32.7071C184.105 32.5196 184 32.2652 184 32C184 31.7348 184.105 31.4804 184.293 31.2929C184.48 31.1054 184.735 31 185 31C185.265 31 185.52 31.1054 185.707 31.2929C185.895 31.4804 186 31.7348 186 32ZM184 35C183.801 35 183.61 35.079 183.47 35.2197C183.329 35.3603 183.25 35.5511 183.25 35.75C183.25 35.9489 183.329 36.1397 183.47 36.2803C183.61 36.421 183.801 36.5 184 36.5H184.253C184.29 36.5 184.327 36.5084 184.361 36.5246C184.395 36.5408 184.424 36.5643 184.448 36.5935C184.471 36.6227 184.488 36.6567 184.496 36.6932C184.505 36.7296 184.505 36.7675 184.497 36.804L184.038 38.87C183.981 39.1259 183.982 39.3913 184.042 39.6466C184.101 39.902 184.217 40.1407 184.381 40.3452C184.545 40.5496 184.753 40.7146 184.99 40.828C185.226 40.9413 185.485 41.0001 185.747 41H186C186.199 41 186.39 40.921 186.53 40.7803C186.671 40.6397 186.75 40.4489 186.75 40.25C186.75 40.0511 186.671 39.8603 186.53 39.7197C186.39 39.579 186.199 39.5 186 39.5H185.747C185.71 39.5 185.673 39.4916 185.639 39.4754C185.605 39.4592 185.576 39.4357 185.552 39.4065C185.529 39.3773 185.512 39.3433 185.504 39.3068C185.495 39.2704 185.495 39.2325 185.503 39.196L185.962 37.13C186.019 36.8741 186.018 36.6087 185.958 36.3534C185.899 36.098 185.783 35.8593 185.619 35.6548C185.455 35.4504 185.247 35.2854 185.01 35.172C184.774 35.0587 184.515 34.9999 184.253 35H184Z" fill="#AFAAC7"/>
<path d="M220.97 185.484C220.97 158.303 210.173 132.236 190.953 113.017C171.734 93.7974 145.667 83 118.487 83C91.3062 83 65.239 93.7974 46.0196 113.017C26.8002 132.236 16.0028 158.303 16.0028 185.484L50.5306 185.484C50.5306 167.461 57.6902 150.176 70.4344 137.432C83.1786 124.687 100.464 117.528 118.487 117.528C136.51 117.528 153.794 124.687 166.539 137.432C179.283 150.176 186.442 167.461 186.442 185.484L220.97 185.484Z" fill="#5D45DB"/>
<path d="M220.97 185.484C220.97 164.176 214.329 143.398 201.97 126.041C189.611 108.683 172.149 95.6099 152.013 88.6392L140.603 121.598C153.886 126.196 165.405 134.821 173.558 146.271C181.711 157.721 186.092 171.428 186.092 185.484L220.97 185.484Z" fill="#1BD598"/>
<path d="M84.9089 88.6559C64.777 95.6366 47.3216 108.719 34.9711 126.082C22.6207 143.446 15.9895 164.227 16 185.535L50.9327 185.517C50.9257 171.473 55.2966 157.775 63.4373 146.33C71.5779 134.885 83.0835 126.262 96.3532 121.661L84.9089 88.6559Z" fill="#DA384E"/>
<path d="M165.976 94.6638C150.601 86.6252 133.436 82.6216 116.091 83.0282C98.7462 83.4347 81.7882 88.2382 66.8065 96.9883L84.4498 127.197C94.3175 121.433 105.487 118.27 116.911 118.002C128.335 117.734 139.641 120.371 149.767 125.666L165.976 94.6638Z" fill="#FFB17B"/>
<path d="M89.0103 222.14V206.969H92.0287V222.14H89.0103ZM82.9399 216.058V213.051H98.1104V216.058H82.9399ZM102.773 221.512V218.706L112.703 203.02H114.914V207.149H113.511L106.408 218.392V218.572H120.019V221.512H102.773ZM113.668 226V220.659L113.691 219.38V203.02H116.978V226H113.668ZM131.694 226.314C130.086 226.314 128.665 226.037 127.43 225.484C126.204 224.93 125.242 224.167 124.547 223.195C123.851 222.222 123.507 221.115 123.514 219.873C123.507 218.901 123.705 218.007 124.109 217.192C124.521 216.369 125.078 215.684 125.781 215.138C126.484 214.585 127.27 214.233 128.137 214.083V213.949C126.993 213.672 126.077 213.059 125.388 212.109C124.7 211.159 124.36 210.066 124.367 208.832C124.36 207.658 124.67 206.61 125.299 205.69C125.934 204.763 126.806 204.033 127.913 203.502C129.02 202.971 130.281 202.706 131.694 202.706C133.093 202.706 134.343 202.975 135.442 203.513C136.549 204.045 137.421 204.774 138.057 205.702C138.692 206.622 139.014 207.665 139.022 208.832C139.014 210.066 138.663 211.159 137.967 212.109C137.271 213.059 136.366 213.672 135.251 213.949V214.083C136.112 214.233 136.886 214.585 137.574 215.138C138.27 215.684 138.823 216.369 139.235 217.192C139.654 218.007 139.867 218.901 139.874 219.873C139.867 221.115 139.515 222.222 138.82 223.195C138.124 224.167 137.159 224.93 135.925 225.484C134.698 226.037 133.288 226.314 131.694 226.314ZM131.694 223.475C132.644 223.475 133.467 223.318 134.163 223.004C134.859 222.682 135.397 222.237 135.779 221.669C136.16 221.093 136.355 220.42 136.362 219.649C136.355 218.849 136.145 218.142 135.734 217.528C135.33 216.915 134.78 216.432 134.084 216.081C133.389 215.729 132.592 215.553 131.694 215.553C130.789 215.553 129.985 215.729 129.282 216.081C128.579 216.432 128.025 216.915 127.621 217.528C127.217 218.142 127.019 218.849 127.027 219.649C127.019 220.42 127.202 221.093 127.576 221.669C127.958 222.237 128.5 222.682 129.203 223.004C129.907 223.318 130.737 223.475 131.694 223.475ZM131.694 212.782C132.457 212.782 133.134 212.629 133.725 212.322C134.316 212.015 134.78 211.589 135.117 211.043C135.461 210.497 135.637 209.857 135.644 209.124C135.637 208.406 135.465 207.777 135.128 207.239C134.799 206.7 134.339 206.285 133.748 205.993C133.157 205.694 132.472 205.544 131.694 205.544C130.901 205.544 130.206 205.694 129.607 205.993C129.016 206.285 128.556 206.7 128.227 207.239C127.898 207.777 127.737 208.406 127.745 209.124C127.737 209.857 127.902 210.497 128.238 211.043C128.575 211.589 129.039 212.015 129.63 212.322C130.228 212.629 130.916 212.782 131.694 212.782Z" fill="white"/>
<path d="M148.841 219.7C148.697 219.927 148.618 220.188 148.61 220.456C148.602 220.724 148.666 220.99 148.796 221.225C148.926 221.46 149.116 221.655 149.347 221.792C149.578 221.928 149.841 222 150.11 222L161.89 222C162.158 222 162.421 221.928 162.652 221.792C162.883 221.655 163.073 221.46 163.203 221.225C163.333 220.99 163.397 220.724 163.389 220.456C163.381 220.188 163.302 219.927 163.159 219.7L157.269 210.356C157.133 210.142 156.946 209.965 156.724 209.842C156.502 209.72 156.253 209.656 156 209.656C155.746 209.656 155.497 209.72 155.275 209.842C155.053 209.965 154.866 210.142 154.731 210.356L148.84 219.7L148.841 219.7Z" fill="#FFB17B"/>
<path d="M25.6705 175.168V176.105H21.8523V175.168H25.6705ZM30.4911 171.273V180H29.4343V172.381H29.3832L27.2525 173.795V172.722L29.4343 171.273H30.4911ZM35.8477 180.119C35.2056 180.119 34.6587 179.945 34.207 179.595C33.7553 179.243 33.4102 178.733 33.1715 178.065C32.9329 177.395 32.8136 176.585 32.8136 175.636C32.8136 174.693 32.9329 173.888 33.1715 173.22C33.413 172.55 33.7596 172.038 34.2113 171.686C34.6658 171.331 35.2113 171.153 35.8477 171.153C36.484 171.153 37.0281 171.331 37.4798 171.686C37.9343 172.038 38.2809 172.55 38.5195 173.22C38.761 173.888 38.8817 174.693 38.8817 175.636C38.8817 176.585 38.7624 177.395 38.5238 178.065C38.2852 178.733 37.94 179.243 37.4883 179.595C37.0366 179.945 36.4897 180.119 35.8477 180.119ZM35.8477 179.182C36.484 179.182 36.9783 178.875 37.3306 178.261C37.6829 177.648 37.859 176.773 37.859 175.636C37.859 174.881 37.7781 174.237 37.6161 173.706C37.457 173.175 37.2269 172.77 36.9258 172.491C36.6275 172.213 36.2681 172.074 35.8477 172.074C35.217 172.074 34.7241 172.385 34.369 173.007C34.0138 173.626 33.8363 174.503 33.8363 175.636C33.8363 176.392 33.9158 177.034 34.0749 177.562C34.234 178.091 34.4627 178.493 34.761 178.768C35.0621 179.044 35.4244 179.182 35.8477 179.182ZM43.3477 180.119C42.7056 180.119 42.1587 179.945 41.707 179.595C41.2553 179.243 40.9102 178.733 40.6715 178.065C40.4329 177.395 40.3136 176.585 40.3136 175.636C40.3136 174.693 40.4329 173.888 40.6715 173.22C40.913 172.55 41.2596 172.038 41.7113 171.686C42.1658 171.331 42.7113 171.153 43.3477 171.153C43.984 171.153 44.5281 171.331 44.9798 171.686C45.4343 172.038 45.7809 172.55 46.0195 173.22C46.261 173.888 46.3817 174.693 46.3817 175.636C46.3817 176.585 46.2624 177.395 46.0238 178.065C45.7852 178.733 45.44 179.243 44.9883 179.595C44.5366 179.945 43.9897 180.119 43.3477 180.119ZM43.3477 179.182C43.984 179.182 44.4783 178.875 44.8306 178.261C45.1829 177.648 45.359 176.773 45.359 175.636C45.359 174.881 45.2781 174.237 45.1161 173.706C44.957 173.175 44.7269 172.77 44.4258 172.491C44.1275 172.213 43.7681 172.074 43.3477 172.074C42.717 172.074 42.2241 172.385 41.869 173.007C41.5138 173.626 41.3363 174.503 41.3363 175.636C41.3363 176.392 41.4158 177.034 41.5749 177.562C41.734 178.091 41.9627 178.493 42.261 178.768C42.5621 179.044 42.9244 179.182 43.3477 179.182Z" fill="#FDB9C2"/>
<path d="M191.477 179.466V173.841H192.432V179.466H191.477ZM189.142 177.131V176.176H194.767V177.131H189.142ZM199.882 172.273V181H198.825V173.381H198.774L196.643 174.795V173.722L198.825 172.273H199.882ZM205.238 181.119C204.596 181.119 204.049 180.945 203.598 180.595C203.146 180.243 202.801 179.733 202.562 179.065C202.324 178.395 202.204 177.585 202.204 176.636C202.204 175.693 202.324 174.888 202.562 174.22C202.804 173.55 203.15 173.038 203.602 172.686C204.056 172.331 204.602 172.153 205.238 172.153C205.875 172.153 206.419 172.331 206.87 172.686C207.325 173.038 207.672 173.55 207.91 174.22C208.152 174.888 208.272 175.693 208.272 176.636C208.272 177.585 208.153 178.395 207.914 179.065C207.676 179.733 207.331 180.243 206.879 180.595C206.427 180.945 205.88 181.119 205.238 181.119ZM205.238 180.182C205.875 180.182 206.369 179.875 206.721 179.261C207.074 178.648 207.25 177.773 207.25 176.636C207.25 175.881 207.169 175.237 207.007 174.706C206.848 174.175 206.618 173.77 206.316 173.491C206.018 173.213 205.659 173.074 205.238 173.074C204.608 173.074 204.115 173.385 203.76 174.007C203.404 174.626 203.227 175.503 203.227 176.636C203.227 177.392 203.306 178.034 203.466 178.562C203.625 179.091 203.853 179.493 204.152 179.768C204.453 180.044 204.815 180.182 205.238 180.182ZM212.738 181.119C212.096 181.119 211.549 180.945 211.098 180.595C210.646 180.243 210.301 179.733 210.062 179.065C209.824 178.395 209.704 177.585 209.704 176.636C209.704 175.693 209.824 174.888 210.062 174.22C210.304 173.55 210.65 173.038 211.102 172.686C211.556 172.331 212.102 172.153 212.738 172.153C213.375 172.153 213.919 172.331 214.37 172.686C214.825 173.038 215.172 173.55 215.41 174.22C215.652 174.888 215.772 175.693 215.772 176.636C215.772 177.585 215.653 178.395 215.414 179.065C215.176 179.733 214.831 180.243 214.379 180.595C213.927 180.945 213.38 181.119 212.738 181.119ZM212.738 180.182C213.375 180.182 213.869 179.875 214.221 179.261C214.574 178.648 214.75 177.773 214.75 176.636C214.75 175.881 214.669 175.237 214.507 174.706C214.348 174.175 214.118 173.77 213.816 173.491C213.518 173.213 213.159 173.074 212.738 173.074C212.108 173.074 211.615 173.385 211.26 174.007C210.904 174.626 210.727 175.503 210.727 176.636C210.727 177.392 210.806 178.034 210.966 178.562C211.125 179.091 211.353 179.493 211.652 179.768C211.953 180.044 212.315 180.182 212.738 180.182Z" fill="#AEFFE4"/>
<path d="M118.452 183.951C117.998 186.061 115.871 187.36 113.786 186.802C111.72 186.248 110.526 184.089 111.156 182.045L133.252 110.371C133.333 110.107 133.609 109.954 133.877 110.026C134.142 110.097 134.304 110.363 134.247 110.631L118.452 183.951Z" fill="#AFAAC7"/>
<rect x="251" y="104" width="12" height="12" rx="2" fill="#1BD598"/>
<path d="M272.233 115V104.818H275.673C276.472 104.818 277.125 104.962 277.632 105.251C278.143 105.536 278.52 105.922 278.766 106.409C279.011 106.896 279.134 107.44 279.134 108.04C279.134 108.64 279.011 109.185 278.766 109.675C278.524 110.166 278.149 110.557 277.642 110.849C277.135 111.137 276.485 111.281 275.693 111.281H273.227V110.188H275.653C276.2 110.188 276.639 110.093 276.971 109.904C277.302 109.715 277.543 109.46 277.692 109.138C277.844 108.814 277.92 108.447 277.92 108.04C277.92 107.632 277.844 107.268 277.692 106.946C277.543 106.625 277.301 106.373 276.966 106.19C276.631 106.005 276.187 105.912 275.634 105.912H273.466V115H272.233ZM280.961 115V107.364H282.094V108.517H282.174C282.313 108.139 282.565 107.833 282.929 107.597C283.294 107.362 283.705 107.244 284.162 107.244C284.248 107.244 284.356 107.246 284.485 107.249C284.615 107.253 284.712 107.258 284.779 107.264V108.457C284.739 108.447 284.648 108.433 284.505 108.413C284.366 108.389 284.219 108.378 284.063 108.378C283.692 108.378 283.36 108.456 283.069 108.612C282.78 108.764 282.551 108.976 282.382 109.248C282.217 109.516 282.134 109.823 282.134 110.168V115H280.961ZM289.039 115.159C288.35 115.159 287.745 114.995 287.225 114.667C286.708 114.339 286.303 113.88 286.012 113.29C285.723 112.7 285.579 112.01 285.579 111.222C285.579 110.426 285.723 109.732 286.012 109.138C286.303 108.545 286.708 108.085 287.225 107.756C287.745 107.428 288.35 107.264 289.039 107.264C289.729 107.264 290.332 107.428 290.849 107.756C291.369 108.085 291.774 108.545 292.062 109.138C292.354 109.732 292.5 110.426 292.5 111.222C292.5 112.01 292.354 112.7 292.062 113.29C291.774 113.88 291.369 114.339 290.849 114.667C290.332 114.995 289.729 115.159 289.039 115.159ZM289.039 114.105C289.563 114.105 289.994 113.971 290.332 113.702C290.67 113.434 290.92 113.081 291.083 112.643C291.245 112.206 291.326 111.732 291.326 111.222C291.326 110.711 291.245 110.236 291.083 109.795C290.92 109.354 290.67 108.998 290.332 108.726C289.994 108.454 289.563 108.318 289.039 108.318C288.516 108.318 288.085 108.454 287.747 108.726C287.409 108.998 287.158 109.354 286.996 109.795C286.834 110.236 286.752 110.711 286.752 111.222C286.752 111.732 286.834 112.206 286.996 112.643C287.158 113.081 287.409 113.434 287.747 113.702C288.085 113.971 288.516 114.105 289.039 114.105ZM294.291 115V107.364H295.424V108.557H295.524C295.683 108.149 295.94 107.833 296.294 107.607C296.649 107.379 297.075 107.264 297.572 107.264C298.076 107.264 298.495 107.379 298.83 107.607C299.168 107.833 299.431 108.149 299.62 108.557H299.7C299.895 108.162 300.189 107.849 300.58 107.617C300.971 107.382 301.44 107.264 301.987 107.264C302.669 107.264 303.228 107.478 303.662 107.906C304.096 108.33 304.313 108.991 304.313 109.889V115H303.14V109.889C303.14 109.326 302.986 108.923 302.678 108.681C302.369 108.439 302.007 108.318 301.589 108.318C301.052 108.318 300.636 108.481 300.341 108.805C300.046 109.127 299.899 109.535 299.899 110.028V115H298.705V109.77C298.705 109.336 298.565 108.986 298.283 108.721C298.001 108.452 297.638 108.318 297.194 108.318C296.889 108.318 296.604 108.399 296.339 108.562C296.077 108.724 295.865 108.95 295.703 109.238C295.544 109.523 295.464 109.853 295.464 110.227V115H294.291ZM309.561 115.159C308.872 115.159 308.267 114.995 307.746 114.667C307.229 114.339 306.825 113.88 306.533 113.29C306.245 112.7 306.101 112.01 306.101 111.222C306.101 110.426 306.245 109.732 306.533 109.138C306.825 108.545 307.229 108.085 307.746 107.756C308.267 107.428 308.872 107.264 309.561 107.264C310.25 107.264 310.854 107.428 311.371 107.756C311.891 108.085 312.295 108.545 312.584 109.138C312.875 109.732 313.021 110.426 313.021 111.222C313.021 112.01 312.875 112.7 312.584 113.29C312.295 113.88 311.891 114.339 311.371 114.667C310.854 114.995 310.25 115.159 309.561 115.159ZM309.561 114.105C310.085 114.105 310.515 113.971 310.854 113.702C311.192 113.434 311.442 113.081 311.604 112.643C311.767 112.206 311.848 111.732 311.848 111.222C311.848 110.711 311.767 110.236 311.604 109.795C311.442 109.354 311.192 108.998 310.854 108.726C310.515 108.454 310.085 108.318 309.561 108.318C309.037 108.318 308.606 108.454 308.268 108.726C307.93 108.998 307.68 109.354 307.518 109.795C307.355 110.236 307.274 110.711 307.274 111.222C307.274 111.732 307.355 112.206 307.518 112.643C307.68 113.081 307.93 113.434 308.268 113.702C308.606 113.971 309.037 114.105 309.561 114.105ZM318.133 107.364V108.358H314.176V107.364H318.133ZM315.329 105.534H316.502V112.812C316.502 113.144 316.551 113.393 316.647 113.558C316.746 113.721 316.872 113.83 317.025 113.886C317.18 113.939 317.344 113.966 317.517 113.966C317.646 113.966 317.752 113.959 317.835 113.946C317.918 113.929 317.984 113.916 318.034 113.906L318.272 114.96C318.193 114.99 318.082 115.02 317.939 115.05C317.797 115.083 317.616 115.099 317.397 115.099C317.066 115.099 316.741 115.028 316.423 114.886C316.108 114.743 315.846 114.526 315.637 114.234C315.432 113.943 315.329 113.575 315.329 113.131V105.534ZM323.018 115.159C322.282 115.159 321.647 114.997 321.114 114.672C320.583 114.344 320.174 113.886 319.886 113.3C319.601 112.71 319.458 112.024 319.458 111.241C319.458 110.459 319.601 109.77 319.886 109.173C320.174 108.573 320.575 108.106 321.089 107.771C321.606 107.433 322.209 107.264 322.898 107.264C323.296 107.264 323.689 107.33 324.077 107.463C324.464 107.596 324.817 107.811 325.136 108.109C325.454 108.404 325.707 108.795 325.896 109.283C326.085 109.77 326.18 110.37 326.18 111.082V111.58H320.293V110.565H324.987C324.987 110.134 324.9 109.75 324.728 109.412C324.559 109.074 324.317 108.807 324.002 108.612C323.691 108.416 323.323 108.318 322.898 108.318C322.431 108.318 322.027 108.434 321.685 108.666C321.347 108.895 321.087 109.193 320.905 109.561C320.723 109.929 320.631 110.323 320.631 110.744V111.42C320.631 111.997 320.731 112.486 320.93 112.887C321.132 113.285 321.412 113.588 321.77 113.797C322.128 114.002 322.544 114.105 323.018 114.105C323.326 114.105 323.604 114.062 323.853 113.976C324.105 113.886 324.322 113.754 324.504 113.578C324.687 113.399 324.827 113.177 324.927 112.912L326.06 113.23C325.941 113.615 325.741 113.953 325.459 114.244C325.177 114.533 324.829 114.758 324.415 114.92C324 115.08 323.535 115.159 323.018 115.159ZM327.964 115V107.364H329.098V108.517H329.178C329.317 108.139 329.569 107.833 329.933 107.597C330.298 107.362 330.709 107.244 331.166 107.244C331.252 107.244 331.36 107.246 331.489 107.249C331.619 107.253 331.716 107.258 331.783 107.264V108.457C331.743 108.447 331.652 108.433 331.509 108.413C331.37 108.389 331.223 108.378 331.067 108.378C330.696 108.378 330.364 108.456 330.072 108.612C329.784 108.764 329.555 108.976 329.386 109.248C329.221 109.516 329.138 109.823 329.138 110.168V115H327.964ZM338.583 109.074L337.529 109.372C337.462 109.196 337.365 109.026 337.235 108.86C337.109 108.691 336.937 108.552 336.718 108.442C336.499 108.333 336.219 108.278 335.878 108.278C335.411 108.278 335.021 108.386 334.71 108.602C334.401 108.814 334.247 109.084 334.247 109.412C334.247 109.704 334.353 109.934 334.566 110.103C334.778 110.272 335.109 110.413 335.56 110.526L336.693 110.804C337.376 110.97 337.885 111.223 338.22 111.565C338.554 111.903 338.722 112.339 338.722 112.872C338.722 113.31 338.596 113.701 338.344 114.045C338.095 114.39 337.747 114.662 337.3 114.861C336.852 115.06 336.332 115.159 335.739 115.159C334.96 115.159 334.315 114.99 333.805 114.652C333.294 114.314 332.971 113.82 332.835 113.17L333.949 112.892C334.055 113.303 334.256 113.611 334.551 113.817C334.849 114.022 335.238 114.125 335.719 114.125C336.266 114.125 336.7 114.009 337.021 113.777C337.346 113.542 337.509 113.26 337.509 112.932C337.509 112.667 337.416 112.445 337.23 112.266C337.045 112.083 336.76 111.947 336.375 111.858L335.102 111.56C334.403 111.394 333.889 111.137 333.561 110.789C333.236 110.438 333.074 109.999 333.074 109.472C333.074 109.041 333.195 108.66 333.437 108.328C333.682 107.997 334.015 107.737 334.436 107.548C334.86 107.359 335.341 107.264 335.878 107.264C336.634 107.264 337.227 107.43 337.658 107.761C338.092 108.093 338.4 108.53 338.583 109.074ZM348.8 110.088V111.182H344.346V110.088H348.8ZM371.872 109.909C371.872 108.656 372.035 107.504 372.36 106.454C372.688 105.4 373.155 104.43 373.762 103.545H374.796C374.557 103.874 374.333 104.278 374.124 104.759C373.919 105.236 373.738 105.761 373.583 106.335C373.427 106.905 373.304 107.495 373.215 108.104C373.128 108.714 373.085 109.316 373.085 109.909C373.085 110.698 373.162 111.498 373.314 112.31C373.467 113.122 373.672 113.876 373.931 114.572C374.189 115.268 374.477 115.835 374.796 116.273H373.762C373.155 115.388 372.688 114.42 372.36 113.369C372.035 112.315 371.872 111.162 371.872 109.909ZM379.828 115.139C379.079 115.139 378.441 114.935 377.914 114.528C377.387 114.117 376.984 113.522 376.706 112.743C376.428 111.961 376.288 111.016 376.288 109.909C376.288 108.809 376.428 107.869 376.706 107.09C376.988 106.308 377.392 105.711 377.919 105.3C378.449 104.886 379.086 104.679 379.828 104.679C380.571 104.679 381.205 104.886 381.732 105.3C382.263 105.711 382.667 106.308 382.945 107.09C383.227 107.869 383.368 108.809 383.368 109.909C383.368 111.016 383.229 111.961 382.95 112.743C382.672 113.522 382.269 114.117 381.742 114.528C381.215 114.935 380.577 115.139 379.828 115.139ZM379.828 114.045C380.571 114.045 381.147 113.687 381.558 112.972C381.969 112.256 382.175 111.235 382.175 109.909C382.175 109.027 382.08 108.277 381.891 107.657C381.706 107.037 381.437 106.565 381.086 106.24C380.738 105.915 380.319 105.753 379.828 105.753C379.092 105.753 378.517 106.116 378.103 106.842C377.689 107.564 377.482 108.587 377.482 109.909C377.482 110.791 377.574 111.54 377.76 112.156C377.946 112.773 378.212 113.242 378.56 113.563C378.912 113.885 379.334 114.045 379.828 114.045ZM390.447 113.091V112.554C390.447 112.183 390.524 111.843 390.676 111.535C390.832 111.223 391.057 110.975 391.352 110.789C391.651 110.6 392.012 110.506 392.436 110.506C392.867 110.506 393.228 110.6 393.52 110.789C393.812 110.975 394.032 111.223 394.181 111.535C394.33 111.843 394.405 112.183 394.405 112.554V113.091C394.405 113.462 394.329 113.804 394.176 114.115C394.027 114.423 393.805 114.672 393.51 114.861C393.218 115.046 392.86 115.139 392.436 115.139C392.005 115.139 391.642 115.046 391.347 114.861C391.052 114.672 390.829 114.423 390.676 114.115C390.524 113.804 390.447 113.462 390.447 113.091ZM391.462 112.554V113.091C391.462 113.399 391.535 113.676 391.68 113.921C391.826 114.163 392.078 114.284 392.436 114.284C392.784 114.284 393.029 114.163 393.172 113.921C393.318 113.676 393.391 113.399 393.391 113.091V112.554C393.391 112.246 393.321 111.971 393.182 111.729C393.043 111.483 392.794 111.361 392.436 111.361C392.088 111.361 391.838 111.483 391.685 111.729C391.536 111.971 391.462 112.246 391.462 112.554ZM385.376 107.264V106.727C385.376 106.356 385.453 106.016 385.605 105.708C385.761 105.397 385.986 105.148 386.281 104.962C386.58 104.773 386.941 104.679 387.365 104.679C387.796 104.679 388.157 104.773 388.449 104.962C388.741 105.148 388.961 105.397 389.11 105.708C389.259 106.016 389.334 106.356 389.334 106.727V107.264C389.334 107.635 389.258 107.977 389.105 108.288C388.956 108.597 388.734 108.845 388.439 109.034C388.147 109.22 387.789 109.312 387.365 109.312C386.934 109.312 386.571 109.22 386.276 109.034C385.981 108.845 385.758 108.597 385.605 108.288C385.453 107.977 385.376 107.635 385.376 107.264ZM386.391 106.727V107.264C386.391 107.572 386.464 107.849 386.609 108.094C386.755 108.336 387.007 108.457 387.365 108.457C387.713 108.457 387.958 108.336 388.101 108.094C388.247 107.849 388.32 107.572 388.32 107.264V106.727C388.32 106.419 388.25 106.144 388.111 105.902C387.972 105.657 387.723 105.534 387.365 105.534C387.017 105.534 386.767 105.657 386.614 105.902C386.465 106.144 386.391 106.419 386.391 106.727ZM385.754 115L392.754 104.818H393.888L386.888 115H385.754ZM399.158 109.909C399.158 111.162 398.994 112.315 398.665 113.369C398.341 114.42 397.875 115.388 397.268 116.273H396.234C396.473 115.945 396.695 115.54 396.901 115.06C397.109 114.582 397.292 114.059 397.447 113.489C397.603 112.915 397.724 112.324 397.81 111.714C397.9 111.101 397.945 110.499 397.945 109.909C397.945 109.12 397.868 108.32 397.716 107.508C397.563 106.696 397.358 105.942 397.099 105.246C396.841 104.55 396.553 103.983 396.234 103.545H397.268C397.875 104.43 398.341 105.4 398.665 106.454C398.994 107.504 399.158 108.656 399.158 109.909Z" fill="#AFAAC7"/>
<path d="M355.22 109.909C355.22 108.656 355.382 107.504 355.707 106.454C356.035 105.4 356.503 104.43 357.109 103.545H358.143C357.905 103.874 357.681 104.278 357.472 104.759C357.267 105.236 357.086 105.761 356.93 106.335C356.774 106.905 356.652 107.495 356.562 108.104C356.476 108.714 356.433 109.316 356.433 109.909C356.433 110.698 356.509 111.498 356.662 112.31C356.814 113.122 357.02 113.876 357.278 114.572C357.537 115.268 357.825 115.835 358.143 116.273H357.109C356.503 115.388 356.035 114.42 355.707 113.369C355.382 112.315 355.22 111.162 355.22 109.909ZM363.434 104.818V115H362.201V106.111H362.142L359.656 107.761V106.509L362.201 104.818H363.434ZM368.888 109.909C368.888 111.162 368.724 112.315 368.396 113.369C368.071 114.42 367.605 115.388 366.999 116.273H365.965C366.203 115.945 366.426 115.54 366.631 115.06C366.84 114.582 367.022 114.059 367.178 113.489C367.334 112.915 367.455 112.324 367.541 111.714C367.63 111.101 367.675 110.499 367.675 109.909C367.675 109.12 367.599 108.32 367.446 107.508C367.294 106.696 367.088 105.942 366.83 105.246C366.571 104.55 366.283 103.983 365.965 103.545H366.999C367.605 104.43 368.071 105.4 368.396 106.454C368.724 107.504 368.888 108.656 368.888 109.909Z" fill="white"/>
<rect x="251" y="142" width="12" height="12" rx="2" fill="#FFB17B"/>
<path d="M272.233 153V142.818H275.673C276.472 142.818 277.125 142.962 277.632 143.251C278.143 143.536 278.52 143.922 278.766 144.409C279.011 144.896 279.134 145.44 279.134 146.04C279.134 146.64 279.011 147.185 278.766 147.675C278.524 148.166 278.149 148.557 277.642 148.849C277.135 149.137 276.485 149.281 275.693 149.281H273.227V148.188H275.653C276.2 148.188 276.639 148.093 276.971 147.904C277.302 147.715 277.543 147.46 277.692 147.138C277.844 146.814 277.92 146.447 277.92 146.04C277.92 145.632 277.844 145.268 277.692 144.946C277.543 144.625 277.301 144.373 276.966 144.19C276.631 144.005 276.187 143.912 275.634 143.912H273.466V153H272.233ZM283.208 153.179C282.724 153.179 282.285 153.088 281.89 152.906C281.496 152.72 281.183 152.453 280.951 152.105C280.719 151.754 280.603 151.33 280.603 150.832C280.603 150.395 280.689 150.04 280.861 149.768C281.033 149.493 281.264 149.278 281.552 149.122C281.841 148.966 282.159 148.85 282.507 148.774C282.858 148.695 283.211 148.632 283.566 148.585C284.03 148.526 284.406 148.481 284.694 148.451C284.986 148.418 285.198 148.363 285.331 148.287C285.467 148.211 285.534 148.078 285.534 147.889V147.849C285.534 147.359 285.4 146.978 285.132 146.706C284.867 146.434 284.464 146.298 283.924 146.298C283.364 146.298 282.924 146.421 282.606 146.666C282.288 146.911 282.064 147.173 281.935 147.452L280.821 147.054C281.02 146.59 281.285 146.229 281.617 145.97C281.952 145.708 282.316 145.526 282.711 145.423C283.108 145.317 283.499 145.264 283.884 145.264C284.129 145.264 284.411 145.294 284.729 145.354C285.051 145.41 285.36 145.528 285.659 145.707C285.96 145.886 286.211 146.156 286.409 146.517C286.608 146.878 286.708 147.362 286.708 147.969V153H285.534V151.966H285.475C285.395 152.132 285.263 152.309 285.077 152.498C284.891 152.687 284.645 152.848 284.336 152.98C284.028 153.113 283.652 153.179 283.208 153.179ZM283.387 152.125C283.851 152.125 284.242 152.034 284.56 151.852C284.882 151.669 285.123 151.434 285.286 151.146C285.452 150.857 285.534 150.554 285.534 150.236V149.162C285.485 149.222 285.375 149.276 285.206 149.326C285.041 149.372 284.848 149.414 284.63 149.45C284.414 149.483 284.204 149.513 283.998 149.54C283.796 149.563 283.632 149.583 283.506 149.599C283.201 149.639 282.916 149.704 282.651 149.793C282.389 149.879 282.177 150.01 282.015 150.186C281.855 150.358 281.776 150.594 281.776 150.892C281.776 151.3 281.927 151.608 282.228 151.817C282.533 152.022 282.919 152.125 283.387 152.125ZM294.258 147.074L293.204 147.372C293.138 147.196 293.04 147.026 292.911 146.86C292.785 146.691 292.613 146.552 292.394 146.442C292.175 146.333 291.895 146.278 291.554 146.278C291.086 146.278 290.697 146.386 290.385 146.602C290.077 146.814 289.923 147.084 289.923 147.412C289.923 147.704 290.029 147.934 290.241 148.103C290.453 148.272 290.785 148.413 291.236 148.526L292.369 148.804C293.052 148.97 293.561 149.223 293.895 149.565C294.23 149.903 294.398 150.339 294.398 150.872C294.398 151.31 294.272 151.701 294.02 152.045C293.771 152.39 293.423 152.662 292.976 152.861C292.528 153.06 292.008 153.159 291.415 153.159C290.636 153.159 289.991 152.99 289.481 152.652C288.97 152.314 288.647 151.82 288.511 151.17L289.625 150.892C289.731 151.303 289.931 151.611 290.226 151.817C290.525 152.022 290.914 152.125 291.395 152.125C291.942 152.125 292.376 152.009 292.697 151.777C293.022 151.542 293.184 151.26 293.184 150.932C293.184 150.667 293.092 150.445 292.906 150.266C292.72 150.083 292.435 149.947 292.051 149.858L290.778 149.56C290.079 149.394 289.565 149.137 289.237 148.789C288.912 148.438 288.75 147.999 288.75 147.472C288.75 147.041 288.871 146.66 289.113 146.328C289.358 145.997 289.691 145.737 290.112 145.548C290.536 145.359 291.017 145.264 291.554 145.264C292.309 145.264 292.903 145.43 293.334 145.761C293.768 146.093 294.076 146.53 294.258 147.074ZM301.573 147.074L300.519 147.372C300.453 147.196 300.355 147.026 300.225 146.86C300.1 146.691 299.927 146.552 299.708 146.442C299.49 146.333 299.21 146.278 298.868 146.278C298.401 146.278 298.011 146.386 297.7 146.602C297.392 146.814 297.238 147.084 297.238 147.412C297.238 147.704 297.344 147.934 297.556 148.103C297.768 148.272 298.099 148.413 298.55 148.526L299.684 148.804C300.366 148.97 300.875 149.223 301.21 149.565C301.545 149.903 301.712 150.339 301.712 150.872C301.712 151.31 301.586 151.701 301.334 152.045C301.086 152.39 300.738 152.662 300.29 152.861C299.843 153.06 299.322 153.159 298.729 153.159C297.95 153.159 297.306 152.99 296.795 152.652C296.285 152.314 295.962 151.82 295.826 151.17L296.939 150.892C297.045 151.303 297.246 151.611 297.541 151.817C297.839 152.022 298.229 152.125 298.709 152.125C299.256 152.125 299.69 152.009 300.012 151.777C300.337 151.542 300.499 151.26 300.499 150.932C300.499 150.667 300.406 150.445 300.221 150.266C300.035 150.083 299.75 149.947 299.365 149.858L298.093 149.56C297.393 149.394 296.88 149.137 296.551 148.789C296.227 148.438 296.064 147.999 296.064 147.472C296.064 147.041 296.185 146.66 296.427 146.328C296.672 145.997 297.006 145.737 297.426 145.548C297.851 145.359 298.331 145.264 298.868 145.264C299.624 145.264 300.217 145.43 300.648 145.761C301.082 146.093 301.391 146.53 301.573 147.074ZM303.478 153V145.364H304.651V153H303.478ZM304.075 144.091C303.846 144.091 303.649 144.013 303.483 143.857C303.321 143.701 303.24 143.514 303.24 143.295C303.24 143.077 303.321 142.889 303.483 142.734C303.649 142.578 303.846 142.5 304.075 142.5C304.303 142.5 304.499 142.578 304.661 142.734C304.827 142.889 304.91 143.077 304.91 143.295C304.91 143.514 304.827 143.701 304.661 143.857C304.499 144.013 304.303 144.091 304.075 144.091ZM313.045 145.364L310.221 153H309.028L306.204 145.364H307.477L309.585 151.449H309.664L311.772 145.364H313.045ZM317.522 153.159C316.786 153.159 316.151 152.997 315.618 152.672C315.087 152.344 314.678 151.886 314.39 151.3C314.105 150.71 313.962 150.024 313.962 149.241C313.962 148.459 314.105 147.77 314.39 147.173C314.678 146.573 315.079 146.106 315.593 145.771C316.11 145.433 316.713 145.264 317.402 145.264C317.8 145.264 318.193 145.33 318.581 145.463C318.968 145.596 319.321 145.811 319.64 146.109C319.958 146.404 320.211 146.795 320.4 147.283C320.589 147.77 320.684 148.37 320.684 149.082V149.58H314.797V148.565H319.49C319.49 148.134 319.404 147.75 319.232 147.412C319.063 147.074 318.821 146.807 318.506 146.612C318.194 146.416 317.827 146.318 317.402 146.318C316.935 146.318 316.531 146.434 316.189 146.666C315.851 146.895 315.591 147.193 315.409 147.561C315.226 147.929 315.135 148.323 315.135 148.744V149.42C315.135 149.997 315.235 150.486 315.434 150.887C315.636 151.285 315.916 151.588 316.274 151.797C316.632 152.002 317.048 152.105 317.522 152.105C317.83 152.105 318.108 152.062 318.357 151.976C318.609 151.886 318.826 151.754 319.008 151.578C319.19 151.399 319.331 151.177 319.431 150.912L320.564 151.23C320.445 151.615 320.244 151.953 319.963 152.244C319.681 152.533 319.333 152.758 318.919 152.92C318.504 153.08 318.039 153.159 317.522 153.159ZM327.877 147.074L326.824 147.372C326.757 147.196 326.659 147.026 326.53 146.86C326.404 146.691 326.232 146.552 326.013 146.442C325.794 146.333 325.514 146.278 325.173 146.278C324.706 146.278 324.316 146.386 324.005 146.602C323.696 146.814 323.542 147.084 323.542 147.412C323.542 147.704 323.648 147.934 323.86 148.103C324.073 148.272 324.404 148.413 324.855 148.526L325.988 148.804C326.671 148.97 327.18 149.223 327.515 149.565C327.849 149.903 328.017 150.339 328.017 150.872C328.017 151.31 327.891 151.701 327.639 152.045C327.39 152.39 327.042 152.662 326.595 152.861C326.147 153.06 325.627 153.159 325.034 153.159C324.255 153.159 323.61 152.99 323.1 152.652C322.589 152.314 322.266 151.82 322.13 151.17L323.244 150.892C323.35 151.303 323.551 151.611 323.846 151.817C324.144 152.022 324.533 152.125 325.014 152.125C325.561 152.125 325.995 152.009 326.316 151.777C326.641 151.542 326.804 151.26 326.804 150.932C326.804 150.667 326.711 150.445 326.525 150.266C326.34 150.083 326.055 149.947 325.67 149.858L324.397 149.56C323.698 149.394 323.184 149.137 322.856 148.789C322.531 148.438 322.369 147.999 322.369 147.472C322.369 147.041 322.49 146.66 322.732 146.328C322.977 145.997 323.31 145.737 323.731 145.548C324.155 145.359 324.636 145.264 325.173 145.264C325.929 145.264 326.522 145.43 326.953 145.761C327.387 146.093 327.695 146.53 327.877 147.074ZM338.095 148.088V149.182H333.641V148.088H338.095ZM361.167 147.909C361.167 146.656 361.33 145.504 361.654 144.454C361.983 143.4 362.45 142.43 363.056 141.545H364.091C363.852 141.874 363.628 142.278 363.419 142.759C363.214 143.236 363.033 143.761 362.877 144.335C362.722 144.905 362.599 145.495 362.51 146.104C362.423 146.714 362.38 147.316 362.38 147.909C362.38 148.698 362.457 149.498 362.609 150.31C362.761 151.122 362.967 151.876 363.225 152.572C363.484 153.268 363.772 153.835 364.091 154.273H363.056C362.45 153.388 361.983 152.42 361.654 151.369C361.33 150.315 361.167 149.162 361.167 147.909ZM369.123 153.139C368.374 153.139 367.736 152.935 367.209 152.528C366.682 152.117 366.279 151.522 366.001 150.743C365.722 149.961 365.583 149.016 365.583 147.909C365.583 146.809 365.722 145.869 366.001 145.09C366.283 144.308 366.687 143.711 367.214 143.3C367.744 142.886 368.381 142.679 369.123 142.679C369.865 142.679 370.5 142.886 371.027 143.3C371.557 143.711 371.962 144.308 372.24 145.09C372.522 145.869 372.663 146.809 372.663 147.909C372.663 149.016 372.524 149.961 372.245 150.743C371.967 151.522 371.564 152.117 371.037 152.528C370.51 152.935 369.872 153.139 369.123 153.139ZM369.123 152.045C369.865 152.045 370.442 151.687 370.853 150.972C371.264 150.256 371.47 149.235 371.47 147.909C371.47 147.027 371.375 146.277 371.186 145.657C371.001 145.037 370.732 144.565 370.381 144.24C370.033 143.915 369.614 143.753 369.123 143.753C368.387 143.753 367.812 144.116 367.398 144.842C366.984 145.564 366.776 146.587 366.776 147.909C366.776 148.791 366.869 149.54 367.055 150.156C367.24 150.773 367.507 151.242 367.855 151.563C368.207 151.885 368.629 152.045 369.123 152.045ZM379.742 151.091V150.554C379.742 150.183 379.819 149.843 379.971 149.535C380.127 149.223 380.352 148.975 380.647 148.789C380.945 148.6 381.307 148.506 381.731 148.506C382.162 148.506 382.523 148.6 382.815 148.789C383.106 148.975 383.327 149.223 383.476 149.535C383.625 149.843 383.7 150.183 383.7 150.554V151.091C383.7 151.462 383.624 151.804 383.471 152.115C383.322 152.423 383.1 152.672 382.805 152.861C382.513 153.046 382.155 153.139 381.731 153.139C381.3 153.139 380.937 153.046 380.642 152.861C380.347 152.672 380.124 152.423 379.971 152.115C379.819 151.804 379.742 151.462 379.742 151.091ZM380.757 150.554V151.091C380.757 151.399 380.829 151.676 380.975 151.921C381.121 152.163 381.373 152.284 381.731 152.284C382.079 152.284 382.324 152.163 382.467 151.921C382.613 151.676 382.686 151.399 382.686 151.091V150.554C382.686 150.246 382.616 149.971 382.477 149.729C382.338 149.483 382.089 149.361 381.731 149.361C381.383 149.361 381.133 149.483 380.98 149.729C380.831 149.971 380.757 150.246 380.757 150.554ZM374.671 145.264V144.727C374.671 144.356 374.748 144.016 374.9 143.708C375.056 143.397 375.281 143.148 375.576 142.962C375.874 142.773 376.236 142.679 376.66 142.679C377.091 142.679 377.452 142.773 377.744 142.962C378.035 143.148 378.256 143.397 378.405 143.708C378.554 144.016 378.629 144.356 378.629 144.727V145.264C378.629 145.635 378.552 145.977 378.4 146.288C378.251 146.597 378.029 146.845 377.734 147.034C377.442 147.22 377.084 147.312 376.66 147.312C376.229 147.312 375.866 147.22 375.571 147.034C375.276 146.845 375.052 146.597 374.9 146.288C374.748 145.977 374.671 145.635 374.671 145.264ZM375.686 144.727V145.264C375.686 145.572 375.758 145.849 375.904 146.094C376.05 146.336 376.302 146.457 376.66 146.457C377.008 146.457 377.253 146.336 377.396 146.094C377.542 145.849 377.615 145.572 377.615 145.264V144.727C377.615 144.419 377.545 144.144 377.406 143.902C377.267 143.657 377.018 143.534 376.66 143.534C376.312 143.534 376.062 143.657 375.909 143.902C375.76 144.144 375.686 144.419 375.686 144.727ZM375.049 153L382.049 142.818H383.183L376.183 153H375.049ZM388.453 147.909C388.453 149.162 388.289 150.315 387.96 151.369C387.636 152.42 387.17 153.388 386.563 154.273H385.529C385.768 153.945 385.99 153.54 386.195 153.06C386.404 152.582 386.587 152.059 386.742 151.489C386.898 150.915 387.019 150.324 387.105 149.714C387.195 149.101 387.24 148.499 387.24 147.909C387.24 147.12 387.163 146.32 387.011 145.508C386.858 144.696 386.653 143.942 386.394 143.246C386.136 142.55 385.847 141.983 385.529 141.545H386.563C387.17 142.43 387.636 143.4 387.96 144.454C388.289 145.504 388.453 146.656 388.453 147.909Z" fill="#AFAAC7"/>
<path d="M344.515 147.909C344.515 146.656 344.677 145.504 345.002 144.454C345.33 143.4 345.798 142.43 346.404 141.545H347.438C347.2 141.874 346.976 142.278 346.767 142.759C346.562 143.236 346.381 143.761 346.225 144.335C346.069 144.905 345.947 145.495 345.857 146.104C345.771 146.714 345.728 147.316 345.728 147.909C345.728 148.698 345.804 149.498 345.957 150.31C346.109 151.122 346.315 151.876 346.573 152.572C346.832 153.268 347.12 153.835 347.438 154.273H346.404C345.798 153.388 345.33 152.42 345.002 151.369C344.677 150.315 344.515 149.162 344.515 147.909ZM352.729 142.818V153H351.496V144.111H351.437L348.951 145.761V144.509L351.496 142.818H352.729ZM358.183 147.909C358.183 149.162 358.019 150.315 357.691 151.369C357.366 152.42 356.9 153.388 356.294 154.273H355.26C355.498 153.945 355.72 153.54 355.926 153.06C356.135 152.582 356.317 152.059 356.473 151.489C356.629 150.915 356.75 150.324 356.836 149.714C356.925 149.101 356.97 148.499 356.97 147.909C356.97 147.12 356.894 146.32 356.741 145.508C356.589 144.696 356.383 143.942 356.125 143.246C355.866 142.55 355.578 141.983 355.26 141.545H356.294C356.9 142.43 357.366 143.4 357.691 144.454C358.019 145.504 358.183 146.656 358.183 147.909Z" fill="white"/>
<rect x="251" y="180" width="12" height="12" rx="2" fill="#DA384E"/>
<path d="M275.375 191H272.233V180.818H275.514C276.502 180.818 277.347 181.022 278.05 181.43C278.752 181.834 279.291 182.416 279.665 183.175C280.04 183.93 280.227 184.835 280.227 185.889C280.227 186.95 280.038 187.863 279.661 188.629C279.283 189.391 278.732 189.978 278.01 190.388C277.287 190.796 276.409 191 275.375 191ZM273.466 189.906H275.295C276.137 189.906 276.835 189.744 277.388 189.419C277.942 189.094 278.355 188.632 278.626 188.032C278.898 187.432 279.034 186.718 279.034 185.889C279.034 185.067 278.9 184.36 278.631 183.766C278.363 183.17 277.962 182.712 277.428 182.394C276.895 182.073 276.23 181.912 275.435 181.912H273.466V189.906ZM285.338 191.159C284.602 191.159 283.968 190.997 283.434 190.672C282.904 190.344 282.494 189.886 282.206 189.3C281.921 188.71 281.778 188.024 281.778 187.241C281.778 186.459 281.921 185.77 282.206 185.173C282.494 184.573 282.895 184.106 283.409 183.771C283.926 183.433 284.529 183.264 285.219 183.264C285.616 183.264 286.009 183.33 286.397 183.463C286.785 183.596 287.138 183.811 287.456 184.109C287.774 184.404 288.028 184.795 288.217 185.283C288.406 185.77 288.5 186.37 288.5 187.082V187.58H282.614V186.565H287.307C287.307 186.134 287.221 185.75 287.048 185.412C286.879 185.074 286.637 184.807 286.322 184.612C286.011 184.416 285.643 184.318 285.219 184.318C284.751 184.318 284.347 184.434 284.006 184.666C283.668 184.895 283.407 185.193 283.225 185.561C283.043 185.929 282.952 186.323 282.952 186.744V187.42C282.952 187.997 283.051 188.486 283.25 188.887C283.452 189.285 283.732 189.588 284.09 189.797C284.448 190.002 284.864 190.105 285.338 190.105C285.646 190.105 285.925 190.062 286.173 189.976C286.425 189.886 286.642 189.754 286.825 189.578C287.007 189.399 287.148 189.177 287.247 188.912L288.381 189.23C288.261 189.615 288.061 189.953 287.779 190.244C287.497 190.533 287.149 190.758 286.735 190.92C286.321 191.08 285.855 191.159 285.338 191.159ZM293.606 183.364V184.358H289.648V183.364H293.606ZM290.802 181.534H291.975V188.812C291.975 189.144 292.023 189.393 292.119 189.558C292.219 189.721 292.345 189.83 292.497 189.886C292.653 189.939 292.817 189.966 292.989 189.966C293.119 189.966 293.225 189.959 293.308 189.946C293.39 189.929 293.457 189.916 293.506 189.906L293.745 190.96C293.665 190.99 293.554 191.02 293.412 191.05C293.269 191.083 293.089 191.099 292.87 191.099C292.539 191.099 292.214 191.028 291.896 190.886C291.581 190.743 291.319 190.526 291.11 190.234C290.905 189.943 290.802 189.575 290.802 189.131V181.534ZM295.371 191V183.364H296.504V184.517H296.584C296.723 184.139 296.975 183.833 297.339 183.597C297.704 183.362 298.115 183.244 298.572 183.244C298.659 183.244 298.766 183.246 298.896 183.249C299.025 183.253 299.123 183.258 299.189 183.264V184.457C299.149 184.447 299.058 184.433 298.915 184.413C298.776 184.389 298.629 184.378 298.473 184.378C298.102 184.378 297.77 184.456 297.479 184.612C297.19 184.764 296.962 184.976 296.793 185.248C296.627 185.516 296.544 185.823 296.544 186.168V191H295.371ZM302.827 191.179C302.343 191.179 301.904 191.088 301.509 190.906C301.115 190.72 300.802 190.453 300.57 190.105C300.338 189.754 300.222 189.33 300.222 188.832C300.222 188.395 300.308 188.04 300.48 187.768C300.653 187.493 300.883 187.278 301.171 187.122C301.46 186.966 301.778 186.85 302.126 186.774C302.477 186.695 302.83 186.632 303.185 186.585C303.649 186.526 304.025 186.481 304.313 186.451C304.605 186.418 304.817 186.363 304.95 186.287C305.086 186.211 305.154 186.078 305.154 185.889V185.849C305.154 185.359 305.019 184.978 304.751 184.706C304.486 184.434 304.083 184.298 303.543 184.298C302.983 184.298 302.544 184.421 302.225 184.666C301.907 184.911 301.683 185.173 301.554 185.452L300.441 185.054C300.639 184.59 300.905 184.229 301.236 183.97C301.571 183.708 301.935 183.526 302.33 183.423C302.727 183.317 303.119 183.264 303.503 183.264C303.748 183.264 304.03 183.294 304.348 183.354C304.67 183.41 304.98 183.528 305.278 183.707C305.579 183.886 305.83 184.156 306.029 184.517C306.227 184.878 306.327 185.362 306.327 185.969V191H305.154V189.966H305.094C305.014 190.132 304.882 190.309 304.696 190.498C304.511 190.687 304.264 190.848 303.955 190.98C303.647 191.113 303.271 191.179 302.827 191.179ZM303.006 190.125C303.47 190.125 303.861 190.034 304.179 189.852C304.501 189.669 304.743 189.434 304.905 189.146C305.071 188.857 305.154 188.554 305.154 188.236V187.162C305.104 187.222 304.994 187.276 304.825 187.326C304.66 187.372 304.468 187.414 304.249 187.45C304.033 187.483 303.823 187.513 303.617 187.54C303.415 187.563 303.251 187.583 303.125 187.599C302.82 187.639 302.535 187.704 302.27 187.793C302.008 187.879 301.796 188.01 301.634 188.186C301.475 188.358 301.395 188.594 301.395 188.892C301.395 189.3 301.546 189.608 301.847 189.817C302.152 190.022 302.539 190.125 303.006 190.125ZM311.571 191.159C310.855 191.159 310.238 190.99 309.721 190.652C309.204 190.314 308.806 189.848 308.528 189.255C308.25 188.662 308.11 187.984 308.11 187.222C308.11 186.446 308.253 185.762 308.538 185.168C308.826 184.572 309.227 184.106 309.741 183.771C310.258 183.433 310.861 183.264 311.551 183.264C312.088 183.264 312.572 183.364 313.002 183.562C313.433 183.761 313.786 184.04 314.061 184.398C314.337 184.756 314.507 185.173 314.574 185.651H313.4C313.311 185.303 313.112 184.994 312.804 184.726C312.499 184.454 312.088 184.318 311.571 184.318C311.113 184.318 310.712 184.437 310.368 184.676C310.026 184.911 309.759 185.245 309.567 185.675C309.378 186.103 309.284 186.605 309.284 187.182C309.284 187.772 309.377 188.286 309.562 188.723C309.751 189.161 310.016 189.5 310.358 189.742C310.702 189.984 311.107 190.105 311.571 190.105C311.876 190.105 312.152 190.052 312.401 189.946C312.65 189.84 312.86 189.688 313.032 189.489C313.205 189.29 313.327 189.051 313.4 188.773H314.574C314.507 189.223 314.343 189.629 314.081 189.991C313.823 190.349 313.48 190.634 313.052 190.846C312.628 191.055 312.134 191.159 311.571 191.159ZM319.61 183.364V184.358H315.652V183.364H319.61ZM316.806 181.534H317.979V188.812C317.979 189.144 318.027 189.393 318.123 189.558C318.223 189.721 318.349 189.83 318.501 189.886C318.657 189.939 318.821 189.966 318.993 189.966C319.123 189.966 319.229 189.959 319.311 189.946C319.394 189.929 319.461 189.916 319.51 189.906L319.749 190.96C319.669 190.99 319.558 191.02 319.416 191.05C319.273 191.083 319.093 191.099 318.874 191.099C318.542 191.099 318.218 191.028 317.9 190.886C317.585 190.743 317.323 190.526 317.114 190.234C316.908 189.943 316.806 189.575 316.806 189.131V181.534ZM324.395 191.159C323.705 191.159 323.101 190.995 322.58 190.667C322.063 190.339 321.659 189.88 321.367 189.29C321.079 188.7 320.935 188.01 320.935 187.222C320.935 186.426 321.079 185.732 321.367 185.138C321.659 184.545 322.063 184.085 322.58 183.756C323.101 183.428 323.705 183.264 324.395 183.264C325.084 183.264 325.688 183.428 326.205 183.756C326.725 184.085 327.129 184.545 327.418 185.138C327.709 185.732 327.855 186.426 327.855 187.222C327.855 188.01 327.709 188.7 327.418 189.29C327.129 189.88 326.725 190.339 326.205 190.667C325.688 190.995 325.084 191.159 324.395 191.159ZM324.395 190.105C324.919 190.105 325.349 189.971 325.688 189.702C326.026 189.434 326.276 189.081 326.438 188.643C326.601 188.206 326.682 187.732 326.682 187.222C326.682 186.711 326.601 186.236 326.438 185.795C326.276 185.354 326.026 184.998 325.688 184.726C325.349 184.454 324.919 184.318 324.395 184.318C323.871 184.318 323.44 184.454 323.102 184.726C322.764 184.998 322.514 185.354 322.352 185.795C322.189 186.236 322.108 186.711 322.108 187.222C322.108 187.732 322.189 188.206 322.352 188.643C322.514 189.081 322.764 189.434 323.102 189.702C323.44 189.971 323.871 190.105 324.395 190.105ZM329.646 191V183.364H330.78V184.517H330.859C330.998 184.139 331.25 183.833 331.615 183.597C331.979 183.362 332.39 183.244 332.848 183.244C332.934 183.244 333.042 183.246 333.171 183.249C333.3 183.253 333.398 183.258 333.464 183.264V184.457C333.425 184.447 333.333 184.433 333.191 184.413C333.052 184.389 332.904 184.378 332.748 184.378C332.377 184.378 332.046 184.456 331.754 184.612C331.466 184.764 331.237 184.976 331.068 185.248C330.902 185.516 330.819 185.823 330.819 186.168V191H329.646ZM340.264 185.074L339.21 185.372C339.144 185.196 339.046 185.026 338.917 184.86C338.791 184.691 338.619 184.552 338.4 184.442C338.181 184.333 337.901 184.278 337.56 184.278C337.092 184.278 336.703 184.386 336.391 184.602C336.083 184.814 335.929 185.084 335.929 185.412C335.929 185.704 336.035 185.934 336.247 186.103C336.459 186.272 336.791 186.413 337.241 186.526L338.375 186.804C339.058 186.97 339.567 187.223 339.901 187.565C340.236 187.903 340.403 188.339 340.403 188.872C340.403 189.31 340.277 189.701 340.026 190.045C339.777 190.39 339.429 190.662 338.982 190.861C338.534 191.06 338.014 191.159 337.42 191.159C336.642 191.159 335.997 190.99 335.487 190.652C334.976 190.314 334.653 189.82 334.517 189.17L335.631 188.892C335.737 189.303 335.937 189.611 336.232 189.817C336.531 190.022 336.92 190.125 337.401 190.125C337.947 190.125 338.382 190.009 338.703 189.777C339.028 189.542 339.19 189.26 339.19 188.932C339.19 188.667 339.098 188.445 338.912 188.266C338.726 188.083 338.441 187.947 338.057 187.858L336.784 187.56C336.085 187.394 335.571 187.137 335.243 186.789C334.918 186.438 334.756 185.999 334.756 185.472C334.756 185.041 334.877 184.66 335.119 184.328C335.364 183.997 335.697 183.737 336.118 183.548C336.542 183.359 337.023 183.264 337.56 183.264C338.315 183.264 338.909 183.43 339.339 183.761C339.774 184.093 340.082 184.53 340.264 185.074ZM350.482 186.088V187.182H346.028V186.088H350.482ZM373.554 185.909C373.554 184.656 373.716 183.504 374.041 182.454C374.369 181.4 374.837 180.43 375.443 179.545H376.477C376.239 179.874 376.015 180.278 375.806 180.759C375.601 181.236 375.42 181.761 375.264 182.335C375.108 182.905 374.986 183.495 374.896 184.104C374.81 184.714 374.767 185.316 374.767 185.909C374.767 186.698 374.843 187.498 374.996 188.31C375.148 189.122 375.354 189.876 375.612 190.572C375.871 191.268 376.159 191.835 376.477 192.273H375.443C374.837 191.388 374.369 190.42 374.041 189.369C373.716 188.315 373.554 187.162 373.554 185.909ZM381.51 191.139C380.761 191.139 380.123 190.935 379.596 190.528C379.069 190.117 378.666 189.522 378.388 188.743C378.109 187.961 377.97 187.016 377.97 185.909C377.97 184.809 378.109 183.869 378.388 183.09C378.669 182.308 379.074 181.711 379.601 181.3C380.131 180.886 380.767 180.679 381.51 180.679C382.252 180.679 382.887 180.886 383.414 181.3C383.944 181.711 384.349 182.308 384.627 183.09C384.909 183.869 385.05 184.809 385.05 185.909C385.05 187.016 384.91 187.961 384.632 188.743C384.354 189.522 383.951 190.117 383.424 190.528C382.897 190.935 382.259 191.139 381.51 191.139ZM381.51 190.045C382.252 190.045 382.829 189.687 383.24 188.972C383.651 188.256 383.856 187.235 383.856 185.909C383.856 185.027 383.762 184.277 383.573 183.657C383.387 183.037 383.119 182.565 382.768 182.24C382.42 181.915 382 181.753 381.51 181.753C380.774 181.753 380.199 182.116 379.785 182.842C379.37 183.564 379.163 184.587 379.163 185.909C379.163 186.791 379.256 187.54 379.442 188.156C379.627 188.773 379.894 189.242 380.242 189.563C380.593 189.885 381.016 190.045 381.51 190.045ZM392.129 189.091V188.554C392.129 188.183 392.205 187.843 392.358 187.535C392.514 187.223 392.739 186.975 393.034 186.789C393.332 186.6 393.693 186.506 394.118 186.506C394.549 186.506 394.91 186.6 395.202 186.789C395.493 186.975 395.714 187.223 395.863 187.535C396.012 187.843 396.086 188.183 396.086 188.554V189.091C396.086 189.462 396.01 189.804 395.858 190.115C395.709 190.423 395.487 190.672 395.192 190.861C394.9 191.046 394.542 191.139 394.118 191.139C393.687 191.139 393.324 191.046 393.029 190.861C392.734 190.672 392.51 190.423 392.358 190.115C392.205 189.804 392.129 189.462 392.129 189.091ZM393.143 188.554V189.091C393.143 189.399 393.216 189.676 393.362 189.921C393.508 190.163 393.76 190.284 394.118 190.284C394.466 190.284 394.711 190.163 394.854 189.921C394.999 189.676 395.072 189.399 395.072 189.091V188.554C395.072 188.246 395.003 187.971 394.863 187.729C394.724 187.483 394.476 187.361 394.118 187.361C393.77 187.361 393.519 187.483 393.367 187.729C393.218 187.971 393.143 188.246 393.143 188.554ZM387.058 183.264V182.727C387.058 182.356 387.134 182.016 387.287 181.708C387.443 181.397 387.668 181.148 387.963 180.962C388.261 180.773 388.622 180.679 389.047 180.679C389.478 180.679 389.839 180.773 390.131 180.962C390.422 181.148 390.643 181.397 390.792 181.708C390.941 182.016 391.015 182.356 391.015 182.727V183.264C391.015 183.635 390.939 183.977 390.787 184.288C390.638 184.597 390.416 184.845 390.121 185.034C389.829 185.22 389.471 185.312 389.047 185.312C388.616 185.312 388.253 185.22 387.958 185.034C387.663 184.845 387.439 184.597 387.287 184.288C387.134 183.977 387.058 183.635 387.058 183.264ZM388.072 182.727V183.264C388.072 183.572 388.145 183.849 388.291 184.094C388.437 184.336 388.689 184.457 389.047 184.457C389.395 184.457 389.64 184.336 389.782 184.094C389.928 183.849 390.001 183.572 390.001 183.264V182.727C390.001 182.419 389.932 182.144 389.792 181.902C389.653 181.657 389.405 181.534 389.047 181.534C388.699 181.534 388.448 181.657 388.296 181.902C388.147 182.144 388.072 182.419 388.072 182.727ZM387.436 191L394.436 180.818H395.569L388.569 191H387.436ZM400.839 185.909C400.839 187.162 400.675 188.315 400.347 189.369C400.022 190.42 399.557 191.388 398.95 192.273H397.916C398.155 191.945 398.377 191.54 398.582 191.06C398.791 190.582 398.973 190.059 399.129 189.489C399.285 188.915 399.406 188.324 399.492 187.714C399.581 187.101 399.626 186.499 399.626 185.909C399.626 185.12 399.55 184.32 399.398 183.508C399.245 182.696 399.04 181.942 398.781 181.246C398.523 180.55 398.234 179.983 397.916 179.545H398.95C399.557 180.43 400.022 181.4 400.347 182.454C400.675 183.504 400.839 184.656 400.839 185.909Z" fill="#AFAAC7"/>
<path d="M356.902 185.909C356.902 184.656 357.064 183.504 357.389 182.454C357.717 181.4 358.184 180.43 358.791 179.545H359.825C359.586 179.874 359.363 180.278 359.154 180.759C358.948 181.236 358.768 181.761 358.612 182.335C358.456 182.905 358.333 183.495 358.244 184.104C358.158 184.714 358.115 185.316 358.115 185.909C358.115 186.698 358.191 187.498 358.343 188.31C358.496 189.122 358.701 189.876 358.96 190.572C359.218 191.268 359.507 191.835 359.825 192.273H358.791C358.184 191.388 357.717 190.42 357.389 189.369C357.064 188.315 356.902 187.162 356.902 185.909ZM365.116 180.818V191H363.883V182.111H363.823L361.338 183.761V182.509L363.883 180.818H365.116ZM370.57 185.909C370.57 187.162 370.406 188.315 370.078 189.369C369.753 190.42 369.287 191.388 368.681 192.273H367.646C367.885 191.945 368.107 191.54 368.313 191.06C368.521 190.582 368.704 190.059 368.86 189.489C369.015 188.915 369.136 188.324 369.222 187.714C369.312 187.101 369.357 186.499 369.357 185.909C369.357 185.12 369.28 184.32 369.128 183.508C368.976 182.696 368.77 181.942 368.512 181.246C368.253 180.55 367.965 179.983 367.646 179.545H368.681C369.287 180.43 369.753 181.4 370.078 182.454C370.406 183.504 370.57 184.656 370.57 185.909Z" fill="white"/>
</svg>
