<svg width="248" height="202" viewBox="0 0 248 202" fill="none" xmlns="http://www.w3.org/2000/svg">
<g filter="url(#filter0_d_5086_63261)">
<rect x="18" y="9" width="211.92" height="165.552" rx="8.7053" fill="white" shape-rendering="crispEdges"/>
<path d="M212.779 25.3228L206.25 31.8517" stroke="black" stroke-width="1.08816" stroke-linecap="round" stroke-linejoin="round"/>
<path d="M206.25 25.3228L212.779 31.8517" stroke="black" stroke-width="1.08816" stroke-linecap="round" stroke-linejoin="round"/>
<path d="M69.7492 49.2041V39.7074H71.4695V43.7277H75.8701V39.7074H77.5951V49.2041H75.8701V45.1699H71.4695V49.2041H69.7492ZM82.4988 49.3432C81.8032 49.3432 81.2004 49.1902 80.6903 48.8841C80.1802 48.5781 79.7845 48.1499 79.5032 47.5997C79.225 47.0494 79.0859 46.4064 79.0859 45.6707C79.0859 44.9349 79.225 44.2904 79.5032 43.737C79.7845 43.1837 80.1802 42.754 80.6903 42.4479C81.2004 42.1419 81.8032 41.9888 82.4988 41.9888C83.1943 41.9888 83.7971 42.1419 84.3072 42.4479C84.8173 42.754 85.2114 43.1837 85.4897 43.737C85.771 44.2904 85.9116 44.9349 85.9116 45.6707C85.9116 46.4064 85.771 47.0494 85.4897 47.5997C85.2114 48.1499 84.8173 48.5781 84.3072 48.8841C83.7971 49.1902 83.1943 49.3432 82.4988 49.3432ZM82.508 47.9985C82.8852 47.9985 83.2005 47.8949 83.454 47.6878C83.7075 47.4776 83.8961 47.1963 84.0197 46.8438C84.1465 46.4914 84.2098 46.0988 84.2098 45.666C84.2098 45.2301 84.1465 44.836 84.0197 44.4836C83.8961 44.1281 83.7075 43.8452 83.454 43.635C83.2005 43.4248 82.8852 43.3197 82.508 43.3197C82.1216 43.3197 81.8001 43.4248 81.5435 43.635C81.29 43.8452 81.0999 44.1281 80.9732 44.4836C80.8495 44.836 80.7877 45.2301 80.7877 45.666C80.7877 46.0988 80.8495 46.4914 80.9732 46.8438C81.0999 47.1963 81.29 47.4776 81.5435 47.6878C81.8001 47.8949 82.1216 47.9985 82.508 47.9985ZM88.6023 49.2041L86.5898 42.0816H88.3009L89.5529 47.0896H89.6178L90.8976 42.0816H92.5902L93.87 47.0618H93.9395L95.173 42.0816H96.8887L94.8716 49.2041H93.1234L91.7879 44.3908H91.6906L90.3551 49.2041H88.6023ZM106.929 43.9642L105.399 44.1312C105.356 43.9766 105.28 43.8313 105.172 43.6953C105.067 43.5593 104.924 43.4495 104.745 43.366C104.566 43.2826 104.346 43.2408 104.087 43.2408C103.737 43.2408 103.444 43.3166 103.206 43.4681C102.971 43.6195 102.855 43.8158 102.858 44.057C102.855 44.2641 102.93 44.4326 103.085 44.5624C103.243 44.6922 103.502 44.7989 103.864 44.8824L105.079 45.142C105.753 45.2873 106.254 45.5176 106.581 45.833C106.912 46.1483 107.079 46.561 107.082 47.0711C107.079 47.5193 106.948 47.915 106.688 48.2581C106.431 48.5982 106.074 48.8641 105.617 49.0557C105.159 49.2474 104.634 49.3432 104.04 49.3432C103.168 49.3432 102.467 49.1608 101.935 48.796C101.403 48.4282 101.086 47.9165 100.984 47.2612L102.621 47.1035C102.695 47.425 102.853 47.6677 103.094 47.8315C103.335 47.9954 103.649 48.0773 104.036 48.0773C104.434 48.0773 104.754 47.9954 104.995 47.8315C105.24 47.6677 105.362 47.4652 105.362 47.2241C105.362 47.02 105.283 46.8516 105.125 46.7186C104.971 46.5857 104.73 46.4837 104.402 46.4126L103.187 46.1576C102.504 46.0154 101.998 45.7758 101.671 45.4388C101.343 45.0988 101.181 44.6691 101.184 44.1497C101.181 43.7107 101.3 43.3305 101.541 43.009C101.785 42.6844 102.124 42.434 102.556 42.2578C102.992 42.0785 103.495 41.9888 104.063 41.9888C104.898 41.9888 105.555 42.1666 106.034 42.5221C106.516 42.8776 106.815 43.3583 106.929 43.9642ZM110.516 49.3479C110.065 49.3479 109.658 49.2675 109.296 49.1067C108.938 48.9429 108.653 48.7018 108.443 48.3833C108.236 48.0649 108.132 47.6723 108.132 47.2055C108.132 46.8037 108.207 46.4713 108.355 46.2086C108.503 45.9458 108.706 45.7356 108.962 45.5779C109.219 45.4203 109.508 45.3012 109.83 45.2209C110.154 45.1374 110.49 45.0771 110.836 45.04C111.253 44.9967 111.592 44.9581 111.851 44.9241C112.111 44.887 112.3 44.8314 112.417 44.7572C112.538 44.6799 112.598 44.5609 112.598 44.4001V44.3723C112.598 44.023 112.494 43.7525 112.287 43.5608C112.08 43.3691 111.782 43.2733 111.392 43.2733C110.981 43.2733 110.655 43.363 110.414 43.5423C110.176 43.7216 110.015 43.9333 109.932 44.1775L108.364 43.955C108.488 43.5222 108.692 43.1605 108.976 42.8699C109.261 42.5762 109.609 42.3567 110.02 42.2114C110.431 42.063 110.885 41.9888 111.383 41.9888C111.726 41.9888 112.068 42.029 112.408 42.1094C112.748 42.1898 113.059 42.3227 113.34 42.5082C113.621 42.6906 113.847 42.9394 114.017 43.2548C114.19 43.5701 114.277 43.9642 114.277 44.4372V49.2041H112.663V48.2257H112.607C112.505 48.4235 112.361 48.609 112.176 48.7821C111.994 48.9522 111.763 49.0897 111.485 49.1948C111.21 49.2968 110.887 49.3479 110.516 49.3479ZM110.952 48.1144C111.289 48.1144 111.581 48.0479 111.828 47.915C112.075 47.779 112.266 47.5997 112.399 47.3771C112.535 47.1545 112.603 46.9119 112.603 46.6491V45.8098C112.55 45.8531 112.46 45.8932 112.334 45.9303C112.21 45.9674 112.071 45.9999 111.916 46.0277C111.762 46.0555 111.609 46.0803 111.457 46.1019C111.306 46.1236 111.174 46.1421 111.063 46.1576C110.813 46.1916 110.589 46.2472 110.391 46.3245C110.193 46.4018 110.037 46.51 109.922 46.6491C109.808 46.7851 109.751 46.9613 109.751 47.1777C109.751 47.4868 109.864 47.7202 110.089 47.8779C110.315 48.0356 110.602 48.1144 110.952 48.1144ZM119.521 42.0816V43.38H115.426V42.0816H119.521ZM116.437 40.3751H118.116V47.0618C118.116 47.2875 118.15 47.4606 118.218 47.5811C118.289 47.6986 118.382 47.779 118.496 47.8223C118.611 47.8655 118.737 47.8872 118.876 47.8872C118.982 47.8872 119.077 47.8794 119.164 47.864C119.254 47.8485 119.322 47.8346 119.368 47.8223L119.651 49.1345C119.561 49.1655 119.433 49.1995 119.266 49.2366C119.102 49.2737 118.901 49.2953 118.663 49.3015C118.243 49.3138 117.864 49.2505 117.527 49.1114C117.19 48.9692 116.923 48.7497 116.725 48.4529C116.53 48.1561 116.434 47.7852 116.437 47.34V40.3751ZM120.925 49.2041V42.0816H122.604V49.2041H120.925ZM121.769 41.0707C121.503 41.0707 121.274 40.9826 121.083 40.8064C120.891 40.6271 120.795 40.4122 120.795 40.1618C120.795 39.9083 120.891 39.6935 121.083 39.5173C121.274 39.338 121.503 39.2483 121.769 39.2483C122.038 39.2483 122.267 39.338 122.455 39.5173C122.647 39.6935 122.743 39.9083 122.743 40.1618C122.743 40.4122 122.647 40.6271 122.455 40.8064C122.267 40.9826 122.038 41.0707 121.769 41.0707ZM129.959 43.9642L128.429 44.1312C128.386 43.9766 128.31 43.8313 128.202 43.6953C128.096 43.5593 127.954 43.4495 127.775 43.366C127.596 43.2826 127.376 43.2408 127.117 43.2408C126.767 43.2408 126.474 43.3166 126.235 43.4681C126.001 43.6195 125.885 43.8158 125.888 44.057C125.885 44.2641 125.96 44.4326 126.115 44.5624C126.273 44.6922 126.532 44.7989 126.894 44.8824L128.109 45.142C128.783 45.2873 129.284 45.5176 129.611 45.833C129.942 46.1483 130.109 46.561 130.112 47.0711C130.109 47.5193 129.978 47.915 129.718 48.2581C129.461 48.5982 129.104 48.8641 128.647 49.0557C128.189 49.2474 127.664 49.3432 127.07 49.3432C126.198 49.3432 125.497 49.1608 124.965 48.796C124.433 48.4282 124.116 47.9165 124.014 47.2612L125.651 47.1035C125.725 47.425 125.883 47.6677 126.124 47.8315C126.365 47.9954 126.679 48.0773 127.066 48.0773C127.464 48.0773 127.784 47.9954 128.025 47.8315C128.27 47.6677 128.392 47.4652 128.392 47.2241C128.392 47.02 128.313 46.8516 128.155 46.7186C128.001 46.5857 127.76 46.4837 127.432 46.4126L126.217 46.1576C125.534 46.0154 125.028 45.7758 124.701 45.4388C124.373 45.0988 124.211 44.6691 124.214 44.1497C124.211 43.7107 124.33 43.3305 124.571 43.009C124.815 42.6844 125.153 42.434 125.586 42.2578C126.022 42.0785 126.525 41.9888 127.093 41.9888C127.928 41.9888 128.585 42.1666 129.064 42.5221C129.546 42.8776 129.845 43.3583 129.959 43.9642ZM135.104 42.0816V43.38H130.893V42.0816H135.104ZM131.946 49.2041V41.4092C131.946 40.93 132.045 40.5313 132.243 40.2128C132.444 39.8944 132.713 39.6564 133.05 39.4987C133.387 39.3411 133.761 39.2623 134.172 39.2623C134.462 39.2623 134.721 39.2854 134.946 39.3318C135.172 39.3782 135.339 39.4199 135.447 39.457L135.113 40.7554C135.042 40.7337 134.952 40.7121 134.844 40.6905C134.736 40.6657 134.615 40.6534 134.482 40.6534C134.17 40.6534 133.949 40.7291 133.819 40.8806C133.693 41.029 133.629 41.2423 133.629 41.5205V49.2041H131.946ZM136.418 49.2041V42.0816H138.097V49.2041H136.418ZM137.262 41.0707C136.997 41.0707 136.768 40.9826 136.576 40.8064C136.384 40.6271 136.289 40.4122 136.289 40.1618C136.289 39.9083 136.384 39.6935 136.576 39.5173C136.768 39.338 136.997 39.2483 137.262 39.2483C137.531 39.2483 137.76 39.338 137.949 39.5173C138.14 39.6935 138.236 39.9083 138.236 40.1618C138.236 40.4122 138.14 40.6271 137.949 40.8064C137.76 40.9826 137.531 41.0707 137.262 41.0707ZM142.976 49.3432C142.262 49.3432 141.646 49.1948 141.126 48.8981C140.61 48.5982 140.213 48.1747 139.934 47.6275C139.656 47.0772 139.517 46.4296 139.517 45.6846C139.517 44.9519 139.656 44.3089 139.934 43.7556C140.216 43.1991 140.608 42.7663 141.112 42.4572C141.616 42.145 142.208 41.9888 142.888 41.9888C143.327 41.9888 143.742 42.0599 144.131 42.2021C144.524 42.3413 144.87 42.5577 145.17 42.8513C145.473 43.145 145.711 43.5191 145.884 43.9735C146.057 44.4248 146.144 44.9627 146.144 45.5872V46.1019H140.305V44.9705H144.534C144.531 44.649 144.462 44.363 144.326 44.1126C144.19 43.8591 144 43.6597 143.755 43.5144C143.514 43.3691 143.233 43.2965 142.911 43.2965C142.568 43.2965 142.267 43.38 142.007 43.5469C141.748 43.7107 141.545 43.9271 141.4 44.1961C141.258 44.4619 141.185 44.7541 141.182 45.0725V46.0602C141.182 46.4744 141.258 46.8299 141.409 47.1267C141.561 47.4204 141.772 47.6461 142.044 47.8037C142.316 47.9583 142.635 48.0356 143 48.0356C143.244 48.0356 143.465 48.0016 143.663 47.9335C143.861 47.8624 144.032 47.7589 144.177 47.6229C144.323 47.4868 144.432 47.3184 144.507 47.1174L146.074 47.2936C145.975 47.7079 145.786 48.0696 145.508 48.3787C145.233 48.6848 144.881 48.9228 144.451 49.0928C144.021 49.2597 143.53 49.3432 142.976 49.3432ZM150.207 49.3293C149.647 49.3293 149.146 49.1856 148.704 48.8981C148.262 48.6106 147.913 48.1932 147.656 47.6461C147.4 47.0989 147.271 46.4342 147.271 45.6521C147.271 44.8607 147.401 44.193 147.661 43.6489C147.924 43.1017 148.278 42.689 148.723 42.4108C149.168 42.1295 149.664 41.9888 150.211 41.9888C150.629 41.9888 150.972 42.0599 151.241 42.2021C151.51 42.3413 151.723 42.5097 151.881 42.7076C152.038 42.9023 152.16 43.0863 152.247 43.2594H152.317V39.7074H154V49.2041H152.349V48.0819H152.247C152.16 48.2551 152.035 48.439 151.871 48.6337C151.708 48.8254 151.491 48.9893 151.222 49.1253C150.953 49.2613 150.615 49.3293 150.207 49.3293ZM150.675 47.9521C151.031 47.9521 151.334 47.8563 151.584 47.6646C151.834 47.4698 152.024 47.1993 152.154 46.8531C152.284 46.5069 152.349 46.1035 152.349 45.6428C152.349 45.1822 152.284 44.7819 152.154 44.4418C152.028 44.1018 151.839 43.8375 151.589 43.6489C151.341 43.4603 151.037 43.366 150.675 43.366C150.301 43.366 149.989 43.4634 149.738 43.6582C149.488 43.8529 149.299 44.1219 149.173 44.465C149.046 44.8082 148.983 45.2008 148.983 45.6428C148.983 46.088 149.046 46.4852 149.173 46.8346C149.303 47.1808 149.493 47.4544 149.743 47.6553C149.997 47.8532 150.307 47.9521 150.675 47.9521ZM161.077 49.3479C160.626 49.3479 160.219 49.2675 159.858 49.1067C159.499 48.9429 159.215 48.7018 159.004 48.3833C158.797 48.0649 158.694 47.6723 158.694 47.2055C158.694 46.8037 158.768 46.4713 158.916 46.2086C159.065 45.9458 159.267 45.7356 159.524 45.5779C159.78 45.4203 160.069 45.3012 160.391 45.2209C160.715 45.1374 161.051 45.0771 161.397 45.04C161.814 44.9967 162.153 44.9581 162.413 44.9241C162.672 44.887 162.861 44.8314 162.978 44.7572C163.099 44.6799 163.159 44.5609 163.159 44.4001V44.3723C163.159 44.023 163.056 43.7525 162.849 43.5608C162.641 43.3691 162.343 43.2733 161.954 43.2733C161.542 43.2733 161.216 43.363 160.975 43.5423C160.737 43.7216 160.576 43.9333 160.493 44.1775L158.926 43.955C159.049 43.5222 159.253 43.1605 159.538 42.8699C159.822 42.5762 160.17 42.3567 160.581 42.2114C160.992 42.063 161.447 41.9888 161.944 41.9888C162.287 41.9888 162.629 42.029 162.969 42.1094C163.309 42.1898 163.62 42.3227 163.901 42.5082C164.182 42.6906 164.408 42.9394 164.578 43.2548C164.751 43.5701 164.838 43.9642 164.838 44.4372V49.2041H163.224V48.2257H163.168C163.066 48.4235 162.923 48.609 162.737 48.7821C162.555 48.9522 162.325 49.0897 162.046 49.1948C161.771 49.2968 161.448 49.3479 161.077 49.3479ZM161.513 48.1144C161.85 48.1144 162.142 48.0479 162.389 47.915C162.637 47.779 162.827 47.5997 162.96 47.3771C163.096 47.1545 163.164 46.9119 163.164 46.6491V45.8098C163.111 45.8531 163.022 45.8932 162.895 45.9303C162.771 45.9674 162.632 45.9999 162.478 46.0277C162.323 46.0555 162.17 46.0803 162.018 46.1019C161.867 46.1236 161.736 46.1421 161.624 46.1576C161.374 46.1916 161.15 46.2472 160.952 46.3245C160.754 46.4018 160.598 46.51 160.484 46.6491C160.369 46.7851 160.312 46.9613 160.312 47.1777C160.312 47.4868 160.425 47.7202 160.651 47.8779C160.876 48.0356 161.164 48.1144 161.513 48.1144ZM166.526 49.2041V42.0816H168.153V43.2687H168.228C168.357 42.8575 168.58 42.5407 168.895 42.3181C169.214 42.0924 169.577 41.9796 169.985 41.9796C170.078 41.9796 170.181 41.9842 170.296 41.9935C170.413 41.9997 170.51 42.0105 170.588 42.0259V43.5701C170.517 43.5453 170.404 43.5237 170.249 43.5052C170.098 43.4835 169.951 43.4727 169.809 43.4727C169.503 43.4727 169.228 43.5392 168.983 43.6721C168.742 43.8019 168.552 43.9828 168.413 44.2146C168.274 44.4465 168.204 44.7139 168.204 45.0168V49.2041H166.526ZM174.563 49.3432C173.849 49.3432 173.232 49.1948 172.713 48.8981C172.196 48.5982 171.799 48.1747 171.521 47.6275C171.243 47.0772 171.104 46.4296 171.104 45.6846C171.104 44.9519 171.243 44.3089 171.521 43.7556C171.802 43.1991 172.195 42.7663 172.699 42.4572C173.203 42.145 173.795 41.9888 174.475 41.9888C174.914 41.9888 175.328 42.0599 175.718 42.2021C176.11 42.3413 176.456 42.5577 176.756 42.8513C177.059 43.145 177.297 43.5191 177.47 43.9735C177.643 44.4248 177.73 44.9627 177.73 45.5872V46.1019H171.892V44.9705H176.121C176.118 44.649 176.048 44.363 175.912 44.1126C175.776 43.8591 175.586 43.6597 175.342 43.5144C175.101 43.3691 174.819 43.2965 174.498 43.2965C174.155 43.2965 173.853 43.38 173.594 43.5469C173.334 43.7107 173.132 43.9271 172.986 44.1961C172.844 44.4619 172.771 44.7541 172.768 45.0725V46.0602C172.768 46.4744 172.844 46.8299 172.996 47.1267C173.147 47.4204 173.359 47.6461 173.631 47.8037C173.903 47.9583 174.221 48.0356 174.586 48.0356C174.83 48.0356 175.051 48.0016 175.249 47.9335C175.447 47.8624 175.619 47.7589 175.764 47.6229C175.909 47.4868 176.019 47.3184 176.093 47.1174L177.66 47.2936C177.562 47.7079 177.373 48.0696 177.095 48.3787C176.82 48.6848 176.467 48.9228 176.037 49.0928C175.608 49.2597 175.116 49.3432 174.563 49.3432ZM73.555 67.2041L71.5426 60.0816H73.2536L74.5056 65.0896H74.5706L75.8504 60.0816H77.5429L78.8227 65.0618H78.8923L80.1258 60.0816H81.8415L79.8243 67.2041H78.0762L76.7407 62.3908H76.6433L75.3078 67.2041H73.555ZM83.0135 67.2041V60.0816H84.6921V67.2041H83.0135ZM83.8574 59.0707C83.5916 59.0707 83.3628 58.9826 83.1711 58.8064C82.9795 58.6271 82.8836 58.4122 82.8836 58.1618C82.8836 57.9083 82.9795 57.6935 83.1711 57.5173C83.3628 57.338 83.5916 57.2483 83.8574 57.2483C84.1264 57.2483 84.3551 57.338 84.5437 57.5173C84.7354 57.6935 84.8312 57.9083 84.8312 58.1618C84.8312 58.4122 84.7354 58.6271 84.5437 58.8064C84.3551 58.9826 84.1264 59.0707 83.8574 59.0707ZM89.9749 60.0816V61.38H85.8803V60.0816H89.9749ZM86.8912 58.3751H88.5698V65.0618C88.5698 65.2875 88.6038 65.4606 88.6718 65.5811C88.7429 65.6986 88.8357 65.779 88.9501 65.8223C89.0645 65.8655 89.1912 65.8872 89.3303 65.8872C89.4354 65.8872 89.5312 65.8794 89.6178 65.864C89.7075 65.8485 89.7755 65.8346 89.8218 65.8223L90.1047 67.1345C90.015 67.1655 89.8868 67.1995 89.7198 67.2366C89.556 67.2737 89.355 67.2953 89.117 67.3015C88.6966 67.3138 88.3179 67.2505 87.9809 67.1114C87.644 66.9692 87.3766 66.7497 87.1787 66.4529C86.984 66.1561 86.8881 65.7852 86.8912 65.34V58.3751ZM93.2104 63.0308V67.2041H91.5318V57.7074H93.1733V61.2919H93.2567C93.4237 60.89 93.6818 60.5731 94.0311 60.3413C94.3835 60.1063 94.8318 59.9888 95.3759 59.9888C95.8705 59.9888 96.3017 60.0924 96.6696 60.2995C97.0375 60.5066 97.3219 60.8096 97.5228 61.2084C97.7269 61.6072 97.8289 62.0941 97.8289 62.6691V67.2041H96.1503V62.9287C96.1503 62.4496 96.0266 62.0771 95.7793 61.8112C95.5351 61.5423 95.1919 61.4078 94.7499 61.4078C94.4531 61.4078 94.1872 61.4727 93.9523 61.6025C93.7204 61.7293 93.5381 61.9132 93.4051 62.1543C93.2753 62.3955 93.2104 62.6876 93.2104 63.0308ZM105.886 67.3432C105.19 67.3432 104.587 67.1902 104.077 66.8841C103.567 66.5781 103.172 66.1499 102.89 65.5997C102.612 65.0494 102.473 64.4064 102.473 63.6707C102.473 62.9349 102.612 62.2904 102.89 61.737C103.172 61.1837 103.567 60.754 104.077 60.4479C104.587 60.1419 105.19 59.9888 105.886 59.9888C106.581 59.9888 107.184 60.1419 107.694 60.4479C108.204 60.754 108.598 61.1837 108.877 61.737C109.158 62.2904 109.299 62.9349 109.299 63.6707C109.299 64.4064 109.158 65.0494 108.877 65.5997C108.598 66.1499 108.204 66.5781 107.694 66.8841C107.184 67.1902 106.581 67.3432 105.886 67.3432ZM105.895 65.9985C106.272 65.9985 106.587 65.8949 106.841 65.6878C107.094 65.4776 107.283 65.1963 107.407 64.8438C107.533 64.4914 107.597 64.0988 107.597 63.666C107.597 63.2301 107.533 62.836 107.407 62.4836C107.283 62.1281 107.094 61.8452 106.841 61.635C106.587 61.4248 106.272 61.3197 105.895 61.3197C105.509 61.3197 105.187 61.4248 104.931 61.635C104.677 61.8452 104.487 62.1281 104.36 62.4836C104.237 62.836 104.175 63.2301 104.175 63.666C104.175 64.0988 104.237 64.4914 104.36 64.8438C104.487 65.1963 104.677 65.4776 104.931 65.6878C105.187 65.8949 105.509 65.9985 105.895 65.9985ZM115.263 64.2086V60.0816H116.942V67.2041H115.314V65.9382H115.24C115.079 66.337 114.815 66.6631 114.447 66.9166C114.082 67.1701 113.632 67.2968 113.098 67.2968C112.631 67.2968 112.218 67.1933 111.859 66.9862C111.504 66.7759 111.226 66.4714 111.025 66.0727C110.824 65.6708 110.723 65.1854 110.723 64.6166V60.0816H112.402V64.3569C112.402 64.8083 112.526 65.1669 112.773 65.4327C113.02 65.6986 113.345 65.8315 113.747 65.8315C113.994 65.8315 114.234 65.7713 114.465 65.6507C114.697 65.5301 114.887 65.3508 115.036 65.1128C115.187 64.8717 115.263 64.5703 115.263 64.2086ZM118.668 67.2041V60.0816H120.295V61.2687H120.37C120.499 60.8575 120.722 60.5407 121.037 60.3181C121.356 60.0924 121.719 59.9796 122.127 59.9796C122.22 59.9796 122.323 59.9842 122.438 59.9935C122.555 59.9997 122.653 60.0105 122.73 60.0259V61.5701C122.659 61.5453 122.546 61.5237 122.391 61.5052C122.24 61.4835 122.093 61.4727 121.951 61.4727C121.645 61.4727 121.37 61.5392 121.125 61.6721C120.884 61.8019 120.694 61.9828 120.555 62.2146C120.416 62.4465 120.346 62.7139 120.346 63.0168V67.2041H118.668ZM127.084 69.875V60.0816H128.735V61.2594H128.832C128.919 61.0863 129.041 60.9023 129.199 60.7076C129.356 60.5097 129.57 60.3413 129.838 60.2021C130.107 60.0599 130.451 59.9888 130.868 59.9888C131.418 59.9888 131.914 60.1295 132.356 60.4108C132.802 60.689 133.154 61.1017 133.414 61.6489C133.676 62.193 133.808 62.8607 133.808 63.6521C133.808 64.4342 133.679 65.0989 133.423 65.6461C133.166 66.1932 132.817 66.6106 132.375 66.8981C131.933 67.1856 131.432 67.3293 130.873 67.3293C130.464 67.3293 130.126 67.2613 129.857 67.1253C129.588 66.9893 129.372 66.8254 129.208 66.6337C129.047 66.439 128.922 66.2551 128.832 66.0819H128.763V69.875H127.084ZM128.73 63.6428C128.73 64.1035 128.795 64.5069 128.925 64.8531C129.058 65.1993 129.248 65.4698 129.495 65.6646C129.746 65.8563 130.049 65.9521 130.404 65.9521C130.775 65.9521 131.086 65.8532 131.336 65.6553C131.587 65.4544 131.775 65.1808 131.902 64.8346C132.032 64.4852 132.097 64.088 132.097 63.6428C132.097 63.2008 132.033 62.8082 131.907 62.465C131.78 62.1219 131.591 61.8529 131.341 61.6582C131.09 61.4634 130.778 61.366 130.404 61.366C130.046 61.366 129.741 61.4603 129.491 61.6489C129.24 61.8375 129.05 62.1018 128.92 62.4418C128.794 62.7819 128.73 63.1822 128.73 63.6428ZM135.245 67.2041V60.0816H136.873V61.2687H136.947C137.077 60.8575 137.299 60.5407 137.615 60.3181C137.933 60.0924 138.296 59.9796 138.705 59.9796C138.797 59.9796 138.901 59.9842 139.015 59.9935C139.133 59.9997 139.23 60.0105 139.307 60.0259V61.5701C139.236 61.5453 139.123 61.5237 138.969 61.5052C138.817 61.4835 138.671 61.4727 138.528 61.4727C138.222 61.4727 137.947 61.5392 137.703 61.6721C137.462 61.8019 137.272 61.9828 137.133 62.2146C136.993 62.4465 136.924 62.7139 136.924 63.0168V67.2041H135.245ZM143.236 67.3432C142.541 67.3432 141.938 67.1902 141.428 66.8841C140.918 66.5781 140.522 66.1499 140.241 65.5997C139.962 65.0494 139.823 64.4064 139.823 63.6707C139.823 62.9349 139.962 62.2904 140.241 61.737C140.522 61.1837 140.918 60.754 141.428 60.4479C141.938 60.1419 142.541 59.9888 143.236 59.9888C143.932 59.9888 144.534 60.1419 145.045 60.4479C145.555 60.754 145.949 61.1837 146.227 61.737C146.508 62.2904 146.649 62.9349 146.649 63.6707C146.649 64.4064 146.508 65.0494 146.227 65.5997C145.949 66.1499 145.555 66.5781 145.045 66.8841C144.534 67.1902 143.932 67.3432 143.236 67.3432ZM143.245 65.9985C143.623 65.9985 143.938 65.8949 144.191 65.6878C144.445 65.4776 144.633 65.1963 144.757 64.8438C144.884 64.4914 144.947 64.0988 144.947 63.666C144.947 63.2301 144.884 62.836 144.757 62.4836C144.633 62.1281 144.445 61.8452 144.191 61.635C143.938 61.4248 143.623 61.3197 143.245 61.3197C142.859 61.3197 142.537 61.4248 142.281 61.635C142.027 61.8452 141.837 62.1281 141.71 62.4836C141.587 62.836 141.525 63.2301 141.525 63.666C141.525 64.0988 141.587 64.4914 141.71 64.8438C141.837 65.1963 142.027 65.4776 142.281 65.6878C142.537 65.8949 142.859 65.9985 143.245 65.9985ZM150.717 67.3293C150.157 67.3293 149.656 67.1856 149.214 66.8981C148.772 66.6106 148.423 66.1932 148.166 65.6461C147.91 65.0989 147.782 64.4342 147.782 63.6521C147.782 62.8607 147.911 62.193 148.171 61.6489C148.434 61.1017 148.788 60.689 149.233 60.4108C149.678 60.1295 150.174 59.9888 150.721 59.9888C151.139 59.9888 151.482 60.0599 151.751 60.2021C152.02 60.3413 152.233 60.5097 152.391 60.7076C152.548 60.9023 152.671 61.0863 152.757 61.2594H152.827V57.7074H154.51V67.2041H152.859V66.0819H152.757C152.671 66.2551 152.545 66.439 152.382 66.6337C152.218 66.8254 152.001 66.9893 151.732 67.1253C151.463 67.2613 151.125 67.3293 150.717 67.3293ZM151.185 65.9521C151.541 65.9521 151.844 65.8563 152.094 65.6646C152.344 65.4698 152.535 65.1993 152.664 64.8531C152.794 64.5069 152.859 64.1035 152.859 63.6428C152.859 63.1822 152.794 62.7819 152.664 62.4418C152.538 62.1018 152.349 61.8375 152.099 61.6489C151.851 61.4603 151.547 61.366 151.185 61.366C150.811 61.366 150.499 61.4634 150.248 61.6582C149.998 61.8529 149.81 62.1219 149.683 62.465C149.556 62.8082 149.493 63.2008 149.493 63.6428C149.493 64.088 149.556 64.4852 149.683 64.8346C149.813 65.1808 150.003 65.4544 150.253 65.6553C150.507 65.8532 150.817 65.9521 151.185 65.9521ZM160.838 64.2086V60.0816H162.517V67.2041H160.889V65.9382H160.815C160.654 66.337 160.39 66.6631 160.022 66.9166C159.657 67.1701 159.208 67.2968 158.673 67.2968C158.206 67.2968 157.793 67.1933 157.435 66.9862C157.079 66.7759 156.801 66.4714 156.6 66.0727C156.399 65.6708 156.299 65.1854 156.299 64.6166V60.0816H157.977V64.3569C157.977 64.8083 158.101 65.1669 158.348 65.4327C158.596 65.6986 158.92 65.8315 159.322 65.8315C159.569 65.8315 159.809 65.7713 160.041 65.6507C160.273 65.5301 160.463 65.3508 160.611 65.1128C160.763 64.8717 160.838 64.5703 160.838 64.2086ZM167.35 67.3432C166.639 67.3432 166.028 67.1871 165.518 66.8749C165.011 66.5626 164.62 66.1314 164.345 65.5811C164.073 65.0278 163.937 64.391 163.937 63.6707C163.937 62.9473 164.076 62.3089 164.354 61.7556C164.633 61.1991 165.025 60.7663 165.532 60.4572C166.042 60.145 166.645 59.9888 167.341 59.9888C167.919 59.9888 168.43 60.0955 168.876 60.3088C169.324 60.519 169.681 60.8173 169.947 61.2038C170.213 61.5871 170.364 62.0353 170.401 62.5485H168.797C168.732 62.2054 168.577 61.9194 168.333 61.6906C168.092 61.4588 167.769 61.3429 167.364 61.3429C167.021 61.3429 166.719 61.4356 166.46 61.6211C166.2 61.8035 165.997 62.0662 165.852 62.4094C165.71 62.7525 165.639 63.1637 165.639 63.6428C165.639 64.1282 165.71 64.5455 165.852 64.8948C165.994 65.2411 166.194 65.5085 166.45 65.6971C166.71 65.8825 167.015 65.9753 167.364 65.9753C167.611 65.9753 167.832 65.9289 168.027 65.8362C168.225 65.7403 168.39 65.6028 168.523 65.4235C168.656 65.2442 168.747 65.0262 168.797 64.7696H170.401C170.361 65.2735 170.213 65.7202 169.956 66.1098C169.699 66.4962 169.35 66.7991 168.908 67.0186C168.466 67.235 167.947 67.3432 167.35 67.3432ZM175.336 60.0816V61.38H171.242V60.0816H175.336ZM172.252 58.3751H173.931V65.0618C173.931 65.2875 173.965 65.4606 174.033 65.5811C174.104 65.6986 174.197 65.779 174.311 65.8223C174.426 65.8655 174.552 65.8872 174.692 65.8872C174.797 65.8872 174.892 65.8794 174.979 65.864C175.069 65.8485 175.137 65.8346 175.183 65.8223L175.466 67.1345C175.376 67.1655 175.248 67.1995 175.081 67.2366C174.917 67.2737 174.716 67.2953 174.478 67.3015C174.058 67.3138 173.679 67.2505 173.342 67.1114C173.005 66.9692 172.738 66.7497 172.54 66.4529C172.345 66.1561 172.249 65.7852 172.252 65.34V58.3751Z" fill="#050505"/>
<path d="M88.5795 85.5566L86.8484 79.2255H87.6274L88.9505 84.3819H89.0123L90.3602 79.2255H91.2257L92.5736 84.3819H92.6354L93.9585 79.2255H94.7375L93.0064 85.5566H92.215L90.8177 80.5115H90.7682L89.3709 85.5566H88.5795ZM97.1426 85.6556C96.6851 85.6556 96.2904 85.5546 95.9586 85.3526C95.6289 85.1486 95.3744 84.8642 95.1951 84.4994C95.0178 84.1325 94.9292 83.7059 94.9292 83.2196C94.9292 82.7332 95.0178 82.3045 95.1951 81.9336C95.3744 81.5605 95.6237 81.2699 95.9432 81.0618C96.2647 80.8516 96.6398 80.7465 97.0684 80.7465C97.3157 80.7465 97.56 80.7877 97.8011 80.8701C98.0422 80.9526 98.2617 81.0865 98.4596 81.272C98.6574 81.4554 98.8151 81.6986 98.9325 82.0016C99.05 82.3045 99.1087 82.6775 99.1087 83.1206V83.4298H95.4486V82.7991H98.3668C98.3668 82.5312 98.3132 82.2922 98.2061 82.0819C98.101 81.8717 97.9505 81.7058 97.7547 81.5842C97.561 81.4626 97.3322 81.4018 97.0684 81.4018C96.7778 81.4018 96.5264 81.474 96.3141 81.6182C96.1039 81.7604 95.9421 81.9459 95.8288 82.1747C95.7154 82.4034 95.6588 82.6487 95.6588 82.9104V83.3309C95.6588 83.6895 95.7206 83.9934 95.8443 84.2428C95.97 84.4901 96.1441 84.6787 96.3667 84.8085C96.5893 84.9363 96.8479 85.0002 97.1426 85.0002C97.3343 85.0002 97.5074 84.9734 97.662 84.9198C97.8186 84.8642 97.9536 84.7817 98.0669 84.6725C98.1803 84.5612 98.2679 84.4231 98.3297 84.2583L99.0345 84.4561C98.9604 84.6952 98.8357 84.9054 98.6605 85.0868C98.4853 85.2661 98.2689 85.4062 98.0113 85.5072C97.7537 85.6061 97.4641 85.6556 97.1426 85.6556ZM100.862 79.2255V79.782C100.862 79.951 100.831 80.1313 100.769 80.323C100.709 80.5126 100.62 80.697 100.503 80.8763C100.388 81.0535 100.247 81.2081 100.083 81.34L99.6868 81.0185C99.8167 80.833 99.929 80.6403 100.024 80.4404C100.121 80.2385 100.169 80.0231 100.169 79.7943V79.2255H100.862ZM103.074 85.6556C102.678 85.6556 102.329 85.5556 102.026 85.3557C101.723 85.1537 101.486 84.8693 101.315 84.5025C101.144 84.1336 101.059 83.6977 101.059 83.1948C101.059 82.6961 101.144 82.2633 101.315 81.8965C101.486 81.5296 101.724 81.2462 102.029 81.0463C102.334 80.8464 102.687 80.7465 103.087 80.7465C103.396 80.7465 103.64 80.798 103.819 80.901C104.001 81.002 104.139 81.1174 104.233 81.2473C104.33 81.375 104.406 81.4802 104.459 81.5626H104.521V79.2255H105.251V85.5566H104.546V84.8271H104.459C104.406 84.9136 104.329 85.0229 104.23 85.1548C104.131 85.2846 103.99 85.401 103.807 85.5041C103.623 85.6051 103.379 85.6556 103.074 85.6556ZM103.173 85.0002C103.466 85.0002 103.713 84.9239 103.915 84.7714C104.117 84.6169 104.271 84.4036 104.376 84.1315C104.481 83.8574 104.533 83.5411 104.533 83.1825C104.533 82.828 104.482 82.5178 104.379 82.252C104.276 81.984 104.123 81.7759 103.921 81.6275C103.719 81.4771 103.47 81.4018 103.173 81.4018C102.864 81.4018 102.606 81.4812 102.4 81.6399C102.196 81.7965 102.043 82.0098 101.94 82.2798C101.839 82.5477 101.788 82.8486 101.788 83.1825C101.788 83.5205 101.84 83.8275 101.943 84.1037C102.048 84.3778 102.202 84.5963 102.406 84.7591C102.613 84.9198 102.868 85.0002 103.173 85.0002ZM109.866 79.2255V85.5566H109.136V79.2255H109.866ZM113.131 85.6556C112.703 85.6556 112.326 85.5535 112.003 85.3495C111.681 85.1455 111.43 84.8601 111.249 84.4932C111.069 84.1264 110.98 83.6977 110.98 83.2072C110.98 82.7126 111.069 82.2808 111.249 81.9119C111.43 81.543 111.681 81.2565 112.003 81.0525C112.326 80.8485 112.703 80.7465 113.131 80.7465C113.56 80.7465 113.935 80.8485 114.256 81.0525C114.58 81.2565 114.831 81.543 115.011 81.9119C115.192 82.2808 115.283 82.7126 115.283 83.2072C115.283 83.6977 115.192 84.1264 115.011 84.4932C114.831 84.8601 114.58 85.1455 114.256 85.3495C113.935 85.5535 113.56 85.6556 113.131 85.6556ZM113.131 85.0002C113.457 85.0002 113.725 84.9167 113.935 84.7498C114.145 84.5829 114.301 84.3634 114.402 84.0913C114.503 83.8193 114.553 83.5246 114.553 83.2072C114.553 82.8898 114.503 82.5941 114.402 82.32C114.301 82.0459 114.145 81.8243 113.935 81.6553C113.725 81.4863 113.457 81.4018 113.131 81.4018C112.806 81.4018 112.538 81.4863 112.327 81.6553C112.117 81.8243 111.962 82.0459 111.861 82.32C111.76 82.5941 111.709 82.8898 111.709 83.2072C111.709 83.5246 111.76 83.8193 111.861 84.0913C111.962 84.3634 112.117 84.5829 112.327 84.7498C112.538 84.9167 112.806 85.0002 113.131 85.0002ZM120.109 80.8083L118.353 85.5566H117.611L115.855 80.8083H116.647L117.958 84.5921H118.007L119.318 80.8083H120.109ZM122.893 85.6556C122.435 85.6556 122.041 85.5546 121.709 85.3526C121.379 85.1486 121.125 84.8642 120.945 84.4994C120.768 84.1325 120.68 83.7059 120.68 83.2196C120.68 82.7332 120.768 82.3045 120.945 81.9336C121.125 81.5605 121.374 81.2699 121.694 81.0618C122.015 80.8516 122.39 80.7465 122.819 80.7465C123.066 80.7465 123.31 80.7877 123.551 80.8701C123.793 80.9526 124.012 81.0865 124.21 81.272C124.408 81.4554 124.565 81.6986 124.683 82.0016C124.8 82.3045 124.859 82.6775 124.859 83.1206V83.4298H121.199V82.7991H124.117C124.117 82.5312 124.064 82.2922 123.956 82.0819C123.851 81.8717 123.701 81.7058 123.505 81.5842C123.311 81.4626 123.083 81.4018 122.819 81.4018C122.528 81.4018 122.277 81.474 122.064 81.6182C121.854 81.7604 121.692 81.9459 121.579 82.1747C121.466 82.4034 121.409 82.6487 121.409 82.9104V83.3309C121.409 83.6895 121.471 83.9934 121.595 84.2428C121.72 84.4901 121.894 84.6787 122.117 84.8085C122.34 84.9363 122.598 85.0002 122.893 85.0002C123.085 85.0002 123.258 84.9734 123.412 84.9198C123.569 84.8642 123.704 84.7817 123.817 84.6725C123.931 84.5612 124.018 84.4231 124.08 84.2583L124.785 84.4561C124.711 84.6952 124.586 84.9054 124.411 85.0868C124.236 85.2661 124.019 85.4062 123.762 85.5072C123.504 85.6061 123.214 85.6556 122.893 85.6556ZM130.482 80.8083V81.4266H128.022V80.8083H130.482ZM128.739 79.6707H129.468V84.1964C129.468 84.4025 129.498 84.5571 129.558 84.6601C129.62 84.7611 129.698 84.8291 129.793 84.8642C129.89 84.8971 129.992 84.9136 130.099 84.9136C130.179 84.9136 130.245 84.9095 130.297 84.9013C130.348 84.891 130.39 84.8827 130.42 84.8765L130.569 85.5319C130.519 85.5505 130.45 85.569 130.362 85.5876C130.273 85.6082 130.161 85.6185 130.025 85.6185C129.819 85.6185 129.617 85.5742 129.419 85.4855C129.223 85.3969 129.06 85.2619 128.93 85.0806C128.803 84.8992 128.739 84.6704 128.739 84.3943V79.6707ZM133.458 85.6556C133.029 85.6556 132.653 85.5535 132.329 85.3495C132.008 85.1455 131.756 84.8601 131.575 84.4932C131.396 84.1264 131.306 83.6977 131.306 83.2072C131.306 82.7126 131.396 82.2808 131.575 81.9119C131.756 81.543 132.008 81.2565 132.329 81.0525C132.653 80.8485 133.029 80.7465 133.458 80.7465C133.886 80.7465 134.261 80.8485 134.583 81.0525C134.907 81.2565 135.158 81.543 135.337 81.9119C135.519 82.2808 135.609 82.7126 135.609 83.2072C135.609 83.6977 135.519 84.1264 135.337 84.4932C135.158 84.8601 134.907 85.1455 134.583 85.3495C134.261 85.5535 133.886 85.6556 133.458 85.6556ZM133.458 85.0002C133.783 85.0002 134.051 84.9167 134.261 84.7498C134.472 84.5829 134.627 84.3634 134.728 84.0913C134.829 83.8193 134.88 83.5246 134.88 83.2072C134.88 82.8898 134.829 82.5941 134.728 82.32C134.627 82.0459 134.472 81.8243 134.261 81.6553C134.051 81.4863 133.783 81.4018 133.458 81.4018C133.132 81.4018 132.864 81.4863 132.654 81.6553C132.444 81.8243 132.288 82.0459 132.187 82.32C132.086 82.5941 132.036 82.8898 132.036 83.2072C132.036 83.5246 132.086 83.8193 132.187 84.0913C132.288 84.3634 132.444 84.5829 132.654 84.7498C132.864 84.9167 133.132 85.0002 133.458 85.0002ZM139.851 83.8255L139.839 82.9228H139.987L142.065 80.8083H142.968L140.754 83.0464H140.692L139.851 83.8255ZM139.171 85.5566V79.2255H139.901V85.5566H139.171ZM142.189 85.5566L140.334 83.2072L140.853 82.7002L143.116 85.5566H142.189ZM144.636 82.7002V85.5566H143.907V80.8083H144.611V81.5502H144.673C144.785 81.3091 144.954 81.1154 145.18 80.969C145.407 80.8207 145.7 80.7465 146.058 80.7465C146.38 80.7465 146.661 80.8124 146.902 80.9443C147.143 81.0742 147.331 81.272 147.465 81.5379C147.599 81.8017 147.666 82.1355 147.666 82.5395V85.5566H146.936V82.5889C146.936 82.2159 146.839 81.9253 146.646 81.7172C146.452 81.5069 146.186 81.4018 145.848 81.4018C145.615 81.4018 145.407 81.4523 145.223 81.5533C145.042 81.6543 144.899 81.8017 144.794 81.9954C144.689 82.1891 144.636 82.4241 144.636 82.7002ZM150.928 85.6556C150.499 85.6556 150.123 85.5535 149.799 85.3495C149.478 85.1455 149.227 84.8601 149.045 84.4932C148.866 84.1264 148.776 83.6977 148.776 83.2072C148.776 82.7126 148.866 82.2808 149.045 81.9119C149.227 81.543 149.478 81.2565 149.799 81.0525C150.123 80.8485 150.499 80.7465 150.928 80.7465C151.357 80.7465 151.732 80.8485 152.053 81.0525C152.377 81.2565 152.628 81.543 152.807 81.9119C152.989 82.2808 153.079 82.7126 153.079 83.2072C153.079 83.6977 152.989 84.1264 152.807 84.4932C152.628 84.8601 152.377 85.1455 152.053 85.3495C151.732 85.5535 151.357 85.6556 150.928 85.6556ZM150.928 85.0002C151.253 85.0002 151.521 84.9167 151.732 84.7498C151.942 84.5829 152.097 84.3634 152.198 84.0913C152.299 83.8193 152.35 83.5246 152.35 83.2072C152.35 82.8898 152.299 82.5941 152.198 82.32C152.097 82.0459 151.942 81.8243 151.732 81.6553C151.521 81.4863 151.253 81.4018 150.928 81.4018C150.602 81.4018 150.334 81.4863 150.124 81.6553C149.914 81.8243 149.758 82.0459 149.657 82.32C149.556 82.5941 149.506 82.8898 149.506 83.2072C149.506 83.5246 149.556 83.8193 149.657 84.0913C149.758 84.3634 149.914 84.5829 150.124 84.7498C150.334 84.9167 150.602 85.0002 150.928 85.0002ZM155.107 85.5566L153.661 80.8083H154.427L155.454 84.4437H155.503L156.517 80.8083H157.296L158.298 84.4314H158.347L159.373 80.8083H160.14L158.693 85.5566H157.976L156.937 81.9088H156.863L155.825 85.5566H155.107Z" fill="#575656"/>
<path d="M55.9555 98.2622L59.4803 104.272L66.325 105.744L61.6587 110.93L62.3642 117.849L55.9555 115.045L49.5468 117.849L50.2522 110.93L45.5859 105.744L52.4307 104.272L55.9555 98.2622Z" fill="#FFCB45"/>
<path d="M89.7524 98.2622L93.2772 104.272L100.122 105.744L95.4556 110.93L96.1611 117.849L89.7524 115.045L83.3436 117.849L84.0491 110.93L79.3828 105.744L86.2276 104.272L89.7524 98.2622Z" fill="#FFCB45"/>
<path d="M123.541 98.2622L127.066 104.272L133.911 105.744L129.245 110.93L129.95 117.849L123.541 115.045L117.133 117.849L117.838 110.93L113.172 105.744L120.017 104.272L123.541 98.2622Z" fill="#FFCB45"/>
<path d="M157.346 98.2622L160.871 104.272L167.716 105.744L163.049 110.93L163.755 117.849L157.346 115.045L150.937 117.849L151.643 110.93L146.977 105.744L153.821 104.272L157.346 98.2622Z" fill="#F2F2F2"/>
<path d="M150.937 117.849L157.346 115.045V98.2622L153.821 104.272L146.977 105.744L151.643 110.93L150.937 117.849Z" fill="#FFCB45"/>
<path d="M191.143 98.2622L194.668 104.272L201.513 105.744L196.846 110.93L197.552 117.849L191.143 115.045L184.734 117.849L185.44 110.93L180.773 105.744L187.618 104.272L191.143 98.2622Z" fill="#F2F2F2"/>
<path d="M31.9719 126.838L33.6165 131.502H33.6814L35.326 126.838H36.0293L33.9952 132.378H33.3027L31.2686 126.838H31.9719ZM38.1608 132.464C37.7605 132.464 37.4152 132.376 37.1248 132.199C36.8363 132.021 36.6136 131.772 36.4567 131.453C36.3016 131.132 36.2241 130.759 36.2241 130.333C36.2241 129.907 36.3016 129.532 36.4567 129.208C36.6136 128.881 36.8318 128.627 37.1113 128.445C37.3926 128.261 37.7208 128.169 38.0959 128.169C38.3123 128.169 38.526 128.205 38.737 128.277C38.948 128.349 39.14 128.467 39.3131 128.629C39.4863 128.789 39.6242 129.002 39.727 129.267C39.8298 129.532 39.8812 129.859 39.8812 130.246V130.517H36.6785V129.965H39.232C39.232 129.731 39.1851 129.522 39.0913 129.338C38.9994 129.154 38.8677 129.008 38.6964 128.902C38.5269 128.796 38.3267 128.742 38.0959 128.742C37.8416 128.742 37.6216 128.806 37.4359 128.932C37.252 129.056 37.1104 129.219 37.0112 129.419C36.912 129.619 36.8625 129.833 36.8625 130.062V130.43C36.8625 130.744 36.9166 131.01 37.0248 131.228C37.1348 131.445 37.2871 131.61 37.4819 131.723C37.6766 131.835 37.903 131.891 38.1608 131.891C38.3285 131.891 38.48 131.868 38.6153 131.821C38.7523 131.772 38.8704 131.7 38.9696 131.604C39.0688 131.507 39.1454 131.386 39.1995 131.242L39.8163 131.415C39.7513 131.624 39.6422 131.808 39.489 131.967C39.3357 132.124 39.1463 132.246 38.9209 132.335C38.6955 132.421 38.4421 132.464 38.1608 132.464ZM40.8523 132.378V128.223H41.469V128.851H41.5123C41.588 128.645 41.7251 128.478 41.9234 128.35C42.1218 128.222 42.3454 128.158 42.5942 128.158C42.6411 128.158 42.6997 128.159 42.7701 128.161C42.8404 128.163 42.8936 128.165 42.9297 128.169V128.818C42.908 128.813 42.8584 128.805 42.7809 128.794C42.7051 128.781 42.6249 128.775 42.5401 128.775C42.3382 128.775 42.1578 128.817 41.9992 128.902C41.8423 128.985 41.7178 129.1 41.6259 129.248C41.5357 129.394 41.4906 129.561 41.4906 129.749V132.378H40.8523ZM44.224 133.936C44.1158 133.936 44.0193 133.927 43.9345 133.909C43.8498 133.893 43.7912 133.876 43.7587 133.86L43.921 133.298C44.0761 133.337 44.2132 133.352 44.3322 133.341C44.4512 133.33 44.5567 133.277 44.6487 133.181C44.7424 133.088 44.8281 132.935 44.9056 132.724L45.0246 132.4L43.4882 128.223H44.1807L45.3276 131.534H45.3709L46.5178 128.223H47.2102L45.4466 132.984C45.3673 133.198 45.269 133.376 45.1518 133.517C45.0346 133.659 44.8984 133.765 44.7433 133.833C44.59 133.902 44.4169 133.936 44.224 133.936ZM52.8135 130.679V128.223H53.4519V132.378H52.8135V131.675H52.7703C52.6729 131.886 52.5214 132.065 52.3158 132.213C52.1103 132.359 51.8506 132.432 51.5368 132.432C51.2771 132.432 51.0463 132.375 50.8443 132.262C50.6424 132.146 50.4837 131.973 50.3683 131.742C50.2529 131.51 50.1951 131.217 50.1951 130.863V128.223H50.8335V130.82C50.8335 131.123 50.9183 131.364 51.0878 131.545C51.2591 131.725 51.4773 131.815 51.7424 131.815C51.9011 131.815 52.0625 131.775 52.2266 131.694C52.3925 131.612 52.5313 131.488 52.6431 131.32C52.7567 131.153 52.8135 130.939 52.8135 130.679ZM55.2595 129.879V132.378H54.6211V128.223H55.2378V128.872H55.2919C55.3893 128.661 55.5372 128.492 55.7356 128.364C55.9339 128.234 56.19 128.169 56.5038 128.169C56.7851 128.169 57.0312 128.227 57.2422 128.342C57.4532 128.456 57.6173 128.629 57.7345 128.861C57.8517 129.092 57.9103 129.384 57.9103 129.738V132.378H57.272V129.781C57.272 129.455 57.1872 129.201 57.0177 129.018C56.8482 128.834 56.6156 128.742 56.3198 128.742C56.1161 128.742 55.9339 128.787 55.7734 128.875C55.6147 128.963 55.4894 129.092 55.3974 129.262C55.3055 129.431 55.2595 129.637 55.2595 129.879ZM62.0198 129.154L61.4464 129.316C61.4103 129.22 61.3571 129.127 61.2868 129.037C61.2183 128.945 61.1245 128.87 61.0055 128.81C60.8865 128.751 60.7341 128.721 60.5483 128.721C60.2941 128.721 60.0822 128.779 59.9127 128.897C59.745 129.012 59.6611 129.159 59.6611 129.338C59.6611 129.496 59.7188 129.622 59.8342 129.714C59.9496 129.806 60.13 129.882 60.3752 129.943L60.992 130.095C61.3634 130.185 61.6402 130.323 61.8224 130.509C62.0045 130.693 62.0956 130.93 62.0956 131.22C62.0956 131.458 62.027 131.671 61.89 131.859C61.7547 132.046 61.5654 132.194 61.322 132.302C61.0785 132.41 60.7954 132.464 60.4726 132.464C60.0488 132.464 59.6981 132.373 59.4204 132.189C59.1427 132.005 58.9668 131.736 58.8929 131.383L59.4988 131.231C59.5565 131.455 59.6656 131.622 59.8261 131.734C59.9884 131.846 60.2003 131.902 60.4618 131.902C60.7593 131.902 60.9956 131.839 61.1705 131.713C61.3472 131.584 61.4356 131.431 61.4356 131.253C61.4356 131.108 61.3851 130.988 61.2841 130.89C61.1831 130.791 61.028 130.717 60.8188 130.668L60.1264 130.506C59.7459 130.416 59.4664 130.276 59.2878 130.087C59.1111 129.896 59.0228 129.657 59.0228 129.37C59.0228 129.136 59.0886 128.928 59.2202 128.748C59.3537 128.568 59.5349 128.426 59.7639 128.323C59.9947 128.22 60.2562 128.169 60.5483 128.169C60.9595 128.169 61.2823 128.259 61.5167 128.44C61.7529 128.62 61.9207 128.858 62.0198 129.154ZM64.2791 132.475C64.0159 132.475 63.7769 132.426 63.5623 132.327C63.3477 132.226 63.1773 132.08 63.0511 131.891C62.9249 131.7 62.8617 131.469 62.8617 131.199C62.8617 130.961 62.9086 130.768 63.0024 130.62C63.0962 130.47 63.2215 130.353 63.3784 130.268C63.5353 130.183 63.7084 130.12 63.8977 130.079C64.0889 130.035 64.2809 130.001 64.4739 129.976C64.7264 129.943 64.931 129.919 65.0879 129.903C65.2466 129.885 65.362 129.855 65.4342 129.814C65.5081 129.772 65.5451 129.7 65.5451 129.597V129.576C65.5451 129.309 65.472 129.101 65.326 128.953C65.1817 128.806 64.9626 128.732 64.6687 128.732C64.3639 128.732 64.125 128.798 63.9518 128.932C63.7787 129.065 63.657 129.208 63.5867 129.359L62.9808 129.143C63.089 128.89 63.2332 128.694 63.4136 128.553C63.5957 128.411 63.7941 128.311 64.0086 128.256C64.225 128.198 64.4378 128.169 64.647 128.169C64.7805 128.169 64.9337 128.185 65.1069 128.218C65.2818 128.248 65.4504 128.312 65.6127 128.41C65.7768 128.507 65.9129 128.654 66.0211 128.851C66.1293 129.047 66.1834 129.311 66.1834 129.641V132.378H65.5451V131.815H65.5126C65.4693 131.905 65.3972 132.002 65.2962 132.105C65.1952 132.208 65.0609 132.295 64.8932 132.367C64.7255 132.439 64.5208 132.475 64.2791 132.475ZM64.3765 131.902C64.629 131.902 64.8418 131.852 65.0149 131.753C65.1898 131.654 65.3214 131.526 65.4098 131.369C65.5 131.212 65.5451 131.047 65.5451 130.874V130.29C65.518 130.322 65.4585 130.352 65.3665 130.379C65.2764 130.404 65.1718 130.427 65.0528 130.447C64.9355 130.465 64.821 130.481 64.7092 130.495C64.5992 130.508 64.51 130.519 64.4414 130.528C64.2755 130.549 64.1205 130.585 63.9762 130.633C63.8337 130.68 63.7183 130.751 63.63 130.847C63.5434 130.941 63.5001 131.069 63.5001 131.231C63.5001 131.453 63.5822 131.621 63.7463 131.734C63.9122 131.846 64.1223 131.902 64.3765 131.902ZM69.1555 128.223V128.764H67.0023V128.223H69.1555ZM67.6299 127.228H68.2683V131.188C68.2683 131.368 68.2944 131.503 68.3467 131.593C68.4008 131.682 68.4693 131.741 68.5523 131.772C68.637 131.801 68.7263 131.815 68.8201 131.815C68.8904 131.815 68.9481 131.812 68.9932 131.804C69.0383 131.795 69.0743 131.788 69.1014 131.783L69.2312 132.356C69.1879 132.373 69.1275 132.389 69.05 132.405C68.9725 132.423 68.8742 132.432 68.7552 132.432C68.5748 132.432 68.3981 132.393 68.225 132.316C68.0537 132.238 67.9112 132.12 67.7976 131.961C67.6858 131.803 67.6299 131.603 67.6299 131.361V127.228ZM70.1157 132.378V128.223H70.7541V132.378H70.1157ZM70.4403 127.531C70.3159 127.531 70.2086 127.488 70.1184 127.404C70.0301 127.319 69.9859 127.217 69.9859 127.098C69.9859 126.979 70.0301 126.877 70.1184 126.792C70.2086 126.707 70.3159 126.665 70.4403 126.665C70.5648 126.665 70.6712 126.707 70.7595 126.792C70.8497 126.877 70.8948 126.979 70.8948 127.098C70.8948 127.217 70.8497 127.319 70.7595 127.404C70.6712 127.488 70.5648 127.531 70.4403 127.531ZM74.8663 129.154L74.2929 129.316C74.2568 129.22 74.2036 129.127 74.1333 129.037C74.0647 128.945 73.971 128.87 73.852 128.81C73.7329 128.751 73.5806 128.721 73.3948 128.721C73.1406 128.721 72.9287 128.779 72.7592 128.897C72.5914 129.012 72.5076 129.159 72.5076 129.338C72.5076 129.496 72.5653 129.622 72.6807 129.714C72.7961 129.806 72.9765 129.882 73.2217 129.943L73.8384 130.095C74.2099 130.185 74.4867 130.323 74.6689 130.509C74.851 130.693 74.9421 130.93 74.9421 131.22C74.9421 131.458 74.8735 131.671 74.7365 131.859C74.6012 132.046 74.4119 132.194 74.1684 132.302C73.925 132.41 73.6419 132.464 73.3191 132.464C72.8953 132.464 72.5446 132.373 72.2669 132.189C71.9891 132.005 71.8133 131.736 71.7394 131.383L72.3453 131.231C72.403 131.455 72.5121 131.622 72.6726 131.734C72.8349 131.846 73.0468 131.902 73.3083 131.902C73.6058 131.902 73.842 131.839 74.017 131.713C74.1937 131.584 74.282 131.431 74.282 131.253C74.282 131.108 74.2316 130.988 74.1306 130.89C74.0296 130.791 73.8745 130.717 73.6653 130.668L72.9728 130.506C72.5924 130.416 72.3128 130.276 72.1343 130.087C71.9576 129.896 71.8692 129.657 71.8692 129.37C71.8692 129.136 71.935 128.928 72.0667 128.748C72.2001 128.568 72.3814 128.426 72.6104 128.323C72.8412 128.22 73.1027 128.169 73.3948 128.169C73.806 128.169 74.1288 128.259 74.3632 128.44C74.5994 128.62 74.7671 128.858 74.8663 129.154ZM77.7532 128.223V128.764H75.5135V128.223H77.7532ZM76.1843 132.378V127.65C76.1843 127.412 76.2402 127.213 76.352 127.055C76.4638 126.896 76.609 126.777 76.7875 126.698C76.966 126.618 77.1545 126.579 77.3528 126.579C77.5097 126.579 77.6378 126.591 77.7369 126.616C77.8361 126.642 77.9101 126.665 77.9587 126.687L77.7748 127.239C77.7423 127.228 77.6973 127.214 77.6396 127.198C77.5837 127.182 77.5097 127.174 77.4178 127.174C77.2068 127.174 77.0544 127.227 76.9606 127.333C76.8686 127.44 76.8227 127.596 76.8227 127.801V132.378H76.1843ZM78.6478 132.378V128.223H79.2862V132.378H78.6478ZM78.9724 127.531C78.848 127.531 78.7407 127.488 78.6505 127.404C78.5622 127.319 78.518 127.217 78.518 127.098C78.518 126.979 78.5622 126.877 78.6505 126.792C78.7407 126.707 78.848 126.665 78.9724 126.665C79.0969 126.665 79.2032 126.707 79.2916 126.792C79.3818 126.877 79.4269 126.979 79.4269 127.098C79.4269 127.217 79.3818 127.319 79.2916 127.404C79.2032 127.488 79.0969 127.531 78.9724 127.531ZM82.1974 132.464C81.7971 132.464 81.4517 132.376 81.1614 132.199C80.8729 132.021 80.6502 131.772 80.4933 131.453C80.3382 131.132 80.2607 130.759 80.2607 130.333C80.2607 129.907 80.3382 129.532 80.4933 129.208C80.6502 128.881 80.8684 128.627 81.1479 128.445C81.4292 128.261 81.7574 128.169 82.1325 128.169C82.3489 128.169 82.5626 128.205 82.7736 128.277C82.9845 128.349 83.1766 128.467 83.3497 128.629C83.5228 128.789 83.6608 129.002 83.7636 129.267C83.8664 129.532 83.9177 129.859 83.9177 130.246V130.517H80.7151V129.965H83.2686C83.2686 129.731 83.2217 129.522 83.1279 129.338C83.0359 129.154 82.9043 129.008 82.733 128.902C82.5635 128.796 82.3633 128.742 82.1325 128.742C81.8782 128.742 81.6582 128.806 81.4725 128.932C81.2885 129.056 81.147 129.219 81.0478 129.419C80.9486 129.619 80.899 129.833 80.899 130.062V130.43C80.899 130.744 80.9531 131.01 81.0613 131.228C81.1713 131.445 81.3237 131.61 81.5185 131.723C81.7132 131.835 81.9395 131.891 82.1974 131.891C82.3651 131.891 82.5166 131.868 82.6518 131.821C82.7889 131.772 82.907 131.7 83.0062 131.604C83.1054 131.507 83.182 131.386 83.2361 131.242L83.8528 131.415C83.7879 131.624 83.6788 131.808 83.5255 131.967C83.3722 132.124 83.1829 132.246 82.9575 132.335C82.7321 132.421 82.4787 132.464 82.1974 132.464ZM86.4577 132.464C86.1115 132.464 85.8058 132.377 85.5407 132.202C85.2756 132.025 85.0683 131.777 84.9186 131.456C84.7689 131.133 84.6941 130.751 84.6941 130.311C84.6941 129.875 84.7689 129.496 84.9186 129.175C85.0683 128.854 85.2765 128.606 85.5434 128.431C85.8103 128.256 86.1187 128.169 86.4685 128.169C86.739 128.169 86.9527 128.214 87.1096 128.304C87.2683 128.393 87.3891 128.494 87.472 128.607C87.5568 128.719 87.6226 128.811 87.6695 128.883H87.7236V126.838H88.362V132.378H87.7452V131.74H87.6695C87.6226 131.815 87.5559 131.911 87.4693 132.026C87.3828 132.14 87.2593 132.242 87.0988 132.332C86.9383 132.42 86.7246 132.464 86.4577 132.464ZM86.5443 131.891C86.8003 131.891 87.0167 131.824 87.1934 131.691C87.3702 131.556 87.5045 131.369 87.5965 131.131C87.6884 130.891 87.7344 130.614 87.7344 130.301C87.7344 129.99 87.6893 129.719 87.5992 129.486C87.509 129.252 87.3756 129.07 87.1988 128.94C87.0221 128.808 86.8039 128.742 86.5443 128.742C86.2738 128.742 86.0483 128.812 85.868 128.951C85.6895 129.088 85.5551 129.274 85.465 129.511C85.3766 129.745 85.3324 130.008 85.3324 130.301C85.3324 130.596 85.3775 130.865 85.4677 131.107C85.5597 131.346 85.6949 131.538 85.8734 131.68C86.0538 131.821 86.2774 131.891 86.5443 131.891Z" fill="#999999"/>
<path d="M168.217 126.838L169.862 131.502H169.927L171.572 126.838H172.275L170.241 132.378H169.548L167.514 126.838H168.217ZM174.406 132.464C174.006 132.464 173.661 132.376 173.37 132.199C173.082 132.021 172.859 131.772 172.702 131.453C172.547 131.132 172.47 130.759 172.47 130.333C172.47 129.907 172.547 129.532 172.702 129.208C172.859 128.881 173.077 128.627 173.357 128.445C173.638 128.261 173.966 128.169 174.341 128.169C174.558 128.169 174.772 128.205 174.983 128.277C175.194 128.349 175.386 128.467 175.559 128.629C175.732 128.789 175.87 129.002 175.973 129.267C176.075 129.532 176.127 129.859 176.127 130.246V130.517H172.924V129.965H175.478C175.478 129.731 175.431 129.522 175.337 129.338C175.245 129.154 175.113 129.008 174.942 128.902C174.772 128.796 174.572 128.742 174.341 128.742C174.087 128.742 173.867 128.806 173.681 128.932C173.498 129.056 173.356 129.219 173.257 129.419C173.158 129.619 173.108 129.833 173.108 130.062V130.43C173.108 130.744 173.162 131.01 173.27 131.228C173.38 131.445 173.533 131.61 173.727 131.723C173.922 131.835 174.148 131.891 174.406 131.891C174.574 131.891 174.726 131.868 174.861 131.821C174.998 131.772 175.116 131.7 175.215 131.604C175.314 131.507 175.391 131.386 175.445 131.242L176.062 131.415C175.997 131.624 175.888 131.808 175.734 131.967C175.581 132.124 175.392 132.246 175.166 132.335C174.941 132.421 174.688 132.464 174.406 132.464ZM177.098 132.378V128.223H177.715V128.851H177.758C177.834 128.645 177.971 128.478 178.169 128.35C178.367 128.222 178.591 128.158 178.84 128.158C178.887 128.158 178.945 128.159 179.016 128.161C179.086 128.163 179.139 128.165 179.175 128.169V128.818C179.154 128.813 179.104 128.805 179.026 128.794C178.951 128.781 178.87 128.775 178.786 128.775C178.584 128.775 178.403 128.817 178.245 128.902C178.088 128.985 177.963 129.1 177.871 129.248C177.781 129.394 177.736 129.561 177.736 129.749V132.378H177.098ZM180.47 133.936C180.361 133.936 180.265 133.927 180.18 133.909C180.095 133.893 180.037 133.876 180.004 133.86L180.167 133.298C180.322 133.337 180.459 133.352 180.578 133.341C180.697 133.33 180.802 133.277 180.894 133.181C180.988 133.088 181.074 132.935 181.151 132.724L181.27 132.4L179.734 128.223H180.426L181.573 131.534H181.616L182.763 128.223H183.456L181.692 132.984C181.613 133.198 181.515 133.376 181.397 133.517C181.28 133.659 181.144 133.765 180.989 133.833C180.836 133.902 180.662 133.936 180.47 133.936ZM189.384 129.154L188.81 129.316C188.774 129.22 188.721 129.127 188.651 129.037C188.582 128.945 188.488 128.87 188.369 128.81C188.25 128.751 188.098 128.721 187.912 128.721C187.658 128.721 187.446 128.779 187.277 128.897C187.109 129.012 187.025 129.159 187.025 129.338C187.025 129.496 187.083 129.622 187.198 129.714C187.313 129.806 187.494 129.882 187.739 129.943L188.356 130.095C188.727 130.185 189.004 130.323 189.186 130.509C189.368 130.693 189.459 130.93 189.459 131.22C189.459 131.458 189.391 131.671 189.254 131.859C189.119 132.046 188.929 132.194 188.686 132.302C188.442 132.41 188.159 132.464 187.836 132.464C187.413 132.464 187.062 132.373 186.784 132.189C186.507 132.005 186.331 131.736 186.257 131.383L186.863 131.231C186.92 131.455 187.029 131.622 187.19 131.734C187.352 131.846 187.564 131.902 187.826 131.902C188.123 131.902 188.359 131.839 188.534 131.713C188.711 131.584 188.799 131.431 188.799 131.253C188.799 131.108 188.749 130.988 188.648 130.89C188.547 130.791 188.392 130.717 188.183 130.668L187.49 130.506C187.11 130.416 186.83 130.276 186.652 130.087C186.475 129.896 186.387 129.657 186.387 129.37C186.387 129.136 186.452 128.928 186.584 128.748C186.717 128.568 186.899 128.426 187.128 128.323C187.359 128.22 187.62 128.169 187.912 128.169C188.323 128.169 188.646 128.259 188.881 128.44C189.117 128.62 189.284 128.858 189.384 129.154ZM191.643 132.475C191.38 132.475 191.141 132.426 190.926 132.327C190.712 132.226 190.541 132.08 190.415 131.891C190.289 131.7 190.226 131.469 190.226 131.199C190.226 130.961 190.272 130.768 190.366 130.62C190.46 130.47 190.585 130.353 190.742 130.268C190.899 130.183 191.072 130.12 191.262 130.079C191.453 130.035 191.645 130.001 191.838 129.976C192.09 129.943 192.295 129.919 192.452 129.903C192.61 129.885 192.726 129.855 192.798 129.814C192.872 129.772 192.909 129.7 192.909 129.597V129.576C192.909 129.309 192.836 129.101 192.69 128.953C192.546 128.806 192.326 128.732 192.032 128.732C191.728 128.732 191.489 128.798 191.316 128.932C191.143 129.065 191.021 129.208 190.951 129.359L190.345 129.143C190.453 128.89 190.597 128.694 190.777 128.553C190.96 128.411 191.158 128.311 191.372 128.256C191.589 128.198 191.802 128.169 192.011 128.169C192.144 128.169 192.298 128.185 192.471 128.218C192.646 128.248 192.814 128.312 192.977 128.41C193.141 128.507 193.277 128.654 193.385 128.851C193.493 129.047 193.547 129.311 193.547 129.641V132.378H192.909V131.815H192.876C192.833 131.905 192.761 132.002 192.66 132.105C192.559 132.208 192.425 132.295 192.257 132.367C192.089 132.439 191.885 132.475 191.643 132.475ZM191.74 131.902C191.993 131.902 192.206 131.852 192.379 131.753C192.554 131.654 192.685 131.526 192.774 131.369C192.864 131.212 192.909 131.047 192.909 130.874V130.29C192.882 130.322 192.822 130.352 192.73 130.379C192.64 130.404 192.536 130.427 192.417 130.447C192.299 130.465 192.185 130.481 192.073 130.495C191.963 130.508 191.874 130.519 191.805 130.528C191.639 130.549 191.484 130.585 191.34 130.633C191.198 130.68 191.082 130.751 190.994 130.847C190.907 130.941 190.864 131.069 190.864 131.231C190.864 131.453 190.946 131.621 191.11 131.734C191.276 131.846 191.486 131.902 191.74 131.902ZM196.519 128.223V128.764H194.366V128.223H196.519ZM194.994 127.228H195.632V131.188C195.632 131.368 195.658 131.503 195.711 131.593C195.765 131.682 195.833 131.741 195.916 131.772C196.001 131.801 196.09 131.815 196.184 131.815C196.254 131.815 196.312 131.812 196.357 131.804C196.402 131.795 196.438 131.788 196.465 131.783L196.595 132.356C196.552 132.373 196.491 132.389 196.414 132.405C196.336 132.423 196.238 132.432 196.119 132.432C195.939 132.432 195.762 132.393 195.589 132.316C195.418 132.238 195.275 132.12 195.161 131.961C195.05 131.803 194.994 131.603 194.994 131.361V127.228ZM197.48 132.378V128.223H198.118V132.378H197.48ZM197.804 127.531C197.68 127.531 197.572 127.488 197.482 127.404C197.394 127.319 197.35 127.217 197.35 127.098C197.35 126.979 197.394 126.877 197.482 126.792C197.572 126.707 197.68 126.665 197.804 126.665C197.929 126.665 198.035 126.707 198.123 126.792C198.214 126.877 198.259 126.979 198.259 127.098C198.259 127.217 198.214 127.319 198.123 127.404C198.035 127.488 197.929 127.531 197.804 127.531ZM202.23 129.154L201.657 129.316C201.621 129.22 201.567 129.127 201.497 129.037C201.429 128.945 201.335 128.87 201.216 128.81C201.097 128.751 200.944 128.721 200.759 128.721C200.504 128.721 200.293 128.779 200.123 128.897C199.955 129.012 199.871 129.159 199.871 129.338C199.871 129.496 199.929 129.622 200.045 129.714C200.16 129.806 200.34 129.882 200.586 129.943L201.202 130.095C201.574 130.185 201.851 130.323 202.033 130.509C202.215 130.693 202.306 130.93 202.306 131.22C202.306 131.458 202.237 131.671 202.1 131.859C201.965 132.046 201.776 132.194 201.532 132.302C201.289 132.41 201.006 132.464 200.683 132.464C200.259 132.464 199.908 132.373 199.631 132.189C199.353 132.005 199.177 131.736 199.103 131.383L199.709 131.231C199.767 131.455 199.876 131.622 200.036 131.734C200.199 131.846 200.411 131.902 200.672 131.902C200.97 131.902 201.206 131.839 201.381 131.713C201.558 131.584 201.646 131.431 201.646 131.253C201.646 131.108 201.595 130.988 201.494 130.89C201.393 130.791 201.238 130.717 201.029 130.668L200.337 130.506C199.956 130.416 199.677 130.276 199.498 130.087C199.321 129.896 199.233 129.657 199.233 129.37C199.233 129.136 199.299 128.928 199.431 128.748C199.564 128.568 199.745 128.426 199.974 128.323C200.205 128.22 200.467 128.169 200.759 128.169C201.17 128.169 201.493 128.259 201.727 128.44C201.963 128.62 202.131 128.858 202.23 129.154ZM205.117 128.223V128.764H202.877V128.223H205.117ZM203.548 132.378V127.65C203.548 127.412 203.604 127.213 203.716 127.055C203.828 126.896 203.973 126.777 204.151 126.698C204.33 126.618 204.518 126.579 204.717 126.579C204.874 126.579 205.002 126.591 205.101 126.616C205.2 126.642 205.274 126.665 205.323 126.687L205.139 127.239C205.106 127.228 205.061 127.214 205.003 127.198C204.947 127.182 204.874 127.174 204.782 127.174C204.571 127.174 204.418 127.227 204.324 127.333C204.232 127.44 204.187 127.596 204.187 127.801V132.378H203.548ZM206.012 132.378V128.223H206.65V132.378H206.012ZM206.336 127.531C206.212 127.531 206.105 127.488 206.014 127.404C205.926 127.319 205.882 127.217 205.882 127.098C205.882 126.979 205.926 126.877 206.014 126.792C206.105 126.707 206.212 126.665 206.336 126.665C206.461 126.665 206.567 126.707 206.655 126.792C206.746 126.877 206.791 126.979 206.791 127.098C206.791 127.217 206.746 127.319 206.655 127.404C206.567 127.488 206.461 127.531 206.336 127.531ZM209.561 132.464C209.161 132.464 208.816 132.376 208.525 132.199C208.237 132.021 208.014 131.772 207.857 131.453C207.702 131.132 207.624 130.759 207.624 130.333C207.624 129.907 207.702 129.532 207.857 129.208C208.014 128.881 208.232 128.627 208.512 128.445C208.793 128.261 209.121 128.169 209.496 128.169C209.713 128.169 209.926 128.205 210.137 128.277C210.348 128.349 210.54 128.467 210.714 128.629C210.887 128.789 211.025 129.002 211.127 129.267C211.23 129.532 211.282 129.859 211.282 130.246V130.517H208.079V129.965H210.632C210.632 129.731 210.586 129.522 210.492 129.338C210.4 129.154 210.268 129.008 210.097 128.902C209.927 128.796 209.727 128.742 209.496 128.742C209.242 128.742 209.022 128.806 208.836 128.932C208.652 129.056 208.511 129.219 208.412 129.419C208.312 129.619 208.263 129.833 208.263 130.062V130.43C208.263 130.744 208.317 131.01 208.425 131.228C208.535 131.445 208.688 131.61 208.882 131.723C209.077 131.835 209.303 131.891 209.561 131.891C209.729 131.891 209.88 131.868 210.016 131.821C210.153 131.772 210.271 131.7 210.37 131.604C210.469 131.507 210.546 131.386 210.6 131.242L211.217 131.415C211.152 131.624 211.043 131.808 210.889 131.967C210.736 132.124 210.547 132.246 210.321 132.335C210.096 132.421 209.843 132.464 209.561 132.464ZM213.822 132.464C213.475 132.464 213.17 132.377 212.905 132.202C212.639 132.025 212.432 131.777 212.282 131.456C212.133 131.133 212.058 130.751 212.058 130.311C212.058 129.875 212.133 129.496 212.282 129.175C212.432 128.854 212.64 128.606 212.907 128.431C213.174 128.256 213.483 128.169 213.832 128.169C214.103 128.169 214.317 128.214 214.473 128.304C214.632 128.393 214.753 128.494 214.836 128.607C214.921 128.719 214.986 128.811 215.033 128.883H215.087V126.838H215.726V132.378H215.109V131.74H215.033C214.986 131.815 214.92 131.911 214.833 132.026C214.747 132.14 214.623 132.242 214.463 132.332C214.302 132.42 214.088 132.464 213.822 132.464ZM213.908 131.891C214.164 131.891 214.381 131.824 214.557 131.691C214.734 131.556 214.868 131.369 214.96 131.131C215.052 130.891 215.098 130.614 215.098 130.301C215.098 129.99 215.053 129.719 214.963 129.486C214.873 129.252 214.739 129.07 214.563 128.94C214.386 128.808 214.168 128.742 213.908 128.742C213.638 128.742 213.412 128.812 213.232 128.951C213.053 129.088 212.919 129.274 212.829 129.511C212.74 129.745 212.696 130.008 212.696 130.301C212.696 130.596 212.741 130.865 212.832 131.107C212.923 131.346 213.059 131.538 213.237 131.68C213.418 131.821 213.641 131.891 213.908 131.891Z" fill="#999999"/>
<path d="M81.7507 156.436V150.896H83.6225C84.0571 150.896 84.4123 150.975 84.6882 151.132C84.9659 151.287 85.1715 151.497 85.305 151.762C85.4384 152.027 85.5051 152.323 85.5051 152.649C85.5051 152.976 85.4384 153.272 85.305 153.539C85.1733 153.806 84.9695 154.019 84.6936 154.177C84.4177 154.334 84.0643 154.413 83.6333 154.413H82.2916V153.818H83.6117C83.9092 153.818 84.1481 153.766 84.3285 153.663C84.5088 153.561 84.6395 153.422 84.7207 153.247C84.8036 153.07 84.8451 152.871 84.8451 152.649C84.8451 152.427 84.8036 152.229 84.7207 152.054C84.6395 151.879 84.5079 151.742 84.3258 151.643C84.1436 151.542 83.902 151.491 83.6008 151.491H82.4215V156.436H81.7507ZM88.1425 156.523C87.7674 156.523 87.4383 156.433 87.1551 156.255C86.8738 156.076 86.6538 155.827 86.4951 155.506C86.3383 155.185 86.2598 154.809 86.2598 154.38C86.2598 153.947 86.3383 153.57 86.4951 153.247C86.6538 152.924 86.8738 152.673 87.1551 152.495C87.4383 152.316 87.7674 152.227 88.1425 152.227C88.5175 152.227 88.8457 152.316 89.1271 152.495C89.4102 152.673 89.6302 152.924 89.7871 153.247C89.9458 153.57 90.0251 153.947 90.0251 154.38C90.0251 154.809 89.9458 155.185 89.7871 155.506C89.6302 155.827 89.4102 156.076 89.1271 156.255C88.8457 156.433 88.5175 156.523 88.1425 156.523ZM88.1425 155.949C88.4274 155.949 88.6618 155.876 88.8457 155.73C89.0297 155.584 89.1658 155.392 89.2542 155.154C89.3425 154.916 89.3867 154.658 89.3867 154.38C89.3867 154.103 89.3425 153.844 89.2542 153.604C89.1658 153.364 89.0297 153.17 88.8457 153.022C88.6618 152.875 88.4274 152.801 88.1425 152.801C87.8575 152.801 87.6231 152.875 87.4392 153.022C87.2552 153.17 87.1191 153.364 87.0307 153.604C86.9424 153.844 86.8982 154.103 86.8982 154.38C86.8982 154.658 86.9424 154.916 87.0307 155.154C87.1191 155.392 87.2552 155.584 87.4392 155.73C87.6231 155.876 87.8575 155.949 88.1425 155.949ZM91.7995 156.436L90.5336 152.281H91.2045L92.1025 155.462H92.1458L93.033 152.281H93.7146L94.5911 155.451H94.6343L95.5324 152.281H96.2032L94.9373 156.436H94.3097L93.4009 153.244H93.336L92.4271 156.436H91.7995ZM98.6478 156.523C98.2475 156.523 97.9021 156.434 97.6118 156.258C97.3233 156.079 97.1006 155.83 96.9437 155.511C96.7886 155.19 96.7111 154.817 96.7111 154.391C96.7111 153.966 96.7886 153.59 96.9437 153.266C97.1006 152.939 97.3188 152.685 97.5983 152.503C97.8796 152.319 98.2078 152.227 98.5829 152.227C98.7993 152.227 99.013 152.263 99.224 152.335C99.4349 152.407 99.627 152.525 99.8001 152.687C99.9732 152.847 100.111 153.06 100.214 153.325C100.317 153.59 100.368 153.917 100.368 154.305V154.575H97.1655V154.023H99.719C99.719 153.789 99.6721 153.58 99.5783 153.396C99.4863 153.212 99.3547 153.067 99.1834 152.96C99.0139 152.854 98.8137 152.801 98.5829 152.801C98.3286 152.801 98.1086 152.864 97.9229 152.99C97.7389 153.114 97.5974 153.277 97.4982 153.477C97.399 153.677 97.3494 153.892 97.3494 154.121V154.488C97.3494 154.802 97.4035 155.068 97.5117 155.286C97.6217 155.503 97.7741 155.668 97.9689 155.781C98.1636 155.893 98.3899 155.949 98.6478 155.949C98.8155 155.949 98.967 155.926 99.1022 155.879C99.2393 155.83 99.3574 155.758 99.4566 155.662C99.5558 155.565 99.6324 155.444 99.6865 155.3L100.303 155.473C100.238 155.682 100.129 155.866 99.9759 156.025C99.8226 156.182 99.6333 156.304 99.4079 156.393C99.1825 156.479 98.9291 156.523 98.6478 156.523ZM101.339 156.436V152.281H101.956V152.909H101.999C102.075 152.703 102.212 152.536 102.41 152.408C102.609 152.28 102.832 152.216 103.081 152.216C103.128 152.216 103.187 152.217 103.257 152.219C103.327 152.221 103.381 152.224 103.417 152.227V152.876C103.395 152.871 103.345 152.863 103.268 152.852C103.192 152.839 103.112 152.833 103.027 152.833C102.825 152.833 102.645 152.875 102.486 152.96C102.329 153.043 102.205 153.159 102.113 153.306C102.023 153.452 101.978 153.619 101.978 153.807V156.436H101.339ZM105.789 156.523C105.389 156.523 105.043 156.434 104.753 156.258C104.464 156.079 104.242 155.83 104.085 155.511C103.93 155.19 103.852 154.817 103.852 154.391C103.852 153.966 103.93 153.59 104.085 153.266C104.242 152.939 104.46 152.685 104.739 152.503C105.021 152.319 105.349 152.227 105.724 152.227C105.94 152.227 106.154 152.263 106.365 152.335C106.576 152.407 106.768 152.525 106.941 152.687C107.114 152.847 107.252 153.06 107.355 153.325C107.458 153.59 107.509 153.917 107.509 154.305V154.575H104.307V154.023H106.86C106.86 153.789 106.813 153.58 106.719 153.396C106.627 153.212 106.496 153.067 106.324 152.96C106.155 152.854 105.955 152.801 105.724 152.801C105.47 152.801 105.25 152.864 105.064 152.99C104.88 153.114 104.738 153.277 104.639 153.477C104.54 153.677 104.49 153.892 104.49 154.121V154.488C104.49 154.802 104.545 155.068 104.653 155.286C104.763 155.503 104.915 155.668 105.11 155.781C105.305 155.893 105.531 155.949 105.789 155.949C105.957 155.949 106.108 155.926 106.243 155.879C106.38 155.83 106.498 155.758 106.598 155.662C106.697 155.565 106.773 155.444 106.828 155.3L107.444 155.473C107.379 155.682 107.27 155.866 107.117 156.025C106.964 156.182 106.774 156.304 106.549 156.393C106.324 156.479 106.07 156.523 105.789 156.523ZM110.049 156.523C109.703 156.523 109.397 156.435 109.132 156.26C108.867 156.083 108.66 155.835 108.51 155.514C108.36 155.191 108.286 154.809 108.286 154.369C108.286 153.933 108.36 153.554 108.51 153.233C108.66 152.912 108.868 152.664 109.135 152.49C109.402 152.315 109.71 152.227 110.06 152.227C110.33 152.227 110.544 152.272 110.701 152.362C110.86 152.451 110.981 152.552 111.064 152.665C111.148 152.777 111.214 152.869 111.261 152.941H111.315V150.896H111.953V156.436H111.337V155.798H111.261C111.214 155.873 111.147 155.969 111.061 156.084C110.974 156.198 110.851 156.3 110.69 156.39C110.53 156.478 110.316 156.523 110.049 156.523ZM110.136 155.949C110.392 155.949 110.608 155.882 110.785 155.749C110.962 155.614 111.096 155.427 111.188 155.189C111.28 154.949 111.326 154.672 111.326 154.359C111.326 154.048 111.281 153.777 111.191 153.544C111.1 153.31 110.967 153.128 110.79 152.998C110.614 152.866 110.395 152.801 110.136 152.801C109.865 152.801 109.64 152.87 109.459 153.009C109.281 153.146 109.147 153.333 109.056 153.569C108.968 153.803 108.924 154.066 108.924 154.359C108.924 154.654 108.969 154.923 109.059 155.165C109.151 155.405 109.286 155.596 109.465 155.738C109.645 155.879 109.869 155.949 110.136 155.949ZM115.44 156.436V150.896H116.078V152.941H116.133C116.179 152.869 116.244 152.777 116.327 152.665C116.412 152.552 116.533 152.451 116.69 152.362C116.848 152.272 117.063 152.227 117.334 152.227C117.683 152.227 117.992 152.315 118.259 152.49C118.526 152.664 118.734 152.912 118.884 153.233C119.033 153.554 119.108 153.933 119.108 154.369C119.108 154.809 119.033 155.191 118.884 155.514C118.734 155.835 118.526 156.083 118.261 156.26C117.996 156.435 117.691 156.523 117.344 156.523C117.078 156.523 116.864 156.478 116.703 156.39C116.543 156.3 116.419 156.198 116.333 156.084C116.246 155.969 116.179 155.873 116.133 155.798H116.057V156.436H115.44ZM116.068 154.359C116.068 154.672 116.114 154.949 116.206 155.189C116.298 155.427 116.432 155.614 116.609 155.749C116.785 155.882 117.002 155.949 117.258 155.949C117.525 155.949 117.747 155.879 117.926 155.738C118.106 155.596 118.242 155.405 118.332 155.165C118.424 154.923 118.47 154.654 118.47 154.359C118.47 154.066 118.425 153.803 118.334 153.569C118.246 153.333 118.112 153.146 117.931 153.009C117.753 152.87 117.528 152.801 117.258 152.801C116.998 152.801 116.78 152.866 116.603 152.998C116.427 153.128 116.293 153.31 116.203 153.544C116.113 153.777 116.068 154.048 116.068 154.359ZM120.347 157.994C120.239 157.994 120.142 157.985 120.057 157.967C119.973 157.951 119.914 157.935 119.882 157.918L120.044 157.356C120.199 157.395 120.336 157.41 120.455 157.399C120.574 157.388 120.68 157.335 120.772 157.239C120.865 157.146 120.951 156.993 121.029 156.782L121.148 156.458L119.611 152.281H120.304L121.451 155.592H121.494L122.641 152.281H123.333L121.57 157.042C121.49 157.257 121.392 157.434 121.275 157.575C121.157 157.717 121.021 157.823 120.866 157.891C120.713 157.96 120.54 157.994 120.347 157.994Z" fill="#575656"/>
<path d="M126.278 156.436V152.281H127.086V156.436H126.278ZM126.686 151.64C126.545 151.64 126.424 151.593 126.323 151.5C126.224 151.404 126.175 151.29 126.175 151.159C126.175 151.025 126.224 150.912 126.323 150.818C126.424 150.722 126.545 150.674 126.686 150.674C126.827 150.674 126.947 150.722 127.046 150.818C127.147 150.912 127.197 151.025 127.197 151.159C127.197 151.29 127.147 151.404 127.046 151.5C126.947 151.593 126.827 151.64 126.686 151.64ZM128.983 153.969V156.436H128.174V152.281H128.951V152.957H129.002C129.098 152.737 129.247 152.561 129.451 152.427C129.657 152.294 129.915 152.227 130.227 152.227C130.511 152.227 130.758 152.287 130.971 152.406C131.184 152.523 131.349 152.698 131.466 152.93C131.583 153.163 131.642 153.451 131.642 153.793V156.436H130.833V153.891C130.833 153.59 130.755 153.354 130.598 153.185C130.441 153.013 130.226 152.928 129.951 152.928C129.764 152.928 129.597 152.968 129.451 153.049C129.307 153.131 129.192 153.25 129.108 153.406C129.025 153.562 128.983 153.749 128.983 153.969ZM134.666 152.281V152.93H132.397V152.281H134.666ZM133.005 151.286H133.814V155.216C133.814 155.373 133.838 155.491 133.884 155.57C133.931 155.648 133.992 155.701 134.066 155.73C134.141 155.757 134.224 155.771 134.312 155.771C134.377 155.771 134.434 155.766 134.482 155.757C134.531 155.748 134.569 155.741 134.596 155.735L134.742 156.404C134.695 156.422 134.628 156.44 134.542 156.458C134.455 156.478 134.347 156.488 134.217 156.49C134.004 156.494 133.806 156.456 133.622 156.377C133.438 156.297 133.289 156.175 133.176 156.009C133.062 155.843 133.005 155.634 133.005 155.384V151.286ZM137.307 156.52C136.898 156.52 136.545 156.432 136.249 156.258C135.955 156.081 135.728 155.833 135.568 155.514C135.409 155.193 135.33 154.817 135.33 154.386C135.33 153.96 135.409 153.585 135.568 153.26C135.728 152.936 135.952 152.682 136.238 152.5C136.527 152.318 136.864 152.227 137.25 152.227C137.485 152.227 137.712 152.266 137.932 152.343C138.152 152.421 138.349 152.543 138.524 152.709C138.699 152.875 138.837 153.09 138.938 153.355C139.039 153.618 139.089 153.938 139.089 154.315V154.602H135.787V153.996H138.297C138.297 153.783 138.254 153.595 138.167 153.431C138.081 153.265 137.959 153.134 137.802 153.039C137.647 152.943 137.465 152.895 137.256 152.895C137.028 152.895 136.83 152.951 136.66 153.063C136.493 153.173 136.363 153.317 136.271 153.496C136.181 153.672 136.136 153.865 136.136 154.072V154.545C136.136 154.823 136.184 155.059 136.282 155.254C136.381 155.449 136.519 155.598 136.696 155.7C136.872 155.801 137.079 155.852 137.315 155.852C137.468 155.852 137.608 155.83 137.734 155.787C137.861 155.742 137.97 155.675 138.062 155.587C138.154 155.498 138.224 155.389 138.273 155.259L139.038 155.397C138.977 155.623 138.867 155.82 138.708 155.99C138.551 156.157 138.354 156.288 138.116 156.382C137.879 156.474 137.61 156.52 137.307 156.52ZM141.729 158.081C141.399 158.081 141.115 158.037 140.877 157.951C140.641 157.864 140.448 157.75 140.298 157.607C140.148 157.465 140.036 157.309 139.963 157.139L140.658 156.853C140.706 156.932 140.771 157.016 140.852 157.104C140.935 157.194 141.047 157.271 141.188 157.334C141.33 157.397 141.513 157.429 141.737 157.429C142.044 157.429 142.297 157.354 142.497 157.204C142.697 157.056 142.797 156.82 142.797 156.496V155.679H142.746C142.697 155.767 142.627 155.865 142.535 155.973C142.445 156.082 142.32 156.175 142.162 156.255C142.003 156.334 141.796 156.374 141.542 156.374C141.214 156.374 140.918 156.297 140.655 156.144C140.394 155.989 140.186 155.761 140.033 155.46C139.881 155.157 139.806 154.784 139.806 154.342C139.806 153.901 139.88 153.522 140.03 153.206C140.182 152.891 140.389 152.649 140.652 152.481C140.916 152.312 141.214 152.227 141.548 152.227C141.805 152.227 142.014 152.27 142.172 152.357C142.331 152.442 142.455 152.541 142.543 152.655C142.633 152.768 142.703 152.868 142.751 152.955H142.811V152.281H143.603V156.528C143.603 156.885 143.52 157.178 143.355 157.407C143.189 157.636 142.964 157.806 142.681 157.916C142.4 158.026 142.082 158.081 141.729 158.081ZM141.721 155.703C141.953 155.703 142.15 155.649 142.31 155.541C142.473 155.431 142.595 155.274 142.678 155.07C142.763 154.864 142.805 154.618 142.805 154.332C142.805 154.052 142.764 153.806 142.681 153.593C142.598 153.38 142.476 153.214 142.316 153.095C142.155 152.975 141.957 152.914 141.721 152.914C141.477 152.914 141.274 152.977 141.112 153.104C140.95 153.228 140.827 153.397 140.744 153.612C140.663 153.827 140.623 154.066 140.623 154.332C140.623 154.604 140.664 154.843 140.747 155.048C140.83 155.254 140.953 155.414 141.115 155.53C141.279 155.645 141.481 155.703 141.721 155.703ZM144.688 156.436V152.281H145.47V152.941H145.513C145.589 152.718 145.722 152.542 145.913 152.414C146.106 152.284 146.325 152.219 146.568 152.219C146.618 152.219 146.678 152.221 146.747 152.224C146.817 152.228 146.872 152.233 146.912 152.238V153.012C146.879 153.003 146.821 152.993 146.738 152.982C146.655 152.969 146.573 152.963 146.49 152.963C146.298 152.963 146.128 153.003 145.978 153.085C145.83 153.164 145.713 153.275 145.627 153.417C145.54 153.558 145.497 153.718 145.497 153.899V156.436H144.688ZM148.783 156.528C148.52 156.528 148.282 156.479 148.069 156.382C147.856 156.283 147.688 156.139 147.563 155.952C147.441 155.764 147.379 155.534 147.379 155.262C147.379 155.028 147.425 154.835 147.515 154.683C147.605 154.532 147.727 154.412 147.88 154.323C148.033 154.235 148.204 154.168 148.394 154.123C148.583 154.078 148.776 154.044 148.973 154.021C149.222 153.992 149.424 153.968 149.579 153.95C149.734 153.93 149.846 153.899 149.917 153.856C149.987 153.812 150.022 153.742 150.022 153.645V153.626C150.022 153.389 149.955 153.206 149.822 153.076C149.69 152.947 149.494 152.882 149.232 152.882C148.96 152.882 148.745 152.942 148.589 153.063C148.434 153.182 148.326 153.315 148.267 153.461L147.507 153.287C147.597 153.035 147.728 152.831 147.902 152.676C148.076 152.519 148.278 152.406 148.505 152.335C148.732 152.263 148.971 152.227 149.222 152.227C149.387 152.227 149.563 152.247 149.749 152.287C149.937 152.325 150.111 152.395 150.274 152.498C150.438 152.6 150.572 152.747 150.677 152.939C150.781 153.128 150.834 153.374 150.834 153.677V156.436H150.044V155.868H150.011C149.959 155.973 149.881 156.075 149.776 156.176C149.671 156.277 149.537 156.361 149.373 156.428C149.209 156.495 149.012 156.528 148.783 156.528ZM148.959 155.879C149.183 155.879 149.374 155.835 149.533 155.746C149.693 155.658 149.815 155.543 149.898 155.4C149.983 155.256 150.025 155.102 150.025 154.937V154.402C149.996 154.431 149.94 154.458 149.857 154.483C149.776 154.507 149.683 154.527 149.579 154.545C149.474 154.562 149.372 154.577 149.273 154.591C149.174 154.604 149.091 154.615 149.024 154.624C148.867 154.644 148.724 154.677 148.594 154.724C148.466 154.771 148.363 154.838 148.286 154.927C148.21 155.013 148.172 155.129 148.172 155.273C148.172 155.473 148.246 155.625 148.394 155.727C148.542 155.828 148.73 155.879 148.959 155.879ZM153.888 152.281V152.93H151.54V152.281H153.888ZM152.184 156.436V151.8C152.184 151.54 152.241 151.325 152.355 151.153C152.468 150.98 152.619 150.851 152.806 150.766C152.994 150.68 153.198 150.637 153.418 150.637C153.58 150.637 153.719 150.65 153.834 150.677C153.95 150.702 154.035 150.726 154.091 150.748L153.902 151.402C153.864 151.391 153.815 151.379 153.756 151.364C153.696 151.348 153.624 151.34 153.539 151.34C153.343 151.34 153.202 151.389 153.117 151.486C153.034 151.583 152.993 151.724 152.993 151.908V156.436H152.184ZM155.532 150.896V156.436H154.723V150.896H155.532ZM158.37 156.52C157.98 156.52 157.64 156.431 157.35 156.252C157.06 156.074 156.834 155.824 156.674 155.503C156.513 155.182 156.433 154.807 156.433 154.378C156.433 153.947 156.513 153.57 156.674 153.247C156.834 152.924 157.06 152.673 157.35 152.495C157.64 152.316 157.98 152.227 158.37 152.227C158.759 152.227 159.099 152.316 159.389 152.495C159.68 152.673 159.905 152.924 160.066 153.247C160.226 153.57 160.306 153.947 160.306 154.378C160.306 154.807 160.226 155.182 160.066 155.503C159.905 155.824 159.68 156.074 159.389 156.252C159.099 156.431 158.759 156.52 158.37 156.52ZM158.372 155.841C158.625 155.841 158.834 155.774 159 155.641C159.166 155.507 159.288 155.33 159.368 155.108C159.449 154.886 159.49 154.642 159.49 154.375C159.49 154.11 159.449 153.866 159.368 153.645C159.288 153.421 159.166 153.241 159 153.106C158.834 152.971 158.625 152.903 158.372 152.903C158.118 152.903 157.907 152.971 157.739 153.106C157.574 153.241 157.45 153.421 157.369 153.645C157.29 153.866 157.25 154.11 157.25 154.375C157.25 154.642 157.29 154.886 157.369 155.108C157.45 155.33 157.574 155.507 157.739 155.641C157.907 155.774 158.118 155.841 158.372 155.841ZM161.984 156.436L160.761 152.281H161.597L162.411 155.332H162.451L163.268 152.281H164.104L164.916 155.319H164.956L165.765 152.281H166.601L165.381 156.436H164.556L163.712 153.436H163.65L162.806 156.436H161.984Z" fill="#050505"/>
</g>
<defs>
<filter id="filter0_d_5086_63261" x="0.0827446" y="0.0413723" width="247.756" height="201.386" filterUnits="userSpaceOnUse" color-interpolation-filters="sRGB">
<feFlood flood-opacity="0" result="BackgroundImageFix"/>
<feColorMatrix in="SourceAlpha" type="matrix" values="0 0 0 0 0 0 0 0 0 0 0 0 0 0 0 0 0 0 127 0" result="hardAlpha"/>
<feOffset dy="8.95863"/>
<feGaussianBlur stdDeviation="8.95863"/>
<feComposite in2="hardAlpha" operator="out"/>
<feColorMatrix type="matrix" values="0 0 0 0 0 0 0 0 0 0 0 0 0 0 0 0 0 0 0.25 0"/>
<feBlend mode="normal" in2="BackgroundImageFix" result="effect1_dropShadow_5086_63261"/>
<feBlend mode="normal" in="SourceGraphic" in2="effect1_dropShadow_5086_63261" result="shape"/>
</filter>
</defs>
</svg>
