<svg width="598" height="450" viewBox="0 0 598 450" fill="none" xmlns="http://www.w3.org/2000/svg">
<path d="M0 0H597.367V450H6.09002C2.72661 450 0 447.273 0 443.91V0Z" fill="#272138"/>
<path d="M0 6.08781C0 2.72561 2.72561 0 6.08782 0H591.093C594.455 0 597.18 2.72561 597.18 6.08782V25.2057H0V6.08781Z" fill="white"/>
<circle cx="12.6037" cy="12.6027" r="2.78717" fill="#DAE1E6" stroke="#DAE1E6" stroke-width="0.242362"/>
<circle cx="22.299" cy="12.6027" r="2.78717" fill="#DAE1E6" stroke="#DAE1E6" stroke-width="0.242362"/>
<circle cx="31.9943" cy="12.6027" r="2.78717" fill="#DAE1E6" stroke="#DAE1E6" stroke-width="0.242362"/>
<g clip-path="url(#clip0_5102_50749)">
<path d="M72.1355 15.9897L68.9448 12.8755C68.8684 12.799 68.8281 12.7065 68.8281 12.6059C68.8281 12.5013 68.8724 12.4007 68.9488 12.3363L72.1355 9.21801C72.2039 9.14961 72.2924 9.10938 72.3971 9.10938C72.6063 9.10938 72.7632 9.27032 72.7632 9.47955C72.7632 9.57611 72.723 9.67268 72.6586 9.74108L69.7294 12.6059L72.6586 15.4707C72.723 15.5391 72.7632 15.6316 72.7632 15.7322C72.7632 15.9414 72.6063 16.0984 72.3971 16.0984C72.2924 16.0984 72.2039 16.0581 72.1355 15.9897Z" fill="#DAE1E6"/>
<path d="M84.7021 16.1024C84.8067 16.1024 84.8952 16.0621 84.9636 15.9937L88.1543 12.8755C88.2308 12.799 88.271 12.7065 88.271 12.6059C88.271 12.5013 88.2308 12.4047 88.1543 12.3363L84.9676 9.22204C84.8952 9.14961 84.8067 9.10938 84.7021 9.10938C84.4929 9.10938 84.3359 9.27032 84.3359 9.47955C84.3359 9.57611 84.3762 9.67268 84.4406 9.74108L87.3697 12.6059L84.4406 15.4707C84.3762 15.5391 84.3359 15.6316 84.3359 15.7322C84.3359 15.9414 84.4929 16.1024 84.7021 16.1024Z" fill="#DAE1E6"/>
</g>
<path d="M46.9275 16.3156H53.8883C54.7332 16.3156 55.1517 15.8972 55.1517 15.0683V10.1555C55.1517 9.32666 54.7332 8.9082 53.8883 8.9082H46.9275C46.0865 8.9082 45.6641 9.32263 45.6641 10.1555V15.0683C45.6641 15.9012 46.0865 16.3156 46.9275 16.3156ZM46.9355 15.6678C46.5332 15.6678 46.3119 15.4546 46.3119 15.0361V10.1877C46.3119 9.76925 46.5332 9.556 46.9355 9.556H48.73V15.6678H46.9355ZM53.8802 9.556C54.2786 9.556 54.5039 9.76925 54.5039 10.1877V15.0361C54.5039 15.4546 54.2786 15.6678 53.8802 15.6678H49.3617V9.556H53.8802ZM47.9535 11.0488C48.0782 11.0488 48.1828 10.9401 48.1828 10.8234C48.1828 10.7027 48.0782 10.5981 47.9535 10.5981H47.0924C46.9717 10.5981 46.8631 10.7027 46.8631 10.8234C46.8631 10.9401 46.9717 11.0488 47.0924 11.0488H47.9535ZM47.9535 12.0909C48.0782 12.0909 48.1828 11.9822 48.1828 11.8615C48.1828 11.7408 48.0782 11.6402 47.9535 11.6402H47.0924C46.9717 11.6402 46.8631 11.7408 46.8631 11.8615C46.8631 11.9822 46.9717 12.0909 47.0924 12.0909H47.9535ZM47.9535 13.129C48.0782 13.129 48.1828 13.0284 48.1828 12.9077C48.1828 12.7869 48.0782 12.6823 47.9535 12.6823H47.0924C46.9717 12.6823 46.8631 12.7869 46.8631 12.9077C46.8631 13.0284 46.9717 13.129 47.0924 13.129H47.9535Z" fill="#DAE1E6"/>
<path d="M161.164 16.7785C161.228 16.7785 161.333 16.7544 161.433 16.6981C163.723 15.4145 164.508 14.8714 164.508 13.4027V10.3247C164.508 9.90222 164.326 9.76944 163.984 9.62459C163.51 9.42743 161.977 8.8762 161.502 8.71123C161.393 8.67502 161.277 8.65088 161.164 8.65088C161.051 8.65088 160.935 8.68307 160.83 8.71123C160.355 8.84803 158.818 9.43146 158.343 9.62459C158.005 9.76541 157.82 9.90222 157.82 10.3247V13.4027C157.82 14.8714 158.609 15.4105 160.894 16.6981C160.999 16.7544 161.1 16.7785 161.164 16.7785ZM161.325 9.33489C161.932 9.5763 163.111 10.0028 163.735 10.2161C163.844 10.2563 163.868 10.3126 163.868 10.4494V13.2539C163.868 14.4972 163.272 14.8231 161.413 15.9537C161.297 16.0261 161.232 16.0462 161.168 16.0503V9.29868C161.208 9.29868 161.26 9.31075 161.325 9.33489Z" fill="#DAE1E6"/>
<rect x="173.774" y="6.05877" width="249.633" height="13.0876" rx="2.66598" fill="white"/>
<rect x="173.774" y="6.05877" width="249.633" height="13.0876" rx="2.66598" stroke="#DAE1E6" stroke-width="0.484724"/>
<g clip-path="url(#clip1_5102_50749)">
<path d="M264.53 15.235H267.234C267.6 15.235 267.779 15.0533 267.779 14.6556V12.571C267.779 12.2131 267.631 12.0285 267.327 11.9972V11.2815C267.327 10.2108 266.626 9.69385 265.882 9.69385C265.137 9.69385 264.436 10.2108 264.436 11.2815V12.0114C264.158 12.054 263.984 12.2358 263.984 12.571V14.6556C263.984 15.0533 264.163 15.235 264.53 15.235ZM264.893 11.2219C264.893 10.509 265.351 10.1312 265.882 10.1312C266.413 10.1312 266.87 10.509 266.87 11.2219V11.9944L264.893 11.9972V11.2219Z" fill="#DAE1E6"/>
<path d="M273.733 14.6025H273.192V11.8047H273.733V14.6025ZM273.18 11.0253C273.107 10.9477 273.07 10.8546 273.07 10.7461C273.07 10.6375 273.107 10.5444 273.18 10.4669C273.258 10.3893 273.351 10.3505 273.459 10.3505C273.568 10.3505 273.661 10.3893 273.739 10.4669C273.816 10.5405 273.855 10.6336 273.855 10.7461C273.855 10.8546 273.816 10.9477 273.739 11.0253C273.661 11.099 273.568 11.1358 273.459 11.1358C273.351 11.1358 273.258 11.099 273.18 11.0253ZM275.21 12.9855V14.6025H274.663V11.8047H275.198V12.2061C275.384 11.8842 275.671 11.7233 276.059 11.7233C276.381 11.7233 276.627 11.826 276.798 12.0316C276.972 12.2371 277.06 12.5027 277.06 12.8284V14.6025H276.513V12.9215C276.513 12.4523 276.296 12.2177 275.861 12.2177C275.656 12.2177 275.495 12.2914 275.379 12.4387C275.266 12.5822 275.21 12.7645 275.21 12.9855ZM278.662 10.9206V11.8047H279.267V12.2991H278.662V13.7533C278.662 13.8851 278.691 13.9821 278.749 14.0441C278.812 14.1062 278.912 14.1372 279.052 14.1372C279.133 14.1372 279.205 14.1294 279.267 14.1139V14.5793C279.174 14.6142 279.05 14.6316 278.895 14.6316C278.654 14.6316 278.464 14.5618 278.325 14.4222C278.185 14.2826 278.115 14.0868 278.115 13.8347V12.2991H277.58V11.8047H277.732C277.875 11.8047 277.982 11.7659 278.051 11.6884C278.125 11.6069 278.162 11.5022 278.162 11.3743V10.9206H278.662ZM280.323 12.9157H281.853C281.845 12.7063 281.776 12.5357 281.644 12.4038C281.512 12.2681 281.326 12.2002 281.085 12.2002C280.868 12.2002 280.69 12.272 280.55 12.4155C280.411 12.5551 280.335 12.7218 280.323 12.9157ZM281.935 13.6428L282.406 13.8057C282.324 14.0655 282.173 14.2787 281.952 14.4455C281.731 14.6084 281.463 14.6898 281.149 14.6898C280.758 14.6898 280.424 14.556 280.149 14.2884C279.877 14.017 279.742 13.6525 279.742 13.1949C279.742 12.7683 279.874 12.4155 280.137 12.1363C280.401 11.8571 280.715 11.7175 281.08 11.7175C281.502 11.7175 281.832 11.8512 282.068 12.1188C282.305 12.3825 282.423 12.7373 282.423 13.1833C282.423 13.2531 282.419 13.3112 282.412 13.3578H280.306C280.31 13.6059 280.391 13.8095 280.55 13.9685C280.713 14.1275 280.913 14.207 281.149 14.207C281.549 14.207 281.811 14.0189 281.935 13.6428ZM282.918 14.7538L283.447 14.6316C283.466 14.8294 283.546 14.9923 283.685 15.1202C283.825 15.2521 283.999 15.318 284.209 15.318C284.779 15.318 285.064 15.0155 285.064 14.4106V14.0092C284.994 14.145 284.884 14.2555 284.732 14.3408C284.585 14.4261 284.411 14.4688 284.209 14.4688C283.837 14.4688 283.528 14.3427 283.284 14.0907C283.044 13.8347 282.923 13.509 282.923 13.1135C282.923 12.7296 283.044 12.4077 283.284 12.1479C283.524 11.8842 283.833 11.7524 284.209 11.7524C284.635 11.7524 284.922 11.8997 285.07 12.1944V11.8047H285.611V14.3931C285.611 14.5793 285.586 14.7518 285.535 14.9108C285.489 15.0737 285.413 15.223 285.308 15.3587C285.204 15.4944 285.056 15.6011 284.866 15.6786C284.68 15.7562 284.461 15.795 284.209 15.795C283.864 15.795 283.571 15.6961 283.331 15.4983C283.09 15.3044 282.952 15.0562 282.918 14.7538ZM284.29 14.0092C284.527 14.0092 284.719 13.9278 284.866 13.7649C285.014 13.5982 285.087 13.381 285.087 13.1135C285.087 12.8459 285.014 12.6307 284.866 12.4678C284.719 12.3011 284.527 12.2177 284.29 12.2177C284.05 12.2177 283.854 12.2991 283.703 12.462C283.555 12.6249 283.482 12.842 283.482 13.1135C283.482 13.3888 283.554 13.6079 283.697 13.7708C283.844 13.9297 284.042 14.0092 284.29 14.0092ZM288.037 11.7756V12.3573C287.956 12.3457 287.876 12.3398 287.799 12.3398C287.287 12.3398 287.031 12.6268 287.031 13.2007V14.6025H286.484V11.8047H287.019V12.2933C287.19 11.9366 287.469 11.7582 287.857 11.7582C287.919 11.7582 287.979 11.764 288.037 11.7756ZM288.445 13.8522C288.445 13.6118 288.523 13.4198 288.678 13.2763C288.833 13.129 289.039 13.0378 289.295 13.0029L290.051 12.8924C290.194 12.873 290.266 12.8032 290.266 12.683C290.266 12.5357 290.215 12.4155 290.115 12.3224C290.014 12.2293 289.863 12.1828 289.661 12.1828C289.475 12.1828 289.327 12.2351 289.219 12.3398C289.11 12.4407 289.046 12.5764 289.027 12.747L288.503 12.6249C288.531 12.3573 288.653 12.1401 288.87 11.9734C289.087 11.8028 289.347 11.7175 289.649 11.7175C290.045 11.7175 290.338 11.8144 290.528 12.0083C290.718 12.1983 290.813 12.4426 290.813 12.7412V14.143C290.813 14.3098 290.824 14.4629 290.848 14.6025H290.312C290.293 14.4862 290.283 14.3602 290.283 14.2245C290.206 14.3485 290.091 14.4571 289.94 14.5502C289.793 14.6433 289.607 14.6898 289.382 14.6898C289.106 14.6898 288.882 14.6084 288.707 14.4455C288.533 14.2787 288.445 14.081 288.445 13.8522ZM289.457 14.2303C289.702 14.2303 289.898 14.1643 290.045 14.0325C290.192 13.9007 290.266 13.6913 290.266 13.4043V13.2763L289.411 13.4043C289.287 13.4237 289.188 13.4683 289.114 13.5381C289.041 13.6079 289.004 13.7029 289.004 13.8231C289.004 13.9317 289.044 14.0267 289.126 14.1081C289.211 14.1896 289.322 14.2303 289.457 14.2303ZM292.839 10.8857C292.719 10.8857 292.615 10.9225 292.525 10.9962C292.44 11.066 292.397 11.1881 292.397 11.3626V11.8047H293.689V10.3913H294.235V14.6025H293.689V12.2991H292.397V14.6025H291.833V12.2991H291.315V11.8047H291.833V11.3336C291.833 11.035 291.92 10.8004 292.095 10.6297C292.269 10.4591 292.488 10.3738 292.752 10.3738C292.919 10.3738 293.027 10.3932 293.078 10.432V10.9206C293.02 10.8973 292.94 10.8857 292.839 10.8857ZM295.739 13.9394C295.91 14.1139 296.117 14.2012 296.362 14.2012C296.606 14.2012 296.812 14.1139 296.978 13.9394C297.149 13.7611 297.234 13.5148 297.234 13.2007C297.234 12.8905 297.149 12.6481 296.978 12.4736C296.812 12.2953 296.606 12.2061 296.362 12.2061C296.117 12.2061 295.91 12.2953 295.739 12.4736C295.573 12.6481 295.489 12.8905 295.489 13.2007C295.489 13.5148 295.573 13.7611 295.739 13.9394ZM295.332 12.1421C295.604 11.859 295.947 11.7175 296.362 11.7175C296.777 11.7175 297.118 11.859 297.386 12.1421C297.657 12.4213 297.793 12.7742 297.793 13.2007C297.793 13.6312 297.659 13.9879 297.391 14.271C297.124 14.5502 296.781 14.6898 296.362 14.6898C295.943 14.6898 295.6 14.5502 295.332 14.271C295.065 13.9879 294.931 13.6312 294.931 13.2007C294.931 12.7742 295.065 12.4213 295.332 12.1421ZM300.012 11.8047H300.576L301.303 13.9104L301.92 11.8047H302.495L301.588 14.6025H301.024L300.279 12.4736L299.552 14.6025H298.976L298.057 11.8047H298.656L299.285 13.9104L300.012 11.8047ZM302.873 14.5153C302.796 14.4377 302.757 14.3427 302.757 14.2303C302.757 14.1178 302.796 14.0228 302.873 13.9453C302.951 13.8638 303.046 13.8231 303.158 13.8231C303.271 13.8231 303.366 13.8638 303.443 13.9453C303.525 14.0228 303.565 14.1178 303.565 14.2303C303.565 14.3427 303.525 14.4377 303.443 14.5153C303.366 14.5928 303.271 14.6316 303.158 14.6316C303.046 14.6316 302.951 14.5928 302.873 14.5153ZM305.529 12.2235C305.293 12.2235 305.091 12.3088 304.924 12.4794C304.762 12.6501 304.68 12.8905 304.68 13.2007C304.68 13.5071 304.762 13.7475 304.924 13.922C305.091 14.0965 305.295 14.1837 305.535 14.1837C305.768 14.1837 305.944 14.1256 306.064 14.0092C306.189 13.8929 306.272 13.7591 306.315 13.6079L306.797 13.8173C306.72 14.05 306.572 14.2535 306.355 14.428C306.142 14.6025 305.869 14.6898 305.535 14.6898C305.128 14.6898 304.791 14.5482 304.523 14.2652C304.255 13.9821 304.122 13.6273 304.122 13.2007C304.122 12.7664 304.255 12.4116 304.523 12.1363C304.791 11.8571 305.126 11.7175 305.529 11.7175C305.871 11.7175 306.146 11.8047 306.355 11.9792C306.569 12.1537 306.708 12.3631 306.774 12.6074L306.28 12.8168C306.237 12.6539 306.156 12.5143 306.035 12.398C305.915 12.2817 305.747 12.2235 305.529 12.2235ZM307.986 13.9394C308.157 14.1139 308.364 14.2012 308.609 14.2012C308.853 14.2012 309.058 14.1139 309.225 13.9394C309.396 13.7611 309.481 13.5148 309.481 13.2007C309.481 12.8905 309.396 12.6481 309.225 12.4736C309.058 12.2953 308.853 12.2061 308.609 12.2061C308.364 12.2061 308.157 12.2953 307.986 12.4736C307.82 12.6481 307.736 12.8905 307.736 13.2007C307.736 13.5148 307.82 13.7611 307.986 13.9394ZM307.579 12.1421C307.851 11.859 308.194 11.7175 308.609 11.7175C309.024 11.7175 309.365 11.859 309.632 12.1421C309.904 12.4213 310.04 12.7742 310.04 13.2007C310.04 13.6312 309.906 13.9879 309.638 14.271C309.371 14.5502 309.027 14.6898 308.609 14.6898C308.19 14.6898 307.847 14.5502 307.579 14.271C307.312 13.9879 307.178 13.6312 307.178 13.2007C307.178 12.7742 307.312 12.4213 307.579 12.1421ZM311.28 14.6025H310.739V11.8047H311.263V12.177C311.348 12.0296 311.468 11.9172 311.623 11.8396C311.778 11.7621 311.941 11.7233 312.112 11.7233C312.294 11.7233 312.461 11.7679 312.612 11.8571C312.763 11.9462 312.876 12.0781 312.949 12.2526C313.143 11.8997 313.456 11.7233 313.886 11.7233C314.154 11.7233 314.38 11.8144 314.566 11.9967C314.757 12.1789 314.852 12.4426 314.852 12.7877V14.6025H314.311V12.8459C314.311 12.652 314.26 12.4969 314.159 12.3806C314.062 12.2642 313.915 12.2061 313.717 12.2061C313.527 12.2061 313.372 12.2739 313.252 12.4096C313.132 12.5415 313.072 12.7082 313.072 12.9099V14.6025H312.525V12.8459C312.525 12.652 312.474 12.4969 312.374 12.3806C312.277 12.2642 312.129 12.2061 311.932 12.2061C311.738 12.2061 311.581 12.272 311.46 12.4038C311.34 12.5357 311.28 12.7063 311.28 12.9157V14.6025Z" fill="#859AAB"/>
</g>
<path d="M416.757 12.416C416.828 12.416 416.882 12.3932 416.922 12.3506L418.092 11.1748C418.143 11.1265 418.163 11.0697 418.163 11.0044C418.163 10.9419 418.138 10.8794 418.092 10.834L416.922 9.64678C416.882 9.60133 416.825 9.57861 416.757 9.57861C416.629 9.57861 416.533 9.68086 416.533 9.81151C416.533 9.87115 416.556 9.92796 416.595 9.9734L417.354 10.7175C417.192 10.6891 417.027 10.6721 416.862 10.6721C415.471 10.6721 414.352 11.7883 414.352 13.18C414.352 14.5745 415.471 15.6935 416.862 15.6935C418.254 15.6935 419.37 14.5745 419.37 13.18C419.37 13.0436 419.274 12.9442 419.134 12.9442C419.001 12.9442 418.913 13.0436 418.913 13.18C418.913 14.3217 418.001 15.2363 416.862 15.2363C415.723 15.2363 414.809 14.3217 414.809 13.18C414.809 12.0411 415.723 11.1294 416.862 11.1294C417.078 11.1294 417.277 11.1464 417.447 11.1833L416.598 12.0269C416.556 12.0723 416.533 12.1291 416.533 12.1887C416.533 12.3194 416.629 12.416 416.757 12.416Z" fill="#DAE1E6"/>
<g clip-path="url(#clip2_5102_50749)">
<path d="M523.729 16.7101C525.974 16.7101 527.833 14.8472 527.833 12.606C527.833 10.3609 525.97 8.50195 523.725 8.50195C521.484 8.50195 519.625 10.3609 519.625 12.606C519.625 14.8472 521.488 16.7101 523.729 16.7101ZM523.729 16.0261C521.83 16.0261 520.313 14.5052 520.313 12.606C520.313 10.7069 521.826 9.18596 523.725 9.18596C525.624 9.18596 527.145 10.7069 527.149 12.606C527.153 14.5052 525.628 16.0261 523.729 16.0261ZM523.729 10.558C523.556 10.558 523.427 10.6827 523.427 10.8598V12.8716L523.459 13.7206L523.057 13.2377L522.578 12.7549C522.522 12.7026 522.45 12.6664 522.365 12.6664C522.2 12.6664 522.075 12.7951 522.075 12.9561C522.075 13.0406 522.1 13.113 522.152 13.1653L523.496 14.5052C523.576 14.5856 523.645 14.6178 523.729 14.6178C523.818 14.6178 523.89 14.5816 523.966 14.5052L525.306 13.1653C525.359 13.113 525.391 13.0406 525.391 12.9561C525.391 12.7951 525.262 12.6664 525.097 12.6664C525.009 12.6664 524.936 12.6986 524.884 12.7549L524.409 13.2377L523.999 13.7246L524.031 12.8716V10.8598C524.031 10.6827 523.906 10.558 523.729 10.558Z" fill="#DAE1E6"/>
<path d="M543.065 13.6998C543.238 13.6998 543.383 13.555 543.383 13.386V9.25375L543.359 8.65021L543.632 8.93588L544.24 9.58771C544.296 9.65208 544.381 9.68427 544.457 9.68427C544.626 9.68427 544.751 9.56357 544.751 9.3986C544.751 9.3141 544.719 9.24972 544.658 9.18937L543.299 7.87768C543.218 7.79721 543.146 7.76904 543.065 7.76904C542.985 7.76904 542.912 7.79721 542.832 7.87768L541.472 9.18937C541.411 9.24972 541.375 9.3141 541.375 9.3986C541.375 9.56357 541.5 9.68427 541.665 9.68427C541.745 9.68427 541.83 9.65208 541.886 9.58771L542.498 8.93588L542.771 8.65021L542.743 9.25375V13.386C542.743 13.555 542.892 13.6998 543.065 13.6998ZM540.756 16.8503H545.371C546.212 16.8503 546.634 16.4318 546.634 15.603V11.5874C546.634 10.7586 546.212 10.3401 545.371 10.3401H544.248V10.9879H545.359C545.757 10.9879 545.986 11.2052 545.986 11.6236V15.5668C545.986 15.9852 545.757 16.2025 545.359 16.2025H540.764C540.361 16.2025 540.14 15.9852 540.14 15.5668V11.6236C540.14 11.2052 540.361 10.9879 540.764 10.9879H541.878V10.3401H540.756C539.915 10.3401 539.492 10.7586 539.492 11.5874V15.603C539.492 16.4318 539.915 16.8503 540.756 16.8503Z" fill="#DAE1E6"/>
<path d="M562.202 15.9969C562.399 15.9969 562.564 15.84 562.564 15.6469V12.9712H565.164C565.357 12.9712 565.522 12.8062 565.522 12.6091C565.522 12.4119 565.357 12.251 565.164 12.251H562.564V9.57124C562.564 9.37811 562.399 9.22119 562.202 9.22119C562.005 9.22119 561.844 9.37811 561.844 9.57124V12.251H559.241C559.048 12.251 558.883 12.4119 558.883 12.6091C558.883 12.8062 559.048 12.9712 559.241 12.9712H561.844V15.6469C561.844 15.84 562.005 15.9969 562.202 15.9969Z" fill="#DAE1E6"/>
<path d="M578.552 14.964H579.241V15.5796C579.241 16.4084 579.659 16.8269 580.504 16.8269H584.544C585.381 16.8269 585.803 16.4084 585.803 15.5796V11.5077C585.803 10.6788 585.381 10.2604 584.544 10.2604H583.852V9.64477C583.852 8.81591 583.429 8.39746 582.592 8.39746H578.552C577.708 8.39746 577.289 8.81591 577.289 9.64477V13.7166C577.289 14.5455 577.708 14.964 578.552 14.964ZM578.561 14.3162C578.158 14.3162 577.937 14.0989 577.937 13.6804V9.68099C577.937 9.26253 578.158 9.04526 578.561 9.04526H582.58C582.978 9.04526 583.204 9.26253 583.204 9.68099V10.2604H580.504C579.659 10.2604 579.241 10.6748 579.241 11.5077V14.3162H578.561ZM580.512 16.1791C580.114 16.1791 579.888 15.9618 579.888 15.5434V11.5439C579.888 11.1255 580.114 10.9082 580.512 10.9082H584.532C584.93 10.9082 585.155 11.1255 585.155 11.5439V15.5434C585.155 15.9618 584.93 16.1791 584.532 16.1791H580.512Z" fill="#DAE1E6"/>
</g>
<g clip-path="url(#clip3_5102_50749)">
<rect width="597.367" height="424.794" transform="translate(0 25.2056)" fill="white"/>
<rect width="124.451" height="424.794" transform="translate(0 25.2056)" fill="#F6F7F9"/>
<rect x="19.9141" y="112.736" width="76.7451" height="9.95612" rx="4.97806" fill="white"/>
<rect x="19.9141" y="142.604" width="76.7451" height="9.95612" rx="4.97806" fill="white"/>
<rect x="19.9141" y="172.473" width="76.7451" height="9.95612" rx="4.97806" fill="white"/>
<rect x="19.9141" y="202.341" width="76.7451" height="9.95612" rx="4.97806" fill="white"/>
<rect x="19.9141" y="415.983" width="76.7451" height="20.3271" rx="4.97806" fill="white"/>
<rect x="19.9141" y="43.458" width="76.7451" height="20.3271" rx="4.97806" fill="#E0E7F4"/>
<rect x="137.719" y="98.2168" width="294.12" height="160.957" rx="9.95612" fill="#F3F5F7"/>
<rect x="441.797" y="98.2168" width="142.29" height="160.957" rx="9.95612" fill="#F3F5F7"/>
<rect x="137.719" y="269.13" width="142.29" height="160.957" rx="9.95612" fill="#F3F5F7"/>
<rect x="289.961" y="269.13" width="142.29" height="160.957" rx="9.95612" fill="#F3F5F7"/>
<rect x="442.211" y="269.96" width="142.29" height="75.0857" rx="9.95612" fill="#F3F5F7"/>
<rect x="442.211" y="355.002" width="142.29" height="75.0857" rx="9.95612" fill="#F3F5F7"/>
<rect x="137.719" y="43.458" width="144.364" height="14.9342" rx="4.97806" fill="#F3F5F7"/>
<rect x="137.719" y="61.7109" width="76.7451" height="6.63741" rx="3.31871" fill="#F6F7F9"/>
<rect x="537.633" y="50.0957" width="23.2309" height="6.63741" rx="3.31871" fill="#F6F7F9"/>
<g clip-path="url(#clip4_5102_50749)">
<rect x="564.18" y="43.4585" width="19.9122" height="19.9122" rx="9.95612" fill="#FFEBD2"/>
<path d="M570.305 55.3022C572.195 55.2401 573.774 53.7913 574.041 51.874L574.711 47.0658L572.192 46.7145C572.002 46.6922 571.207 46.6196 570.494 47.1716C570.21 47.3898 569.971 47.6876 569.766 48.1305C569.365 48.9978 567.665 53.4929 569.524 54.9406C569.754 55.1178 570.021 55.2414 570.305 55.3022Z" fill="black"/>
<path d="M562.227 77.7674H577.363L578.586 59.3309C576.452 58.397 574.218 57.7123 571.928 57.2904C568.655 56.6904 566.063 56.6653 563.72 56.9565C563.221 63.9084 562.726 70.8155 562.227 77.7674Z" fill="black"/>
<path d="M570.446 55.121L571.046 53.4743C570.455 53.4503 569.983 52.937 569.983 52.3054C569.983 51.6579 570.478 51.1337 571.089 51.1337C571.351 51.1344 571.603 51.2315 571.798 51.4064L572.927 48.3022L577.559 49.793C577.774 49.862 577.973 49.9726 578.144 50.1185C578.316 50.2644 578.458 50.4427 578.561 50.6433C578.664 50.8439 578.726 51.0628 578.744 51.2875C578.763 51.5123 578.736 51.7384 578.667 51.953L577.413 55.8514C577.222 56.4424 576.804 56.9336 576.251 57.217C575.699 57.5005 575.056 57.5531 574.465 57.3634L573.791 57.0623L573.228 58.2656C573.204 58.3188 573.162 58.3618 573.109 58.3872C572.131 58.8574 571.04 58.7423 570.368 58.1145C569.903 57.6819 569.647 57.2925 569.572 57.0378C569.556 56.9781 569.562 56.9146 569.59 56.8594L570.446 55.121Z" fill="white"/>
<path d="M573.789 57.0645L571.759 56.1372C571.745 56.1313 571.73 56.1302 571.716 56.1341C571.702 56.138 571.69 56.1466 571.681 56.1585C571.672 56.1704 571.668 56.185 571.669 56.1996C571.67 56.2143 571.675 56.2283 571.685 56.2392L573.343 58.0174L573.789 57.0645Z" fill="black"/>
<path d="M571.181 52.7902C571.259 52.7903 571.336 52.7671 571.401 52.7236C571.467 52.6801 571.518 52.6182 571.548 52.5457C571.578 52.4733 571.586 52.3935 571.571 52.3166C571.555 52.2396 571.518 52.1689 571.462 52.1134C571.407 52.0579 571.336 52.0201 571.259 52.0047C571.182 51.9894 571.102 51.9972 571.03 52.0272C570.957 52.0572 570.895 52.108 570.852 52.1733C570.808 52.2385 570.785 52.3152 570.785 52.3936C570.785 52.4987 570.827 52.5995 570.901 52.6738C570.975 52.7482 571.076 52.79 571.181 52.7902ZM571.181 52.2158C571.216 52.2157 571.251 52.2261 571.28 52.2456C571.31 52.2652 571.333 52.293 571.346 52.3257C571.36 52.3583 571.363 52.3942 571.357 52.4288C571.35 52.4635 571.333 52.4953 571.308 52.5203C571.283 52.5453 571.251 52.5623 571.216 52.5691C571.182 52.576 571.146 52.5724 571.113 52.5588C571.08 52.5453 571.053 52.5223 571.033 52.4929C571.013 52.4635 571.003 52.4289 571.003 52.3936C571.003 52.3465 571.022 52.3012 571.055 52.2679C571.089 52.2345 571.134 52.2158 571.181 52.2158Z" fill="black"/>
<path d="M571.454 52.5691C571.481 52.5692 571.507 52.5595 571.527 52.5417C571.547 52.5238 571.56 52.4992 571.563 52.4725C571.591 52.2363 571.537 52.0454 571.403 51.9041C571.151 51.6385 570.709 51.663 570.69 51.6641C570.662 51.6659 570.635 51.6792 570.615 51.7009C570.596 51.7226 570.586 51.7511 570.588 51.78C570.59 51.809 570.603 51.836 570.625 51.8552C570.647 51.8744 570.675 51.8841 570.704 51.8823C570.707 51.8823 571.064 51.8632 571.245 52.0547C571.334 52.148 571.366 52.2761 571.347 52.4474C571.343 52.476 571.352 52.5048 571.37 52.5274C571.387 52.5499 571.414 52.5645 571.442 52.568L571.454 52.5691Z" fill="black"/>
<path d="M575.473 55.6243C575.614 55.626 575.753 55.5942 575.879 55.5315C575.903 55.5164 575.92 55.4927 575.927 55.4654C575.933 55.4381 575.929 55.4092 575.915 55.3849C575.901 55.3605 575.878 55.3425 575.851 55.3347C575.824 55.3269 575.795 55.3298 575.77 55.3428C575.745 55.3564 575.184 55.6603 574.609 54.8492C574.601 54.8367 574.591 54.826 574.579 54.8177C574.567 54.8094 574.553 54.8037 574.538 54.8008C574.524 54.798 574.509 54.7982 574.494 54.8013C574.48 54.8044 574.466 54.8104 574.454 54.8189C574.442 54.8274 574.432 54.8383 574.424 54.8509C574.417 54.8635 574.412 54.8775 574.409 54.8921C574.407 54.9068 574.408 54.9216 574.412 54.9359C574.416 54.9502 574.422 54.9635 574.431 54.9752C574.804 55.5015 575.192 55.6243 575.473 55.6243Z" fill="black"/>
<path d="M574.808 52.7034C574.676 52.7034 574.569 52.5964 574.569 52.4645C574.569 52.3326 574.676 52.2256 574.808 52.2256C574.94 52.2256 575.047 52.3326 575.047 52.4645C575.047 52.5964 574.94 52.7034 574.808 52.7034Z" fill="black"/>
<path d="M577.605 53.7151C577.473 53.7151 577.366 53.6082 577.366 53.4762C577.366 53.3443 577.473 53.2373 577.605 53.2373C577.737 53.2373 577.844 53.3443 577.844 53.4762C577.844 53.6082 577.737 53.7151 577.605 53.7151Z" fill="black"/>
<path d="M577.662 54.7847C578.211 54.7847 578.72 54.3429 578.851 53.7129C578.999 53.0038 578.614 52.3209 577.992 52.1905C577.838 52.16 577.679 52.1634 577.527 52.2004C577.374 52.2374 577.232 52.3072 577.109 52.4049C576.843 52.613 576.66 52.9097 576.594 53.2411C576.522 53.571 576.57 53.916 576.731 54.2131C576.804 54.3519 576.907 54.473 577.032 54.5681C577.157 54.6631 577.301 54.7298 577.454 54.7635C577.523 54.7776 577.593 54.7847 577.662 54.7847ZM577.782 52.3847C577.837 52.385 577.892 52.3908 577.946 52.4022C578.45 52.5075 578.76 53.0747 578.636 53.666C578.512 54.2573 578.001 54.6527 577.497 54.5475C577.375 54.5201 577.259 54.4663 577.16 54.3898C577.06 54.3133 576.978 54.216 576.92 54.1046C576.785 53.8535 576.746 53.5623 576.808 53.2842C576.862 53.0034 577.015 52.7516 577.24 52.5751C577.395 52.4545 577.586 52.3883 577.782 52.3869V52.3847Z" fill="black"/>
<path d="M576.603 53.2839C576.629 53.2837 576.653 53.2743 576.673 53.2574C576.693 53.2405 576.706 53.2172 576.71 53.1917C576.714 53.1661 576.708 53.1399 576.695 53.1179C576.681 53.0958 576.66 53.0792 576.636 53.0712L575.651 52.7537C575.624 52.747 575.596 52.7508 575.571 52.7643C575.547 52.7777 575.529 52.7999 575.521 52.8262C575.512 52.8526 575.514 52.8812 575.526 52.9062C575.538 52.9312 575.559 52.9508 575.584 52.961L576.569 53.279C576.58 53.2822 576.591 53.2839 576.603 53.2839Z" fill="black"/>
<path d="M576.119 54.4477C576.174 54.4492 576.229 54.4384 576.281 54.4163C576.332 54.3942 576.377 54.3611 576.414 54.3195C576.523 54.187 576.505 54.0053 576.453 53.8902C576.416 53.8096 576.356 53.7416 576.281 53.695L576.729 52.4949C576.738 52.4683 576.735 52.4396 576.723 52.4146C576.711 52.3896 576.69 52.3702 576.664 52.3604C576.637 52.3507 576.609 52.3513 576.583 52.3621C576.557 52.3729 576.537 52.3931 576.525 52.4186L576.002 53.8144L576.111 53.8504C576.142 53.8608 576.171 53.8773 576.196 53.899C576.221 53.9208 576.241 53.9473 576.255 53.977C576.275 54.02 576.299 54.1171 576.249 54.176C576.199 54.235 576.085 54.2524 575.979 54.1842C575.968 54.1754 575.954 54.1691 575.939 54.1658C575.925 54.1624 575.91 54.162 575.895 54.1647C575.881 54.1673 575.867 54.1728 575.855 54.181C575.842 54.1892 575.832 54.1998 575.823 54.2122C575.815 54.2246 575.81 54.2385 575.807 54.2532C575.805 54.2678 575.805 54.2827 575.809 54.2972C575.812 54.3116 575.818 54.3252 575.827 54.3371C575.836 54.349 575.847 54.359 575.86 54.3664C575.937 54.4179 576.026 54.4462 576.119 54.4477Z" fill="black"/>
<path d="M575.273 50.1726C573.892 49.884 572.947 48.8212 573.16 47.7989C573.374 46.7765 574.667 46.1818 576.047 46.4705C577.428 46.7591 578.374 47.8219 578.16 48.8442C577.946 49.8666 576.654 50.4613 575.273 50.1726Z" fill="black"/>
<path d="M571.058 50.1811L572.426 50.5368C572.799 50.6335 573.195 50.5783 573.526 50.3833C573.858 50.1883 574.099 49.8696 574.196 49.4971L574.484 48.3866L571.711 47.666L571.058 50.1811Z" fill="black"/>
<path d="M578.75 51.5742C577.718 51.5742 576.882 50.738 576.882 49.7065C576.882 48.675 577.718 47.8389 578.75 47.8389C579.781 47.8389 580.617 48.675 580.617 49.7065C580.617 50.738 579.781 51.5742 578.75 51.5742Z" fill="black"/>
<path d="M573.656 52.2234C573.682 52.2234 573.706 52.2146 573.726 52.1985C573.746 52.1823 573.759 52.1598 573.764 52.1348C573.768 52.1099 573.764 52.084 573.752 52.0617C573.74 52.0395 573.72 52.0222 573.697 52.0128L571.654 51.1946C571.641 51.1884 571.626 51.185 571.612 51.1846C571.597 51.1842 571.582 51.1868 571.568 51.1923C571.555 51.1978 571.542 51.206 571.532 51.2165C571.521 51.227 571.513 51.2395 571.507 51.2532C571.502 51.267 571.499 51.2817 571.5 51.2965C571.5 51.3114 571.503 51.3259 571.51 51.3394C571.516 51.3528 571.525 51.3649 571.536 51.3748C571.547 51.3847 571.56 51.3923 571.574 51.397L573.616 52.2152C573.629 52.2203 573.642 52.2231 573.656 52.2234Z" fill="black"/>
<path d="M578.586 59.3315C578.77 59.4056 578.946 59.4958 579.113 59.601C580.362 60.3886 580.773 61.8374 581.09 63.2507C581.426 64.7534 581.92 68.2105 582.094 70.8953C580.739 70.9814 579.157 71.0682 577.802 71.1549L578.586 59.3315Z" fill="black"/>
<path d="M571.892 60.0209C572.615 60.0139 573.323 59.8017 573.931 59.4089C573.954 59.3926 573.969 59.368 573.975 59.3403C573.98 59.3127 573.974 59.284 573.959 59.2604C573.944 59.2367 573.92 59.22 573.892 59.2136C573.865 59.2072 573.836 59.2117 573.812 59.2262C573.473 59.4443 572.557 59.9418 571.399 59.7656C569.803 59.5234 569.012 58.2269 568.869 57.9694C568.863 57.9563 568.853 57.9446 568.842 57.9351C568.831 57.9256 568.818 57.9185 568.804 57.9141C568.79 57.9097 568.775 57.9083 568.761 57.9097C568.746 57.9112 568.732 57.9156 568.719 57.9227C568.706 57.9298 568.695 57.9395 568.686 57.951C568.677 57.9626 568.67 57.9759 568.666 57.9901C568.663 58.0042 568.662 58.0191 568.664 58.0336C568.666 58.0481 568.671 58.0621 568.678 58.0747C568.829 58.3474 569.669 59.7236 571.366 59.9811C571.54 60.0077 571.716 60.021 571.892 60.0209Z" fill="white"/>
<path d="M574.625 53.6472C575.17 53.6472 575.672 53.2228 575.799 52.6157C575.941 51.929 575.552 51.2657 574.929 51.1348C574.306 51.0039 573.684 51.4572 573.541 52.1439C573.397 52.8307 573.787 53.495 574.409 53.6248C574.48 53.6399 574.552 53.6474 574.625 53.6472ZM574.715 51.3306C574.772 51.3305 574.83 51.3364 574.886 51.3481C575.39 51.4539 575.704 52.0026 575.585 52.571C575.466 53.1394 574.959 53.5168 574.455 53.4116C573.95 53.3063 573.637 52.757 573.755 52.1887C573.861 51.6841 574.27 51.3306 574.714 51.3306H574.715Z" fill="black"/>
<path d="M575.256 66.1973C575.273 66.1972 575.289 66.1932 575.304 66.1858C575.594 66.0444 575.866 65.8682 576.114 65.6611C576.953 64.9569 577.321 64.0509 577.481 63.4149C577.488 63.3868 577.484 63.357 577.469 63.3321C577.454 63.3071 577.43 63.289 577.402 63.2818C577.374 63.2745 577.345 63.2788 577.32 63.2935C577.295 63.3082 577.277 63.3323 577.269 63.3603C577.117 63.9652 576.769 64.826 575.974 65.4931C575.74 65.6887 575.484 65.8552 575.21 65.9889C575.188 65.9997 575.17 66.0177 575.159 66.04C575.149 66.0623 575.146 66.0876 575.151 66.1117C575.157 66.1358 575.171 66.1573 575.19 66.1726C575.209 66.188 575.233 66.1963 575.258 66.1962L575.256 66.1973Z" fill="black"/>
<path d="M556.714 69.1791L563.963 70.3922L566.625 56.7939L564.736 56.8207C563.563 56.8308 562.425 57.2161 561.488 57.9203C560.999 58.2892 560.584 58.746 560.263 59.2671C560.032 59.6456 559.854 60.054 559.734 60.4807L556.714 69.1791Z" fill="black"/>
</g>
</g>
<defs>
<clipPath id="clip0_5102_50749">
<rect width="31.0224" height="13.5723" fill="white" transform="translate(63.0156 5.81641)"/>
</clipPath>
<clipPath id="clip1_5102_50749">
<rect x="262.062" y="8.60254" width="53.6639" height="8" fill="white"/>
</clipPath>
<clipPath id="clip2_5102_50749">
<rect width="73.6781" height="13.5723" fill="white" transform="translate(515.734 5.81641)"/>
</clipPath>
<clipPath id="clip3_5102_50749">
<rect width="597.367" height="424.794" fill="white" transform="translate(0 25.2056)"/>
</clipPath>
<clipPath id="clip4_5102_50749">
<rect x="564.18" y="43.4585" width="19.9122" height="19.9122" rx="9.95612" fill="white"/>
</clipPath>
</defs>
</svg>
