<svg
      viewBox="0 0 298 567"
      fill="none"
      xmlns="http://www.w3.org/2000/svg"
    >
      <rect
        x="0.492188"
        y="0.289062"
        width="297.022"
        height="202.844"
        rx="7.24444"
        fill="#F6F7F9"
      />
      <path
        d="M136.6 103.15L121.552 123.912C120.684 125.109 121.539 126.786 123.018 126.786H188.865C190.354 126.786 191.207 125.089 190.318 123.894L167.612 93.3693C166.897 92.4081 165.462 92.3934 164.728 93.3397L150.045 112.256C149.337 113.168 147.969 113.194 147.227 112.31L139.454 103.048C138.696 102.145 137.292 102.195 136.6 103.15Z"
        fill="#DAE1E6"
      />
      <ellipse
        cx="140.879"
        cy="82.0933"
        rx="5.69103"
        ry="5.73787"
        fill="#DAE1E6"
      />
      <rect
        x="0.492188"
        y="214"
        width="21.7333"
        height="21.7333"
        rx="10.8667"
        fill="#F6F7F9"
      />
      <rect
        x="29.4688"
        y="214"
        width="21.7333"
        height="21.7333"
        rx="10.8667"
        fill="#F6F7F9"
      />
      <rect
        x="58.4453"
        y="214"
        width="21.7333"
        height="21.7333"
        rx="10.8667"
        fill="#F6F7F9"
      />
      <rect
        x="274.875"
        y="214"
        width="21.7333"
        height="21.7333"
        rx="10.8667"
        fill="#F6F7F9"
      />
      <rect
        x="0.492188"
        y="250.223"
        width="167.528"
        height="14.4889"
        rx="7.24444"
        fill="#F6F7F9"
      />
      <rect
        x="0.492188"
        y="271.957"
        width="271.667"
        height="14.4889"
        rx="7.24444"
        fill="#F6F7F9"
      />
      <rect
        x="0.492188"
        y="293.689"
        width="96.8944"
        height="14.4889"
        rx="7.24444"
        fill="#F6F7F9"
      />
      <rect
        x="0.492188"
        y="329.912"
        width="297.022"
        height="202.844"
        rx="7.24444"
        fill="#F6F7F9"
      />
      <path
        d="M136.6 432.773L121.552 453.535C120.684 454.732 121.539 456.409 123.018 456.409H188.865C190.354 456.409 191.207 454.712 190.318 453.517L167.612 422.992C166.897 422.031 165.462 422.016 164.728 422.963L150.045 441.879C149.337 442.791 147.969 442.817 147.227 441.933L139.454 432.671C138.696 431.768 137.292 431.818 136.6 432.773Z"
        fill="#DAE1E6"
      />
      <ellipse
        cx="140.879"
        cy="411.716"
        rx="5.69103"
        ry="5.73787"
        fill="#DAE1E6"
      />
      <rect
        x="0.492188"
        y="543.623"
        width="21.7333"
        height="21.7333"
        rx="10.8667"
        fill="#F6F7F9"
      />
      <rect
        x="29.4688"
        y="543.623"
        width="21.7333"
        height="21.7333"
        rx="10.8667"
        fill="#F6F7F9"
      />
      <rect
        x="58.4453"
        y="543.623"
        width="21.7333"
        height="21.7333"
        rx="10.8667"
        fill="#F6F7F9"
      />
      <rect
        x="274.875"
        y="543.623"
        width="21.7333"
        height="21.7333"
        rx="10.8667"
        fill="#F6F7F9"
      />
</svg>
