<svg width="1366px" height="768px" viewBox="0 0 1366 768" version="1.1" xmlns="http://www.w3.org/2000/svg" xmlns:xlink="http://www.w3.org/1999/xlink">
    <title>Jungle</title>
    <defs>
        <polygon id="path-1" points="0.781015974 0.646105245 526.267144 0.646105245 526.267144 367.463161 0.781015974 367.463161"></polygon>
        <polygon id="path-3" points="0.05776062 0.0288769475 136.069217 0.0288769475 136.069217 360.465269 0.05776062 360.465269"></polygon>
        <polygon id="path-5" points="0.961147355 0.875222445 990.761545 0.875222445 990.761545 317.463441 0.961147355 317.463441"></polygon>
        <polygon id="path-7" points="0.0287983936 0.49985842 196.266709 0.49985842 196.266709 295.139378 0.0287983936 295.139378"></polygon>
        <polygon id="path-9" points="0.25974613 0.325437053 1421.26699 0.325437053 1421.26699 593.751044 0.25974613 593.751044"></polygon>
        <polygon id="path-11" points="0.2596 0.0542084942 560.236178 0.0542084942 560.236178 899.33202 0.2596 899.33202"></polygon>
        <polygon id="path-13" points="0.176816237 0.054122449 115.039081 0.054122449 115.039081 203.372771 0.176816237 203.372771"></polygon>
        <polygon id="path-15" points="0.260360075 -0.00176037536 267.590371 -0.00176037536 267.590371 287.937399 0.260360075 287.937399"></polygon>
        <polygon id="path-17" points="0.259289474 0.76275 333.059526 0.76275 333.059526 386.34975 0.259289474 386.34975"></polygon>
        <polygon id="path-19" points="0.259740587 0.0541538462 339.610817 0.0541538462 339.610817 615.117733 0.259740587 615.117733"></polygon>
    </defs>
    <g id="Jungle" stroke="none" stroke-width="1" fill="none" fill-rule="evenodd">
        <rect fill="#FFFDFC" x="0" y="0" width="1366" height="768"></rect>
        <g id="Group" transform="translate(-156.000000, -91.000000)">
            <g id="Group-21" transform="translate(1037.000000, 664.000000)">
                <mask id="mask-2" fill="white">
                    <use xlink:href="#path-1"></use>
                </mask>
                <g id="Clip-19"></g>
                <path d="M0.781015974,404.665893 C1.35761713,337.440936 59.2730223,258.743023 113.78604,227.209948 C137.783212,213.329142 161.817797,207.548494 188.083961,201.072446 C234.665412,189.590429 264.06767,164.093963 292.580817,125.86512 C312.484561,99.1794538 326.472641,72.8471497 358.37277,59.4963884 C376.003121,52.118813 397.172307,49.09258 415.434278,43.3640297 C467.43622,27.0481944 515.650641,1.75332645 570.779874,1.4701834 L570.779874,404.665893 L0.781015974,404.665893" id="Fill-18" fill="#365041" mask="url(#mask-2)"></path>
                <path d="M348.209625,304.394744 C336.266058,310.245612 323.246316,311.597904 310.237577,312.839203 C301.828444,313.641064 293.355488,316.048912 284.944153,316.322995 C280.381961,316.472494 275.887994,315.566437 274.514714,310.440415 C273.022594,304.863629 276.587838,299.998099 280.445784,296.575466 C287.259361,290.53206 296.273706,287.093571 304.658631,284.126232 C322.315391,277.878963 341.272805,273.842476 357.373622,263.71275 C363.777856,259.685323 370.2107,254.45737 373.857373,247.564535 C377.332385,240.997882 378.454776,233.085732 378.833309,225.721748 C379.713616,208.567809 377.213543,188.111289 367.750242,173.512434 C367.021788,172.388922 365.313992,172.291521 364.376465,173.088852 C347.62202,187.33661 335.861117,206.656027 319.751496,221.603715 C311.302749,229.44338 301.570954,235.948875 290.32283,238.454125 C283.650102,239.937794 266.490715,244.946029 262.811031,236.17992 C258.455712,225.801028 272.971976,214.183102 279.803159,209.054815 C288.245305,202.716941 297.856058,198.290849 307.288548,193.780946 C325.730983,184.967269 346.871558,173.005041 352.104984,150.829277 C358.029451,125.715621 333.103555,104.652043 317.484706,89.6228094 C316.833278,88.9976295 315.105676,88.7144865 314.511468,89.5933625 C306.08913,102.056187 306.137547,118.800135 301.747015,132.891598 C299.43841,140.307681 295.989807,147.88912 289.614182,152.487363 C283.865777,156.634842 273.306493,159.704113 266.970483,155.205536 C256.074481,147.465538 263.26659,125.77678 267.676929,116.317537 C271.343408,108.457485 277.265674,102.008619 281.526361,94.4860745 C286.383455,85.9125028 289.539356,76.5121534 289.171828,66.4911544 C288.157274,38.8088243 265.245081,22.2234367 250.735419,1.59703149 C249.826501,0.305899159 247.27141,0.213028237 246.965503,2.04553009 C244.854967,14.653324 234.958114,22.384262 224.871995,28.5386594 C215.041166,34.5367619 205.260954,40.4963569 195.526958,46.6643452 C175.733252,59.2041848 152.380905,74.7544013 151.346544,101.458189 C150.373805,126.626209 170.45361,146.498321 184.774006,164.447326 C189.802761,170.751223 209.790134,192.893009 191.878085,196.238628 C179.82448,198.487916 165.250995,188.505425 157.365644,180.292011 C146.542268,169.013857 140.223864,154.553175 134.869396,139.931667 C129.158403,124.342943 116.930938,109.85508 116.820899,92.5878835 C116.809895,90.918472 114.239399,89.1290079 112.973957,90.7417908 C103.627296,102.660981 94.2828363,114.582436 84.9361755,126.501626 C83.9194208,127.799554 82.5769524,129.065769 82.1676096,130.660431 C81.5447923,133.093196 82.8146354,137.360728 83.2789974,139.850122 C83.9084169,143.220657 84.7887241,146.534563 85.8847064,149.77372 C89.8350846,161.439214 96.7410939,171.725235 104.974166,180.627252 C122.903821,200.010093 145.877636,213.177378 165.737365,230.202203 C169.031914,233.026838 178.182707,239.326205 175.92692,244.721779 C174.120089,249.04594 166.459217,249.061796 162.779533,248.903236 C153.718972,248.513631 145.604741,243.446503 137.640163,239.40775 C125.038566,233.017778 112.569016,226.820343 101.118421,218.373619 C86.3182577,207.460153 72.2707569,194.983738 60.6947183,180.470957 C59.8760327,179.442582 57.7104772,178.951045 57.0524476,180.448306 C49.1803012,198.383719 49.0284482,217.526455 57.7434887,235.176461 C66.8238566,253.571699 82.3810841,268.009729 97.9383116,280.554099 C106.032736,287.077715 114.35824,293.57868 123.029265,299.273253 C129.310256,303.398081 136.187656,306.51945 142.288184,310.947807 C144.524164,312.569651 148.223655,315.006946 148.769445,318.037709 C149.508903,322.151211 144.440535,324.56359 141.504711,325.96798 C130.294,331.327312 117.324875,330.960358 105.38571,328.896812 C79.5310898,324.427682 58.0383916,308.773268 36.4048442,294.545896 C35.051372,293.655694 32.9540403,293.841436 33.0596772,295.875536 C35.2164296,337.889435 60.9742158,371.83942 94.2630294,394.176009 C112.628437,406.498395 133.639167,410.442011 155.252907,407.615111 C160.796641,406.890265 166.280955,405.784874 171.703646,404.398606 C174.461208,403.694146 177.201164,402.917201 179.923514,402.081363 C182.659068,401.240995 186.244119,399.123085 189.02589,399.059661 C189.6289,398.842207 190.234111,398.624753 190.839322,398.407299 C192.707774,400.448194 193.112715,402.425665 192.056347,404.337447 C191.697622,405.936639 190.643454,407.644558 189.989826,409.132758 C188.726585,412.011756 187.428132,414.874899 186.101069,417.724451 C183.284087,423.774651 180.332857,429.756898 177.286994,435.689311 C170.517433,448.867922 163.274706,461.783775 155.899933,474.611288 C148.641801,487.234938 142.068107,501.46231 132.853493,512.67251 C131.739904,514.027066 133.119786,515.463168 134.391829,515.870894 C140.551778,517.839304 146.744739,519.680867 152.977313,521.393316 C153.844416,521.633421 154.698314,521.277794 155.158274,520.512175 C171.890712,492.786807 187.630603,464.658243 199.367298,434.264535 C204.167172,421.831158 207.970099,408.840554 213.315764,396.642751 C214.2797,394.441031 215.448308,391.584684 217.495022,390.178029 C221.161501,387.659189 221.984588,392.257432 223.628562,394.993726 C225.358365,397.87499 227.479905,400.54786 229.621252,403.109739 C245.424966,422.02596 267.553686,429.883746 291.321978,425.013685 C303.908169,422.435951 316.37992,417.448103 326.622293,409.39778 C336.726018,401.462979 344.47052,390.918731 350.703095,379.608865 C358.942769,364.658912 365.619899,348.576386 371.947106,332.690929 C378.34914,316.619729 384.088742,300.204227 388.041321,283.299454 C388.477073,281.432975 385.820746,280.64697 384.572911,281.158893 C371.227455,286.642807 360.905854,297.644614 348.209625,304.394744 C345.896618,305.626983 348.931477,308.755147 350.903364,307.706385 C363.597393,300.95399 373.921195,289.954448 387.266651,284.468269 C386.111248,283.754748 384.955845,283.041228 383.798241,282.327707 C376.669954,312.823347 364.198203,342.442375 350.502825,370.380667 C344.452914,382.725704 337.025323,394.538432 326.791753,403.655639 C315.930964,413.334601 302.066126,419.042765 288.018626,421.63862 C275.414829,423.967189 262.392886,422.80517 250.970901,416.566962 C245.691259,413.683433 240.90899,409.837218 236.705524,405.47908 C234.418926,403.105208 232.288583,400.572777 230.290286,397.942944 C227.83643,394.717379 226.386124,391.047845 224.200761,387.709022 C220.195364,381.588601 213.901168,386.451867 211.066579,391.206405 C205.643887,400.303225 203.040379,411.82828 199.387104,421.720165 C192.771596,439.630662 185.601495,457.371274 176.699389,474.223948 C168.770023,489.23506 159.929539,504.080817 151.168282,518.598128 C151.896736,518.305924 152.62299,518.011455 153.351444,517.716987 C147.118869,516.004537 140.925909,514.162975 134.76596,512.194564 C135.278739,513.259182 135.791518,514.326065 136.304296,515.390683 C143.844127,506.219113 149.18319,495.020239 155.149471,484.729688 C162.033473,472.853536 168.862455,460.936611 175.367925,448.833944 C181.681928,437.08917 187.701027,425.167715 193.132522,412.960852 C194.811708,409.189386 198.586025,403.857236 197.54066,399.503629 C196.832013,396.552146 193.933602,394.472743 191.052797,394.409319 C186.239718,394.305122 180.062162,397.87046 175.416342,399.222751 C169.406045,400.969177 163.309918,402.41887 157.136764,403.408738 C144.643006,405.413391 131.75751,405.40433 119.472824,402.088159 C98.1627899,396.339222 78.5605512,379.805933 64.2731667,362.971379 C48.2339711,344.073279 38.5439905,320.998253 37.2543406,295.871006 C36.1385513,296.314974 35.0249628,296.758942 33.9091735,297.202911 C53.1989032,309.889985 72.600872,324.207963 95.0200935,330.351034 C106.050342,333.372737 117.923484,334.98099 129.312457,333.578865 C136.409933,332.704519 148.179639,330.183414 152.127817,323.118428 C158.620082,311.500502 133.238627,301.42514 126.724354,297.372796 C117.316072,291.519663 108.402962,284.359542 99.7759527,277.364776 C90.5767434,269.905655 81.7010469,261.909695 74.0313711,252.769837 C66.2978731,243.552965 59.6383498,232.963414 56.7465409,221.026103 C53.5488253,207.822576 55.6549601,194.634905 61.0402388,182.364618 C59.8276158,182.355557 58.612792,182.348762 57.3979681,182.341967 C76.799937,206.665088 101.712628,225.015023 128.859099,238.963782 C136.720242,243.002535 144.779453,247.883921 153.109359,250.794631 C160.101199,253.238722 173.448855,255.01233 178.915562,248.223693 C185.693927,239.79962 170.209325,229.123995 165.074934,224.892705 C154.445225,216.133391 143.131078,208.314113 132.237278,199.919487 C121.116798,191.350446 110.218596,182.16755 101.613594,170.853154 C97.4453396,165.371504 93.9043043,159.396053 91.2963944,152.965308 C89.9473238,149.637811 88.8689475,146.201587 88.0656673,142.692878 C87.6849345,141.030262 87.3680239,139.35179 87.1083333,137.666523 C86.978488,136.828419 85.9331233,132.612986 86.0233548,132.236972 C86.4921183,130.304803 89.7008378,127.545858 90.8848508,126.035006 C94.3290524,121.645156 97.7710533,117.253041 101.215255,112.860926 C106.283623,106.393939 111.354192,99.9269514 116.424761,93.4599641 C115.141713,92.8461099 113.860867,92.2299907 112.577819,91.6138714 C112.679054,107.100664 121.814441,120.159222 128.022807,133.654952 C134.072718,146.808646 137.963675,160.3678 146.229759,172.427429 C153.622138,183.214047 163.576211,192.27689 175.687036,196.947618 C184.019143,200.161858 198.946951,203.835922 202.943545,192.140981 C206.440565,181.904794 194.118466,170.193997 188.557126,163.19017 C179.478959,151.757986 169.36423,140.878498 162.381194,127.874303 C155.142869,114.387634 153.212795,99.6302175 159.949346,85.4662694 C166.463618,71.7712061 178.556837,62.6358786 190.784303,54.7101382 C202.92814,46.8364962 215.228231,39.3796407 227.565735,31.8503006 C238.554169,25.145473 248.919785,16.6851586 251.206383,3.01954219 C249.949744,3.16904173 248.693106,3.31854126 247.436468,3.46804079 C261.963736,24.1193626 286.614536,41.64252 284.886933,70.0587569 C283.61709,90.9297977 266.338862,103.915871 260.407793,122.931758 C257.053823,133.679869 254.03657,151.021814 265.146046,158.313314 C277.668415,166.531258 294.785987,157.085606 301.366282,145.368014 C305.849246,137.385645 307.719899,128.019273 309.559741,119.103664 C311.414988,110.122367 312.753055,100.022088 317.962272,92.313801 C316.971927,92.3024753 315.97938,92.2934147 314.989035,92.282089 C332.155024,108.799522 358.632461,132.008192 344.250443,158.569276 C331.978962,181.234311 307.334765,187.744336 286.71137,199.514027 C277.68382,204.664965 268.559437,211.335815 262.478715,220.052091 C258.167411,226.231405 255.264599,235.683853 262.058369,241.308207 C268.524225,246.660743 278.696173,244.624378 286.154575,243.274352 C296.526794,241.398812 305.734806,237.98524 314.381623,231.651896 C335.304322,216.328194 348.172212,192.523791 367.827269,175.807025 C366.702676,175.666586 365.578084,175.523882 364.453492,175.383443 C374.015828,190.136329 376.106557,212.42988 374.207295,229.59741 C373.214748,238.578708 370.644252,246.488592 364.255423,252.887625 C357.122734,260.02736 347.894915,264.627869 338.722115,268.313259 C320.662614,275.570781 300.525589,278.796347 283.676511,289.005353 C277.175443,292.944439 269.719241,299.008231 269.952523,307.572742 C270.150592,314.868772 275.450041,319.337902 282.160182,320.024241 C291.544256,320.984662 301.636977,317.532582 310.966031,316.640115 C324.668012,315.333127 338.323776,313.869843 350.903364,307.706385 C353.244981,306.557957 350.207922,303.416202 348.209625,304.394744" id="Fill-20" fill="#A6D3AE" mask="url(#mask-2)"></path>
            </g>
            <path d="M1244.70228,792.636115 L1244.91223,792.90549 C1245.33431,791.934809 1245.75422,790.966449 1246.17629,789.995768 C1239.45772,790.455564 1230.68504,789.803025 1227.2738,782.423058 C1224.93832,777.36994 1226.49892,772.3772 1229.06167,767.893023 C1227.86687,767.886056 1226.67424,767.876767 1225.47944,767.869801 L1225.65476,768.097377 C1226.41667,769.077347 1228.05086,769.520888 1228.97509,768.531629 C1236.19367,760.801009 1244.93604,772.479377 1248.31698,779.10695 C1250.66545,783.714204 1251.03774,788.583867 1245.45552,789.793736 C1242.7932,790.369643 1245.01829,794.034082 1247.19577,793.562674 C1256.10048,791.6306 1255.01174,782.843377 1251.02259,776.148461 C1245.89708,767.544692 1234.74779,755.929024 1225.58117,765.744983 C1226.68723,765.88896 1227.79328,766.035259 1228.89934,766.179236 L1228.72185,765.95166 C1227.81276,764.781268 1225.94264,764.523504 1225.13962,765.93076 C1221.76951,771.82916 1220.60934,778.605353 1224.19373,784.794029 C1228.92964,792.972834 1238.68067,794.454401 1246.89274,793.89475 C1248.36676,793.794895 1249.17195,792.294751 1248.1568,790.987349 L1247.94685,790.717973 C1246.4382,788.77661 1242.89493,790.306943 1244.70228,792.636115" id="Fill-23" fill="#A6D3AE"></path>
            <g id="Group-27" transform="translate(1177.000000, 670.000000)">
                <mask id="mask-4" fill="white">
                    <use xlink:href="#path-3"></use>
                </mask>
                <g id="Clip-25"></g>
                <path d="M109.03169,1.7328 C111.785307,10.59535 111.279225,20.134775 110.872591,29.304175 C110.432808,39.2407 110.435018,49.1682 110.209602,59.11375 C109.68363,82.3102562 107.785269,105.28565 104.076946,128.184331 C100.388513,150.95215 95.6481354,173.530444 91.643677,196.241856 C87.5950192,219.203712 83.9507852,242.235512 80.3971598,265.28085 C76.9893922,287.378562 75.4092665,309.566525 72.9738839,331.77705 C70.3882236,355.343581 65.6478465,378.461119 57.7626876,400.802506 C44.1227772,439.449812 23.0816906,475.024106 0.312410462,508.70315 C-0.971579807,510.602912 2.95110991,512.588412 4.26382974,510.643525 C39.1680334,459.020525 68.2467665,403.534825 76.2601034,340.641856 C78.8700733,320.15285 79.796049,299.476575 82.6822647,279.019156 C89.1000061,233.499312 97.7741228,188.417181 105.889118,143.199675 C110.514577,117.428787 113.489191,91.6714375 114.280359,65.4741187 C114.627324,54.0371875 114.521245,42.6025125 115.047217,31.17235 C115.491421,21.4546812 116.132311,11.1864875 113.210736,1.78469375 C112.554376,-0.32715625 108.258202,-0.75584375 109.03169,1.7328" id="Fill-26" fill="#A6D3AE" mask="url(#mask-4)"></path>
            </g>
            <path d="M1133.55646,780.587091 C1138.94085,786.494666 1141.66709,794.072409 1144.83489,801.33911 C1148.16966,808.995741 1152.68411,816.028032 1156.8888,823.202321 C1164.99504,837.034746 1174.8785,849.988135 1186.113,861.289387 C1198.0417,873.291613 1211.88601,882.305117 1226.42671,890.58609 C1232.92488,894.287058 1239.71303,897.634158 1245.77843,902.067656 C1251.11889,905.973733 1258.16846,911.284014 1259.78971,918.190084 C1260.29937,920.367389 1264.54361,920.809162 1263.94168,918.241925 C1261.35384,907.204384 1249.02313,899.367437 1240.02718,894.203662 C1224.13104,885.079716 1207.88781,876.553064 1194.17531,864.052716 C1180.58363,851.660558 1168.98006,836.561419 1159.7183,820.542672 C1155.43012,813.127212 1151.04089,805.970955 1147.6578,798.059628 C1144.73384,791.218922 1141.87798,784.310598 1136.84289,778.788447 C1135.24581,777.034882 1131.61667,778.459372 1133.55646,780.587091" id="Fill-28" fill="#A6D3AE"></path>
            <g id="Group-45" transform="translate(433.000000, 714.000000)">
                <mask id="mask-6" fill="white">
                    <use xlink:href="#path-5"></use>
                </mask>
                <g id="Clip-34"></g>
                <path d="M939.153082,63.6576532 C940.641784,91.2417445 916.831358,111.443062 895.401533,123.301685 C875.513264,134.306796 847.87978,138.273254 836.009802,160.25178 C834.895478,162.314248 838.82204,164.281629 839.947376,162.20105 C846.69058,149.715309 859.716724,143.414708 872.068989,138.255142 C883.551376,133.457811 894.901629,128.948002 905.4767,122.190081 C925.483889,109.405497 944.7203,89.7113074 943.317484,63.7074603 C943.196362,61.448028 939.009938,60.9861802 939.153082,63.6576532" id="Fill-33" fill="#A6D3AE" mask="url(#mask-6)"></path>
                <path d="M797.305747,4.53433211 C805.117029,5.55085025 811.322891,13.8482644 816.024636,19.6734341 C822.129196,27.2395891 824.034118,35.1770337 826.978489,44.3166411 C831.669222,58.8693774 835.915107,76.2747035 848.584491,85.7810725 C850.636962,87.3228294 853.402953,84.9162397 851.09062,83.1843101 C836.635233,72.3376767 833.11388,49.6188359 827.90122,33.1915406 C825.357653,25.1816493 820.609662,19.0078298 815.101904,12.8974012 C810.501462,7.79443483 804.77128,1.81757985 797.717562,0.90067596 C794.925144,0.536178365 794.740158,4.20152996 797.305747,4.53433211" id="Fill-37" fill="#A6D3AE" mask="url(#mask-6)"></path>
            </g>
            <path d="M1498.34128,623.518089 C1498.87429,633.470501 1497.68613,643.143874 1496.56681,653.001004 C1495.30536,664.128559 1494.48142,676.27699 1500.62211,686.145464 L1500.77757,686.61053 C1514.53582,697.933186 1528.39624,709.12653 1542.51427,720 C1542.73192,714.736814 1543.10724,709.523538 1544.01113,704.32841 C1537.60838,701.64237 1537.35298,693.981259 1539.62049,688.155457 C1541.40162,683.575124 1545.43027,676.884979 1550.92468,676.651312 C1551.16454,676.639969 1551.38218,676.669461 1551.60649,676.685341 L1551.61315,676.372272 C1555.04883,659.942965 1555.26203,642.960116 1554.84229,626.231352 C1554.4603,611.052051 1554.6624,594.885903 1546.57179,581.541912 L1546.51183,581.353617 C1540.15127,579.103152 1533.54198,577.780549 1527.31246,578.011948 C1531.49656,597.508422 1541.95017,615.149169 1544.59522,635.074412 C1545.78338,644.033171 1544.70404,652.313614 1541.91242,660.834531 C1539.99137,666.696631 1537.55952,674.677617 1531.61205,677.55422 C1524.92503,680.789265 1519.28403,674.713915 1516.6723,669.024229 C1513.32323,661.732902 1512.19059,653.243746 1512.02625,645.251417 C1511.61317,625.008568 1517.24306,603.894572 1505.59018,585.695746 C1498.36349,574.409388 1486.84165,572.814552 1475,574.643055 C1491.70534,584.28013 1497.34856,604.915449 1498.34128,623.518089" id="Fill-47" fill="#F9D6BB"></path>
            <g id="Group-54" transform="translate(1368.000000, 576.000000)">
                <mask id="mask-8" fill="white">
                    <use xlink:href="#path-7"></use>
                </mask>
                <g id="Clip-49"></g>
                <path d="M44.8520343,42.7423982 C62.6822353,53.4195541 79.3497408,65.5129757 95.4028673,78.8020045 C106.28332,87.8107141 117.121933,96.8667077 128.000183,105.866411 C122.409115,90.1704061 128.491246,71.6869026 128.568318,55.4775298 C128.663008,35.5169672 123.946163,10.6433818 104.466608,1.20011053 C104.109872,1.02898783 103.929302,0.77455539 103.828006,0.49985842 C97.0037758,1.99943368 90.2478098,4.36813214 84.3242281,6.40134004 C87.6912007,12.260041 93.3879687,16.6822119 98.3404353,21.0143182 C103.695882,25.699928 109.317779,30.5251379 113.153794,36.6540325 C118.927634,45.8834004 119.15665,62.4012444 108.285006,68.232926 C98.8997623,73.267536 88.1470303,64.1822715 82.1331635,57.5782861 C71.6468825,46.0612779 69.3809474,28.9174851 55.6488079,20.1722144 C39.6463291,9.97915549 21.7632783,16.4750633 4.65095375,20.2217499 C10.7881367,22.2504545 16.4606818,25.886812 21.9064132,29.2709886 C29.4463179,33.9565984 37.2372591,38.1828788 44.8520343,42.7423982" id="Fill-48" fill="#F9D6BB" mask="url(#mask-8)"></path>
                <path d="M21.4065422,71.4549863 C27.629606,69.7707787 33.8416595,68.5346423 40.2563039,69.6784625 C53.2969918,72.0043803 69.6253777,78.0949975 82.6440449,72.7541679 C68.8260245,61.8563537 54.3341691,52.1023597 39.203712,43.1949727 C32.5248187,39.2636538 25.7578423,35.5192188 19.1670319,31.4347901 C13.1641756,27.715123 6.95212209,23.7747976 0.0287983936,22.1919126 C5.84227631,28.9962916 7.19214826,38.2661885 7.49603461,47.3221821 C7.83735622,57.4161699 8.19189029,67.4718803 8.75341941,77.5478552 C12.1380086,74.2357303 16.9319258,72.6663549 21.4065422,71.4549863" id="Fill-51" fill="#F9D6BB" mask="url(#mask-8)"></path>
                <path d="M232.689029,190.410032 L232.341101,190.545129 C224.990575,192.427479 221.975934,198.29969 218.659609,204.633481 C215.061419,211.505409 212.053384,218.64753 208.9925,225.778393 C203.375007,238.867028 197.343524,251.570637 186.84403,261.313373 C177.956456,269.561037 166.981314,276.194293 155.427027,279.639264 C143.414708,283.219331 130.717544,283.057214 118.658981,286.39861 C135.227393,293.581261 153.264589,294.977262 170.931837,291.045943 C187.920845,287.265482 206.797032,279.546947 219.022952,266.561886 C226.155473,258.987455 231.226851,249.668023 234.723746,239.830719 C236.454577,234.96498 237.828672,229.975402 238.962741,224.931786 C239.513259,222.486533 240.00212,220.025518 240.444737,217.557748 C240.772846,215.722683 240.788261,213.326965 241.662484,211.676531 C242.781139,209.564517 245.179198,208.337387 247.486973,208.875523 C250.772469,209.641072 252.972341,214.274894 254.835297,216.814716 C261.113413,225.368599 266.96873,234.23996 272.588425,243.257676 C278.373276,252.541083 283.907091,261.986606 289.385853,271.459148 C293.860469,279.195695 299.072781,286.84443 302.549857,295.139378 C303.430687,294.254493 304.311517,293.367357 305.183539,292.473466 C290.947124,263.812665 274.772884,235.714768 253.846565,211.581963 C247.262361,203.991771 240.17168,196.973489 232.689029,190.410032" id="Fill-52" fill="#F9D6BB" mask="url(#mask-8)"></path>
                <path d="M176.124329,233.145676 C172.695699,241.719824 167.142066,249.494649 160.943224,256.193202 C150.749819,267.210351 137.711334,274.850079 124.697071,282.084517 C134.9169,280.121109 145.436213,279.776612 155.45125,276.730178 C168.718751,272.695284 181.492988,264.271995 190.534708,253.567819 C200.430833,241.854921 205.284206,226.521426 211.577736,212.689758 C215.904814,203.18119 220.190051,192.105498 230.253534,188.302521 C224.415833,183.317447 218.355723,178.591308 212.093022,174.112846 C206.512964,170.125237 199.983812,166.69828 194.366318,162.789477 C189.105561,170.372915 179.445058,174.741047 172.294921,179.29156 L172.301527,179.302818 C175.186245,185.129996 167.223542,191.64842 162.579366,194.251287 C159.582342,196.878921 153.643346,200.114491 149.142305,198.851335 C136.25356,210.845686 122.347457,221.266157 105.812076,227.320749 C90.8005306,232.814688 75.066705,234.82538 59.324071,236.872098 C62.8385827,239.191261 66.7428616,240.976791 70.9444206,242.140876 C80.4397679,244.773013 90.5274733,243.982696 100.038235,241.848166 C117.282684,237.982144 134.868455,230.13977 150.170674,221.187351 C155.455654,218.095884 172.134169,203.478403 177.756067,212.252945 C181.308014,217.798671 178.302181,227.69902 176.124329,233.145676" id="Fill-53" fill="#F9D6BB" mask="url(#mask-8)"></path>
            </g>
            <path d="M1471.92642,799.674645 C1488.32799,793.953637 1502.36477,783.858789 1515.11348,772.144662 C1514.60485,771.658432 1514.14246,771.074064 1513.77255,770.329106 C1509.82684,762.366533 1518.45148,756.774889 1524.27757,753.745988 C1527.65521,751.990654 1536.71141,747.906768 1540.58886,751.218931 C1547.68102,746.822788 1556.07887,743.381261 1560.87009,736.181489 L1561,736.047664 C1553.26931,730.701365 1545.58486,725.292615 1538.136,719.498003 C1534.1969,716.435646 1530.26219,713.366599 1526.33189,710.288629 C1526.02364,710.411302 1525.69776,710.473753 1525.37629,710.384537 C1520.22837,708.970455 1514.14466,711.75178 1509.56262,713.937584 C1504.17029,716.51148 1499.27338,720.042223 1494.25757,723.276322 C1482.85199,730.632223 1471.22843,737.287774 1458.24193,741.338203 C1445.51745,745.310568 1432.19186,747.440612 1418.8971,747.937994 C1412.47651,748.176648 1406.1594,748.651726 1399.74542,748.107505 C1394.48961,747.661423 1389.20077,747.021294 1384,747.993754 C1385.13836,750.772848 1386.27671,753.554173 1387.41287,756.333267 C1388.0492,757.887865 1388.94095,761.300396 1390.00004,762.165796 C1391.60518,763.477279 1395.77328,764.246771 1397.92449,764.83783 C1400.6746,765.596171 1403.47535,766.124778 1406.31133,766.412502 C1411.62219,766.950031 1416.97929,766.682382 1422.2395,765.801369 C1433.27517,763.954587 1443.73835,759.654351 1453.86025,754.966024 C1463.95573,750.288849 1473.809,745.069683 1484.06301,740.744913 C1488.82781,738.735312 1501.71082,731.972701 1504.83084,739.770223 C1507.4004,746.193811 1501.10311,755.001711 1496.78749,759.061062 C1491.73425,763.814071 1485.42595,767.632537 1479.78041,771.622745 C1460.45479,785.281792 1439.21576,795.949856 1416.03249,800.921446 C1418.46774,803.932503 1421.1606,806.655836 1424.12208,809 L1424.56466,808.852793 C1440.49283,806.791892 1456.6632,804.996409 1471.92642,799.674645" id="Fill-55" fill="#F9D6BB"></path>
            <g id="Group-75" transform="translate(853.000000, 282.000000)">
                <path d="M566.784431,402.801461 C561.273611,403.129118 557.22471,399.750857 554.61351,395.093603 C554.386737,394.691375 554.373527,394.26655 554.499023,393.8824 C552.425035,384.186001 563.977281,380.552394 571.447602,380.016844 C577.189599,379.603317 583.156168,381.851725 581.705257,388.416171 C581.819744,388.755127 581.804333,389.164134 581.619391,389.573141 C578.805636,395.778294 574.049994,402.369857 566.784431,402.801461 Z M564.316341,463.029408 C579.532193,462.489339 594.908768,460.01496 609.268164,454.686573 C623.112365,449.548001 635.206226,441.056026 647.579702,433.063445 C653.28427,429.377864 661.098054,424.765804 668.420861,424.539834 C659.043881,417.080544 649.704329,409.56928 640.455046,401.945032 C626.635063,390.549334 613.169551,378.697175 599.215265,367.475474 L598.990693,367.638173 C587.674027,373.140558 574.175491,369.538586 562.458118,367.380567 C555.337865,366.069937 549.203968,364.291549 541.936202,365.717423 C536.269063,366.829199 527.559193,368.056219 523.924209,373.255803 C523.721654,373.547305 523.435435,373.73712 523.129401,373.874962 C523.164628,374.442149 523.191048,375.009335 523.226275,375.578781 C523.972646,387.345071 525.652533,399.439018 532.488768,409.277778 C539.767542,419.753776 550.914678,423.884519 563.131834,423.663068 C574.547575,423.457434 585.694712,420.370676 596.852856,418.221695 C603.748537,416.892988 616.124214,412.599546 621.841992,418.827297 C628.557135,426.141965 619.928727,435.802209 614.547807,440.531774 C606.740628,447.392242 596.786806,451.046187 586.661252,452.241571 C575.188266,453.597395 564.360374,451.17499 552.988666,450.544532 C542.966591,449.986384 532.295019,451.09816 522.750711,447.554941 C524.710211,452.40201 526.66751,457.24908 528.627011,462.09615 C528.792137,462.507416 528.957263,462.918683 529.124592,463.329949 C534.523126,462.041917 540.047156,462.55261 545.524951,463.036187 C551.845991,463.592075 557.988695,463.253119 564.316341,463.029408 L564.316341,463.029408 Z" id="Fill-56" fill="#F9D6BB"></path>
                <path d="M155.813318,904.526275 C148.314376,896.011702 144.97662,884.322242 142.110025,873.477912 C139.190589,862.432469 136.390044,851.366688 133.430978,840.332543 C125.843968,812.045541 122.46438,782.804944 118.873431,753.769979 C116.979981,738.458211 114.905992,723.275245 114.77169,707.807557 C114.639588,692.376023 115.843911,676.967087 117.741764,661.666617 C121.317302,632.846325 126.145599,603.845256 131.634403,575.343583 C137.422635,545.291751 147.807988,515.775469 168.028272,492.683532 C166.768908,492.220292 165.509543,491.757052 164.250179,491.291553 C165.914654,504.61704 162.85431,517.815984 162.852108,531.141471 C162.852108,543.522401 165.201307,555.973382 167.123379,568.155457 C171.379238,595.113752 176.145889,622.625674 176.08204,650.017832 C176.022594,676.521925 169.465973,702.422677 167.656187,728.779889 C165.83099,755.338216 167.753061,781.950775 169.155535,808.477465 C169.992176,824.297668 170.687909,840.138208 170.047218,855.978748 C169.44836,870.80694 167.92039,885.571859 166.513512,900.33452 C166.295545,902.605524 170.474345,903.839324 170.709926,901.351387 C173.215444,875.102641 175.082474,849.201889 174.001446,822.810781 C172.854368,794.75201 170.265185,766.697758 171.38144,738.591533 C172.433846,712.028688 178.693239,686.085001 180.042873,659.56735 C181.412321,632.692665 176.995739,605.530997 172.986469,579.060799 C170.696716,563.941105 167.270892,548.518611 167.061732,533.168427 C166.870185,519.169548 170.161706,505.344666 168.413567,491.343526 C168.219819,489.802407 165.725309,488.706449 164.633272,489.951547 C146.892087,510.212073 136.434078,535.37842 130.16808,561.611348 C126.819315,575.641864 124.835596,589.932245 122.446767,604.152576 C119.866391,619.50276 117.131897,634.828087 114.936816,650.239283 C110.542251,681.084272 109.342332,711.493137 113.298762,742.442073 C117.226569,773.176336 120.302325,804.174985 127.728612,834.290088 C131.013527,847.617835 134.604477,860.950101 138.155797,874.210057 C141.169905,885.472432 144.734434,897.491809 152.519596,906.32952 C154.098205,908.121467 157.724382,906.695592 155.813318,904.526275" id="Fill-58" fill="#F9D6BB"></path>
                <path d="M164.362465,490.344736 C156.352731,512.591543 151.718182,536.212251 148.314376,559.616028 C144.84672,583.442369 144.925981,606.947833 144.981023,631.009184 C145.05588,663.528615 144.025491,695.849192 142.750715,728.330208 C141.526578,759.568385 142.16947,790.960223 145.958572,822.004066 C147.766156,836.8187 149.327151,851.646891 151.066483,866.470563 C152.682521,880.254771 154.818156,894.301104 160.535935,907.002913 C161.480458,909.10218 165.54477,908.661537 164.391087,906.09677 C154.073986,883.18335 154.804946,856.383235 151.420955,831.831528 C147.085835,800.401275 145.762622,768.742792 146.68733,737.023297 C147.60103,705.672134 149.236882,674.474631 149.201655,643.085053 C149.173033,618.58306 148.246124,594.042651 151.286652,569.687538 C154.542945,543.583413 159.388856,517.034125 168.29908,492.290343 C169.100493,490.069052 165.155072,488.143782 164.362465,490.344736" id="Fill-59" fill="#F9D6BB"></path>
                <path d="M785.678255,242.073082 C746.0391,222.115358 718.21199,186.025591 689.268626,153.058738 C674.66044,136.420522 659.426974,120.412763 642.227403,106.563024 C632.797582,98.9681521 622.903205,91.9901795 612.636743,85.6426649 C602.460551,79.3516431 591.799987,73.8944527 581.828551,67.2531764 C570.699028,59.8390805 561.01161,50.8929039 554.100518,39.1559902 C547.284098,27.5817754 542.984205,14.681113 538.739354,1.94766892 C538.06784,2.46514163 537.398528,2.98261434 536.727013,3.49782734 C551.515738,9.5945145 566.306665,15.6821628 581.088785,21.7901485 C594.582918,27.3671033 608.092463,33.2965722 617.258082,45.4289345 C625.532018,56.3794704 630.765426,69.7953458 636.745205,82.135601 C642.934144,94.9097198 649.138495,107.688358 654.748391,120.7472 C655.430914,122.335773 658.471442,122.005856 657.639205,120.067028 C651.652821,106.131421 644.992721,92.5121716 638.387663,78.8793645 C632.432102,66.5933422 627.187686,53.322088 618.614321,42.6449765 C609.999123,31.913632 597.896455,25.9208914 585.597837,20.7687614 C569.72148,14.1161865 553.774668,7.63986869 537.860882,1.07768206 C536.700593,0.598624357 535.379581,1.21552413 535.848541,2.62784047 C543.272626,24.8949848 551.539957,46.601722 569.899816,61.795986 C588.081339,76.8433692 610.245712,86.1533585 629.281489,100.027954 C667.480742,127.865274 694.832287,166.334512 727.428248,200.198468 C744.308575,217.738307 762.870989,233.581107 784.544386,244.493227 C786.389399,245.421967 787.525469,243.004081 785.678255,242.073082" id="Fill-71" fill="#A6D3AE"></path>
                <path d="M536.727013,3.49782734 C547.618754,8.99795208 555.555832,20.0433957 563.266136,29.3194894 C571.542274,39.2734949 580.52075,47.1237141 590.945733,54.6733923 C613.297249,70.8528883 632.738136,91.655743 648.957957,114.20987 C650.021372,115.689977 652.69642,114.621136 651.426047,112.858566 C635.060915,90.0988055 615.377842,69.0586816 592.825973,52.7277853 C586.64584,48.2535671 580.388648,43.8426208 574.948282,38.419326 C570.712238,34.1959353 566.989187,29.4550718 563.15385,24.8543101 C555.850858,16.0979488 548.138352,6.26822706 537.860882,1.07768206 C536.01807,0.146683129 534.882,2.56682841 536.727013,3.49782734" id="Fill-72" fill="#A6D3AE"></path>
            </g>
            <path d="M1542.79369,439.408252 C1516.83603,446.203907 1491.35597,448.483123 1464.78866,445.217102 C1442.02014,442.415324 1417.36102,437.9852 1398.49693,423.218123 C1398.39789,424.025296 1398.29885,424.83247 1398.19981,425.637311 C1410.97395,421.034555 1424.4722,423.661368 1437.64911,423.612378 C1452.08495,423.558722 1465.96395,422.751548 1480.36457,424.788145 C1501.17208,427.727564 1524.36318,430.918932 1542.86852,442.072391 C1544.66447,443.152511 1545.77373,440.642341 1544.00419,439.573886 C1524.6647,427.916526 1500.34673,424.620178 1478.60604,421.690092 C1464.6346,419.807464 1451.13195,420.661295 1437.1385,420.696288 C1423.70628,420.728949 1409.93512,418.116132 1396.91447,422.807537 C1395.82942,423.19946 1395.68416,424.496536 1396.61735,425.226725 C1415.35819,439.895822 1439.42525,444.750528 1462.06392,447.722607 C1475.28705,449.458263 1488.45296,450.613035 1501.78173,449.651891 C1516.07011,448.620762 1530.18901,445.874972 1544.07902,442.238025 C1546.07966,441.713129 1544.43557,438.976671 1542.79369,439.408252" id="Fill-76" fill="#A6D3AE"></path>
            <g id="Group-82" transform="translate(143.000000, 425.000000)">
                <mask id="mask-10" fill="white">
                    <use xlink:href="#path-9"></use>
                </mask>
                <g id="Clip-78"></g>
                <path d="M1259.7181,3.09105828 C1282.73425,8.14587423 1306.26329,8.70952454 1329.62063,10.9618712 C1353.54589,13.2728374 1377.41172,16.192546 1401.3744,18.1112117 C1403.50079,18.2825613 1402.6181,15.435 1400.86371,15.2929601 C1377.60763,13.4284049 1354.43739,10.6484816 1331.22093,8.35104294 C1307.44976,6.00174847 1283.45626,5.5215184 1260.02848,0.376518405 C1257.9417,-0.0811656442 1257.83604,2.67621166 1259.7181,3.09105828" id="Fill-77" fill="#A6D3AE" mask="url(#mask-10)"></path>
                <path d="M1451.01012,68.3685276 C1435.22504,64.9302607 1419.156,65.0317178 1403.10017,65.3315798 C1387.07735,65.6314417 1370.9819,64.6168712 1354.9943,65.8862117 C1340.46173,67.0383129 1326.7304,70.5509816 1312.72172,74.4536963 C1301.33251,77.6259202 1289.37319,80.8793098 1280.40974,89.1784969 C1279.45441,90.0623006 1280.67829,91.3181135 1281.52797,91.5593558 C1288.89111,93.633589 1296.3291,93.311181 1303.89255,93.2863804 C1312.41575,93.254816 1320.01002,95.0900613 1328.09077,97.6152147 C1342.29096,102.050015 1357.28579,104.097193 1372.13094,103.770276 C1401.46024,103.120951 1429.24207,88.7523773 1452.12835,70.7493865 C1453.54154,69.6356135 1450.89566,67.6718558 1449.58372,68.7044632 C1426.14713,87.1403374 1397.80619,101.227086 1367.77249,100.976825 C1353.04621,100.852822 1338.9825,98.1405368 1324.93859,93.8071933 C1318.78833,91.908819 1312.70851,90.6124233 1306.27209,90.4771472 C1298.02625,90.3035429 1289.89928,91.117454 1281.83615,88.8425613 C1282.21036,89.636181 1282.58237,90.4298006 1282.95437,91.2234202 C1292.32945,82.5432055 1305.16707,79.6933896 1317.01634,76.3520706 C1331.06244,72.3907362 1344.87301,69.2838957 1359.47602,68.4316564 C1374.15608,67.574908 1388.90878,68.4271472 1403.60865,68.1498313 C1419.39153,67.8544785 1435.18322,67.7034202 1450.70195,71.0853221 C1452.78872,71.5384969 1452.89438,68.778865 1451.01012,68.3685276" id="Fill-79" fill="#A6D3AE" mask="url(#mask-10)"></path>
                <path d="M1283.61915,91.5120092 C1286.29365,87.7580982 1292.82693,87.018589 1296.95865,86.2880982 C1302.98785,85.2239264 1309.10729,84.6963497 1315.20912,84.3153221 C1331.23854,83.3142791 1347.3384,82.6559356 1363.38763,82.1644325 C1392.8424,81.2603374 1423.9503,82.2388344 1451.84439,70.9635736 C1453.62079,70.2466104 1451.38213,67.8770245 1449.86768,68.4902761 C1419.18021,80.895092 1384.52392,78.2977914 1352.21414,79.758773 C1337.70137,80.4171166 1323.09396,80.6876687 1308.61201,81.9457362 C1302.76112,82.4552761 1296.84639,83.0820552 1291.12977,84.4889264 C1287.70465,85.3321472 1283.26915,86.3873006 1281.07452,89.4670859 C1279.99591,90.9821779 1282.6462,92.8805521 1283.61915,91.5120092" id="Fill-80" fill="#A6D3AE" mask="url(#mask-10)"></path>
            </g>
            <g id="Group-98">
                <mask id="mask-12" fill="white">
                    <use xlink:href="#path-11"></use>
                </mask>
                <g id="Clip-88"></g>
                <path d="M-102.432,600.458456 C-91.6938,622.9211 -42.7174,629.57971 -21.1904,633.480463 C42.4908,645.015579 120.6414,648.796622 179.6784,616.115676 C254.0912,574.923996 298.617,494.171409 314.952,411.002027 C320.2914,383.814208 320.3134,348.91749 337.4492,326.384826 C353.9514,304.685618 383.2246,295.013919 401.5836,275.060676 C420.42,254.592452 417.8724,230.67973 429.11,206.550174 C447.876,166.248417 484.5368,132.840174 508.2506,95.2352896 C535.194,52.505444 559.5546,-7.50787645 550.4752,-60.4131081 L-72.9652,-130.113938 L-147.6068,573.602664 L-102.432,600.458456" id="Fill-91" fill="#365041" mask="url(#mask-12)"></path>
                <path d="M539.9394,-119.055405 C529.9712,-100.766815 516.9384,-84.3055019 508.3298,-65.2286293 C498.7884,-44.0827992 492.338,-21.4530116 485.474,0.706969112 C478.7684,22.3542278 471.5392,43.6062162 461.923,64.0992857 C452.925,83.2800579 442.4508,101.627375 431.4376,119.651699 C420.5278,137.502104 408.5708,156.822915 391.1226,168.665212 C392.1104,168.915927 393.0982,169.164382 394.086,169.415097 C389.2174,161.929807 391.1534,150.112355 392.0444,141.74166 C392.9332,133.398069 394.4578,125.088359 394.7592,116.688301 C395.7184,89.9906178 397.9008,63.7243436 404.6966,37.8262355 C417.2982,-10.2092664 444.378,-51.1954054 479.5868,-84.8927606 C498.6696,-103.156506 519.6224,-119.211255 541.4178,-133.888205 C543.5914,-135.351834 540.6302,-138.437201 538.7844,-137.194923 C499.1844,-110.526602 461.7382,-78.9908108 434.5176,-38.7816602 C404.5294,5.51571429 391.9564,58.0640734 390.6474,111.500097 C390.3812,122.353089 388.5354,132.953108 387.5476,143.745116 C386.7336,152.628533 385.7128,163.402471 390.7948,171.219788 C391.336,172.050985 392.9068,172.547896 393.756,171.969672 C408.3772,162.047259 419.078,147.101525 428.659,132.302606 C439.9296,114.892645 450.4632,96.8638031 459.866,78.3199807 C470.371,57.6010425 478.8388,36.1706178 485.87,13.9744981 C493.0288,-8.63044402 499.5386,-31.481583 508.2198,-53.5421815 C517.2684,-76.5401351 532.1646,-95.6283012 543.873,-117.110676 C544.9906,-119.161564 541.068,-121.126622 539.9394,-119.055405" id="Fill-92" fill="#B4CAC7" mask="url(#mask-12)"></path>
                <path d="M393.2104,170.266622 C411.4946,126.235772 418.6842,78.3719305 436.8078,34.2936486 C446.0896,11.7225869 459.019,-9.18156371 471.5568,-29.9614865 C478.1414,-40.877722 484.9636,-51.6539189 492.3006,-62.0551737 C499.1382,-71.7472008 506.7546,-80.7932432 513.7132,-90.3836293 C528.3542,-110.558224 541.1802,-132.754344 559.735,-149.527355 C561.5412,-151.162645 558.0102,-153.766911 556.3426,-152.258108 C539.803,-137.307857 527.8064,-117.948649 515.031,-99.7278185 C501.4878,-80.4137838 486.596,-62.3894595 474.023,-42.3255405 C460.9242,-21.4236486 447.4316,0.0474324324 437.1202,22.562027 C427.3588,43.8727413 420.6312,66.4415444 414.3348,89.0306757 C406.8856,115.762239 399.9204,142.690309 389.2768,168.324151 C388.3726,170.501525 392.3106,172.439479 393.2104,170.266622" id="Fill-93" fill="#B4CAC7" mask="url(#mask-12)"></path>
                <path d="M247.6034,-60.7880502 C269.5396,-8.00252896 261.3776,50.5674903 265.8656,106.266718 C268.1096,134.109556 274.8526,160.183842 282.975,186.712124 C289.245,207.189382 294.6548,228.434595 297.2288,249.767896 C300.245,274.744459 293.711,301.796757 284.8208,324.941525 C285.7932,325.072529 286.7656,325.201274 287.7402,325.330019 C281.1138,311.929228 276.771,297.444266 271.3524,283.514942 C265.4718,268.39529 255.882,254.384653 253.4136,238.056602 C251.6514,226.415328 252.3708,214.046757 252.8724,202.326429 C253.3652,190.791313 255.189,180.29971 257.7146,169.092104 C261.6372,151.702471 264.8096,134.059865 269.8432,116.957085 C270.3426,115.263069 267.3836,113.83332 266.893,115.497973 C262.526,130.342066 259.5428,145.585946 256.2516,160.705598 C253.5808,172.979305 250.6548,184.622838 249.9398,197.215019 C249.2666,209.075386 248.9234,221.148069 249.7594,233.010695 C250.91,249.370367 259.4372,262.705656 265.683,277.326139 C272.525,293.349266 277.1274,310.382027 284.8516,326.009884 C285.307,326.931429 287.265,327.71971 287.771,326.400637 C295.702,305.749459 301.972,281.665077 301.1492,259.322143 C300.3616,237.973031 294.5008,216.343842 288.7764,195.92305 C285.769,185.192027 282.0048,174.707201 279.0524,163.960367 C274.945,149.023668 271.9706,133.759459 270.1666,118.348436 C266.7434,89.1097297 267.5904,59.6022394 266.6708,30.2234942 C265.6918,-1.03447876 262.5546,-32.4392664 250.4898,-61.4679151 C249.8276,-63.0670656 246.7938,-62.7372973 247.6034,-60.7880502" id="Fill-94" fill="#FFFFFE" mask="url(#mask-12)"></path>
                <path d="M287.7402,325.330019 C282.5988,313.015656 283.9078,297.195811 283.932,284.122529 C283.943,277.886293 284.0904,271.634247 283.8506,265.40027 C283.4964,256.248069 281.3734,247.427896 279.213,238.582876 C272.7626,212.163012 271.4998,184.485058 270.2656,157.369517 C269.6518,143.851274 268.961,130.12749 269.9422,116.609247 C270.0654,114.906197 266.9304,113.984653 266.7962,115.845811 C264.9086,141.863629 267.3594,168.742008 269.566,194.655927 C270.611,206.95222 271.6846,219.356931 274.3928,231.404768 C276.7578,241.934768 279.9764,252.338282 280.632,263.184498 C281.0082,269.40944 280.808,275.684073 280.7904,281.91805 C280.7508,295.955792 279.3384,312.80334 284.8516,326.009884 C285.5182,327.606776 288.552,327.277008 287.7402,325.330019" id="Fill-95" fill="#FFFFFE" mask="url(#mask-12)"></path>
                <path d="M256.1328,-38.1288996 C246.312,-22.5462162 239.0982,-5.48183398 229.8274,10.4238417 C222.8886,22.3293822 214.8344,33.5708687 206.0982,44.1483012 C188.4432,65.5245174 164.9516,89.5321042 136.6068,93.4735135 C137.3438,94.0562548 138.083,94.6412548 138.8222,95.2239961 C140.6878,87.4315251 145.7984,81.4731081 150.5724,75.3633591 C155.0626,69.6172587 158.7058,63.4058687 162.1312,56.9415058 C169.84,42.3933012 177.9294,28.7621236 188.947,16.5494015 C199.1,5.29436293 210.6214,-5.25596525 223.036,-13.8209073 C234.575,-21.7850386 246.9346,-28.3962162 258.5946,-36.1593243 C260.2292,-37.2480116 258.0094,-39.5654247 256.619,-38.6393629 C244.5168,-30.5803668 231.6402,-23.7839768 219.747,-15.3861776 C207.1476,-6.49146718 195.4172,4.28247104 185.1542,15.8988996 C174.2906,28.1974517 166.43,41.8760618 158.7102,56.3677992 C154.7128,63.8756757 150.106,70.597529 144.914,77.2674324 C140.8352,82.5098456 137.2558,87.8629344 135.6762,94.4605598 C135.3858,95.6734749 137.0116,96.3352703 137.8916,96.2133012 C166.1836,92.2809266 189.8314,68.6934556 207.5964,47.4550193 C216.3722,36.9611583 224.466,25.7874324 231.5258,14.0016023 C241.4082,-2.49359073 248.8244,-20.3959459 259.083,-36.6697876 C260.0048,-38.1356757 257.0722,-39.6218919 256.1328,-38.1288996" id="Fill-96" fill="#FFFFFE" mask="url(#mask-12)"></path>
                <path d="M138.5208,95.867722 C158.8884,78.5210039 180.4704,60.8806564 195.7362,38.4722201 C213.07,13.0258494 235.4572,-7.87604247 253.3652,-32.8119498 C254.4498,-34.3230116 251.801,-36.2270849 250.822,-34.8605792 C233.5278,-10.7807143 211.5806,9.23351351 194.9266,33.8464286 C179.036,57.3367761 157.2934,75.6637645 135.9776,93.8190927 C134.5938,94.9958687 137.2404,96.9564093 138.5208,95.867722" id="Fill-97" fill="#FFFFFE" mask="url(#mask-12)"></path>
            </g>
            <path d="M265.975894,86.634825 C291.00039,99.916226 313.00427,116.121064 332.020678,137.383449 C349.753268,157.21335 368.179694,179.764297 373.834236,206.62394 C374.54575,206.2304 375.257263,205.834612 375.970986,205.441072 C363.300746,200.118167 354.267621,189.18676 344.41029,179.941952 C333.465801,169.67394 321.641865,160.953101 311.567986,149.65514 C303.182293,140.250667 295.234115,130.351458 287.820677,120.139666 C279.985193,109.352182 272.295546,97.878815 267.995531,85.0921495 C267.443114,83.450527 264.426916,83.7788515 265.096446,85.7690377 C269.288187,98.2363739 276.73477,109.48711 284.311724,120.060958 C292.372595,131.311695 301.100785,142.211619 310.383603,152.441401 C320.464111,163.552712 332.314564,172.21733 343.135311,182.45161 C352.990433,191.772878 362.120783,202.50864 374.830797,207.847286 C375.690358,208.209342 377.243755,207.97097 376.967546,206.662169 C371.204731,179.2898 352.570596,156.244118 334.499926,136.036419 C315.112294,114.355758 292.624497,97.7663751 267.116083,84.2263623 C265.282058,83.2548816 264.150708,85.665593 265.975894,86.634825" id="Fill-99" fill="#FFFFFE"></path>
            <g id="Group-104" transform="translate(263.000000, 0.000000)">
                <mask id="mask-14" fill="white">
                    <use xlink:href="#path-13"></use>
                </mask>
                <g id="Clip-101"></g>
                <path d="M109.860242,201.324235 C95.1037793,180.735153 76.9080877,163.30998 59.9026455,144.761765 C41.4658352,124.64851 23.6230537,103.97148 4.92539683,84.1107959 C3.71322751,82.8231327 0.988586546,83.892051 2.46598639,85.461602 C21.1636432,105.322286 39.0064248,125.999316 57.4432351,146.110316 C74.4486772,164.660786 92.6443689,182.083704 107.400831,202.675041 C108.459562,204.152133 111.122827,203.085469 109.860242,201.324235" id="Fill-100" fill="#FFFFFE" mask="url(#mask-14)"></path>
            </g>
            <path d="M263.09148,35.3780807 C250.5881,45.7510738 240.422573,58.5133264 230.557441,71.4897108 C220.642243,84.5292077 209.860689,96.9240554 200.328603,110.256575 C191.094735,123.176609 183.652351,136.973456 177.511676,151.719245 C171.690987,165.691905 164.309552,179.88546 165.051831,195.544126 C165.101897,196.57872 166.762774,197.390167 167.572533,196.801868 C173.848168,192.230719 178.432451,186.144869 183.184345,180.000415 C188.519613,173.100864 194.320712,167.655155 201.41699,162.716601 C215.37663,153.001781 227.882188,141.661814 238.315457,127.925826 C257.703968,102.40132 265.028807,68.7307922 265.906047,36.7823343 C265.953936,35.0828043 262.843328,34.1721809 262.793262,36.020476 C261.909493,68.223638 254.504113,101.973057 234.599707,127.436704 C224.08372,140.888686 211.695708,151.577241 197.960275,161.289807 C191.786949,165.653587 186.469094,170.551569 181.743321,176.56529 C176.751982,182.917114 172.165523,189.557453 165.617792,194.326956 C166.458026,194.746203 167.29826,195.165451 168.138494,195.582444 C167.361386,179.170936 176.038001,163.449157 182.220034,148.840863 C188.44778,134.117614 196.652035,120.422198 206.184121,107.754614 C215.285206,95.657297 225.032793,84.073896 234.216595,72.0329293 C243.72256,59.5704611 253.589869,47.3919992 265.607829,37.4224755 C266.990079,36.2751801 264.373599,34.316438 263.09148,35.3780807" id="Fill-105" fill="#FFFFFE"></path>
            <g id="Group-109" transform="translate(0.000000, 35.000000)">
                <mask id="mask-16" fill="white">
                    <use xlink:href="#path-15"></use>
                </mask>
                <g id="Clip-107"></g>
                <path d="M169.218604,160.562234 C167.934455,155.612493 172.009752,149.283057 174.273561,145.195907 C177.618526,139.16454 181.464353,133.41995 185.427122,127.801813 C195.036174,114.174219 204.929857,100.706949 214.872081,87.336777 C234.56457,60.8583723 257.496115,34.4883561 267.528803,2.19310252 C268.05173,0.506306655 265.086273,-0.92532464 264.569965,0.736632194 C253.747371,35.5699829 228.154858,63.4913094 207.224556,92.2232914 C198.043553,104.827969 188.57792,117.288129 179.796284,130.193134 C175.890882,135.933208 172.058294,141.822316 169.037676,148.111106 C167.314445,151.696959 165.021953,156.405084 166.08987,160.523846 C166.509094,162.145157 169.715053,162.472581 169.218604,160.562234" id="Fill-106" fill="#FFFFFE" mask="url(#mask-16)"></path>
                <path d="M35.9473419,35.2199784 L35.9451355,35.2199784 C35.4089703,35.8815998 34.872805,36.5161241 34.347672,37.141616 C32.4832291,39.3545477 30.7224889,41.4432842 29.2110766,44.1349317 C27.128196,47.8427212 24.7342072,52.1714865 22.6778039,56.577027 C19.0261435,64.4058372 16.5902323,72.7630414 14.6860734,79.9031331 C12.6517345,87.5377473 10.7321306,95.8588219 10.434261,104.938616 C10.3062874,108.883505 10.3526227,112.882589 10.3989579,116.748445 C10.4585318,121.820123 10.5225186,127.06341 10.1849331,132.202837 L10.1827267,132.46026 C-2.46238851,138.674533 -14.5448612,142.928781 -26.7288301,145.460104 C-45.2629372,149.310154 -64.0684365,149.664674 -82.7128657,146.550763 C-82.8629037,147.826586 -82.9952901,149.102409 -83.1078187,150.378232 C-77.3225295,151.308567 -71.400441,151.92051 -65.4187786,152.193739 C-63.1748278,156.034756 -60.3307249,159.485123 -57.5792926,162.824844 C-53.9519031,167.225868 -50.1987464,171.778184 -47.9239054,177.163737 C-46.9927872,179.367637 -46.0727011,181.573794 -45.1526151,183.78221 C-41.3597425,192.889101 -37.4366898,202.307609 -32.7149054,211.215788 C-26.9472678,222.102057 -21.0626888,231.242819 -14.7257894,239.155179 C-7.15107631,248.614333 1.93725548,256.330238 9.86058625,262.822257 C15.114123,267.123925 19.7542691,271.685274 24.0480039,276.768243 C27.8011606,281.209913 31.6116848,285.39416 36.9446534,287.785481 C37.487438,288.029355 38.0986222,287.977419 38.6215488,287.645479 C39.177572,287.290959 39.5482542,286.642886 39.572525,286.008362 C40.5786623,263.635171 26.9958095,242.235219 16.6895221,228.086004 C10.3570355,219.38557 3.21919788,211.008043 -4.5232047,203.183749 C-12.3472456,195.280422 -21.1112305,188.29388 -29.5883781,181.537665 L-33.2996124,178.577304 C-39.0628371,173.993374 -45.0224351,169.251378 -49.7773161,163.59937 C-50.8672981,162.300966 -51.9175642,160.952884 -52.9678303,159.60706 C-54.6138355,157.493485 -56.306176,155.323457 -58.1728253,153.334076 C-31.9911927,156.344115 -8.00938198,168.605563 15.2045871,180.476361 C19.3769676,182.610259 23.5405224,184.737383 27.7040772,186.808055 C38.0721449,191.96554 47.301689,196.066238 55.9134294,199.340474 C62.9497708,206.360887 70.4097489,213.150974 77.6226055,219.71751 L78.3926536,220.419777 C80.0232137,221.905603 81.6427416,223.434332 83.2688889,224.972094 C88.959301,230.346356 94.8416736,235.903524 101.597797,239.882285 C110.990618,245.41913 121.874993,245.915911 131.340626,245.949782 C139.561826,245.976879 147.785233,245.967847 156.00864,245.956557 L167.954313,245.945266 C168.642723,245.945266 169.273765,245.489131 169.604731,244.750735 C169.712847,244.506861 169.77904,244.256212 169.798898,244.01008 C169.84082,243.520074 169.708434,243.054906 169.408358,242.700386 C158.38939,229.628282 148.054419,218.376202 133.13005,213.065166 C123.59381,209.668994 113.391226,208.318654 103.52402,207.00896 C97.0260505,206.148626 90.3052302,205.258937 83.8822796,203.795692 C68.1635916,200.207582 51.8888805,194.271054 34.1248214,185.645137 C33.292993,185.243196 32.4633711,184.834481 31.6337492,184.425766 C37.9838873,184.423508 44.2479742,183.506722 50.1457918,182.47929 C59.2385365,180.898624 68.055476,178.857308 76.3539018,176.411792 C82.1789069,174.697899 87.7413454,172.259158 93.1184429,169.899451 C96.6531619,168.34814 100.309235,166.744894 104.000611,165.367457 C105.304618,164.879709 106.619657,164.407767 107.934696,163.938084 C114.832032,161.469987 121.96325,158.916084 127.71103,153.808276 C128.225131,153.349883 128.456807,152.573099 128.30015,151.864058 C128.156731,151.24534 127.724269,150.782431 127.141768,150.626622 C109.397567,145.913981 90.7068026,150.375974 74.579923,154.926032 C56.6724452,159.977388 39.9939553,168.305237 23.5824448,180.388295 C21.3274618,179.2457 19.0768916,178.094072 16.824115,176.940186 C8.26532917,172.561743 -0.584706949,168.034265 -9.49211055,163.994536 C-22.4395082,158.121235 -33.762965,154.160539 -44.6010048,151.739862 C-24.1472938,149.899516 -3.86347875,143.956214 14.4367455,134.406737 L15.0126267,134.092862 C25.0673798,128.804406 34.9059016,122.547229 44.4200766,116.495539 C48.6056958,113.835504 52.9281143,111.087405 57.2174362,108.449951 C79.389965,117.753297 99.788515,120.397524 117.850444,116.305859 C127.492592,114.12454 136.353661,109.757388 144.184321,103.324079 C146.247343,101.632767 148.279476,99.8217761 150.245415,98.0717536 C156.456547,92.5394245 162.879498,86.8196736 170.948454,84.2093174 C171.850888,83.9180234 172.409118,82.7122014 172.301002,81.8225126 C172.210538,81.0818579 171.680992,80.5737869 170.846958,80.5241088 C152.153987,79.3611906 132.823354,78.1576268 113.975933,81.1518588 C99.1596792,83.5047923 83.9065504,89.1568004 67.3516212,98.4262743 C59.1017371,103.046334 50.9908588,108.197045 43.14696,113.176141 C36.9380341,117.118772 30.5194963,121.196889 24.0811005,124.976938 C23.0352474,125.593397 21.9827748,126.196308 20.9303023,126.792445 C26.8700424,117.05103 29.2397603,104.455384 31.1814287,94.144929 C34.6367158,75.8001772 38.0765578,56.2383129 38.8929411,36.3941871 C38.9260377,35.6151448 38.5112268,34.9399748 37.8382622,34.6735198 C37.1741233,34.4115809 36.432759,34.6260998 35.9473419,35.2199784 L35.9473419,35.2199784 Z" id="Fill-108" fill="#FFFFFE" mask="url(#mask-16)"></path>
            </g>
            <path d="M169.887872,633.296025 C170.472599,620.696545 173.178613,608.672125 175.820879,596.408661 C178.803869,582.566596 181.366998,567.380467 174.908616,554.147291 C174.809695,553.944328 174.787713,553.741366 174.772326,553.540658 C158.949509,537.470513 142.97941,521.549207 126.651002,506 C125.716756,512.596292 124.589067,519.111398 122.801911,525.531789 C130.491299,529.757926 129.84722,539.436997 126.270709,546.473041 C123.461378,552.004906 117.570138,559.897904 110.652327,559.469427 C110.35117,559.449131 110.082987,559.383732 109.801614,559.334119 L109.755451,559.728769 C103.380601,579.959652 100.975744,601.313595 99.3996174,622.430749 C97.9663752,641.592694 95.6802222,661.918293 104.143385,679.785787 L104.196142,680.031597 C111.887729,683.702969 120.00577,686.240005 127.844637,686.767708 C125.052893,661.672483 114.165089,638.083693 113.35834,612.647941 C112.995633,601.212114 115.3895,590.93092 119.961806,580.570795 C123.107464,573.44229 127.16099,563.713605 134.977875,560.876636 C143.768573,557.68561 150.07308,566.07925 152.634011,573.586619 C155.915959,583.207057 156.267675,594.047526 155.467522,604.130268 C153.438561,629.672012 143.72241,655.509178 156.041258,679.961688 C163.680087,695.123011 177.926777,698.647798 193,697.908112 C173.270939,683.572171 168.793156,656.848733 169.887872,633.296025" id="Fill-110" fill="#A6D3AE"></path>
            <path d="M279.033936,651.881771 C257.847807,635.83452 238.30795,618.134342 219.697829,598.985864 C207.085939,586.005733 194.531196,572.971036 181.919306,560 C186.99879,580.826414 176.967304,603.649071 174.815502,624.370898 C172.164763,649.885528 174.975953,682.33017 198.406198,697.017794 C198.832602,697.286081 199.030419,697.633946 199.122733,698 C207.938747,696.995057 216.781137,694.871491 224.526746,693.066232 C221.014407,685.119909 214.372174,678.701463 208.661876,672.499011 C202.483413,665.787268 195.988443,658.864077 191.915625,650.508501 C185.787714,637.933076 187.590041,616.774713 202.072394,610.776888 C214.576584,605.595295 227.017033,618.655002 233.782352,627.90866 C245.578799,644.042309 246.271156,666.27155 262.522867,679.299427 C281.462681,694.480427 304.892926,688.569 327,686.070285 C319.498365,682.653025 312.790194,677.241795 306.33259,672.182977 C297.395687,665.18021 288.080736,658.732206 279.033936,651.881771" id="Fill-111" fill="#A6D3AE"></path>
            <g id="Group-117" transform="translate(0.000000, 296.000000)">
                <mask id="mask-18" fill="white">
                    <use xlink:href="#path-17"></use>
                </mask>
                <g id="Clip-114"></g>
                <path d="M60.3309474,142.5825 L60.7901974,142.4565 C70.3179868,141.048 74.8731316,134.01675 79.8655526,126.43875 C85.2842632,118.2195 89.9910263,109.5795 94.7615132,100.95975 C103.520224,85.14 112.753566,69.8625 127.256197,58.923 C139.535092,49.66425 154.246474,42.72525 169.285263,39.89925 C184.919539,36.963 200.947145,38.853 216.609987,36.22275 C196.583171,24.93225 173.961263,20.77425 151.132803,23.4045 C129.183289,25.93575 104.350829,33.201 87.2531053,48.01275 C77.27925,56.655 69.6895395,67.7745 64.0225263,79.7625 C61.2208816,85.69125 58.8499211,91.82475 56.7778026,98.05725 C55.7714079,101.079 54.8419211,104.12775 53.9717632,107.19225 C53.3235395,109.4715 53.0005263,112.50225 51.6865,114.4755 C50.0055132,116.99775 46.8193289,118.23525 43.9715395,117.2475 C39.9151974,115.84125 37.7222237,109.68525 35.6896579,106.22475 C28.8404605,94.56525 22.5625789,82.55925 16.6033158,70.4025 C10.4682632,57.88575 4.67160526,45.198 -1.05473684,32.47875 C-5.72853947,22.09725 -11.3472105,11.7225 -14.6894079,0.76275 C-15.9155395,1.7685 -17.1394737,2.77425 -18.3546184,3.789 C-3.99481579,41.949 12.8875658,79.659 36.2763553,112.977 C43.6331447,123.4575 51.7062763,133.28325 60.3309474,142.5825" id="Fill-115" fill="#A6D3AE" mask="url(#mask-18)"></path>
            </g>
            <path d="M137.369358,392.207072 C142.808274,381.792642 150.843138,372.676353 159.559521,365.006952 C173.889059,352.3974 191.401224,344.441776 208.831784,337 C195.616054,338.131366 182.228291,337.171283 169.136072,339.702208 C151.79153,343.05574 134.517565,352.034552 121.685604,364.402955 C107.642788,377.938785 99.5351406,396.732538 89.7931717,413.430333 C83.0948787,424.910772 76.2510187,438.37899 63,441.863237 C69.7710765,448.957941 76.8553428,455.755154 84.2329489,462.263891 C90.8055248,468.062707 98.5823377,473.298094 105.210053,479 C112.847915,470.086546 127.327432,465.236545 135.238784,461.040123 L135.232168,461.024347 C132.547998,453.17014 143.311143,446.023601 149.53524,443.339423 C153.670669,440.407336 161.652599,437.083102 167.201794,439.280477 C185.075672,425.787468 204.056741,414.419715 225.805792,408.943181 C245.545575,403.971479 265.770582,403.509467 286,403.009142 C281.835898,399.599267 277.115995,396.815925 271.935129,394.780818 C260.223593,390.183234 247.327669,389.845176 234.991959,391.285302 C212.625351,393.897361 189.321379,401.501405 168.769949,410.81602 C161.674655,414.03433 138.657406,430.348993 132.640632,418.476407 C128.838242,410.976034 133.913241,398.823988 137.369358,392.207072" id="Fill-118" fill="#A6D3AE"></path>
            <path d="M226.591607,411.595288 C205.151538,416.747831 186.139061,427.82772 168.546703,441.155212 C169.128359,441.848693 169.635388,442.657378 170.008526,443.662587 C173.974763,454.401383 162.370172,460.425861 154.626462,463.534103 C150.137832,465.336703 138.184247,469.368834 133.710981,464.60482 C124.193768,469.296549 113.151079,472.594538 106.182179,481.1919 L106,481.345505 C115.080422,489.231314 124.088412,497.196184 132.753992,505.619611 C137.33481,510.074155 141.911237,514.535477 146.48108,519.003575 C146.884947,518.888371 147.304178,518.852229 147.699265,519.008092 C154.016272,521.508691 162.054103,518.752837 168.118692,516.557189 C175.256602,513.97527 181.887483,510.099003 188.634695,506.618043 C203.975056,498.702868 219.501985,491.713842 236.41611,488.246435 C252.987825,484.846795 270.084129,483.889023 286.932406,485.022989 C295.071204,485.569642 303.106839,485.804567 311.138085,487.35643 C317.716288,488.628188 324.309856,490.155203 331,489.599514 C329.920095,485.88137 328.837995,482.163226 327.755895,478.44734 C327.152289,476.366896 326.463081,471.871691 325.236116,470.622522 C323.377011,468.725048 318.212342,467.182222 315.571842,466.136352 C312.198236,464.799085 308.728053,463.748698 305.185437,463.001004 C298.547971,461.605005 291.752471,461.234546 284.996478,461.663737 C270.82821,462.562778 257.066004,466.685264 243.690105,471.349886 C230.34713,476.003214 217.239013,481.386165 203.740198,485.567383 C197.467091,487.512293 180.335668,494.469696 177.394463,484.051663 C174.969066,475.472373 184.045098,465.011422 190.013111,460.378424 C197.001766,454.957072 205.452243,450.897834 213.092792,446.531386 C239.236594,431.586525 267.415095,420.730266 297.318811,417.439054 C294.630023,413.253318 291.576876,409.401899 288.139617,406 C287.955243,406.06099 287.770869,406.124239 287.560156,406.131016 C267.189018,406.65508 246.541318,406.801908 226.591607,411.595288" id="Fill-119" fill="#A6D3AE"></path>
            <g id="Group-128">
                <mask id="mask-20" fill="white">
                    <use xlink:href="#path-19"></use>
                </mask>
                <g id="Clip-121"></g>
                <path d="M278.195376,564.770462 C285.212774,565.088615 289.912317,569.899282 292.630789,576.138256 C292.866316,576.677538 292.831097,577.216821 292.621984,577.686154 C294.021942,590.222769 278.934976,593.282462 269.406018,592.966564 C262.084856,592.725128 254.81432,589.085538 257.482164,580.978256 C257.378708,580.533744 257.451348,580.017026 257.737503,579.527385 C262.084856,572.051897 268.941567,564.348513 278.195376,564.770462 Z M288.934988,488.930256 C269.599723,487.587692 249.817616,488.670769 230.96221,493.499487 C212.780369,498.154462 196.392499,507.286154 179.711871,515.747692 C172.023109,519.649026 161.545438,524.441641 152.245404,523.753436 C163.174319,534.437538 174.050406,545.175795 184.798824,556.051692 C200.858716,572.300103 216.407933,589.081026 232.66153,605.130872 L232.963093,604.957128 C247.990627,599.503385 264.627232,605.852923 279.194716,610.142359 C288.043506,612.746256 295.586989,615.812718 304.968467,614.977846 C312.285227,614.325744 323.46948,613.930872 328.728127,607.838564 C329.023086,607.497846 329.408295,607.297026 329.813314,607.163897 C329.839728,606.43959 329.87935,605.719795 329.905764,604.995487 C330.449458,590.015179 329.852936,574.49559 322.441524,561.142154 C314.548052,546.926769 300.955695,540.218462 285.457106,538.871385 C270.977669,537.614564 256.469616,540.033436 242.069422,541.267692 C233.170005,542.030359 216.956029,545.814359 210.504337,537.176821 C202.925635,527.032 215.074011,515.962051 222.485422,510.697846 C233.238242,503.059897 246.306716,499.763282 259.278337,499.598564 C273.975692,499.411282 287.383148,503.915077 301.699697,506.227897 C314.321329,508.265436 327.975319,508.278974 339.610817,514.030564 C337.744207,507.64041 335.877596,501.250256 334.010986,494.860103 C333.8525,494.316308 333.696216,493.774769 333.53773,493.233231 C326.537941,494.142564 319.608591,492.759385 312.729868,491.421333 C304.798975,489.875692 296.978142,489.48759 288.934988,488.930256 L288.934988,488.930256 Z" id="Fill-120" fill="#A6D3AE" mask="url(#mask-20)"></path>
            </g>
        </g>
    </g>
</svg>
